<svg width="16" height="16" viewBox="0 0 16 16" fill="none" xmlns="http://www.w3.org/2000/svg">
<path d="M3.33325 13.3333V11.9999H12.6666V13.3333H3.33325ZM3.33325 10.9999L2.48325 5.64992C2.46103 5.64992 2.43603 5.6527 2.40825 5.65825C2.38047 5.66381 2.35547 5.66659 2.33325 5.66659C2.05547 5.66659 1.81936 5.56936 1.62492 5.37492C1.43047 5.18047 1.33325 4.94436 1.33325 4.66659C1.33325 4.38881 1.43047 4.1527 1.62492 3.95825C1.81936 3.76381 2.05547 3.66659 2.33325 3.66659C2.61103 3.66659 2.84714 3.76381 3.04159 3.95825C3.23603 4.1527 3.33325 4.38881 3.33325 4.66659C3.33325 4.74436 3.32492 4.81659 3.30825 4.88325C3.29159 4.94992 3.27214 5.01103 3.24992 5.06659L5.33325 5.99992L7.41658 3.14992C7.29436 3.06103 7.19436 2.94436 7.11659 2.79992C7.03881 2.65547 6.99992 2.49992 6.99992 2.33325C6.99992 2.05547 7.09714 1.81936 7.29158 1.62492C7.48603 1.43047 7.72214 1.33325 7.99992 1.33325C8.2777 1.33325 8.51381 1.43047 8.70825 1.62492C8.9027 1.81936 8.99992 2.05547 8.99992 2.33325C8.99992 2.49992 8.96103 2.65547 8.88325 2.79992C8.80547 2.94436 8.70547 3.06103 8.58325 3.14992L10.6666 5.99992L12.7499 5.06659C12.7277 5.01103 12.7083 4.94992 12.6916 4.88325C12.6749 4.81659 12.6666 4.74436 12.6666 4.66659C12.6666 4.38881 12.7638 4.1527 12.9583 3.95825C13.1527 3.76381 13.3888 3.66659 13.6666 3.66659C13.9444 3.66659 14.1805 3.76381 14.3749 3.95825C14.5694 4.1527 14.6666 4.38881 14.6666 4.66659C14.6666 4.94436 14.5694 5.18047 14.3749 5.37492C14.1805 5.56936 13.9444 5.66659 13.6666 5.66659C13.6444 5.66659 13.6194 5.66381 13.5916 5.65825C13.5638 5.6527 13.5388 5.64992 13.5166 5.64992L12.6666 10.9999H3.33325ZM4.46659 9.66659H11.5333L11.9666 6.88325L10.2166 7.64992L7.99992 4.59992L5.78325 7.64992L4.03325 6.88325L4.46659 9.66659Z" fill="#9B9B9B"/>
</svg>
