<svg width="370" height="76" viewBox="0 0 370 76" fill="none" xmlns="http://www.w3.org/2000/svg">
<path d="M116.293 37.8938L118.347 44.4495H118.696L120.663 37.8938L124.028 28.4094H130.627L120.007 54.5881C119.337 56.2488 118.449 57.5168 117.342 58.3909C116.235 59.2649 114.719 59.7014 112.796 59.7014H108.339V54.676H113.758L115.156 50.8303L106.065 28.4094H113.015L116.293 37.8938ZM145.295 27.885C146.547 27.885 147.684 28.1182 148.703 28.5842C149.752 29.0503 150.641 29.7645 151.369 30.7258C152.127 31.6873 152.709 32.9118 153.117 34.3977C153.554 35.8836 153.773 37.6464 153.773 39.6858C153.773 41.7251 153.554 43.488 153.117 44.9739C152.709 46.4596 152.127 47.6834 151.369 48.6448C150.641 49.6061 149.752 50.3202 148.703 50.7864C147.684 51.2524 146.547 51.4856 145.295 51.4856C143.489 51.4856 142.061 51.063 141.012 50.218C139.963 49.344 139.162 48.2221 138.608 46.8528H138.302V59.7014H131.834V28.4094H138.302V32.5178H138.608C139.162 31.1777 139.963 30.0705 141.012 29.1965C142.061 28.3225 143.489 27.885 145.295 27.885ZM166.431 27.885C168.12 27.8851 169.635 28.1625 170.976 28.7161C172.316 29.2405 173.452 29.998 174.385 30.9885C175.317 31.979 176.03 33.1881 176.525 34.6155C177.05 36.014 177.312 37.588 177.312 39.3362V41.259H161.885V41.6516C161.885 43.1084 162.337 44.2884 163.24 45.1917C164.143 46.0657 165.469 46.5032 167.217 46.5032C168.557 46.5032 169.708 46.2553 170.67 45.76C171.631 45.2357 172.461 44.551 173.16 43.7063L176.657 47.5081C175.783 48.5861 174.559 49.5183 172.985 50.3049C171.412 51.0915 169.416 51.4856 166.998 51.4856C163.211 51.4855 160.341 50.4367 158.389 48.3391C156.437 46.2413 155.461 43.3855 155.461 39.7727C155.461 37.9372 155.708 36.291 156.203 34.8342C156.728 33.3483 157.456 32.0952 158.389 31.0754C159.35 30.0266 160.502 29.2405 161.842 28.7161C163.211 28.1626 164.741 27.885 166.431 27.885ZM262.029 27.885C265.118 27.885 267.521 28.5991 269.24 30.0266C270.988 31.4251 271.862 33.5522 271.862 36.4075V46.2844H274.354V50.9612H270.639C269.299 50.9611 268.221 50.6254 267.405 49.9553C266.589 49.2561 266.109 48.2656 265.963 46.9836H265.744C265.336 48.4695 264.52 49.5913 263.297 50.3489C262.102 51.1064 260.631 51.4856 258.883 51.4856C256.698 51.4856 254.935 50.9028 253.595 49.7375C252.284 48.543 251.628 46.882 251.628 44.7551C251.628 42.3953 252.487 40.6473 254.206 39.511C255.925 38.3747 258.446 37.8059 261.768 37.8059H265.395V36.6702C265.395 35.3299 265.074 34.3247 264.433 33.6545C263.821 32.9553 262.772 32.6057 261.286 32.6057C259.917 32.6057 258.81 32.8675 257.965 33.3918C257.12 33.9163 256.391 34.6016 255.779 35.4465L252.239 32.2991C252.997 31.0172 254.177 29.9684 255.779 29.1526C257.411 28.3077 259.495 27.885 262.029 27.885ZM287.36 27.885C289.837 27.885 291.818 28.3956 293.304 29.4153C294.819 30.4059 295.97 31.7312 296.757 33.3918L291.774 36.1018C291.367 35.2277 290.827 34.499 290.157 33.9163C289.516 33.3337 288.584 33.0422 287.36 33.0422C285.875 33.0423 284.724 33.4797 283.908 34.3538C283.122 35.1987 282.728 36.3639 282.728 37.8499V41.5208C282.728 43.0067 283.122 44.1867 283.908 45.0608C284.724 45.9057 285.904 46.3284 287.448 46.3284C288.701 46.3283 289.677 46.037 290.376 45.4543C291.104 44.8716 291.717 44.1142 292.212 43.1819L297.106 45.9788C296.291 47.6395 295.096 48.9795 293.522 49.9993C291.978 50.9898 289.939 51.4856 287.404 51.4856C285.627 51.4856 284.024 51.2229 282.597 50.6985C281.198 50.1449 280.003 49.3588 279.013 48.3391C278.051 47.3194 277.309 46.0809 276.784 44.6243C276.26 43.1676 275.997 41.5212 275.997 39.6858C275.997 37.8504 276.26 36.204 276.784 34.7473C277.309 33.2907 278.051 32.0521 279.013 31.0325C280.003 30.0128 281.198 29.2405 282.597 28.7161C284.024 28.1625 285.612 27.885 287.36 27.885ZM334.57 27.885C336.26 27.885 337.775 28.1625 339.115 28.7161C340.455 29.2405 341.592 29.9979 342.524 30.9885C343.457 31.9791 344.171 33.188 344.666 34.6155C345.19 36.014 345.452 37.588 345.452 39.3362V41.259H330.024V41.6516C330.024 43.1083 330.477 44.2885 331.38 45.1917C332.283 46.0657 333.608 46.5031 335.356 46.5032C336.697 46.5032 337.848 46.2553 338.81 45.76C339.771 45.2356 340.602 44.5512 341.301 43.7063L344.797 47.5081C343.923 48.586 342.699 49.5183 341.126 50.3049C339.553 51.0915 337.557 51.4855 335.139 51.4856C331.351 51.4856 328.48 50.4368 326.528 48.3391C324.576 46.2413 323.601 43.3855 323.601 39.7727C323.601 37.9372 323.848 36.291 324.344 34.8342C324.868 33.3484 325.596 32.0952 326.528 31.0754C327.49 30.0266 328.641 29.2405 329.981 28.7161C331.351 28.1625 332.88 27.885 334.57 27.885ZM90.4805 32.8235H98.1729V20.4553H104.771V50.9612H98.1729V38.1995H90.4805V50.9612H83.8818V20.4553H90.4805V32.8235ZM192.198 34.7903H192.504C192.708 33.9746 192.985 33.1883 193.335 32.4309C193.714 31.6442 194.18 30.9589 194.733 30.3762C195.316 29.7645 196.015 29.2834 196.831 28.9338C197.647 28.5843 198.609 28.4094 199.716 28.4094H201.856V34.3538H197.05C195.447 34.3538 194.238 34.8347 193.422 35.7961C192.606 36.7284 192.198 37.8791 192.198 39.2483V45.9348H199.628V50.9612H180.529V45.9348H185.73V33.4358H180.529V28.4094H192.198V34.7903ZM226.488 25.8313H217.704V50.9612H211.148V25.8313H202.364V20.4553H226.488V25.8313ZM240.238 34.7903H240.544C240.748 33.9746 241.025 33.1883 241.375 32.4309C241.754 31.6442 242.22 30.9589 242.773 30.3762C243.356 29.7645 244.055 29.2834 244.871 28.9338C245.687 28.5844 246.648 28.4095 247.755 28.4094H249.896V34.3538H245.09C243.487 34.3538 242.278 34.8347 241.462 35.7961C240.646 36.7284 240.238 37.8791 240.238 39.2483V45.9348H247.668V50.9612H228.569V45.9348H233.771V33.4358H228.569V28.4094H240.238V34.7903ZM306.704 36.9758H307.01L310.025 33.4358L314.746 28.4094H322.175L313.435 37.3254L323.093 50.9612H315.401L308.846 40.9963L306.704 43.1379V50.9612H300.236V18.6204H306.704V36.9758ZM360.338 34.7903H360.645C360.848 33.9747 361.125 33.1883 361.475 32.4309C361.853 31.6442 362.319 30.9589 362.873 30.3762C363.456 29.7645 364.155 29.2834 364.971 28.9338C365.786 28.5842 366.748 28.4094 367.855 28.4094H369.997V34.3538H365.189C363.587 34.3538 362.377 34.8347 361.562 35.7961C360.746 36.7284 360.338 37.8791 360.338 39.2483V45.9348H367.768V50.9612H348.669V45.9348H353.87V33.4358H348.669V28.4094H360.338V34.7903ZM261.942 41.302C259.291 41.302 257.965 42.191 257.965 43.968V44.842C257.965 45.6287 258.271 46.2261 258.883 46.634C259.495 47.0419 260.31 47.2463 261.33 47.2463C262.466 47.2463 263.428 46.9689 264.215 46.4153C265.001 45.8617 265.395 45.0607 265.395 44.012V41.302H261.942ZM142.498 32.9114C141.362 32.9114 140.37 33.1879 139.525 33.7415C138.71 34.295 138.302 35.1692 138.302 36.3635V43.0071C138.302 44.2014 138.71 45.0756 139.525 45.6292C140.37 46.1827 141.362 46.4592 142.498 46.4592C143.955 46.4592 145.077 46.0227 145.863 45.1487C146.65 44.2455 147.043 43.007 147.043 41.4338V37.9368C147.043 36.3637 146.65 35.1399 145.863 34.2659C145.077 33.3627 143.955 32.9115 142.498 32.9114ZM166.474 32.5178C165.075 32.5179 163.953 32.9553 163.108 33.8293C162.293 34.6742 161.885 35.825 161.885 37.2815V37.6311H170.976V37.2815C170.976 35.7957 170.568 34.6303 169.752 33.7854C168.965 32.9405 167.872 32.5178 166.474 32.5178ZM334.613 32.5178C333.215 32.5179 332.094 32.9554 331.249 33.8293C330.433 34.6742 330.024 35.8248 330.024 37.2815V37.6311H339.115V37.2815C339.115 35.7957 338.707 34.6303 337.892 33.7854C337.105 32.9405 336.012 32.5178 334.613 32.5178Z" fill="currentColor"/>
<path d="M32.7998 36.839C34.4221 37.1664 35.2334 37.3306 35.7109 37.9142C36.1884 38.4977 36.1885 39.3249 36.1885 40.9796V73.5197L26.7783 71.8331C25.1153 71.5351 24.2833 71.3863 23.791 70.798C23.299 70.2097 23.2988 69.3651 23.2988 67.6759V34.922L32.7998 36.839ZM48.5225 3.68274C50.1582 4.00038 50.9765 4.15923 51.459 4.74426C51.9414 5.32938 51.9414 6.16301 51.9414 7.82922V61.8859L42.46 60.0197C40.8287 59.6986 40.013 59.5378 39.5322 58.9532C39.0515 58.3687 39.0518 57.5375 39.0518 55.8751V1.84387L48.5225 3.68274ZM17.0703 25.7413C18.6809 26.0769 19.4866 26.2441 19.96 26.8263C20.4333 27.4084 20.4336 28.2311 20.4336 29.8761V55.4503L11.3174 53.6749C9.68307 53.3566 8.86585 53.1972 8.38379 52.6124C7.90171 52.0274 7.90137 51.194 7.90137 49.5284V23.8312L17.0703 25.7413ZM64.3438 13.9767C65.9512 14.314 66.7551 14.483 67.2275 15.0646C67.7 15.6464 67.7002 16.4685 67.7002 18.1115V43.6906L58.248 41.9005C56.6036 41.5891 55.7815 41.4329 55.2959 40.8468C54.8105 40.2606 54.8105 39.4238 54.8105 37.7501V11.9767L64.3438 13.9767Z" fill="#43ECD0"/>
</svg>
