<svg width="24" height="24" viewBox="0 0 24 24" fill="none" xmlns="http://www.w3.org/2000/svg">
<path d="M10.4414 6.13818L10.4404 6.14014H13.5537V6.14209L13.5605 6.13818L20.2354 2.01904L21.9814 8.43799L20.6318 12.0503L20.6436 12.0552L20.6289 12.0493L20.6309 12.0581L21.9863 16.5884L21.8818 16.8726L20.2451 21.2466L16.208 20.2339L16.2041 20.2456L16.209 20.229L16.1982 20.2349L13.1426 21.9868H10.8594L7.80273 20.2349L7.7959 20.2456L7.80469 20.231L7.79297 20.2339L3.75586 21.2466L2.01855 16.6021L3.36816 11.6382L3.37207 11.6392L3.36816 11.6304L2.13574 8.74756L2.0127 8.45947L3.76465 2.01807L10.4414 6.13818ZM19.127 4.80322L14.0625 7.9292H9.93945L4.87402 4.80322L4.85938 4.79443L4.85547 4.81006L3.89844 8.32471H3.89551L3.89941 8.3335L5.25391 11.5034L3.89355 16.5083H3.89062L3.89355 16.5171L4.86426 19.1138L4.86816 19.1245L4.87891 19.1216L8.06152 18.3237L11.3301 20.1968L11.3291 20.1978H12.665V20.1997L12.6709 20.1968L15.9395 18.3237L19.1221 19.1216L19.1328 19.1245L19.1367 19.1138L20.1025 16.5298L20.1055 16.5308L20.1035 16.521L18.748 11.9917L18.8535 11.7085L20.1074 8.354L20.1104 8.35498L20.1074 8.34717L19.1455 4.81006L19.1416 4.79443L19.127 4.80322Z" fill="#FF5C16" stroke="#FF5C16" stroke-width="0.025"/>
</svg>
