<svg width="16" height="16" viewBox="0 0 16 16" fill="none" xmlns="http://www.w3.org/2000/svg">
<path d="M7.33332 10H8.66666V8.66666H9.99999V7.33333H8.66666V6H7.33332V7.33333H5.99999V8.66666H7.33332V10ZM2.66666 12.6667V11.3333H3.99999V6.66666C3.99999 5.74444 4.27777 4.925 4.83332 4.20833C5.38888 3.49166 6.1111 3.02222 6.99999 2.79999V2.33333C6.99999 2.05555 7.09721 1.81944 7.29166 1.62499C7.4861 1.43055 7.72221 1.33333 7.99999 1.33333C8.27777 1.33333 8.51388 1.43055 8.70832 1.62499C8.90277 1.81944 8.99999 2.05555 8.99999 2.33333V2.79999C9.88888 3.02222 10.6111 3.49166 11.1667 4.20833C11.7222 4.925 12 5.74444 12 6.66666V11.3333H13.3333V12.6667H2.66666ZM7.99999 14.6667C7.63332 14.6667 7.31943 14.5361 7.05832 14.275C6.79721 14.0139 6.66666 13.7 6.66666 13.3333H9.33332C9.33332 13.7 9.20277 14.0139 8.94166 14.275C8.68055 14.5361 8.36666 14.6667 7.99999 14.6667ZM5.33332 11.3333H10.6667V6.66666C10.6667 5.93333 10.4055 5.30555 9.88332 4.78333C9.3611 4.26111 8.73332 3.99999 7.99999 3.99999C7.26666 3.99999 6.63888 4.26111 6.11666 4.78333C5.59443 5.30555 5.33332 5.93333 5.33332 6.66666V11.3333Z" fill="currentColor"/>
</svg>
