<svg width="72" height="78" viewBox="0 0 72 78" fill="none" xmlns="http://www.w3.org/2000/svg">
<g filter="url(#filter0_f_2841_21278)">
<path d="M58.9088 69.3699C58.9088 71.1064 49.0545 72.5142 36.8987 72.5142C24.7429 72.5142 14.8886 71.1064 14.8886 69.3699C14.8886 67.6333 24.7429 66.2256 36.8987 66.2256C49.0545 66.2256 58.9088 67.6333 58.9088 69.3699Z" fill="#858B9A" fill-opacity="0.2"/>
</g>
<path d="M30.248 59.0283C32.1535 61.2459 35.4303 62.0325 39.3085 61.3735C43.1755 60.7163 47.5474 58.6295 51.4848 55.2462C55.4223 51.863 58.1436 47.8551 59.3754 44.1312C60.6107 40.3964 60.3265 37.0384 58.421 34.8208C56.5155 32.6033 53.2386 31.8166 49.3605 32.4756C45.4935 33.1328 41.1216 35.2196 37.1842 38.6029C33.2467 41.9861 30.5254 45.994 29.2936 49.7179C28.0582 53.4527 28.3426 56.8106 30.248 59.0283Z" fill="#686E7D" stroke="#686E7D"/>
<rect x="30.0328" y="58.7778" width="3.70918" height="37.1443" transform="rotate(-130.671 30.0328 58.7778)" fill="#686E7D" stroke="#686E7D"/>
<ellipse cx="11.5375" cy="19.0722" rx="11.5375" ry="19.0722" transform="matrix(0.651709 0.758469 0.758469 -0.651709 19.2379 46.9817)" fill="#131416"/>
<path d="M27.1359 55.4064C29.0541 57.6388 32.3428 58.4365 36.2277 57.7865C40.1021 57.1382 44.4789 55.0577 48.416 51.6747C52.3531 48.2918 55.0689 44.278 56.2931 40.5455C57.5205 36.8027 57.2271 33.4313 55.3089 31.199C53.3907 28.9667 50.102 28.1688 46.2171 28.8188C42.3428 29.4671 37.9665 31.5485 34.0294 34.9314C30.0923 38.3143 27.3759 42.3273 26.1517 46.0599C24.9242 49.8026 25.2179 53.1739 27.1359 55.4064Z" stroke="#858B9A" stroke-opacity="0.2"/>
<mask id="mask0_2841_21278" style="mask-type:alpha" maskUnits="userSpaceOnUse" x="24" y="28" width="34" height="31">
<path d="M27.1359 55.4064C29.0541 57.6388 32.3428 58.4365 36.2277 57.7865C40.1021 57.1382 44.4789 55.0577 48.416 51.6747C52.3531 48.2918 55.0689 44.278 56.2931 40.5455C57.5205 36.8027 57.2271 33.4313 55.3089 31.199C53.3907 28.9667 50.102 28.1688 46.2171 28.8188C42.3428 29.4671 37.9665 31.5485 34.0294 34.9314C30.0923 38.3143 27.3759 42.3273 26.1517 46.0599C24.9242 49.8026 25.2179 53.1739 27.1359 55.4064Z" fill="#1C1D1F" stroke="#9B9B9B"/>
</mask>
<g mask="url(#mask0_2841_21278)">
<g opacity="0.7">
<path d="M47.0707 22.2111L51.7693 24.0359L35.6101 65.6445L30.9115 63.8198L47.0707 22.2111Z" fill="url(#paint0_linear_2841_21278)" fill-opacity="0.4"/>
<path d="M52.3958 24.2792L54.117 24.9476L37.9578 66.5562L36.2366 65.8878L52.3958 24.2792Z" fill="url(#paint1_linear_2841_21278)" fill-opacity="0.4"/>
<path d="M54.9009 24.674L55.484 24.9004L39.0738 66.7827L38.4907 66.5562L54.9009 24.674Z" fill="url(#paint2_linear_2841_21278)" fill-opacity="0.4"/>
</g>
</g>
<path d="M29.8868 52.7861C31.2945 54.4241 33.797 54.9807 36.8453 54.3932C39.8781 53.8087 43.3412 52.1039 46.4929 49.3959C49.6446 46.6878 51.8514 43.5208 52.8858 40.6106C53.9255 37.6853 53.7521 35.1277 52.3446 33.4894C50.9369 31.8511 48.4341 31.294 45.3854 31.8816C42.3526 32.4661 38.8895 34.1708 35.7378 36.8789C32.5862 39.587 30.3794 42.754 29.345 45.6642C28.3052 48.5896 28.4791 51.1479 29.8868 52.7861Z" fill="#686E7D" stroke="#686E7D"/>
<mask id="path-9-inside-1_2841_21278" fill="white">
<path d="M29.507 53.1114C32.657 56.7774 40.4079 55.2839 46.8189 49.7753C52.4337 44.9508 55.1582 38.6472 53.6323 34.693C53.5735 34.5405 53.4902 34.3987 53.3836 34.2746C50.218 30.5906 42.4547 32.0696 36.0437 37.5782C30.4305 42.4014 27.7151 48.7147 29.2512 52.6839C29.3116 52.8401 29.398 52.9845 29.507 53.1114Z"/>
</mask>
<path d="M29.507 53.1114C32.657 56.7774 40.4079 55.2839 46.8189 49.7753C52.4337 44.9508 55.1582 38.6472 53.6323 34.693C53.5735 34.5405 53.4902 34.3987 53.3836 34.2746C50.218 30.5906 42.4547 32.0696 36.0437 37.5782C30.4305 42.4014 27.7151 48.7147 29.2512 52.6839C29.3116 52.8401 29.398 52.9845 29.507 53.1114Z" fill="#131416"/>
<path d="M29.507 53.1114L28.7486 53.7631L28.7485 53.7631L29.507 53.1114ZM46.8189 49.7753L47.4706 50.5338L47.4706 50.5338L46.8189 49.7753ZM53.3836 34.2746L54.1421 33.6229L54.1421 33.6229L53.3836 34.2746ZM36.0437 37.5782L35.392 36.8197L35.392 36.8197L36.0437 37.5782ZM29.2512 52.6839L28.3186 53.0449V53.0449L29.2512 52.6839ZM53.6323 34.693L52.6994 35.053L53.6323 34.693ZM29.507 53.1114L30.2655 52.4597C31.5059 53.9033 33.7862 54.4732 36.7508 53.9019C39.6836 53.3367 43.0693 51.6786 46.1672 49.0168L46.8189 49.7753L47.4706 50.5338C44.1575 53.3806 40.4622 55.2235 37.1293 55.8657C33.8282 56.5019 30.6581 55.9855 28.7486 53.7631L29.507 53.1114ZM46.8189 49.7753L46.1672 49.0169C48.8776 46.6879 50.8656 44.0217 51.9901 41.5005C53.1249 38.956 53.3293 36.6855 52.6994 35.053L53.6323 34.693L54.5653 34.333C55.4612 36.6547 55.0663 39.5131 53.8167 42.3151C52.5566 45.1403 50.375 48.0382 47.4706 50.5338L46.8189 49.7753ZM53.3836 34.2746L52.6252 34.9264C51.3753 33.4718 49.0858 32.8961 46.1178 33.4615C43.1807 34.0211 39.7927 35.6753 36.6955 38.3366L36.0437 37.5782L35.392 36.8197C38.7058 33.9724 42.4049 32.1329 45.7435 31.4968C49.0514 30.8667 52.2263 31.3934 54.1421 33.6229L53.3836 34.2746ZM36.0437 37.5782L36.6955 38.3366C33.9863 40.6645 32.0012 43.3322 30.8805 45.857C29.7496 48.4046 29.5486 50.6818 30.1838 52.323L29.2512 52.6839L28.3186 53.0449C27.4177 50.7169 27.8064 47.8528 29.0525 45.0456C30.3087 42.2156 32.4879 39.3151 35.392 36.8197L36.0437 37.5782ZM29.2512 52.6839L30.1838 52.323C30.2033 52.3735 30.2309 52.4195 30.2656 52.4598L29.507 53.1114L28.7485 53.7631C28.565 53.5495 28.4199 53.3067 28.3186 53.0449L29.2512 52.6839ZM53.6323 34.693L52.6994 35.053C52.6796 35.0018 52.6538 34.9597 52.6251 34.9264L53.3836 34.2746L54.1421 33.6229C54.3265 33.8376 54.4673 34.0791 54.5653 34.333L53.6323 34.693Z" fill="#686E7D" mask="url(#path-9-inside-1_2841_21278)"/>
<mask id="mask1_2841_21278" style="mask-type:alpha" maskUnits="userSpaceOnUse" x="28" y="32" width="27" height="24">
<mask id="path-11-inside-2_2841_21278" fill="white">
<path d="M29.507 53.1114C32.657 56.7774 40.4079 55.2839 46.8189 49.7753C52.4337 44.9508 55.1582 38.6472 53.6323 34.693C53.5735 34.5405 53.4902 34.3987 53.3836 34.2746C50.218 30.5906 42.4547 32.0696 36.0437 37.5782C30.4305 42.4014 27.7151 48.7147 29.2512 52.6839C29.3116 52.8401 29.398 52.9845 29.507 53.1114Z"/>
</mask>
<path d="M29.507 53.1114C32.657 56.7774 40.4079 55.2839 46.8189 49.7753C52.4337 44.9508 55.1582 38.6472 53.6323 34.693C53.5735 34.5405 53.4902 34.3987 53.3836 34.2746C50.218 30.5906 42.4547 32.0696 36.0437 37.5782C30.4305 42.4014 27.7151 48.7147 29.2512 52.6839C29.3116 52.8401 29.398 52.9845 29.507 53.1114Z" fill="#121314"/>
<path d="M29.507 53.1114L28.7486 53.7631L28.7485 53.7631L29.507 53.1114ZM46.8189 49.7753L47.4706 50.5338L47.4706 50.5338L46.8189 49.7753ZM53.3836 34.2746L54.1421 33.6229L54.1421 33.6229L53.3836 34.2746ZM36.0437 37.5782L35.392 36.8197L35.392 36.8197L36.0437 37.5782ZM29.2512 52.6839L28.3186 53.0449V53.0449L29.2512 52.6839ZM53.6323 34.693L52.6994 35.053L53.6323 34.693ZM29.507 53.1114L30.2655 52.4597C31.5059 53.9033 33.7862 54.4732 36.7508 53.9019C39.6836 53.3367 43.0693 51.6786 46.1672 49.0168L46.8189 49.7753L47.4706 50.5338C44.1575 53.3806 40.4622 55.2235 37.1293 55.8657C33.8282 56.5019 30.6581 55.9855 28.7486 53.7631L29.507 53.1114ZM46.8189 49.7753L46.1672 49.0169C48.8776 46.6879 50.8656 44.0217 51.9901 41.5005C53.1249 38.956 53.3293 36.6855 52.6994 35.053L53.6323 34.693L54.5653 34.333C55.4612 36.6547 55.0663 39.5131 53.8167 42.3151C52.5566 45.1403 50.375 48.0382 47.4706 50.5338L46.8189 49.7753ZM53.3836 34.2746L52.6252 34.9264C51.3753 33.4718 49.0858 32.8961 46.1178 33.4615C43.1807 34.0211 39.7927 35.6753 36.6955 38.3366L36.0437 37.5782L35.392 36.8197C38.7058 33.9724 42.4049 32.1329 45.7435 31.4968C49.0514 30.8667 52.2263 31.3934 54.1421 33.6229L53.3836 34.2746ZM36.0437 37.5782L36.6955 38.3366C33.9863 40.6645 32.0012 43.3322 30.8805 45.857C29.7496 48.4046 29.5486 50.6818 30.1838 52.323L29.2512 52.6839L28.3186 53.0449C27.4177 50.7169 27.8064 47.8528 29.0525 45.0456C30.3087 42.2156 32.4879 39.3151 35.392 36.8197L36.0437 37.5782ZM29.2512 52.6839L30.1838 52.323C30.2033 52.3735 30.2309 52.4195 30.2656 52.4598L29.507 53.1114L28.7485 53.7631C28.565 53.5495 28.4199 53.3067 28.3186 53.0449L29.2512 52.6839ZM53.6323 34.693L52.6994 35.053C52.6796 35.0018 52.6538 34.9597 52.6251 34.9264L53.3836 34.2746L54.1421 33.6229C54.3265 33.8376 54.4673 34.0791 54.5653 34.333L53.6323 34.693Z" fill="#9B9B9B" mask="url(#path-11-inside-2_2841_21278)"/>
</mask>
<g mask="url(#mask1_2841_21278)">
<path d="M44.1014 25.3524L48.3179 26.9899L33.8166 64.3297L29.6001 62.6921L44.1014 25.3524Z" fill="url(#paint3_linear_2841_21278)" fill-opacity="0.4"/>
<path d="M48.8801 27.2082L50.4247 27.8081L35.9234 65.1479L34.3788 64.548L48.8801 27.2082Z" fill="url(#paint4_linear_2841_21278)" fill-opacity="0.4"/>
<path d="M51.1283 27.5625L51.6515 27.7657L36.9249 65.3511L36.4017 65.1479L51.1283 27.5625Z" fill="url(#paint5_linear_2841_21278)" fill-opacity="0.4"/>
</g>
<path d="M17.7913 11.1758C15.1665 12.5636 13.652 15.6307 13.432 19.6159C13.2126 23.5899 14.2934 28.3844 16.7551 33.0402C19.2168 37.6961 22.5706 41.2889 25.9782 43.3451C29.3956 45.4072 32.7831 45.8824 35.4079 44.4947C38.0326 43.1069 39.5471 40.0398 39.7671 36.0545C39.9865 32.0806 38.9057 27.2861 36.444 22.6302C33.9823 17.9743 30.6286 14.3816 27.2209 12.3254C23.8035 10.2633 20.416 9.788 17.7913 11.1758Z" fill="#686E7D" stroke="#686E7D"/>
<rect x="18.0811" y="11.0224" width="3.77646" height="37.6894" transform="rotate(-27.8666 18.0811 11.0224)" fill="#686E7D" stroke="#686E7D"/>
<path d="M22.0729 8.9119C19.4306 10.309 17.9013 13.3856 17.6709 17.3757C17.4412 21.3549 18.5167 26.1521 20.9781 30.8074C23.4395 35.4627 26.7984 39.0526 30.2162 41.1032C33.6435 43.1594 37.0472 43.6279 39.6895 42.2308C42.3317 40.8337 43.8602 37.7574 44.0906 33.7674C44.3204 29.7882 43.2458 24.9907 40.7843 20.3353C38.3229 15.6799 34.9632 12.0906 31.5453 10.04C28.1181 7.98382 24.7152 7.51494 22.0729 8.9119Z" fill="#131416" stroke="#686E7D"/>
<mask id="mask2_2841_21278" style="mask-type:alpha" maskUnits="userSpaceOnUse" x="17" y="7" width="28" height="37">
<path d="M22.0729 8.9119C19.4306 10.309 17.9013 13.3856 17.6709 17.3757C17.4412 21.3549 18.5167 26.1521 20.9781 30.8074C23.4395 35.4627 26.7984 39.0526 30.2162 41.1032C33.6435 43.1594 37.0472 43.6279 39.6895 42.2308C42.3317 40.8337 43.8602 37.7574 44.0906 33.7674C44.3204 29.7882 43.2458 24.9907 40.7843 20.3353C38.3229 15.6799 34.9632 12.0906 31.5453 10.04C28.1181 7.98382 24.7152 7.51494 22.0729 8.9119Z" fill="#1C1D1F" stroke="#9B9B9B"/>
</mask>
<g mask="url(#mask2_2841_21278)">
<g opacity="0.7">
<path d="M34.7031 5.14149L39.5676 6.71456L25.6373 49.7922L20.7728 48.2192L34.7031 5.14149Z" fill="url(#paint6_linear_2841_21278)" fill-opacity="0.4"/>
<path d="M40.2162 6.92429L41.9982 7.50053L28.0679 50.5782L26.2859 50.002L40.2162 6.92429Z" fill="url(#paint7_linear_2841_21278)" fill-opacity="0.4"/>
<path d="M42.776 7.17762L43.3797 7.37281L29.2111 50.7422L28.6075 50.547L42.776 7.17762Z" fill="url(#paint8_linear_2841_21278)" fill-opacity="0.4"/>
</g>
</g>
<path d="M24.0465 12.2216C22.1066 13.2474 20.9929 15.6009 20.8888 18.7495C20.7851 21.8819 21.6935 25.6912 23.664 29.418C25.6344 33.1447 28.2711 36.0402 30.9181 37.7183C33.5788 39.405 36.1508 39.8098 38.0908 38.7842C40.0309 37.7584 41.1444 35.405 41.2486 32.2563C41.3522 29.1239 40.4447 25.3143 38.4742 21.5874C36.5037 17.8605 33.8663 14.9655 31.2192 13.2875C28.5585 11.6008 25.9865 11.1959 24.0465 12.2216Z" fill="#686E7D" stroke="#686E7D"/>
<mask id="path-20-inside-3_2841_21278" fill="white">
<path d="M23.8135 11.7791C19.4796 14.0706 19.2145 22.0725 23.2218 29.6516C26.7333 36.293 32.3595 40.4049 36.6141 39.7794C36.7759 39.7556 36.9326 39.7058 37.0772 39.6294C41.4326 37.3265 41.7151 29.3155 37.7077 21.7363C34.1996 15.1013 28.5671 10.9961 24.2962 11.6214C24.1273 11.6461 23.9644 11.6994 23.8135 11.7791Z"/>
</mask>
<path d="M23.8135 11.7791C19.4796 14.0706 19.2145 22.0725 23.2218 29.6516C26.7333 36.293 32.3595 40.4049 36.6141 39.7794C36.7759 39.7556 36.9326 39.7058 37.0772 39.6294C41.4326 37.3265 41.7151 29.3155 37.7077 21.7363C34.1996 15.1013 28.5671 10.9961 24.2962 11.6214C24.1273 11.6461 23.9644 11.6994 23.8135 11.7791Z" fill="#131416"/>
<path d="M23.8135 11.7791L23.3461 10.8951L23.3462 10.895L23.8135 11.7791ZM23.2218 29.6516L22.3378 30.1191L22.3378 30.1191L23.2218 29.6516ZM37.0772 39.6294L37.5446 40.5134L37.5445 40.5134L37.0772 39.6294ZM37.7077 21.7363L38.5918 21.2689L38.5918 21.2689L37.7077 21.7363ZM36.6141 39.7794L36.4687 38.79L36.6141 39.7794ZM23.8135 11.7791L24.2809 12.6632C22.5678 13.5689 21.4906 15.7025 21.3891 18.7656C21.2888 21.7962 22.1685 25.5201 24.1058 29.1842L23.2218 29.6516L22.3378 30.1191C20.2678 26.204 19.2764 22.1373 19.3902 18.6994C19.503 15.2939 20.7253 12.2808 23.3461 10.8951L23.8135 11.7791ZM23.2218 29.6516L24.1058 29.1842C25.8018 32.3918 27.9946 34.96 30.2386 36.6401C32.503 38.3355 34.7072 39.049 36.4687 38.79L36.6141 39.7794L36.7596 40.7688C34.2663 41.1353 31.5301 40.1056 29.0399 38.2411C26.5293 36.3613 24.1533 33.5528 22.3378 30.1191L23.2218 29.6516ZM37.0772 39.6294L36.6098 38.7453C38.3359 37.8327 39.4211 35.6914 39.5291 32.6262C39.636 29.5925 38.7606 25.8671 36.8237 22.2037L37.7077 21.7363L38.5918 21.2689C40.6621 25.1846 41.6492 29.2544 41.5279 32.6967C41.4077 36.1076 40.1739 39.1232 37.5446 40.5134L37.0772 39.6294ZM37.7077 21.7363L36.8237 22.2037C35.1297 18.9998 32.9365 16.4351 30.6897 14.7575C28.423 13.0649 26.2123 12.3515 24.441 12.6108L24.2962 11.6214L24.1513 10.6319C26.651 10.266 29.3921 11.2925 31.8863 13.1549C34.4005 15.0323 36.7776 17.8378 38.5918 21.2689L37.7077 21.7363ZM24.2962 11.6214L24.441 12.6108C24.385 12.619 24.3311 12.6366 24.2808 12.6632L23.8135 11.7791L23.3462 10.895C23.5976 10.7621 23.8697 10.6731 24.1513 10.6319L24.2962 11.6214ZM36.6141 39.7794L36.4687 38.79C36.5236 38.782 36.5708 38.7659 36.6098 38.7453L37.0772 39.6294L37.5445 40.5134C37.2945 40.6456 37.0282 40.7293 36.7596 40.7688L36.6141 39.7794Z" fill="#686E7D" mask="url(#path-20-inside-3_2841_21278)"/>
<mask id="mask3_2841_21278" style="mask-type:alpha" maskUnits="userSpaceOnUse" x="20" y="11" width="21" height="29">
<mask id="path-22-inside-4_2841_21278" fill="white">
<path d="M23.8135 11.7791C19.4796 14.0706 19.2145 22.0725 23.2218 29.6516C26.7333 36.293 32.3595 40.4049 36.6141 39.7794C36.7759 39.7556 36.9326 39.7058 37.0772 39.6294C41.4326 37.3265 41.7151 29.3155 37.7077 21.7363C34.1996 15.1013 28.5671 10.9961 24.2962 11.6214C24.1273 11.6461 23.9644 11.6994 23.8135 11.7791Z"/>
</mask>
<path d="M23.8135 11.7791C19.4796 14.0706 19.2145 22.0725 23.2218 29.6516C26.7333 36.293 32.3595 40.4049 36.6141 39.7794C36.7759 39.7556 36.9326 39.7058 37.0772 39.6294C41.4326 37.3265 41.7151 29.3155 37.7077 21.7363C34.1996 15.1013 28.5671 10.9961 24.2962 11.6214C24.1273 11.6461 23.9644 11.6994 23.8135 11.7791Z" fill="#121314"/>
<path d="M23.8135 11.7791L23.3461 10.8951L23.3462 10.895L23.8135 11.7791ZM23.2218 29.6516L22.3378 30.1191L22.3378 30.1191L23.2218 29.6516ZM37.0772 39.6294L37.5446 40.5134L37.5445 40.5134L37.0772 39.6294ZM37.7077 21.7363L38.5918 21.2689L38.5918 21.2689L37.7077 21.7363ZM36.6141 39.7794L36.4687 38.79L36.6141 39.7794ZM23.8135 11.7791L24.2809 12.6632C22.5678 13.5689 21.4906 15.7025 21.3891 18.7656C21.2888 21.7962 22.1685 25.5201 24.1058 29.1842L23.2218 29.6516L22.3378 30.1191C20.2678 26.204 19.2764 22.1373 19.3902 18.6994C19.503 15.2939 20.7253 12.2808 23.3461 10.8951L23.8135 11.7791ZM23.2218 29.6516L24.1058 29.1842C25.8018 32.3918 27.9946 34.96 30.2386 36.6401C32.503 38.3355 34.7072 39.049 36.4687 38.79L36.6141 39.7794L36.7596 40.7688C34.2663 41.1353 31.5301 40.1056 29.0399 38.2411C26.5293 36.3613 24.1533 33.5528 22.3378 30.1191L23.2218 29.6516ZM37.0772 39.6294L36.6098 38.7453C38.3359 37.8327 39.4211 35.6914 39.5291 32.6262C39.636 29.5925 38.7606 25.8671 36.8237 22.2037L37.7077 21.7363L38.5918 21.2689C40.6621 25.1846 41.6492 29.2544 41.5279 32.6967C41.4077 36.1076 40.1739 39.1232 37.5446 40.5134L37.0772 39.6294ZM37.7077 21.7363L36.8237 22.2037C35.1297 18.9998 32.9365 16.4351 30.6897 14.7575C28.423 13.0649 26.2123 12.3515 24.441 12.6108L24.2962 11.6214L24.1513 10.6319C26.651 10.266 29.3921 11.2925 31.8863 13.1549C34.4005 15.0323 36.7776 17.8378 38.5918 21.2689L37.7077 21.7363ZM24.2962 11.6214L24.441 12.6108C24.385 12.619 24.3311 12.6366 24.2808 12.6632L23.8135 11.7791L23.3462 10.895C23.5976 10.7621 23.8697 10.6731 24.1513 10.6319L24.2962 11.6214ZM36.6141 39.7794L36.4687 38.79C36.5236 38.782 36.5708 38.7659 36.6098 38.7453L37.0772 39.6294L37.5445 40.5134C37.2945 40.6456 37.0282 40.7293 36.7596 40.7688L36.6141 39.7794Z" fill="#9B9B9B" mask="url(#path-22-inside-4_2841_21278)"/>
</mask>
<g mask="url(#mask3_2841_21278)">
<path d="M31.8802 8.49579L36.2456 9.90746L23.7445 48.5656L19.3791 47.1539L31.8802 8.49579Z" fill="url(#paint9_linear_2841_21278)" fill-opacity="0.4"/>
<path d="M36.8277 10.0957L38.4268 10.6128L25.9257 49.2709L24.3265 48.7538L36.8277 10.0957Z" fill="url(#paint10_linear_2841_21278)" fill-opacity="0.4"/>
<path d="M39.1248 10.323L39.6665 10.4982L26.9516 49.4181L26.41 49.243L39.1248 10.323Z" fill="url(#paint11_linear_2841_21278)" fill-opacity="0.4"/>
</g>
<path d="M14.1832 47.3127C9.53028 41.6403 7.65138 33.0267 7.29355 29.429C6.48225 30.2066 4.39167 32.438 2.51977 35.1432C2.20735 41.0917 6.86264 48.9911 9.22933 52.1973L8.10243 53.7784C10.4819 54.3756 16.4133 55.6763 21.1032 56.1016C19.5125 53.4531 17.3923 47.7298 16.5311 45.1992L14.1832 47.3127Z" fill="#858B9A" fill-opacity="0.2"/>
<path d="M16.5308 45.1994L18.0182 45.2775C18.8795 47.8082 20.9995 53.5311 22.5902 56.1796C22.2317 56.1471 21.1028 56.1015 21.1028 56.1015C19.5121 53.4529 17.3921 47.73 16.5308 45.1994Z" fill="#686E7D"/>
<path d="M8.78089 29.5072C9.12162 32.9329 10.841 40.9061 15.0214 46.5578L14.1829 47.3125C9.53015 41.6401 7.65135 33.0268 7.29352 29.4291L8.78089 29.5072Z" fill="#686E7D"/>
<path d="M54.9679 17.5588C60.6596 22.1881 64.2203 30.2532 65.2892 33.7071C65.929 32.7832 67.532 30.1793 68.8261 27.1549C67.9447 21.2637 61.806 14.4527 58.8469 11.7836L59.6354 10.0093C57.1847 9.89916 51.113 9.80881 46.4326 10.3284C48.52 12.606 51.7401 17.7908 53.0893 20.0985L54.9679 17.5588Z" fill="#858B9A" fill-opacity="0.2"/>
<path d="M53.0895 20.0983L51.6164 20.3187C50.2673 18.011 47.0474 12.8265 44.96 10.5489C45.3139 10.5096 46.4085 10.3322 46.4322 10.3284C48.5196 12.606 51.7404 17.7906 53.0895 20.0983Z" fill="#686E7D"/>
<path d="M63.8162 33.9274C62.7985 30.6387 59.5219 23.1693 54.2974 18.466L54.9683 17.559C60.6598 22.1883 64.2204 30.2532 65.2893 33.707L63.8162 33.9274Z" fill="#686E7D"/>
<defs>
<filter id="filter0_f_2841_21278" x="9.88861" y="61.2256" width="54.0201" height="16.2886" filterUnits="userSpaceOnUse" color-interpolation-filters="sRGB">
<feFlood flood-opacity="0" result="BackgroundImageFix"/>
<feBlend mode="normal" in="SourceGraphic" in2="BackgroundImageFix" result="shape"/>
<feGaussianBlur stdDeviation="2.5" result="effect1_foregroundBlur_2841_21278"/>
</filter>
<linearGradient id="paint0_linear_2841_21278" x1="54.4743" y1="25.6382" x2="60.9942" y2="31.746" gradientUnits="userSpaceOnUse">
<stop stop-color="#B7BBC8"/>
<stop offset="1" stop-color="#B7BBC8" stop-opacity="0"/>
</linearGradient>
<linearGradient id="paint1_linear_2841_21278" x1="54.4743" y1="25.6382" x2="60.9942" y2="31.746" gradientUnits="userSpaceOnUse">
<stop stop-color="#B7BBC8"/>
<stop offset="1" stop-color="#B7BBC8" stop-opacity="0"/>
</linearGradient>
<linearGradient id="paint2_linear_2841_21278" x1="54.4743" y1="25.6382" x2="60.9942" y2="31.746" gradientUnits="userSpaceOnUse">
<stop stop-color="#B7BBC8"/>
<stop offset="1" stop-color="#B7BBC8" stop-opacity="0"/>
</linearGradient>
<linearGradient id="paint3_linear_2841_21278" x1="50.7454" y1="28.4278" x2="56.5964" y2="33.909" gradientUnits="userSpaceOnUse">
<stop stop-color="#B7BBC8"/>
<stop offset="1" stop-color="#B7BBC8" stop-opacity="0"/>
</linearGradient>
<linearGradient id="paint4_linear_2841_21278" x1="50.7454" y1="28.4278" x2="56.5964" y2="33.909" gradientUnits="userSpaceOnUse">
<stop stop-color="#B7BBC8"/>
<stop offset="1" stop-color="#B7BBC8" stop-opacity="0"/>
</linearGradient>
<linearGradient id="paint5_linear_2841_21278" x1="50.7454" y1="28.4278" x2="56.5964" y2="33.909" gradientUnits="userSpaceOnUse">
<stop stop-color="#B7BBC8"/>
<stop offset="1" stop-color="#B7BBC8" stop-opacity="0"/>
</linearGradient>
<linearGradient id="paint6_linear_2841_21278" x1="42.4004" y1="8.17888" x2="49.3596" y2="13.9825" gradientUnits="userSpaceOnUse">
<stop stop-color="#B7BBC8"/>
<stop offset="1" stop-color="#B7BBC8" stop-opacity="0"/>
</linearGradient>
<linearGradient id="paint7_linear_2841_21278" x1="42.4004" y1="8.17888" x2="49.3596" y2="13.9825" gradientUnits="userSpaceOnUse">
<stop stop-color="#B7BBC8"/>
<stop offset="1" stop-color="#B7BBC8" stop-opacity="0"/>
</linearGradient>
<linearGradient id="paint8_linear_2841_21278" x1="42.4004" y1="8.17888" x2="49.3596" y2="13.9825" gradientUnits="userSpaceOnUse">
<stop stop-color="#B7BBC8"/>
<stop offset="1" stop-color="#B7BBC8" stop-opacity="0"/>
</linearGradient>
<linearGradient id="paint9_linear_2841_21278" x1="38.7878" y1="11.2216" x2="45.0329" y2="16.4298" gradientUnits="userSpaceOnUse">
<stop stop-color="#B7BBC8"/>
<stop offset="1" stop-color="#B7BBC8" stop-opacity="0"/>
</linearGradient>
<linearGradient id="paint10_linear_2841_21278" x1="38.7878" y1="11.2216" x2="45.0329" y2="16.4298" gradientUnits="userSpaceOnUse">
<stop stop-color="#B7BBC8"/>
<stop offset="1" stop-color="#B7BBC8" stop-opacity="0"/>
</linearGradient>
<linearGradient id="paint11_linear_2841_21278" x1="38.7878" y1="11.2216" x2="45.0329" y2="16.4298" gradientUnits="userSpaceOnUse">
<stop stop-color="#B7BBC8"/>
<stop offset="1" stop-color="#B7BBC8" stop-opacity="0"/>
</linearGradient>
</defs>
</svg>
