<svg width="72" height="78" viewBox="0 0 72 78" fill="none" xmlns="http://www.w3.org/2000/svg">
<g filter="url(#filter0_f_6571_20799)">
<path d="M58.9087 69.3698C58.9087 71.1064 49.0545 72.5141 36.8986 72.5141C24.7428 72.5141 14.8885 71.1064 14.8885 69.3698C14.8885 67.6333 24.7428 66.2255 36.8986 66.2255C49.0545 66.2255 58.9087 67.6333 58.9087 69.3698Z" fill="#858B9A" fill-opacity="0.2"/>
</g>
<path d="M43.9234 51.7827L28.2787 49.5884L38.5627 19.6317C38.7924 18.9631 39.4577 18.5458 40.1597 18.63L58.3921 20.8164C58.9727 20.886 59.5104 21.1567 59.9119 21.5818L60.2357 21.924C60.5998 22.3095 60.7336 22.8591 60.5872 23.3687L54.3734 44.9975C53.0666 49.5465 48.6106 52.44 43.9234 51.7827Z" fill="#686E7D" stroke="#686E7D"/>
<path d="M45.0433 50.2384L27.6491 47.7988L35.9206 19.184C36.1263 18.4727 36.8206 18.0182 37.5549 18.1135L58.4103 20.8206C59.3207 20.9388 59.9126 21.8401 59.6592 22.7225L53.293 44.8822C52.2612 48.4733 48.7435 50.7572 45.0433 50.2384Z" fill="#131416" stroke="#686E7D"/>
<path d="M35.5582 34.1006C39.436 34.6445 42.3503 37.9158 42.4449 41.8303L42.5079 44.4326L42.5292 44.4356C42.7737 47.4051 44.7616 49.8528 47.4827 50.2345L42.6317 49.5542L42.652 50.408L20.6959 47.0692L20.6989 46.478L18.492 46.1684L19.1941 41.1627L20.724 41.3773L20.7713 32.0267L35.5582 34.1006ZM47.6916 50.2638L47.4827 50.2345C47.5526 50.2444 47.6227 50.2511 47.6924 50.258L47.6916 50.2638Z" fill="#686E7D"/>
<path d="M37.867 35.402C37.8593 35.4568 37.8166 35.5 37.7621 35.5096C36.2938 35.7689 35.0127 36.6701 34.2691 37.9501C34.1093 38.2251 34.0059 38.5279 33.9199 38.8342L28.5909 57.8186C28.5094 58.1091 28.2257 58.2945 27.9269 58.2526C27.6471 58.2134 26.8072 57.383 26.7407 57.1085C26.6074 56.5582 26.9521 56.6889 26.5174 56.3868C25.4817 55.6673 23.9772 56.1496 23.0315 57.4539C22.9867 57.5156 22.9119 57.5493 22.8364 57.5387C22.7433 57.5256 22.1058 56.9752 22.0937 56.8821C21.7935 55.9893 22.2648 56.0767 21.7488 55.718C20.713 54.9984 19.2076 55.4807 18.2619 56.7852C18.2172 56.8468 18.1427 56.8804 18.0673 56.8698C17.9745 56.8568 17.5172 56.3314 17.5051 56.2385C17.1465 55.7628 17.4957 55.4078 16.9794 55.049C15.9437 54.3295 14.4392 54.8118 13.4935 56.1161C13.4487 56.1779 13.374 56.2115 13.2984 56.2009C13.2053 56.1879 12.5701 55.2125 12.558 55.1193C12.4691 54.4338 12.7268 54.7389 12.2108 54.3802C11.2166 53.6895 9.7896 54.1061 8.84029 55.2946C8.71933 55.446 8.53088 55.5322 8.33895 55.5053C8.03909 55.4633 7.06102 54.6523 7.13506 54.3587L12.0491 38.4869C12.9886 34.7622 16.5629 32.3346 20.3636 32.8218L20.3645 32.8211L20.3654 32.8204L37.76 35.26C37.8287 35.2697 37.8766 35.3332 37.867 35.402Z" fill="#686E7D"/>
<mask id="path-6-inside-1_6571_20799" fill="white">
<path d="M35.1859 34.0484C35.9808 34.16 35.7939 35.1464 35.1627 35.6422C34.5556 36.119 33.9864 36.7233 33.4901 37.4171C33.3064 37.674 33.179 37.9658 33.0937 38.2699L27.8747 56.8665C27.7931 57.1572 27.5092 57.3427 27.2103 57.3008C26.9304 57.2615 26.7224 57.031 26.6557 56.7564C26.5222 56.2065 26.2346 55.7375 25.8002 55.4355C24.7653 54.7168 23.2643 55.1992 22.3186 56.5012C22.2732 56.5637 22.1975 56.5977 22.121 56.587C22.0267 56.5738 21.955 56.4967 21.9427 56.4023C21.8533 55.7178 21.5459 55.1247 21.0304 54.7665C19.9955 54.048 18.4942 54.5305 17.5486 55.8326C17.5034 55.8949 17.4279 55.9288 17.3517 55.9181C17.2577 55.9049 17.1863 55.8281 17.174 55.734C17.0847 55.0493 16.7773 54.456 16.2617 54.0977C15.2267 53.379 13.7255 53.8615 12.7799 55.1637C12.7346 55.226 12.6592 55.2599 12.5829 55.2492C12.489 55.236 12.4175 55.1592 12.4053 55.0652C12.3159 54.3805 12.0085 53.7871 11.4929 53.4288C10.4994 52.7388 9.07622 53.1559 8.1273 54.3424C8.00586 54.4943 7.81679 54.5807 7.62424 54.5537C7.32324 54.5115 7.12543 54.2175 7.19976 53.9228L11.0215 38.7701C12.1409 34.3322 16.4105 31.4449 20.941 32.0515C20.9412 32.0515 20.9415 32.0513 20.9415 32.0511C20.9415 32.0508 20.9418 32.0506 20.9421 32.0506L35.1859 34.0484Z"/>
</mask>
<path d="M35.1859 34.0484C35.9808 34.16 35.7939 35.1464 35.1627 35.6422C34.5556 36.119 33.9864 36.7233 33.4901 37.4171C33.3064 37.674 33.179 37.9658 33.0937 38.2699L27.8747 56.8665C27.7931 57.1572 27.5092 57.3427 27.2103 57.3008C26.9304 57.2615 26.7224 57.031 26.6557 56.7564C26.5222 56.2065 26.2346 55.7375 25.8002 55.4355C24.7653 54.7168 23.2643 55.1992 22.3186 56.5012C22.2732 56.5637 22.1975 56.5977 22.121 56.587C22.0267 56.5738 21.955 56.4967 21.9427 56.4023C21.8533 55.7178 21.5459 55.1247 21.0304 54.7665C19.9955 54.048 18.4942 54.5305 17.5486 55.8326C17.5034 55.8949 17.4279 55.9288 17.3517 55.9181C17.2577 55.9049 17.1863 55.8281 17.174 55.734C17.0847 55.0493 16.7773 54.456 16.2617 54.0977C15.2267 53.379 13.7255 53.8615 12.7799 55.1637C12.7346 55.226 12.6592 55.2599 12.5829 55.2492C12.489 55.236 12.4175 55.1592 12.4053 55.0652C12.3159 54.3805 12.0085 53.7871 11.4929 53.4288C10.4994 52.7388 9.07622 53.1559 8.1273 54.3424C8.00586 54.4943 7.81679 54.5807 7.62424 54.5537C7.32324 54.5115 7.12543 54.2175 7.19976 53.9228L11.0215 38.7701C12.1409 34.3322 16.4105 31.4449 20.941 32.0515C20.9412 32.0515 20.9415 32.0513 20.9415 32.0511C20.9415 32.0508 20.9418 32.0506 20.9421 32.0506L35.1859 34.0484Z" fill="#131416"/>
<path d="M35.1859 34.0484L35.325 33.0581L35.3248 33.0581L35.1859 34.0484ZM25.8002 55.4355L26.371 54.6144L26.3706 54.6141L25.8002 55.4355ZM21.0304 54.7665L21.6011 53.9453L21.6007 53.945L21.0304 54.7665ZM16.2617 54.0977L16.8324 53.2765L16.8321 53.2763L16.2617 54.0977ZM11.4929 53.4288L12.0636 52.6077L12.0634 52.6075L11.4929 53.4288ZM11.0215 38.7701L10.0518 38.5255L10.0518 38.5255L11.0215 38.7701ZM20.9415 32.0511L19.9512 31.9122L20.9415 32.0511ZM20.941 32.0515L21.0737 31.0603L20.941 32.0515ZM7.62424 54.5537L7.48534 55.544L7.62424 54.5537ZM17.174 55.734L18.1656 55.6047L17.174 55.734ZM17.5486 55.8326L16.7395 55.245L17.5486 55.8326ZM21.9427 56.4023L20.9511 56.5318L21.9427 56.4023ZM8.1273 54.3424L8.90826 54.967L8.1273 54.3424ZM26.6557 56.7564L27.6275 56.5205L26.6557 56.7564ZM27.8747 56.8665L26.9119 56.5963L27.8747 56.8665ZM12.4053 55.0652L11.4137 55.1945L12.4053 55.0652ZM33.4901 37.4171L32.6767 36.8354L33.4901 37.4171ZM22.3186 56.5012L21.5095 55.9135L22.3186 56.5012ZM12.7799 55.1637L13.589 55.7513L12.7799 55.1637ZM35.1627 35.6422L35.7804 36.4286L35.1627 35.6422ZM35.1627 35.6422L34.5449 34.8558C33.8558 35.397 33.2223 36.0725 32.6767 36.8354L33.4901 37.4171L34.3035 37.9988C34.7504 37.374 35.2554 36.8409 35.7804 36.4286L35.1627 35.6422ZM33.0937 38.2699L32.1309 37.9997L26.9119 56.5963L27.8747 56.8665L28.8375 57.1367L34.0565 38.5401L33.0937 38.2699ZM26.6557 56.7564L27.6275 56.5205C27.4477 55.7798 27.0423 55.0811 26.371 54.6144L25.8002 55.4355L25.2293 56.2566C25.4269 56.3939 25.5968 56.6332 25.684 56.9923L26.6557 56.7564ZM25.8002 55.4355L26.3706 54.6141C24.6989 53.4531 22.619 54.386 21.5095 55.9135L22.3186 56.5012L23.1277 57.0889C23.9095 56.0125 24.8317 55.9804 25.2297 56.2568L25.8002 55.4355ZM21.9427 56.4023L22.9343 56.2728C22.8175 55.3786 22.4003 54.5007 21.6011 53.9453L21.0304 54.7665L20.4598 55.5877C20.6915 55.7487 20.8891 56.057 20.9511 56.5318L21.9427 56.4023ZM21.0304 54.7665L21.6007 53.945C19.929 52.7845 17.849 53.7172 16.7395 55.245L17.5486 55.8326L18.3578 56.4202C19.1394 55.3438 20.062 55.3115 20.4602 55.588L21.0304 54.7665ZM17.174 55.734L18.1656 55.6047C18.049 54.7102 17.6317 53.832 16.8324 53.2765L16.2617 54.0977L15.691 54.9188C15.9228 55.0799 16.1205 55.3884 16.1824 55.8633L17.174 55.734ZM16.2617 54.0977L16.8321 53.2763C15.1602 52.1153 13.0802 53.0483 11.9707 54.5761L12.7799 55.1637L13.589 55.7513C14.3708 54.6748 15.2932 54.6426 15.6913 54.919L16.2617 54.0977ZM12.4053 55.0652L13.3969 54.9358C13.2802 54.0414 12.8629 53.1632 12.0636 52.6077L11.4929 53.4288L10.9222 54.25C11.154 54.4111 11.3517 54.7195 11.4137 55.1945L12.4053 55.0652ZM11.4929 53.4288L12.0634 52.6075C10.4615 51.495 8.47034 52.3124 7.34634 53.7178L8.1273 54.3424L8.90826 54.967C9.6821 53.9994 10.5373 53.9827 10.9225 54.2502L11.4929 53.4288ZM7.19976 53.9228L8.16939 54.1673L11.9911 39.0146L11.0215 38.7701L10.0518 38.5255L6.23012 53.6782L7.19976 53.9228ZM11.0215 38.7701L11.9911 39.0147C12.9862 35.07 16.7813 32.5034 20.8082 33.0426L20.941 32.0515L21.0737 31.0603C16.0398 30.3863 11.2957 33.5945 10.0518 38.5255L11.0215 38.7701ZM20.9421 32.0506L20.8032 33.0409L35.047 35.0387L35.1859 34.0484L35.3248 33.0581L21.081 31.0603L20.9421 32.0506ZM20.9415 32.0511L21.9318 32.19C21.8551 32.7366 21.3498 33.1176 20.8032 33.0409L20.9421 32.0506L21.081 31.0603C20.5338 30.9836 20.0279 31.365 19.9512 31.9122L20.9415 32.0511ZM20.941 32.0515L20.8082 33.0426C21.3482 33.1149 21.8547 32.74 21.9318 32.19L20.9415 32.0511L19.9512 31.9122C20.0283 31.3626 20.5343 30.9881 21.0737 31.0603L20.941 32.0515ZM7.62424 54.5537L7.76314 53.5634C8.05121 53.6038 8.24053 53.8852 8.16939 54.1673L7.19976 53.9228L6.23012 53.6782C6.01032 54.5497 6.59528 55.4192 7.48534 55.544L7.62424 54.5537ZM17.3517 55.9181L17.4906 54.9278C17.8721 54.9813 18.1237 55.2832 18.1656 55.6047L17.174 55.734L16.1824 55.8633C16.2488 56.3729 16.6434 56.8285 17.2128 56.9084L17.3517 55.9181ZM17.5486 55.8326L16.7395 55.245C16.901 55.0226 17.1833 54.8847 17.4906 54.9278L17.3517 55.9181L17.2128 56.9084C17.6726 56.9729 18.1058 56.7672 18.3578 56.4202L17.5486 55.8326ZM22.121 56.587L22.2599 55.5967C22.6411 55.6501 22.8924 55.9519 22.9343 56.2728L21.9427 56.4023L20.9511 56.5318C21.0177 57.0415 21.4124 57.4974 21.9821 57.5773L22.121 56.587ZM8.1273 54.3424L7.34634 53.7178C7.41809 53.6281 7.5647 53.5356 7.76314 53.5634L7.62424 54.5537L7.48534 55.544C8.06889 55.6259 8.59363 55.3604 8.90826 54.967L8.1273 54.3424ZM27.2103 57.3008L27.3492 56.3105C27.4498 56.3246 27.5238 56.3727 27.5658 56.4155C27.6047 56.4549 27.6207 56.4925 27.6275 56.5205L26.6557 56.7564L25.684 56.9923C25.8246 57.5716 26.2977 58.1826 27.0714 58.2911L27.2103 57.3008ZM27.8747 56.8665L26.9119 56.5963C26.9655 56.405 27.1524 56.2829 27.3492 56.3105L27.2103 57.3008L27.0714 58.2911C27.866 58.4026 28.6207 57.9093 28.8375 57.1367L27.8747 56.8665ZM12.5829 55.2492L12.7218 54.2589C13.1033 54.3124 13.3549 54.6144 13.3969 54.9358L12.4053 55.0652L11.4137 55.1945C11.4801 55.7041 11.8747 56.1597 12.444 56.2395L12.5829 55.2492ZM33.4901 37.4171L32.6767 36.8354C32.412 37.2055 32.2406 37.6086 32.1309 37.9997L33.0937 38.2699L34.0565 38.5401C34.1174 38.3231 34.2007 38.1425 34.3035 37.9988L33.4901 37.4171ZM22.3186 56.5012L21.5095 55.9135C21.6708 55.6914 21.9528 55.5536 22.2599 55.5967L22.121 56.587L21.9821 57.5773C22.4422 57.6418 22.8756 57.436 23.1277 57.0889L22.3186 56.5012ZM12.7799 55.1637L11.9707 54.5761C12.1322 54.3537 12.4145 54.2158 12.7218 54.2589L12.5829 55.2492L12.444 56.2395C12.9038 56.304 13.337 56.0983 13.589 55.7513L12.7799 55.1637ZM35.1859 34.0484L35.0469 35.0387C35.029 35.0362 34.9014 35.0055 34.798 34.8634C34.706 34.7371 34.7116 34.6295 34.7124 34.62C34.7132 34.61 34.711 34.6427 34.6766 34.7028C34.644 34.7597 34.5974 34.8146 34.5449 34.8558L35.1627 35.6422L35.7804 36.4286C36.2833 36.0336 36.6538 35.4203 36.7058 34.7824C36.7328 34.4504 36.6756 34.0444 36.4148 33.6862C36.1426 33.3123 35.7403 33.1165 35.325 33.0581L35.1859 34.0484Z" fill="#686E7D" mask="url(#path-6-inside-1_6571_20799)"/>
<path d="M46.7891 16.325C50.2668 10.6158 57.8428 8.88507 63.7107 12.4594C69.5785 16.0337 71.5161 23.5595 68.0384 29.2687C67.2469 30.5681 66.2424 31.6606 65.0947 32.5322L69.2679 40.1692C69.7552 41.061 69.4277 42.1787 68.5359 42.6661C67.6441 43.1534 66.5258 42.8256 66.0385 41.9338L61.8566 34.2807C58.4508 35.4925 54.4999 35.1951 51.1168 33.1344C45.249 29.5601 43.3114 22.0343 46.7891 16.325Z" fill="#686E7D"/>
<rect x="60.7104" y="32.1833" width="3.68032" height="12.9515" rx="1.84016" transform="rotate(-28.653 60.7104 32.1833)" fill="#686E7D"/>
<path d="M61.9829 33.057C61.6804 32.5034 61.884 31.8094 62.4376 31.5069C62.9912 31.2044 63.6852 31.408 63.9877 31.9616L68.6416 40.4788C68.9441 41.0324 68.7406 41.7264 68.187 42.0289C67.6334 42.3314 66.9394 42.1279 66.6369 41.5743L61.9829 33.057Z" fill="#686E7D"/>
<path opacity="0.5" d="M63.6483 34.5479C63.4853 34.2498 63.595 33.876 63.8931 33.7131C64.1913 33.5502 64.565 33.6598 64.7279 33.9579L67.9093 39.7802C68.0722 40.0783 67.9626 40.4521 67.6644 40.615C67.3663 40.7779 66.9925 40.6683 66.8296 40.3701L63.6483 34.5479Z" fill="#131416"/>
<ellipse cx="57.414" cy="22.7969" rx="12.1043" ry="12.4406" transform="rotate(-1.76248 57.414 22.7969)" fill="#686E7D"/>
<circle cx="57.4034" cy="22.4608" r="11.4319" transform="rotate(-1.76248 57.4034 22.4608)" fill="#686E7D"/>
<circle cx="57.4034" cy="22.4608" r="11.4319" transform="rotate(-1.76248 57.4034 22.4608)" fill="#131416"/>
<mask id="mask0_6571_20799" style="mask-type:alpha" maskUnits="userSpaceOnUse" x="45" y="10" width="24" height="25">
<circle cx="57.4039" cy="22.4605" r="11.0626" transform="rotate(-1.76248 57.4039 22.4605)" fill="#131416" stroke="#858B9A" stroke-opacity="0.2"/>
</mask>
<g mask="url(#mask0_6571_20799)">
<g opacity="0.6" filter="url(#filter1_f_6571_20799)">
<path d="M42.6661 66.0359L13.8466 61.9937L29.9663 15.0373C30.196 14.3686 30.8614 13.9504 31.5635 14.0346L60.8865 17.5517C61.467 17.6213 62.0048 17.8921 62.4063 18.3171L63.7123 19.6994C64.0764 20.0849 64.2103 20.6345 64.0639 21.1441L53.116 59.2507C51.8092 63.7998 47.3533 66.6933 42.6661 66.0359Z" fill="#686E7D" stroke="#686E7D"/>
<path d="M43.4682 63.5447L12.8992 59.2572L25.8944 14.3012C26.1001 13.5898 26.7944 13.1344 27.5288 13.2298L61.5692 17.6491C62.4796 17.7673 63.0715 18.6686 62.8181 19.551L51.7189 58.1886C50.6871 61.7798 47.1686 64.0637 43.4682 63.5447Z" fill="#131416" stroke="#686E7D"/>
</g>
</g>
<defs>
<filter id="filter0_f_6571_20799" x="9.88855" y="61.2255" width="54.0201" height="16.2886" filterUnits="userSpaceOnUse" color-interpolation-filters="sRGB">
<feFlood flood-opacity="0" result="BackgroundImageFix"/>
<feBlend mode="normal" in="SourceGraphic" in2="BackgroundImageFix" result="shape"/>
<feGaussianBlur stdDeviation="2.5" result="effect1_foregroundBlur_6571_20799"/>
</filter>
<filter id="filter1_f_6571_20799" x="-19.1598" y="11.7175" width="84.7816" height="64.3259" filterUnits="userSpaceOnUse" color-interpolation-filters="sRGB">
<feFlood flood-opacity="0" result="BackgroundImageFix"/>
<feBlend mode="normal" in="SourceGraphic" in2="BackgroundImageFix" result="shape"/>
<feGaussianBlur stdDeviation="0.5" result="effect1_foregroundBlur_6571_20799"/>
</filter>
</defs>
</svg>


