<svg width="320" height="50" viewBox="0 0 320 50" fill="none" xmlns="http://www.w3.org/2000/svg">
<rect x="0.5" y="0.5" width="319" height="49" rx="24.5" fill="#1F1F1F"/>
<path d="M51 22H21V17C21 14.2857 23.2018 12 25.8165 12H46.1835C48.7982 12 51 14.2857 51 17V22Z" fill="#34A853"/>
<path d="M51 26.0537H21V21.0537C21 18.3394 23.2018 16.0537 25.8165 16.0537H46.1835C48.7982 16.0537 51 18.3394 51 21.0537V26.0537Z" fill="#FBBC04"/>
<path d="M51 30.2468H21V25.2468C21 22.5325 23.2018 20.2468 25.8165 20.2468H46.1835C48.7982 20.2468 51 22.5325 51 25.2468V30.2468Z" fill="#EA4335"/>
<path d="M21 23.2752L40.0411 27.6789C42.2329 28.2294 44.6986 27.6789 46.4795 26.3028L51 23V33.3211C51 35.9358 48.8082 38 46.2055 38H25.7945C23.1918 38 21 35.9358 21 33.3211V23.2752Z" fill="url(#paint0_linear_1819_24557)"/>
<path d="M64.62 32V17.68H69.2C70.7067 17.68 72 17.9867 73.08 18.6C74.1733 19.2 75.0133 20.04 75.6 21.12C76.2 22.2 76.5 23.44 76.5 24.84C76.5 26.2533 76.2 27.5 75.6 28.58C75.0133 29.6467 74.1733 30.4867 73.08 31.1C72 31.7 70.7067 32 69.2 32H64.62ZM66.82 29.92H69.14C70.7667 29.92 72.0267 29.4667 72.92 28.56C73.8267 27.6533 74.28 26.4133 74.28 24.84C74.28 23.2667 73.8267 22.0267 72.92 21.12C72.0267 20.2133 70.7667 19.76 69.14 19.76H66.82V29.92ZM83.1616 32.32C82.1082 32.32 81.1816 32.08 80.3816 31.6C79.5816 31.12 78.9549 30.4733 78.5016 29.66C78.0482 28.8467 77.8216 27.9267 77.8216 26.9C77.8216 25.8867 78.0482 24.9733 78.5016 24.16C78.9549 23.3333 79.5816 22.68 80.3816 22.2C81.1816 21.72 82.1082 21.48 83.1616 21.48C84.2016 21.48 85.1216 21.72 85.9216 22.2C86.7216 22.68 87.3482 23.3333 87.8016 24.16C88.2549 24.9733 88.4816 25.8867 88.4816 26.9C88.4816 27.9267 88.2549 28.8467 87.8016 29.66C87.3482 30.4733 86.7216 31.12 85.9216 31.6C85.1216 32.08 84.2016 32.32 83.1616 32.32ZM83.1616 30.34C83.7216 30.34 84.2416 30.2067 84.7216 29.94C85.2016 29.66 85.5882 29.2667 85.8816 28.76C86.1882 28.24 86.3416 27.62 86.3416 26.9C86.3416 26.18 86.1882 25.5667 85.8816 25.06C85.5882 24.54 85.2016 24.1467 84.7216 23.88C84.2416 23.6 83.7216 23.46 83.1616 23.46C82.6016 23.46 82.0749 23.6 81.5816 23.88C81.1016 24.1467 80.7082 24.54 80.4016 25.06C80.1082 25.5667 79.9616 26.18 79.9616 26.9C79.9616 27.62 80.1082 28.24 80.4016 28.76C80.7082 29.2667 81.1016 29.66 81.5816 29.94C82.0749 30.2067 82.6016 30.34 83.1616 30.34ZM94.8309 32.32C93.9109 32.32 93.0776 32.0933 92.3309 31.64C91.5976 31.1733 91.0109 30.5333 90.5709 29.72C90.1443 28.8933 89.9309 27.9533 89.9309 26.9C89.9309 25.8467 90.1443 24.9133 90.5709 24.1C91.0109 23.2867 91.5976 22.6467 92.3309 22.18C93.0776 21.7133 93.9109 21.48 94.8309 21.48C95.6176 21.48 96.2909 21.6533 96.8509 22C97.4243 22.3467 97.8443 22.74 98.1109 23.18H98.2309L98.1109 21.76V17.68H100.251V32H98.2309V30.64H98.1109C97.8443 31.08 97.4243 31.4733 96.8509 31.82C96.2909 32.1533 95.6176 32.32 94.8309 32.32ZM95.1509 30.34C95.6843 30.34 96.1843 30.2 96.6509 29.92C97.1309 29.64 97.5109 29.2467 97.7909 28.74C98.0843 28.22 98.2309 27.6067 98.2309 26.9C98.2309 26.1933 98.0843 25.5867 97.7909 25.08C97.5109 24.56 97.1309 24.16 96.6509 23.88C96.1843 23.6 95.6843 23.46 95.1509 23.46C94.6176 23.46 94.1176 23.6 93.6509 23.88C93.1843 24.16 92.8043 24.56 92.5109 25.08C92.2176 25.5867 92.0709 26.1933 92.0709 26.9C92.0709 27.6067 92.2176 28.22 92.5109 28.74C92.8043 29.2467 93.1843 29.64 93.6509 29.92C94.1176 30.2 94.6176 30.34 95.1509 30.34ZM105.898 32.32C105.164 32.32 104.511 32.18 103.938 31.9C103.364 31.6067 102.918 31.2 102.598 30.68C102.278 30.16 102.118 29.5667 102.118 28.9C102.118 28.18 102.304 27.5667 102.678 27.06C103.064 26.54 103.578 26.1467 104.218 25.88C104.858 25.6133 105.564 25.48 106.338 25.48C106.978 25.48 107.538 25.54 108.018 25.66C108.511 25.78 108.884 25.9067 109.138 26.04V25.5C109.138 24.8333 108.898 24.3 108.418 23.9C107.938 23.5 107.318 23.3 106.558 23.3C106.038 23.3 105.544 23.42 105.078 23.66C104.611 23.8867 104.238 24.2 103.958 24.6L102.478 23.46C102.918 22.8467 103.498 22.3667 104.218 22.02C104.951 21.66 105.751 21.48 106.618 21.48C108.098 21.48 109.238 21.8467 110.038 22.58C110.838 23.3 111.238 24.3133 111.238 25.62V32H109.138V30.74H109.018C108.751 31.1533 108.351 31.52 107.818 31.84C107.284 32.16 106.644 32.32 105.898 32.32ZM106.278 30.56C106.838 30.56 107.331 30.4267 107.758 30.16C108.184 29.8933 108.518 29.5467 108.758 29.12C109.011 28.68 109.138 28.2067 109.138 27.7C108.831 27.5267 108.471 27.3867 108.058 27.28C107.644 27.16 107.204 27.1 106.738 27.1C105.858 27.1 105.231 27.28 104.858 27.64C104.484 27.9867 104.298 28.4133 104.298 28.92C104.298 29.4 104.478 29.7933 104.838 30.1C105.198 30.4067 105.678 30.56 106.278 30.56ZM114.855 20.3C114.455 20.3 114.109 20.16 113.815 19.88C113.535 19.5867 113.395 19.24 113.395 18.84C113.395 18.44 113.535 18.1 113.815 17.82C114.109 17.54 114.455 17.4 114.855 17.4C115.255 17.4 115.595 17.54 115.875 17.82C116.169 18.1 116.315 18.44 116.315 18.84C116.315 19.24 116.169 19.5867 115.875 19.88C115.595 20.16 115.255 20.3 114.855 20.3ZM112.915 36.52C112.502 36.52 112.129 36.4733 111.795 36.38V34.3C111.929 34.38 112.082 34.44 112.255 34.48C112.415 34.5333 112.575 34.56 112.735 34.56C113.122 34.56 113.389 34.44 113.535 34.2C113.695 33.9733 113.775 33.64 113.775 33.2V21.8H115.935V33.22C115.935 34.3933 115.649 35.2333 115.075 35.74C114.502 36.26 113.782 36.52 112.915 36.52ZM127.643 32.32C126.723 32.32 125.89 32.0933 125.143 31.64C124.41 31.1733 123.823 30.5333 123.383 29.72C122.957 28.8933 122.743 27.9533 122.743 26.9C122.743 25.8467 122.957 24.9133 123.383 24.1C123.823 23.2867 124.41 22.6467 125.143 22.18C125.89 21.7133 126.723 21.48 127.643 21.48C128.43 21.48 129.103 21.6533 129.663 22C130.237 22.3467 130.657 22.74 130.923 23.18H131.043L130.923 21.76V17.68H133.063V32H131.043V30.64H130.923C130.657 31.08 130.237 31.4733 129.663 31.82C129.103 32.1533 128.43 32.32 127.643 32.32ZM127.963 30.34C128.497 30.34 128.997 30.2 129.463 29.92C129.943 29.64 130.323 29.2467 130.603 28.74C130.897 28.22 131.043 27.6067 131.043 26.9C131.043 26.1933 130.897 25.5867 130.603 25.08C130.323 24.56 129.943 24.16 129.463 23.88C128.997 23.6 128.497 23.46 127.963 23.46C127.43 23.46 126.93 23.6 126.463 23.88C125.997 24.16 125.617 24.56 125.323 25.08C125.03 25.5867 124.883 26.1933 124.883 26.9C124.883 27.6067 125.03 28.22 125.323 28.74C125.617 29.2467 125.997 29.64 126.463 29.92C126.93 30.2 127.43 30.34 127.963 30.34ZM140.31 32.32C139.257 32.32 138.33 32.08 137.53 31.6C136.73 31.12 136.103 30.4733 135.65 29.66C135.197 28.8467 134.97 27.9267 134.97 26.9C134.97 25.8867 135.197 24.9733 135.65 24.16C136.103 23.3333 136.73 22.68 137.53 22.2C138.33 21.72 139.257 21.48 140.31 21.48C141.35 21.48 142.27 21.72 143.07 22.2C143.87 22.68 144.497 23.3333 144.95 24.16C145.403 24.9733 145.63 25.8867 145.63 26.9C145.63 27.9267 145.403 28.8467 144.95 29.66C144.497 30.4733 143.87 31.12 143.07 31.6C142.27 32.08 141.35 32.32 140.31 32.32ZM140.31 30.34C140.87 30.34 141.39 30.2067 141.87 29.94C142.35 29.66 142.737 29.2667 143.03 28.76C143.337 28.24 143.49 27.62 143.49 26.9C143.49 26.18 143.337 25.5667 143.03 25.06C142.737 24.54 142.35 24.1467 141.87 23.88C141.39 23.6 140.87 23.46 140.31 23.46C139.75 23.46 139.223 23.6 138.73 23.88C138.25 24.1467 137.857 24.54 137.55 25.06C137.257 25.5667 137.11 26.18 137.11 26.9C137.11 27.62 137.257 28.24 137.55 28.76C137.857 29.2667 138.25 29.66 138.73 29.94C139.223 30.2067 139.75 30.34 140.31 30.34Z" fill="white"/>
<path d="M153.62 32V17.68H158.54C159.407 17.68 160.193 17.8667 160.9 18.24C161.607 18.6133 162.167 19.1267 162.58 19.78C163.007 20.4333 163.22 21.1933 163.22 22.06C163.22 22.9267 163.007 23.6933 162.58 24.36C162.167 25.0133 161.607 25.5267 160.9 25.9C160.193 26.26 159.407 26.44 158.54 26.44H155.82V32H153.62ZM158.6 19.76H155.82V24.36H158.6C159.12 24.36 159.56 24.2533 159.92 24.04C160.28 23.8133 160.553 23.5267 160.74 23.18C160.94 22.82 161.04 22.4467 161.04 22.06C161.04 21.6733 160.94 21.3067 160.74 20.96C160.553 20.6133 160.28 20.3267 159.92 20.1C159.56 19.8733 159.12 19.76 158.6 19.76ZM169.212 32.32C168.159 32.32 167.232 32.08 166.432 31.6C165.632 31.12 165.006 30.4733 164.552 29.66C164.099 28.8467 163.872 27.9267 163.872 26.9C163.872 25.8867 164.099 24.9733 164.552 24.16C165.006 23.3333 165.632 22.68 166.432 22.2C167.232 21.72 168.159 21.48 169.212 21.48C170.252 21.48 171.172 21.72 171.972 22.2C172.772 22.68 173.399 23.3333 173.852 24.16C174.306 24.9733 174.532 25.8867 174.532 26.9C174.532 27.9267 174.306 28.8467 173.852 29.66C173.399 30.4733 172.772 31.12 171.972 31.6C171.172 32.08 170.252 32.32 169.212 32.32ZM169.212 30.34C169.772 30.34 170.292 30.2067 170.772 29.94C171.252 29.66 171.639 29.2667 171.932 28.76C172.239 28.24 172.392 27.62 172.392 26.9C172.392 26.18 172.239 25.5667 171.932 25.06C171.639 24.54 171.252 24.1467 170.772 23.88C170.292 23.6 169.772 23.46 169.212 23.46C168.652 23.46 168.126 23.6 167.632 23.88C167.152 24.1467 166.759 24.54 166.452 25.06C166.159 25.5667 166.012 26.18 166.012 26.9C166.012 27.62 166.159 28.24 166.452 28.76C166.759 29.2667 167.152 29.66 167.632 29.94C168.126 30.2067 168.652 30.34 169.212 30.34ZM185.506 29.04V23.68H183.726V21.8H185.506V18.92H187.666V21.8H190.166V23.68H187.666V28.58C187.666 29.0867 187.766 29.4733 187.966 29.74C188.18 30.0067 188.533 30.14 189.026 30.14C189.28 30.14 189.493 30.1067 189.666 30.04C189.853 29.9733 190.04 29.88 190.226 29.76V31.86C190 31.9533 189.76 32.0267 189.506 32.08C189.253 32.1333 188.96 32.16 188.626 32.16C187.666 32.16 186.906 31.8867 186.346 31.34C185.786 30.78 185.506 30.0133 185.506 29.04ZM176.326 32V21.8H178.366V23.3H178.486C178.753 22.74 179.166 22.3067 179.726 22C180.286 21.68 180.893 21.52 181.546 21.52C181.92 21.52 182.2 21.5467 182.386 21.6V23.76C182.093 23.6667 181.733 23.62 181.306 23.62C180.453 23.62 179.766 23.8933 179.246 24.44C178.74 24.9867 178.486 25.7267 178.486 26.66V32H176.326ZM193.619 32V23.68H191.759V21.8H193.619V20.96C193.619 20.24 193.773 19.6267 194.079 19.12C194.386 18.6 194.799 18.2067 195.319 17.94C195.853 17.66 196.453 17.52 197.119 17.52C197.479 17.52 197.786 17.5467 198.039 17.6C198.306 17.64 198.526 17.6933 198.699 17.76V19.86C198.526 19.7933 198.326 19.7267 198.099 19.66C197.886 19.58 197.619 19.54 197.299 19.54C196.886 19.54 196.526 19.68 196.219 19.96C195.913 20.2267 195.759 20.62 195.759 21.14V21.8H198.319V23.68H195.759V32H193.619ZM204.424 32.32C203.424 32.32 202.531 32.0867 201.744 31.62C200.957 31.1533 200.337 30.5133 199.884 29.7C199.444 28.8867 199.224 27.96 199.224 26.92C199.224 25.9467 199.437 25.0467 199.864 24.22C200.291 23.3933 200.884 22.7333 201.644 22.24C202.417 21.7333 203.304 21.48 204.304 21.48C205.357 21.48 206.251 21.7067 206.984 22.16C207.731 22.6133 208.297 23.2333 208.684 24.02C209.071 24.8067 209.264 25.6933 209.264 26.68C209.264 26.8267 209.257 26.96 209.244 27.08C209.244 27.2 209.237 27.2933 209.224 27.36H201.344C201.451 28.3733 201.804 29.1333 202.404 29.64C203.017 30.1467 203.711 30.4 204.484 30.4C205.177 30.4 205.751 30.2467 206.204 29.94C206.657 29.62 207.017 29.2267 207.284 28.76L209.064 29.62C208.624 30.42 208.024 31.0733 207.264 31.58C206.504 32.0733 205.557 32.32 204.424 32.32ZM204.324 23.32C203.604 23.32 202.991 23.54 202.484 23.98C201.977 24.42 201.637 25.0067 201.464 25.74H207.124C207.097 25.3933 206.984 25.0333 206.784 24.66C206.584 24.2867 206.277 23.9733 205.864 23.72C205.464 23.4533 204.951 23.32 204.324 23.32ZM211.288 32V17.68H213.448V32H211.288ZM219.097 32.32C218.363 32.32 217.71 32.18 217.137 31.9C216.563 31.6067 216.117 31.2 215.797 30.68C215.477 30.16 215.317 29.5667 215.317 28.9C215.317 28.18 215.503 27.5667 215.877 27.06C216.263 26.54 216.777 26.1467 217.417 25.88C218.057 25.6133 218.763 25.48 219.537 25.48C220.177 25.48 220.737 25.54 221.217 25.66C221.71 25.78 222.083 25.9067 222.337 26.04V25.5C222.337 24.8333 222.097 24.3 221.617 23.9C221.137 23.5 220.517 23.3 219.757 23.3C219.237 23.3 218.743 23.42 218.277 23.66C217.81 23.8867 217.437 24.2 217.157 24.6L215.677 23.46C216.117 22.8467 216.697 22.3667 217.417 22.02C218.15 21.66 218.95 21.48 219.817 21.48C221.297 21.48 222.437 21.8467 223.237 22.58C224.037 23.3 224.437 24.3133 224.437 25.62V32H222.337V30.74H222.217C221.95 31.1533 221.55 31.52 221.017 31.84C220.483 32.16 219.843 32.32 219.097 32.32ZM219.477 30.56C220.037 30.56 220.53 30.4267 220.957 30.16C221.383 29.8933 221.717 29.5467 221.957 29.12C222.21 28.68 222.337 28.2067 222.337 27.7C222.03 27.5267 221.67 27.3867 221.257 27.28C220.843 27.16 220.403 27.1 219.937 27.1C219.057 27.1 218.43 27.28 218.057 27.64C217.683 27.9867 217.497 28.4133 217.497 28.92C217.497 29.4 217.677 29.7933 218.037 30.1C218.397 30.4067 218.877 30.56 219.477 30.56ZM238.232 32.32C237.205 32.32 236.239 32.1333 235.332 31.76C234.439 31.3867 233.645 30.8667 232.952 30.2C232.259 29.52 231.712 28.7267 231.312 27.82C230.925 26.9 230.732 25.9067 230.732 24.84C230.732 23.7733 230.925 22.7867 231.312 21.88C231.712 20.96 232.252 20.1667 232.932 19.5C233.625 18.82 234.425 18.2933 235.332 17.92C236.239 17.5467 237.205 17.36 238.232 17.36C239.325 17.36 240.332 17.5533 241.252 17.94C242.185 18.3267 242.965 18.8667 243.592 19.56L242.072 21.06C241.605 20.54 241.045 20.14 240.392 19.86C239.752 19.58 239.032 19.44 238.232 19.44C237.285 19.44 236.412 19.6667 235.612 20.12C234.812 20.56 234.165 21.1867 233.672 22C233.192 22.8 232.952 23.7467 232.952 24.84C232.952 25.9333 233.199 26.8867 233.692 27.7C234.185 28.5 234.832 29.1267 235.632 29.58C236.432 30.02 237.305 30.24 238.252 30.24C239.119 30.24 239.905 30.08 240.612 29.76C241.319 29.4267 241.885 28.96 242.312 28.36C242.752 27.76 243.019 27.04 243.112 26.2H238.212V24.26H245.172C245.252 24.62 245.292 25 245.292 25.4V25.42C245.292 26.8067 244.985 28.02 244.372 29.06C243.772 30.0867 242.939 30.8867 241.872 31.46C240.805 32.0333 239.592 32.32 238.232 32.32ZM251.732 32.32C250.679 32.32 249.752 32.08 248.952 31.6C248.152 31.12 247.525 30.4733 247.072 29.66C246.619 28.8467 246.392 27.9267 246.392 26.9C246.392 25.8867 246.619 24.9733 247.072 24.16C247.525 23.3333 248.152 22.68 248.952 22.2C249.752 21.72 250.679 21.48 251.732 21.48C252.772 21.48 253.692 21.72 254.492 22.2C255.292 22.68 255.919 23.3333 256.372 24.16C256.825 24.9733 257.052 25.8867 257.052 26.9C257.052 27.9267 256.825 28.8467 256.372 29.66C255.919 30.4733 255.292 31.12 254.492 31.6C253.692 32.08 252.772 32.32 251.732 32.32ZM251.732 30.34C252.292 30.34 252.812 30.2067 253.292 29.94C253.772 29.66 254.159 29.2667 254.452 28.76C254.759 28.24 254.912 27.62 254.912 26.9C254.912 26.18 254.759 25.5667 254.452 25.06C254.159 24.54 253.772 24.1467 253.292 23.88C252.812 23.6 252.292 23.46 251.732 23.46C251.172 23.46 250.645 23.6 250.152 23.88C249.672 24.1467 249.279 24.54 248.972 25.06C248.679 25.5667 248.532 26.18 248.532 26.9C248.532 27.62 248.679 28.24 248.972 28.76C249.279 29.2667 249.672 29.66 250.152 29.94C250.645 30.2067 251.172 30.34 251.732 30.34ZM263.841 32.32C262.788 32.32 261.861 32.08 261.061 31.6C260.261 31.12 259.635 30.4733 259.181 29.66C258.728 28.8467 258.501 27.9267 258.501 26.9C258.501 25.8867 258.728 24.9733 259.181 24.16C259.635 23.3333 260.261 22.68 261.061 22.2C261.861 21.72 262.788 21.48 263.841 21.48C264.881 21.48 265.801 21.72 266.601 22.2C267.401 22.68 268.028 23.3333 268.481 24.16C268.935 24.9733 269.161 25.8867 269.161 26.9C269.161 27.9267 268.935 28.8467 268.481 29.66C268.028 30.4733 267.401 31.12 266.601 31.6C265.801 32.08 264.881 32.32 263.841 32.32ZM263.841 30.34C264.401 30.34 264.921 30.2067 265.401 29.94C265.881 29.66 266.268 29.2667 266.561 28.76C266.868 28.24 267.021 27.62 267.021 26.9C267.021 26.18 266.868 25.5667 266.561 25.06C266.268 24.54 265.881 24.1467 265.401 23.88C264.921 23.6 264.401 23.46 263.841 23.46C263.281 23.46 262.755 23.6 262.261 23.88C261.781 24.1467 261.388 24.54 261.081 25.06C260.788 25.5667 260.641 26.18 260.641 26.9C260.641 27.62 260.788 28.24 261.081 28.76C261.388 29.2667 261.781 29.66 262.261 29.94C262.755 30.2067 263.281 30.34 263.841 30.34ZM275.751 36.64C274.857 36.64 274.084 36.4933 273.431 36.2C272.791 35.92 272.271 35.5533 271.871 35.1C271.471 34.66 271.184 34.2067 271.011 33.74L273.011 32.9C273.224 33.4333 273.564 33.8667 274.031 34.2C274.511 34.5467 275.084 34.72 275.751 34.72C276.684 34.72 277.417 34.44 277.951 33.88C278.497 33.32 278.771 32.5267 278.771 31.5V30.52H278.651C278.331 31 277.884 31.3867 277.311 31.68C276.751 31.96 276.111 32.1 275.391 32.1C274.524 32.1 273.731 31.88 273.011 31.44C272.291 31 271.711 30.3867 271.271 29.6C270.831 28.8 270.611 27.8667 270.611 26.8C270.611 25.72 270.831 24.7867 271.271 24C271.711 23.2 272.291 22.58 273.011 22.14C273.731 21.7 274.524 21.48 275.391 21.48C276.111 21.48 276.751 21.6267 277.311 21.92C277.884 22.2133 278.331 22.6 278.651 23.08H278.771V21.8H280.831V31.46C280.831 32.5667 280.611 33.5067 280.171 34.28C279.744 35.0533 279.151 35.64 278.391 36.04C277.631 36.44 276.751 36.64 275.751 36.64ZM275.771 30.14C276.304 30.14 276.797 30.0133 277.251 29.76C277.704 29.4933 278.071 29.1133 278.351 28.62C278.631 28.1133 278.771 27.5067 278.771 26.8C278.771 26.0667 278.631 25.4533 278.351 24.96C278.071 24.4533 277.704 24.0733 277.251 23.82C276.797 23.5667 276.304 23.44 275.771 23.44C275.237 23.44 274.737 23.5733 274.271 23.84C273.817 24.0933 273.451 24.4667 273.171 24.96C272.891 25.4533 272.751 26.0667 272.751 26.8C272.751 27.52 272.891 28.1333 273.171 28.64C273.451 29.1333 273.817 29.5067 274.271 29.76C274.737 30.0133 275.237 30.14 275.771 30.14ZM283.378 32V17.68H285.538V32H283.378ZM292.647 32.32C291.647 32.32 290.753 32.0867 289.967 31.62C289.18 31.1533 288.56 30.5133 288.107 29.7C287.667 28.8867 287.447 27.96 287.447 26.92C287.447 25.9467 287.66 25.0467 288.087 24.22C288.513 23.3933 289.107 22.7333 289.867 22.24C290.64 21.7333 291.527 21.48 292.527 21.48C293.58 21.48 294.473 21.7067 295.207 22.16C295.953 22.6133 296.52 23.2333 296.907 24.02C297.293 24.8067 297.487 25.6933 297.487 26.68C297.487 26.8267 297.48 26.96 297.467 27.08C297.467 27.2 297.46 27.2933 297.447 27.36H289.567C289.673 28.3733 290.027 29.1333 290.627 29.64C291.24 30.1467 291.933 30.4 292.707 30.4C293.4 30.4 293.973 30.2467 294.427 29.94C294.88 29.62 295.24 29.2267 295.507 28.76L297.287 29.62C296.847 30.42 296.247 31.0733 295.487 31.58C294.727 32.0733 293.78 32.32 292.647 32.32ZM292.547 23.32C291.827 23.32 291.213 23.54 290.707 23.98C290.2 24.42 289.86 25.0067 289.687 25.74H295.347C295.32 25.3933 295.207 25.0333 295.007 24.66C294.807 24.2867 294.5 23.9733 294.087 23.72C293.687 23.4533 293.173 23.32 292.547 23.32Z" fill="white"/>
<rect x="0.5" y="0.5" width="319" height="49" rx="24.5" stroke="#747775"/>
<defs>
<linearGradient id="paint0_linear_1819_24557" x1="34.5703" y1="30.7864" x2="18.7309" y2="48.9133" gradientUnits="userSpaceOnUse">
<stop stop-color="#4285F4"/>
<stop offset="1" stop-color="#1B74E8"/>
</linearGradient>
</defs>
</svg>
