<svg width="299" height="50" viewBox="0 0 299 50" fill="none" xmlns="http://www.w3.org/2000/svg">
<rect x="0.5" y="0.5" width="298" height="49" rx="24.5" fill="#1F1F1F"/>
<path d="M51 22H21V17C21 14.2857 23.2018 12 25.8165 12H46.1835C48.7982 12 51 14.2857 51 17V22Z" fill="#34A853"/>
<path d="M51 26.0537H21V21.0537C21 18.3394 23.2018 16.0537 25.8165 16.0537H46.1835C48.7982 16.0537 51 18.3394 51 21.0537V26.0537Z" fill="#FBBC04"/>
<path d="M51 30.2468H21V25.2468C21 22.5325 23.2018 20.2468 25.8165 20.2468H46.1835C48.7982 20.2468 51 22.5325 51 25.2468V30.2468Z" fill="#EA4335"/>
<path d="M21 23.2752L40.0411 27.6789C42.2329 28.2294 44.6986 27.6789 46.4795 26.3028L51 23V33.3211C51 35.9358 48.8082 38 46.2055 38H25.7945C23.1918 38 21 35.9358 21 33.3211V23.2752Z" fill="url(#paint0_linear_1819_24538)"/>
<path d="M64.62 32V17.68H66.82V29.92H72.98V32H64.62ZM79.3106 32.32C78.3106 32.32 77.4173 32.0867 76.6306 31.62C75.844 31.1533 75.224 30.5133 74.7706 29.7C74.3306 28.8867 74.1106 27.96 74.1106 26.92C74.1106 25.9467 74.324 25.0467 74.7506 24.22C75.1773 23.3933 75.7706 22.7333 76.5306 22.24C77.304 21.7333 78.1906 21.48 79.1906 21.48C80.244 21.48 81.1373 21.7067 81.8706 22.16C82.6173 22.6133 83.184 23.2333 83.5706 24.02C83.9573 24.8067 84.1506 25.6933 84.1506 26.68C84.1506 26.8267 84.144 26.96 84.1306 27.08C84.1306 27.2 84.124 27.2933 84.1106 27.36H76.2306C76.3373 28.3733 76.6906 29.1333 77.2906 29.64C77.904 30.1467 78.5973 30.4 79.3706 30.4C80.064 30.4 80.6373 30.2467 81.0906 29.94C81.544 29.62 81.904 29.2267 82.1706 28.76L83.9506 29.62C83.5106 30.42 82.9106 31.0733 82.1506 31.58C81.3906 32.0733 80.444 32.32 79.3106 32.32ZM79.2106 23.32C78.4906 23.32 77.8773 23.54 77.3706 23.98C76.864 24.42 76.524 25.0067 76.3506 25.74H82.0106C81.984 25.3933 81.8706 25.0333 81.6706 24.66C81.4706 24.2867 81.164 23.9733 80.7506 23.72C80.3506 23.4533 79.8373 23.32 79.2106 23.32ZM90.8522 36.64C89.9589 36.64 89.1855 36.4933 88.5322 36.2C87.8922 35.92 87.3722 35.5533 86.9722 35.1C86.5722 34.66 86.2855 34.2067 86.1122 33.74L88.1122 32.9C88.3255 33.4333 88.6655 33.8667 89.1322 34.2C89.6122 34.5467 90.1855 34.72 90.8522 34.72C91.7855 34.72 92.5189 34.44 93.0522 33.88C93.5989 33.32 93.8722 32.5267 93.8722 31.5V30.52H93.7522C93.4322 31 92.9855 31.3867 92.4122 31.68C91.8522 31.96 91.2122 32.1 90.4922 32.1C89.6255 32.1 88.8322 31.88 88.1122 31.44C87.3922 31 86.8122 30.3867 86.3722 29.6C85.9322 28.8 85.7122 27.8667 85.7122 26.8C85.7122 25.72 85.9322 24.7867 86.3722 24C86.8122 23.2 87.3922 22.58 88.1122 22.14C88.8322 21.7 89.6255 21.48 90.4922 21.48C91.2122 21.48 91.8522 21.6267 92.4122 21.92C92.9855 22.2133 93.4322 22.6 93.7522 23.08H93.8722V21.8H95.9322V31.46C95.9322 32.5667 95.7122 33.5067 95.2722 34.28C94.8455 35.0533 94.2522 35.64 93.4922 36.04C92.7322 36.44 91.8522 36.64 90.8522 36.64ZM90.8722 30.14C91.4055 30.14 91.8989 30.0133 92.3522 29.76C92.8055 29.4933 93.1722 29.1133 93.4522 28.62C93.7322 28.1133 93.8722 27.5067 93.8722 26.8C93.8722 26.0667 93.7322 25.4533 93.4522 24.96C93.1722 24.4533 92.8055 24.0733 92.3522 23.82C91.8989 23.5667 91.4055 23.44 90.8722 23.44C90.3389 23.44 89.8389 23.5733 89.3722 23.84C88.9189 24.0933 88.5522 24.4667 88.2722 24.96C87.9922 25.4533 87.8522 26.0667 87.8522 26.8C87.8522 27.52 87.9922 28.1333 88.2722 28.64C88.5522 29.1333 88.9189 29.5067 89.3722 29.76C89.8389 30.0133 90.3389 30.14 90.8722 30.14ZM102.962 36.64C102.068 36.64 101.295 36.4933 100.642 36.2C100.002 35.92 99.4816 35.5533 99.0816 35.1C98.6816 34.66 98.3949 34.2067 98.2216 33.74L100.222 32.9C100.435 33.4333 100.775 33.8667 101.242 34.2C101.722 34.5467 102.295 34.72 102.962 34.72C103.895 34.72 104.628 34.44 105.162 33.88C105.708 33.32 105.982 32.5267 105.982 31.5V30.52H105.862C105.542 31 105.095 31.3867 104.522 31.68C103.962 31.96 103.322 32.1 102.602 32.1C101.735 32.1 100.942 31.88 100.222 31.44C99.5016 31 98.9216 30.3867 98.4816 29.6C98.0416 28.8 97.8216 27.8667 97.8216 26.8C97.8216 25.72 98.0416 24.7867 98.4816 24C98.9216 23.2 99.5016 22.58 100.222 22.14C100.942 21.7 101.735 21.48 102.602 21.48C103.322 21.48 103.962 21.6267 104.522 21.92C105.095 22.2133 105.542 22.6 105.862 23.08H105.982V21.8H108.042V31.46C108.042 32.5667 107.822 33.5067 107.382 34.28C106.955 35.0533 106.362 35.64 105.602 36.04C104.842 36.44 103.962 36.64 102.962 36.64ZM102.982 30.14C103.515 30.14 104.008 30.0133 104.462 29.76C104.915 29.4933 105.282 29.1133 105.562 28.62C105.842 28.1133 105.982 27.5067 105.982 26.8C105.982 26.0667 105.842 25.4533 105.562 24.96C105.282 24.4533 104.915 24.0733 104.462 23.82C104.008 23.5667 103.515 23.44 102.982 23.44C102.448 23.44 101.948 23.5733 101.482 23.84C101.028 24.0933 100.662 24.4667 100.382 24.96C100.102 25.4533 99.9616 26.0667 99.9616 26.8C99.9616 27.52 100.102 28.1333 100.382 28.64C100.662 29.1333 101.028 29.5067 101.482 29.76C101.948 30.0133 102.448 30.14 102.982 30.14ZM116.317 29.04V23.68H114.537V21.8H116.317V18.92H118.477V21.8H120.977V23.68H118.477V28.58C118.477 29.0867 118.577 29.4733 118.777 29.74C118.99 30.0067 119.343 30.14 119.837 30.14C120.09 30.14 120.303 30.1067 120.477 30.04C120.663 29.9733 120.85 29.88 121.037 29.76V31.86C120.81 31.9533 120.57 32.0267 120.317 32.08C120.063 32.1333 119.763 32.16 119.417 32.16C118.47 32.16 117.717 31.8867 117.157 31.34C116.597 30.78 116.317 30.0133 116.317 29.04ZM124.387 20.3C123.987 20.3 123.64 20.16 123.347 19.88C123.067 19.5867 122.927 19.24 122.927 18.84C122.927 18.44 123.067 18.1 123.347 17.82C123.64 17.54 123.987 17.4 124.387 17.4C124.787 17.4 125.127 17.54 125.407 17.82C125.7 18.1 125.847 18.44 125.847 18.84C125.847 19.24 125.7 19.5867 125.407 19.88C125.127 20.16 124.787 20.3 124.387 20.3ZM123.307 32V21.8H125.467V32H123.307ZM128.167 32V17.68H130.327V32H128.167ZM138.781 20.3C138.381 20.3 138.035 20.16 137.741 19.88C137.461 19.5867 137.321 19.24 137.321 18.84C137.321 18.44 137.461 18.1 137.741 17.82C138.035 17.54 138.381 17.4 138.781 17.4C139.181 17.4 139.521 17.54 139.801 17.82C140.095 18.1 140.241 18.44 140.241 18.84C140.241 19.24 140.095 19.5867 139.801 19.88C139.521 20.16 139.181 20.3 138.781 20.3ZM137.701 32V21.8H139.861V32H137.701Z" fill="white"/>
<path d="M155.4 32.32C154.373 32.32 153.407 32.1333 152.5 31.76C151.607 31.3867 150.813 30.8667 150.12 30.2C149.427 29.52 148.88 28.7267 148.48 27.82C148.093 26.9 147.9 25.9067 147.9 24.84C147.9 23.7733 148.093 22.7867 148.48 21.88C148.88 20.96 149.42 20.1667 150.1 19.5C150.793 18.82 151.593 18.2933 152.5 17.92C153.407 17.5467 154.373 17.36 155.4 17.36C156.493 17.36 157.5 17.5533 158.42 17.94C159.353 18.3267 160.133 18.8667 160.76 19.56L159.24 21.06C158.773 20.54 158.213 20.14 157.56 19.86C156.92 19.58 156.2 19.44 155.4 19.44C154.453 19.44 153.58 19.6667 152.78 20.12C151.98 20.56 151.333 21.1867 150.84 22C150.36 22.8 150.12 23.7467 150.12 24.84C150.12 25.9333 150.367 26.8867 150.86 27.7C151.353 28.5 152 29.1267 152.8 29.58C153.6 30.02 154.473 30.24 155.42 30.24C156.287 30.24 157.073 30.08 157.78 29.76C158.487 29.4267 159.053 28.96 159.48 28.36C159.92 27.76 160.187 27.04 160.28 26.2H155.38V24.26H162.34C162.42 24.62 162.46 25 162.46 25.4V25.42C162.46 26.8067 162.153 28.02 161.54 29.06C160.94 30.0867 160.107 30.8867 159.04 31.46C157.973 32.0333 156.76 32.32 155.4 32.32ZM168.9 32.32C167.847 32.32 166.92 32.08 166.12 31.6C165.32 31.12 164.693 30.4733 164.24 29.66C163.787 28.8467 163.56 27.9267 163.56 26.9C163.56 25.8867 163.787 24.9733 164.24 24.16C164.693 23.3333 165.32 22.68 166.12 22.2C166.92 21.72 167.847 21.48 168.9 21.48C169.94 21.48 170.86 21.72 171.66 22.2C172.46 22.68 173.087 23.3333 173.54 24.16C173.993 24.9733 174.22 25.8867 174.22 26.9C174.22 27.9267 173.993 28.8467 173.54 29.66C173.087 30.4733 172.46 31.12 171.66 31.6C170.86 32.08 169.94 32.32 168.9 32.32ZM168.9 30.34C169.46 30.34 169.98 30.2067 170.46 29.94C170.94 29.66 171.327 29.2667 171.62 28.76C171.927 28.24 172.08 27.62 172.08 26.9C172.08 26.18 171.927 25.5667 171.62 25.06C171.327 24.54 170.94 24.1467 170.46 23.88C169.98 23.6 169.46 23.46 168.9 23.46C168.34 23.46 167.813 23.6 167.32 23.88C166.84 24.1467 166.447 24.54 166.14 25.06C165.847 25.5667 165.7 26.18 165.7 26.9C165.7 27.62 165.847 28.24 166.14 28.76C166.447 29.2667 166.84 29.66 167.32 29.94C167.813 30.2067 168.34 30.34 168.9 30.34ZM181.009 32.32C179.956 32.32 179.029 32.08 178.229 31.6C177.429 31.12 176.803 30.4733 176.349 29.66C175.896 28.8467 175.669 27.9267 175.669 26.9C175.669 25.8867 175.896 24.9733 176.349 24.16C176.803 23.3333 177.429 22.68 178.229 22.2C179.029 21.72 179.956 21.48 181.009 21.48C182.049 21.48 182.969 21.72 183.769 22.2C184.569 22.68 185.196 23.3333 185.649 24.16C186.103 24.9733 186.329 25.8867 186.329 26.9C186.329 27.9267 186.103 28.8467 185.649 29.66C185.196 30.4733 184.569 31.12 183.769 31.6C182.969 32.08 182.049 32.32 181.009 32.32ZM181.009 30.34C181.569 30.34 182.089 30.2067 182.569 29.94C183.049 29.66 183.436 29.2667 183.729 28.76C184.036 28.24 184.189 27.62 184.189 26.9C184.189 26.18 184.036 25.5667 183.729 25.06C183.436 24.54 183.049 24.1467 182.569 23.88C182.089 23.6 181.569 23.46 181.009 23.46C180.449 23.46 179.923 23.6 179.429 23.88C178.949 24.1467 178.556 24.54 178.249 25.06C177.956 25.5667 177.809 26.18 177.809 26.9C177.809 27.62 177.956 28.24 178.249 28.76C178.556 29.2667 178.949 29.66 179.429 29.94C179.923 30.2067 180.449 30.34 181.009 30.34ZM192.919 36.64C192.025 36.64 191.252 36.4933 190.599 36.2C189.959 35.92 189.439 35.5533 189.039 35.1C188.639 34.66 188.352 34.2067 188.179 33.74L190.179 32.9C190.392 33.4333 190.732 33.8667 191.199 34.2C191.679 34.5467 192.252 34.72 192.919 34.72C193.852 34.72 194.585 34.44 195.119 33.88C195.665 33.32 195.939 32.5267 195.939 31.5V30.52H195.819C195.499 31 195.052 31.3867 194.479 31.68C193.919 31.96 193.279 32.1 192.559 32.1C191.692 32.1 190.899 31.88 190.179 31.44C189.459 31 188.879 30.3867 188.439 29.6C187.999 28.8 187.779 27.8667 187.779 26.8C187.779 25.72 187.999 24.7867 188.439 24C188.879 23.2 189.459 22.58 190.179 22.14C190.899 21.7 191.692 21.48 192.559 21.48C193.279 21.48 193.919 21.6267 194.479 21.92C195.052 22.2133 195.499 22.6 195.819 23.08H195.939V21.8H197.999V31.46C197.999 32.5667 197.779 33.5067 197.339 34.28C196.912 35.0533 196.319 35.64 195.559 36.04C194.799 36.44 193.919 36.64 192.919 36.64ZM192.939 30.14C193.472 30.14 193.965 30.0133 194.419 29.76C194.872 29.4933 195.239 29.1133 195.519 28.62C195.799 28.1133 195.939 27.5067 195.939 26.8C195.939 26.0667 195.799 25.4533 195.519 24.96C195.239 24.4533 194.872 24.0733 194.419 23.82C193.965 23.5667 193.472 23.44 192.939 23.44C192.405 23.44 191.905 23.5733 191.439 23.84C190.985 24.0933 190.619 24.4667 190.339 24.96C190.059 25.4533 189.919 26.0667 189.919 26.8C189.919 27.52 190.059 28.1333 190.339 28.64C190.619 29.1333 190.985 29.5067 191.439 29.76C191.905 30.0133 192.405 30.14 192.939 30.14ZM200.546 32V17.68H202.706V32H200.546ZM209.815 32.32C208.815 32.32 207.921 32.0867 207.135 31.62C206.348 31.1533 205.728 30.5133 205.275 29.7C204.835 28.8867 204.615 27.96 204.615 26.92C204.615 25.9467 204.828 25.0467 205.255 24.22C205.681 23.3933 206.275 22.7333 207.035 22.24C207.808 21.7333 208.695 21.48 209.695 21.48C210.748 21.48 211.641 21.7067 212.375 22.16C213.121 22.6133 213.688 23.2333 214.075 24.02C214.461 24.8067 214.655 25.6933 214.655 26.68C214.655 26.8267 214.648 26.96 214.635 27.08C214.635 27.2 214.628 27.2933 214.615 27.36H206.735C206.841 28.3733 207.195 29.1333 207.795 29.64C208.408 30.1467 209.101 30.4 209.875 30.4C210.568 30.4 211.141 30.2467 211.595 29.94C212.048 29.62 212.408 29.2267 212.675 28.76L214.455 29.62C214.015 30.42 213.415 31.0733 212.655 31.58C211.895 32.0733 210.948 32.32 209.815 32.32ZM209.715 23.32C208.995 23.32 208.381 23.54 207.875 23.98C207.368 24.42 207.028 25.0067 206.855 25.74H212.515C212.488 25.3933 212.375 25.0333 212.175 24.66C211.975 24.2867 211.668 23.9733 211.255 23.72C210.855 23.4533 210.341 23.32 209.715 23.32ZM223.446 32L219.606 17.68H222.046L224.326 26.98L224.566 28.22H224.686L224.986 26.98L227.866 17.68H230.066L232.826 26.98L233.126 28.2H233.246L233.486 26.98L235.766 17.68H238.186L234.406 32H232.086L229.346 22.5L229.026 21.16H228.906L228.566 22.5L225.706 32H223.446ZM242.202 32.32C241.469 32.32 240.816 32.18 240.242 31.9C239.669 31.6067 239.222 31.2 238.902 30.68C238.582 30.16 238.422 29.5667 238.422 28.9C238.422 28.18 238.609 27.5667 238.982 27.06C239.369 26.54 239.882 26.1467 240.522 25.88C241.162 25.6133 241.869 25.48 242.642 25.48C243.282 25.48 243.842 25.54 244.322 25.66C244.816 25.78 245.189 25.9067 245.442 26.04V25.5C245.442 24.8333 245.202 24.3 244.722 23.9C244.242 23.5 243.622 23.3 242.862 23.3C242.342 23.3 241.849 23.42 241.382 23.66C240.916 23.8867 240.542 24.2 240.262 24.6L238.782 23.46C239.222 22.8467 239.802 22.3667 240.522 22.02C241.256 21.66 242.056 21.48 242.922 21.48C244.402 21.48 245.542 21.8467 246.342 22.58C247.142 23.3 247.542 24.3133 247.542 25.62V32H245.442V30.74H245.322C245.056 31.1533 244.656 31.52 244.122 31.84C243.589 32.16 242.949 32.32 242.202 32.32ZM242.582 30.56C243.142 30.56 243.636 30.4267 244.062 30.16C244.489 29.8933 244.822 29.5467 245.062 29.12C245.316 28.68 245.442 28.2067 245.442 27.7C245.136 27.5267 244.776 27.3867 244.362 27.28C243.949 27.16 243.509 27.1 243.042 27.1C242.162 27.1 241.536 27.28 241.162 27.64C240.789 27.9867 240.602 28.4133 240.602 28.92C240.602 29.4 240.782 29.7933 241.142 30.1C241.502 30.4067 241.982 30.56 242.582 30.56ZM249.94 32V17.68H252.1V32H249.94ZM254.667 32V17.68H256.827V32H254.667ZM263.936 32.32C262.936 32.32 262.042 32.0867 261.256 31.62C260.469 31.1533 259.849 30.5133 259.396 29.7C258.956 28.8867 258.736 27.96 258.736 26.92C258.736 25.9467 258.949 25.0467 259.376 24.22C259.802 23.3933 260.396 22.7333 261.156 22.24C261.929 21.7333 262.816 21.48 263.816 21.48C264.869 21.48 265.762 21.7067 266.496 22.16C267.242 22.6133 267.809 23.2333 268.196 24.02C268.582 24.8067 268.776 25.6933 268.776 26.68C268.776 26.8267 268.769 26.96 268.756 27.08C268.756 27.2 268.749 27.2933 268.736 27.36H260.856C260.962 28.3733 261.316 29.1333 261.916 29.64C262.529 30.1467 263.222 30.4 263.996 30.4C264.689 30.4 265.262 30.2467 265.716 29.94C266.169 29.62 266.529 29.2267 266.796 28.76L268.576 29.62C268.136 30.42 267.536 31.0733 266.776 31.58C266.016 32.0733 265.069 32.32 263.936 32.32ZM263.836 23.32C263.116 23.32 262.502 23.54 261.996 23.98C261.489 24.42 261.149 25.0067 260.976 25.74H266.636C266.609 25.3933 266.496 25.0333 266.296 24.66C266.096 24.2867 265.789 23.9733 265.376 23.72C264.976 23.4533 264.462 23.32 263.836 23.32ZM271.567 29.04V23.68H269.787V21.8H271.567V18.92H273.727V21.8H276.227V23.68H273.727V28.58C273.727 29.0867 273.827 29.4733 274.027 29.74C274.24 30.0067 274.593 30.14 275.087 30.14C275.34 30.14 275.553 30.1067 275.727 30.04C275.913 29.9733 276.1 29.88 276.287 29.76V31.86C276.06 31.9533 275.82 32.0267 275.567 32.08C275.313 32.1333 275.013 32.16 274.667 32.16C273.72 32.16 272.967 31.8867 272.407 31.34C271.847 30.78 271.567 30.0133 271.567 29.04Z" fill="white"/>
<rect x="0.5" y="0.5" width="298" height="49" rx="24.5" stroke="#747775"/>
<defs>
<linearGradient id="paint0_linear_1819_24538" x1="34.5703" y1="30.7864" x2="18.7309" y2="48.9133" gradientUnits="userSpaceOnUse">
<stop stop-color="#4285F4"/>
<stop offset="1" stop-color="#1B74E8"/>
</linearGradient>
</defs>
</svg>
