<svg width="372" height="50" viewBox="0 0 372 50" fill="none" xmlns="http://www.w3.org/2000/svg">
<rect x="0.5" y="0.5" width="371" height="49" rx="24.5" fill="#1F1F1F"/>
<path d="M51 22H21V17C21 14.2857 23.2018 12 25.8165 12H46.1835C48.7982 12 51 14.2857 51 17V22Z" fill="#34A853"/>
<path d="M51 26.0537H21V21.0537C21 18.3394 23.2018 16.0537 25.8165 16.0537H46.1835C48.7982 16.0537 51 18.3394 51 21.0537V26.0537Z" fill="#FBBC04"/>
<path d="M51 30.2468H21V25.2468C21 22.5325 23.2018 20.2468 25.8165 20.2468H46.1835C48.7982 20.2468 51 22.5325 51 25.2468V30.2468Z" fill="#EA4335"/>
<path d="M21 23.2752L40.0411 27.6789C42.2329 28.2294 44.6986 27.6789 46.4795 26.3028L51 23V33.3211C51 35.9358 48.8082 38 46.2055 38H25.7945C23.1918 38 21 35.9358 21 33.3211V23.2752Z" fill="url(#paint0_linear_1819_24595)"/>
<path d="M63.3 32L68.7 17.68H71.2L76.62 32H74.2L72.88 28.32H67.04L65.72 32H63.3ZM69.36 21.9L67.78 26.28H72.14L70.56 21.9L70.02 20.26H69.9L69.36 21.9ZM82.2528 32.32C81.3328 32.32 80.4995 32.0933 79.7528 31.64C79.0195 31.1733 78.4328 30.5333 77.9928 29.72C77.5661 28.8933 77.3528 27.9533 77.3528 26.9C77.3528 25.8467 77.5661 24.9133 77.9928 24.1C78.4328 23.2867 79.0195 22.6467 79.7528 22.18C80.4995 21.7133 81.3328 21.48 82.2528 21.48C83.0395 21.48 83.7128 21.6533 84.2728 22C84.8461 22.3467 85.2661 22.74 85.5328 23.18H85.6528L85.5328 21.76V17.68H87.6728V32H85.6528V30.64H85.5328C85.2661 31.08 84.8461 31.4733 84.2728 31.82C83.7128 32.1533 83.0395 32.32 82.2528 32.32ZM82.5728 30.34C83.1061 30.34 83.6061 30.2 84.0728 29.92C84.5528 29.64 84.9328 29.2467 85.2128 28.74C85.5061 28.22 85.6528 27.6067 85.6528 26.9C85.6528 26.1933 85.5061 25.5867 85.2128 25.08C84.9328 24.56 84.5528 24.16 84.0728 23.88C83.6061 23.6 83.1061 23.46 82.5728 23.46C82.0395 23.46 81.5395 23.6 81.0728 23.88C80.6061 24.16 80.2261 24.56 79.9328 25.08C79.6395 25.5867 79.4928 26.1933 79.4928 26.9C79.4928 27.6067 79.6395 28.22 79.9328 28.74C80.2261 29.2467 80.6061 29.64 81.0728 29.92C81.5395 30.2 82.0395 30.34 82.5728 30.34ZM91.457 20.3C91.057 20.3 90.7104 20.16 90.417 19.88C90.137 19.5867 89.997 19.24 89.997 18.84C89.997 18.44 90.137 18.1 90.417 17.82C90.7104 17.54 91.057 17.4 91.457 17.4C91.857 17.4 92.197 17.54 92.477 17.82C92.7704 18.1 92.917 18.44 92.917 18.84C92.917 19.24 92.7704 19.5867 92.477 19.88C92.197 20.16 91.857 20.3 91.457 20.3ZM90.377 32V21.8H92.537V32H90.377ZM99.8394 32.32C98.8127 32.32 97.906 32.0867 97.1194 31.62C96.3327 31.1533 95.7127 30.5133 95.2594 29.7C94.806 28.8733 94.5794 27.94 94.5794 26.9C94.5794 25.86 94.806 24.9333 95.2594 24.12C95.7127 23.2933 96.3327 22.6467 97.1194 22.18C97.906 21.7133 98.8127 21.48 99.8394 21.48C100.973 21.48 101.926 21.7333 102.699 22.24C103.486 22.7467 104.046 23.4333 104.379 24.3L102.419 25.1C101.953 24.0067 101.079 23.46 99.7994 23.46C99.2394 23.46 98.726 23.6067 98.2594 23.9C97.7927 24.18 97.4194 24.58 97.1394 25.1C96.8594 25.6067 96.7194 26.2067 96.7194 26.9C96.7194 27.5933 96.8594 28.2 97.1394 28.72C97.4194 29.24 97.7927 29.64 98.2594 29.92C98.726 30.2 99.2394 30.34 99.7994 30.34C100.453 30.34 101.006 30.1933 101.459 29.9C101.913 29.5933 102.266 29.18 102.519 28.66L104.439 29.5C104.079 30.3133 103.506 30.9867 102.719 31.52C101.933 32.0533 100.973 32.32 99.8394 32.32ZM107.531 20.3C107.131 20.3 106.785 20.16 106.491 19.88C106.211 19.5867 106.071 19.24 106.071 18.84C106.071 18.44 106.211 18.1 106.491 17.82C106.785 17.54 107.131 17.4 107.531 17.4C107.931 17.4 108.271 17.54 108.551 17.82C108.845 18.1 108.991 18.44 108.991 18.84C108.991 19.24 108.845 19.5867 108.551 19.88C108.271 20.16 107.931 20.3 107.531 20.3ZM106.451 32V21.8H108.611V32H106.451ZM115.994 32.32C114.94 32.32 114.014 32.08 113.214 31.6C112.414 31.12 111.787 30.4733 111.334 29.66C110.88 28.8467 110.654 27.9267 110.654 26.9C110.654 25.8867 110.88 24.9733 111.334 24.16C111.787 23.3333 112.414 22.68 113.214 22.2C114.014 21.72 114.94 21.48 115.994 21.48C117.034 21.48 117.954 21.72 118.754 22.2C119.554 22.68 120.18 23.3333 120.634 24.16C121.087 24.9733 121.314 25.8867 121.314 26.9C121.314 27.9267 121.087 28.8467 120.634 29.66C120.18 30.4733 119.554 31.12 118.754 31.6C117.954 32.08 117.034 32.32 115.994 32.32ZM115.994 30.34C116.554 30.34 117.074 30.2067 117.554 29.94C118.034 29.66 118.42 29.2667 118.714 28.76C119.02 28.24 119.174 27.62 119.174 26.9C119.174 26.18 119.02 25.5667 118.714 25.06C118.42 24.54 118.034 24.1467 117.554 23.88C117.074 23.6 116.554 23.46 115.994 23.46C115.434 23.46 114.907 23.6 114.414 23.88C113.934 24.1467 113.54 24.54 113.234 25.06C112.94 25.5667 112.794 26.18 112.794 26.9C112.794 27.62 112.94 28.24 113.234 28.76C113.54 29.2667 113.934 29.66 114.414 29.94C114.907 30.2067 115.434 30.34 115.994 30.34ZM123.108 32V21.8H125.148V23.2H125.268C125.561 22.7067 125.994 22.3 126.568 21.98C127.154 21.6467 127.794 21.48 128.488 21.48C129.741 21.48 130.681 21.8533 131.308 22.6C131.934 23.3467 132.248 24.3333 132.248 25.56V32H130.108V25.84C130.108 25.0133 129.901 24.4133 129.488 24.04C129.074 23.6533 128.534 23.46 127.868 23.46C127.348 23.46 126.894 23.6067 126.508 23.9C126.121 24.18 125.814 24.5533 125.588 25.02C125.374 25.4867 125.268 25.9867 125.268 26.52V32H123.108ZM137.812 32.32C137.078 32.32 136.425 32.18 135.852 31.9C135.278 31.6067 134.832 31.2 134.512 30.68C134.192 30.16 134.032 29.5667 134.032 28.9C134.032 28.18 134.218 27.5667 134.592 27.06C134.978 26.54 135.492 26.1467 136.132 25.88C136.772 25.6133 137.478 25.48 138.252 25.48C138.892 25.48 139.452 25.54 139.932 25.66C140.425 25.78 140.798 25.9067 141.052 26.04V25.5C141.052 24.8333 140.812 24.3 140.332 23.9C139.852 23.5 139.232 23.3 138.472 23.3C137.952 23.3 137.458 23.42 136.992 23.66C136.525 23.8867 136.152 24.2 135.872 24.6L134.392 23.46C134.832 22.8467 135.412 22.3667 136.132 22.02C136.865 21.66 137.665 21.48 138.532 21.48C140.012 21.48 141.152 21.8467 141.952 22.58C142.752 23.3 143.152 24.3133 143.152 25.62V32H141.052V30.74H140.932C140.665 31.1533 140.265 31.52 139.732 31.84C139.198 32.16 138.558 32.32 137.812 32.32ZM138.192 30.56C138.752 30.56 139.245 30.4267 139.672 30.16C140.098 29.8933 140.432 29.5467 140.672 29.12C140.925 28.68 141.052 28.2067 141.052 27.7C140.745 27.5267 140.385 27.3867 139.972 27.28C139.558 27.16 139.118 27.1 138.652 27.1C137.772 27.1 137.145 27.28 136.772 27.64C136.398 27.9867 136.212 28.4133 136.212 28.92C136.212 29.4 136.392 29.7933 136.752 30.1C137.112 30.4067 137.592 30.56 138.192 30.56ZM145.53 32V21.8H147.57V23.3H147.69C147.916 22.78 148.303 22.3533 148.85 22.02C149.41 21.6733 150.01 21.5 150.65 21.5C150.93 21.5 151.163 21.52 151.35 21.56C151.55 21.6 151.73 21.6467 151.89 21.7V23.94C151.636 23.8333 151.376 23.7467 151.11 23.68C150.856 23.6133 150.59 23.58 150.31 23.58C149.803 23.58 149.35 23.72 148.95 24C148.563 24.2667 148.256 24.6333 148.03 25.1C147.803 25.5533 147.69 26.0533 147.69 26.6V32H145.53ZM161.425 32.32C160.692 32.32 160.038 32.18 159.465 31.9C158.892 31.6067 158.445 31.2 158.125 30.68C157.805 30.16 157.645 29.5667 157.645 28.9C157.645 28.18 157.832 27.5667 158.205 27.06C158.592 26.54 159.105 26.1467 159.745 25.88C160.385 25.6133 161.092 25.48 161.865 25.48C162.505 25.48 163.065 25.54 163.545 25.66C164.038 25.78 164.412 25.9067 164.665 26.04V25.5C164.665 24.8333 164.425 24.3 163.945 23.9C163.465 23.5 162.845 23.3 162.085 23.3C161.565 23.3 161.072 23.42 160.605 23.66C160.138 23.8867 159.765 24.2 159.485 24.6L158.005 23.46C158.445 22.8467 159.025 22.3667 159.745 22.02C160.478 21.66 161.278 21.48 162.145 21.48C163.625 21.48 164.765 21.8467 165.565 22.58C166.365 23.3 166.765 24.3133 166.765 25.62V32H164.665V30.74H164.545C164.278 31.1533 163.878 31.52 163.345 31.84C162.812 32.16 162.172 32.32 161.425 32.32ZM161.805 30.56C162.365 30.56 162.858 30.4267 163.285 30.16C163.712 29.8933 164.045 29.5467 164.285 29.12C164.538 28.68 164.665 28.2067 164.665 27.7C164.358 27.5267 163.998 27.3867 163.585 27.28C163.172 27.16 162.732 27.1 162.265 27.1C161.385 27.1 160.758 27.28 160.385 27.64C160.012 27.9867 159.825 28.4133 159.825 28.92C159.825 29.4 160.005 29.7933 160.365 30.1C160.725 30.4067 161.205 30.56 161.805 30.56Z" fill="white"/>
<path d="M181.36 32.32C180.307 32.32 179.327 32.1333 178.42 31.76C177.513 31.3733 176.72 30.84 176.04 30.16C175.373 29.48 174.847 28.6867 174.46 27.78C174.087 26.8733 173.9 25.8933 173.9 24.84C173.9 23.7867 174.087 22.8067 174.46 21.9C174.847 20.9933 175.373 20.2 176.04 19.52C176.72 18.84 177.513 18.3133 178.42 17.94C179.327 17.5533 180.307 17.36 181.36 17.36C182.48 17.36 183.48 17.5667 184.36 17.98C185.24 18.38 186.007 18.9533 186.66 19.7L185.12 21.2C184.64 20.6267 184.093 20.1933 183.48 19.9C182.88 19.5933 182.18 19.44 181.38 19.44C180.42 19.44 179.54 19.6667 178.74 20.12C177.94 20.56 177.3 21.1867 176.82 22C176.353 22.8 176.12 23.7467 176.12 24.84C176.12 25.9333 176.353 26.8867 176.82 27.7C177.3 28.5 177.94 29.1267 178.74 29.58C179.54 30.02 180.42 30.24 181.38 30.24C182.247 30.24 183.013 30.06 183.68 29.7C184.36 29.34 184.96 28.8467 185.48 28.22L187.06 29.74C186.393 30.5267 185.573 31.1533 184.6 31.62C183.64 32.0867 182.56 32.32 181.36 32.32ZM191.972 32.32C191.238 32.32 190.585 32.18 190.012 31.9C189.438 31.6067 188.992 31.2 188.672 30.68C188.352 30.16 188.192 29.5667 188.192 28.9C188.192 28.18 188.378 27.5667 188.752 27.06C189.138 26.54 189.652 26.1467 190.292 25.88C190.932 25.6133 191.638 25.48 192.412 25.48C193.052 25.48 193.612 25.54 194.092 25.66C194.585 25.78 194.958 25.9067 195.212 26.04V25.5C195.212 24.8333 194.972 24.3 194.492 23.9C194.012 23.5 193.392 23.3 192.632 23.3C192.112 23.3 191.618 23.42 191.152 23.66C190.685 23.8867 190.312 24.2 190.032 24.6L188.552 23.46C188.992 22.8467 189.572 22.3667 190.292 22.02C191.025 21.66 191.825 21.48 192.692 21.48C194.172 21.48 195.312 21.8467 196.112 22.58C196.912 23.3 197.312 24.3133 197.312 25.62V32H195.212V30.74H195.092C194.825 31.1533 194.425 31.52 193.892 31.84C193.358 32.16 192.718 32.32 191.972 32.32ZM192.352 30.56C192.912 30.56 193.405 30.4267 193.832 30.16C194.258 29.8933 194.592 29.5467 194.832 29.12C195.085 28.68 195.212 28.2067 195.212 27.7C194.905 27.5267 194.545 27.3867 194.132 27.28C193.718 27.16 193.278 27.1 192.812 27.1C191.932 27.1 191.305 27.28 190.932 27.64C190.558 27.9867 190.372 28.4133 190.372 28.92C190.372 29.4 190.552 29.7933 190.912 30.1C191.272 30.4067 191.752 30.56 192.352 30.56ZM208.87 29.04V23.68H207.09V21.8H208.87V18.92H211.03V21.8H213.53V23.68H211.03V28.58C211.03 29.0867 211.13 29.4733 211.33 29.74C211.543 30.0067 211.896 30.14 212.39 30.14C212.643 30.14 212.856 30.1067 213.03 30.04C213.216 29.9733 213.403 29.88 213.59 29.76V31.86C213.363 31.9533 213.123 32.0267 212.87 32.08C212.616 32.1333 212.323 32.16 211.99 32.16C211.03 32.16 210.27 31.8867 209.71 31.34C209.15 30.78 208.87 30.0133 208.87 29.04ZM199.69 32V21.8H201.73V23.3H201.85C202.116 22.74 202.53 22.3067 203.09 22C203.65 21.68 204.256 21.52 204.91 21.52C205.283 21.52 205.563 21.5467 205.75 21.6V23.76C205.456 23.6667 205.096 23.62 204.67 23.62C203.816 23.62 203.13 23.8933 202.61 24.44C202.103 24.9867 201.85 25.7267 201.85 26.66V32H199.69ZM219.897 32.32C218.897 32.32 218.003 32.0867 217.217 31.62C216.43 31.1533 215.81 30.5133 215.357 29.7C214.917 28.8867 214.697 27.96 214.697 26.92C214.697 25.9467 214.91 25.0467 215.337 24.22C215.763 23.3933 216.357 22.7333 217.117 22.24C217.89 21.7333 218.777 21.48 219.777 21.48C220.83 21.48 221.723 21.7067 222.457 22.16C223.203 22.6133 223.77 23.2333 224.157 24.02C224.543 24.8067 224.737 25.6933 224.737 26.68C224.737 26.8267 224.73 26.96 224.717 27.08C224.717 27.2 224.71 27.2933 224.697 27.36H216.817C216.923 28.3733 217.277 29.1333 217.877 29.64C218.49 30.1467 219.183 30.4 219.957 30.4C220.65 30.4 221.223 30.2467 221.677 29.94C222.13 29.62 222.49 29.2267 222.757 28.76L224.537 29.62C224.097 30.42 223.497 31.0733 222.737 31.58C221.977 32.0733 221.03 32.32 219.897 32.32ZM219.797 23.32C219.077 23.32 218.463 23.54 217.957 23.98C217.45 24.42 217.11 25.0067 216.937 25.74H222.597C222.57 25.3933 222.457 25.0333 222.257 24.66C222.057 24.2867 221.75 23.9733 221.337 23.72C220.937 23.4533 220.423 23.32 219.797 23.32ZM227.98 20.3C227.58 20.3 227.234 20.16 226.94 19.88C226.66 19.5867 226.52 19.24 226.52 18.84C226.52 18.44 226.66 18.1 226.94 17.82C227.234 17.54 227.58 17.4 227.98 17.4C228.38 17.4 228.72 17.54 229 17.82C229.294 18.1 229.44 18.44 229.44 18.84C229.44 19.24 229.294 19.5867 229 19.88C228.72 20.16 228.38 20.3 227.98 20.3ZM226.9 32V21.8H229.06V32H226.9ZM231.74 32V21.8H233.78V23.3H233.9C234.127 22.78 234.514 22.3533 235.06 22.02C235.62 21.6733 236.22 21.5 236.86 21.5C237.14 21.5 237.374 21.52 237.56 21.56C237.76 21.6 237.94 21.6467 238.1 21.7V23.94C237.847 23.8333 237.587 23.7467 237.32 23.68C237.067 23.6133 236.8 23.58 236.52 23.58C236.014 23.58 235.56 23.72 235.16 24C234.774 24.2667 234.467 24.6333 234.24 25.1C234.014 25.5533 233.9 26.0533 233.9 26.6V32H231.74ZM242.616 32.32C241.883 32.32 241.23 32.18 240.656 31.9C240.083 31.6067 239.636 31.2 239.316 30.68C238.996 30.16 238.836 29.5667 238.836 28.9C238.836 28.18 239.023 27.5667 239.396 27.06C239.783 26.54 240.296 26.1467 240.936 25.88C241.576 25.6133 242.283 25.48 243.056 25.48C243.696 25.48 244.256 25.54 244.736 25.66C245.23 25.78 245.603 25.9067 245.856 26.04V25.5C245.856 24.8333 245.616 24.3 245.136 23.9C244.656 23.5 244.036 23.3 243.276 23.3C242.756 23.3 242.263 23.42 241.796 23.66C241.33 23.8867 240.956 24.2 240.676 24.6L239.196 23.46C239.636 22.8467 240.216 22.3667 240.936 22.02C241.67 21.66 242.47 21.48 243.336 21.48C244.816 21.48 245.956 21.8467 246.756 22.58C247.556 23.3 247.956 24.3133 247.956 25.62V32H245.856V30.74H245.736C245.47 31.1533 245.07 31.52 244.536 31.84C244.003 32.16 243.363 32.32 242.616 32.32ZM242.996 30.56C243.556 30.56 244.05 30.4267 244.476 30.16C244.903 29.8933 245.236 29.5467 245.476 29.12C245.73 28.68 245.856 28.2067 245.856 27.7C245.55 27.5267 245.19 27.3867 244.776 27.28C244.363 27.16 243.923 27.1 243.456 27.1C242.576 27.1 241.95 27.28 241.576 27.64C241.203 27.9867 241.016 28.4133 241.016 28.92C241.016 29.4 241.196 29.7933 241.556 30.1C241.916 30.4067 242.396 30.56 242.996 30.56ZM259.362 32.32C258.442 32.32 257.609 32.0933 256.862 31.64C256.129 31.1733 255.542 30.5333 255.102 29.72C254.676 28.8933 254.462 27.9533 254.462 26.9C254.462 25.8467 254.676 24.9133 255.102 24.1C255.542 23.2867 256.129 22.6467 256.862 22.18C257.609 21.7133 258.442 21.48 259.362 21.48C260.149 21.48 260.822 21.6533 261.382 22C261.956 22.3467 262.376 22.74 262.642 23.18H262.762L262.642 21.76V17.68H264.782V32H262.762V30.64H262.642C262.376 31.08 261.956 31.4733 261.382 31.82C260.822 32.1533 260.149 32.32 259.362 32.32ZM259.682 30.34C260.216 30.34 260.716 30.2 261.182 29.92C261.662 29.64 262.042 29.2467 262.322 28.74C262.616 28.22 262.762 27.6067 262.762 26.9C262.762 26.1933 262.616 25.5867 262.322 25.08C262.042 24.56 261.662 24.16 261.182 23.88C260.716 23.6 260.216 23.46 259.682 23.46C259.149 23.46 258.649 23.6 258.182 23.88C257.716 24.16 257.336 24.56 257.042 25.08C256.749 25.5867 256.602 26.1933 256.602 26.9C256.602 27.6067 256.749 28.22 257.042 28.74C257.336 29.2467 257.716 29.64 258.182 29.92C258.649 30.2 259.149 30.34 259.682 30.34ZM272.029 32.32C270.975 32.32 270.049 32.08 269.249 31.6C268.449 31.12 267.822 30.4733 267.369 29.66C266.915 28.8467 266.689 27.9267 266.689 26.9C266.689 25.8867 266.915 24.9733 267.369 24.16C267.822 23.3333 268.449 22.68 269.249 22.2C270.049 21.72 270.975 21.48 272.029 21.48C273.069 21.48 273.989 21.72 274.789 22.2C275.589 22.68 276.215 23.3333 276.669 24.16C277.122 24.9733 277.349 25.8867 277.349 26.9C277.349 27.9267 277.122 28.8467 276.669 29.66C276.215 30.4733 275.589 31.12 274.789 31.6C273.989 32.08 273.069 32.32 272.029 32.32ZM272.029 30.34C272.589 30.34 273.109 30.2067 273.589 29.94C274.069 29.66 274.455 29.2667 274.749 28.76C275.055 28.24 275.209 27.62 275.209 26.9C275.209 26.18 275.055 25.5667 274.749 25.06C274.455 24.54 274.069 24.1467 273.589 23.88C273.109 23.6 272.589 23.46 272.029 23.46C271.469 23.46 270.942 23.6 270.449 23.88C269.969 24.1467 269.575 24.54 269.269 25.06C268.975 25.5667 268.829 26.18 268.829 26.9C268.829 27.62 268.975 28.24 269.269 28.76C269.575 29.2667 269.969 29.66 270.449 29.94C270.942 30.2067 271.469 30.34 272.029 30.34ZM290.755 32.32C289.729 32.32 288.762 32.1333 287.855 31.76C286.962 31.3867 286.169 30.8667 285.475 30.2C284.782 29.52 284.235 28.7267 283.835 27.82C283.449 26.9 283.255 25.9067 283.255 24.84C283.255 23.7733 283.449 22.7867 283.835 21.88C284.235 20.96 284.775 20.1667 285.455 19.5C286.149 18.82 286.949 18.2933 287.855 17.92C288.762 17.5467 289.729 17.36 290.755 17.36C291.849 17.36 292.855 17.5533 293.775 17.94C294.709 18.3267 295.489 18.8667 296.115 19.56L294.595 21.06C294.129 20.54 293.569 20.14 292.915 19.86C292.275 19.58 291.555 19.44 290.755 19.44C289.809 19.44 288.935 19.6667 288.135 20.12C287.335 20.56 286.689 21.1867 286.195 22C285.715 22.8 285.475 23.7467 285.475 24.84C285.475 25.9333 285.722 26.8867 286.215 27.7C286.709 28.5 287.355 29.1267 288.155 29.58C288.955 30.02 289.829 30.24 290.775 30.24C291.642 30.24 292.429 30.08 293.135 29.76C293.842 29.4267 294.409 28.96 294.835 28.36C295.275 27.76 295.542 27.04 295.635 26.2H290.735V24.26H297.695C297.775 24.62 297.815 25 297.815 25.4V25.42C297.815 26.8067 297.509 28.02 296.895 29.06C296.295 30.0867 295.462 30.8867 294.395 31.46C293.329 32.0333 292.115 32.32 290.755 32.32ZM304.255 32.32C303.202 32.32 302.275 32.08 301.475 31.6C300.675 31.12 300.049 30.4733 299.595 29.66C299.142 28.8467 298.915 27.9267 298.915 26.9C298.915 25.8867 299.142 24.9733 299.595 24.16C300.049 23.3333 300.675 22.68 301.475 22.2C302.275 21.72 303.202 21.48 304.255 21.48C305.295 21.48 306.215 21.72 307.015 22.2C307.815 22.68 308.442 23.3333 308.895 24.16C309.349 24.9733 309.575 25.8867 309.575 26.9C309.575 27.9267 309.349 28.8467 308.895 29.66C308.442 30.4733 307.815 31.12 307.015 31.6C306.215 32.08 305.295 32.32 304.255 32.32ZM304.255 30.34C304.815 30.34 305.335 30.2067 305.815 29.94C306.295 29.66 306.682 29.2667 306.975 28.76C307.282 28.24 307.435 27.62 307.435 26.9C307.435 26.18 307.282 25.5667 306.975 25.06C306.682 24.54 306.295 24.1467 305.815 23.88C305.335 23.6 304.815 23.46 304.255 23.46C303.695 23.46 303.169 23.6 302.675 23.88C302.195 24.1467 301.802 24.54 301.495 25.06C301.202 25.5667 301.055 26.18 301.055 26.9C301.055 27.62 301.202 28.24 301.495 28.76C301.802 29.2667 302.195 29.66 302.675 29.94C303.169 30.2067 303.695 30.34 304.255 30.34ZM316.365 32.32C315.311 32.32 314.385 32.08 313.585 31.6C312.785 31.12 312.158 30.4733 311.705 29.66C311.251 28.8467 311.025 27.9267 311.025 26.9C311.025 25.8867 311.251 24.9733 311.705 24.16C312.158 23.3333 312.785 22.68 313.585 22.2C314.385 21.72 315.311 21.48 316.365 21.48C317.405 21.48 318.325 21.72 319.125 22.2C319.925 22.68 320.551 23.3333 321.005 24.16C321.458 24.9733 321.685 25.8867 321.685 26.9C321.685 27.9267 321.458 28.8467 321.005 29.66C320.551 30.4733 319.925 31.12 319.125 31.6C318.325 32.08 317.405 32.32 316.365 32.32ZM316.365 30.34C316.925 30.34 317.445 30.2067 317.925 29.94C318.405 29.66 318.791 29.2667 319.085 28.76C319.391 28.24 319.545 27.62 319.545 26.9C319.545 26.18 319.391 25.5667 319.085 25.06C318.791 24.54 318.405 24.1467 317.925 23.88C317.445 23.6 316.925 23.46 316.365 23.46C315.805 23.46 315.278 23.6 314.785 23.88C314.305 24.1467 313.911 24.54 313.605 25.06C313.311 25.5667 313.165 26.18 313.165 26.9C313.165 27.62 313.311 28.24 313.605 28.76C313.911 29.2667 314.305 29.66 314.785 29.94C315.278 30.2067 315.805 30.34 316.365 30.34ZM328.274 36.64C327.381 36.64 326.607 36.4933 325.954 36.2C325.314 35.92 324.794 35.5533 324.394 35.1C323.994 34.66 323.707 34.2067 323.534 33.74L325.534 32.9C325.747 33.4333 326.087 33.8667 326.554 34.2C327.034 34.5467 327.607 34.72 328.274 34.72C329.207 34.72 329.941 34.44 330.474 33.88C331.021 33.32 331.294 32.5267 331.294 31.5V30.52H331.174C330.854 31 330.407 31.3867 329.834 31.68C329.274 31.96 328.634 32.1 327.914 32.1C327.047 32.1 326.254 31.88 325.534 31.44C324.814 31 324.234 30.3867 323.794 29.6C323.354 28.8 323.134 27.8667 323.134 26.8C323.134 25.72 323.354 24.7867 323.794 24C324.234 23.2 324.814 22.58 325.534 22.14C326.254 21.7 327.047 21.48 327.914 21.48C328.634 21.48 329.274 21.6267 329.834 21.92C330.407 22.2133 330.854 22.6 331.174 23.08H331.294V21.8H333.354V31.46C333.354 32.5667 333.134 33.5067 332.694 34.28C332.267 35.0533 331.674 35.64 330.914 36.04C330.154 36.44 329.274 36.64 328.274 36.64ZM328.294 30.14C328.827 30.14 329.321 30.0133 329.774 29.76C330.227 29.4933 330.594 29.1133 330.874 28.62C331.154 28.1133 331.294 27.5067 331.294 26.8C331.294 26.0667 331.154 25.4533 330.874 24.96C330.594 24.4533 330.227 24.0733 329.774 23.82C329.321 23.5667 328.827 23.44 328.294 23.44C327.761 23.44 327.261 23.5733 326.794 23.84C326.341 24.0933 325.974 24.4667 325.694 24.96C325.414 25.4533 325.274 26.0667 325.274 26.8C325.274 27.52 325.414 28.1333 325.694 28.64C325.974 29.1333 326.341 29.5067 326.794 29.76C327.261 30.0133 327.761 30.14 328.294 30.14ZM335.901 32V17.68H338.061V32H335.901ZM345.17 32.32C344.17 32.32 343.277 32.0867 342.49 31.62C341.703 31.1533 341.083 30.5133 340.63 29.7C340.19 28.8867 339.97 27.96 339.97 26.92C339.97 25.9467 340.183 25.0467 340.61 24.22C341.037 23.3933 341.63 22.7333 342.39 22.24C343.163 21.7333 344.05 21.48 345.05 21.48C346.103 21.48 346.997 21.7067 347.73 22.16C348.477 22.6133 349.043 23.2333 349.43 24.02C349.817 24.8067 350.01 25.6933 350.01 26.68C350.01 26.8267 350.003 26.96 349.99 27.08C349.99 27.2 349.983 27.2933 349.97 27.36H342.09C342.197 28.3733 342.55 29.1333 343.15 29.64C343.763 30.1467 344.457 30.4 345.23 30.4C345.923 30.4 346.497 30.2467 346.95 29.94C347.403 29.62 347.763 29.2267 348.03 28.76L349.81 29.62C349.37 30.42 348.77 31.0733 348.01 31.58C347.25 32.0733 346.303 32.32 345.17 32.32ZM345.07 23.32C344.35 23.32 343.737 23.54 343.23 23.98C342.723 24.42 342.383 25.0067 342.21 25.74H347.87C347.843 25.3933 347.73 25.0333 347.53 24.66C347.33 24.2867 347.023 23.9733 346.61 23.72C346.21 23.4533 345.697 23.32 345.07 23.32Z" fill="white"/>
<rect x="0.5" y="0.5" width="371" height="49" rx="24.5" stroke="#747775"/>
<defs>
<linearGradient id="paint0_linear_1819_24595" x1="34.5703" y1="30.7864" x2="18.7309" y2="48.9133" gradientUnits="userSpaceOnUse">
<stop stop-color="#4285F4"/>
<stop offset="1" stop-color="#1B74E8"/>
</linearGradient>
</defs>
</svg>
