<svg width="311" height="50" viewBox="0 0 311 50" fill="none" xmlns="http://www.w3.org/2000/svg">
<rect x="0.5" y="0.5" width="310" height="49" rx="24.5" fill="#1F1F1F"/>
<rect x="0.5" y="0.5" width="310" height="49" rx="24.5" stroke="#747775"/>
<path d="M51 22H21V17C21 14.2857 23.2018 12 25.8165 12H46.1835C48.7982 12 51 14.2857 51 17V22Z" fill="#34A853"/>
<path d="M51 26.0537H21V21.0537C21 18.3394 23.2018 16.0537 25.8165 16.0537H46.1835C48.7982 16.0537 51 18.3394 51 21.0537V26.0537Z" fill="#FBBC04"/>
<path d="M51 30.2471H21V25.2471C21 22.5328 23.2018 20.2471 25.8165 20.2471H46.1835C48.7982 20.2471 51 22.5328 51 25.2471V30.2471Z" fill="#EA4335"/>
<path d="M21 23.2752L40.0411 27.6789C42.2329 28.2294 44.6986 27.6789 46.4795 26.3028L51 23V33.3211C51 35.9358 48.8082 38 46.2055 38H25.7945C23.1918 38 21 35.9358 21 33.3211V23.2752Z" fill="#4285F4"/>
<path d="M71.4 32.32C70.3733 32.32 69.4067 32.1333 68.5 31.76C67.5933 31.3867 66.7933 30.8667 66.1 30.2C65.42 29.52 64.88 28.7267 64.48 27.82C64.0933 26.9 63.9 25.9067 63.9 24.84C63.9 23.7733 64.0933 22.7867 64.48 21.88C64.88 20.96 65.42 20.1667 66.1 19.5C66.7933 18.82 67.5933 18.2933 68.5 17.92C69.4067 17.5467 70.3733 17.36 71.4 17.36C72.4933 17.36 73.5 17.5533 74.42 17.94C75.3533 18.3267 76.1333 18.8667 76.76 19.56L75.24 21.06C74.9333 20.7133 74.58 20.42 74.18 20.18C73.7933 19.94 73.3667 19.76 72.9 19.64C72.4333 19.5067 71.9333 19.44 71.4 19.44C70.6933 19.44 70.02 19.5667 69.38 19.82C68.74 20.0733 68.1733 20.44 67.68 20.92C67.2 21.3867 66.82 21.9533 66.54 22.62C66.26 23.2733 66.12 24.0133 66.12 24.84C66.12 25.6667 66.26 26.4133 66.54 27.08C66.8333 27.7333 67.22 28.3 67.7 28.78C68.1933 29.2467 68.76 29.6067 69.4 29.86C70.04 30.1133 70.7133 30.24 71.42 30.24C72.0733 30.24 72.68 30.1467 73.24 29.96C73.8133 29.7733 74.3133 29.5067 74.74 29.16C75.1667 28.8133 75.5133 28.3933 75.78 27.9C76.0467 27.3933 76.2133 26.8267 76.28 26.2H71.38V24.26H78.34C78.3667 24.42 78.3933 24.6067 78.42 24.82C78.4467 25.02 78.46 25.2133 78.46 25.4V25.42C78.46 26.4467 78.28 27.3867 77.92 28.24C77.5733 29.0933 77.0867 29.8267 76.46 30.44C75.8333 31.04 75.0867 31.5067 74.22 31.84C73.3667 32.16 72.4267 32.32 71.4 32.32ZM84.8998 32.32C83.8465 32.32 82.9198 32.08 82.1198 31.6C81.3198 31.12 80.6932 30.4733 80.2398 29.66C79.7865 28.8333 79.5598 27.9133 79.5598 26.9C79.5598 25.8867 79.7865 24.9733 80.2398 24.16C80.6932 23.3333 81.3198 22.68 82.1198 22.2C82.9198 21.72 83.8465 21.48 84.8998 21.48C85.9398 21.48 86.8598 21.7267 87.6598 22.22C88.4598 22.7 89.0865 23.3467 89.5398 24.16C89.9932 24.9733 90.2198 25.8867 90.2198 26.9C90.2198 27.9133 89.9932 28.8333 89.5398 29.66C89.0865 30.4733 88.4598 31.12 87.6598 31.6C86.8598 32.08 85.9398 32.32 84.8998 32.32ZM84.8998 30.34C85.4598 30.34 85.9798 30.2067 86.4598 29.94C86.9398 29.66 87.3265 29.2667 87.6198 28.76C87.9265 28.24 88.0798 27.62 88.0798 26.9C88.0798 26.18 87.9265 25.5667 87.6198 25.06C87.3265 24.54 86.9398 24.1467 86.4598 23.88C85.9798 23.6 85.4598 23.46 84.8998 23.46C84.3398 23.46 83.8132 23.6 83.3198 23.88C82.8398 24.1467 82.4465 24.54 82.1398 25.06C81.8465 25.5667 81.6998 26.18 81.6998 26.9C81.6998 27.62 81.8465 28.24 82.1398 28.76C82.4465 29.2667 82.8465 29.66 83.3398 29.94C83.8332 30.2067 84.3532 30.34 84.8998 30.34ZM97.0092 32.32C95.9559 32.32 95.0292 32.08 94.2292 31.6C93.4292 31.12 92.8026 30.4733 92.3492 29.66C91.8959 28.8333 91.6692 27.9133 91.6692 26.9C91.6692 25.8867 91.8959 24.9733 92.3492 24.16C92.8026 23.3333 93.4292 22.68 94.2292 22.2C95.0292 21.72 95.9559 21.48 97.0092 21.48C98.0492 21.48 98.9692 21.7267 99.7692 22.22C100.569 22.7 101.196 23.3467 101.649 24.16C102.103 24.9733 102.329 25.8867 102.329 26.9C102.329 27.9133 102.103 28.8333 101.649 29.66C101.196 30.4733 100.569 31.12 99.7692 31.6C98.9692 32.08 98.0492 32.32 97.0092 32.32ZM97.0092 30.34C97.5692 30.34 98.0892 30.2067 98.5692 29.94C99.0492 29.66 99.4359 29.2667 99.7292 28.76C100.036 28.24 100.189 27.62 100.189 26.9C100.189 26.18 100.036 25.5667 99.7292 25.06C99.4359 24.54 99.0492 24.1467 98.5692 23.88C98.0892 23.6 97.5692 23.46 97.0092 23.46C96.4492 23.46 95.9226 23.6 95.4292 23.88C94.9492 24.1467 94.5559 24.54 94.2492 25.06C93.9559 25.5667 93.8092 26.18 93.8092 26.9C93.8092 27.62 93.9559 28.24 94.2492 28.76C94.5559 29.2667 94.9559 29.66 95.4492 29.94C95.9426 30.2067 96.4626 30.34 97.0092 30.34ZM108.919 36.64C108.025 36.64 107.252 36.4933 106.599 36.2C105.959 35.92 105.439 35.5533 105.039 35.1C104.639 34.66 104.352 34.2067 104.179 33.74L106.179 32.9C106.392 33.4333 106.732 33.8667 107.199 34.2C107.679 34.5467 108.252 34.72 108.919 34.72C109.865 34.72 110.605 34.44 111.139 33.88C111.672 33.32 111.939 32.5267 111.939 31.5V30.52H111.819C111.499 30.9867 111.059 31.3667 110.499 31.66C109.939 31.9533 109.292 32.1 108.559 32.1C107.692 32.1 106.892 31.88 106.159 31.44C105.439 31 104.859 30.3867 104.419 29.6C103.992 28.8 103.779 27.8667 103.779 26.8C103.779 25.72 103.992 24.7867 104.419 24C104.859 23.2 105.439 22.58 106.159 22.14C106.892 21.7 107.692 21.48 108.559 21.48C109.292 21.48 109.939 21.6267 110.499 21.92C111.059 22.2 111.499 22.5867 111.819 23.08H111.939V21.8H113.999V31.46C113.999 32.5667 113.779 33.5067 113.339 34.28C112.912 35.0533 112.319 35.64 111.559 36.04C110.799 36.44 109.919 36.64 108.919 36.64ZM108.939 30.14C109.472 30.14 109.965 30.0133 110.419 29.76C110.885 29.4933 111.252 29.1133 111.519 28.62C111.799 28.1133 111.939 27.5067 111.939 26.8C111.939 26.0533 111.799 25.4333 111.519 24.94C111.252 24.4467 110.885 24.0733 110.419 23.82C109.965 23.5667 109.472 23.44 108.939 23.44C108.405 23.44 107.905 23.5667 107.439 23.82C106.985 24.0733 106.619 24.4533 106.339 24.96C106.059 25.4533 105.919 26.0667 105.919 26.8C105.919 27.52 106.059 28.1333 106.339 28.64C106.619 29.1333 106.985 29.5067 107.439 29.76C107.905 30.0133 108.405 30.14 108.939 30.14ZM116.546 32V17.68H118.706V32H116.546ZM125.815 32.32C124.815 32.32 123.921 32.0867 123.135 31.62C122.348 31.1533 121.728 30.5133 121.275 29.7C120.835 28.8867 120.615 27.96 120.615 26.92C120.615 25.9467 120.828 25.0467 121.255 24.22C121.681 23.3933 122.275 22.7333 123.035 22.24C123.808 21.7333 124.695 21.48 125.695 21.48C126.748 21.48 127.641 21.7067 128.375 22.16C129.121 22.6133 129.688 23.2333 130.075 24.02C130.461 24.8067 130.655 25.6933 130.655 26.68C130.655 26.8267 130.648 26.96 130.635 27.08C130.635 27.2 130.628 27.2933 130.615 27.36H122.735C122.788 27.92 122.928 28.4067 123.155 28.82C123.448 29.34 123.835 29.7333 124.315 30C124.795 30.2667 125.315 30.4 125.875 30.4C126.555 30.4 127.121 30.2467 127.575 29.94C128.041 29.62 128.408 29.2267 128.675 28.76L130.455 29.62C130.015 30.42 129.415 31.0733 128.655 31.58C127.895 32.0733 126.948 32.32 125.815 32.32ZM122.855 25.74H128.515C128.501 25.4867 128.435 25.22 128.315 24.94C128.195 24.6467 128.021 24.38 127.795 24.14C127.568 23.9 127.281 23.7067 126.935 23.56C126.588 23.4 126.181 23.32 125.715 23.32C125.128 23.32 124.608 23.4733 124.155 23.78C123.701 24.0733 123.348 24.4867 123.095 25.02C122.988 25.2467 122.908 25.4867 122.855 25.74ZM139.446 32L135.606 17.68H138.046L140.326 26.98L140.566 28.22H140.686L140.986 26.98L143.866 17.68H146.066L148.826 26.98L149.126 28.2H149.246L149.486 26.98L151.766 17.68H154.186L150.406 32H148.086L145.346 22.5L145.026 21.16H144.906L144.566 22.5L141.706 32H139.446ZM158.202 32.32C157.469 32.32 156.816 32.1733 156.242 31.88C155.682 31.5867 155.236 31.1867 154.902 30.68C154.582 30.16 154.422 29.5667 154.422 28.9C154.422 28.1667 154.609 27.5467 154.982 27.04C155.369 26.5333 155.882 26.1467 156.522 25.88C157.162 25.6133 157.869 25.48 158.642 25.48C159.069 25.48 159.462 25.5133 159.822 25.58C160.196 25.6333 160.516 25.7 160.782 25.78C161.062 25.86 161.282 25.9467 161.442 26.04V25.5C161.442 24.8333 161.202 24.3 160.722 23.9C160.242 23.5 159.622 23.3 158.862 23.3C158.342 23.3 157.849 23.42 157.382 23.66C156.916 23.8867 156.542 24.2 156.262 24.6L154.782 23.46C155.076 23.0467 155.429 22.6933 155.842 22.4C156.269 22.1067 156.742 21.88 157.262 21.72C157.796 21.56 158.349 21.48 158.922 21.48C160.402 21.48 161.542 21.8467 162.342 22.58C163.142 23.3 163.542 24.3133 163.542 25.62V32H161.442V30.74H161.322C161.149 31.0067 160.909 31.26 160.602 31.5C160.309 31.74 159.956 31.9333 159.542 32.08C159.142 32.24 158.696 32.32 158.202 32.32ZM158.582 30.56C159.142 30.56 159.636 30.4267 160.062 30.16C160.502 29.8933 160.842 29.5467 161.082 29.12C161.322 28.68 161.442 28.2067 161.442 27.7C161.149 27.5267 160.789 27.3867 160.362 27.28C159.949 27.16 159.509 27.1 159.042 27.1C158.162 27.1 157.536 27.2733 157.162 27.62C156.789 27.9667 156.602 28.4 156.602 28.92C156.602 29.4 156.782 29.7933 157.142 30.1C157.502 30.4067 157.982 30.56 158.582 30.56ZM165.94 32V17.68H168.1V32H165.94ZM170.667 32V17.68H172.827V32H170.667ZM179.936 32.32C178.936 32.32 178.042 32.0867 177.256 31.62C176.469 31.1533 175.849 30.5133 175.396 29.7C174.956 28.8867 174.736 27.96 174.736 26.92C174.736 25.9467 174.949 25.0467 175.376 24.22C175.802 23.3933 176.396 22.7333 177.156 22.24C177.929 21.7333 178.816 21.48 179.816 21.48C180.869 21.48 181.762 21.7067 182.496 22.16C183.242 22.6133 183.809 23.2333 184.196 24.02C184.582 24.8067 184.776 25.6933 184.776 26.68C184.776 26.8267 184.769 26.96 184.756 27.08C184.756 27.2 184.749 27.2933 184.736 27.36H176.856C176.909 27.92 177.049 28.4067 177.276 28.82C177.569 29.34 177.956 29.7333 178.436 30C178.916 30.2667 179.436 30.4 179.996 30.4C180.676 30.4 181.242 30.2467 181.696 29.94C182.162 29.62 182.529 29.2267 182.796 28.76L184.576 29.62C184.136 30.42 183.536 31.0733 182.776 31.58C182.016 32.0733 181.069 32.32 179.936 32.32ZM176.976 25.74H182.636C182.622 25.4867 182.556 25.22 182.436 24.94C182.316 24.6467 182.142 24.38 181.916 24.14C181.689 23.9 181.402 23.7067 181.056 23.56C180.709 23.4 180.302 23.32 179.836 23.32C179.249 23.32 178.729 23.4733 178.276 23.78C177.822 24.0733 177.469 24.4867 177.216 25.02C177.109 25.2467 177.029 25.4867 176.976 25.74ZM185.787 21.8H187.567V18.92H189.727V21.8H192.227V23.68H189.727V28.58C189.727 29.0867 189.827 29.4733 190.027 29.74C190.24 30.0067 190.593 30.14 191.087 30.14C191.327 30.14 191.54 30.1067 191.727 30.04C191.913 29.96 192.1 29.8667 192.287 29.76V31.86C192.06 31.9533 191.82 32.0267 191.567 32.08C191.313 32.1333 191.013 32.16 190.667 32.16C189.72 32.16 188.967 31.8867 188.407 31.34C187.847 30.78 187.567 30.0133 187.567 29.04V23.68H185.787V21.8ZM201.327 29.18C201.047 29.18 200.747 29.0933 200.427 28.92C200.12 28.7333 199.827 28.4933 199.547 28.2C199.267 27.9067 199.04 27.6 198.867 27.28C198.694 26.9467 198.607 26.6267 198.607 26.32C198.607 25.96 198.714 25.6867 198.927 25.5C199.154 25.3133 199.44 25.22 199.787 25.22H200.287V20.34H197.307V18.7H210.487V20.34H208.687V32H206.687V26.98H202.267V28.16C202.267 28.4667 202.18 28.7133 202.007 28.9C201.847 29.0867 201.62 29.18 201.327 29.18ZM206.687 25.22V20.34H202.267V25.22H206.687ZM211.99 32V20.34H209.69V18.7H215.79V20.34H213.99V32H211.99ZM227.151 35.5C226.057 35.1667 225.097 34.72 224.271 34.16C223.457 33.6133 222.824 32.98 222.371 32.26C221.917 31.54 221.691 30.7533 221.691 29.9C221.691 28.7 222.124 27.7133 222.991 26.94V26.84C222.457 26.6133 222.037 26.2933 221.731 25.88C221.437 25.4533 221.291 24.9733 221.291 24.44C221.291 23.6533 221.564 23.0333 222.111 22.58C222.671 22.1133 223.424 21.88 224.371 21.88H227.711V20.34H219.651V18.7H231.651V20.34H229.631V23.6H224.591C224.191 23.6 223.871 23.7 223.631 23.9C223.404 24.0867 223.291 24.34 223.291 24.66C223.291 24.9933 223.404 25.2533 223.631 25.44C223.871 25.6133 224.191 25.7 224.591 25.7H225.991C226.897 25.7 227.684 25.86 228.351 26.18C229.031 26.4867 229.551 26.92 229.911 27.48C230.284 28.0267 230.471 28.68 230.471 29.44C230.471 30.5333 230.064 31.5067 229.251 32.36L227.691 31.14C227.931 30.8867 228.117 30.6267 228.251 30.36C228.384 30.08 228.451 29.7867 228.451 29.48C228.451 28.9067 228.244 28.4467 227.831 28.1C227.417 27.74 226.864 27.56 226.171 27.56C225.411 27.56 224.811 27.7733 224.371 28.2C223.931 28.6267 223.711 29.2 223.711 29.92C223.711 30.8267 224.077 31.5933 224.811 32.22C225.544 32.86 226.544 33.36 227.811 33.72L227.151 35.5ZM233.142 32V20.34H230.842V18.7H236.942V20.34H235.142V32H233.142ZM241.195 32.32C240.088 31.4533 239.235 30.5267 238.635 29.54C238.048 28.5533 237.755 27.5133 237.755 26.42C237.755 25.62 237.902 24.92 238.195 24.32C238.488 23.72 238.902 23.2533 239.435 22.92C239.968 22.5733 240.588 22.4 241.295 22.4C241.882 22.4 242.402 22.5133 242.855 22.74C243.322 22.9667 243.708 23.3 244.015 23.74H244.135C244.442 23.3133 244.808 22.9867 245.235 22.76C245.662 22.52 246.182 22.4 246.795 22.4C247.462 22.4 248.048 22.5667 248.555 22.9C249.075 23.2333 249.535 23.72 249.935 24.36L248.615 25.34C248.388 24.9667 248.142 24.6933 247.875 24.52C247.608 24.3467 247.282 24.26 246.895 24.26C246.388 24.26 245.995 24.42 245.715 24.74C245.448 25.06 245.315 25.52 245.315 26.12V28.12H243.315V26.12C243.315 25.5333 243.168 25.08 242.875 24.76C242.582 24.4267 242.168 24.26 241.635 24.26C241.062 24.26 240.615 24.4533 240.295 24.84C239.975 25.2133 239.815 25.74 239.815 26.42C239.815 27.22 240.042 27.9867 240.495 28.72C240.948 29.44 241.608 30.1333 242.475 30.8L241.195 32.32ZM236.135 20.34V18.7H247.435V20.34H236.135ZM250.543 28.12C250.25 28.12 249.936 28.0267 249.603 27.84C249.27 27.64 248.956 27.3867 248.663 27.08C248.383 26.7733 248.15 26.4467 247.963 26.1C247.79 25.74 247.703 25.4067 247.703 25.1C247.703 24.7533 247.81 24.4867 248.023 24.3C248.236 24.1 248.523 24 248.883 24H255.223V20.34H246.643V18.7H259.023V20.34H257.223V32H255.223V25.76H251.503V27.08C251.503 27.4 251.416 27.6533 251.243 27.84C251.083 28.0267 250.85 28.12 250.543 28.12ZM255.646 37.64C254.473 37.64 253.4 37.3333 252.426 36.72C251.466 36.12 250.593 35.2 249.806 33.96L251.386 32.92C252.053 33.8933 252.72 34.6133 253.386 35.08C254.053 35.56 254.793 35.8 255.606 35.8C256.126 35.8 256.54 35.68 256.846 35.44C257.166 35.2 257.326 34.8867 257.326 34.5C257.326 34.14 257.22 33.8533 257.006 33.64C256.793 33.4267 256.5 33.32 256.126 33.32C255.62 33.32 255.086 33.5533 254.526 34.02L253.346 32.62C254.186 31.9133 255.113 31.56 256.126 31.56C256.78 31.56 257.346 31.6933 257.826 31.96C258.32 32.2133 258.7 32.56 258.966 33C259.246 33.4533 259.386 33.9667 259.386 34.54C259.386 35.4733 259.046 36.22 258.366 36.78C257.686 37.3533 256.78 37.64 255.646 37.64ZM265.725 35.5C264.632 35.1667 263.672 34.72 262.845 34.16C262.032 33.6133 261.398 32.98 260.945 32.26C260.492 31.54 260.265 30.7533 260.265 29.9C260.265 28.7 260.698 27.7133 261.565 26.94V26.84C261.032 26.6133 260.612 26.2933 260.305 25.88C260.012 25.4533 259.865 24.9733 259.865 24.44C259.865 23.6533 260.138 23.0333 260.685 22.58C261.245 22.1133 261.998 21.88 262.945 21.88H266.285V20.34H258.225V18.7H270.225V20.34H268.205V23.6H263.165C262.765 23.6 262.445 23.7 262.205 23.9C261.978 24.0867 261.865 24.34 261.865 24.66C261.865 24.9933 261.978 25.2533 262.205 25.44C262.445 25.6133 262.765 25.7 263.165 25.7H264.565C265.472 25.7 266.258 25.86 266.925 26.18C267.605 26.4867 268.125 26.92 268.485 27.48C268.858 28.0267 269.045 28.68 269.045 29.44C269.045 30.5333 268.638 31.5067 267.825 32.36L266.265 31.14C266.505 30.8867 266.692 30.6267 266.825 30.36C266.958 30.08 267.025 29.7867 267.025 29.48C267.025 28.9067 266.818 28.4467 266.405 28.1C265.992 27.74 265.438 27.56 264.745 27.56C263.985 27.56 263.385 27.7733 262.945 28.2C262.505 28.6267 262.285 29.2 262.285 29.92C262.285 30.8267 262.652 31.5933 263.385 32.22C264.118 32.86 265.118 33.36 266.385 33.72L265.725 35.5ZM271.716 32V20.34H269.416V18.7H271.556L270.636 16.78C270.383 16.26 270.136 15.8533 269.896 15.56C269.656 15.2667 269.383 15.06 269.076 14.94C268.77 14.8067 268.396 14.74 267.956 14.74H266.896V12.86H267.876C268.396 12.86 268.856 12.9133 269.256 13.02C269.656 13.1267 270.023 13.3067 270.356 13.56C270.703 13.8 271.016 14.12 271.296 14.52C271.59 14.92 271.883 15.4133 272.176 16L273.496 18.7H275.516V20.34H273.716V32H271.716ZM281.229 32.36L275.689 25.42L277.169 24.18C277.356 24.3933 277.549 24.5533 277.749 24.66C277.963 24.7533 278.203 24.8 278.469 24.8C278.896 24.8 279.223 24.6733 279.449 24.42C279.689 24.1533 279.809 23.8 279.809 23.36V20.34H274.709V18.7H289.689V20.34H287.889V32H285.889V26.68H281.709L278.989 26.5L278.909 26.64L279.969 27.64L282.849 31.1L281.229 32.36ZM281.769 20.34V23.36C281.769 23.9733 281.663 24.5067 281.449 24.96H285.889V20.34H281.769ZM289.767 37.26L288.867 36.1C288.507 35.66 288.167 35.34 287.847 35.14C287.541 34.9533 287.167 34.86 286.727 34.86C286.514 34.86 286.281 34.88 286.027 34.92C285.787 34.9733 285.547 35.0467 285.307 35.14L284.767 33.3C285.101 33.1933 285.434 33.1067 285.767 33.04C286.114 32.9867 286.434 32.96 286.727 32.96C287.207 32.96 287.627 33.02 287.987 33.14C288.347 33.2733 288.701 33.4933 289.047 33.8C289.407 34.1067 289.801 34.5333 290.227 35.08L291.147 36.22L289.767 37.26Z" fill="white"/>
</svg>
