<svg width="298" height="50" viewBox="0 0 298 50" fill="none" xmlns="http://www.w3.org/2000/svg">
<rect x="0.5" y="0.5" width="297" height="49" rx="24.5" fill="#1F1F1F"/>
<path d="M51 22H21V17C21 14.2857 23.2018 12 25.8165 12H46.1835C48.7982 12 51 14.2857 51 17V22Z" fill="#34A853"/>
<path d="M51 26.0537H21V21.0537C21 18.3394 23.2018 16.0537 25.8165 16.0537H46.1835C48.7982 16.0537 51 18.3394 51 21.0537V26.0537Z" fill="#FBBC04"/>
<path d="M51 30.2468H21V25.2468C21 22.5325 23.2018 20.2468 25.8165 20.2468H46.1835C48.7982 20.2468 51 22.5325 51 25.2468V30.2468Z" fill="#EA4335"/>
<path d="M21 23.2752L40.0411 27.6789C42.2329 28.2294 44.6986 27.6789 46.4795 26.3028L51 23V33.3211C51 35.9358 48.8082 38 46.2055 38H25.7945C23.1918 38 21 35.9358 21 33.3211V23.2752Z" fill="url(#paint0_linear_1819_24709)"/>
<path d="M63.3 32L68.7 17.68H71.2L76.62 32H74.2L72.88 28.32H67.04L65.72 32H63.3ZM69.36 21.9L67.78 26.28H72.14L70.56 21.9L70.02 20.26H69.9L69.36 21.9ZM78.1858 32V21.8H80.2258V23.2H80.3458C80.6391 22.7067 81.0724 22.3 81.6458 21.98C82.2324 21.6467 82.8724 21.48 83.5658 21.48C84.8191 21.48 85.7591 21.8533 86.3858 22.6C87.0124 23.3467 87.3258 24.3333 87.3258 25.56V32H85.1858V25.84C85.1858 25.0133 84.9791 24.4133 84.5658 24.04C84.1524 23.6533 83.6124 23.46 82.9458 23.46C82.4258 23.46 81.9724 23.6067 81.5858 23.9C81.1991 24.18 80.8924 24.5533 80.6658 25.02C80.4524 25.4867 80.3458 25.9867 80.3458 26.52V32H78.1858ZM84.1858 19.72C83.8924 19.72 83.6058 19.66 83.3258 19.54C83.0458 19.42 82.7924 19.2933 82.5658 19.16C82.4191 19.0667 82.2791 18.9867 82.1458 18.92C82.0258 18.8533 81.9058 18.82 81.7858 18.82C81.4124 18.82 81.2058 19.04 81.1658 19.48H79.5658C79.5658 18.9333 79.6724 18.4867 79.8858 18.14C80.1124 17.7933 80.3924 17.54 80.7258 17.38C81.0724 17.22 81.4258 17.14 81.7858 17.14C82.1058 17.14 82.3991 17.2067 82.6658 17.34C82.9458 17.46 83.1991 17.5867 83.4258 17.72C83.5724 17.8 83.7058 17.8733 83.8258 17.94C83.9591 18.0067 84.0724 18.04 84.1658 18.04C84.5524 18.04 84.7658 17.82 84.8058 17.38H86.4258C86.4258 17.9267 86.3124 18.3733 86.0858 18.72C85.8724 19.0667 85.5924 19.32 85.2458 19.48C84.8991 19.64 84.5458 19.72 84.1858 19.72ZM92.8897 32.32C92.1564 32.32 91.503 32.18 90.9297 31.9C90.3564 31.6067 89.9097 31.2 89.5897 30.68C89.2697 30.16 89.1097 29.5667 89.1097 28.9C89.1097 28.18 89.2964 27.5667 89.6697 27.06C90.0564 26.54 90.5697 26.1467 91.2097 25.88C91.8497 25.6133 92.5564 25.48 93.3297 25.48C93.9697 25.48 94.5297 25.54 95.0097 25.66C95.503 25.78 95.8764 25.9067 96.1297 26.04V25.5C96.1297 24.8333 95.8897 24.3 95.4097 23.9C94.9297 23.5 94.3097 23.3 93.5497 23.3C93.0297 23.3 92.5364 23.42 92.0697 23.66C91.603 23.8867 91.2297 24.2 90.9497 24.6L89.4697 23.46C89.9097 22.8467 90.4897 22.3667 91.2097 22.02C91.943 21.66 92.743 21.48 93.6097 21.48C95.0897 21.48 96.2297 21.8467 97.0297 22.58C97.8297 23.3 98.2297 24.3133 98.2297 25.62V32H96.1297V30.74H96.0097C95.743 31.1533 95.343 31.52 94.8097 31.84C94.2764 32.16 93.6364 32.32 92.8897 32.32ZM93.2697 30.56C93.8297 30.56 94.323 30.4267 94.7497 30.16C95.1764 29.8933 95.5097 29.5467 95.7497 29.12C96.003 28.68 96.1297 28.2067 96.1297 27.7C95.823 27.5267 95.463 27.3867 95.0497 27.28C94.6364 27.16 94.1964 27.1 93.7297 27.1C92.8497 27.1 92.223 27.28 91.8497 27.64C91.4764 27.9867 91.2897 28.4133 91.2897 28.92C91.2897 29.4 91.4697 29.7933 91.8297 30.1C92.1897 30.4067 92.6697 30.56 93.2697 30.56ZM104.87 32.32C103.95 32.32 103.117 32.0933 102.37 31.64C101.637 31.1733 101.05 30.5333 100.61 29.72C100.183 28.8933 99.97 27.9533 99.97 26.9C99.97 25.8467 100.183 24.9133 100.61 24.1C101.05 23.2867 101.637 22.6467 102.37 22.18C103.117 21.7133 103.95 21.48 104.87 21.48C105.657 21.48 106.33 21.6533 106.89 22C107.463 22.3467 107.883 22.74 108.15 23.18H108.27L108.15 21.76V17.68H110.29V32H108.27V30.64H108.15C107.883 31.08 107.463 31.4733 106.89 31.82C106.33 32.1533 105.657 32.32 104.87 32.32ZM105.19 30.34C105.723 30.34 106.223 30.2 106.69 29.92C107.17 29.64 107.55 29.2467 107.83 28.74C108.123 28.22 108.27 27.6067 108.27 26.9C108.27 26.1933 108.123 25.5867 107.83 25.08C107.55 24.56 107.17 24.16 106.69 23.88C106.223 23.6 105.723 23.46 105.19 23.46C104.657 23.46 104.157 23.6 103.69 23.88C103.223 24.16 102.843 24.56 102.55 25.08C102.257 25.5867 102.11 26.1933 102.11 26.9C102.11 27.6067 102.257 28.22 102.55 28.74C102.843 29.2467 103.223 29.64 103.69 29.92C104.157 30.2 104.657 30.34 105.19 30.34ZM114.074 20.3C113.674 20.3 113.328 20.16 113.034 19.88C112.754 19.5867 112.614 19.24 112.614 18.84C112.614 18.44 112.754 18.1 113.034 17.82C113.328 17.54 113.674 17.4 114.074 17.4C114.474 17.4 114.814 17.54 115.094 17.82C115.388 18.1 115.534 18.44 115.534 18.84C115.534 19.24 115.388 19.5867 115.094 19.88C114.814 20.16 114.474 20.3 114.074 20.3ZM112.994 32V21.8H115.154V32H112.994ZM117.834 32V21.8H119.874V23.3H119.994C120.221 22.78 120.608 22.3533 121.154 22.02C121.714 21.6733 122.314 21.5 122.954 21.5C123.234 21.5 123.468 21.52 123.654 21.56C123.854 21.6 124.034 21.6467 124.194 21.7V23.94C123.941 23.8333 123.681 23.7467 123.414 23.68C123.161 23.6133 122.894 23.58 122.614 23.58C122.108 23.58 121.654 23.72 121.254 24C120.868 24.2667 120.561 24.6333 120.334 25.1C120.108 25.5533 119.994 26.0533 119.994 26.6V32H117.834ZM133.73 32.32C132.996 32.32 132.343 32.18 131.77 31.9C131.196 31.6067 130.75 31.2 130.43 30.68C130.11 30.16 129.95 29.5667 129.95 28.9C129.95 28.18 130.136 27.5667 130.51 27.06C130.896 26.54 131.41 26.1467 132.05 25.88C132.69 25.6133 133.396 25.48 134.17 25.48C134.81 25.48 135.37 25.54 135.85 25.66C136.343 25.78 136.716 25.9067 136.97 26.04V25.5C136.97 24.8333 136.73 24.3 136.25 23.9C135.77 23.5 135.15 23.3 134.39 23.3C133.87 23.3 133.376 23.42 132.91 23.66C132.443 23.8867 132.07 24.2 131.79 24.6L130.31 23.46C130.75 22.8467 131.33 22.3667 132.05 22.02C132.783 21.66 133.583 21.48 134.45 21.48C135.93 21.48 137.07 21.8467 137.87 22.58C138.67 23.3 139.07 24.3133 139.07 25.62V32H136.97V30.74H136.85C136.583 31.1533 136.183 31.52 135.65 31.84C135.116 32.16 134.476 32.32 133.73 32.32ZM134.11 30.56C134.67 30.56 135.163 30.4267 135.59 30.16C136.016 29.8933 136.35 29.5467 136.59 29.12C136.843 28.68 136.97 28.2067 136.97 27.7C136.663 27.5267 136.303 27.3867 135.89 27.28C135.476 27.16 135.036 27.1 134.57 27.1C133.69 27.1 133.063 27.28 132.69 27.64C132.316 27.9867 132.13 28.4133 132.13 28.92C132.13 29.4 132.31 29.7933 132.67 30.1C133.03 30.4067 133.51 30.56 134.11 30.56Z" fill="white"/>
<path d="M154.4 32.32C153.373 32.32 152.407 32.1333 151.5 31.76C150.607 31.3867 149.813 30.8667 149.12 30.2C148.427 29.52 147.88 28.7267 147.48 27.82C147.093 26.9 146.9 25.9067 146.9 24.84C146.9 23.7733 147.093 22.7867 147.48 21.88C147.88 20.96 148.42 20.1667 149.1 19.5C149.793 18.82 150.593 18.2933 151.5 17.92C152.407 17.5467 153.373 17.36 154.4 17.36C155.493 17.36 156.5 17.5533 157.42 17.94C158.353 18.3267 159.133 18.8667 159.76 19.56L158.24 21.06C157.773 20.54 157.213 20.14 156.56 19.86C155.92 19.58 155.2 19.44 154.4 19.44C153.453 19.44 152.58 19.6667 151.78 20.12C150.98 20.56 150.333 21.1867 149.84 22C149.36 22.8 149.12 23.7467 149.12 24.84C149.12 25.9333 149.367 26.8867 149.86 27.7C150.353 28.5 151 29.1267 151.8 29.58C152.6 30.02 153.473 30.24 154.42 30.24C155.287 30.24 156.073 30.08 156.78 29.76C157.487 29.4267 158.053 28.96 158.48 28.36C158.92 27.76 159.187 27.04 159.28 26.2H154.38V24.26H161.34C161.42 24.62 161.46 25 161.46 25.4V25.42C161.46 26.8067 161.153 28.02 160.54 29.06C159.94 30.0867 159.107 30.8867 158.04 31.46C156.973 32.0333 155.76 32.32 154.4 32.32ZM167.9 32.32C166.847 32.32 165.92 32.08 165.12 31.6C164.32 31.12 163.693 30.4733 163.24 29.66C162.787 28.8467 162.56 27.9267 162.56 26.9C162.56 25.8867 162.787 24.9733 163.24 24.16C163.693 23.3333 164.32 22.68 165.12 22.2C165.92 21.72 166.847 21.48 167.9 21.48C168.94 21.48 169.86 21.72 170.66 22.2C171.46 22.68 172.087 23.3333 172.54 24.16C172.993 24.9733 173.22 25.8867 173.22 26.9C173.22 27.9267 172.993 28.8467 172.54 29.66C172.087 30.4733 171.46 31.12 170.66 31.6C169.86 32.08 168.94 32.32 167.9 32.32ZM167.9 30.34C168.46 30.34 168.98 30.2067 169.46 29.94C169.94 29.66 170.327 29.2667 170.62 28.76C170.927 28.24 171.08 27.62 171.08 26.9C171.08 26.18 170.927 25.5667 170.62 25.06C170.327 24.54 169.94 24.1467 169.46 23.88C168.98 23.6 168.46 23.46 167.9 23.46C167.34 23.46 166.813 23.6 166.32 23.88C165.84 24.1467 165.447 24.54 165.14 25.06C164.847 25.5667 164.7 26.18 164.7 26.9C164.7 27.62 164.847 28.24 165.14 28.76C165.447 29.2667 165.84 29.66 166.32 29.94C166.813 30.2067 167.34 30.34 167.9 30.34ZM180.009 32.32C178.956 32.32 178.029 32.08 177.229 31.6C176.429 31.12 175.803 30.4733 175.349 29.66C174.896 28.8467 174.669 27.9267 174.669 26.9C174.669 25.8867 174.896 24.9733 175.349 24.16C175.803 23.3333 176.429 22.68 177.229 22.2C178.029 21.72 178.956 21.48 180.009 21.48C181.049 21.48 181.969 21.72 182.769 22.2C183.569 22.68 184.196 23.3333 184.649 24.16C185.103 24.9733 185.329 25.8867 185.329 26.9C185.329 27.9267 185.103 28.8467 184.649 29.66C184.196 30.4733 183.569 31.12 182.769 31.6C181.969 32.08 181.049 32.32 180.009 32.32ZM180.009 30.34C180.569 30.34 181.089 30.2067 181.569 29.94C182.049 29.66 182.436 29.2667 182.729 28.76C183.036 28.24 183.189 27.62 183.189 26.9C183.189 26.18 183.036 25.5667 182.729 25.06C182.436 24.54 182.049 24.1467 181.569 23.88C181.089 23.6 180.569 23.46 180.009 23.46C179.449 23.46 178.923 23.6 178.429 23.88C177.949 24.1467 177.556 24.54 177.249 25.06C176.956 25.5667 176.809 26.18 176.809 26.9C176.809 27.62 176.956 28.24 177.249 28.76C177.556 29.2667 177.949 29.66 178.429 29.94C178.923 30.2067 179.449 30.34 180.009 30.34ZM191.919 36.64C191.025 36.64 190.252 36.4933 189.599 36.2C188.959 35.92 188.439 35.5533 188.039 35.1C187.639 34.66 187.352 34.2067 187.179 33.74L189.179 32.9C189.392 33.4333 189.732 33.8667 190.199 34.2C190.679 34.5467 191.252 34.72 191.919 34.72C192.852 34.72 193.585 34.44 194.119 33.88C194.665 33.32 194.939 32.5267 194.939 31.5V30.52H194.819C194.499 31 194.052 31.3867 193.479 31.68C192.919 31.96 192.279 32.1 191.559 32.1C190.692 32.1 189.899 31.88 189.179 31.44C188.459 31 187.879 30.3867 187.439 29.6C186.999 28.8 186.779 27.8667 186.779 26.8C186.779 25.72 186.999 24.7867 187.439 24C187.879 23.2 188.459 22.58 189.179 22.14C189.899 21.7 190.692 21.48 191.559 21.48C192.279 21.48 192.919 21.6267 193.479 21.92C194.052 22.2133 194.499 22.6 194.819 23.08H194.939V21.8H196.999V31.46C196.999 32.5667 196.779 33.5067 196.339 34.28C195.912 35.0533 195.319 35.64 194.559 36.04C193.799 36.44 192.919 36.64 191.919 36.64ZM191.939 30.14C192.472 30.14 192.965 30.0133 193.419 29.76C193.872 29.4933 194.239 29.1133 194.519 28.62C194.799 28.1133 194.939 27.5067 194.939 26.8C194.939 26.0667 194.799 25.4533 194.519 24.96C194.239 24.4533 193.872 24.0733 193.419 23.82C192.965 23.5667 192.472 23.44 191.939 23.44C191.405 23.44 190.905 23.5733 190.439 23.84C189.985 24.0933 189.619 24.4667 189.339 24.96C189.059 25.4533 188.919 26.0667 188.919 26.8C188.919 27.52 189.059 28.1333 189.339 28.64C189.619 29.1333 189.985 29.5067 190.439 29.76C190.905 30.0133 191.405 30.14 191.939 30.14ZM199.546 32V17.68H201.706V32H199.546ZM208.815 32.32C207.815 32.32 206.921 32.0867 206.135 31.62C205.348 31.1533 204.728 30.5133 204.275 29.7C203.835 28.8867 203.615 27.96 203.615 26.92C203.615 25.9467 203.828 25.0467 204.255 24.22C204.681 23.3933 205.275 22.7333 206.035 22.24C206.808 21.7333 207.695 21.48 208.695 21.48C209.748 21.48 210.641 21.7067 211.375 22.16C212.121 22.6133 212.688 23.2333 213.075 24.02C213.461 24.8067 213.655 25.6933 213.655 26.68C213.655 26.8267 213.648 26.96 213.635 27.08C213.635 27.2 213.628 27.2933 213.615 27.36H205.735C205.841 28.3733 206.195 29.1333 206.795 29.64C207.408 30.1467 208.101 30.4 208.875 30.4C209.568 30.4 210.141 30.2467 210.595 29.94C211.048 29.62 211.408 29.2267 211.675 28.76L213.455 29.62C213.015 30.42 212.415 31.0733 211.655 31.58C210.895 32.0733 209.948 32.32 208.815 32.32ZM208.715 23.32C207.995 23.32 207.381 23.54 206.875 23.98C206.368 24.42 206.028 25.0067 205.855 25.74H211.515C211.488 25.3933 211.375 25.0333 211.175 24.66C210.975 24.2867 210.668 23.9733 210.255 23.72C209.855 23.4533 209.341 23.32 208.715 23.32ZM222.446 32L218.606 17.68H221.046L223.326 26.98L223.566 28.22H223.686L223.986 26.98L226.866 17.68H229.066L231.826 26.98L232.126 28.2H232.246L232.486 26.98L234.766 17.68H237.186L233.406 32H231.086L228.346 22.5L228.026 21.16H227.906L227.566 22.5L224.706 32H222.446ZM241.202 32.32C240.469 32.32 239.816 32.18 239.242 31.9C238.669 31.6067 238.222 31.2 237.902 30.68C237.582 30.16 237.422 29.5667 237.422 28.9C237.422 28.18 237.609 27.5667 237.982 27.06C238.369 26.54 238.882 26.1467 239.522 25.88C240.162 25.6133 240.869 25.48 241.642 25.48C242.282 25.48 242.842 25.54 243.322 25.66C243.816 25.78 244.189 25.9067 244.442 26.04V25.5C244.442 24.8333 244.202 24.3 243.722 23.9C243.242 23.5 242.622 23.3 241.862 23.3C241.342 23.3 240.849 23.42 240.382 23.66C239.916 23.8867 239.542 24.2 239.262 24.6L237.782 23.46C238.222 22.8467 238.802 22.3667 239.522 22.02C240.256 21.66 241.056 21.48 241.922 21.48C243.402 21.48 244.542 21.8467 245.342 22.58C246.142 23.3 246.542 24.3133 246.542 25.62V32H244.442V30.74H244.322C244.056 31.1533 243.656 31.52 243.122 31.84C242.589 32.16 241.949 32.32 241.202 32.32ZM241.582 30.56C242.142 30.56 242.636 30.4267 243.062 30.16C243.489 29.8933 243.822 29.5467 244.062 29.12C244.316 28.68 244.442 28.2067 244.442 27.7C244.136 27.5267 243.776 27.3867 243.362 27.28C242.949 27.16 242.509 27.1 242.042 27.1C241.162 27.1 240.536 27.28 240.162 27.64C239.789 27.9867 239.602 28.4133 239.602 28.92C239.602 29.4 239.782 29.7933 240.142 30.1C240.502 30.4067 240.982 30.56 241.582 30.56ZM248.94 32V17.68H251.1V32H248.94ZM253.667 32V17.68H255.827V32H253.667ZM262.936 32.32C261.936 32.32 261.042 32.0867 260.256 31.62C259.469 31.1533 258.849 30.5133 258.396 29.7C257.956 28.8867 257.736 27.96 257.736 26.92C257.736 25.9467 257.949 25.0467 258.376 24.22C258.802 23.3933 259.396 22.7333 260.156 22.24C260.929 21.7333 261.816 21.48 262.816 21.48C263.869 21.48 264.762 21.7067 265.496 22.16C266.242 22.6133 266.809 23.2333 267.196 24.02C267.582 24.8067 267.776 25.6933 267.776 26.68C267.776 26.8267 267.769 26.96 267.756 27.08C267.756 27.2 267.749 27.2933 267.736 27.36H259.856C259.962 28.3733 260.316 29.1333 260.916 29.64C261.529 30.1467 262.222 30.4 262.996 30.4C263.689 30.4 264.262 30.2467 264.716 29.94C265.169 29.62 265.529 29.2267 265.796 28.76L267.576 29.62C267.136 30.42 266.536 31.0733 265.776 31.58C265.016 32.0733 264.069 32.32 262.936 32.32ZM262.836 23.32C262.116 23.32 261.502 23.54 260.996 23.98C260.489 24.42 260.149 25.0067 259.976 25.74H265.636C265.609 25.3933 265.496 25.0333 265.296 24.66C265.096 24.2867 264.789 23.9733 264.376 23.72C263.976 23.4533 263.462 23.32 262.836 23.32ZM270.567 29.04V23.68H268.787V21.8H270.567V18.92H272.727V21.8H275.227V23.68H272.727V28.58C272.727 29.0867 272.827 29.4733 273.027 29.74C273.24 30.0067 273.593 30.14 274.087 30.14C274.34 30.14 274.553 30.1067 274.727 30.04C274.913 29.9733 275.1 29.88 275.287 29.76V31.86C275.06 31.9533 274.82 32.0267 274.567 32.08C274.313 32.1333 274.013 32.16 273.667 32.16C272.72 32.16 271.967 31.8867 271.407 31.34C270.847 30.78 270.567 30.0133 270.567 29.04Z" fill="white"/>
<rect x="0.5" y="0.5" width="297" height="49" rx="24.5" stroke="#747775"/>
<defs>
<linearGradient id="paint0_linear_1819_24709" x1="34.5703" y1="30.7864" x2="18.7309" y2="48.9133" gradientUnits="userSpaceOnUse">
<stop stop-color="#4285F4"/>
<stop offset="1" stop-color="#1B74E8"/>
</linearGradient>
</defs>
</svg>
