<svg width="283" height="50" viewBox="0 0 283 50" fill="none" xmlns="http://www.w3.org/2000/svg">
<rect x="0.5" y="0.5" width="282" height="49" rx="24.5" fill="#1F1F1F"/>
<path d="M51 22H21V17C21 14.2857 23.2018 12 25.8165 12H46.1835C48.7982 12 51 14.2857 51 17V22Z" fill="#34A853"/>
<path d="M51 26.0537H21V21.0537C21 18.3394 23.2018 16.0537 25.8165 16.0537H46.1835C48.7982 16.0537 51 18.3394 51 21.0537V26.0537Z" fill="#FBBC04"/>
<path d="M51 30.2468H21V25.2468C21 22.5325 23.2018 20.2468 25.8165 20.2468H46.1835C48.7982 20.2468 51 22.5325 51 25.2468V30.2468Z" fill="#EA4335"/>
<path d="M21 23.2752L40.0411 27.6789C42.2329 28.2294 44.6986 27.6789 46.4795 26.3028L51 23V33.3211C51 35.9358 48.8082 38 46.2055 38H25.7945C23.1918 38 21 35.9358 21 33.3211V23.2752Z" fill="url(#paint0_linear_1819_24766)"/>
<path d="M71.4 32.32C70.3733 32.32 69.4067 32.1333 68.5 31.76C67.6067 31.3867 66.8133 30.8667 66.12 30.2C65.4267 29.52 64.88 28.7267 64.48 27.82C64.0933 26.9 63.9 25.9067 63.9 24.84C63.9 23.7733 64.0933 22.7867 64.48 21.88C64.88 20.96 65.42 20.1667 66.1 19.5C66.7933 18.82 67.5933 18.2933 68.5 17.92C69.4067 17.5467 70.3733 17.36 71.4 17.36C72.4933 17.36 73.5 17.5533 74.42 17.94C75.3533 18.3267 76.1333 18.8667 76.76 19.56L75.24 21.06C74.7733 20.54 74.2133 20.14 73.56 19.86C72.92 19.58 72.2 19.44 71.4 19.44C70.4533 19.44 69.58 19.6667 68.78 20.12C67.98 20.56 67.3333 21.1867 66.84 22C66.36 22.8 66.12 23.7467 66.12 24.84C66.12 25.9333 66.3667 26.8867 66.86 27.7C67.3533 28.5 68 29.1267 68.8 29.58C69.6 30.02 70.4733 30.24 71.42 30.24C72.2867 30.24 73.0733 30.08 73.78 29.76C74.4867 29.4267 75.0533 28.96 75.48 28.36C75.92 27.76 76.1867 27.04 76.28 26.2H71.38V24.26H78.34C78.42 24.62 78.46 25 78.46 25.4V25.42C78.46 26.8067 78.1533 28.02 77.54 29.06C76.94 30.0867 76.1067 30.8867 75.04 31.46C73.9733 32.0333 72.76 32.32 71.4 32.32ZM84.8998 32.32C83.8465 32.32 82.9198 32.08 82.1198 31.6C81.3198 31.12 80.6932 30.4733 80.2398 29.66C79.7865 28.8467 79.5598 27.9267 79.5598 26.9C79.5598 25.8867 79.7865 24.9733 80.2398 24.16C80.6932 23.3333 81.3198 22.68 82.1198 22.2C82.9198 21.72 83.8465 21.48 84.8998 21.48C85.9398 21.48 86.8598 21.72 87.6598 22.2C88.4598 22.68 89.0865 23.3333 89.5398 24.16C89.9932 24.9733 90.2198 25.8867 90.2198 26.9C90.2198 27.9267 89.9932 28.8467 89.5398 29.66C89.0865 30.4733 88.4598 31.12 87.6598 31.6C86.8598 32.08 85.9398 32.32 84.8998 32.32ZM84.8998 30.34C85.4598 30.34 85.9798 30.2067 86.4598 29.94C86.9398 29.66 87.3265 29.2667 87.6198 28.76C87.9265 28.24 88.0798 27.62 88.0798 26.9C88.0798 26.18 87.9265 25.5667 87.6198 25.06C87.3265 24.54 86.9398 24.1467 86.4598 23.88C85.9798 23.6 85.4598 23.46 84.8998 23.46C84.3398 23.46 83.8132 23.6 83.3198 23.88C82.8398 24.1467 82.4465 24.54 82.1398 25.06C81.8465 25.5667 81.6998 26.18 81.6998 26.9C81.6998 27.62 81.8465 28.24 82.1398 28.76C82.4465 29.2667 82.8398 29.66 83.3198 29.94C83.8132 30.2067 84.3398 30.34 84.8998 30.34ZM97.0092 32.32C95.9559 32.32 95.0292 32.08 94.2292 31.6C93.4292 31.12 92.8026 30.4733 92.3492 29.66C91.8959 28.8467 91.6692 27.9267 91.6692 26.9C91.6692 25.8867 91.8959 24.9733 92.3492 24.16C92.8026 23.3333 93.4292 22.68 94.2292 22.2C95.0292 21.72 95.9559 21.48 97.0092 21.48C98.0492 21.48 98.9692 21.72 99.7692 22.2C100.569 22.68 101.196 23.3333 101.649 24.16C102.103 24.9733 102.329 25.8867 102.329 26.9C102.329 27.9267 102.103 28.8467 101.649 29.66C101.196 30.4733 100.569 31.12 99.7692 31.6C98.9692 32.08 98.0492 32.32 97.0092 32.32ZM97.0092 30.34C97.5692 30.34 98.0892 30.2067 98.5692 29.94C99.0492 29.66 99.4359 29.2667 99.7292 28.76C100.036 28.24 100.189 27.62 100.189 26.9C100.189 26.18 100.036 25.5667 99.7292 25.06C99.4359 24.54 99.0492 24.1467 98.5692 23.88C98.0892 23.6 97.5692 23.46 97.0092 23.46C96.4492 23.46 95.9226 23.6 95.4292 23.88C94.9492 24.1467 94.5559 24.54 94.2492 25.06C93.9559 25.5667 93.8092 26.18 93.8092 26.9C93.8092 27.62 93.9559 28.24 94.2492 28.76C94.5559 29.2667 94.9492 29.66 95.4292 29.94C95.9226 30.2067 96.4492 30.34 97.0092 30.34ZM108.919 36.64C108.025 36.64 107.252 36.4933 106.599 36.2C105.959 35.92 105.439 35.5533 105.039 35.1C104.639 34.66 104.352 34.2067 104.179 33.74L106.179 32.9C106.392 33.4333 106.732 33.8667 107.199 34.2C107.679 34.5467 108.252 34.72 108.919 34.72C109.852 34.72 110.585 34.44 111.119 33.88C111.665 33.32 111.939 32.5267 111.939 31.5V30.52H111.819C111.499 31 111.052 31.3867 110.479 31.68C109.919 31.96 109.279 32.1 108.559 32.1C107.692 32.1 106.899 31.88 106.179 31.44C105.459 31 104.879 30.3867 104.439 29.6C103.999 28.8 103.779 27.8667 103.779 26.8C103.779 25.72 103.999 24.7867 104.439 24C104.879 23.2 105.459 22.58 106.179 22.14C106.899 21.7 107.692 21.48 108.559 21.48C109.279 21.48 109.919 21.6267 110.479 21.92C111.052 22.2133 111.499 22.6 111.819 23.08H111.939V21.8H113.999V31.46C113.999 32.5667 113.779 33.5067 113.339 34.28C112.912 35.0533 112.319 35.64 111.559 36.04C110.799 36.44 109.919 36.64 108.919 36.64ZM108.939 30.14C109.472 30.14 109.965 30.0133 110.419 29.76C110.872 29.4933 111.239 29.1133 111.519 28.62C111.799 28.1133 111.939 27.5067 111.939 26.8C111.939 26.0667 111.799 25.4533 111.519 24.96C111.239 24.4533 110.872 24.0733 110.419 23.82C109.965 23.5667 109.472 23.44 108.939 23.44C108.405 23.44 107.905 23.5733 107.439 23.84C106.985 24.0933 106.619 24.4667 106.339 24.96C106.059 25.4533 105.919 26.0667 105.919 26.8C105.919 27.52 106.059 28.1333 106.339 28.64C106.619 29.1333 106.985 29.5067 107.439 29.76C107.905 30.0133 108.405 30.14 108.939 30.14ZM116.546 32V17.68H118.706V32H116.546ZM125.815 32.32C124.815 32.32 123.921 32.0867 123.135 31.62C122.348 31.1533 121.728 30.5133 121.275 29.7C120.835 28.8867 120.615 27.96 120.615 26.92C120.615 25.9467 120.828 25.0467 121.255 24.22C121.681 23.3933 122.275 22.7333 123.035 22.24C123.808 21.7333 124.695 21.48 125.695 21.48C126.748 21.48 127.641 21.7067 128.375 22.16C129.121 22.6133 129.688 23.2333 130.075 24.02C130.461 24.8067 130.655 25.6933 130.655 26.68C130.655 26.8267 130.648 26.96 130.635 27.08C130.635 27.2 130.628 27.2933 130.615 27.36H122.735C122.841 28.3733 123.195 29.1333 123.795 29.64C124.408 30.1467 125.101 30.4 125.875 30.4C126.568 30.4 127.141 30.2467 127.595 29.94C128.048 29.62 128.408 29.2267 128.675 28.76L130.455 29.62C130.015 30.42 129.415 31.0733 128.655 31.58C127.895 32.0733 126.948 32.32 125.815 32.32ZM125.715 23.32C124.995 23.32 124.381 23.54 123.875 23.98C123.368 24.42 123.028 25.0067 122.855 25.74H128.515C128.488 25.3933 128.375 25.0333 128.175 24.66C127.975 24.2867 127.668 23.9733 127.255 23.72C126.855 23.4533 126.341 23.32 125.715 23.32ZM144.036 32.32C142.982 32.32 142.002 32.1333 141.096 31.76C140.189 31.3733 139.396 30.84 138.716 30.16C138.049 29.48 137.522 28.6867 137.136 27.78C136.762 26.8733 136.576 25.8933 136.576 24.84C136.576 23.7867 136.762 22.8067 137.136 21.9C137.522 20.9933 138.049 20.2 138.716 19.52C139.396 18.84 140.189 18.3133 141.096 17.94C142.002 17.5533 142.982 17.36 144.036 17.36C145.156 17.36 146.156 17.5667 147.036 17.98C147.916 18.38 148.682 18.9533 149.336 19.7L147.796 21.2C147.316 20.6267 146.769 20.1933 146.156 19.9C145.556 19.5933 144.856 19.44 144.056 19.44C143.096 19.44 142.216 19.6667 141.416 20.12C140.616 20.56 139.976 21.1867 139.496 22C139.029 22.8 138.796 23.7467 138.796 24.84C138.796 25.9333 139.029 26.8867 139.496 27.7C139.976 28.5 140.616 29.1267 141.416 29.58C142.216 30.02 143.096 30.24 144.056 30.24C144.922 30.24 145.689 30.06 146.356 29.7C147.036 29.34 147.636 28.8467 148.156 28.22L149.736 29.74C149.069 30.5267 148.249 31.1533 147.276 31.62C146.316 32.0867 145.236 32.32 144.036 32.32ZM155.245 32.32C153.992 32.32 153.045 31.9467 152.405 31.2C151.778 30.44 151.465 29.4133 151.465 28.12V21.8H153.625V27.82C153.625 28.6867 153.825 29.3267 154.225 29.74C154.638 30.14 155.152 30.34 155.765 30.34C156.312 30.34 156.785 30.2 157.185 29.92C157.598 29.6267 157.912 29.2533 158.125 28.8C158.352 28.3333 158.465 27.8267 158.465 27.28V21.8H160.605V32H158.585V30.62H158.465C158.172 31.1 157.732 31.5067 157.145 31.84C156.572 32.16 155.938 32.32 155.245 32.32ZM157.805 19.72C157.472 19.72 157.178 19.6 156.925 19.36C156.685 19.1067 156.565 18.8067 156.565 18.46C156.565 18.1133 156.685 17.8267 156.925 17.6C157.178 17.36 157.472 17.24 157.805 17.24C158.165 17.24 158.465 17.36 158.705 17.6C158.945 17.8267 159.065 18.1133 159.065 18.46C159.065 18.8067 158.945 19.1067 158.705 19.36C158.465 19.6 158.165 19.72 157.805 19.72ZM154.265 19.72C153.932 19.72 153.638 19.6 153.385 19.36C153.145 19.1067 153.025 18.8067 153.025 18.46C153.025 18.1133 153.145 17.8267 153.385 17.6C153.638 17.36 153.932 17.24 154.265 17.24C154.625 17.24 154.918 17.36 155.145 17.6C155.385 17.8267 155.505 18.1133 155.505 18.46C155.505 18.8067 155.385 19.1067 155.145 19.36C154.918 19.6 154.625 19.72 154.265 19.72ZM162.92 32V30.2L168.6 23.68H163.1V21.8H171.24V23.6L165.58 30.12H171.4V32H162.92ZM177.585 32.32C176.665 32.32 175.832 32.0933 175.085 31.64C174.352 31.1733 173.765 30.5333 173.325 29.72C172.898 28.8933 172.685 27.9533 172.685 26.9C172.685 25.8467 172.898 24.9133 173.325 24.1C173.765 23.2867 174.352 22.6467 175.085 22.18C175.832 21.7133 176.665 21.48 177.585 21.48C178.372 21.48 179.045 21.6533 179.605 22C180.178 22.3467 180.598 22.74 180.865 23.18H180.985L180.865 21.76V17.68H183.005V32H180.985V30.64H180.865C180.598 31.08 180.178 31.4733 179.605 31.82C179.045 32.1533 178.372 32.32 177.585 32.32ZM177.905 30.34C178.438 30.34 178.938 30.2 179.405 29.92C179.885 29.64 180.265 29.2467 180.545 28.74C180.838 28.22 180.985 27.6067 180.985 26.9C180.985 26.1933 180.838 25.5867 180.545 25.08C180.265 24.56 179.885 24.16 179.405 23.88C178.938 23.6 178.438 23.46 177.905 23.46C177.372 23.46 176.872 23.6 176.405 23.88C175.938 24.16 175.558 24.56 175.265 25.08C174.972 25.5867 174.825 26.1933 174.825 26.9C174.825 27.6067 174.972 28.22 175.265 28.74C175.558 29.2467 175.938 29.64 176.405 29.92C176.872 30.2 177.372 30.34 177.905 30.34ZM188.651 32.32C187.918 32.32 187.265 32.18 186.691 31.9C186.118 31.6067 185.671 31.2 185.351 30.68C185.031 30.16 184.871 29.5667 184.871 28.9C184.871 28.18 185.058 27.5667 185.431 27.06C185.818 26.54 186.331 26.1467 186.971 25.88C187.611 25.6133 188.318 25.48 189.091 25.48C189.731 25.48 190.291 25.54 190.771 25.66C191.265 25.78 191.638 25.9067 191.891 26.04V25.5C191.891 24.8333 191.651 24.3 191.171 23.9C190.691 23.5 190.071 23.3 189.311 23.3C188.791 23.3 188.298 23.42 187.831 23.66C187.365 23.8867 186.991 24.2 186.711 24.6L185.231 23.46C185.671 22.8467 186.251 22.3667 186.971 22.02C187.705 21.66 188.505 21.48 189.371 21.48C190.851 21.48 191.991 21.8467 192.791 22.58C193.591 23.3 193.991 24.3133 193.991 25.62V32H191.891V30.74H191.771C191.505 31.1533 191.105 31.52 190.571 31.84C190.038 32.16 189.398 32.32 188.651 32.32ZM189.031 30.56C189.591 30.56 190.085 30.4267 190.511 30.16C190.938 29.8933 191.271 29.5467 191.511 29.12C191.765 28.68 191.891 28.2067 191.891 27.7C191.585 27.5267 191.225 27.3867 190.811 27.28C190.398 27.16 189.958 27.1 189.491 27.1C188.611 27.1 187.985 27.28 187.611 27.64C187.238 27.9867 187.051 28.4133 187.051 28.92C187.051 29.4 187.231 29.7933 187.591 30.1C187.951 30.4067 188.431 30.56 189.031 30.56ZM196.369 32V21.8H198.409V23.2H198.529C198.823 22.7067 199.256 22.3 199.829 21.98C200.416 21.6467 201.056 21.48 201.749 21.48C203.003 21.48 203.943 21.8533 204.569 22.6C205.196 23.3467 205.509 24.3333 205.509 25.56V32H203.369V25.84C203.369 25.0133 203.163 24.4133 202.749 24.04C202.336 23.6533 201.796 23.46 201.129 23.46C200.609 23.46 200.156 23.6067 199.769 23.9C199.383 24.18 199.076 24.5533 198.849 25.02C198.636 25.4867 198.529 25.9867 198.529 26.52V32H196.369ZM211.073 32.32C210.34 32.32 209.687 32.18 209.113 31.9C208.54 31.6067 208.093 31.2 207.773 30.68C207.453 30.16 207.293 29.5667 207.293 28.9C207.293 28.18 207.48 27.5667 207.853 27.06C208.24 26.54 208.753 26.1467 209.393 25.88C210.033 25.6133 210.74 25.48 211.513 25.48C212.153 25.48 212.713 25.54 213.193 25.66C213.687 25.78 214.06 25.9067 214.313 26.04V25.5C214.313 24.8333 214.073 24.3 213.593 23.9C213.113 23.5 212.493 23.3 211.733 23.3C211.213 23.3 210.72 23.42 210.253 23.66C209.787 23.8867 209.413 24.2 209.133 24.6L207.653 23.46C208.093 22.8467 208.673 22.3667 209.393 22.02C210.127 21.66 210.927 21.48 211.793 21.48C213.273 21.48 214.413 21.8467 215.213 22.58C216.013 23.3 216.413 24.3133 216.413 25.62V32H214.313V30.74H214.193C213.927 31.1533 213.527 31.52 212.993 31.84C212.46 32.16 211.82 32.32 211.073 32.32ZM211.453 30.56C212.013 30.56 212.507 30.4267 212.933 30.16C213.36 29.8933 213.693 29.5467 213.933 29.12C214.187 28.68 214.313 28.2067 214.313 27.7C214.007 27.5267 213.647 27.3867 213.233 27.28C212.82 27.16 212.38 27.1 211.913 27.1C211.033 27.1 210.407 27.28 210.033 27.64C209.66 27.9867 209.473 28.4133 209.473 28.92C209.473 29.4 209.653 29.7933 210.013 30.1C210.373 30.4067 210.853 30.56 211.453 30.56Z" fill="white"/>
<path d="M228.92 32.32C227.92 32.32 227.027 32.0867 226.24 31.62C225.453 31.1533 224.833 30.5133 224.38 29.7C223.94 28.8867 223.72 27.96 223.72 26.92C223.72 25.9467 223.933 25.0467 224.36 24.22C224.787 23.3933 225.38 22.7333 226.14 22.24C226.913 21.7333 227.8 21.48 228.8 21.48C229.853 21.48 230.747 21.7067 231.48 22.16C232.227 22.6133 232.793 23.2333 233.18 24.02C233.567 24.8067 233.76 25.6933 233.76 26.68C233.76 26.8267 233.753 26.96 233.74 27.08C233.74 27.2 233.733 27.2933 233.72 27.36H225.84C225.947 28.3733 226.3 29.1333 226.9 29.64C227.513 30.1467 228.207 30.4 228.98 30.4C229.673 30.4 230.247 30.2467 230.7 29.94C231.153 29.62 231.513 29.2267 231.78 28.76L233.56 29.62C233.12 30.42 232.52 31.0733 231.76 31.58C231 32.0733 230.053 32.32 228.92 32.32ZM228.82 23.32C228.1 23.32 227.487 23.54 226.98 23.98C226.473 24.42 226.133 25.0067 225.96 25.74H231.62C231.593 25.3933 231.48 25.0333 231.28 24.66C231.08 24.2867 230.773 23.9733 230.36 23.72C229.96 23.4533 229.447 23.32 228.82 23.32ZM235.764 32V17.68H237.924V26.12L242.244 21.8H244.924V21.92L240.984 25.82L245.064 31.88V32H242.504L239.464 27.32L237.924 28.84V32H235.764ZM246.428 32V17.68H248.588V32H246.428ZM255.697 32.32C254.697 32.32 253.804 32.0867 253.017 31.62C252.231 31.1533 251.611 30.5133 251.157 29.7C250.717 28.8867 250.497 27.96 250.497 26.92C250.497 25.9467 250.711 25.0467 251.137 24.22C251.564 23.3933 252.157 22.7333 252.917 22.24C253.691 21.7333 254.577 21.48 255.577 21.48C256.631 21.48 257.524 21.7067 258.257 22.16C259.004 22.6133 259.571 23.2333 259.957 24.02C260.344 24.8067 260.537 25.6933 260.537 26.68C260.537 26.8267 260.531 26.96 260.517 27.08C260.517 27.2 260.511 27.2933 260.497 27.36H252.617C252.724 28.3733 253.077 29.1333 253.677 29.64C254.291 30.1467 254.984 30.4 255.757 30.4C256.451 30.4 257.024 30.2467 257.477 29.94C257.931 29.62 258.291 29.2267 258.557 28.76L260.337 29.62C259.897 30.42 259.297 31.0733 258.537 31.58C257.777 32.0733 256.831 32.32 255.697 32.32ZM255.597 23.32C254.877 23.32 254.264 23.54 253.757 23.98C253.251 24.42 252.911 25.0067 252.737 25.74H258.397C258.371 25.3933 258.257 25.0333 258.057 24.66C257.857 24.2867 257.551 23.9733 257.137 23.72C256.737 23.4533 256.224 23.32 255.597 23.32Z" fill="white"/>
<rect x="0.5" y="0.5" width="282" height="49" rx="24.5" stroke="#747775"/>
<defs>
<linearGradient id="paint0_linear_1819_24766" x1="34.5703" y1="30.7864" x2="18.7309" y2="48.9133" gradientUnits="userSpaceOnUse">
<stop stop-color="#4285F4"/>
<stop offset="1" stop-color="#1B74E8"/>
</linearGradient>
</defs>
</svg>
