<svg width="353" height="50" viewBox="0 0 353 50" fill="none" xmlns="http://www.w3.org/2000/svg">
<rect x="0.5" y="0.5" width="352" height="49" rx="24.5" fill="#1F1F1F"/>
<path d="M51 22H21V17C21 14.2857 23.2018 12 25.8165 12H46.1835C48.7982 12 51 14.2857 51 17V22Z" fill="#34A853"/>
<path d="M51 26.0537H21V21.0537C21 18.3394 23.2018 16.0537 25.8165 16.0537H46.1835C48.7982 16.0537 51 18.3394 51 21.0537V26.0537Z" fill="#FBBC04"/>
<path d="M51 30.2468H21V25.2468C21 22.5325 23.2018 20.2468 25.8165 20.2468H46.1835C48.7982 20.2468 51 22.5325 51 25.2468V30.2468Z" fill="#EA4335"/>
<path d="M21 23.2752L40.0411 27.6789C42.2329 28.2294 44.6986 27.6789 46.4795 26.3028L51 23V33.3211C51 35.9358 48.8082 38 46.2055 38H25.7945C23.1918 38 21 35.9358 21 33.3211V23.2752Z" fill="url(#paint0_linear_1819_24405)"/>
<path d="M67.54 32V19.76H63.52V17.68H73.72V19.76H69.72V32H67.54ZM77.1866 32.32C76.4532 32.32 75.7999 32.18 75.2266 31.9C74.6532 31.6067 74.2066 31.2 73.8866 30.68C73.5666 30.16 73.4066 29.5667 73.4066 28.9C73.4066 28.18 73.5932 27.5667 73.9666 27.06C74.3532 26.54 74.8666 26.1467 75.5066 25.88C76.1466 25.6133 76.8532 25.48 77.6266 25.48C78.2666 25.48 78.8266 25.54 79.3066 25.66C79.7999 25.78 80.1732 25.9067 80.4266 26.04V25.5C80.4266 24.8333 80.1866 24.3 79.7066 23.9C79.2266 23.5 78.6066 23.3 77.8466 23.3C77.3266 23.3 76.8332 23.42 76.3666 23.66C75.8999 23.8867 75.5266 24.2 75.2466 24.6L73.7666 23.46C74.2066 22.8467 74.7866 22.3667 75.5066 22.02C76.2399 21.66 77.0399 21.48 77.9066 21.48C79.3866 21.48 80.5266 21.8467 81.3266 22.58C82.1266 23.3 82.5266 24.3133 82.5266 25.62V32H80.4266V30.74H80.3066C80.0399 31.1533 79.6399 31.52 79.1066 31.84C78.5732 32.16 77.9332 32.32 77.1866 32.32ZM77.5666 30.56C78.1266 30.56 78.6199 30.4267 79.0466 30.16C79.4732 29.8933 79.8066 29.5467 80.0466 29.12C80.2999 28.68 80.4266 28.2067 80.4266 27.7C80.1199 27.5267 79.7599 27.3867 79.3466 27.28C78.9332 27.16 78.4932 27.1 78.0266 27.1C77.1466 27.1 76.5199 27.28 76.1466 27.64C75.7732 27.9867 75.5866 28.4133 75.5866 28.92C75.5866 29.4 75.7666 29.7933 76.1266 30.1C76.4866 30.4067 76.9666 30.56 77.5666 30.56ZM84.9045 32V21.8H86.9445V23.2H87.0645C87.3579 22.7067 87.7845 22.3 88.3445 21.98C88.9045 21.6467 89.5245 21.48 90.2045 21.48C90.9645 21.48 91.6112 21.66 92.1445 22.02C92.6779 22.38 93.0579 22.8333 93.2845 23.38C93.6179 22.8467 94.0712 22.4 94.6445 22.04C95.2179 21.6667 95.9179 21.48 96.7445 21.48C97.9445 21.48 98.8379 21.8467 99.4245 22.58C100.011 23.3 100.305 24.26 100.305 25.46V32H98.1645V25.82C98.1645 25.0067 97.9845 24.4133 97.6245 24.04C97.2779 23.6533 96.7912 23.46 96.1645 23.46C95.6712 23.46 95.2379 23.6 94.8645 23.88C94.4912 24.1467 94.1979 24.5133 93.9845 24.98C93.7845 25.4467 93.6845 25.9667 93.6845 26.54V32H91.5445V25.82C91.5445 25.0067 91.3645 24.4133 91.0045 24.04C90.6445 23.6533 90.1379 23.46 89.4845 23.46C89.0045 23.46 88.5845 23.6 88.2245 23.88C87.8645 24.16 87.5779 24.5333 87.3645 25C87.1645 25.4667 87.0645 25.9867 87.0645 26.56V32H84.9045ZM108.177 32.32C107.39 32.32 106.71 32.1533 106.137 31.82C105.577 31.4733 105.163 31.08 104.897 30.64H104.777V32H102.737V17.68H104.897V21.76L104.777 23.18H104.897C105.163 22.74 105.577 22.3467 106.137 22C106.71 21.6533 107.39 21.48 108.177 21.48C109.11 21.48 109.943 21.7133 110.677 22.18C111.41 22.6467 111.99 23.2867 112.417 24.1C112.857 24.9133 113.077 25.8467 113.077 26.9C113.077 27.9533 112.857 28.8933 112.417 29.72C111.99 30.5333 111.41 31.1733 110.677 31.64C109.943 32.0933 109.11 32.32 108.177 32.32ZM107.857 30.34C108.39 30.34 108.89 30.2 109.357 29.92C109.823 29.64 110.203 29.2467 110.497 28.74C110.79 28.22 110.937 27.6067 110.937 26.9C110.937 26.1933 110.79 25.5867 110.497 25.08C110.203 24.56 109.823 24.16 109.357 23.88C108.89 23.6 108.39 23.46 107.857 23.46C107.323 23.46 106.823 23.6 106.357 23.88C105.89 24.16 105.51 24.56 105.217 25.08C104.923 25.5867 104.777 26.1933 104.777 26.9C104.777 27.6067 104.923 28.22 105.217 28.74C105.51 29.2467 105.89 29.64 106.357 29.92C106.823 30.2 107.323 30.34 107.857 30.34ZM118.261 32.32C117.527 32.32 116.874 32.18 116.301 31.9C115.727 31.6067 115.281 31.2 114.961 30.68C114.641 30.16 114.481 29.5667 114.481 28.9C114.481 28.18 114.667 27.5667 115.041 27.06C115.427 26.54 115.941 26.1467 116.581 25.88C117.221 25.6133 117.927 25.48 118.701 25.48C119.341 25.48 119.901 25.54 120.381 25.66C120.874 25.78 121.247 25.9067 121.501 26.04V25.5C121.501 24.8333 121.261 24.3 120.781 23.9C120.301 23.5 119.681 23.3 118.921 23.3C118.401 23.3 117.907 23.42 117.441 23.66C116.974 23.8867 116.601 24.2 116.321 24.6L114.841 23.46C115.281 22.8467 115.861 22.3667 116.581 22.02C117.314 21.66 118.114 21.48 118.981 21.48C120.461 21.48 121.601 21.8467 122.401 22.58C123.201 23.3 123.601 24.3133 123.601 25.62V32H121.501V30.74H121.381C121.114 31.1533 120.714 31.52 120.181 31.84C119.647 32.16 119.007 32.32 118.261 32.32ZM118.641 30.56C119.201 30.56 119.694 30.4267 120.121 30.16C120.547 29.8933 120.881 29.5467 121.121 29.12C121.374 28.68 121.501 28.2067 121.501 27.7C121.194 27.5267 120.834 27.3867 120.421 27.28C120.007 27.16 119.567 27.1 119.101 27.1C118.221 27.1 117.594 27.28 117.221 27.64C116.847 27.9867 116.661 28.4133 116.661 28.92C116.661 29.4 116.841 29.7933 117.201 30.1C117.561 30.4067 118.041 30.56 118.641 30.56ZM125.979 32V17.68H128.139V21.6L128.019 23.2H128.139C128.419 22.7067 128.845 22.3 129.419 21.98C130.005 21.6467 130.652 21.48 131.359 21.48C132.625 21.48 133.579 21.86 134.219 22.62C134.859 23.3667 135.179 24.3467 135.179 25.56V32H133.039V25.84C133.039 25.0133 132.819 24.4133 132.379 24.04C131.952 23.6533 131.425 23.46 130.799 23.46C130.279 23.46 129.819 23.6067 129.419 23.9C129.019 24.1933 128.705 24.58 128.479 25.06C128.252 25.5267 128.139 26.0267 128.139 26.56V32H125.979ZM137.639 32V17.68H139.799V26.12L144.119 21.8H146.799V21.92L142.859 25.82L146.939 31.88V32H144.379L141.339 27.32L139.799 28.84V32H137.639ZM151.288 32.32C150.555 32.32 149.901 32.18 149.328 31.9C148.755 31.6067 148.308 31.2 147.988 30.68C147.668 30.16 147.508 29.5667 147.508 28.9C147.508 28.18 147.695 27.5667 148.068 27.06C148.455 26.54 148.968 26.1467 149.608 25.88C150.248 25.6133 150.955 25.48 151.728 25.48C152.368 25.48 152.928 25.54 153.408 25.66C153.901 25.78 154.275 25.9067 154.528 26.04V25.5C154.528 24.8333 154.288 24.3 153.808 23.9C153.328 23.5 152.708 23.3 151.948 23.3C151.428 23.3 150.935 23.42 150.468 23.66C150.001 23.8867 149.628 24.2 149.348 24.6L147.868 23.46C148.308 22.8467 148.888 22.3667 149.608 22.02C150.341 21.66 151.141 21.48 152.008 21.48C153.488 21.48 154.628 21.8467 155.428 22.58C156.228 23.3 156.628 24.3133 156.628 25.62V32H154.528V30.74H154.408C154.141 31.1533 153.741 31.52 153.208 31.84C152.675 32.16 152.035 32.32 151.288 32.32ZM151.668 30.56C152.228 30.56 152.721 30.4267 153.148 30.16C153.575 29.8933 153.908 29.5467 154.148 29.12C154.401 28.68 154.528 28.2067 154.528 27.7C154.221 27.5267 153.861 27.3867 153.448 27.28C153.035 27.16 152.595 27.1 152.128 27.1C151.248 27.1 150.621 27.28 150.248 27.64C149.875 27.9867 149.688 28.4133 149.688 28.92C149.688 29.4 149.868 29.7933 150.228 30.1C150.588 30.4067 151.068 30.56 151.668 30.56ZM159.006 32V21.8H161.046V23.2H161.166C161.459 22.7067 161.893 22.3 162.466 21.98C163.053 21.6467 163.693 21.48 164.386 21.48C165.639 21.48 166.579 21.8533 167.206 22.6C167.833 23.3467 168.146 24.3333 168.146 25.56V32H166.006V25.84C166.006 25.0133 165.799 24.4133 165.386 24.04C164.973 23.6533 164.433 23.46 163.766 23.46C163.246 23.46 162.793 23.6067 162.406 23.9C162.019 24.18 161.713 24.5533 161.486 25.02C161.273 25.4867 161.166 25.9867 161.166 26.52V32H159.006ZM175.276 32V17.68H177.436V26.12L181.756 21.8H184.436V21.92L180.496 25.82L184.576 31.88V32H182.016L178.976 27.32L177.436 28.84V32H175.276ZM190.287 32.32C189.287 32.32 188.394 32.0867 187.607 31.62C186.821 31.1533 186.201 30.5133 185.747 29.7C185.307 28.8867 185.087 27.96 185.087 26.92C185.087 25.9467 185.301 25.0467 185.727 24.22C186.154 23.3933 186.747 22.7333 187.507 22.24C188.281 21.7333 189.167 21.48 190.167 21.48C191.221 21.48 192.114 21.7067 192.847 22.16C193.594 22.6133 194.161 23.2333 194.547 24.02C194.934 24.8067 195.127 25.6933 195.127 26.68C195.127 26.8267 195.121 26.96 195.107 27.08C195.107 27.2 195.101 27.2933 195.087 27.36H187.207C187.314 28.3733 187.667 29.1333 188.267 29.64C188.881 30.1467 189.574 30.4 190.347 30.4C191.041 30.4 191.614 30.2467 192.067 29.94C192.521 29.62 192.881 29.2267 193.147 28.76L194.927 29.62C194.487 30.42 193.887 31.0733 193.127 31.58C192.367 32.0733 191.421 32.32 190.287 32.32ZM190.187 23.32C189.467 23.32 188.854 23.54 188.347 23.98C187.841 24.42 187.501 25.0067 187.327 25.74H192.987C192.961 25.3933 192.847 25.0333 192.647 24.66C192.447 24.2867 192.141 23.9733 191.727 23.72C191.327 23.4533 190.814 23.32 190.187 23.32Z" fill="white"/>
<path d="M209.4 32.32C208.373 32.32 207.407 32.1333 206.5 31.76C205.607 31.3867 204.813 30.8667 204.12 30.2C203.427 29.52 202.88 28.7267 202.48 27.82C202.093 26.9 201.9 25.9067 201.9 24.84C201.9 23.7733 202.093 22.7867 202.48 21.88C202.88 20.96 203.42 20.1667 204.1 19.5C204.793 18.82 205.593 18.2933 206.5 17.92C207.407 17.5467 208.373 17.36 209.4 17.36C210.493 17.36 211.5 17.5533 212.42 17.94C213.353 18.3267 214.133 18.8667 214.76 19.56L213.24 21.06C212.773 20.54 212.213 20.14 211.56 19.86C210.92 19.58 210.2 19.44 209.4 19.44C208.453 19.44 207.58 19.6667 206.78 20.12C205.98 20.56 205.333 21.1867 204.84 22C204.36 22.8 204.12 23.7467 204.12 24.84C204.12 25.9333 204.367 26.8867 204.86 27.7C205.353 28.5 206 29.1267 206.8 29.58C207.6 30.02 208.473 30.24 209.42 30.24C210.287 30.24 211.073 30.08 211.78 29.76C212.487 29.4267 213.053 28.96 213.48 28.36C213.92 27.76 214.187 27.04 214.28 26.2H209.38V24.26H216.34C216.42 24.62 216.46 25 216.46 25.4V25.42C216.46 26.8067 216.153 28.02 215.54 29.06C214.94 30.0867 214.107 30.8867 213.04 31.46C211.973 32.0333 210.76 32.32 209.4 32.32ZM222.9 32.32C221.847 32.32 220.92 32.08 220.12 31.6C219.32 31.12 218.693 30.4733 218.24 29.66C217.787 28.8467 217.56 27.9267 217.56 26.9C217.56 25.8867 217.787 24.9733 218.24 24.16C218.693 23.3333 219.32 22.68 220.12 22.2C220.92 21.72 221.847 21.48 222.9 21.48C223.94 21.48 224.86 21.72 225.66 22.2C226.46 22.68 227.087 23.3333 227.54 24.16C227.993 24.9733 228.22 25.8867 228.22 26.9C228.22 27.9267 227.993 28.8467 227.54 29.66C227.087 30.4733 226.46 31.12 225.66 31.6C224.86 32.08 223.94 32.32 222.9 32.32ZM222.9 30.34C223.46 30.34 223.98 30.2067 224.46 29.94C224.94 29.66 225.327 29.2667 225.62 28.76C225.927 28.24 226.08 27.62 226.08 26.9C226.08 26.18 225.927 25.5667 225.62 25.06C225.327 24.54 224.94 24.1467 224.46 23.88C223.98 23.6 223.46 23.46 222.9 23.46C222.34 23.46 221.813 23.6 221.32 23.88C220.84 24.1467 220.447 24.54 220.14 25.06C219.847 25.5667 219.7 26.18 219.7 26.9C219.7 27.62 219.847 28.24 220.14 28.76C220.447 29.2667 220.84 29.66 221.32 29.94C221.813 30.2067 222.34 30.34 222.9 30.34ZM235.009 32.32C233.956 32.32 233.029 32.08 232.229 31.6C231.429 31.12 230.803 30.4733 230.349 29.66C229.896 28.8467 229.669 27.9267 229.669 26.9C229.669 25.8867 229.896 24.9733 230.349 24.16C230.803 23.3333 231.429 22.68 232.229 22.2C233.029 21.72 233.956 21.48 235.009 21.48C236.049 21.48 236.969 21.72 237.769 22.2C238.569 22.68 239.196 23.3333 239.649 24.16C240.103 24.9733 240.329 25.8867 240.329 26.9C240.329 27.9267 240.103 28.8467 239.649 29.66C239.196 30.4733 238.569 31.12 237.769 31.6C236.969 32.08 236.049 32.32 235.009 32.32ZM235.009 30.34C235.569 30.34 236.089 30.2067 236.569 29.94C237.049 29.66 237.436 29.2667 237.729 28.76C238.036 28.24 238.189 27.62 238.189 26.9C238.189 26.18 238.036 25.5667 237.729 25.06C237.436 24.54 237.049 24.1467 236.569 23.88C236.089 23.6 235.569 23.46 235.009 23.46C234.449 23.46 233.923 23.6 233.429 23.88C232.949 24.1467 232.556 24.54 232.249 25.06C231.956 25.5667 231.809 26.18 231.809 26.9C231.809 27.62 231.956 28.24 232.249 28.76C232.556 29.2667 232.949 29.66 233.429 29.94C233.923 30.2067 234.449 30.34 235.009 30.34ZM246.919 36.64C246.025 36.64 245.252 36.4933 244.599 36.2C243.959 35.92 243.439 35.5533 243.039 35.1C242.639 34.66 242.352 34.2067 242.179 33.74L244.179 32.9C244.392 33.4333 244.732 33.8667 245.199 34.2C245.679 34.5467 246.252 34.72 246.919 34.72C247.852 34.72 248.585 34.44 249.119 33.88C249.665 33.32 249.939 32.5267 249.939 31.5V30.52H249.819C249.499 31 249.052 31.3867 248.479 31.68C247.919 31.96 247.279 32.1 246.559 32.1C245.692 32.1 244.899 31.88 244.179 31.44C243.459 31 242.879 30.3867 242.439 29.6C241.999 28.8 241.779 27.8667 241.779 26.8C241.779 25.72 241.999 24.7867 242.439 24C242.879 23.2 243.459 22.58 244.179 22.14C244.899 21.7 245.692 21.48 246.559 21.48C247.279 21.48 247.919 21.6267 248.479 21.92C249.052 22.2133 249.499 22.6 249.819 23.08H249.939V21.8H251.999V31.46C251.999 32.5667 251.779 33.5067 251.339 34.28C250.912 35.0533 250.319 35.64 249.559 36.04C248.799 36.44 247.919 36.64 246.919 36.64ZM246.939 30.14C247.472 30.14 247.965 30.0133 248.419 29.76C248.872 29.4933 249.239 29.1133 249.519 28.62C249.799 28.1133 249.939 27.5067 249.939 26.8C249.939 26.0667 249.799 25.4533 249.519 24.96C249.239 24.4533 248.872 24.0733 248.419 23.82C247.965 23.5667 247.472 23.44 246.939 23.44C246.405 23.44 245.905 23.5733 245.439 23.84C244.985 24.0933 244.619 24.4667 244.339 24.96C244.059 25.4533 243.919 26.0667 243.919 26.8C243.919 27.52 244.059 28.1333 244.339 28.64C244.619 29.1333 244.985 29.5067 245.439 29.76C245.905 30.0133 246.405 30.14 246.939 30.14ZM254.546 32V17.68H256.706V32H254.546ZM263.815 32.32C262.815 32.32 261.921 32.0867 261.135 31.62C260.348 31.1533 259.728 30.5133 259.275 29.7C258.835 28.8867 258.615 27.96 258.615 26.92C258.615 25.9467 258.828 25.0467 259.255 24.22C259.681 23.3933 260.275 22.7333 261.035 22.24C261.808 21.7333 262.695 21.48 263.695 21.48C264.748 21.48 265.641 21.7067 266.375 22.16C267.121 22.6133 267.688 23.2333 268.075 24.02C268.461 24.8067 268.655 25.6933 268.655 26.68C268.655 26.8267 268.648 26.96 268.635 27.08C268.635 27.2 268.628 27.2933 268.615 27.36H260.735C260.841 28.3733 261.195 29.1333 261.795 29.64C262.408 30.1467 263.101 30.4 263.875 30.4C264.568 30.4 265.141 30.2467 265.595 29.94C266.048 29.62 266.408 29.2267 266.675 28.76L268.455 29.62C268.015 30.42 267.415 31.0733 266.655 31.58C265.895 32.0733 264.948 32.32 263.815 32.32ZM263.715 23.32C262.995 23.32 262.381 23.54 261.875 23.98C261.368 24.42 261.028 25.0067 260.855 25.74H266.515C266.488 25.3933 266.375 25.0333 266.175 24.66C265.975 24.2867 265.668 23.9733 265.255 23.72C264.855 23.4533 264.341 23.32 263.715 23.32ZM277.446 32L273.606 17.68H276.046L278.326 26.98L278.566 28.22H278.686L278.986 26.98L281.866 17.68H284.066L286.826 26.98L287.126 28.2H287.246L287.486 26.98L289.766 17.68H292.186L288.406 32H286.086L283.346 22.5L283.026 21.16H282.906L282.566 22.5L279.706 32H277.446ZM296.202 32.32C295.469 32.32 294.816 32.18 294.242 31.9C293.669 31.6067 293.222 31.2 292.902 30.68C292.582 30.16 292.422 29.5667 292.422 28.9C292.422 28.18 292.609 27.5667 292.982 27.06C293.369 26.54 293.882 26.1467 294.522 25.88C295.162 25.6133 295.869 25.48 296.642 25.48C297.282 25.48 297.842 25.54 298.322 25.66C298.816 25.78 299.189 25.9067 299.442 26.04V25.5C299.442 24.8333 299.202 24.3 298.722 23.9C298.242 23.5 297.622 23.3 296.862 23.3C296.342 23.3 295.849 23.42 295.382 23.66C294.916 23.8867 294.542 24.2 294.262 24.6L292.782 23.46C293.222 22.8467 293.802 22.3667 294.522 22.02C295.256 21.66 296.056 21.48 296.922 21.48C298.402 21.48 299.542 21.8467 300.342 22.58C301.142 23.3 301.542 24.3133 301.542 25.62V32H299.442V30.74H299.322C299.056 31.1533 298.656 31.52 298.122 31.84C297.589 32.16 296.949 32.32 296.202 32.32ZM296.582 30.56C297.142 30.56 297.636 30.4267 298.062 30.16C298.489 29.8933 298.822 29.5467 299.062 29.12C299.316 28.68 299.442 28.2067 299.442 27.7C299.136 27.5267 298.776 27.3867 298.362 27.28C297.949 27.16 297.509 27.1 297.042 27.1C296.162 27.1 295.536 27.28 295.162 27.64C294.789 27.9867 294.602 28.4133 294.602 28.92C294.602 29.4 294.782 29.7933 295.142 30.1C295.502 30.4067 295.982 30.56 296.582 30.56ZM303.94 32V17.68H306.1V32H303.94ZM308.667 32V17.68H310.827V32H308.667ZM317.936 32.32C316.936 32.32 316.042 32.0867 315.256 31.62C314.469 31.1533 313.849 30.5133 313.396 29.7C312.956 28.8867 312.736 27.96 312.736 26.92C312.736 25.9467 312.949 25.0467 313.376 24.22C313.802 23.3933 314.396 22.7333 315.156 22.24C315.929 21.7333 316.816 21.48 317.816 21.48C318.869 21.48 319.762 21.7067 320.496 22.16C321.242 22.6133 321.809 23.2333 322.196 24.02C322.582 24.8067 322.776 25.6933 322.776 26.68C322.776 26.8267 322.769 26.96 322.756 27.08C322.756 27.2 322.749 27.2933 322.736 27.36H314.856C314.962 28.3733 315.316 29.1333 315.916 29.64C316.529 30.1467 317.222 30.4 317.996 30.4C318.689 30.4 319.262 30.2467 319.716 29.94C320.169 29.62 320.529 29.2267 320.796 28.76L322.576 29.62C322.136 30.42 321.536 31.0733 320.776 31.58C320.016 32.0733 319.069 32.32 317.936 32.32ZM317.836 23.32C317.116 23.32 316.502 23.54 315.996 23.98C315.489 24.42 315.149 25.0067 314.976 25.74H320.636C320.609 25.3933 320.496 25.0333 320.296 24.66C320.096 24.2867 319.789 23.9733 319.376 23.72C318.976 23.4533 318.462 23.32 317.836 23.32ZM325.567 29.04V23.68H323.787V21.8H325.567V18.92H327.727V21.8H330.227V23.68H327.727V28.58C327.727 29.0867 327.827 29.4733 328.027 29.74C328.24 30.0067 328.593 30.14 329.087 30.14C329.34 30.14 329.553 30.1067 329.727 30.04C329.913 29.9733 330.1 29.88 330.287 29.76V31.86C330.06 31.9533 329.82 32.0267 329.567 32.08C329.313 32.1333 329.013 32.16 328.667 32.16C327.72 32.16 326.967 31.8867 326.407 31.34C325.847 30.78 325.567 30.0133 325.567 29.04Z" fill="white"/>
<rect x="0.5" y="0.5" width="352" height="49" rx="24.5" stroke="#747775"/>
<defs>
<linearGradient id="paint0_linear_1819_24405" x1="34.5703" y1="30.7864" x2="18.7309" y2="48.9133" gradientUnits="userSpaceOnUse">
<stop stop-color="#4285F4"/>
<stop offset="1" stop-color="#1B74E8"/>
</linearGradient>
</defs>
</svg>
