<svg width="294" height="50" viewBox="0 0 294 50" fill="none" xmlns="http://www.w3.org/2000/svg">
<rect x="0.5" y="0.5" width="293" height="49" rx="24.5" fill="#1F1F1F"/>
<path d="M51 22H21V17C21 14.2857 23.2018 12 25.8165 12H46.1835C48.7982 12 51 14.2857 51 17V22Z" fill="#34A853"/>
<path d="M51 26.0537H21V21.0537C21 18.3394 23.2018 16.0537 25.8165 16.0537H46.1835C48.7982 16.0537 51 18.3394 51 21.0537V26.0537Z" fill="#FBBC04"/>
<path d="M51 30.2468H21V25.2468C21 22.5325 23.2018 20.2468 25.8165 20.2468H46.1835C48.7982 20.2468 51 22.5325 51 25.2468V30.2468Z" fill="#EA4335"/>
<path d="M21 23.2752L40.0411 27.6789C42.2329 28.2294 44.6986 27.6789 46.4795 26.3028L51 23V33.3211C51 35.9358 48.8082 38 46.2055 38H25.7945C23.1918 38 21 35.9358 21 33.3211V23.2752Z" fill="url(#paint0_linear_1819_24880)"/>
<path d="M66.76 32.24C66.08 32.24 65.5333 32.0333 65.12 31.62C64.72 31.2067 64.52 30.66 64.52 29.98V21.2H66.62V28.08C66.7267 28.0533 66.84 28.04 66.96 28.04C67.56 28.04 68.0533 28.24 68.44 28.64C68.8267 29.0267 69.02 29.52 69.02 30.12C69.02 30.7467 68.8067 31.26 68.38 31.66C67.9533 32.0467 67.4133 32.24 66.76 32.24ZM66.78 30.94C67.0333 30.94 67.2333 30.8667 67.38 30.72C67.54 30.56 67.62 30.36 67.62 30.12C67.62 29.8667 67.54 29.6667 67.38 29.52C67.2333 29.36 67.0333 29.28 66.78 29.28C66.54 29.28 66.34 29.36 66.18 29.52C66.0333 29.6667 65.96 29.8667 65.96 30.12C65.96 30.36 66.0333 30.56 66.18 30.72C66.34 30.8667 66.54 30.94 66.78 30.94ZM71.6556 32V25.16C71.5623 25.1733 71.4623 25.18 71.3556 25.18C70.7423 25.18 70.2356 24.9867 69.8356 24.6C69.4356 24.2 69.2356 23.7 69.2356 23.1C69.2356 22.4867 69.4423 21.98 69.8556 21.58C70.2823 21.18 70.8223 20.98 71.4756 20.98C72.1423 20.98 72.6756 21.1867 73.0756 21.6C73.489 22 73.6956 22.54 73.6956 23.22V26.54L73.6356 28.68L74.2156 27.08L75.9756 22.74H77.0756L78.8356 27.08L79.3956 28.62L79.3556 26.54V21.2H81.3956V32H79.1756L76.9956 26.66L76.5356 25.4L76.0756 26.66L73.8956 32H71.6556ZM71.4356 23.94C71.6756 23.94 71.869 23.8667 72.0156 23.72C72.1756 23.56 72.2556 23.3533 72.2556 23.1C72.2556 22.86 72.1756 22.6667 72.0156 22.52C71.869 22.36 71.6756 22.28 71.4356 22.28C71.1956 22.28 70.9956 22.36 70.8356 22.52C70.689 22.6667 70.6156 22.86 70.6156 23.1C70.6156 23.3533 70.689 23.56 70.8356 23.72C70.9956 23.8667 71.1956 23.94 71.4356 23.94ZM72.2061 19.84V19.7C72.3928 18.6333 72.9061 17.7867 73.7461 17.16C74.5728 16.52 75.5861 16.2 76.7861 16.2C77.9994 16.2 79.0261 16.52 79.8661 17.16C80.6928 17.7867 81.1994 18.6333 81.3861 19.7V19.84H72.2061ZM74.4061 18.68H79.1861C79.0528 18.3067 78.7728 18.0067 78.3461 17.78C77.9061 17.5533 77.3861 17.44 76.7861 17.44C76.1994 17.44 75.6928 17.5533 75.2661 17.78C74.8261 18.0067 74.5394 18.3067 74.4061 18.68ZM79.4056 14.78L79.2056 11.82H81.2656L81.0656 14.78H79.4056ZM86.0061 32.22C85.3261 32.22 84.7661 32.0067 84.3261 31.58C83.8861 31.1533 83.6661 30.6 83.6661 29.92C83.6661 29.2533 83.8794 28.7067 84.3061 28.28C84.7461 27.8533 85.2994 27.64 85.9661 27.64C86.0061 27.64 86.0394 27.64 86.0661 27.64V25.16C85.9594 25.1733 85.8528 25.18 85.7461 25.18C85.1328 25.18 84.6261 24.9867 84.2261 24.6C83.8261 24.2 83.6261 23.7 83.6261 23.1C83.6261 22.4867 83.8394 21.98 84.2661 21.58C84.6928 21.18 85.2328 20.98 85.8861 20.98C86.5661 20.98 87.1061 21.1867 87.5061 21.6C87.9061 22.0133 88.1061 22.56 88.1061 23.24V28L91.5861 30V21.2H93.6861V32H91.7461L88.3461 30.04C88.3194 30.68 88.0861 31.2067 87.6461 31.62C87.2194 32.02 86.6728 32.22 86.0061 32.22ZM85.8461 23.94C86.0861 23.94 86.2794 23.8667 86.4261 23.72C86.5861 23.56 86.6661 23.3533 86.6661 23.1C86.6661 22.86 86.5861 22.6667 86.4261 22.52C86.2794 22.36 86.0861 22.28 85.8461 22.28C85.6061 22.28 85.4061 22.36 85.2461 22.52C85.0994 22.6667 85.0261 22.86 85.0261 23.1C85.0261 23.3533 85.0994 23.56 85.2461 23.72C85.4061 23.8667 85.6061 23.94 85.8461 23.94ZM86.0061 30.86C86.2594 30.86 86.4728 30.7733 86.6461 30.6C86.8194 30.4267 86.9061 30.2 86.9061 29.92C86.9061 29.64 86.8194 29.4133 86.6461 29.24C86.4728 29.0667 86.2594 28.98 86.0061 28.98C85.7394 28.98 85.5194 29.0667 85.3461 29.24C85.1861 29.4133 85.1061 29.64 85.1061 29.92C85.1061 30.2 85.1861 30.4267 85.3461 30.6C85.5194 30.7733 85.7394 30.86 86.0061 30.86ZM99.7108 32.24C99.0308 32.24 98.4841 32.0333 98.0708 31.62C97.6574 31.2067 97.4508 30.66 97.4508 29.98V22.08C97.4508 21.52 97.5374 21.0067 97.7108 20.54C97.8974 20.06 98.1241 19.6133 98.3908 19.2C98.6574 18.7867 98.9241 18.3933 99.1908 18.02C99.4574 17.6467 99.6774 17.2933 99.8508 16.96C100.037 16.6133 100.131 16.2733 100.131 15.94C100.131 15.6467 100.057 15.42 99.9108 15.26C99.7774 15.1 99.6108 15.0133 99.4108 15L97.4508 17.52H96.0308L93.9308 13.6V13.4H95.8708L96.9508 15.66L98.6108 13.4H99.3508C100.191 13.4 100.831 13.6467 101.271 14.14C101.724 14.62 101.951 15.22 101.951 15.94C101.951 16.5267 101.831 17.0667 101.591 17.56C101.351 18.04 101.071 18.5133 100.751 18.98C100.431 19.4467 100.151 19.9333 99.9108 20.44C99.6708 20.9333 99.5508 21.4867 99.5508 22.1V28.08C99.6708 28.0533 99.7908 28.04 99.9108 28.04C100.511 28.04 100.997 28.24 101.371 28.64C101.757 29.0267 101.951 29.52 101.951 30.12C101.951 30.7467 101.737 31.26 101.311 31.66C100.897 32.0467 100.364 32.24 99.7108 32.24ZM99.7308 30.94C99.9708 30.94 100.171 30.8667 100.331 30.72C100.491 30.56 100.571 30.36 100.571 30.12C100.571 29.8667 100.491 29.6667 100.331 29.52C100.171 29.36 99.9708 29.28 99.7308 29.28C99.4908 29.28 99.2908 29.36 99.1308 29.52C98.9841 29.6667 98.9108 29.8667 98.9108 30.12C98.9108 30.36 98.9841 30.56 99.1308 30.72C99.2908 30.8667 99.4908 30.94 99.7308 30.94ZM104.604 32V25.16C104.511 25.1733 104.418 25.18 104.324 25.18C103.711 25.18 103.204 24.9867 102.804 24.6C102.404 24.2 102.204 23.7 102.204 23.1C102.204 22.4867 102.418 21.98 102.844 21.58C103.271 21.18 103.811 20.98 104.464 20.98C105.144 20.98 105.684 21.1867 106.084 21.6C106.484 22.0133 106.684 22.56 106.684 23.24V30.24H111.104V17.6H113.204V32H104.604ZM104.424 23.94C104.664 23.94 104.858 23.8667 105.004 23.72C105.164 23.56 105.244 23.3533 105.244 23.1C105.244 22.86 105.164 22.6667 105.004 22.52C104.858 22.36 104.664 22.28 104.424 22.28C104.184 22.28 103.984 22.36 103.824 22.52C103.678 22.6667 103.604 22.86 103.604 23.1C103.604 23.3533 103.678 23.56 103.824 23.72C103.984 23.8667 104.184 23.94 104.424 23.94ZM116.223 32V28.92C116.223 27.9067 116.636 27.2667 117.463 27V26.92C116.903 26.7333 116.443 26.3467 116.083 25.76C115.723 25.1733 115.543 24.5267 115.543 23.82C115.543 22.98 115.789 22.3 116.283 21.78C116.789 21.26 117.436 21 118.223 21C118.903 21 119.449 21.1933 119.863 21.58C120.289 21.9667 120.503 22.46 120.503 23.06C120.503 23.6333 120.323 24.1067 119.963 24.48C119.603 24.84 119.129 25.02 118.543 25.02C118.183 25.02 117.876 24.9333 117.623 24.76C117.743 25.1867 117.949 25.4933 118.243 25.68C118.549 25.8533 118.983 25.94 119.543 25.94H121.023V27.48H119.863C118.823 27.48 118.303 27.9933 118.303 29.02V30.24H123.003V21.2H125.103V32H116.223ZM118.283 23.9C118.523 23.9 118.716 23.8267 118.863 23.68C119.023 23.52 119.103 23.3133 119.103 23.06C119.103 22.82 119.023 22.6267 118.863 22.48C118.716 22.32 118.523 22.24 118.283 22.24C118.043 22.24 117.843 22.32 117.683 22.48C117.536 22.6267 117.463 22.82 117.463 23.06C117.463 23.3133 117.536 23.52 117.683 23.68C117.843 23.8267 118.043 23.9 118.283 23.9ZM123.277 19.98C122.197 19.98 121.33 19.7667 120.677 19.34C120.024 18.9133 119.697 18.34 119.697 17.62C119.697 17.0867 119.87 16.6533 120.217 16.32C120.564 15.9867 121.01 15.82 121.557 15.82C122.09 15.82 122.53 15.98 122.877 16.3C123.224 16.6067 123.397 17 123.397 17.48C123.397 17.92 123.25 18.2667 122.957 18.52C123.05 18.5333 123.15 18.54 123.257 18.54C124.657 18.54 125.624 17.7533 126.157 16.18L127.897 16.88C127.55 17.88 126.984 18.6467 126.197 19.18C125.41 19.7133 124.437 19.98 123.277 19.98ZM121.557 18.26C121.744 18.26 121.904 18.1933 122.037 18.06C122.17 17.9267 122.237 17.76 122.237 17.56C122.237 17.36 122.17 17.2 122.037 17.08C121.904 16.9467 121.744 16.88 121.557 16.88C121.357 16.88 121.19 16.9467 121.057 17.08C120.924 17.2 120.857 17.36 120.857 17.56C120.857 17.76 120.924 17.9267 121.057 18.06C121.19 18.1933 121.357 18.26 121.557 18.26ZM129.898 32L126.778 25.04L128.738 24.28L131.298 30.24H133.018V25.16C132.924 25.1733 132.831 25.18 132.738 25.18C132.111 25.18 131.598 24.9867 131.198 24.6C130.798 24.2 130.598 23.7 130.598 23.1C130.598 22.4867 130.811 21.98 131.238 21.58C131.664 21.18 132.204 20.98 132.858 20.98C133.538 20.98 134.078 21.1867 134.478 21.6C134.878 22 135.078 22.54 135.078 23.22V32H129.898ZM132.818 23.94C133.058 23.94 133.251 23.8667 133.398 23.72C133.558 23.56 133.638 23.3533 133.638 23.1C133.638 22.86 133.558 22.6667 133.398 22.52C133.251 22.36 133.058 22.28 132.818 22.28C132.578 22.28 132.378 22.36 132.218 22.52C132.071 22.6667 131.998 22.86 131.998 23.1C131.998 23.3533 132.071 23.56 132.218 23.72C132.378 23.8667 132.578 23.94 132.818 23.94Z" fill="white"/>
<path d="M150.4 32.32C149.373 32.32 148.407 32.1333 147.5 31.76C146.607 31.3867 145.813 30.8667 145.12 30.2C144.427 29.52 143.88 28.7267 143.48 27.82C143.093 26.9 142.9 25.9067 142.9 24.84C142.9 23.7733 143.093 22.7867 143.48 21.88C143.88 20.96 144.42 20.1667 145.1 19.5C145.793 18.82 146.593 18.2933 147.5 17.92C148.407 17.5467 149.373 17.36 150.4 17.36C151.493 17.36 152.5 17.5533 153.42 17.94C154.353 18.3267 155.133 18.8667 155.76 19.56L154.24 21.06C153.773 20.54 153.213 20.14 152.56 19.86C151.92 19.58 151.2 19.44 150.4 19.44C149.453 19.44 148.58 19.6667 147.78 20.12C146.98 20.56 146.333 21.1867 145.84 22C145.36 22.8 145.12 23.7467 145.12 24.84C145.12 25.9333 145.367 26.8867 145.86 27.7C146.353 28.5 147 29.1267 147.8 29.58C148.6 30.02 149.473 30.24 150.42 30.24C151.287 30.24 152.073 30.08 152.78 29.76C153.487 29.4267 154.053 28.96 154.48 28.36C154.92 27.76 155.187 27.04 155.28 26.2H150.38V24.26H157.34C157.42 24.62 157.46 25 157.46 25.4V25.42C157.46 26.8067 157.153 28.02 156.54 29.06C155.94 30.0867 155.107 30.8867 154.04 31.46C152.973 32.0333 151.76 32.32 150.4 32.32ZM163.9 32.32C162.847 32.32 161.92 32.08 161.12 31.6C160.32 31.12 159.693 30.4733 159.24 29.66C158.787 28.8467 158.56 27.9267 158.56 26.9C158.56 25.8867 158.787 24.9733 159.24 24.16C159.693 23.3333 160.32 22.68 161.12 22.2C161.92 21.72 162.847 21.48 163.9 21.48C164.94 21.48 165.86 21.72 166.66 22.2C167.46 22.68 168.087 23.3333 168.54 24.16C168.993 24.9733 169.22 25.8867 169.22 26.9C169.22 27.9267 168.993 28.8467 168.54 29.66C168.087 30.4733 167.46 31.12 166.66 31.6C165.86 32.08 164.94 32.32 163.9 32.32ZM163.9 30.34C164.46 30.34 164.98 30.2067 165.46 29.94C165.94 29.66 166.327 29.2667 166.62 28.76C166.927 28.24 167.08 27.62 167.08 26.9C167.08 26.18 166.927 25.5667 166.62 25.06C166.327 24.54 165.94 24.1467 165.46 23.88C164.98 23.6 164.46 23.46 163.9 23.46C163.34 23.46 162.813 23.6 162.32 23.88C161.84 24.1467 161.447 24.54 161.14 25.06C160.847 25.5667 160.7 26.18 160.7 26.9C160.7 27.62 160.847 28.24 161.14 28.76C161.447 29.2667 161.84 29.66 162.32 29.94C162.813 30.2067 163.34 30.34 163.9 30.34ZM176.009 32.32C174.956 32.32 174.029 32.08 173.229 31.6C172.429 31.12 171.803 30.4733 171.349 29.66C170.896 28.8467 170.669 27.9267 170.669 26.9C170.669 25.8867 170.896 24.9733 171.349 24.16C171.803 23.3333 172.429 22.68 173.229 22.2C174.029 21.72 174.956 21.48 176.009 21.48C177.049 21.48 177.969 21.72 178.769 22.2C179.569 22.68 180.196 23.3333 180.649 24.16C181.103 24.9733 181.329 25.8867 181.329 26.9C181.329 27.9267 181.103 28.8467 180.649 29.66C180.196 30.4733 179.569 31.12 178.769 31.6C177.969 32.08 177.049 32.32 176.009 32.32ZM176.009 30.34C176.569 30.34 177.089 30.2067 177.569 29.94C178.049 29.66 178.436 29.2667 178.729 28.76C179.036 28.24 179.189 27.62 179.189 26.9C179.189 26.18 179.036 25.5667 178.729 25.06C178.436 24.54 178.049 24.1467 177.569 23.88C177.089 23.6 176.569 23.46 176.009 23.46C175.449 23.46 174.923 23.6 174.429 23.88C173.949 24.1467 173.556 24.54 173.249 25.06C172.956 25.5667 172.809 26.18 172.809 26.9C172.809 27.62 172.956 28.24 173.249 28.76C173.556 29.2667 173.949 29.66 174.429 29.94C174.923 30.2067 175.449 30.34 176.009 30.34ZM187.919 36.64C187.025 36.64 186.252 36.4933 185.599 36.2C184.959 35.92 184.439 35.5533 184.039 35.1C183.639 34.66 183.352 34.2067 183.179 33.74L185.179 32.9C185.392 33.4333 185.732 33.8667 186.199 34.2C186.679 34.5467 187.252 34.72 187.919 34.72C188.852 34.72 189.585 34.44 190.119 33.88C190.665 33.32 190.939 32.5267 190.939 31.5V30.52H190.819C190.499 31 190.052 31.3867 189.479 31.68C188.919 31.96 188.279 32.1 187.559 32.1C186.692 32.1 185.899 31.88 185.179 31.44C184.459 31 183.879 30.3867 183.439 29.6C182.999 28.8 182.779 27.8667 182.779 26.8C182.779 25.72 182.999 24.7867 183.439 24C183.879 23.2 184.459 22.58 185.179 22.14C185.899 21.7 186.692 21.48 187.559 21.48C188.279 21.48 188.919 21.6267 189.479 21.92C190.052 22.2133 190.499 22.6 190.819 23.08H190.939V21.8H192.999V31.46C192.999 32.5667 192.779 33.5067 192.339 34.28C191.912 35.0533 191.319 35.64 190.559 36.04C189.799 36.44 188.919 36.64 187.919 36.64ZM187.939 30.14C188.472 30.14 188.965 30.0133 189.419 29.76C189.872 29.4933 190.239 29.1133 190.519 28.62C190.799 28.1133 190.939 27.5067 190.939 26.8C190.939 26.0667 190.799 25.4533 190.519 24.96C190.239 24.4533 189.872 24.0733 189.419 23.82C188.965 23.5667 188.472 23.44 187.939 23.44C187.405 23.44 186.905 23.5733 186.439 23.84C185.985 24.0933 185.619 24.4667 185.339 24.96C185.059 25.4533 184.919 26.0667 184.919 26.8C184.919 27.52 185.059 28.1333 185.339 28.64C185.619 29.1333 185.985 29.5067 186.439 29.76C186.905 30.0133 187.405 30.14 187.939 30.14ZM195.546 32V17.68H197.706V32H195.546ZM204.815 32.32C203.815 32.32 202.921 32.0867 202.135 31.62C201.348 31.1533 200.728 30.5133 200.275 29.7C199.835 28.8867 199.615 27.96 199.615 26.92C199.615 25.9467 199.828 25.0467 200.255 24.22C200.681 23.3933 201.275 22.7333 202.035 22.24C202.808 21.7333 203.695 21.48 204.695 21.48C205.748 21.48 206.641 21.7067 207.375 22.16C208.121 22.6133 208.688 23.2333 209.075 24.02C209.461 24.8067 209.655 25.6933 209.655 26.68C209.655 26.8267 209.648 26.96 209.635 27.08C209.635 27.2 209.628 27.2933 209.615 27.36H201.735C201.841 28.3733 202.195 29.1333 202.795 29.64C203.408 30.1467 204.101 30.4 204.875 30.4C205.568 30.4 206.141 30.2467 206.595 29.94C207.048 29.62 207.408 29.2267 207.675 28.76L209.455 29.62C209.015 30.42 208.415 31.0733 207.655 31.58C206.895 32.0733 205.948 32.32 204.815 32.32ZM204.715 23.32C203.995 23.32 203.381 23.54 202.875 23.98C202.368 24.42 202.028 25.0067 201.855 25.74H207.515C207.488 25.3933 207.375 25.0333 207.175 24.66C206.975 24.2867 206.668 23.9733 206.255 23.72C205.855 23.4533 205.341 23.32 204.715 23.32ZM218.446 32L214.606 17.68H217.046L219.326 26.98L219.566 28.22H219.686L219.986 26.98L222.866 17.68H225.066L227.826 26.98L228.126 28.2H228.246L228.486 26.98L230.766 17.68H233.186L229.406 32H227.086L224.346 22.5L224.026 21.16H223.906L223.566 22.5L220.706 32H218.446ZM237.202 32.32C236.469 32.32 235.816 32.18 235.242 31.9C234.669 31.6067 234.222 31.2 233.902 30.68C233.582 30.16 233.422 29.5667 233.422 28.9C233.422 28.18 233.609 27.5667 233.982 27.06C234.369 26.54 234.882 26.1467 235.522 25.88C236.162 25.6133 236.869 25.48 237.642 25.48C238.282 25.48 238.842 25.54 239.322 25.66C239.816 25.78 240.189 25.9067 240.442 26.04V25.5C240.442 24.8333 240.202 24.3 239.722 23.9C239.242 23.5 238.622 23.3 237.862 23.3C237.342 23.3 236.849 23.42 236.382 23.66C235.916 23.8867 235.542 24.2 235.262 24.6L233.782 23.46C234.222 22.8467 234.802 22.3667 235.522 22.02C236.256 21.66 237.056 21.48 237.922 21.48C239.402 21.48 240.542 21.8467 241.342 22.58C242.142 23.3 242.542 24.3133 242.542 25.62V32H240.442V30.74H240.322C240.056 31.1533 239.656 31.52 239.122 31.84C238.589 32.16 237.949 32.32 237.202 32.32ZM237.582 30.56C238.142 30.56 238.636 30.4267 239.062 30.16C239.489 29.8933 239.822 29.5467 240.062 29.12C240.316 28.68 240.442 28.2067 240.442 27.7C240.136 27.5267 239.776 27.3867 239.362 27.28C238.949 27.16 238.509 27.1 238.042 27.1C237.162 27.1 236.536 27.28 236.162 27.64C235.789 27.9867 235.602 28.4133 235.602 28.92C235.602 29.4 235.782 29.7933 236.142 30.1C236.502 30.4067 236.982 30.56 237.582 30.56ZM244.94 32V17.68H247.1V32H244.94ZM249.667 32V17.68H251.827V32H249.667ZM258.936 32.32C257.936 32.32 257.042 32.0867 256.256 31.62C255.469 31.1533 254.849 30.5133 254.396 29.7C253.956 28.8867 253.736 27.96 253.736 26.92C253.736 25.9467 253.949 25.0467 254.376 24.22C254.802 23.3933 255.396 22.7333 256.156 22.24C256.929 21.7333 257.816 21.48 258.816 21.48C259.869 21.48 260.762 21.7067 261.496 22.16C262.242 22.6133 262.809 23.2333 263.196 24.02C263.582 24.8067 263.776 25.6933 263.776 26.68C263.776 26.8267 263.769 26.96 263.756 27.08C263.756 27.2 263.749 27.2933 263.736 27.36H255.856C255.962 28.3733 256.316 29.1333 256.916 29.64C257.529 30.1467 258.222 30.4 258.996 30.4C259.689 30.4 260.262 30.2467 260.716 29.94C261.169 29.62 261.529 29.2267 261.796 28.76L263.576 29.62C263.136 30.42 262.536 31.0733 261.776 31.58C261.016 32.0733 260.069 32.32 258.936 32.32ZM258.836 23.32C258.116 23.32 257.502 23.54 256.996 23.98C256.489 24.42 256.149 25.0067 255.976 25.74H261.636C261.609 25.3933 261.496 25.0333 261.296 24.66C261.096 24.2867 260.789 23.9733 260.376 23.72C259.976 23.4533 259.462 23.32 258.836 23.32ZM266.567 29.04V23.68H264.787V21.8H266.567V18.92H268.727V21.8H271.227V23.68H268.727V28.58C268.727 29.0867 268.827 29.4733 269.027 29.74C269.24 30.0067 269.593 30.14 270.087 30.14C270.34 30.14 270.553 30.1067 270.727 30.04C270.913 29.9733 271.1 29.88 271.287 29.76V31.86C271.06 31.9533 270.82 32.0267 270.567 32.08C270.313 32.1333 270.013 32.16 269.667 32.16C268.72 32.16 267.967 31.8867 267.407 31.34C266.847 30.78 266.567 30.0133 266.567 29.04Z" fill="white"/>
<rect x="0.5" y="0.5" width="293" height="49" rx="24.5" stroke="#747775"/>
<defs>
<linearGradient id="paint0_linear_1819_24880" x1="34.5703" y1="30.7864" x2="18.7309" y2="48.9133" gradientUnits="userSpaceOnUse">
<stop stop-color="#4285F4"/>
<stop offset="1" stop-color="#1B74E8"/>
</linearGradient>
</defs>
</svg>
