<svg width="470" height="50" viewBox="0 0 470 50" fill="none" xmlns="http://www.w3.org/2000/svg">
<rect x="0.5" y="0.5" width="469" height="49" rx="24.5" fill="#1F1F1F"/>
<path d="M51 22H21V17C21 14.2857 23.2018 12 25.8165 12H46.1835C48.7982 12 51 14.2857 51 17V22Z" fill="#34A853"/>
<path d="M51 26.0537H21V21.0537C21 18.3394 23.2018 16.0537 25.8165 16.0537H46.1835C48.7982 16.0537 51 18.3394 51 21.0537V26.0537Z" fill="#FBBC04"/>
<path d="M51 30.2468H21V25.2468C21 22.5325 23.2018 20.2468 25.8165 20.2468H46.1835C48.7982 20.2468 51 22.5325 51 25.2468V30.2468Z" fill="#EA4335"/>
<path d="M21 23.2752L40.0411 27.6789C42.2329 28.2294 44.6986 27.6789 46.4795 26.3028L51 23V33.3211C51 35.9358 48.8082 38 46.2055 38H25.7945C23.1918 38 21 35.9358 21 33.3211V23.2752Z" fill="url(#paint0_linear_1819_24386)"/>
<path d="M64.62 32V17.68H66.82V23.64H73.52V17.68H75.7V32H73.52V25.72H66.82V32H64.62ZM83.1811 32.32C82.1278 32.32 81.2011 32.08 80.4011 31.6C79.6011 31.12 78.9744 30.4733 78.5211 29.66C78.0678 28.8467 77.8411 27.9267 77.8411 26.9C77.8411 25.8867 78.0678 24.9733 78.5211 24.16C78.9744 23.3333 79.6011 22.68 80.4011 22.2C81.2011 21.72 82.1278 21.48 83.1811 21.48C84.2211 21.48 85.1411 21.72 85.9411 22.2C86.7411 22.68 87.3678 23.3333 87.8211 24.16C88.2744 24.9733 88.5011 25.8867 88.5011 26.9C88.5011 27.9267 88.2744 28.8467 87.8211 29.66C87.3678 30.4733 86.7411 31.12 85.9411 31.6C85.1411 32.08 84.2211 32.32 83.1811 32.32ZM83.1811 30.34C83.7411 30.34 84.2611 30.2067 84.7411 29.94C85.2211 29.66 85.6078 29.2667 85.9011 28.76C86.2078 28.24 86.3611 27.62 86.3611 26.9C86.3611 26.18 86.2078 25.5667 85.9011 25.06C85.6078 24.54 85.2211 24.1467 84.7411 23.88C84.2611 23.6 83.7411 23.46 83.1811 23.46C82.6211 23.46 82.0944 23.6 81.6011 23.88C81.1211 24.1467 80.7278 24.54 80.4211 25.06C80.1278 25.5667 79.9811 26.18 79.9811 26.9C79.9811 27.62 80.1278 28.24 80.4211 28.76C80.7278 29.2667 81.1211 29.66 81.6011 29.94C82.0944 30.2067 82.6211 30.34 83.1811 30.34ZM89.7752 32V30.2L95.4552 23.68H89.9552V21.8H98.0952V23.6L92.4352 30.12H98.2552V32H89.7752ZM99.7556 32V30.2L105.436 23.68H99.9356V21.8H108.076V23.6L102.416 30.12H108.236V32H99.7556ZM113.261 32.32C112.527 32.32 111.874 32.18 111.301 31.9C110.727 31.6067 110.281 31.2 109.961 30.68C109.641 30.16 109.481 29.5667 109.481 28.9C109.481 28.18 109.667 27.5667 110.041 27.06C110.427 26.54 110.941 26.1467 111.581 25.88C112.221 25.6133 112.927 25.48 113.701 25.48C114.341 25.48 114.901 25.54 115.381 25.66C115.874 25.78 116.247 25.9067 116.501 26.04V25.5C116.501 24.8333 116.261 24.3 115.781 23.9C115.301 23.5 114.681 23.3 113.921 23.3C113.401 23.3 112.907 23.42 112.441 23.66C111.974 23.8867 111.601 24.2 111.321 24.6L109.841 23.46C110.281 22.8467 110.861 22.3667 111.581 22.02C112.314 21.66 113.114 21.48 113.981 21.48C115.461 21.48 116.601 21.8467 117.401 22.58C118.201 23.3 118.601 24.3133 118.601 25.62V32H116.501V30.74H116.381C116.114 31.1533 115.714 31.52 115.181 31.84C114.647 32.16 114.007 32.32 113.261 32.32ZM113.641 30.56C114.201 30.56 114.694 30.4267 115.121 30.16C115.547 29.8933 115.881 29.5467 116.121 29.12C116.374 28.68 116.501 28.2067 116.501 27.7C116.194 27.5267 115.834 27.3867 115.421 27.28C115.007 27.16 114.567 27.1 114.101 27.1C113.221 27.1 112.594 27.28 112.221 27.64C111.847 27.9867 111.661 28.4133 111.661 28.92C111.661 29.4 111.841 29.7933 112.201 30.1C112.561 30.4067 113.041 30.56 113.641 30.56ZM113.181 19.84L114.121 17.28H116.561L114.961 19.84H113.181ZM124.081 32.32C123.348 32.32 122.694 32.18 122.121 31.9C121.548 31.6067 121.101 31.2 120.781 30.68C120.461 30.16 120.301 29.5667 120.301 28.9C120.301 28.18 120.488 27.5667 120.861 27.06C121.248 26.54 121.761 26.1467 122.401 25.88C123.041 25.6133 123.748 25.48 124.521 25.48C125.161 25.48 125.721 25.54 126.201 25.66C126.694 25.78 127.068 25.9067 127.321 26.04V25.5C127.321 24.8333 127.081 24.3 126.601 23.9C126.121 23.5 125.501 23.3 124.741 23.3C124.221 23.3 123.728 23.42 123.261 23.66C122.794 23.8867 122.421 24.2 122.141 24.6L120.661 23.46C121.101 22.8467 121.681 22.3667 122.401 22.02C123.134 21.66 123.934 21.48 124.801 21.48C126.281 21.48 127.421 21.8467 128.221 22.58C129.021 23.3 129.421 24.3133 129.421 25.62V32H127.321V30.74H127.201C126.934 31.1533 126.534 31.52 126.001 31.84C125.468 32.16 124.828 32.32 124.081 32.32ZM124.461 30.56C125.021 30.56 125.514 30.4267 125.941 30.16C126.368 29.8933 126.701 29.5467 126.941 29.12C127.194 28.68 127.321 28.2067 127.321 27.7C127.014 27.5267 126.654 27.3867 126.241 27.28C125.828 27.16 125.388 27.1 124.921 27.1C124.041 27.1 123.414 27.28 123.041 27.64C122.668 27.9867 122.481 28.4133 122.481 28.92C122.481 29.4 122.661 29.7933 123.021 30.1C123.381 30.4067 123.861 30.56 124.461 30.56ZM136.061 32.32C135.141 32.32 134.308 32.0933 133.561 31.64C132.828 31.1733 132.241 30.5333 131.801 29.72C131.375 28.8933 131.161 27.9533 131.161 26.9C131.161 25.8467 131.375 24.9133 131.801 24.1C132.241 23.2867 132.828 22.6467 133.561 22.18C134.308 21.7133 135.141 21.48 136.061 21.48C136.848 21.48 137.521 21.6533 138.081 22C138.655 22.3467 139.075 22.74 139.341 23.18H139.461L139.341 21.76V17.68H141.481V32H139.461V30.64H139.341C139.075 31.08 138.655 31.4733 138.081 31.82C137.521 32.1533 136.848 32.32 136.061 32.32ZM136.381 30.34C136.915 30.34 137.415 30.2 137.881 29.92C138.361 29.64 138.741 29.2467 139.021 28.74C139.315 28.22 139.461 27.6067 139.461 26.9C139.461 26.1933 139.315 25.5867 139.021 25.08C138.741 24.56 138.361 24.16 137.881 23.88C137.415 23.6 136.915 23.46 136.381 23.46C135.848 23.46 135.348 23.6 134.881 23.88C134.415 24.16 134.035 24.56 133.741 25.08C133.448 25.5867 133.301 26.1933 133.301 26.9C133.301 27.6067 133.448 28.22 133.741 28.74C134.035 29.2467 134.415 29.64 134.881 29.92C135.348 30.2 135.848 30.34 136.381 30.34ZM147.128 32.32C146.395 32.32 145.741 32.18 145.168 31.9C144.595 31.6067 144.148 31.2 143.828 30.68C143.508 30.16 143.348 29.5667 143.348 28.9C143.348 28.18 143.535 27.5667 143.908 27.06C144.295 26.54 144.808 26.1467 145.448 25.88C146.088 25.6133 146.795 25.48 147.568 25.48C148.208 25.48 148.768 25.54 149.248 25.66C149.741 25.78 150.115 25.9067 150.368 26.04V25.5C150.368 24.8333 150.128 24.3 149.648 23.9C149.168 23.5 148.548 23.3 147.788 23.3C147.268 23.3 146.775 23.42 146.308 23.66C145.841 23.8867 145.468 24.2 145.188 24.6L143.708 23.46C144.148 22.8467 144.728 22.3667 145.448 22.02C146.181 21.66 146.981 21.48 147.848 21.48C149.328 21.48 150.468 21.8467 151.268 22.58C152.068 23.3 152.468 24.3133 152.468 25.62V32H150.368V30.74H150.248C149.981 31.1533 149.581 31.52 149.048 31.84C148.515 32.16 147.875 32.32 147.128 32.32ZM147.508 30.56C148.068 30.56 148.561 30.4267 148.988 30.16C149.415 29.8933 149.748 29.5467 149.988 29.12C150.241 28.68 150.368 28.2067 150.368 27.7C150.061 27.5267 149.701 27.3867 149.288 27.28C148.875 27.16 148.435 27.1 147.968 27.1C147.088 27.1 146.461 27.28 146.088 27.64C145.715 27.9867 145.528 28.4133 145.528 28.92C145.528 29.4 145.708 29.7933 146.068 30.1C146.428 30.4067 146.908 30.56 147.508 30.56ZM147.048 19.84L147.988 17.28H150.428L148.828 19.84H147.048ZM158.468 32.32C157.242 32.32 156.262 32.0533 155.528 31.52C154.795 30.9733 154.288 30.3267 154.008 29.58L155.948 28.74C156.188 29.2867 156.535 29.7067 156.988 30C157.442 30.28 157.955 30.42 158.528 30.42C159.062 30.42 159.522 30.3267 159.908 30.14C160.295 29.94 160.488 29.62 160.488 29.18C160.488 28.7533 160.295 28.44 159.908 28.24C159.522 28.04 159.042 27.8667 158.468 27.72L157.248 27.44C156.755 27.32 156.295 27.1333 155.868 26.88C155.442 26.6267 155.095 26.3 154.828 25.9C154.562 25.4867 154.428 25.0067 154.428 24.46C154.428 23.86 154.608 23.34 154.968 22.9C155.328 22.4467 155.802 22.1 156.388 21.86C156.988 21.6067 157.635 21.48 158.328 21.48C159.275 21.48 160.102 21.6667 160.808 22.04C161.528 22.4 162.055 22.9467 162.388 23.68L160.528 24.52C160.288 24.0667 159.975 23.7533 159.588 23.58C159.215 23.3933 158.802 23.3 158.348 23.3C157.842 23.3 157.415 23.4067 157.068 23.62C156.735 23.8333 156.568 24.1 156.568 24.42C156.568 24.7667 156.715 25.04 157.008 25.24C157.315 25.44 157.688 25.6 158.128 25.72L159.608 26.08C160.622 26.3333 161.382 26.72 161.888 27.24C162.395 27.7467 162.648 28.3667 162.648 29.1C162.648 29.7533 162.462 30.3267 162.088 30.82C161.715 31.3 161.208 31.6733 160.568 31.94C159.942 32.1933 159.242 32.32 158.468 32.32ZM172.401 32.32C171.668 32.32 171.015 32.18 170.441 31.9C169.868 31.6067 169.421 31.2 169.101 30.68C168.781 30.16 168.621 29.5667 168.621 28.9C168.621 28.18 168.808 27.5667 169.181 27.06C169.568 26.54 170.081 26.1467 170.721 25.88C171.361 25.6133 172.068 25.48 172.841 25.48C173.481 25.48 174.041 25.54 174.521 25.66C175.015 25.78 175.388 25.9067 175.641 26.04V25.5C175.641 24.8333 175.401 24.3 174.921 23.9C174.441 23.5 173.821 23.3 173.061 23.3C172.541 23.3 172.048 23.42 171.581 23.66C171.115 23.8867 170.741 24.2 170.461 24.6L168.981 23.46C169.421 22.8467 170.001 22.3667 170.721 22.02C171.455 21.66 172.255 21.48 173.121 21.48C174.601 21.48 175.741 21.8467 176.541 22.58C177.341 23.3 177.741 24.3133 177.741 25.62V32H175.641V30.74H175.521C175.255 31.1533 174.855 31.52 174.321 31.84C173.788 32.16 173.148 32.32 172.401 32.32ZM172.781 30.56C173.341 30.56 173.835 30.4267 174.261 30.16C174.688 29.8933 175.021 29.5467 175.261 29.12C175.515 28.68 175.641 28.2067 175.641 27.7C175.335 27.5267 174.975 27.3867 174.561 27.28C174.148 27.16 173.708 27.1 173.241 27.1C172.361 27.1 171.735 27.28 171.361 27.64C170.988 27.9867 170.801 28.4133 170.801 28.92C170.801 29.4 170.981 29.7933 171.341 30.1C171.701 30.4067 172.181 30.56 172.781 30.56ZM184.787 32V17.68H186.947V26.12L191.267 21.8H193.947V21.92L190.007 25.82L194.087 31.88V32H191.527L188.487 27.32L186.947 28.84V32H184.787ZM199.939 32.32C198.886 32.32 197.959 32.08 197.159 31.6C196.359 31.12 195.732 30.4733 195.279 29.66C194.826 28.8467 194.599 27.9267 194.599 26.9C194.599 25.8867 194.826 24.9733 195.279 24.16C195.732 23.3333 196.359 22.68 197.159 22.2C197.959 21.72 198.886 21.48 199.939 21.48C200.979 21.48 201.899 21.72 202.699 22.2C203.499 22.68 204.126 23.3333 204.579 24.16C205.032 24.9733 205.259 25.8867 205.259 26.9C205.259 27.9267 205.032 28.8467 204.579 29.66C204.126 30.4733 203.499 31.12 202.699 31.6C201.899 32.08 200.979 32.32 199.939 32.32ZM199.939 30.34C200.499 30.34 201.019 30.2067 201.499 29.94C201.979 29.66 202.366 29.2667 202.659 28.76C202.966 28.24 203.119 27.62 203.119 26.9C203.119 26.18 202.966 25.5667 202.659 25.06C202.366 24.54 201.979 24.1467 201.499 23.88C201.019 23.6 200.499 23.46 199.939 23.46C199.379 23.46 198.852 23.6 198.359 23.88C197.879 24.1467 197.486 24.54 197.179 25.06C196.886 25.5667 196.739 26.18 196.739 26.9C196.739 27.62 196.886 28.24 197.179 28.76C197.486 29.2667 197.879 29.66 198.359 29.94C198.852 30.2067 199.379 30.34 199.939 30.34ZM201.699 19.72C201.366 19.72 201.072 19.6 200.819 19.36C200.579 19.1067 200.459 18.8067 200.459 18.46C200.459 18.1133 200.579 17.8267 200.819 17.6C201.072 17.36 201.366 17.24 201.699 17.24C202.059 17.24 202.359 17.36 202.599 17.6C202.839 17.8267 202.959 18.1133 202.959 18.46C202.959 18.8067 202.839 19.1067 202.599 19.36C202.359 19.6 202.059 19.72 201.699 19.72ZM198.159 19.72C197.826 19.72 197.532 19.6 197.279 19.36C197.039 19.1067 196.919 18.8067 196.919 18.46C196.919 18.1133 197.039 17.8267 197.279 17.6C197.532 17.36 197.826 17.24 198.159 17.24C198.519 17.24 198.812 17.36 199.039 17.6C199.279 17.8267 199.399 18.1133 199.399 18.46C199.399 18.8067 199.279 19.1067 199.039 19.36C198.812 19.6 198.519 19.72 198.159 19.72ZM210.055 32L205.835 21.8H208.235L211.095 29.22H211.195L214.115 21.8H216.475L212.215 32H210.055ZM222.24 32.32C221.24 32.32 220.347 32.0867 219.56 31.62C218.774 31.1533 218.154 30.5133 217.7 29.7C217.26 28.8867 217.04 27.96 217.04 26.92C217.04 25.9467 217.254 25.0467 217.68 24.22C218.107 23.3933 218.7 22.7333 219.46 22.24C220.234 21.7333 221.12 21.48 222.12 21.48C223.174 21.48 224.067 21.7067 224.8 22.16C225.547 22.6133 226.114 23.2333 226.5 24.02C226.887 24.8067 227.08 25.6933 227.08 26.68C227.08 26.8267 227.074 26.96 227.06 27.08C227.06 27.2 227.054 27.2933 227.04 27.36H219.16C219.267 28.3733 219.62 29.1333 220.22 29.64C220.834 30.1467 221.527 30.4 222.3 30.4C222.994 30.4 223.567 30.2467 224.02 29.94C224.474 29.62 224.834 29.2267 225.1 28.76L226.88 29.62C226.44 30.42 225.84 31.0733 225.08 31.58C224.32 32.0733 223.374 32.32 222.24 32.32ZM222.14 23.32C221.42 23.32 220.807 23.54 220.3 23.98C219.794 24.42 219.454 25.0067 219.28 25.74H224.94C224.914 25.3933 224.8 25.0333 224.6 24.66C224.4 24.2867 224.094 23.9733 223.68 23.72C223.28 23.4533 222.767 23.32 222.14 23.32ZM229.871 29.04V23.68H228.091V21.8H229.871V18.92H232.031V21.8H234.531V23.68H232.031V28.58C232.031 29.0867 232.131 29.4733 232.331 29.74C232.545 30.0067 232.898 30.14 233.391 30.14C233.645 30.14 233.858 30.1067 234.031 30.04C234.218 29.9733 234.405 29.88 234.591 29.76V31.86C234.365 31.9533 234.125 32.0267 233.871 32.08C233.618 32.1333 233.318 32.16 232.971 32.16C232.025 32.16 231.271 31.8867 230.711 31.34C230.151 30.78 229.871 30.0133 229.871 29.04ZM236.701 32V17.68H238.861V26.12L243.181 21.8H245.861V21.92L241.921 25.82L246.001 31.88V32H243.441L240.401 27.32L238.861 28.84V32H236.701ZM251.713 32.32C250.713 32.32 249.82 32.0867 249.033 31.62C248.246 31.1533 247.626 30.5133 247.173 29.7C246.733 28.8867 246.513 27.96 246.513 26.92C246.513 25.9467 246.726 25.0467 247.153 24.22C247.58 23.3933 248.173 22.7333 248.933 22.24C249.706 21.7333 250.593 21.48 251.593 21.48C252.646 21.48 253.54 21.7067 254.273 22.16C255.02 22.6133 255.586 23.2333 255.973 24.02C256.36 24.8067 256.553 25.6933 256.553 26.68C256.553 26.8267 256.546 26.96 256.533 27.08C256.533 27.2 256.526 27.2933 256.513 27.36H248.633C248.74 28.3733 249.093 29.1333 249.693 29.64C250.306 30.1467 251 30.4 251.773 30.4C252.466 30.4 253.04 30.2467 253.493 29.94C253.946 29.62 254.306 29.2267 254.573 28.76L256.353 29.62C255.913 30.42 255.313 31.0733 254.553 31.58C253.793 32.0733 252.846 32.32 251.713 32.32ZM251.613 23.32C250.893 23.32 250.28 23.54 249.773 23.98C249.266 24.42 248.926 25.0067 248.753 25.74H254.413C254.386 25.3933 254.273 25.0333 254.073 24.66C253.873 24.2867 253.566 23.9733 253.153 23.72C252.753 23.4533 252.24 23.32 251.613 23.32ZM257.939 32V30.2L263.619 23.68H258.119V21.8H266.259V23.6L260.599 30.12H266.419V32H257.939ZM273.044 32.32C271.991 32.32 271.064 32.08 270.264 31.6C269.464 31.12 268.838 30.4733 268.384 29.66C267.931 28.8467 267.704 27.9267 267.704 26.9C267.704 25.8867 267.931 24.9733 268.384 24.16C268.838 23.3333 269.464 22.68 270.264 22.2C271.064 21.72 271.991 21.48 273.044 21.48C274.084 21.48 275.004 21.72 275.804 22.2C276.604 22.68 277.231 23.3333 277.684 24.16C278.138 24.9733 278.364 25.8867 278.364 26.9C278.364 27.9267 278.138 28.8467 277.684 29.66C277.231 30.4733 276.604 31.12 275.804 31.6C275.004 32.08 274.084 32.32 273.044 32.32ZM273.044 30.34C273.604 30.34 274.124 30.2067 274.604 29.94C275.084 29.66 275.471 29.2667 275.764 28.76C276.071 28.24 276.224 27.62 276.224 26.9C276.224 26.18 276.071 25.5667 275.764 25.06C275.471 24.54 275.084 24.1467 274.604 23.88C274.124 23.6 273.604 23.46 273.044 23.46C272.484 23.46 271.958 23.6 271.464 23.88C270.984 24.1467 270.591 24.54 270.284 25.06C269.991 25.5667 269.844 26.18 269.844 26.9C269.844 27.62 269.991 28.24 270.284 28.76C270.591 29.2667 270.984 29.66 271.464 29.94C271.958 30.2067 272.484 30.34 273.044 30.34ZM270.384 19.84L271.324 17.28H273.764L272.164 19.84H270.384ZM273.944 19.84L274.884 17.28H277.324L275.724 19.84H273.944ZM280.256 32V17.68H282.416V21.6L282.296 23.2H282.416C282.696 22.7067 283.123 22.3 283.696 21.98C284.283 21.6467 284.929 21.48 285.636 21.48C286.903 21.48 287.856 21.86 288.496 22.62C289.136 23.3667 289.456 24.3467 289.456 25.56V32H287.316V25.84C287.316 25.0133 287.096 24.4133 286.656 24.04C286.229 23.6533 285.703 23.46 285.076 23.46C284.556 23.46 284.096 23.6067 283.696 23.9C283.296 24.1933 282.983 24.58 282.756 25.06C282.529 25.5267 282.416 26.0267 282.416 26.56V32H280.256ZM296.716 32.32C295.663 32.32 294.736 32.08 293.936 31.6C293.136 31.12 292.51 30.4733 292.056 29.66C291.603 28.8467 291.376 27.9267 291.376 26.9C291.376 25.8867 291.603 24.9733 292.056 24.16C292.51 23.3333 293.136 22.68 293.936 22.2C294.736 21.72 295.663 21.48 296.716 21.48C297.756 21.48 298.676 21.72 299.476 22.2C300.276 22.68 300.903 23.3333 301.356 24.16C301.81 24.9733 302.036 25.8867 302.036 26.9C302.036 27.9267 301.81 28.8467 301.356 29.66C300.903 30.4733 300.276 31.12 299.476 31.6C298.676 32.08 297.756 32.32 296.716 32.32ZM296.716 30.34C297.276 30.34 297.796 30.2067 298.276 29.94C298.756 29.66 299.143 29.2667 299.436 28.76C299.743 28.24 299.896 27.62 299.896 26.9C299.896 26.18 299.743 25.5667 299.436 25.06C299.143 24.54 298.756 24.1467 298.276 23.88C297.796 23.6 297.276 23.46 296.716 23.46C296.156 23.46 295.63 23.6 295.136 23.88C294.656 24.1467 294.263 24.54 293.956 25.06C293.663 25.5667 293.516 26.18 293.516 26.9C293.516 27.62 293.663 28.24 293.956 28.76C294.263 29.2667 294.656 29.66 295.136 29.94C295.63 30.2067 296.156 30.34 296.716 30.34ZM298.476 19.72C298.143 19.72 297.85 19.6 297.596 19.36C297.356 19.1067 297.236 18.8067 297.236 18.46C297.236 18.1133 297.356 17.8267 297.596 17.6C297.85 17.36 298.143 17.24 298.476 17.24C298.836 17.24 299.136 17.36 299.376 17.6C299.616 17.8267 299.736 18.1133 299.736 18.46C299.736 18.8067 299.616 19.1067 299.376 19.36C299.136 19.6 298.836 19.72 298.476 19.72ZM294.936 19.72C294.603 19.72 294.31 19.6 294.056 19.36C293.816 19.1067 293.696 18.8067 293.696 18.46C293.696 18.1133 293.816 17.8267 294.056 17.6C294.31 17.36 294.603 17.24 294.936 17.24C295.296 17.24 295.59 17.36 295.816 17.6C296.056 17.8267 296.176 18.1133 296.176 18.46C296.176 18.8067 296.056 19.1067 295.816 19.36C295.59 19.6 295.296 19.72 294.936 19.72ZM303.31 32V30.2L308.99 23.68H303.49V21.8H311.63V23.6L305.97 30.12H311.79V32H303.31Z" fill="white"/>
<path d="M326.4 32.32C325.373 32.32 324.407 32.1333 323.5 31.76C322.607 31.3867 321.813 30.8667 321.12 30.2C320.427 29.52 319.88 28.7267 319.48 27.82C319.093 26.9 318.9 25.9067 318.9 24.84C318.9 23.7733 319.093 22.7867 319.48 21.88C319.88 20.96 320.42 20.1667 321.1 19.5C321.793 18.82 322.593 18.2933 323.5 17.92C324.407 17.5467 325.373 17.36 326.4 17.36C327.493 17.36 328.5 17.5533 329.42 17.94C330.353 18.3267 331.133 18.8667 331.76 19.56L330.24 21.06C329.773 20.54 329.213 20.14 328.56 19.86C327.92 19.58 327.2 19.44 326.4 19.44C325.453 19.44 324.58 19.6667 323.78 20.12C322.98 20.56 322.333 21.1867 321.84 22C321.36 22.8 321.12 23.7467 321.12 24.84C321.12 25.9333 321.367 26.8867 321.86 27.7C322.353 28.5 323 29.1267 323.8 29.58C324.6 30.02 325.473 30.24 326.42 30.24C327.287 30.24 328.073 30.08 328.78 29.76C329.487 29.4267 330.053 28.96 330.48 28.36C330.92 27.76 331.187 27.04 331.28 26.2H326.38V24.26H333.34C333.42 24.62 333.46 25 333.46 25.4V25.42C333.46 26.8067 333.153 28.02 332.54 29.06C331.94 30.0867 331.107 30.8867 330.04 31.46C328.973 32.0333 327.76 32.32 326.4 32.32ZM339.9 32.32C338.847 32.32 337.92 32.08 337.12 31.6C336.32 31.12 335.693 30.4733 335.24 29.66C334.787 28.8467 334.56 27.9267 334.56 26.9C334.56 25.8867 334.787 24.9733 335.24 24.16C335.693 23.3333 336.32 22.68 337.12 22.2C337.92 21.72 338.847 21.48 339.9 21.48C340.94 21.48 341.86 21.72 342.66 22.2C343.46 22.68 344.087 23.3333 344.54 24.16C344.993 24.9733 345.22 25.8867 345.22 26.9C345.22 27.9267 344.993 28.8467 344.54 29.66C344.087 30.4733 343.46 31.12 342.66 31.6C341.86 32.08 340.94 32.32 339.9 32.32ZM339.9 30.34C340.46 30.34 340.98 30.2067 341.46 29.94C341.94 29.66 342.327 29.2667 342.62 28.76C342.927 28.24 343.08 27.62 343.08 26.9C343.08 26.18 342.927 25.5667 342.62 25.06C342.327 24.54 341.94 24.1467 341.46 23.88C340.98 23.6 340.46 23.46 339.9 23.46C339.34 23.46 338.813 23.6 338.32 23.88C337.84 24.1467 337.447 24.54 337.14 25.06C336.847 25.5667 336.7 26.18 336.7 26.9C336.7 27.62 336.847 28.24 337.14 28.76C337.447 29.2667 337.84 29.66 338.32 29.94C338.813 30.2067 339.34 30.34 339.9 30.34ZM352.009 32.32C350.956 32.32 350.029 32.08 349.229 31.6C348.429 31.12 347.803 30.4733 347.349 29.66C346.896 28.8467 346.669 27.9267 346.669 26.9C346.669 25.8867 346.896 24.9733 347.349 24.16C347.803 23.3333 348.429 22.68 349.229 22.2C350.029 21.72 350.956 21.48 352.009 21.48C353.049 21.48 353.969 21.72 354.769 22.2C355.569 22.68 356.196 23.3333 356.649 24.16C357.103 24.9733 357.329 25.8867 357.329 26.9C357.329 27.9267 357.103 28.8467 356.649 29.66C356.196 30.4733 355.569 31.12 354.769 31.6C353.969 32.08 353.049 32.32 352.009 32.32ZM352.009 30.34C352.569 30.34 353.089 30.2067 353.569 29.94C354.049 29.66 354.436 29.2667 354.729 28.76C355.036 28.24 355.189 27.62 355.189 26.9C355.189 26.18 355.036 25.5667 354.729 25.06C354.436 24.54 354.049 24.1467 353.569 23.88C353.089 23.6 352.569 23.46 352.009 23.46C351.449 23.46 350.923 23.6 350.429 23.88C349.949 24.1467 349.556 24.54 349.249 25.06C348.956 25.5667 348.809 26.18 348.809 26.9C348.809 27.62 348.956 28.24 349.249 28.76C349.556 29.2667 349.949 29.66 350.429 29.94C350.923 30.2067 351.449 30.34 352.009 30.34ZM363.919 36.64C363.025 36.64 362.252 36.4933 361.599 36.2C360.959 35.92 360.439 35.5533 360.039 35.1C359.639 34.66 359.352 34.2067 359.179 33.74L361.179 32.9C361.392 33.4333 361.732 33.8667 362.199 34.2C362.679 34.5467 363.252 34.72 363.919 34.72C364.852 34.72 365.585 34.44 366.119 33.88C366.665 33.32 366.939 32.5267 366.939 31.5V30.52H366.819C366.499 31 366.052 31.3867 365.479 31.68C364.919 31.96 364.279 32.1 363.559 32.1C362.692 32.1 361.899 31.88 361.179 31.44C360.459 31 359.879 30.3867 359.439 29.6C358.999 28.8 358.779 27.8667 358.779 26.8C358.779 25.72 358.999 24.7867 359.439 24C359.879 23.2 360.459 22.58 361.179 22.14C361.899 21.7 362.692 21.48 363.559 21.48C364.279 21.48 364.919 21.6267 365.479 21.92C366.052 22.2133 366.499 22.6 366.819 23.08H366.939V21.8H368.999V31.46C368.999 32.5667 368.779 33.5067 368.339 34.28C367.912 35.0533 367.319 35.64 366.559 36.04C365.799 36.44 364.919 36.64 363.919 36.64ZM363.939 30.14C364.472 30.14 364.965 30.0133 365.419 29.76C365.872 29.4933 366.239 29.1133 366.519 28.62C366.799 28.1133 366.939 27.5067 366.939 26.8C366.939 26.0667 366.799 25.4533 366.519 24.96C366.239 24.4533 365.872 24.0733 365.419 23.82C364.965 23.5667 364.472 23.44 363.939 23.44C363.405 23.44 362.905 23.5733 362.439 23.84C361.985 24.0933 361.619 24.4667 361.339 24.96C361.059 25.4533 360.919 26.0667 360.919 26.8C360.919 27.52 361.059 28.1333 361.339 28.64C361.619 29.1333 361.985 29.5067 362.439 29.76C362.905 30.0133 363.405 30.14 363.939 30.14ZM371.546 32V17.68H373.706V32H371.546ZM380.815 32.32C379.815 32.32 378.921 32.0867 378.135 31.62C377.348 31.1533 376.728 30.5133 376.275 29.7C375.835 28.8867 375.615 27.96 375.615 26.92C375.615 25.9467 375.828 25.0467 376.255 24.22C376.681 23.3933 377.275 22.7333 378.035 22.24C378.808 21.7333 379.695 21.48 380.695 21.48C381.748 21.48 382.641 21.7067 383.375 22.16C384.121 22.6133 384.688 23.2333 385.075 24.02C385.461 24.8067 385.655 25.6933 385.655 26.68C385.655 26.8267 385.648 26.96 385.635 27.08C385.635 27.2 385.628 27.2933 385.615 27.36H377.735C377.841 28.3733 378.195 29.1333 378.795 29.64C379.408 30.1467 380.101 30.4 380.875 30.4C381.568 30.4 382.141 30.2467 382.595 29.94C383.048 29.62 383.408 29.2267 383.675 28.76L385.455 29.62C385.015 30.42 384.415 31.0733 383.655 31.58C382.895 32.0733 381.948 32.32 380.815 32.32ZM380.715 23.32C379.995 23.32 379.381 23.54 378.875 23.98C378.368 24.42 378.028 25.0067 377.855 25.74H383.515C383.488 25.3933 383.375 25.0333 383.175 24.66C382.975 24.2867 382.668 23.9733 382.255 23.72C381.855 23.4533 381.341 23.32 380.715 23.32ZM394.446 32L390.606 17.68H393.046L395.326 26.98L395.566 28.22H395.686L395.986 26.98L398.866 17.68H401.066L403.826 26.98L404.126 28.2H404.246L404.486 26.98L406.766 17.68H409.186L405.406 32H403.086L400.346 22.5L400.026 21.16H399.906L399.566 22.5L396.706 32H394.446ZM413.202 32.32C412.469 32.32 411.816 32.18 411.242 31.9C410.669 31.6067 410.222 31.2 409.902 30.68C409.582 30.16 409.422 29.5667 409.422 28.9C409.422 28.18 409.609 27.5667 409.982 27.06C410.369 26.54 410.882 26.1467 411.522 25.88C412.162 25.6133 412.869 25.48 413.642 25.48C414.282 25.48 414.842 25.54 415.322 25.66C415.816 25.78 416.189 25.9067 416.442 26.04V25.5C416.442 24.8333 416.202 24.3 415.722 23.9C415.242 23.5 414.622 23.3 413.862 23.3C413.342 23.3 412.849 23.42 412.382 23.66C411.916 23.8867 411.542 24.2 411.262 24.6L409.782 23.46C410.222 22.8467 410.802 22.3667 411.522 22.02C412.256 21.66 413.056 21.48 413.922 21.48C415.402 21.48 416.542 21.8467 417.342 22.58C418.142 23.3 418.542 24.3133 418.542 25.62V32H416.442V30.74H416.322C416.056 31.1533 415.656 31.52 415.122 31.84C414.589 32.16 413.949 32.32 413.202 32.32ZM413.582 30.56C414.142 30.56 414.636 30.4267 415.062 30.16C415.489 29.8933 415.822 29.5467 416.062 29.12C416.316 28.68 416.442 28.2067 416.442 27.7C416.136 27.5267 415.776 27.3867 415.362 27.28C414.949 27.16 414.509 27.1 414.042 27.1C413.162 27.1 412.536 27.28 412.162 27.64C411.789 27.9867 411.602 28.4133 411.602 28.92C411.602 29.4 411.782 29.7933 412.142 30.1C412.502 30.4067 412.982 30.56 413.582 30.56ZM420.94 32V17.68H423.1V32H420.94ZM425.667 32V17.68H427.827V32H425.667ZM434.936 32.32C433.936 32.32 433.042 32.0867 432.256 31.62C431.469 31.1533 430.849 30.5133 430.396 29.7C429.956 28.8867 429.736 27.96 429.736 26.92C429.736 25.9467 429.949 25.0467 430.376 24.22C430.802 23.3933 431.396 22.7333 432.156 22.24C432.929 21.7333 433.816 21.48 434.816 21.48C435.869 21.48 436.762 21.7067 437.496 22.16C438.242 22.6133 438.809 23.2333 439.196 24.02C439.582 24.8067 439.776 25.6933 439.776 26.68C439.776 26.8267 439.769 26.96 439.756 27.08C439.756 27.2 439.749 27.2933 439.736 27.36H431.856C431.962 28.3733 432.316 29.1333 432.916 29.64C433.529 30.1467 434.222 30.4 434.996 30.4C435.689 30.4 436.262 30.2467 436.716 29.94C437.169 29.62 437.529 29.2267 437.796 28.76L439.576 29.62C439.136 30.42 438.536 31.0733 437.776 31.58C437.016 32.0733 436.069 32.32 434.936 32.32ZM434.836 23.32C434.116 23.32 433.502 23.54 432.996 23.98C432.489 24.42 432.149 25.0067 431.976 25.74H437.636C437.609 25.3933 437.496 25.0333 437.296 24.66C437.096 24.2867 436.789 23.9733 436.376 23.72C435.976 23.4533 435.462 23.32 434.836 23.32ZM442.567 29.04V23.68H440.787V21.8H442.567V18.92H444.727V21.8H447.227V23.68H444.727V28.58C444.727 29.0867 444.827 29.4733 445.027 29.74C445.24 30.0067 445.593 30.14 446.087 30.14C446.34 30.14 446.553 30.1067 446.727 30.04C446.913 29.9733 447.1 29.88 447.287 29.76V31.86C447.06 31.9533 446.82 32.0267 446.567 32.08C446.313 32.1333 446.013 32.16 445.667 32.16C444.72 32.16 443.967 31.8867 443.407 31.34C442.847 30.78 442.567 30.0133 442.567 29.04Z" fill="white"/>
<rect x="0.5" y="0.5" width="469" height="49" rx="24.5" stroke="#747775"/>
<defs>
<linearGradient id="paint0_linear_1819_24386" x1="34.5703" y1="30.7864" x2="18.7309" y2="48.9133" gradientUnits="userSpaceOnUse">
<stop stop-color="#4285F4"/>
<stop offset="1" stop-color="#1B74E8"/>
</linearGradient>
</defs>
</svg>
