<svg width="303" height="50" viewBox="0 0 303 50" fill="none" xmlns="http://www.w3.org/2000/svg">
<rect x="0.5" y="0.5" width="302" height="49" rx="24.5" fill="#1F1F1F"/>
<path d="M51 22H21V17C21 14.2857 23.2018 12 25.8165 12H46.1835C48.7982 12 51 14.2857 51 17V22Z" fill="#34A853"/>
<path d="M51 26.0537H21V21.0537C21 18.3394 23.2018 16.0537 25.8165 16.0537H46.1835C48.7982 16.0537 51 18.3394 51 21.0537V26.0537Z" fill="#FBBC04"/>
<path d="M51 30.2468H21V25.2468C21 22.5325 23.2018 20.2468 25.8165 20.2468H46.1835C48.7982 20.2468 51 22.5325 51 25.2468V30.2468Z" fill="#EA4335"/>
<path d="M21 23.2752L40.0411 27.6789C42.2329 28.2294 44.6986 27.6789 46.4795 26.3028L51 23V33.3211C51 35.9358 48.8082 38 46.2055 38H25.7945C23.1918 38 21 35.9358 21 33.3211V23.2752Z" fill="url(#paint0_linear_1819_24747)"/>
<path d="M64.62 32V17.68H66.82V29.92H72.98V32H64.62ZM78.0655 32.32C77.3321 32.32 76.6788 32.18 76.1055 31.9C75.5321 31.6067 75.0855 31.2 74.7655 30.68C74.4455 30.16 74.2855 29.5667 74.2855 28.9C74.2855 28.18 74.4721 27.5667 74.8455 27.06C75.2321 26.54 75.7455 26.1467 76.3855 25.88C77.0255 25.6133 77.7321 25.48 78.5055 25.48C79.1455 25.48 79.7055 25.54 80.1855 25.66C80.6788 25.78 81.0521 25.9067 81.3055 26.04V25.5C81.3055 24.8333 81.0655 24.3 80.5855 23.9C80.1055 23.5 79.4855 23.3 78.7255 23.3C78.2055 23.3 77.7121 23.42 77.2455 23.66C76.7788 23.8867 76.4055 24.2 76.1255 24.6L74.6455 23.46C75.0855 22.8467 75.6655 22.3667 76.3855 22.02C77.1188 21.66 77.9188 21.48 78.7855 21.48C80.2655 21.48 81.4055 21.8467 82.2055 22.58C83.0055 23.3 83.4055 24.3133 83.4055 25.62V32H81.3055V30.74H81.1855C80.9188 31.1533 80.5188 31.52 79.9855 31.84C79.4521 32.16 78.8121 32.32 78.0655 32.32ZM78.4455 30.56C79.0055 30.56 79.4988 30.4267 79.9255 30.16C80.3521 29.8933 80.6855 29.5467 80.9255 29.12C81.1788 28.68 81.3055 28.2067 81.3055 27.7C80.9988 27.5267 80.6388 27.3867 80.2255 27.28C79.8121 27.16 79.3721 27.1 78.9055 27.1C78.0255 27.1 77.3988 27.28 77.0255 27.64C76.6521 27.9867 76.4655 28.4133 76.4655 28.92C76.4655 29.4 76.6455 29.7933 77.0055 30.1C77.3655 30.4067 77.8455 30.56 78.4455 30.56ZM80.6455 19.72C80.3121 19.72 80.0188 19.6 79.7655 19.36C79.5255 19.1067 79.4055 18.8067 79.4055 18.46C79.4055 18.1133 79.5255 17.8267 79.7655 17.6C80.0188 17.36 80.3121 17.24 80.6455 17.24C81.0055 17.24 81.3055 17.36 81.5455 17.6C81.7855 17.8267 81.9055 18.1133 81.9055 18.46C81.9055 18.8067 81.7855 19.1067 81.5455 19.36C81.3055 19.6 81.0055 19.72 80.6455 19.72ZM77.1055 19.72C76.7721 19.72 76.4788 19.6 76.2255 19.36C75.9855 19.1067 75.8655 18.8067 75.8655 18.46C75.8655 18.1133 75.9855 17.8267 76.2255 17.6C76.4788 17.36 76.7721 17.24 77.1055 17.24C77.4655 17.24 77.7588 17.36 77.9855 17.6C78.2255 17.8267 78.3455 18.1133 78.3455 18.46C78.3455 18.8067 78.2255 19.1067 77.9855 19.36C77.7588 19.6 77.4655 19.72 77.1055 19.72ZM90.2858 36.64C89.3924 36.64 88.6191 36.4933 87.9658 36.2C87.3258 35.92 86.8058 35.5533 86.4058 35.1C86.0058 34.66 85.7191 34.2067 85.5458 33.74L87.5458 32.9C87.7591 33.4333 88.0991 33.8667 88.5658 34.2C89.0458 34.5467 89.6191 34.72 90.2858 34.72C91.2191 34.72 91.9524 34.44 92.4858 33.88C93.0324 33.32 93.3058 32.5267 93.3058 31.5V30.52H93.1858C92.8658 31 92.4191 31.3867 91.8458 31.68C91.2858 31.96 90.6458 32.1 89.9258 32.1C89.0591 32.1 88.2658 31.88 87.5458 31.44C86.8258 31 86.2458 30.3867 85.8058 29.6C85.3658 28.8 85.1458 27.8667 85.1458 26.8C85.1458 25.72 85.3658 24.7867 85.8058 24C86.2458 23.2 86.8258 22.58 87.5458 22.14C88.2658 21.7 89.0591 21.48 89.9258 21.48C90.6458 21.48 91.2858 21.6267 91.8458 21.92C92.4191 22.2133 92.8658 22.6 93.1858 23.08H93.3058V21.8H95.3658V31.46C95.3658 32.5667 95.1458 33.5067 94.7058 34.28C94.2791 35.0533 93.6858 35.64 92.9258 36.04C92.1658 36.44 91.2858 36.64 90.2858 36.64ZM90.3058 30.14C90.8391 30.14 91.3324 30.0133 91.7858 29.76C92.2391 29.4933 92.6058 29.1133 92.8858 28.62C93.1658 28.1133 93.3058 27.5067 93.3058 26.8C93.3058 26.0667 93.1658 25.4533 92.8858 24.96C92.6058 24.4533 92.2391 24.0733 91.7858 23.82C91.3324 23.5667 90.8391 23.44 90.3058 23.44C89.7724 23.44 89.2724 23.5733 88.8058 23.84C88.3524 24.0933 87.9858 24.4667 87.7058 24.96C87.4258 25.4533 87.2858 26.0667 87.2858 26.8C87.2858 27.52 87.4258 28.1333 87.7058 28.64C87.9858 29.1333 88.3524 29.5067 88.8058 29.76C89.2724 30.0133 89.7724 30.14 90.3058 30.14ZM102.395 36.64C101.502 36.64 100.728 36.4933 100.075 36.2C99.4352 35.92 98.9152 35.5533 98.5152 35.1C98.1152 34.66 97.8285 34.2067 97.6552 33.74L99.6552 32.9C99.8685 33.4333 100.208 33.8667 100.675 34.2C101.155 34.5467 101.728 34.72 102.395 34.72C103.328 34.72 104.062 34.44 104.595 33.88C105.142 33.32 105.415 32.5267 105.415 31.5V30.52H105.295C104.975 31 104.528 31.3867 103.955 31.68C103.395 31.96 102.755 32.1 102.035 32.1C101.168 32.1 100.375 31.88 99.6552 31.44C98.9352 31 98.3552 30.3867 97.9152 29.6C97.4752 28.8 97.2552 27.8667 97.2552 26.8C97.2552 25.72 97.4752 24.7867 97.9152 24C98.3552 23.2 98.9352 22.58 99.6552 22.14C100.375 21.7 101.168 21.48 102.035 21.48C102.755 21.48 103.395 21.6267 103.955 21.92C104.528 22.2133 104.975 22.6 105.295 23.08H105.415V21.8H107.475V31.46C107.475 32.5667 107.255 33.5067 106.815 34.28C106.388 35.0533 105.795 35.64 105.035 36.04C104.275 36.44 103.395 36.64 102.395 36.64ZM102.415 30.14C102.948 30.14 103.442 30.0133 103.895 29.76C104.348 29.4933 104.715 29.1133 104.995 28.62C105.275 28.1133 105.415 27.5067 105.415 26.8C105.415 26.0667 105.275 25.4533 104.995 24.96C104.715 24.4533 104.348 24.0733 103.895 23.82C103.442 23.5667 102.948 23.44 102.415 23.44C101.882 23.44 101.382 23.5733 100.915 23.84C100.462 24.0933 100.095 24.4667 99.8152 24.96C99.5352 25.4533 99.3952 26.0667 99.3952 26.8C99.3952 27.52 99.5352 28.1333 99.8152 28.64C100.095 29.1333 100.462 29.5067 100.915 29.76C101.382 30.0133 101.882 30.14 102.415 30.14ZM115.75 29.04V23.68H113.97V21.8H115.75V18.92H117.91V21.8H120.41V23.68H117.91V28.58C117.91 29.0867 118.01 29.4733 118.21 29.74C118.423 30.0067 118.777 30.14 119.27 30.14C119.523 30.14 119.737 30.1067 119.91 30.04C120.097 29.9733 120.283 29.88 120.47 29.76V31.86C120.243 31.9533 120.003 32.0267 119.75 32.08C119.497 32.1333 119.197 32.16 118.85 32.16C117.903 32.16 117.15 31.8867 116.59 31.34C116.03 30.78 115.75 30.0133 115.75 29.04ZM123.82 20.3C123.42 20.3 123.074 20.16 122.78 19.88C122.5 19.5867 122.36 19.24 122.36 18.84C122.36 18.44 122.5 18.1 122.78 17.82C123.074 17.54 123.42 17.4 123.82 17.4C124.22 17.4 124.56 17.54 124.84 17.82C125.134 18.1 125.28 18.44 125.28 18.84C125.28 19.24 125.134 19.5867 124.84 19.88C124.56 20.16 124.22 20.3 123.82 20.3ZM122.74 32V21.8H124.9V32H122.74ZM127.6 32V17.68H129.76V32H127.6ZM132.327 32V17.68H134.487V32H132.327ZM142.941 20.3C142.541 20.3 142.195 20.16 141.901 19.88C141.621 19.5867 141.481 19.24 141.481 18.84C141.481 18.44 141.621 18.1 141.901 17.82C142.195 17.54 142.541 17.4 142.941 17.4C143.341 17.4 143.681 17.54 143.961 17.82C144.255 18.1 144.401 18.44 144.401 18.84C144.401 19.24 144.255 19.5867 143.961 19.88C143.681 20.16 143.341 20.3 142.941 20.3ZM141.861 32V21.8H144.021V32H141.861Z" fill="white"/>
<path d="M159.4 32.32C158.373 32.32 157.407 32.1333 156.5 31.76C155.607 31.3867 154.813 30.8667 154.12 30.2C153.427 29.52 152.88 28.7267 152.48 27.82C152.093 26.9 151.9 25.9067 151.9 24.84C151.9 23.7733 152.093 22.7867 152.48 21.88C152.88 20.96 153.42 20.1667 154.1 19.5C154.793 18.82 155.593 18.2933 156.5 17.92C157.407 17.5467 158.373 17.36 159.4 17.36C160.493 17.36 161.5 17.5533 162.42 17.94C163.353 18.3267 164.133 18.8667 164.76 19.56L163.24 21.06C162.773 20.54 162.213 20.14 161.56 19.86C160.92 19.58 160.2 19.44 159.4 19.44C158.453 19.44 157.58 19.6667 156.78 20.12C155.98 20.56 155.333 21.1867 154.84 22C154.36 22.8 154.12 23.7467 154.12 24.84C154.12 25.9333 154.367 26.8867 154.86 27.7C155.353 28.5 156 29.1267 156.8 29.58C157.6 30.02 158.473 30.24 159.42 30.24C160.287 30.24 161.073 30.08 161.78 29.76C162.487 29.4267 163.053 28.96 163.48 28.36C163.92 27.76 164.187 27.04 164.28 26.2H159.38V24.26H166.34C166.42 24.62 166.46 25 166.46 25.4V25.42C166.46 26.8067 166.153 28.02 165.54 29.06C164.94 30.0867 164.107 30.8867 163.04 31.46C161.973 32.0333 160.76 32.32 159.4 32.32ZM172.9 32.32C171.847 32.32 170.92 32.08 170.12 31.6C169.32 31.12 168.693 30.4733 168.24 29.66C167.787 28.8467 167.56 27.9267 167.56 26.9C167.56 25.8867 167.787 24.9733 168.24 24.16C168.693 23.3333 169.32 22.68 170.12 22.2C170.92 21.72 171.847 21.48 172.9 21.48C173.94 21.48 174.86 21.72 175.66 22.2C176.46 22.68 177.087 23.3333 177.54 24.16C177.993 24.9733 178.22 25.8867 178.22 26.9C178.22 27.9267 177.993 28.8467 177.54 29.66C177.087 30.4733 176.46 31.12 175.66 31.6C174.86 32.08 173.94 32.32 172.9 32.32ZM172.9 30.34C173.46 30.34 173.98 30.2067 174.46 29.94C174.94 29.66 175.327 29.2667 175.62 28.76C175.927 28.24 176.08 27.62 176.08 26.9C176.08 26.18 175.927 25.5667 175.62 25.06C175.327 24.54 174.94 24.1467 174.46 23.88C173.98 23.6 173.46 23.46 172.9 23.46C172.34 23.46 171.813 23.6 171.32 23.88C170.84 24.1467 170.447 24.54 170.14 25.06C169.847 25.5667 169.7 26.18 169.7 26.9C169.7 27.62 169.847 28.24 170.14 28.76C170.447 29.2667 170.84 29.66 171.32 29.94C171.813 30.2067 172.34 30.34 172.9 30.34ZM185.009 32.32C183.956 32.32 183.029 32.08 182.229 31.6C181.429 31.12 180.803 30.4733 180.349 29.66C179.896 28.8467 179.669 27.9267 179.669 26.9C179.669 25.8867 179.896 24.9733 180.349 24.16C180.803 23.3333 181.429 22.68 182.229 22.2C183.029 21.72 183.956 21.48 185.009 21.48C186.049 21.48 186.969 21.72 187.769 22.2C188.569 22.68 189.196 23.3333 189.649 24.16C190.103 24.9733 190.329 25.8867 190.329 26.9C190.329 27.9267 190.103 28.8467 189.649 29.66C189.196 30.4733 188.569 31.12 187.769 31.6C186.969 32.08 186.049 32.32 185.009 32.32ZM185.009 30.34C185.569 30.34 186.089 30.2067 186.569 29.94C187.049 29.66 187.436 29.2667 187.729 28.76C188.036 28.24 188.189 27.62 188.189 26.9C188.189 26.18 188.036 25.5667 187.729 25.06C187.436 24.54 187.049 24.1467 186.569 23.88C186.089 23.6 185.569 23.46 185.009 23.46C184.449 23.46 183.923 23.6 183.429 23.88C182.949 24.1467 182.556 24.54 182.249 25.06C181.956 25.5667 181.809 26.18 181.809 26.9C181.809 27.62 181.956 28.24 182.249 28.76C182.556 29.2667 182.949 29.66 183.429 29.94C183.923 30.2067 184.449 30.34 185.009 30.34ZM196.919 36.64C196.025 36.64 195.252 36.4933 194.599 36.2C193.959 35.92 193.439 35.5533 193.039 35.1C192.639 34.66 192.352 34.2067 192.179 33.74L194.179 32.9C194.392 33.4333 194.732 33.8667 195.199 34.2C195.679 34.5467 196.252 34.72 196.919 34.72C197.852 34.72 198.585 34.44 199.119 33.88C199.665 33.32 199.939 32.5267 199.939 31.5V30.52H199.819C199.499 31 199.052 31.3867 198.479 31.68C197.919 31.96 197.279 32.1 196.559 32.1C195.692 32.1 194.899 31.88 194.179 31.44C193.459 31 192.879 30.3867 192.439 29.6C191.999 28.8 191.779 27.8667 191.779 26.8C191.779 25.72 191.999 24.7867 192.439 24C192.879 23.2 193.459 22.58 194.179 22.14C194.899 21.7 195.692 21.48 196.559 21.48C197.279 21.48 197.919 21.6267 198.479 21.92C199.052 22.2133 199.499 22.6 199.819 23.08H199.939V21.8H201.999V31.46C201.999 32.5667 201.779 33.5067 201.339 34.28C200.912 35.0533 200.319 35.64 199.559 36.04C198.799 36.44 197.919 36.64 196.919 36.64ZM196.939 30.14C197.472 30.14 197.965 30.0133 198.419 29.76C198.872 29.4933 199.239 29.1133 199.519 28.62C199.799 28.1133 199.939 27.5067 199.939 26.8C199.939 26.0667 199.799 25.4533 199.519 24.96C199.239 24.4533 198.872 24.0733 198.419 23.82C197.965 23.5667 197.472 23.44 196.939 23.44C196.405 23.44 195.905 23.5733 195.439 23.84C194.985 24.0933 194.619 24.4667 194.339 24.96C194.059 25.4533 193.919 26.0667 193.919 26.8C193.919 27.52 194.059 28.1333 194.339 28.64C194.619 29.1333 194.985 29.5067 195.439 29.76C195.905 30.0133 196.405 30.14 196.939 30.14ZM204.546 32V17.68H206.706V32H204.546ZM213.815 32.32C212.815 32.32 211.921 32.0867 211.135 31.62C210.348 31.1533 209.728 30.5133 209.275 29.7C208.835 28.8867 208.615 27.96 208.615 26.92C208.615 25.9467 208.828 25.0467 209.255 24.22C209.681 23.3933 210.275 22.7333 211.035 22.24C211.808 21.7333 212.695 21.48 213.695 21.48C214.748 21.48 215.641 21.7067 216.375 22.16C217.121 22.6133 217.688 23.2333 218.075 24.02C218.461 24.8067 218.655 25.6933 218.655 26.68C218.655 26.8267 218.648 26.96 218.635 27.08C218.635 27.2 218.628 27.2933 218.615 27.36H210.735C210.841 28.3733 211.195 29.1333 211.795 29.64C212.408 30.1467 213.101 30.4 213.875 30.4C214.568 30.4 215.141 30.2467 215.595 29.94C216.048 29.62 216.408 29.2267 216.675 28.76L218.455 29.62C218.015 30.42 217.415 31.0733 216.655 31.58C215.895 32.0733 214.948 32.32 213.815 32.32ZM213.715 23.32C212.995 23.32 212.381 23.54 211.875 23.98C211.368 24.42 211.028 25.0067 210.855 25.74H216.515C216.488 25.3933 216.375 25.0333 216.175 24.66C215.975 24.2867 215.668 23.9733 215.255 23.72C214.855 23.4533 214.341 23.32 213.715 23.32ZM227.446 32L223.606 17.68H226.046L228.326 26.98L228.566 28.22H228.686L228.986 26.98L231.866 17.68H234.066L236.826 26.98L237.126 28.2H237.246L237.486 26.98L239.766 17.68H242.186L238.406 32H236.086L233.346 22.5L233.026 21.16H232.906L232.566 22.5L229.706 32H227.446ZM246.202 32.32C245.469 32.32 244.816 32.18 244.242 31.9C243.669 31.6067 243.222 31.2 242.902 30.68C242.582 30.16 242.422 29.5667 242.422 28.9C242.422 28.18 242.609 27.5667 242.982 27.06C243.369 26.54 243.882 26.1467 244.522 25.88C245.162 25.6133 245.869 25.48 246.642 25.48C247.282 25.48 247.842 25.54 248.322 25.66C248.816 25.78 249.189 25.9067 249.442 26.04V25.5C249.442 24.8333 249.202 24.3 248.722 23.9C248.242 23.5 247.622 23.3 246.862 23.3C246.342 23.3 245.849 23.42 245.382 23.66C244.916 23.8867 244.542 24.2 244.262 24.6L242.782 23.46C243.222 22.8467 243.802 22.3667 244.522 22.02C245.256 21.66 246.056 21.48 246.922 21.48C248.402 21.48 249.542 21.8467 250.342 22.58C251.142 23.3 251.542 24.3133 251.542 25.62V32H249.442V30.74H249.322C249.056 31.1533 248.656 31.52 248.122 31.84C247.589 32.16 246.949 32.32 246.202 32.32ZM246.582 30.56C247.142 30.56 247.636 30.4267 248.062 30.16C248.489 29.8933 248.822 29.5467 249.062 29.12C249.316 28.68 249.442 28.2067 249.442 27.7C249.136 27.5267 248.776 27.3867 248.362 27.28C247.949 27.16 247.509 27.1 247.042 27.1C246.162 27.1 245.536 27.28 245.162 27.64C244.789 27.9867 244.602 28.4133 244.602 28.92C244.602 29.4 244.782 29.7933 245.142 30.1C245.502 30.4067 245.982 30.56 246.582 30.56ZM253.94 32V17.68H256.1V32H253.94ZM258.667 32V17.68H260.827V32H258.667ZM267.936 32.32C266.936 32.32 266.042 32.0867 265.256 31.62C264.469 31.1533 263.849 30.5133 263.396 29.7C262.956 28.8867 262.736 27.96 262.736 26.92C262.736 25.9467 262.949 25.0467 263.376 24.22C263.802 23.3933 264.396 22.7333 265.156 22.24C265.929 21.7333 266.816 21.48 267.816 21.48C268.869 21.48 269.762 21.7067 270.496 22.16C271.242 22.6133 271.809 23.2333 272.196 24.02C272.582 24.8067 272.776 25.6933 272.776 26.68C272.776 26.8267 272.769 26.96 272.756 27.08C272.756 27.2 272.749 27.2933 272.736 27.36H264.856C264.962 28.3733 265.316 29.1333 265.916 29.64C266.529 30.1467 267.222 30.4 267.996 30.4C268.689 30.4 269.262 30.2467 269.716 29.94C270.169 29.62 270.529 29.2267 270.796 28.76L272.576 29.62C272.136 30.42 271.536 31.0733 270.776 31.58C270.016 32.0733 269.069 32.32 267.936 32.32ZM267.836 23.32C267.116 23.32 266.502 23.54 265.996 23.98C265.489 24.42 265.149 25.0067 264.976 25.74H270.636C270.609 25.3933 270.496 25.0333 270.296 24.66C270.096 24.2867 269.789 23.9733 269.376 23.72C268.976 23.4533 268.462 23.32 267.836 23.32ZM275.567 29.04V23.68H273.787V21.8H275.567V18.92H277.727V21.8H280.227V23.68H277.727V28.58C277.727 29.0867 277.827 29.4733 278.027 29.74C278.24 30.0067 278.593 30.14 279.087 30.14C279.34 30.14 279.553 30.1067 279.727 30.04C279.913 29.9733 280.1 29.88 280.287 29.76V31.86C280.06 31.9533 279.82 32.0267 279.567 32.08C279.313 32.1333 279.013 32.16 278.667 32.16C277.72 32.16 276.967 31.8867 276.407 31.34C275.847 30.78 275.567 30.0133 275.567 29.04Z" fill="white"/>
<rect x="0.5" y="0.5" width="302" height="49" rx="24.5" stroke="#747775"/>
<defs>
<linearGradient id="paint0_linear_1819_24747" x1="34.5703" y1="30.7864" x2="18.7309" y2="48.9133" gradientUnits="userSpaceOnUse">
<stop stop-color="#4285F4"/>
<stop offset="1" stop-color="#1B74E8"/>
</linearGradient>
</defs>
</svg>
