<svg width="347" height="50" viewBox="0 0 347 50" fill="none" xmlns="http://www.w3.org/2000/svg">
<rect x="0.5" y="0.5" width="346" height="49" rx="24.5" fill="#1F1F1F"/>
<path d="M51 22H21V17C21 14.2857 23.2018 12 25.8165 12H46.1835C48.7982 12 51 14.2857 51 17V22Z" fill="#34A853"/>
<path d="M51 26.0537H21V21.0537C21 18.3394 23.2018 16.0537 25.8165 16.0537H46.1835C48.7982 16.0537 51 18.3394 51 21.0537V26.0537Z" fill="#FBBC04"/>
<path d="M51 30.2468H21V25.2468C21 22.5325 23.2018 20.2468 25.8165 20.2468H46.1835C48.7982 20.2468 51 22.5325 51 25.2468V30.2468Z" fill="#EA4335"/>
<path d="M21 23.2752L40.0411 27.6789C42.2329 28.2294 44.6986 27.6789 46.4795 26.3028L51 23V33.3211C51 35.9358 48.8082 38 46.2055 38H25.7945C23.1918 38 21 35.9358 21 33.3211V23.2752Z" fill="url(#paint0_linear_1819_24063)"/>
<path d="M64.62 32V17.68H69.54C70.4067 17.68 71.1933 17.8667 71.9 18.24C72.6067 18.6133 73.1667 19.1267 73.58 19.78C74.0067 20.4333 74.22 21.1933 74.22 22.06C74.22 22.9267 74.0067 23.6933 73.58 24.36C73.1667 25.0133 72.6067 25.5267 71.9 25.9C71.1933 26.26 70.4067 26.44 69.54 26.44H66.82V32H64.62ZM69.6 19.76H66.82V24.36H69.6C70.12 24.36 70.56 24.2533 70.92 24.04C71.28 23.8133 71.5533 23.5267 71.74 23.18C71.94 22.82 72.04 22.4467 72.04 22.06C72.04 21.6733 71.94 21.3067 71.74 20.96C71.5533 20.6133 71.28 20.3267 70.92 20.1C70.56 19.8733 70.12 19.76 69.6 19.76ZM76.1155 32V21.8H78.1555V23.3H78.2755C78.5021 22.78 78.8888 22.3533 79.4355 22.02C79.9955 21.6733 80.5955 21.5 81.2355 21.5C81.5155 21.5 81.7488 21.52 81.9355 21.56C82.1355 21.6 82.3155 21.6467 82.4755 21.7V23.94C82.2221 23.8333 81.9621 23.7467 81.6955 23.68C81.4421 23.6133 81.1755 23.58 80.8955 23.58C80.3888 23.58 79.9355 23.72 79.5355 24C79.1488 24.2667 78.8421 24.6333 78.6155 25.1C78.3888 25.5533 78.2755 26.0533 78.2755 26.6V32H76.1155ZM78.2755 19.84L76.1355 17.42V17.28H78.1955L79.1155 18.52H79.3155L80.2555 17.28H82.3355V17.42L80.1755 19.84H78.2755ZM85.3828 20.3C84.9828 20.3 84.6361 20.16 84.3428 19.88C84.0628 19.5867 83.9228 19.24 83.9228 18.84C83.9228 18.44 84.0628 18.1 84.3428 17.82C84.6361 17.54 84.9828 17.4 85.3828 17.4C85.7828 17.4 86.1228 17.54 86.4028 17.82C86.6961 18.1 86.8428 18.44 86.8428 18.84C86.8428 19.24 86.6961 19.5867 86.4028 19.88C86.1228 20.16 85.7828 20.3 85.3828 20.3ZM84.3028 32V21.8H86.4628V32H84.3028ZM93.4052 32.32C92.4852 32.32 91.6518 32.0933 90.9052 31.64C90.1718 31.1733 89.5852 30.5333 89.1452 29.72C88.7185 28.8933 88.5052 27.9533 88.5052 26.9C88.5052 25.8467 88.7185 24.9133 89.1452 24.1C89.5852 23.2867 90.1718 22.6467 90.9052 22.18C91.6518 21.7133 92.4852 21.48 93.4052 21.48C94.1918 21.48 94.8652 21.6533 95.4252 22C95.9985 22.3467 96.4185 22.74 96.6852 23.18H96.8052L96.6852 21.76V17.68H98.8252V32H96.8052V30.64H96.6852C96.4185 31.08 95.9985 31.4733 95.4252 31.82C94.8652 32.1533 94.1918 32.32 93.4052 32.32ZM93.7252 30.34C94.2585 30.34 94.7585 30.2 95.2252 29.92C95.7052 29.64 96.0852 29.2467 96.3652 28.74C96.6585 28.22 96.8052 27.6067 96.8052 26.9C96.8052 26.1933 96.6585 25.5867 96.3652 25.08C96.0852 24.56 95.7052 24.16 95.2252 23.88C94.7585 23.6 94.2585 23.46 93.7252 23.46C93.1918 23.46 92.6918 23.6 92.2252 23.88C91.7585 24.16 91.3785 24.56 91.0852 25.08C90.7918 25.5867 90.6452 26.1933 90.6452 26.9C90.6452 27.6067 90.7918 28.22 91.0852 28.74C91.3785 29.2467 91.7585 29.64 92.2252 29.92C92.6918 30.2 93.1918 30.34 93.7252 30.34ZM104.472 32.32C103.738 32.32 103.085 32.18 102.512 31.9C101.938 31.6067 101.492 31.2 101.172 30.68C100.852 30.16 100.692 29.5667 100.692 28.9C100.692 28.18 100.878 27.5667 101.252 27.06C101.638 26.54 102.152 26.1467 102.792 25.88C103.432 25.6133 104.138 25.48 104.912 25.48C105.552 25.48 106.112 25.54 106.592 25.66C107.085 25.78 107.458 25.9067 107.712 26.04V25.5C107.712 24.8333 107.472 24.3 106.992 23.9C106.512 23.5 105.892 23.3 105.132 23.3C104.612 23.3 104.118 23.42 103.652 23.66C103.185 23.8867 102.812 24.2 102.532 24.6L101.052 23.46C101.492 22.8467 102.072 22.3667 102.792 22.02C103.525 21.66 104.325 21.48 105.192 21.48C106.672 21.48 107.812 21.8467 108.612 22.58C109.412 23.3 109.812 24.3133 109.812 25.62V32H107.712V30.74H107.592C107.325 31.1533 106.925 31.52 106.392 31.84C105.858 32.16 105.218 32.32 104.472 32.32ZM104.852 30.56C105.412 30.56 105.905 30.4267 106.332 30.16C106.758 29.8933 107.092 29.5467 107.332 29.12C107.585 28.68 107.712 28.2067 107.712 27.7C107.405 27.5267 107.045 27.3867 106.632 27.28C106.218 27.16 105.778 27.1 105.312 27.1C104.432 27.1 103.805 27.28 103.432 27.64C103.058 27.9867 102.872 28.4133 102.872 28.92C102.872 29.4 103.052 29.7933 103.412 30.1C103.772 30.4067 104.252 30.56 104.852 30.56ZM113.074 29.04V23.68H111.294V21.8H113.074V18.92H115.234V21.8H117.734V23.68H115.234V28.58C115.234 29.0867 115.334 29.4733 115.534 29.74C115.748 30.0067 116.101 30.14 116.594 30.14C116.848 30.14 117.061 30.1067 117.234 30.04C117.421 29.9733 117.608 29.88 117.794 29.76V31.86C117.568 31.9533 117.328 32.0267 117.074 32.08C116.821 32.1333 116.521 32.16 116.174 32.16C115.228 32.16 114.474 31.8867 113.914 31.34C113.354 30.78 113.074 30.0133 113.074 29.04ZM128.835 32.32C127.915 32.32 127.082 32.0933 126.335 31.64C125.602 31.1733 125.015 30.5333 124.575 29.72C124.148 28.8933 123.935 27.9533 123.935 26.9C123.935 25.8467 124.148 24.9133 124.575 24.1C125.015 23.2867 125.602 22.6467 126.335 22.18C127.082 21.7133 127.915 21.48 128.835 21.48C129.622 21.48 130.295 21.6533 130.855 22C131.428 22.3467 131.848 22.74 132.115 23.18H132.235L132.115 21.76V17.68H134.255V32H132.235V30.64H132.115C131.848 31.08 131.428 31.4733 130.855 31.82C130.295 32.1533 129.622 32.32 128.835 32.32ZM129.155 30.34C129.688 30.34 130.188 30.2 130.655 29.92C131.135 29.64 131.515 29.2467 131.795 28.74C132.088 28.22 132.235 27.6067 132.235 26.9C132.235 26.1933 132.088 25.5867 131.795 25.08C131.515 24.56 131.135 24.16 130.655 23.88C130.188 23.6 129.688 23.46 129.155 23.46C128.622 23.46 128.122 23.6 127.655 23.88C127.188 24.16 126.808 24.56 126.515 25.08C126.222 25.5867 126.075 26.1933 126.075 26.9C126.075 27.6067 126.222 28.22 126.515 28.74C126.808 29.2467 127.188 29.64 127.655 29.92C128.122 30.2 128.622 30.34 129.155 30.34ZM141.501 32.32C140.448 32.32 139.521 32.08 138.721 31.6C137.921 31.12 137.295 30.4733 136.841 29.66C136.388 28.8467 136.161 27.9267 136.161 26.9C136.161 25.8867 136.388 24.9733 136.841 24.16C137.295 23.3333 137.921 22.68 138.721 22.2C139.521 21.72 140.448 21.48 141.501 21.48C142.541 21.48 143.461 21.72 144.261 22.2C145.061 22.68 145.688 23.3333 146.141 24.16C146.595 24.9733 146.821 25.8867 146.821 26.9C146.821 27.9267 146.595 28.8467 146.141 29.66C145.688 30.4733 145.061 31.12 144.261 31.6C143.461 32.08 142.541 32.32 141.501 32.32ZM141.501 30.34C142.061 30.34 142.581 30.2067 143.061 29.94C143.541 29.66 143.928 29.2667 144.221 28.76C144.528 28.24 144.681 27.62 144.681 26.9C144.681 26.18 144.528 25.5667 144.221 25.06C143.928 24.54 143.541 24.1467 143.061 23.88C142.581 23.6 142.061 23.46 141.501 23.46C140.941 23.46 140.415 23.6 139.921 23.88C139.441 24.1467 139.048 24.54 138.741 25.06C138.448 25.5667 138.301 26.18 138.301 26.9C138.301 27.62 138.448 28.24 138.741 28.76C139.048 29.2667 139.441 29.66 139.921 29.94C140.415 30.2067 140.941 30.34 141.501 30.34Z" fill="white"/>
<path d="M154.62 32V17.68H159.54C160.407 17.68 161.193 17.8667 161.9 18.24C162.607 18.6133 163.167 19.1267 163.58 19.78C164.007 20.4333 164.22 21.1933 164.22 22.06C164.22 22.9267 164.007 23.6933 163.58 24.36C163.167 25.0133 162.607 25.5267 161.9 25.9C161.193 26.26 160.407 26.44 159.54 26.44H156.82V32H154.62ZM159.6 19.76H156.82V24.36H159.6C160.12 24.36 160.56 24.2533 160.92 24.04C161.28 23.8133 161.553 23.5267 161.74 23.18C161.94 22.82 162.04 22.4467 162.04 22.06C162.04 21.6733 161.94 21.3067 161.74 20.96C161.553 20.6133 161.28 20.3267 160.92 20.1C160.56 19.8733 160.12 19.76 159.6 19.76ZM170.072 32.32C169.072 32.32 168.179 32.0867 167.392 31.62C166.606 31.1533 165.986 30.5133 165.532 29.7C165.092 28.8867 164.872 27.96 164.872 26.92C164.872 25.9467 165.086 25.0467 165.512 24.22C165.939 23.3933 166.532 22.7333 167.292 22.24C168.066 21.7333 168.952 21.48 169.952 21.48C171.006 21.48 171.899 21.7067 172.632 22.16C173.379 22.6133 173.946 23.2333 174.332 24.02C174.719 24.8067 174.912 25.6933 174.912 26.68C174.912 26.8267 174.906 26.96 174.892 27.08C174.892 27.2 174.886 27.2933 174.872 27.36H166.992C167.099 28.3733 167.452 29.1333 168.052 29.64C168.666 30.1467 169.359 30.4 170.132 30.4C170.826 30.4 171.399 30.2467 171.852 29.94C172.306 29.62 172.666 29.2267 172.932 28.76L174.712 29.62C174.272 30.42 173.672 31.0733 172.912 31.58C172.152 32.0733 171.206 32.32 170.072 32.32ZM169.972 23.32C169.252 23.32 168.639 23.54 168.132 23.98C167.626 24.42 167.286 25.0067 167.112 25.74H172.772C172.746 25.3933 172.632 25.0333 172.432 24.66C172.232 24.2867 171.926 23.9733 171.512 23.72C171.112 23.4533 170.599 23.32 169.972 23.32ZM176.916 32V21.8H178.956V23.2H179.076C179.37 22.7067 179.803 22.3 180.376 21.98C180.963 21.6467 181.603 21.48 182.296 21.48C183.55 21.48 184.49 21.8533 185.116 22.6C185.743 23.3467 186.056 24.3333 186.056 25.56V32H183.916V25.84C183.916 25.0133 183.71 24.4133 183.296 24.04C182.883 23.6533 182.343 23.46 181.676 23.46C181.156 23.46 180.703 23.6067 180.316 23.9C179.93 24.18 179.623 24.5533 179.396 25.02C179.183 25.4867 179.076 25.9867 179.076 26.52V32H176.916ZM193.178 32.32C192.178 32.32 191.284 32.0867 190.498 31.62C189.711 31.1533 189.091 30.5133 188.638 29.7C188.198 28.8867 187.978 27.96 187.978 26.92C187.978 25.9467 188.191 25.0467 188.618 24.22C189.044 23.3933 189.638 22.7333 190.398 22.24C191.171 21.7333 192.058 21.48 193.058 21.48C194.111 21.48 195.004 21.7067 195.738 22.16C196.484 22.6133 197.051 23.2333 197.438 24.02C197.824 24.8067 198.018 25.6933 198.018 26.68C198.018 26.8267 198.011 26.96 197.998 27.08C197.998 27.2 197.991 27.2933 197.978 27.36H190.098C190.204 28.3733 190.558 29.1333 191.158 29.64C191.771 30.1467 192.464 30.4 193.238 30.4C193.931 30.4 194.504 30.2467 194.958 29.94C195.411 29.62 195.771 29.2267 196.038 28.76L197.818 29.62C197.378 30.42 196.778 31.0733 196.018 31.58C195.258 32.0733 194.311 32.32 193.178 32.32ZM193.078 23.32C192.358 23.32 191.744 23.54 191.238 23.98C190.731 24.42 190.391 25.0067 190.218 25.74H195.878C195.851 25.3933 195.738 25.0333 195.538 24.66C195.338 24.2867 195.031 23.9733 194.618 23.72C194.218 23.4533 193.704 23.32 193.078 23.32ZM192.118 19.84L189.978 17.42V17.28H192.038L192.958 18.52H193.158L194.098 17.28H196.178V17.42L194.018 19.84H192.118ZM199.404 32V30.2L205.084 23.68H199.584V21.8H207.724V23.6L202.064 30.12H207.884V32H199.404ZM202.724 19.84L200.584 17.42V17.28H202.644L203.564 18.52H203.764L204.704 17.28H206.784V17.42L204.624 19.84H202.724ZM214.369 32.32C213.369 32.32 212.476 32.0867 211.689 31.62C210.903 31.1533 210.283 30.5133 209.829 29.7C209.389 28.8867 209.169 27.96 209.169 26.92C209.169 25.9467 209.383 25.0467 209.809 24.22C210.236 23.3933 210.829 22.7333 211.589 22.24C212.363 21.7333 213.249 21.48 214.249 21.48C215.303 21.48 216.196 21.7067 216.929 22.16C217.676 22.6133 218.243 23.2333 218.629 24.02C219.016 24.8067 219.209 25.6933 219.209 26.68C219.209 26.8267 219.203 26.96 219.189 27.08C219.189 27.2 219.183 27.2933 219.169 27.36H211.289C211.396 28.3733 211.749 29.1333 212.349 29.64C212.963 30.1467 213.656 30.4 214.429 30.4C215.123 30.4 215.696 30.2467 216.149 29.94C216.603 29.62 216.963 29.2267 217.229 28.76L219.009 29.62C218.569 30.42 217.969 31.0733 217.209 31.58C216.449 32.0733 215.503 32.32 214.369 32.32ZM214.269 23.32C213.549 23.32 212.936 23.54 212.429 23.98C211.923 24.42 211.583 25.0067 211.409 25.74H217.069C217.043 25.3933 216.929 25.0333 216.729 24.66C216.529 24.2867 216.223 23.9733 215.809 23.72C215.409 23.4533 214.896 23.32 214.269 23.32ZM221.213 32V21.8H223.253V23.2H223.373C223.666 22.7067 224.1 22.3 224.673 21.98C225.26 21.6467 225.9 21.48 226.593 21.48C227.846 21.48 228.786 21.8533 229.413 22.6C230.04 23.3467 230.353 24.3333 230.353 25.56V32H228.213V25.84C228.213 25.0133 228.006 24.4133 227.593 24.04C227.18 23.6533 226.64 23.46 225.973 23.46C225.453 23.46 225 23.6067 224.613 23.9C224.226 24.18 223.92 24.5533 223.693 25.02C223.48 25.4867 223.373 25.9867 223.373 26.52V32H221.213ZM232.815 32V17.68H234.975V26.12L239.295 21.8H241.975V21.92L238.035 25.82L242.115 31.88V32H239.555L236.515 27.32L234.975 28.84V32H232.815ZM246.939 35.82C246.899 35.9267 246.853 36.0267 246.799 36.12C246.759 36.2133 246.733 36.28 246.719 36.32H244.419C244.486 36.1733 244.579 35.96 244.699 35.68C244.833 35.4133 244.959 35.1533 245.079 34.9C245.199 34.6467 245.326 34.36 245.459 34.04C245.606 33.72 245.753 33.4067 245.899 33.1L246.659 31.44L242.399 21.8H244.799L247.719 28.76H247.819L250.639 21.8H253.019L247.739 33.96C247.593 34.3067 247.433 34.6667 247.259 35.04C247.099 35.4267 246.993 35.6867 246.939 35.82ZM265.873 32.32C264.846 32.32 263.879 32.1333 262.973 31.76C262.079 31.3867 261.286 30.8667 260.593 30.2C259.899 29.52 259.353 28.7267 258.953 27.82C258.566 26.9 258.373 25.9067 258.373 24.84C258.373 23.7733 258.566 22.7867 258.953 21.88C259.353 20.96 259.893 20.1667 260.573 19.5C261.266 18.82 262.066 18.2933 262.973 17.92C263.879 17.5467 264.846 17.36 265.873 17.36C266.966 17.36 267.973 17.5533 268.893 17.94C269.826 18.3267 270.606 18.8667 271.233 19.56L269.713 21.06C269.246 20.54 268.686 20.14 268.033 19.86C267.393 19.58 266.673 19.44 265.873 19.44C264.926 19.44 264.053 19.6667 263.253 20.12C262.453 20.56 261.806 21.1867 261.313 22C260.833 22.8 260.593 23.7467 260.593 24.84C260.593 25.9333 260.839 26.8867 261.333 27.7C261.826 28.5 262.473 29.1267 263.273 29.58C264.073 30.02 264.946 30.24 265.893 30.24C266.759 30.24 267.546 30.08 268.253 29.76C268.959 29.4267 269.526 28.96 269.953 28.36C270.393 27.76 270.659 27.04 270.753 26.2H265.853V24.26H272.813C272.893 24.62 272.933 25 272.933 25.4V25.42C272.933 26.8067 272.626 28.02 272.013 29.06C271.413 30.0867 270.579 30.8867 269.513 31.46C268.446 32.0333 267.233 32.32 265.873 32.32ZM279.373 32.32C278.319 32.32 277.393 32.08 276.593 31.6C275.793 31.12 275.166 30.4733 274.713 29.66C274.259 28.8467 274.033 27.9267 274.033 26.9C274.033 25.8867 274.259 24.9733 274.713 24.16C275.166 23.3333 275.793 22.68 276.593 22.2C277.393 21.72 278.319 21.48 279.373 21.48C280.413 21.48 281.333 21.72 282.133 22.2C282.933 22.68 283.559 23.3333 284.013 24.16C284.466 24.9733 284.693 25.8867 284.693 26.9C284.693 27.9267 284.466 28.8467 284.013 29.66C283.559 30.4733 282.933 31.12 282.133 31.6C281.333 32.08 280.413 32.32 279.373 32.32ZM279.373 30.34C279.933 30.34 280.453 30.2067 280.933 29.94C281.413 29.66 281.799 29.2667 282.093 28.76C282.399 28.24 282.553 27.62 282.553 26.9C282.553 26.18 282.399 25.5667 282.093 25.06C281.799 24.54 281.413 24.1467 280.933 23.88C280.453 23.6 279.933 23.46 279.373 23.46C278.813 23.46 278.286 23.6 277.793 23.88C277.313 24.1467 276.919 24.54 276.613 25.06C276.319 25.5667 276.173 26.18 276.173 26.9C276.173 27.62 276.319 28.24 276.613 28.76C276.919 29.2667 277.313 29.66 277.793 29.94C278.286 30.2067 278.813 30.34 279.373 30.34ZM291.482 32.32C290.429 32.32 289.502 32.08 288.702 31.6C287.902 31.12 287.275 30.4733 286.822 29.66C286.369 28.8467 286.142 27.9267 286.142 26.9C286.142 25.8867 286.369 24.9733 286.822 24.16C287.275 23.3333 287.902 22.68 288.702 22.2C289.502 21.72 290.429 21.48 291.482 21.48C292.522 21.48 293.442 21.72 294.242 22.2C295.042 22.68 295.669 23.3333 296.122 24.16C296.575 24.9733 296.802 25.8867 296.802 26.9C296.802 27.9267 296.575 28.8467 296.122 29.66C295.669 30.4733 295.042 31.12 294.242 31.6C293.442 32.08 292.522 32.32 291.482 32.32ZM291.482 30.34C292.042 30.34 292.562 30.2067 293.042 29.94C293.522 29.66 293.909 29.2667 294.202 28.76C294.509 28.24 294.662 27.62 294.662 26.9C294.662 26.18 294.509 25.5667 294.202 25.06C293.909 24.54 293.522 24.1467 293.042 23.88C292.562 23.6 292.042 23.46 291.482 23.46C290.922 23.46 290.395 23.6 289.902 23.88C289.422 24.1467 289.029 24.54 288.722 25.06C288.429 25.5667 288.282 26.18 288.282 26.9C288.282 27.62 288.429 28.24 288.722 28.76C289.029 29.2667 289.422 29.66 289.902 29.94C290.395 30.2067 290.922 30.34 291.482 30.34ZM303.391 36.64C302.498 36.64 301.725 36.4933 301.071 36.2C300.431 35.92 299.911 35.5533 299.511 35.1C299.111 34.66 298.825 34.2067 298.651 33.74L300.651 32.9C300.865 33.4333 301.205 33.8667 301.671 34.2C302.151 34.5467 302.725 34.72 303.391 34.72C304.325 34.72 305.058 34.44 305.591 33.88C306.138 33.32 306.411 32.5267 306.411 31.5V30.52H306.291C305.971 31 305.525 31.3867 304.951 31.68C304.391 31.96 303.751 32.1 303.031 32.1C302.165 32.1 301.371 31.88 300.651 31.44C299.931 31 299.351 30.3867 298.911 29.6C298.471 28.8 298.251 27.8667 298.251 26.8C298.251 25.72 298.471 24.7867 298.911 24C299.351 23.2 299.931 22.58 300.651 22.14C301.371 21.7 302.165 21.48 303.031 21.48C303.751 21.48 304.391 21.6267 304.951 21.92C305.525 22.2133 305.971 22.6 306.291 23.08H306.411V21.8H308.471V31.46C308.471 32.5667 308.251 33.5067 307.811 34.28C307.385 35.0533 306.791 35.64 306.031 36.04C305.271 36.44 304.391 36.64 303.391 36.64ZM303.411 30.14C303.945 30.14 304.438 30.0133 304.891 29.76C305.345 29.4933 305.711 29.1133 305.991 28.62C306.271 28.1133 306.411 27.5067 306.411 26.8C306.411 26.0667 306.271 25.4533 305.991 24.96C305.711 24.4533 305.345 24.0733 304.891 23.82C304.438 23.5667 303.945 23.44 303.411 23.44C302.878 23.44 302.378 23.5733 301.911 23.84C301.458 24.0933 301.091 24.4667 300.811 24.96C300.531 25.4533 300.391 26.0667 300.391 26.8C300.391 27.52 300.531 28.1333 300.811 28.64C301.091 29.1333 301.458 29.5067 301.911 29.76C302.378 30.0133 302.878 30.14 303.411 30.14ZM311.018 32V17.68H313.178V32H311.018ZM320.287 32.32C319.287 32.32 318.394 32.0867 317.607 31.62C316.821 31.1533 316.201 30.5133 315.747 29.7C315.307 28.8867 315.087 27.96 315.087 26.92C315.087 25.9467 315.301 25.0467 315.727 24.22C316.154 23.3933 316.747 22.7333 317.507 22.24C318.281 21.7333 319.167 21.48 320.167 21.48C321.221 21.48 322.114 21.7067 322.847 22.16C323.594 22.6133 324.161 23.2333 324.547 24.02C324.934 24.8067 325.127 25.6933 325.127 26.68C325.127 26.8267 325.121 26.96 325.107 27.08C325.107 27.2 325.101 27.2933 325.087 27.36H317.207C317.314 28.3733 317.667 29.1333 318.267 29.64C318.881 30.1467 319.574 30.4 320.347 30.4C321.041 30.4 321.614 30.2467 322.067 29.94C322.521 29.62 322.881 29.2267 323.147 28.76L324.927 29.62C324.487 30.42 323.887 31.0733 323.127 31.58C322.367 32.0733 321.421 32.32 320.287 32.32ZM320.187 23.32C319.467 23.32 318.854 23.54 318.347 23.98C317.841 24.42 317.501 25.0067 317.327 25.74H322.987C322.961 25.3933 322.847 25.0333 322.647 24.66C322.447 24.2867 322.141 23.9733 321.727 23.72C321.327 23.4533 320.814 23.32 320.187 23.32Z" fill="white"/>
<rect x="0.5" y="0.5" width="346" height="49" rx="24.5" stroke="#747775"/>
<defs>
<linearGradient id="paint0_linear_1819_24063" x1="34.5703" y1="30.7864" x2="18.7309" y2="48.9133" gradientUnits="userSpaceOnUse">
<stop stop-color="#4285F4"/>
<stop offset="1" stop-color="#1B74E8"/>
</linearGradient>
</defs>
</svg>
