<svg width="420" height="50" viewBox="0 0 420 50" fill="none" xmlns="http://www.w3.org/2000/svg">
<rect x="0.5" y="0.5" width="419" height="49" rx="24.5" fill="#1F1F1F"/>
<path d="M51 22H21V17C21 14.2857 23.2018 12 25.8165 12H46.1835C48.7982 12 51 14.2857 51 17V22Z" fill="#34A853"/>
<path d="M51 26.0537H21V21.0537C21 18.3394 23.2018 16.0537 25.8165 16.0537H46.1835C48.7982 16.0537 51 18.3394 51 21.0537V26.0537Z" fill="#FBBC04"/>
<path d="M51 30.2468H21V25.2468C21 22.5325 23.2018 20.2468 25.8165 20.2468H46.1835C48.7982 20.2468 51 22.5325 51 25.2468V30.2468Z" fill="#EA4335"/>
<path d="M21 23.2752L40.0411 27.6789C42.2329 28.2294 44.6986 27.6789 46.4795 26.3028L51 23V33.3211C51 35.9358 48.8082 38 46.2055 38H25.7945C23.1918 38 21 35.9358 21 33.3211V23.2752Z" fill="url(#paint0_linear_1819_24861)"/>
<path d="M67.54 32V19.76H63.52V17.68H73.72V19.76H69.72V32H67.54ZM78.6889 32.32C77.6356 32.32 76.7089 32.08 75.9089 31.6C75.1089 31.12 74.4822 30.4733 74.0289 29.66C73.5756 28.8467 73.3489 27.9267 73.3489 26.9C73.3489 25.8867 73.5756 24.9733 74.0289 24.16C74.4822 23.3333 75.1089 22.68 75.9089 22.2C76.7089 21.72 77.6356 21.48 78.6889 21.48C79.7289 21.48 80.6489 21.72 81.4489 22.2C82.2489 22.68 82.8756 23.3333 83.3289 24.16C83.7822 24.9733 84.0089 25.8867 84.0089 26.9C84.0089 27.9267 83.7822 28.8467 83.3289 29.66C82.8756 30.4733 82.2489 31.12 81.4489 31.6C80.6489 32.08 79.7289 32.32 78.6889 32.32ZM78.6889 30.4C79.2489 30.4 79.7756 30.2667 80.2689 30C80.7622 29.72 81.1622 29.32 81.4689 28.8C81.7756 28.28 81.9289 27.6467 81.9289 26.9C81.9289 26.1667 81.7756 25.54 81.4689 25.02C81.1756 24.5 80.7822 24.1 80.2889 23.82C79.7956 23.54 79.2622 23.4 78.6889 23.4C78.1156 23.4 77.5756 23.54 77.0689 23.82C76.5756 24.1 76.1756 24.5 75.8689 25.02C75.5756 25.54 75.4289 26.1667 75.4289 26.9C75.4289 27.6333 75.5756 28.26 75.8689 28.78C76.1756 29.3 76.5756 29.7 77.0689 29.98C77.5756 30.26 78.1156 30.4 78.6889 30.4ZM74.3889 27.72V26.02H82.8889V27.72H74.3889ZM85.803 32V21.8H88.363L91.503 28.04H91.603L94.763 21.8H97.263V32H95.203V27.04L95.303 25.08H95.183L92.243 30.7H90.823L87.883 25.08H87.763L87.863 27.04V32H85.803ZM104.49 32.32C103.436 32.32 102.51 32.08 101.71 31.6C100.91 31.12 100.283 30.4733 99.8297 29.66C99.3764 28.8467 99.1497 27.9267 99.1497 26.9C99.1497 25.8867 99.3764 24.9733 99.8297 24.16C100.283 23.3333 100.91 22.68 101.71 22.2C102.51 21.72 103.436 21.48 104.49 21.48C105.53 21.48 106.45 21.72 107.25 22.2C108.05 22.68 108.676 23.3333 109.13 24.16C109.583 24.9733 109.81 25.8867 109.81 26.9C109.81 27.9267 109.583 28.8467 109.13 29.66C108.676 30.4733 108.05 31.12 107.25 31.6C106.45 32.08 105.53 32.32 104.49 32.32ZM104.49 30.4C105.05 30.4 105.576 30.2667 106.07 30C106.563 29.72 106.963 29.32 107.27 28.8C107.576 28.28 107.73 27.6467 107.73 26.9C107.73 26.1667 107.576 25.54 107.27 25.02C106.976 24.5 106.583 24.1 106.09 23.82C105.596 23.54 105.063 23.4 104.49 23.4C103.916 23.4 103.376 23.54 102.87 23.82C102.376 24.1 101.976 24.5 101.67 25.02C101.376 25.54 101.23 26.1667 101.23 26.9C101.23 27.6333 101.376 28.26 101.67 28.78C101.976 29.3 102.376 29.7 102.87 29.98C103.376 30.26 103.916 30.4 104.49 30.4ZM100.19 27.72V26.02H108.69V27.72H100.19ZM111.604 32V21.8H113.764V25.9H118.604V21.8H120.764V32H118.604V27.78H113.764V32H111.604ZM123.283 32V21.8H125.443V26.32H125.563L129.563 21.8H132.043V21.92L127.783 26.58L132.203 31.88V32H129.643L125.563 26.98H125.443V32H123.283ZM136.733 36.32V32L132.613 21.8H134.993L137.833 29.42H137.853L140.733 21.8H143.073L138.893 32V36.32H136.733ZM144.029 32.16C143.723 32.16 143.429 32.1267 143.149 32.06V30.06C143.336 30.1533 143.543 30.2 143.769 30.2C144.223 30.2 144.543 30.0267 144.729 29.68C144.916 29.32 145.029 28.8667 145.069 28.32C145.109 27.7733 145.129 27.2067 145.129 26.62V21.8H152.929V32H150.789V23.68H147.169V26.96C147.169 27.6533 147.123 28.3133 147.029 28.94C146.949 29.5533 146.796 30.1067 146.569 30.6C146.343 31.08 146.023 31.46 145.609 31.74C145.209 32.02 144.683 32.16 144.029 32.16ZM160.173 32.32C159.12 32.32 158.193 32.08 157.393 31.6C156.593 31.12 155.967 30.4733 155.513 29.66C155.06 28.8467 154.833 27.9267 154.833 26.9C154.833 25.8867 155.06 24.9733 155.513 24.16C155.967 23.3333 156.593 22.68 157.393 22.2C158.193 21.72 159.12 21.48 160.173 21.48C161.213 21.48 162.133 21.72 162.933 22.2C163.733 22.68 164.36 23.3333 164.813 24.16C165.267 24.9733 165.493 25.8867 165.493 26.9C165.493 27.9267 165.267 28.8467 164.813 29.66C164.36 30.4733 163.733 31.12 162.933 31.6C162.133 32.08 161.213 32.32 160.173 32.32ZM160.173 30.4C160.733 30.4 161.26 30.2667 161.753 30C162.247 29.72 162.647 29.32 162.953 28.8C163.26 28.28 163.413 27.6467 163.413 26.9C163.413 26.1667 163.26 25.54 162.953 25.02C162.66 24.5 162.267 24.1 161.773 23.82C161.28 23.54 160.747 23.4 160.173 23.4C159.6 23.4 159.06 23.54 158.553 23.82C158.06 24.1 157.66 24.5 157.353 25.02C157.06 25.54 156.913 26.1667 156.913 26.9C156.913 27.6333 157.06 28.26 157.353 28.78C157.66 29.3 158.06 29.7 158.553 29.98C159.06 30.26 159.6 30.4 160.173 30.4ZM155.873 27.72V26.02H164.373V27.72H155.873ZM167.365 36.32V21.8H169.385V23.18H169.505C169.772 22.74 170.185 22.3467 170.745 22C171.318 21.6533 171.998 21.48 172.785 21.48C173.718 21.48 174.552 21.7133 175.285 22.18C176.018 22.6467 176.598 23.2867 177.025 24.1C177.465 24.9133 177.685 25.8467 177.685 26.9C177.685 27.9533 177.465 28.8933 177.025 29.72C176.598 30.5333 176.018 31.1733 175.285 31.64C174.552 32.0933 173.718 32.32 172.785 32.32C171.998 32.32 171.318 32.1533 170.745 31.82C170.185 31.4733 169.772 31.08 169.505 30.64H169.385L169.505 32.06V36.32H167.365ZM172.465 30.34C172.998 30.34 173.498 30.2 173.965 29.92C174.432 29.64 174.812 29.2467 175.105 28.74C175.398 28.22 175.545 27.6067 175.545 26.9C175.545 26.1933 175.398 25.5867 175.105 25.08C174.812 24.56 174.432 24.16 173.965 23.88C173.498 23.6 172.998 23.46 172.465 23.46C171.932 23.46 171.432 23.6 170.965 23.88C170.498 24.16 170.118 24.56 169.825 25.08C169.532 25.5867 169.385 26.1933 169.385 26.9C169.385 27.6067 169.532 28.22 169.825 28.74C170.118 29.2467 170.498 29.64 170.965 29.92C171.432 30.2 171.932 30.34 172.465 30.34ZM179.533 32V21.8H186.213V23.68H181.693V32H179.533ZM192.185 32.32C191.132 32.32 190.205 32.08 189.405 31.6C188.605 31.12 187.978 30.4733 187.525 29.66C187.072 28.8467 186.845 27.9267 186.845 26.9C186.845 25.8867 187.072 24.9733 187.525 24.16C187.978 23.3333 188.605 22.68 189.405 22.2C190.205 21.72 191.132 21.48 192.185 21.48C193.225 21.48 194.145 21.72 194.945 22.2C195.745 22.68 196.372 23.3333 196.825 24.16C197.278 24.9733 197.505 25.8867 197.505 26.9C197.505 27.9267 197.278 28.8467 196.825 29.66C196.372 30.4733 195.745 31.12 194.945 31.6C194.145 32.08 193.225 32.32 192.185 32.32ZM192.185 30.4C192.745 30.4 193.272 30.2667 193.765 30C194.258 29.72 194.658 29.32 194.965 28.8C195.272 28.28 195.425 27.6467 195.425 26.9C195.425 26.1667 195.272 25.54 194.965 25.02C194.672 24.5 194.278 24.1 193.785 23.82C193.292 23.54 192.758 23.4 192.185 23.4C191.612 23.4 191.072 23.54 190.565 23.82C190.072 24.1 189.672 24.5 189.365 25.02C189.072 25.54 188.925 26.1667 188.925 26.9C188.925 27.6333 189.072 28.26 189.365 28.78C189.672 29.3 190.072 29.7 190.565 29.98C191.072 30.26 191.612 30.4 192.185 30.4ZM187.885 27.72V26.02H196.385V27.72H187.885ZM204.162 32V21.8H206.322V26.32H206.442L210.442 21.8H212.922V21.92L208.662 26.58L213.082 31.88V32H210.522L206.442 26.98H206.322V32H204.162ZM219.021 32.32C217.968 32.32 217.041 32.08 216.241 31.6C215.441 31.12 214.814 30.4733 214.361 29.66C213.908 28.8467 213.681 27.9267 213.681 26.9C213.681 25.8867 213.908 24.9733 214.361 24.16C214.814 23.3333 215.441 22.68 216.241 22.2C217.041 21.72 217.968 21.48 219.021 21.48C220.061 21.48 220.981 21.72 221.781 22.2C222.581 22.68 223.208 23.3333 223.661 24.16C224.114 24.9733 224.341 25.8867 224.341 26.9C224.341 27.9267 224.114 28.8467 223.661 29.66C223.208 30.4733 222.581 31.12 221.781 31.6C220.981 32.08 220.061 32.32 219.021 32.32ZM219.021 30.34C219.581 30.34 220.101 30.2067 220.581 29.94C221.061 29.66 221.448 29.2667 221.741 28.76C222.048 28.24 222.201 27.62 222.201 26.9C222.201 26.18 222.048 25.5667 221.741 25.06C221.448 24.54 221.061 24.1467 220.581 23.88C220.101 23.6 219.581 23.46 219.021 23.46C218.461 23.46 217.934 23.6 217.441 23.88C216.961 24.1467 216.568 24.54 216.261 25.06C215.968 25.5667 215.821 26.18 215.821 26.9C215.821 27.62 215.968 28.24 216.261 28.76C216.568 29.2667 216.961 29.66 217.441 29.94C217.934 30.2067 218.461 30.34 219.021 30.34ZM226.135 32V21.8H228.275V30.12H231.635V21.8H233.775V30.12H237.135V21.8H239.275V32H226.135ZM245.299 35.82C245.259 35.9267 245.212 36.0267 245.159 36.12C245.119 36.2133 245.092 36.28 245.079 36.32H242.779C242.845 36.1733 242.939 35.96 243.059 35.68C243.192 35.4133 243.319 35.1533 243.439 34.9C243.559 34.6467 243.685 34.36 243.819 34.04C243.965 33.72 244.112 33.4067 244.259 33.1L245.019 31.44L240.759 21.8H243.159L246.079 28.76H246.179L248.999 21.8H251.379L246.099 33.96C245.952 34.3067 245.792 34.6667 245.619 35.04C245.459 35.4267 245.352 35.6867 245.299 35.82ZM256.412 35.82C256.372 35.9267 256.325 36.0267 256.272 36.12C256.232 36.2133 256.205 36.28 256.192 36.32H253.892C253.959 36.1733 254.052 35.96 254.172 35.68C254.305 35.4133 254.432 35.1533 254.552 34.9C254.672 34.6467 254.799 34.36 254.932 34.04C255.079 33.72 255.225 33.4067 255.372 33.1L256.132 31.44L251.872 21.8H254.272L257.192 28.76H257.292L260.112 21.8H262.492L257.212 33.96C257.065 34.3067 256.905 34.6667 256.732 35.04C256.572 35.4267 256.465 35.6867 256.412 35.82Z" fill="white"/>
<path d="M276.4 32.32C275.373 32.32 274.407 32.1333 273.5 31.76C272.607 31.3867 271.813 30.8667 271.12 30.2C270.427 29.52 269.88 28.7267 269.48 27.82C269.093 26.9 268.9 25.9067 268.9 24.84C268.9 23.7733 269.093 22.7867 269.48 21.88C269.88 20.96 270.42 20.1667 271.1 19.5C271.793 18.82 272.593 18.2933 273.5 17.92C274.407 17.5467 275.373 17.36 276.4 17.36C277.493 17.36 278.5 17.5533 279.42 17.94C280.353 18.3267 281.133 18.8667 281.76 19.56L280.24 21.06C279.773 20.54 279.213 20.14 278.56 19.86C277.92 19.58 277.2 19.44 276.4 19.44C275.453 19.44 274.58 19.6667 273.78 20.12C272.98 20.56 272.333 21.1867 271.84 22C271.36 22.8 271.12 23.7467 271.12 24.84C271.12 25.9333 271.367 26.8867 271.86 27.7C272.353 28.5 273 29.1267 273.8 29.58C274.6 30.02 275.473 30.24 276.42 30.24C277.287 30.24 278.073 30.08 278.78 29.76C279.487 29.4267 280.053 28.96 280.48 28.36C280.92 27.76 281.187 27.04 281.28 26.2H276.38V24.26H283.34C283.42 24.62 283.46 25 283.46 25.4V25.42C283.46 26.8067 283.153 28.02 282.54 29.06C281.94 30.0867 281.107 30.8867 280.04 31.46C278.973 32.0333 277.76 32.32 276.4 32.32ZM289.9 32.32C288.847 32.32 287.92 32.08 287.12 31.6C286.32 31.12 285.693 30.4733 285.24 29.66C284.787 28.8467 284.56 27.9267 284.56 26.9C284.56 25.8867 284.787 24.9733 285.24 24.16C285.693 23.3333 286.32 22.68 287.12 22.2C287.92 21.72 288.847 21.48 289.9 21.48C290.94 21.48 291.86 21.72 292.66 22.2C293.46 22.68 294.087 23.3333 294.54 24.16C294.993 24.9733 295.22 25.8867 295.22 26.9C295.22 27.9267 294.993 28.8467 294.54 29.66C294.087 30.4733 293.46 31.12 292.66 31.6C291.86 32.08 290.94 32.32 289.9 32.32ZM289.9 30.34C290.46 30.34 290.98 30.2067 291.46 29.94C291.94 29.66 292.327 29.2667 292.62 28.76C292.927 28.24 293.08 27.62 293.08 26.9C293.08 26.18 292.927 25.5667 292.62 25.06C292.327 24.54 291.94 24.1467 291.46 23.88C290.98 23.6 290.46 23.46 289.9 23.46C289.34 23.46 288.813 23.6 288.32 23.88C287.84 24.1467 287.447 24.54 287.14 25.06C286.847 25.5667 286.7 26.18 286.7 26.9C286.7 27.62 286.847 28.24 287.14 28.76C287.447 29.2667 287.84 29.66 288.32 29.94C288.813 30.2067 289.34 30.34 289.9 30.34ZM302.009 32.32C300.956 32.32 300.029 32.08 299.229 31.6C298.429 31.12 297.803 30.4733 297.349 29.66C296.896 28.8467 296.669 27.9267 296.669 26.9C296.669 25.8867 296.896 24.9733 297.349 24.16C297.803 23.3333 298.429 22.68 299.229 22.2C300.029 21.72 300.956 21.48 302.009 21.48C303.049 21.48 303.969 21.72 304.769 22.2C305.569 22.68 306.196 23.3333 306.649 24.16C307.103 24.9733 307.329 25.8867 307.329 26.9C307.329 27.9267 307.103 28.8467 306.649 29.66C306.196 30.4733 305.569 31.12 304.769 31.6C303.969 32.08 303.049 32.32 302.009 32.32ZM302.009 30.34C302.569 30.34 303.089 30.2067 303.569 29.94C304.049 29.66 304.436 29.2667 304.729 28.76C305.036 28.24 305.189 27.62 305.189 26.9C305.189 26.18 305.036 25.5667 304.729 25.06C304.436 24.54 304.049 24.1467 303.569 23.88C303.089 23.6 302.569 23.46 302.009 23.46C301.449 23.46 300.923 23.6 300.429 23.88C299.949 24.1467 299.556 24.54 299.249 25.06C298.956 25.5667 298.809 26.18 298.809 26.9C298.809 27.62 298.956 28.24 299.249 28.76C299.556 29.2667 299.949 29.66 300.429 29.94C300.923 30.2067 301.449 30.34 302.009 30.34ZM313.919 36.64C313.025 36.64 312.252 36.4933 311.599 36.2C310.959 35.92 310.439 35.5533 310.039 35.1C309.639 34.66 309.352 34.2067 309.179 33.74L311.179 32.9C311.392 33.4333 311.732 33.8667 312.199 34.2C312.679 34.5467 313.252 34.72 313.919 34.72C314.852 34.72 315.585 34.44 316.119 33.88C316.665 33.32 316.939 32.5267 316.939 31.5V30.52H316.819C316.499 31 316.052 31.3867 315.479 31.68C314.919 31.96 314.279 32.1 313.559 32.1C312.692 32.1 311.899 31.88 311.179 31.44C310.459 31 309.879 30.3867 309.439 29.6C308.999 28.8 308.779 27.8667 308.779 26.8C308.779 25.72 308.999 24.7867 309.439 24C309.879 23.2 310.459 22.58 311.179 22.14C311.899 21.7 312.692 21.48 313.559 21.48C314.279 21.48 314.919 21.6267 315.479 21.92C316.052 22.2133 316.499 22.6 316.819 23.08H316.939V21.8H318.999V31.46C318.999 32.5667 318.779 33.5067 318.339 34.28C317.912 35.0533 317.319 35.64 316.559 36.04C315.799 36.44 314.919 36.64 313.919 36.64ZM313.939 30.14C314.472 30.14 314.965 30.0133 315.419 29.76C315.872 29.4933 316.239 29.1133 316.519 28.62C316.799 28.1133 316.939 27.5067 316.939 26.8C316.939 26.0667 316.799 25.4533 316.519 24.96C316.239 24.4533 315.872 24.0733 315.419 23.82C314.965 23.5667 314.472 23.44 313.939 23.44C313.405 23.44 312.905 23.5733 312.439 23.84C311.985 24.0933 311.619 24.4667 311.339 24.96C311.059 25.4533 310.919 26.0667 310.919 26.8C310.919 27.52 311.059 28.1333 311.339 28.64C311.619 29.1333 311.985 29.5067 312.439 29.76C312.905 30.0133 313.405 30.14 313.939 30.14ZM321.546 32V17.68H323.706V32H321.546ZM330.815 32.32C329.815 32.32 328.921 32.0867 328.135 31.62C327.348 31.1533 326.728 30.5133 326.275 29.7C325.835 28.8867 325.615 27.96 325.615 26.92C325.615 25.9467 325.828 25.0467 326.255 24.22C326.681 23.3933 327.275 22.7333 328.035 22.24C328.808 21.7333 329.695 21.48 330.695 21.48C331.748 21.48 332.641 21.7067 333.375 22.16C334.121 22.6133 334.688 23.2333 335.075 24.02C335.461 24.8067 335.655 25.6933 335.655 26.68C335.655 26.8267 335.648 26.96 335.635 27.08C335.635 27.2 335.628 27.2933 335.615 27.36H327.735C327.841 28.3733 328.195 29.1333 328.795 29.64C329.408 30.1467 330.101 30.4 330.875 30.4C331.568 30.4 332.141 30.2467 332.595 29.94C333.048 29.62 333.408 29.2267 333.675 28.76L335.455 29.62C335.015 30.42 334.415 31.0733 333.655 31.58C332.895 32.0733 331.948 32.32 330.815 32.32ZM330.715 23.32C329.995 23.32 329.381 23.54 328.875 23.98C328.368 24.42 328.028 25.0067 327.855 25.74H333.515C333.488 25.3933 333.375 25.0333 333.175 24.66C332.975 24.2867 332.668 23.9733 332.255 23.72C331.855 23.4533 331.341 23.32 330.715 23.32ZM344.446 32L340.606 17.68H343.046L345.326 26.98L345.566 28.22H345.686L345.986 26.98L348.866 17.68H351.066L353.826 26.98L354.126 28.2H354.246L354.486 26.98L356.766 17.68H359.186L355.406 32H353.086L350.346 22.5L350.026 21.16H349.906L349.566 22.5L346.706 32H344.446ZM363.202 32.32C362.469 32.32 361.816 32.18 361.242 31.9C360.669 31.6067 360.222 31.2 359.902 30.68C359.582 30.16 359.422 29.5667 359.422 28.9C359.422 28.18 359.609 27.5667 359.982 27.06C360.369 26.54 360.882 26.1467 361.522 25.88C362.162 25.6133 362.869 25.48 363.642 25.48C364.282 25.48 364.842 25.54 365.322 25.66C365.816 25.78 366.189 25.9067 366.442 26.04V25.5C366.442 24.8333 366.202 24.3 365.722 23.9C365.242 23.5 364.622 23.3 363.862 23.3C363.342 23.3 362.849 23.42 362.382 23.66C361.916 23.8867 361.542 24.2 361.262 24.6L359.782 23.46C360.222 22.8467 360.802 22.3667 361.522 22.02C362.256 21.66 363.056 21.48 363.922 21.48C365.402 21.48 366.542 21.8467 367.342 22.58C368.142 23.3 368.542 24.3133 368.542 25.62V32H366.442V30.74H366.322C366.056 31.1533 365.656 31.52 365.122 31.84C364.589 32.16 363.949 32.32 363.202 32.32ZM363.582 30.56C364.142 30.56 364.636 30.4267 365.062 30.16C365.489 29.8933 365.822 29.5467 366.062 29.12C366.316 28.68 366.442 28.2067 366.442 27.7C366.136 27.5267 365.776 27.3867 365.362 27.28C364.949 27.16 364.509 27.1 364.042 27.1C363.162 27.1 362.536 27.28 362.162 27.64C361.789 27.9867 361.602 28.4133 361.602 28.92C361.602 29.4 361.782 29.7933 362.142 30.1C362.502 30.4067 362.982 30.56 363.582 30.56ZM370.94 32V17.68H373.1V32H370.94ZM375.667 32V17.68H377.827V32H375.667ZM384.936 32.32C383.936 32.32 383.042 32.0867 382.256 31.62C381.469 31.1533 380.849 30.5133 380.396 29.7C379.956 28.8867 379.736 27.96 379.736 26.92C379.736 25.9467 379.949 25.0467 380.376 24.22C380.802 23.3933 381.396 22.7333 382.156 22.24C382.929 21.7333 383.816 21.48 384.816 21.48C385.869 21.48 386.762 21.7067 387.496 22.16C388.242 22.6133 388.809 23.2333 389.196 24.02C389.582 24.8067 389.776 25.6933 389.776 26.68C389.776 26.8267 389.769 26.96 389.756 27.08C389.756 27.2 389.749 27.2933 389.736 27.36H381.856C381.962 28.3733 382.316 29.1333 382.916 29.64C383.529 30.1467 384.222 30.4 384.996 30.4C385.689 30.4 386.262 30.2467 386.716 29.94C387.169 29.62 387.529 29.2267 387.796 28.76L389.576 29.62C389.136 30.42 388.536 31.0733 387.776 31.58C387.016 32.0733 386.069 32.32 384.936 32.32ZM384.836 23.32C384.116 23.32 383.502 23.54 382.996 23.98C382.489 24.42 382.149 25.0067 381.976 25.74H387.636C387.609 25.3933 387.496 25.0333 387.296 24.66C387.096 24.2867 386.789 23.9733 386.376 23.72C385.976 23.4533 385.462 23.32 384.836 23.32ZM392.567 29.04V23.68H390.787V21.8H392.567V18.92H394.727V21.8H397.227V23.68H394.727V28.58C394.727 29.0867 394.827 29.4733 395.027 29.74C395.24 30.0067 395.593 30.14 396.087 30.14C396.34 30.14 396.553 30.1067 396.727 30.04C396.913 29.9733 397.1 29.88 397.287 29.76V31.86C397.06 31.9533 396.82 32.0267 396.567 32.08C396.313 32.1333 396.013 32.16 395.667 32.16C394.72 32.16 393.967 31.8867 393.407 31.34C392.847 30.78 392.567 30.0133 392.567 29.04Z" fill="white"/>
<rect x="0.5" y="0.5" width="419" height="49" rx="24.5" stroke="#747775"/>
<defs>
<linearGradient id="paint0_linear_1819_24861" x1="34.5703" y1="30.7864" x2="18.7309" y2="48.9133" gradientUnits="userSpaceOnUse">
<stop stop-color="#4285F4"/>
<stop offset="1" stop-color="#1B74E8"/>
</linearGradient>
</defs>
</svg>
