<svg width="307" height="50" viewBox="0 0 307 50" fill="none" xmlns="http://www.w3.org/2000/svg">
<rect x="0.5" y="0.5" width="306" height="49" rx="24.5" fill="#1F1F1F"/>
<path d="M51 22H21V17C21 14.2857 23.2018 12 25.8165 12H46.1835C48.7982 12 51 14.2857 51 17V22Z" fill="#34A853"/>
<path d="M51 26.0537H21V21.0537C21 18.3394 23.2018 16.0537 25.8165 16.0537H46.1835C48.7982 16.0537 51 18.3394 51 21.0537V26.0537Z" fill="#FBBC04"/>
<path d="M51 30.2468H21V25.2468C21 22.5325 23.2018 20.2468 25.8165 20.2468H46.1835C48.7982 20.2468 51 22.5325 51 25.2468V30.2468Z" fill="#EA4335"/>
<path d="M21 23.2752L40.0411 27.6789C42.2329 28.2294 44.6986 27.6789 46.4795 26.3028L51 23V33.3211C51 35.9358 48.8082 38 46.2055 38H25.7945C23.1918 38 21 35.9358 21 33.3211V23.2752Z" fill="url(#paint0_linear_1819_23987)"/>
<path d="M63.3 32L68.7 17.68H71.2L76.62 32H74.2L72.88 28.32H67.04L65.72 32H63.3ZM69.36 21.9L67.78 26.28H72.14L70.56 21.9L70.02 20.26H69.9L69.36 21.9ZM78.6427 32V23.68H76.7827V21.8H78.6427V20.96C78.6427 20.24 78.796 19.6267 79.1027 19.12C79.4093 18.6 79.8227 18.2067 80.3427 17.94C80.876 17.66 81.476 17.52 82.1427 17.52C82.5027 17.52 82.8093 17.5467 83.0627 17.6C83.3293 17.64 83.5493 17.6933 83.7227 17.76V19.86C83.5493 19.7933 83.3493 19.7267 83.1227 19.66C82.9093 19.58 82.6427 19.54 82.3227 19.54C81.9093 19.54 81.5493 19.68 81.2427 19.96C80.936 20.2267 80.7827 20.62 80.7827 21.14V21.8H83.3427V23.68H80.7827V32H78.6427ZM89.4473 32.32C88.4473 32.32 87.554 32.0867 86.7673 31.62C85.9807 31.1533 85.3607 30.5133 84.9073 29.7C84.4673 28.8867 84.2473 27.96 84.2473 26.92C84.2473 25.9467 84.4607 25.0467 84.8873 24.22C85.314 23.3933 85.9073 22.7333 86.6673 22.24C87.4407 21.7333 88.3273 21.48 89.3273 21.48C90.3807 21.48 91.274 21.7067 92.0073 22.16C92.754 22.6133 93.3207 23.2333 93.7073 24.02C94.094 24.8067 94.2873 25.6933 94.2873 26.68C94.2873 26.8267 94.2807 26.96 94.2673 27.08C94.2673 27.2 94.2607 27.2933 94.2473 27.36H86.3673C86.474 28.3733 86.8273 29.1333 87.4273 29.64C88.0407 30.1467 88.734 30.4 89.5073 30.4C90.2007 30.4 90.774 30.2467 91.2273 29.94C91.6807 29.62 92.0407 29.2267 92.3073 28.76L94.0873 29.62C93.6473 30.42 93.0473 31.0733 92.2873 31.58C91.5273 32.0733 90.5807 32.32 89.4473 32.32ZM89.3473 23.32C88.6273 23.32 88.014 23.54 87.5073 23.98C87.0007 24.42 86.6607 25.0067 86.4873 25.74H92.1473C92.1207 25.3933 92.0073 25.0333 91.8073 24.66C91.6073 24.2867 91.3007 23.9733 90.8873 23.72C90.4873 23.4533 89.974 23.32 89.3473 23.32ZM100.989 36.64C100.096 36.64 99.3222 36.4933 98.6689 36.2C98.0289 35.92 97.5089 35.5533 97.1089 35.1C96.7089 34.66 96.4222 34.2067 96.2489 33.74L98.2489 32.9C98.4622 33.4333 98.8022 33.8667 99.2689 34.2C99.7489 34.5467 100.322 34.72 100.989 34.72C101.922 34.72 102.656 34.44 103.189 33.88C103.736 33.32 104.009 32.5267 104.009 31.5V30.52H103.889C103.569 31 103.122 31.3867 102.549 31.68C101.989 31.96 101.349 32.1 100.629 32.1C99.7622 32.1 98.9689 31.88 98.2489 31.44C97.5289 31 96.9489 30.3867 96.5089 29.6C96.0689 28.8 95.8489 27.8667 95.8489 26.8C95.8489 25.72 96.0689 24.7867 96.5089 24C96.9489 23.2 97.5289 22.58 98.2489 22.14C98.9689 21.7 99.7622 21.48 100.629 21.48C101.349 21.48 101.989 21.6267 102.549 21.92C103.122 22.2133 103.569 22.6 103.889 23.08H104.009V21.8H106.069V31.46C106.069 32.5667 105.849 33.5067 105.409 34.28C104.982 35.0533 104.389 35.64 103.629 36.04C102.869 36.44 101.989 36.64 100.989 36.64ZM101.009 30.14C101.542 30.14 102.036 30.0133 102.489 29.76C102.942 29.4933 103.309 29.1133 103.589 28.62C103.869 28.1133 104.009 27.5067 104.009 26.8C104.009 26.0667 103.869 25.4533 103.589 24.96C103.309 24.4533 102.942 24.0733 102.489 23.82C102.036 23.5667 101.542 23.44 101.009 23.44C100.476 23.44 99.9756 23.5733 99.5089 23.84C99.0556 24.0933 98.6889 24.4667 98.4089 24.96C98.1289 25.4533 97.9889 26.0667 97.9889 26.8C97.9889 27.52 98.1289 28.1333 98.4089 28.64C98.6889 29.1333 99.0556 29.5067 99.5089 29.76C99.9756 30.0133 100.476 30.14 101.009 30.14ZM113.158 32.32C112.158 32.32 111.265 32.0867 110.478 31.62C109.692 31.1533 109.072 30.5133 108.618 29.7C108.178 28.8867 107.958 27.96 107.958 26.92C107.958 25.9467 108.172 25.0467 108.598 24.22C109.025 23.3933 109.618 22.7333 110.378 22.24C111.152 21.7333 112.038 21.48 113.038 21.48C114.092 21.48 114.985 21.7067 115.718 22.16C116.465 22.6133 117.032 23.2333 117.418 24.02C117.805 24.8067 117.998 25.6933 117.998 26.68C117.998 26.8267 117.992 26.96 117.978 27.08C117.978 27.2 117.972 27.2933 117.958 27.36H110.078C110.185 28.3733 110.538 29.1333 111.138 29.64C111.752 30.1467 112.445 30.4 113.218 30.4C113.912 30.4 114.485 30.2467 114.938 29.94C115.392 29.62 115.752 29.2267 116.018 28.76L117.798 29.62C117.358 30.42 116.758 31.0733 115.998 31.58C115.238 32.0733 114.292 32.32 113.158 32.32ZM113.058 23.32C112.338 23.32 111.725 23.54 111.218 23.98C110.712 24.42 110.372 25.0067 110.198 25.74H115.858C115.832 25.3933 115.718 25.0333 115.518 24.66C115.318 24.2867 115.012 23.9733 114.598 23.72C114.198 23.4533 113.685 23.32 113.058 23.32ZM121.242 20.3C120.842 20.3 120.496 20.16 120.202 19.88C119.922 19.5867 119.782 19.24 119.782 18.84C119.782 18.44 119.922 18.1 120.202 17.82C120.496 17.54 120.842 17.4 121.242 17.4C121.642 17.4 121.982 17.54 122.262 17.82C122.556 18.1 122.702 18.44 122.702 18.84C122.702 19.24 122.556 19.5867 122.262 19.88C121.982 20.16 121.642 20.3 121.242 20.3ZM120.162 32V21.8H122.322V32H120.162ZM124.002 32L127.582 26.82L124.062 21.8H126.562L128.882 25.2L131.082 21.8H133.682L130.102 26.82L133.702 32H131.182L128.842 28.5L126.542 32H124.002ZM143.085 32.32C142.352 32.32 141.698 32.18 141.125 31.9C140.552 31.6067 140.105 31.2 139.785 30.68C139.465 30.16 139.305 29.5667 139.305 28.9C139.305 28.18 139.492 27.5667 139.865 27.06C140.252 26.54 140.765 26.1467 141.405 25.88C142.045 25.6133 142.752 25.48 143.525 25.48C144.165 25.48 144.725 25.54 145.205 25.66C145.698 25.78 146.072 25.9067 146.325 26.04V25.5C146.325 24.8333 146.085 24.3 145.605 23.9C145.125 23.5 144.505 23.3 143.745 23.3C143.225 23.3 142.732 23.42 142.265 23.66C141.798 23.8867 141.425 24.2 141.145 24.6L139.665 23.46C140.105 22.8467 140.685 22.3667 141.405 22.02C142.138 21.66 142.938 21.48 143.805 21.48C145.285 21.48 146.425 21.8467 147.225 22.58C148.025 23.3 148.425 24.3133 148.425 25.62V32H146.325V30.74H146.205C145.938 31.1533 145.538 31.52 145.005 31.84C144.472 32.16 143.832 32.32 143.085 32.32ZM143.465 30.56C144.025 30.56 144.518 30.4267 144.945 30.16C145.372 29.8933 145.705 29.5467 145.945 29.12C146.198 28.68 146.325 28.2067 146.325 27.7C146.018 27.5267 145.658 27.3867 145.245 27.28C144.832 27.16 144.392 27.1 143.925 27.1C143.045 27.1 142.418 27.28 142.045 27.64C141.672 27.9867 141.485 28.4133 141.485 28.92C141.485 29.4 141.665 29.7933 142.025 30.1C142.385 30.4067 142.865 30.56 143.465 30.56Z" fill="white"/>
<path d="M163.4 32.32C162.373 32.32 161.407 32.1333 160.5 31.76C159.607 31.3867 158.813 30.8667 158.12 30.2C157.427 29.52 156.88 28.7267 156.48 27.82C156.093 26.9 155.9 25.9067 155.9 24.84C155.9 23.7733 156.093 22.7867 156.48 21.88C156.88 20.96 157.42 20.1667 158.1 19.5C158.793 18.82 159.593 18.2933 160.5 17.92C161.407 17.5467 162.373 17.36 163.4 17.36C164.493 17.36 165.5 17.5533 166.42 17.94C167.353 18.3267 168.133 18.8667 168.76 19.56L167.24 21.06C166.773 20.54 166.213 20.14 165.56 19.86C164.92 19.58 164.2 19.44 163.4 19.44C162.453 19.44 161.58 19.6667 160.78 20.12C159.98 20.56 159.333 21.1867 158.84 22C158.36 22.8 158.12 23.7467 158.12 24.84C158.12 25.9333 158.367 26.8867 158.86 27.7C159.353 28.5 160 29.1267 160.8 29.58C161.6 30.02 162.473 30.24 163.42 30.24C164.287 30.24 165.073 30.08 165.78 29.76C166.487 29.4267 167.053 28.96 167.48 28.36C167.92 27.76 168.187 27.04 168.28 26.2H163.38V24.26H170.34C170.42 24.62 170.46 25 170.46 25.4V25.42C170.46 26.8067 170.153 28.02 169.54 29.06C168.94 30.0867 168.107 30.8867 167.04 31.46C165.973 32.0333 164.76 32.32 163.4 32.32ZM176.9 32.32C175.847 32.32 174.92 32.08 174.12 31.6C173.32 31.12 172.693 30.4733 172.24 29.66C171.787 28.8467 171.56 27.9267 171.56 26.9C171.56 25.8867 171.787 24.9733 172.24 24.16C172.693 23.3333 173.32 22.68 174.12 22.2C174.92 21.72 175.847 21.48 176.9 21.48C177.94 21.48 178.86 21.72 179.66 22.2C180.46 22.68 181.087 23.3333 181.54 24.16C181.993 24.9733 182.22 25.8867 182.22 26.9C182.22 27.9267 181.993 28.8467 181.54 29.66C181.087 30.4733 180.46 31.12 179.66 31.6C178.86 32.08 177.94 32.32 176.9 32.32ZM176.9 30.34C177.46 30.34 177.98 30.2067 178.46 29.94C178.94 29.66 179.327 29.2667 179.62 28.76C179.927 28.24 180.08 27.62 180.08 26.9C180.08 26.18 179.927 25.5667 179.62 25.06C179.327 24.54 178.94 24.1467 178.46 23.88C177.98 23.6 177.46 23.46 176.9 23.46C176.34 23.46 175.813 23.6 175.32 23.88C174.84 24.1467 174.447 24.54 174.14 25.06C173.847 25.5667 173.7 26.18 173.7 26.9C173.7 27.62 173.847 28.24 174.14 28.76C174.447 29.2667 174.84 29.66 175.32 29.94C175.813 30.2067 176.34 30.34 176.9 30.34ZM189.009 32.32C187.956 32.32 187.029 32.08 186.229 31.6C185.429 31.12 184.803 30.4733 184.349 29.66C183.896 28.8467 183.669 27.9267 183.669 26.9C183.669 25.8867 183.896 24.9733 184.349 24.16C184.803 23.3333 185.429 22.68 186.229 22.2C187.029 21.72 187.956 21.48 189.009 21.48C190.049 21.48 190.969 21.72 191.769 22.2C192.569 22.68 193.196 23.3333 193.649 24.16C194.103 24.9733 194.329 25.8867 194.329 26.9C194.329 27.9267 194.103 28.8467 193.649 29.66C193.196 30.4733 192.569 31.12 191.769 31.6C190.969 32.08 190.049 32.32 189.009 32.32ZM189.009 30.34C189.569 30.34 190.089 30.2067 190.569 29.94C191.049 29.66 191.436 29.2667 191.729 28.76C192.036 28.24 192.189 27.62 192.189 26.9C192.189 26.18 192.036 25.5667 191.729 25.06C191.436 24.54 191.049 24.1467 190.569 23.88C190.089 23.6 189.569 23.46 189.009 23.46C188.449 23.46 187.923 23.6 187.429 23.88C186.949 24.1467 186.556 24.54 186.249 25.06C185.956 25.5667 185.809 26.18 185.809 26.9C185.809 27.62 185.956 28.24 186.249 28.76C186.556 29.2667 186.949 29.66 187.429 29.94C187.923 30.2067 188.449 30.34 189.009 30.34ZM200.919 36.64C200.025 36.64 199.252 36.4933 198.599 36.2C197.959 35.92 197.439 35.5533 197.039 35.1C196.639 34.66 196.352 34.2067 196.179 33.74L198.179 32.9C198.392 33.4333 198.732 33.8667 199.199 34.2C199.679 34.5467 200.252 34.72 200.919 34.72C201.852 34.72 202.585 34.44 203.119 33.88C203.665 33.32 203.939 32.5267 203.939 31.5V30.52H203.819C203.499 31 203.052 31.3867 202.479 31.68C201.919 31.96 201.279 32.1 200.559 32.1C199.692 32.1 198.899 31.88 198.179 31.44C197.459 31 196.879 30.3867 196.439 29.6C195.999 28.8 195.779 27.8667 195.779 26.8C195.779 25.72 195.999 24.7867 196.439 24C196.879 23.2 197.459 22.58 198.179 22.14C198.899 21.7 199.692 21.48 200.559 21.48C201.279 21.48 201.919 21.6267 202.479 21.92C203.052 22.2133 203.499 22.6 203.819 23.08H203.939V21.8H205.999V31.46C205.999 32.5667 205.779 33.5067 205.339 34.28C204.912 35.0533 204.319 35.64 203.559 36.04C202.799 36.44 201.919 36.64 200.919 36.64ZM200.939 30.14C201.472 30.14 201.965 30.0133 202.419 29.76C202.872 29.4933 203.239 29.1133 203.519 28.62C203.799 28.1133 203.939 27.5067 203.939 26.8C203.939 26.0667 203.799 25.4533 203.519 24.96C203.239 24.4533 202.872 24.0733 202.419 23.82C201.965 23.5667 201.472 23.44 200.939 23.44C200.405 23.44 199.905 23.5733 199.439 23.84C198.985 24.0933 198.619 24.4667 198.339 24.96C198.059 25.4533 197.919 26.0667 197.919 26.8C197.919 27.52 198.059 28.1333 198.339 28.64C198.619 29.1333 198.985 29.5067 199.439 29.76C199.905 30.0133 200.405 30.14 200.939 30.14ZM208.546 32V17.68H210.706V32H208.546ZM217.815 32.32C216.815 32.32 215.921 32.0867 215.135 31.62C214.348 31.1533 213.728 30.5133 213.275 29.7C212.835 28.8867 212.615 27.96 212.615 26.92C212.615 25.9467 212.828 25.0467 213.255 24.22C213.681 23.3933 214.275 22.7333 215.035 22.24C215.808 21.7333 216.695 21.48 217.695 21.48C218.748 21.48 219.641 21.7067 220.375 22.16C221.121 22.6133 221.688 23.2333 222.075 24.02C222.461 24.8067 222.655 25.6933 222.655 26.68C222.655 26.8267 222.648 26.96 222.635 27.08C222.635 27.2 222.628 27.2933 222.615 27.36H214.735C214.841 28.3733 215.195 29.1333 215.795 29.64C216.408 30.1467 217.101 30.4 217.875 30.4C218.568 30.4 219.141 30.2467 219.595 29.94C220.048 29.62 220.408 29.2267 220.675 28.76L222.455 29.62C222.015 30.42 221.415 31.0733 220.655 31.58C219.895 32.0733 218.948 32.32 217.815 32.32ZM217.715 23.32C216.995 23.32 216.381 23.54 215.875 23.98C215.368 24.42 215.028 25.0067 214.855 25.74H220.515C220.488 25.3933 220.375 25.0333 220.175 24.66C219.975 24.2867 219.668 23.9733 219.255 23.72C218.855 23.4533 218.341 23.32 217.715 23.32ZM231.446 32L227.606 17.68H230.046L232.326 26.98L232.566 28.22H232.686L232.986 26.98L235.866 17.68H238.066L240.826 26.98L241.126 28.2H241.246L241.486 26.98L243.766 17.68H246.186L242.406 32H240.086L237.346 22.5L237.026 21.16H236.906L236.566 22.5L233.706 32H231.446ZM250.202 32.32C249.469 32.32 248.816 32.18 248.242 31.9C247.669 31.6067 247.222 31.2 246.902 30.68C246.582 30.16 246.422 29.5667 246.422 28.9C246.422 28.18 246.609 27.5667 246.982 27.06C247.369 26.54 247.882 26.1467 248.522 25.88C249.162 25.6133 249.869 25.48 250.642 25.48C251.282 25.48 251.842 25.54 252.322 25.66C252.816 25.78 253.189 25.9067 253.442 26.04V25.5C253.442 24.8333 253.202 24.3 252.722 23.9C252.242 23.5 251.622 23.3 250.862 23.3C250.342 23.3 249.849 23.42 249.382 23.66C248.916 23.8867 248.542 24.2 248.262 24.6L246.782 23.46C247.222 22.8467 247.802 22.3667 248.522 22.02C249.256 21.66 250.056 21.48 250.922 21.48C252.402 21.48 253.542 21.8467 254.342 22.58C255.142 23.3 255.542 24.3133 255.542 25.62V32H253.442V30.74H253.322C253.056 31.1533 252.656 31.52 252.122 31.84C251.589 32.16 250.949 32.32 250.202 32.32ZM250.582 30.56C251.142 30.56 251.636 30.4267 252.062 30.16C252.489 29.8933 252.822 29.5467 253.062 29.12C253.316 28.68 253.442 28.2067 253.442 27.7C253.136 27.5267 252.776 27.3867 252.362 27.28C251.949 27.16 251.509 27.1 251.042 27.1C250.162 27.1 249.536 27.28 249.162 27.64C248.789 27.9867 248.602 28.4133 248.602 28.92C248.602 29.4 248.782 29.7933 249.142 30.1C249.502 30.4067 249.982 30.56 250.582 30.56ZM257.94 32V17.68H260.1V32H257.94ZM262.667 32V17.68H264.827V32H262.667ZM271.936 32.32C270.936 32.32 270.042 32.0867 269.256 31.62C268.469 31.1533 267.849 30.5133 267.396 29.7C266.956 28.8867 266.736 27.96 266.736 26.92C266.736 25.9467 266.949 25.0467 267.376 24.22C267.802 23.3933 268.396 22.7333 269.156 22.24C269.929 21.7333 270.816 21.48 271.816 21.48C272.869 21.48 273.762 21.7067 274.496 22.16C275.242 22.6133 275.809 23.2333 276.196 24.02C276.582 24.8067 276.776 25.6933 276.776 26.68C276.776 26.8267 276.769 26.96 276.756 27.08C276.756 27.2 276.749 27.2933 276.736 27.36H268.856C268.962 28.3733 269.316 29.1333 269.916 29.64C270.529 30.1467 271.222 30.4 271.996 30.4C272.689 30.4 273.262 30.2467 273.716 29.94C274.169 29.62 274.529 29.2267 274.796 28.76L276.576 29.62C276.136 30.42 275.536 31.0733 274.776 31.58C274.016 32.0733 273.069 32.32 271.936 32.32ZM271.836 23.32C271.116 23.32 270.502 23.54 269.996 23.98C269.489 24.42 269.149 25.0067 268.976 25.74H274.636C274.609 25.3933 274.496 25.0333 274.296 24.66C274.096 24.2867 273.789 23.9733 273.376 23.72C272.976 23.4533 272.462 23.32 271.836 23.32ZM279.567 29.04V23.68H277.787V21.8H279.567V18.92H281.727V21.8H284.227V23.68H281.727V28.58C281.727 29.0867 281.827 29.4733 282.027 29.74C282.24 30.0067 282.593 30.14 283.087 30.14C283.34 30.14 283.553 30.1067 283.727 30.04C283.913 29.9733 284.1 29.88 284.287 29.76V31.86C284.06 31.9533 283.82 32.0267 283.567 32.08C283.313 32.1333 283.013 32.16 282.667 32.16C281.72 32.16 280.967 31.8867 280.407 31.34C279.847 30.78 279.567 30.0133 279.567 29.04Z" fill="white"/>
<rect x="0.5" y="0.5" width="306" height="49" rx="24.5" stroke="#747775"/>
<defs>
<linearGradient id="paint0_linear_1819_23987" x1="34.5703" y1="30.7864" x2="18.7309" y2="48.9133" gradientUnits="userSpaceOnUse">
<stop stop-color="#4285F4"/>
<stop offset="1" stop-color="#1B74E8"/>
</linearGradient>
</defs>
</svg>
