<svg width="326" height="50" viewBox="0 0 326 50" fill="none" xmlns="http://www.w3.org/2000/svg">
<rect x="0.5" y="0.5" width="325" height="49" rx="24.5" fill="#1F1F1F"/>
<path d="M51 22H21V17C21 14.2857 23.2018 12 25.8165 12H46.1835C48.7982 12 51 14.2857 51 17V22Z" fill="#34A853"/>
<path d="M51 26.0537H21V21.0537C21 18.3394 23.2018 16.0537 25.8165 16.0537H46.1835C48.7982 16.0537 51 18.3394 51 21.0537V26.0537Z" fill="#FBBC04"/>
<path d="M51 30.2468H21V25.2468C21 22.5325 23.2018 20.2468 25.8165 20.2468H46.1835C48.7982 20.2468 51 22.5325 51 25.2468V30.2468Z" fill="#EA4335"/>
<path d="M21 23.2752L40.0411 27.6789C42.2329 28.2294 44.6986 27.6789 46.4795 26.3028L51 23V33.3211C51 35.9358 48.8082 38 46.2055 38H25.7945C23.1918 38 21 35.9358 21 33.3211V23.2752Z" fill="url(#paint0_linear_1819_24804)"/>
<path d="M71.4 32.32C70.3733 32.32 69.4067 32.1333 68.5 31.76C67.6067 31.3867 66.8133 30.8667 66.12 30.2C65.4267 29.52 64.88 28.7267 64.48 27.82C64.0933 26.9 63.9 25.9067 63.9 24.84C63.9 23.7733 64.0933 22.7867 64.48 21.88C64.88 20.96 65.42 20.1667 66.1 19.5C66.7933 18.82 67.5933 18.2933 68.5 17.92C69.4067 17.5467 70.3733 17.36 71.4 17.36C72.4933 17.36 73.5 17.5533 74.42 17.94C75.3533 18.3267 76.1333 18.8667 76.76 19.56L75.24 21.06C74.7733 20.54 74.2133 20.14 73.56 19.86C72.92 19.58 72.2 19.44 71.4 19.44C70.4533 19.44 69.58 19.6667 68.78 20.12C67.98 20.56 67.3333 21.1867 66.84 22C66.36 22.8 66.12 23.7467 66.12 24.84C66.12 25.9333 66.3667 26.8867 66.86 27.7C67.3533 28.5 68 29.1267 68.8 29.58C69.6 30.02 70.4733 30.24 71.42 30.24C72.2867 30.24 73.0733 30.08 73.78 29.76C74.4867 29.4267 75.0533 28.96 75.48 28.36C75.92 27.76 76.1867 27.04 76.28 26.2H71.38V24.26H78.34C78.42 24.62 78.46 25 78.46 25.4V25.42C78.46 26.8067 78.1533 28.02 77.54 29.06C76.94 30.0867 76.1067 30.8867 75.04 31.46C73.9733 32.0333 72.76 32.32 71.4 32.32ZM84.8998 32.32C83.8465 32.32 82.9198 32.08 82.1198 31.6C81.3198 31.12 80.6932 30.4733 80.2398 29.66C79.7865 28.8467 79.5598 27.9267 79.5598 26.9C79.5598 25.8867 79.7865 24.9733 80.2398 24.16C80.6932 23.3333 81.3198 22.68 82.1198 22.2C82.9198 21.72 83.8465 21.48 84.8998 21.48C85.9398 21.48 86.8598 21.72 87.6598 22.2C88.4598 22.68 89.0865 23.3333 89.5398 24.16C89.9932 24.9733 90.2198 25.8867 90.2198 26.9C90.2198 27.9267 89.9932 28.8467 89.5398 29.66C89.0865 30.4733 88.4598 31.12 87.6598 31.6C86.8598 32.08 85.9398 32.32 84.8998 32.32ZM84.8998 30.34C85.4598 30.34 85.9798 30.2067 86.4598 29.94C86.9398 29.66 87.3265 29.2667 87.6198 28.76C87.9265 28.24 88.0798 27.62 88.0798 26.9C88.0798 26.18 87.9265 25.5667 87.6198 25.06C87.3265 24.54 86.9398 24.1467 86.4598 23.88C85.9798 23.6 85.4598 23.46 84.8998 23.46C84.3398 23.46 83.8132 23.6 83.3198 23.88C82.8398 24.1467 82.4465 24.54 82.1398 25.06C81.8465 25.5667 81.6998 26.18 81.6998 26.9C81.6998 27.62 81.8465 28.24 82.1398 28.76C82.4465 29.2667 82.8398 29.66 83.3198 29.94C83.8132 30.2067 84.3398 30.34 84.8998 30.34ZM97.0092 32.32C95.9559 32.32 95.0292 32.08 94.2292 31.6C93.4292 31.12 92.8026 30.4733 92.3492 29.66C91.8959 28.8467 91.6692 27.9267 91.6692 26.9C91.6692 25.8867 91.8959 24.9733 92.3492 24.16C92.8026 23.3333 93.4292 22.68 94.2292 22.2C95.0292 21.72 95.9559 21.48 97.0092 21.48C98.0492 21.48 98.9692 21.72 99.7692 22.2C100.569 22.68 101.196 23.3333 101.649 24.16C102.103 24.9733 102.329 25.8867 102.329 26.9C102.329 27.9267 102.103 28.8467 101.649 29.66C101.196 30.4733 100.569 31.12 99.7692 31.6C98.9692 32.08 98.0492 32.32 97.0092 32.32ZM97.0092 30.34C97.5692 30.34 98.0892 30.2067 98.5692 29.94C99.0492 29.66 99.4359 29.2667 99.7292 28.76C100.036 28.24 100.189 27.62 100.189 26.9C100.189 26.18 100.036 25.5667 99.7292 25.06C99.4359 24.54 99.0492 24.1467 98.5692 23.88C98.0892 23.6 97.5692 23.46 97.0092 23.46C96.4492 23.46 95.9226 23.6 95.4292 23.88C94.9492 24.1467 94.5559 24.54 94.2492 25.06C93.9559 25.5667 93.8092 26.18 93.8092 26.9C93.8092 27.62 93.9559 28.24 94.2492 28.76C94.5559 29.2667 94.9492 29.66 95.4292 29.94C95.9226 30.2067 96.4492 30.34 97.0092 30.34ZM108.919 36.64C108.025 36.64 107.252 36.4933 106.599 36.2C105.959 35.92 105.439 35.5533 105.039 35.1C104.639 34.66 104.352 34.2067 104.179 33.74L106.179 32.9C106.392 33.4333 106.732 33.8667 107.199 34.2C107.679 34.5467 108.252 34.72 108.919 34.72C109.852 34.72 110.585 34.44 111.119 33.88C111.665 33.32 111.939 32.5267 111.939 31.5V30.52H111.819C111.499 31 111.052 31.3867 110.479 31.68C109.919 31.96 109.279 32.1 108.559 32.1C107.692 32.1 106.899 31.88 106.179 31.44C105.459 31 104.879 30.3867 104.439 29.6C103.999 28.8 103.779 27.8667 103.779 26.8C103.779 25.72 103.999 24.7867 104.439 24C104.879 23.2 105.459 22.58 106.179 22.14C106.899 21.7 107.692 21.48 108.559 21.48C109.279 21.48 109.919 21.6267 110.479 21.92C111.052 22.2133 111.499 22.6 111.819 23.08H111.939V21.8H113.999V31.46C113.999 32.5667 113.779 33.5067 113.339 34.28C112.912 35.0533 112.319 35.64 111.559 36.04C110.799 36.44 109.919 36.64 108.919 36.64ZM108.939 30.14C109.472 30.14 109.965 30.0133 110.419 29.76C110.872 29.4933 111.239 29.1133 111.519 28.62C111.799 28.1133 111.939 27.5067 111.939 26.8C111.939 26.0667 111.799 25.4533 111.519 24.96C111.239 24.4533 110.872 24.0733 110.419 23.82C109.965 23.5667 109.472 23.44 108.939 23.44C108.405 23.44 107.905 23.5733 107.439 23.84C106.985 24.0933 106.619 24.4667 106.339 24.96C106.059 25.4533 105.919 26.0667 105.919 26.8C105.919 27.52 106.059 28.1333 106.339 28.64C106.619 29.1333 106.985 29.5067 107.439 29.76C107.905 30.0133 108.405 30.14 108.939 30.14ZM116.546 32V17.68H118.706V32H116.546ZM125.815 32.32C124.815 32.32 123.921 32.0867 123.135 31.62C122.348 31.1533 121.728 30.5133 121.275 29.7C120.835 28.8867 120.615 27.96 120.615 26.92C120.615 25.9467 120.828 25.0467 121.255 24.22C121.681 23.3933 122.275 22.7333 123.035 22.24C123.808 21.7333 124.695 21.48 125.695 21.48C126.748 21.48 127.641 21.7067 128.375 22.16C129.121 22.6133 129.688 23.2333 130.075 24.02C130.461 24.8067 130.655 25.6933 130.655 26.68C130.655 26.8267 130.648 26.96 130.635 27.08C130.635 27.2 130.628 27.2933 130.615 27.36H122.735C122.841 28.3733 123.195 29.1333 123.795 29.64C124.408 30.1467 125.101 30.4 125.875 30.4C126.568 30.4 127.141 30.2467 127.595 29.94C128.048 29.62 128.408 29.2267 128.675 28.76L130.455 29.62C130.015 30.42 129.415 31.0733 128.655 31.58C127.895 32.0733 126.948 32.32 125.815 32.32ZM125.715 23.32C124.995 23.32 124.381 23.54 123.875 23.98C123.368 24.42 123.028 25.0067 122.855 25.74H128.515C128.488 25.3933 128.375 25.0333 128.175 24.66C127.975 24.2867 127.668 23.9733 127.255 23.72C126.855 23.4533 126.341 23.32 125.715 23.32ZM137.686 32V17.68H142.606C143.473 17.68 144.26 17.8667 144.966 18.24C145.673 18.6133 146.233 19.1267 146.646 19.78C147.073 20.4333 147.286 21.1933 147.286 22.06C147.286 22.9267 147.073 23.6933 146.646 24.36C146.233 25.0133 145.673 25.5267 144.966 25.9C144.26 26.26 143.473 26.44 142.606 26.44H139.886V32H137.686ZM142.666 19.76H139.886V24.36H142.666C143.186 24.36 143.626 24.2533 143.986 24.04C144.346 23.8133 144.62 23.5267 144.806 23.18C145.006 22.82 145.106 22.4467 145.106 22.06C145.106 21.6733 145.006 21.3067 144.806 20.96C144.62 20.6133 144.346 20.3267 143.986 20.1C143.626 19.8733 143.186 19.76 142.666 19.76ZM152.687 32.32C151.433 32.32 150.487 31.9467 149.847 31.2C149.22 30.44 148.907 29.4133 148.907 28.12V21.8H151.067V27.82C151.067 28.6867 151.267 29.3267 151.667 29.74C152.08 30.14 152.593 30.34 153.207 30.34C153.753 30.34 154.227 30.2 154.627 29.92C155.04 29.6267 155.353 29.2533 155.567 28.8C155.793 28.3333 155.907 27.8267 155.907 27.28V21.8H158.047V32H156.027V30.62H155.907C155.613 31.1 155.173 31.5067 154.587 31.84C154.013 32.16 153.38 32.32 152.687 32.32ZM160.608 32V17.68H162.768V32H160.608ZM172.857 36.32V32.06L172.977 30.64H172.857C172.59 31.08 172.17 31.4733 171.597 31.82C171.037 32.1533 170.364 32.32 169.577 32.32C168.657 32.32 167.824 32.0933 167.077 31.64C166.344 31.1733 165.757 30.5333 165.317 29.72C164.89 28.8933 164.677 27.9533 164.677 26.9C164.677 25.8467 164.89 24.9133 165.317 24.1C165.757 23.2867 166.344 22.6467 167.077 22.18C167.824 21.7133 168.657 21.48 169.577 21.48C170.364 21.48 171.037 21.6533 171.597 22C172.17 22.3467 172.59 22.74 172.857 23.18H172.977V21.8H174.997V36.32H172.857ZM169.897 30.34C170.43 30.34 170.93 30.2 171.397 29.92C171.877 29.64 172.257 29.2467 172.537 28.74C172.83 28.22 172.977 27.6067 172.977 26.9C172.977 26.1933 172.83 25.5867 172.537 25.08C172.257 24.56 171.877 24.16 171.397 23.88C170.93 23.6 170.43 23.46 169.897 23.46C169.364 23.46 168.864 23.6 168.397 23.88C167.93 24.16 167.55 24.56 167.257 25.08C166.964 25.5867 166.817 26.1933 166.817 26.9C166.817 27.6067 166.964 28.22 167.257 28.74C167.55 29.2467 167.93 29.64 168.397 29.92C168.864 30.2 169.364 30.34 169.897 30.34ZM180.605 32.32C179.871 32.32 179.218 32.18 178.645 31.9C178.071 31.6067 177.625 31.2 177.305 30.68C176.985 30.16 176.825 29.5667 176.825 28.9C176.825 28.18 177.011 27.5667 177.385 27.06C177.771 26.54 178.285 26.1467 178.925 25.88C179.565 25.6133 180.271 25.48 181.045 25.48C181.685 25.48 182.245 25.54 182.725 25.66C183.218 25.78 183.591 25.9067 183.845 26.04V25.5C183.845 24.8333 183.605 24.3 183.125 23.9C182.645 23.5 182.025 23.3 181.265 23.3C180.745 23.3 180.251 23.42 179.785 23.66C179.318 23.8867 178.945 24.2 178.665 24.6L177.185 23.46C177.625 22.8467 178.205 22.3667 178.925 22.02C179.658 21.66 180.458 21.48 181.325 21.48C182.805 21.48 183.945 21.8467 184.745 22.58C185.545 23.3 185.945 24.3133 185.945 25.62V32H183.845V30.74H183.725C183.458 31.1533 183.058 31.52 182.525 31.84C181.991 32.16 181.351 32.32 180.605 32.32ZM180.985 30.56C181.545 30.56 182.038 30.4267 182.465 30.16C182.891 29.8933 183.225 29.5467 183.465 29.12C183.718 28.68 183.845 28.2067 183.845 27.7C183.538 27.5267 183.178 27.3867 182.765 27.28C182.351 27.16 181.911 27.1 181.445 27.1C180.565 27.1 179.938 27.28 179.565 27.64C179.191 27.9867 179.005 28.4133 179.005 28.92C179.005 29.4 179.185 29.7933 179.545 30.1C179.905 30.4067 180.385 30.56 180.985 30.56ZM193.763 32.32C192.976 32.32 192.296 32.1533 191.723 31.82C191.163 31.4733 190.749 31.08 190.483 30.64H190.363V32H188.323V17.68H190.483V21.76L190.363 23.18H190.483C190.749 22.74 191.163 22.3467 191.723 22C192.296 21.6533 192.976 21.48 193.763 21.48C194.696 21.48 195.529 21.7133 196.263 22.18C196.996 22.6467 197.576 23.2867 198.003 24.1C198.443 24.9133 198.663 25.8467 198.663 26.9C198.663 27.9533 198.443 28.8933 198.003 29.72C197.576 30.5333 196.996 31.1733 196.263 31.64C195.529 32.0933 194.696 32.32 193.763 32.32ZM193.443 30.34C193.976 30.34 194.476 30.2 194.943 29.92C195.409 29.64 195.789 29.2467 196.083 28.74C196.376 28.22 196.523 27.6067 196.523 26.9C196.523 26.1933 196.376 25.5867 196.083 25.08C195.789 24.56 195.409 24.16 194.943 23.88C194.476 23.6 193.976 23.46 193.443 23.46C192.909 23.46 192.409 23.6 191.943 23.88C191.476 24.16 191.096 24.56 190.803 25.08C190.509 25.5867 190.363 26.1933 190.363 26.9C190.363 27.6067 190.509 28.22 190.803 28.74C191.096 29.2467 191.476 29.64 191.943 29.92C192.409 30.2 192.909 30.34 193.443 30.34ZM200.709 32V21.8H202.869V32H200.709Z" fill="white"/>
<path d="M220.78 26.88C220.78 27.8533 220.567 28.7533 220.14 29.58C219.713 30.4067 219.113 31.0733 218.34 31.58C217.58 32.0733 216.693 32.32 215.68 32.32C214.627 32.32 213.733 32.0933 213 31.64C212.267 31.1867 211.7 30.5667 211.3 29.78C210.913 28.9933 210.72 28.1067 210.72 27.12C210.72 26.9733 210.727 26.84 210.74 26.72C210.753 26.6 210.767 26.5067 210.78 26.44H218.66C218.593 25.7467 218.407 25.18 218.1 24.74C217.793 24.2867 217.407 23.9533 216.94 23.74C216.487 23.5133 216.013 23.4 215.52 23.4C214.827 23.4 214.253 23.56 213.8 23.88C213.347 24.1867 212.987 24.5733 212.72 25.04L210.94 24.18C211.38 23.38 211.98 22.7333 212.74 22.24C213.5 21.7333 214.44 21.48 215.56 21.48C216.573 21.48 217.473 21.7133 218.26 22.18C219.047 22.6467 219.66 23.2867 220.1 24.1C220.553 24.9133 220.78 25.84 220.78 26.88ZM215.68 30.48C216.333 30.48 216.927 30.2733 217.46 29.86C217.993 29.4467 218.36 28.8467 218.56 28.06H212.88C212.907 28.4067 213.02 28.7667 213.22 29.14C213.42 29.5133 213.72 29.8333 214.12 30.1C214.533 30.3533 215.053 30.48 215.68 30.48ZM222.686 32V17.68H224.846V32H222.686ZM230.495 32.32C229.762 32.32 229.108 32.18 228.535 31.9C227.962 31.6067 227.515 31.2 227.195 30.68C226.875 30.16 226.715 29.5667 226.715 28.9C226.715 28.18 226.902 27.5667 227.275 27.06C227.662 26.54 228.175 26.1467 228.815 25.88C229.455 25.6133 230.162 25.48 230.935 25.48C231.575 25.48 232.135 25.54 232.615 25.66C233.108 25.78 233.482 25.9067 233.735 26.04V25.5C233.735 24.8333 233.495 24.3 233.015 23.9C232.535 23.5 231.915 23.3 231.155 23.3C230.635 23.3 230.142 23.42 229.675 23.66C229.208 23.8867 228.835 24.2 228.555 24.6L227.075 23.46C227.515 22.8467 228.095 22.3667 228.815 22.02C229.548 21.66 230.348 21.48 231.215 21.48C232.695 21.48 233.835 21.8467 234.635 22.58C235.435 23.3 235.835 24.3133 235.835 25.62V32H233.735V30.74H233.615C233.348 31.1533 232.948 31.52 232.415 31.84C231.882 32.16 231.242 32.32 230.495 32.32ZM230.875 30.56C231.435 30.56 231.928 30.4267 232.355 30.16C232.782 29.8933 233.115 29.5467 233.355 29.12C233.608 28.68 233.735 28.2067 233.735 27.7C233.428 27.5267 233.068 27.3867 232.655 27.28C232.242 27.16 231.802 27.1 231.335 27.1C230.455 27.1 229.828 27.28 229.455 27.64C229.082 27.9867 228.895 28.4133 228.895 28.92C228.895 29.4 229.075 29.7933 229.435 30.1C229.795 30.4067 230.275 30.56 230.875 30.56ZM241.118 32L236.898 21.8H239.298L242.158 29.22H242.258L245.178 21.8H247.538L243.278 32H241.118ZM258.163 26.88C258.163 27.8533 257.949 28.7533 257.523 29.58C257.096 30.4067 256.496 31.0733 255.723 31.58C254.963 32.0733 254.076 32.32 253.063 32.32C252.009 32.32 251.116 32.0933 250.383 31.64C249.649 31.1867 249.083 30.5667 248.683 29.78C248.296 28.9933 248.103 28.1067 248.103 27.12C248.103 26.9733 248.109 26.84 248.123 26.72C248.136 26.6 248.149 26.5067 248.163 26.44H256.043C255.976 25.7467 255.789 25.18 255.483 24.74C255.176 24.2867 254.789 23.9533 254.323 23.74C253.869 23.5133 253.396 23.4 252.903 23.4C252.209 23.4 251.636 23.56 251.183 23.88C250.729 24.1867 250.369 24.5733 250.103 25.04L248.323 24.18C248.763 23.38 249.363 22.7333 250.123 22.24C250.883 21.7333 251.823 21.48 252.943 21.48C253.956 21.48 254.856 21.7133 255.643 22.18C256.429 22.6467 257.043 23.2867 257.483 24.1C257.936 24.9133 258.163 25.84 258.163 26.88ZM253.063 30.48C253.716 30.48 254.309 30.2733 254.843 29.86C255.376 29.4467 255.743 28.8467 255.943 28.06H250.263C250.289 28.4067 250.403 28.7667 250.603 29.14C250.803 29.5133 251.103 29.8333 251.503 30.1C251.916 30.3533 252.436 30.48 253.063 30.48ZM269.475 32.32C268.475 32.32 267.581 32.0867 266.795 31.62C266.008 31.1533 265.388 30.5133 264.935 29.7C264.495 28.8867 264.275 27.96 264.275 26.92C264.275 25.9467 264.488 25.0467 264.915 24.22C265.341 23.3933 265.935 22.7333 266.695 22.24C267.468 21.7333 268.355 21.48 269.355 21.48C270.408 21.48 271.301 21.7067 272.035 22.16C272.781 22.6133 273.348 23.2333 273.735 24.02C274.121 24.8067 274.315 25.6933 274.315 26.68C274.315 26.8267 274.308 26.96 274.295 27.08C274.295 27.2 274.288 27.2933 274.275 27.36H266.395C266.501 28.3733 266.855 29.1333 267.455 29.64C268.068 30.1467 268.761 30.4 269.535 30.4C270.228 30.4 270.801 30.2467 271.255 29.94C271.708 29.62 272.068 29.2267 272.335 28.76L274.115 29.62C273.675 30.42 273.075 31.0733 272.315 31.58C271.555 32.0733 270.608 32.32 269.475 32.32ZM269.375 23.32C268.655 23.32 268.041 23.54 267.535 23.98C267.028 24.42 266.688 25.0067 266.515 25.74H272.175C272.148 25.3933 272.035 25.0333 271.835 24.66C271.635 24.2867 271.328 23.9733 270.915 23.72C270.515 23.4533 270.001 23.32 269.375 23.32ZM280.776 32.32C279.856 32.32 279.023 32.0933 278.276 31.64C277.543 31.1733 276.956 30.5333 276.516 29.72C276.09 28.8933 275.876 27.9533 275.876 26.9C275.876 25.8467 276.09 24.9133 276.516 24.1C276.956 23.2867 277.543 22.6467 278.276 22.18C279.023 21.7133 279.856 21.48 280.776 21.48C281.563 21.48 282.236 21.6533 282.796 22C283.37 22.3467 283.79 22.74 284.056 23.18H284.176L284.056 21.76V17.68H286.196V32H284.176V30.64H284.056C283.79 31.08 283.37 31.4733 282.796 31.82C282.236 32.1533 281.563 32.32 280.776 32.32ZM281.096 30.34C281.63 30.34 282.13 30.2 282.596 29.92C283.076 29.64 283.456 29.2467 283.736 28.74C284.03 28.22 284.176 27.6067 284.176 26.9C284.176 26.1933 284.03 25.5867 283.736 25.08C283.456 24.56 283.076 24.16 282.596 23.88C282.13 23.6 281.63 23.46 281.096 23.46C280.563 23.46 280.063 23.6 279.596 23.88C279.13 24.16 278.75 24.56 278.456 25.08C278.163 25.5867 278.016 26.1933 278.016 26.9C278.016 27.6067 278.163 28.22 278.456 28.74C278.75 29.2467 279.13 29.64 279.596 29.92C280.063 30.2 280.563 30.34 281.096 30.34ZM289.98 20.3C289.58 20.3 289.234 20.16 288.94 19.88C288.66 19.5867 288.52 19.24 288.52 18.84C288.52 18.44 288.66 18.1 288.94 17.82C289.234 17.54 289.58 17.4 289.98 17.4C290.38 17.4 290.72 17.54 291 17.82C291.294 18.1 291.44 18.44 291.44 18.84C291.44 19.24 291.294 19.5867 291 19.88C290.72 20.16 290.38 20.3 289.98 20.3ZM288.9 32V21.8H291.06V32H288.9ZM293.74 32V21.8H295.78V23.2H295.9C296.194 22.7067 296.627 22.3 297.2 21.98C297.787 21.6467 298.427 21.48 299.12 21.48C300.374 21.48 301.314 21.8533 301.94 22.6C302.567 23.3467 302.88 24.3333 302.88 25.56V32H300.74V25.84C300.74 25.0133 300.534 24.4133 300.12 24.04C299.707 23.6533 299.167 23.46 298.5 23.46C297.98 23.46 297.527 23.6067 297.14 23.9C296.754 24.18 296.447 24.5533 296.22 25.02C296.007 25.4867 295.9 25.9867 295.9 26.52V32H293.74Z" fill="white"/>
<rect x="0.5" y="0.5" width="325" height="49" rx="24.5" stroke="#747775"/>
<defs>
<linearGradient id="paint0_linear_1819_24804" x1="34.5703" y1="30.7864" x2="18.7309" y2="48.9133" gradientUnits="userSpaceOnUse">
<stop stop-color="#4285F4"/>
<stop offset="1" stop-color="#1B74E8"/>
</linearGradient>
</defs>
</svg>
