<svg width="362" height="50" viewBox="0 0 362 50" fill="none" xmlns="http://www.w3.org/2000/svg">
<rect x="0.5" y="0.5" width="361" height="49" rx="24.5" fill="#1F1F1F"/>
<path d="M51 22H21V17C21 14.2857 23.2018 12 25.8165 12H46.1835C48.7982 12 51 14.2857 51 17V22Z" fill="#34A853"/>
<path d="M51 26.0537H21V21.0537C21 18.3394 23.2018 16.0537 25.8165 16.0537H46.1835C48.7982 16.0537 51 18.3394 51 21.0537V26.0537Z" fill="#FBBC04"/>
<path d="M51 30.2468H21V25.2468C21 22.5325 23.2018 20.2468 25.8165 20.2468H46.1835C48.7982 20.2468 51 22.5325 51 25.2468V30.2468Z" fill="#EA4335"/>
<path d="M21 23.2752L40.0411 27.6789C42.2329 28.2294 44.6986 27.6789 46.4795 26.3028L51 23V33.3211C51 35.9358 48.8082 38 46.2055 38H25.7945C23.1918 38 21 35.9358 21 33.3211V23.2752Z" fill="url(#paint0_linear_1819_24272)"/>
<path d="M64.62 32V17.68H66.82V29.92H72.98V32H64.62ZM76.1055 20.3C75.7055 20.3 75.3588 20.16 75.0655 19.88C74.7855 19.5867 74.6455 19.24 74.6455 18.84C74.6455 18.44 74.7855 18.1 75.0655 17.82C75.3588 17.54 75.7055 17.4 76.1055 17.4C76.5055 17.4 76.8455 17.54 77.1255 17.82C77.4188 18.1 77.5655 18.44 77.5655 18.84C77.5655 19.24 77.4188 19.5867 77.1255 19.88C76.8455 20.16 76.5055 20.3 76.1055 20.3ZM75.0255 32V21.8H77.1855V32H75.0255ZM83.5855 32.32C82.3588 32.32 81.3788 32.0533 80.6455 31.52C79.9121 30.9733 79.4055 30.3267 79.1255 29.58L81.0655 28.74C81.3055 29.2867 81.6521 29.7067 82.1055 30C82.5588 30.28 83.0721 30.42 83.6455 30.42C84.1788 30.42 84.6388 30.3267 85.0255 30.14C85.4121 29.94 85.6055 29.62 85.6055 29.18C85.6055 28.7533 85.4121 28.44 85.0255 28.24C84.6388 28.04 84.1588 27.8667 83.5855 27.72L82.3655 27.44C81.8721 27.32 81.4121 27.1333 80.9855 26.88C80.5588 26.6267 80.2121 26.3 79.9455 25.9C79.6788 25.4867 79.5455 25.0067 79.5455 24.46C79.5455 23.86 79.7255 23.34 80.0855 22.9C80.4455 22.4467 80.9188 22.1 81.5055 21.86C82.1055 21.6067 82.7521 21.48 83.4455 21.48C84.3921 21.48 85.2188 21.6667 85.9255 22.04C86.6455 22.4 87.1721 22.9467 87.5055 23.68L85.6455 24.52C85.4055 24.0667 85.0921 23.7533 84.7055 23.58C84.3321 23.3933 83.9188 23.3 83.4655 23.3C82.9588 23.3 82.5321 23.4067 82.1855 23.62C81.8521 23.8333 81.6855 24.1 81.6855 24.42C81.6855 24.7667 81.8321 25.04 82.1255 25.24C82.4321 25.44 82.8055 25.6 83.2455 25.72L84.7255 26.08C85.7388 26.3333 86.4988 26.72 87.0055 27.24C87.5121 27.7467 87.7655 28.3667 87.7655 29.1C87.7655 29.7533 87.5788 30.3267 87.2055 30.82C86.8321 31.3 86.3255 31.6733 85.6855 31.94C85.0588 32.1933 84.3588 32.32 83.5855 32.32ZM92.9483 32.32C92.2149 32.32 91.5616 32.18 90.9883 31.9C90.4149 31.6067 89.9683 31.2 89.6483 30.68C89.3283 30.16 89.1683 29.5667 89.1683 28.9C89.1683 28.18 89.3549 27.5667 89.7283 27.06C90.1149 26.54 90.6283 26.1467 91.2683 25.88C91.9083 25.6133 92.6149 25.48 93.3883 25.48C94.0283 25.48 94.5883 25.54 95.0683 25.66C95.5616 25.78 95.9349 25.9067 96.1883 26.04V25.5C96.1883 24.8333 95.9483 24.3 95.4683 23.9C94.9883 23.5 94.3683 23.3 93.6083 23.3C93.0883 23.3 92.5949 23.42 92.1283 23.66C91.6616 23.8867 91.2883 24.2 91.0083 24.6L89.5283 23.46C89.9683 22.8467 90.5483 22.3667 91.2683 22.02C92.0016 21.66 92.8016 21.48 93.6683 21.48C95.1483 21.48 96.2883 21.8467 97.0883 22.58C97.8883 23.3 98.2883 24.3133 98.2883 25.62V32H96.1883V30.74H96.0683C95.8016 31.1533 95.4016 31.52 94.8683 31.84C94.3349 32.16 93.6949 32.32 92.9483 32.32ZM93.3283 30.56C93.8883 30.56 94.3816 30.4267 94.8083 30.16C95.2349 29.8933 95.5683 29.5467 95.8083 29.12C96.0616 28.68 96.1883 28.2067 96.1883 27.7C95.8816 27.5267 95.5216 27.3867 95.1083 27.28C94.6949 27.16 94.2549 27.1 93.7883 27.1C92.9083 27.1 92.2816 27.28 91.9083 27.64C91.5349 27.9867 91.3483 28.4133 91.3483 28.92C91.3483 29.4 91.5283 29.7933 91.8883 30.1C92.2483 30.4067 92.7283 30.56 93.3283 30.56ZM95.5283 19.72C95.1949 19.72 94.9016 19.6 94.6483 19.36C94.4083 19.1067 94.2883 18.8067 94.2883 18.46C94.2883 18.1133 94.4083 17.8267 94.6483 17.6C94.9016 17.36 95.1949 17.24 95.5283 17.24C95.8883 17.24 96.1883 17.36 96.4283 17.6C96.6683 17.8267 96.7883 18.1133 96.7883 18.46C96.7883 18.8067 96.6683 19.1067 96.4283 19.36C96.1883 19.6 95.8883 19.72 95.5283 19.72ZM91.9883 19.72C91.6549 19.72 91.3616 19.6 91.1083 19.36C90.8683 19.1067 90.7483 18.8067 90.7483 18.46C90.7483 18.1133 90.8683 17.8267 91.1083 17.6C91.3616 17.36 91.6549 17.24 91.9883 17.24C92.3483 17.24 92.6416 17.36 92.8683 17.6C93.1083 17.8267 93.2283 18.1133 93.2283 18.46C93.2283 18.8067 93.1083 19.1067 92.8683 19.36C92.6416 19.6 92.3483 19.72 91.9883 19.72ZM103.769 32.32C103.035 32.32 102.382 32.18 101.809 31.9C101.235 31.6067 100.789 31.2 100.469 30.68C100.149 30.16 99.9886 29.5667 99.9886 28.9C99.9886 28.18 100.175 27.5667 100.549 27.06C100.935 26.54 101.449 26.1467 102.089 25.88C102.729 25.6133 103.435 25.48 104.209 25.48C104.849 25.48 105.409 25.54 105.889 25.66C106.382 25.78 106.755 25.9067 107.009 26.04V25.5C107.009 24.8333 106.769 24.3 106.289 23.9C105.809 23.5 105.189 23.3 104.429 23.3C103.909 23.3 103.415 23.42 102.949 23.66C102.482 23.8867 102.109 24.2 101.829 24.6L100.349 23.46C100.789 22.8467 101.369 22.3667 102.089 22.02C102.822 21.66 103.622 21.48 104.489 21.48C105.969 21.48 107.109 21.8467 107.909 22.58C108.709 23.3 109.109 24.3133 109.109 25.62V32H107.009V30.74H106.889C106.622 31.1533 106.222 31.52 105.689 31.84C105.155 32.16 104.515 32.32 103.769 32.32ZM104.149 30.56C104.709 30.56 105.202 30.4267 105.629 30.16C106.055 29.8933 106.389 29.5467 106.629 29.12C106.882 28.68 107.009 28.2067 107.009 27.7C106.702 27.5267 106.342 27.3867 105.929 27.28C105.515 27.16 105.075 27.1 104.609 27.1C103.729 27.1 103.102 27.28 102.729 27.64C102.355 27.9867 102.169 28.4133 102.169 28.92C102.169 29.4 102.349 29.7933 102.709 30.1C103.069 30.4067 103.549 30.56 104.149 30.56ZM106.349 19.72C106.015 19.72 105.722 19.6 105.469 19.36C105.229 19.1067 105.109 18.8067 105.109 18.46C105.109 18.1133 105.229 17.8267 105.469 17.6C105.722 17.36 106.015 17.24 106.349 17.24C106.709 17.24 107.009 17.36 107.249 17.6C107.489 17.8267 107.609 18.1133 107.609 18.46C107.609 18.8067 107.489 19.1067 107.249 19.36C107.009 19.6 106.709 19.72 106.349 19.72ZM102.809 19.72C102.475 19.72 102.182 19.6 101.929 19.36C101.689 19.1067 101.569 18.8067 101.569 18.46C101.569 18.1133 101.689 17.8267 101.929 17.6C102.182 17.36 102.475 17.24 102.809 17.24C103.169 17.24 103.462 17.36 103.689 17.6C103.929 17.8267 104.049 18.1133 104.049 18.46C104.049 18.8067 103.929 19.1067 103.689 19.36C103.462 19.6 103.169 19.72 102.809 19.72ZM116.135 36.32V21.8H118.155V23.18H118.275C118.541 22.74 118.955 22.3467 119.515 22C120.088 21.6533 120.768 21.48 121.555 21.48C122.488 21.48 123.321 21.7133 124.055 22.18C124.788 22.6467 125.368 23.2867 125.795 24.1C126.235 24.9133 126.455 25.8467 126.455 26.9C126.455 27.9533 126.235 28.8933 125.795 29.72C125.368 30.5333 124.788 31.1733 124.055 31.64C123.321 32.0933 122.488 32.32 121.555 32.32C120.768 32.32 120.088 32.1533 119.515 31.82C118.955 31.4733 118.541 31.08 118.275 30.64H118.155L118.275 32.06V36.32H116.135ZM121.235 30.34C121.768 30.34 122.268 30.2 122.735 29.92C123.201 29.64 123.581 29.2467 123.875 28.74C124.168 28.22 124.315 27.6067 124.315 26.9C124.315 26.1933 124.168 25.5867 123.875 25.08C123.581 24.56 123.201 24.16 122.735 23.88C122.268 23.6 121.768 23.46 121.235 23.46C120.701 23.46 120.201 23.6 119.735 23.88C119.268 24.16 118.888 24.56 118.595 25.08C118.301 25.5867 118.155 26.1933 118.155 26.9C118.155 27.6067 118.301 28.22 118.595 28.74C118.888 29.2467 119.268 29.64 119.735 29.92C120.201 30.2 120.701 30.34 121.235 30.34ZM131.64 32.32C130.906 32.32 130.253 32.18 129.68 31.9C129.106 31.6067 128.66 31.2 128.34 30.68C128.02 30.16 127.86 29.5667 127.86 28.9C127.86 28.18 128.046 27.5667 128.42 27.06C128.806 26.54 129.32 26.1467 129.96 25.88C130.6 25.6133 131.306 25.48 132.08 25.48C132.72 25.48 133.28 25.54 133.76 25.66C134.253 25.78 134.626 25.9067 134.88 26.04V25.5C134.88 24.8333 134.64 24.3 134.16 23.9C133.68 23.5 133.06 23.3 132.3 23.3C131.78 23.3 131.286 23.42 130.82 23.66C130.353 23.8867 129.98 24.2 129.7 24.6L128.22 23.46C128.66 22.8467 129.24 22.3667 129.96 22.02C130.693 21.66 131.493 21.48 132.36 21.48C133.84 21.48 134.98 21.8467 135.78 22.58C136.58 23.3 136.98 24.3133 136.98 25.62V32H134.88V30.74H134.76C134.493 31.1533 134.093 31.52 133.56 31.84C133.026 32.16 132.386 32.32 131.64 32.32ZM132.02 30.56C132.58 30.56 133.073 30.4267 133.5 30.16C133.926 29.8933 134.26 29.5467 134.5 29.12C134.753 28.68 134.88 28.2067 134.88 27.7C134.573 27.5267 134.213 27.3867 133.8 27.28C133.386 27.16 132.946 27.1 132.48 27.1C131.6 27.1 130.973 27.28 130.6 27.64C130.226 27.9867 130.04 28.4133 130.04 28.92C130.04 29.4 130.22 29.7933 130.58 30.1C130.94 30.4067 131.42 30.56 132.02 30.56ZM139.378 32V17.68H141.538V32H139.378ZM147.184 32L142.964 21.8H145.364L148.224 29.22H148.324L151.244 21.8H153.604L149.344 32H147.184ZM159.369 32.32C158.369 32.32 157.476 32.0867 156.689 31.62C155.903 31.1533 155.283 30.5133 154.829 29.7C154.389 28.8867 154.169 27.96 154.169 26.92C154.169 25.9467 154.383 25.0467 154.809 24.22C155.236 23.3933 155.829 22.7333 156.589 22.24C157.363 21.7333 158.249 21.48 159.249 21.48C160.303 21.48 161.196 21.7067 161.929 22.16C162.676 22.6133 163.243 23.2333 163.629 24.02C164.016 24.8067 164.209 25.6933 164.209 26.68C164.209 26.8267 164.203 26.96 164.189 27.08C164.189 27.2 164.183 27.2933 164.169 27.36H156.289C156.396 28.3733 156.749 29.1333 157.349 29.64C157.963 30.1467 158.656 30.4 159.429 30.4C160.123 30.4 160.696 30.2467 161.149 29.94C161.603 29.62 161.963 29.2267 162.229 28.76L164.009 29.62C163.569 30.42 162.969 31.0733 162.209 31.58C161.449 32.0733 160.503 32.32 159.369 32.32ZM159.269 23.32C158.549 23.32 157.936 23.54 157.429 23.98C156.923 24.42 156.583 25.0067 156.409 25.74H162.069C162.043 25.3933 161.929 25.0333 161.729 24.66C161.529 24.2867 161.223 23.9733 160.809 23.72C160.409 23.4533 159.896 23.32 159.269 23.32ZM166.233 32V17.68H168.393V32H166.233ZM174.64 32.32C173.386 32.32 172.44 31.9467 171.8 31.2C171.173 30.44 170.86 29.4133 170.86 28.12V21.8H173.02V27.82C173.02 28.6867 173.22 29.3267 173.62 29.74C174.033 30.14 174.546 30.34 175.16 30.34C175.706 30.34 176.18 30.2 176.58 29.92C176.993 29.6267 177.306 29.2533 177.52 28.8C177.746 28.3333 177.86 27.8267 177.86 27.28V21.8H180V32H177.98V30.62H177.86C177.566 31.1 177.126 31.5067 176.54 31.84C175.966 32.16 175.333 32.32 174.64 32.32ZM186.241 32.32C184.988 32.32 184.041 31.9467 183.401 31.2C182.775 30.44 182.461 29.4133 182.461 28.12V21.8H184.621V27.82C184.621 28.6867 184.821 29.3267 185.221 29.74C185.635 30.14 186.148 30.34 186.761 30.34C187.308 30.34 187.781 30.2 188.181 29.92C188.595 29.6267 188.908 29.2533 189.121 28.8C189.348 28.3333 189.461 27.8267 189.461 27.28V21.8H191.601V32H189.581V30.62H189.461C189.168 31.1 188.728 31.5067 188.141 31.84C187.568 32.16 186.935 32.32 186.241 32.32ZM194.143 32V21.8H196.183V23.2H196.303C196.596 22.7067 197.029 22.3 197.603 21.98C198.189 21.6467 198.829 21.48 199.523 21.48C200.776 21.48 201.716 21.8533 202.343 22.6C202.969 23.3467 203.283 24.3333 203.283 25.56V32H201.143V25.84C201.143 25.0133 200.936 24.4133 200.523 24.04C200.109 23.6533 199.569 23.46 198.903 23.46C198.383 23.46 197.929 23.6067 197.543 23.9C197.156 24.18 196.849 24.5533 196.623 25.02C196.409 25.4867 196.303 25.9867 196.303 26.52V32H194.143Z" fill="white"/>
<path d="M218.4 32.32C217.373 32.32 216.407 32.1333 215.5 31.76C214.607 31.3867 213.813 30.8667 213.12 30.2C212.427 29.52 211.88 28.7267 211.48 27.82C211.093 26.9 210.9 25.9067 210.9 24.84C210.9 23.7733 211.093 22.7867 211.48 21.88C211.88 20.96 212.42 20.1667 213.1 19.5C213.793 18.82 214.593 18.2933 215.5 17.92C216.407 17.5467 217.373 17.36 218.4 17.36C219.493 17.36 220.5 17.5533 221.42 17.94C222.353 18.3267 223.133 18.8667 223.76 19.56L222.24 21.06C221.773 20.54 221.213 20.14 220.56 19.86C219.92 19.58 219.2 19.44 218.4 19.44C217.453 19.44 216.58 19.6667 215.78 20.12C214.98 20.56 214.333 21.1867 213.84 22C213.36 22.8 213.12 23.7467 213.12 24.84C213.12 25.9333 213.367 26.8867 213.86 27.7C214.353 28.5 215 29.1267 215.8 29.58C216.6 30.02 217.473 30.24 218.42 30.24C219.287 30.24 220.073 30.08 220.78 29.76C221.487 29.4267 222.053 28.96 222.48 28.36C222.92 27.76 223.187 27.04 223.28 26.2H218.38V24.26H225.34C225.42 24.62 225.46 25 225.46 25.4V25.42C225.46 26.8067 225.153 28.02 224.54 29.06C223.94 30.0867 223.107 30.8867 222.04 31.46C220.973 32.0333 219.76 32.32 218.4 32.32ZM231.9 32.32C230.847 32.32 229.92 32.08 229.12 31.6C228.32 31.12 227.693 30.4733 227.24 29.66C226.787 28.8467 226.56 27.9267 226.56 26.9C226.56 25.8867 226.787 24.9733 227.24 24.16C227.693 23.3333 228.32 22.68 229.12 22.2C229.92 21.72 230.847 21.48 231.9 21.48C232.94 21.48 233.86 21.72 234.66 22.2C235.46 22.68 236.087 23.3333 236.54 24.16C236.993 24.9733 237.22 25.8867 237.22 26.9C237.22 27.9267 236.993 28.8467 236.54 29.66C236.087 30.4733 235.46 31.12 234.66 31.6C233.86 32.08 232.94 32.32 231.9 32.32ZM231.9 30.34C232.46 30.34 232.98 30.2067 233.46 29.94C233.94 29.66 234.327 29.2667 234.62 28.76C234.927 28.24 235.08 27.62 235.08 26.9C235.08 26.18 234.927 25.5667 234.62 25.06C234.327 24.54 233.94 24.1467 233.46 23.88C232.98 23.6 232.46 23.46 231.9 23.46C231.34 23.46 230.813 23.6 230.32 23.88C229.84 24.1467 229.447 24.54 229.14 25.06C228.847 25.5667 228.7 26.18 228.7 26.9C228.7 27.62 228.847 28.24 229.14 28.76C229.447 29.2667 229.84 29.66 230.32 29.94C230.813 30.2067 231.34 30.34 231.9 30.34ZM244.009 32.32C242.956 32.32 242.029 32.08 241.229 31.6C240.429 31.12 239.803 30.4733 239.349 29.66C238.896 28.8467 238.669 27.9267 238.669 26.9C238.669 25.8867 238.896 24.9733 239.349 24.16C239.803 23.3333 240.429 22.68 241.229 22.2C242.029 21.72 242.956 21.48 244.009 21.48C245.049 21.48 245.969 21.72 246.769 22.2C247.569 22.68 248.196 23.3333 248.649 24.16C249.103 24.9733 249.329 25.8867 249.329 26.9C249.329 27.9267 249.103 28.8467 248.649 29.66C248.196 30.4733 247.569 31.12 246.769 31.6C245.969 32.08 245.049 32.32 244.009 32.32ZM244.009 30.34C244.569 30.34 245.089 30.2067 245.569 29.94C246.049 29.66 246.436 29.2667 246.729 28.76C247.036 28.24 247.189 27.62 247.189 26.9C247.189 26.18 247.036 25.5667 246.729 25.06C246.436 24.54 246.049 24.1467 245.569 23.88C245.089 23.6 244.569 23.46 244.009 23.46C243.449 23.46 242.923 23.6 242.429 23.88C241.949 24.1467 241.556 24.54 241.249 25.06C240.956 25.5667 240.809 26.18 240.809 26.9C240.809 27.62 240.956 28.24 241.249 28.76C241.556 29.2667 241.949 29.66 242.429 29.94C242.923 30.2067 243.449 30.34 244.009 30.34ZM255.919 36.64C255.025 36.64 254.252 36.4933 253.599 36.2C252.959 35.92 252.439 35.5533 252.039 35.1C251.639 34.66 251.352 34.2067 251.179 33.74L253.179 32.9C253.392 33.4333 253.732 33.8667 254.199 34.2C254.679 34.5467 255.252 34.72 255.919 34.72C256.852 34.72 257.585 34.44 258.119 33.88C258.665 33.32 258.939 32.5267 258.939 31.5V30.52H258.819C258.499 31 258.052 31.3867 257.479 31.68C256.919 31.96 256.279 32.1 255.559 32.1C254.692 32.1 253.899 31.88 253.179 31.44C252.459 31 251.879 30.3867 251.439 29.6C250.999 28.8 250.779 27.8667 250.779 26.8C250.779 25.72 250.999 24.7867 251.439 24C251.879 23.2 252.459 22.58 253.179 22.14C253.899 21.7 254.692 21.48 255.559 21.48C256.279 21.48 256.919 21.6267 257.479 21.92C258.052 22.2133 258.499 22.6 258.819 23.08H258.939V21.8H260.999V31.46C260.999 32.5667 260.779 33.5067 260.339 34.28C259.912 35.0533 259.319 35.64 258.559 36.04C257.799 36.44 256.919 36.64 255.919 36.64ZM255.939 30.14C256.472 30.14 256.965 30.0133 257.419 29.76C257.872 29.4933 258.239 29.1133 258.519 28.62C258.799 28.1133 258.939 27.5067 258.939 26.8C258.939 26.0667 258.799 25.4533 258.519 24.96C258.239 24.4533 257.872 24.0733 257.419 23.82C256.965 23.5667 256.472 23.44 255.939 23.44C255.405 23.44 254.905 23.5733 254.439 23.84C253.985 24.0933 253.619 24.4667 253.339 24.96C253.059 25.4533 252.919 26.0667 252.919 26.8C252.919 27.52 253.059 28.1333 253.339 28.64C253.619 29.1333 253.985 29.5067 254.439 29.76C254.905 30.0133 255.405 30.14 255.939 30.14ZM263.546 32V17.68H265.706V32H263.546ZM272.815 32.32C271.815 32.32 270.921 32.0867 270.135 31.62C269.348 31.1533 268.728 30.5133 268.275 29.7C267.835 28.8867 267.615 27.96 267.615 26.92C267.615 25.9467 267.828 25.0467 268.255 24.22C268.681 23.3933 269.275 22.7333 270.035 22.24C270.808 21.7333 271.695 21.48 272.695 21.48C273.748 21.48 274.641 21.7067 275.375 22.16C276.121 22.6133 276.688 23.2333 277.075 24.02C277.461 24.8067 277.655 25.6933 277.655 26.68C277.655 26.8267 277.648 26.96 277.635 27.08C277.635 27.2 277.628 27.2933 277.615 27.36H269.735C269.841 28.3733 270.195 29.1333 270.795 29.64C271.408 30.1467 272.101 30.4 272.875 30.4C273.568 30.4 274.141 30.2467 274.595 29.94C275.048 29.62 275.408 29.2267 275.675 28.76L277.455 29.62C277.015 30.42 276.415 31.0733 275.655 31.58C274.895 32.0733 273.948 32.32 272.815 32.32ZM272.715 23.32C271.995 23.32 271.381 23.54 270.875 23.98C270.368 24.42 270.028 25.0067 269.855 25.74H275.515C275.488 25.3933 275.375 25.0333 275.175 24.66C274.975 24.2867 274.668 23.9733 274.255 23.72C273.855 23.4533 273.341 23.32 272.715 23.32ZM286.446 32L282.606 17.68H285.046L287.326 26.98L287.566 28.22H287.686L287.986 26.98L290.866 17.68H293.066L295.826 26.98L296.126 28.2H296.246L296.486 26.98L298.766 17.68H301.186L297.406 32H295.086L292.346 22.5L292.026 21.16H291.906L291.566 22.5L288.706 32H286.446ZM305.202 32.32C304.469 32.32 303.816 32.18 303.242 31.9C302.669 31.6067 302.222 31.2 301.902 30.68C301.582 30.16 301.422 29.5667 301.422 28.9C301.422 28.18 301.609 27.5667 301.982 27.06C302.369 26.54 302.882 26.1467 303.522 25.88C304.162 25.6133 304.869 25.48 305.642 25.48C306.282 25.48 306.842 25.54 307.322 25.66C307.816 25.78 308.189 25.9067 308.442 26.04V25.5C308.442 24.8333 308.202 24.3 307.722 23.9C307.242 23.5 306.622 23.3 305.862 23.3C305.342 23.3 304.849 23.42 304.382 23.66C303.916 23.8867 303.542 24.2 303.262 24.6L301.782 23.46C302.222 22.8467 302.802 22.3667 303.522 22.02C304.256 21.66 305.056 21.48 305.922 21.48C307.402 21.48 308.542 21.8467 309.342 22.58C310.142 23.3 310.542 24.3133 310.542 25.62V32H308.442V30.74H308.322C308.056 31.1533 307.656 31.52 307.122 31.84C306.589 32.16 305.949 32.32 305.202 32.32ZM305.582 30.56C306.142 30.56 306.636 30.4267 307.062 30.16C307.489 29.8933 307.822 29.5467 308.062 29.12C308.316 28.68 308.442 28.2067 308.442 27.7C308.136 27.5267 307.776 27.3867 307.362 27.28C306.949 27.16 306.509 27.1 306.042 27.1C305.162 27.1 304.536 27.28 304.162 27.64C303.789 27.9867 303.602 28.4133 303.602 28.92C303.602 29.4 303.782 29.7933 304.142 30.1C304.502 30.4067 304.982 30.56 305.582 30.56ZM312.94 32V17.68H315.1V32H312.94ZM317.667 32V17.68H319.827V32H317.667ZM326.936 32.32C325.936 32.32 325.042 32.0867 324.256 31.62C323.469 31.1533 322.849 30.5133 322.396 29.7C321.956 28.8867 321.736 27.96 321.736 26.92C321.736 25.9467 321.949 25.0467 322.376 24.22C322.802 23.3933 323.396 22.7333 324.156 22.24C324.929 21.7333 325.816 21.48 326.816 21.48C327.869 21.48 328.762 21.7067 329.496 22.16C330.242 22.6133 330.809 23.2333 331.196 24.02C331.582 24.8067 331.776 25.6933 331.776 26.68C331.776 26.8267 331.769 26.96 331.756 27.08C331.756 27.2 331.749 27.2933 331.736 27.36H323.856C323.962 28.3733 324.316 29.1333 324.916 29.64C325.529 30.1467 326.222 30.4 326.996 30.4C327.689 30.4 328.262 30.2467 328.716 29.94C329.169 29.62 329.529 29.2267 329.796 28.76L331.576 29.62C331.136 30.42 330.536 31.0733 329.776 31.58C329.016 32.0733 328.069 32.32 326.936 32.32ZM326.836 23.32C326.116 23.32 325.502 23.54 324.996 23.98C324.489 24.42 324.149 25.0067 323.976 25.74H329.636C329.609 25.3933 329.496 25.0333 329.296 24.66C329.096 24.2867 328.789 23.9733 328.376 23.72C327.976 23.4533 327.462 23.32 326.836 23.32ZM334.567 29.04V23.68H332.787V21.8H334.567V18.92H336.727V21.8H339.227V23.68H336.727V28.58C336.727 29.0867 336.827 29.4733 337.027 29.74C337.24 30.0067 337.593 30.14 338.087 30.14C338.34 30.14 338.553 30.1067 338.727 30.04C338.913 29.9733 339.1 29.88 339.287 29.76V31.86C339.06 31.9533 338.82 32.0267 338.567 32.08C338.313 32.1333 338.013 32.16 337.667 32.16C336.72 32.16 335.967 31.8867 335.407 31.34C334.847 30.78 334.567 30.0133 334.567 29.04Z" fill="white"/>
<rect x="0.5" y="0.5" width="361" height="49" rx="24.5" stroke="#747775"/>
<defs>
<linearGradient id="paint0_linear_1819_24272" x1="34.5703" y1="30.7864" x2="18.7309" y2="48.9133" gradientUnits="userSpaceOnUse">
<stop stop-color="#4285F4"/>
<stop offset="1" stop-color="#1B74E8"/>
</linearGradient>
</defs>
</svg>
