<svg width="293" height="50" viewBox="0 0 293 50" fill="none" xmlns="http://www.w3.org/2000/svg">
<rect x="0.5" y="0.5" width="292" height="49" rx="24.5" fill="#1F1F1F"/>
<rect x="0.5" y="0.5" width="292" height="49" rx="24.5" stroke="#747775"/>
<path d="M51 22H21V17C21 14.2857 23.2018 12 25.8165 12H46.1835C48.7982 12 51 14.2857 51 17V22Z" fill="#34A853"/>
<path d="M51 26.0537H21V21.0537C21 18.3394 23.2018 16.0537 25.8165 16.0537H46.1835C48.7982 16.0537 51 18.3394 51 21.0537V26.0537Z" fill="#FBBC04"/>
<path d="M51 30.2468H21V25.2468C21 22.5325 23.2018 20.2468 25.8165 20.2468H46.1835C48.7982 20.2468 51 22.5325 51 25.2468V30.2468Z" fill="#EA4335"/>
<path d="M21 23.2752L40.0411 27.6789C42.2329 28.2294 44.6986 27.6789 46.4795 26.3028L51 23V33.3211C51 35.9358 48.8082 38 46.2055 38H25.7945C23.1918 38 21 35.9358 21 33.3211V23.2752Z" fill="#4285F4"/>
<path d="M74.02 22.68H73C72.5733 22.68 72.36 22.86 72.36 23.22C72.36 23.3933 72.42 23.54 72.54 23.66C72.6733 23.7667 72.86 23.8867 73.1 24.02L73.72 24.36V27.88C73.72 28.7467 73.5333 29.5067 73.16 30.16C72.8 30.8 72.2867 31.3 71.62 31.66C70.9667 32.02 70.1933 32.2 69.3 32.2C68.42 32.2 67.6467 32.02 66.98 31.66C66.3267 31.3 65.8133 30.8 65.44 30.16C65.08 29.5067 64.9 28.7467 64.9 27.88V24.76C64.54 24.5333 64.2667 24.2667 64.08 23.96C63.8933 23.6533 63.8 23.2867 63.8 22.86C63.8 22.2333 64.0067 21.7333 64.42 21.36C64.8333 20.9867 65.4267 20.8 66.2 20.8H67.3V22.68H66.28C65.8533 22.68 65.64 22.86 65.64 23.22C65.64 23.3933 65.7 23.54 65.82 23.66C65.94 23.7667 66.12 23.8867 66.36 24.02L67 24.36V27.88C67 28.6133 67.2067 29.2067 67.62 29.66C68.0467 30.1 68.6067 30.32 69.3 30.32C70.0067 30.32 70.5667 30.1 70.98 29.66C71.4067 29.2067 71.62 28.6133 71.62 27.88V24.76C71.2733 24.5333 71 24.2667 70.8 23.96C70.6133 23.6533 70.52 23.2867 70.52 22.86C70.52 22.2333 70.7267 21.7333 71.14 21.36C71.5667 20.9867 72.1667 20.8 72.94 20.8H74.02V22.68ZM77.0809 23.32C77.0809 22.4667 77.3009 21.82 77.7409 21.38C78.1943 20.9267 78.8143 20.7 79.6009 20.7H79.8809L81.3009 21.84L82.7209 20.7H83.0009C83.5076 20.7 83.9409 20.8133 84.3009 21.04C84.6743 21.2533 84.9609 21.56 85.1609 21.96H85.2209C85.5676 21.56 85.9743 21.2333 86.4409 20.98C86.9076 20.7267 87.4543 20.6 88.0809 20.6C88.8409 20.6 89.4943 20.7667 90.0409 21.1C90.6009 21.42 91.0276 21.88 91.3209 22.48C91.6276 23.0667 91.7809 23.7533 91.7809 24.54V32H89.6809V24.62C89.6809 23.9667 89.4943 23.4467 89.1209 23.06C88.7476 22.6733 88.2476 22.48 87.6209 22.48C87.2476 22.48 86.9009 22.56 86.5809 22.72C86.2609 22.88 86.0076 23.12 85.8209 23.44C85.6343 23.7467 85.5409 24.1333 85.5409 24.6V32H83.4409V23.46C83.4409 23.18 83.3743 22.9733 83.2409 22.84C83.1076 22.6933 82.9276 22.62 82.7009 22.62L81.5009 23.5H81.1209L79.9209 22.62C79.7076 22.62 79.5276 22.6867 79.3809 22.82C79.2476 22.9533 79.1809 23.1467 79.1809 23.4V28.26C79.2876 28.2333 79.4009 28.22 79.5209 28.22C80.0676 28.22 80.5076 28.4 80.8409 28.76C81.1876 29.1067 81.3609 29.5667 81.3609 30.14V30.2C81.3609 30.7867 81.1609 31.2667 80.7609 31.64C80.3743 32.0133 79.8743 32.2 79.2609 32.2C78.5809 32.2 78.0476 32 77.6609 31.6C77.2743 31.1867 77.0809 30.64 77.0809 29.96V23.32ZM79.3009 31.02C79.5143 31.02 79.6876 30.9467 79.8209 30.8C79.9676 30.64 80.0409 30.4467 80.0409 30.22V30.12C80.0409 29.88 79.9676 29.6867 79.8209 29.54C79.6876 29.38 79.5076 29.3 79.2809 29.3C79.0676 29.3 78.8876 29.38 78.7409 29.54C78.6076 29.6867 78.5409 29.88 78.5409 30.12V30.22C78.5409 30.4467 78.6076 30.64 78.7409 30.8C78.8876 30.9467 79.0743 31.02 79.3009 31.02ZM87.1083 37.78C86.3349 37.78 85.6883 37.64 85.1683 37.36C84.6483 37.0933 84.2549 36.7533 83.9883 36.34C83.7083 35.9267 83.5349 35.5133 83.4683 35.1L85.0283 33H86.9683V33.08L85.4483 35.12C85.5416 35.4133 85.7483 35.6867 86.0683 35.94C86.3749 36.1933 86.7883 36.32 87.3083 36.32C87.7349 36.32 88.1149 36.2467 88.4483 36.1C88.6749 36.0067 88.8616 35.88 89.0083 35.72C88.8483 35.6533 88.7016 35.56 88.5683 35.44C88.2616 35.16 88.1083 34.7933 88.1083 34.34C88.1083 33.9 88.2749 33.5333 88.6083 33.24C88.9283 32.9467 89.3216 32.8 89.7883 32.8C90.2549 32.8 90.6483 32.9467 90.9683 33.24C91.2749 33.5467 91.4283 33.9333 91.4283 34.4C91.4283 34.6533 91.3816 34.9 91.2883 35.14C91.2749 35.18 91.2616 35.2133 91.2483 35.24L92.3083 35.58V36.96H92.2083L90.4883 36.4C90.1816 36.7333 89.8216 37.0133 89.4083 37.24C88.7683 37.6 88.0016 37.78 87.1083 37.78ZM89.7683 34.96C89.9416 34.96 90.0883 34.9 90.2083 34.78C90.3149 34.66 90.3683 34.5133 90.3683 34.34C90.3683 34.18 90.3149 34.04 90.2083 33.92C90.0883 33.8133 89.9483 33.76 89.7883 33.76C89.6149 33.76 89.4683 33.8133 89.3483 33.92C89.2283 34.04 89.1683 34.18 89.1683 34.34C89.1683 34.5133 89.2283 34.66 89.3483 34.78C89.4683 34.9 89.6083 34.96 89.7683 34.96ZM89.1642 41.6C88.4042 41.6 87.8176 41.42 87.4042 41.06C86.9776 40.7 86.7642 40.22 86.7642 39.62V39.36H86.0042V38.28H88.4842V39.64C88.4842 39.8533 88.5509 40.02 88.6842 40.14C88.8042 40.26 88.9642 40.32 89.1642 40.32C89.3642 40.32 89.5309 40.26 89.6642 40.14C89.7842 40.02 89.8442 39.8533 89.8442 39.64V38.28H91.5442V39.62C91.5442 40.22 91.3376 40.7 90.9242 41.06C90.4976 41.42 89.9109 41.6 89.1642 41.6ZM95.0106 24.72C95.0106 23.8933 95.184 23.1733 95.5306 22.56C95.8773 21.9333 96.3706 21.4533 97.0106 21.12C97.6506 20.7733 98.3906 20.6 99.2306 20.6C100.097 20.6 100.844 20.7733 101.471 21.12C102.097 21.4533 102.584 21.9333 102.931 22.56C103.291 23.1733 103.471 23.8933 103.471 24.72V28.06C103.471 28.74 103.657 29.2867 104.031 29.7C104.417 30.1133 104.917 30.32 105.531 30.32C106.157 30.32 106.657 30.1133 107.031 29.7C107.417 29.2867 107.611 28.74 107.611 28.06V24.78C107.237 24.5533 106.931 24.28 106.691 23.96C106.464 23.64 106.351 23.2667 106.351 22.84C106.351 22.2133 106.571 21.72 107.011 21.36C107.451 20.9867 108.071 20.8 108.871 20.8H110.011V22.68H108.991C108.524 22.68 108.291 22.86 108.291 23.22C108.291 23.4067 108.357 23.5533 108.491 23.66C108.637 23.7667 108.831 23.8867 109.071 24.02L109.711 24.34V28.06C109.711 28.8867 109.537 29.6133 109.191 30.24C108.844 30.8533 108.357 31.3333 107.731 31.68C107.104 32.0267 106.371 32.2 105.531 32.2C104.704 32.2 103.977 32.0267 103.351 31.68C102.724 31.3333 102.237 30.8533 101.891 30.24C101.544 29.6133 101.371 28.8867 101.371 28.06V24.74C101.371 24.06 101.177 23.5133 100.791 23.1C100.404 22.6867 99.884 22.48 99.2306 22.48C98.5906 22.48 98.0773 22.6867 97.6906 23.1C97.304 23.5133 97.1106 24.06 97.1106 24.74V28.26C97.2173 28.2333 97.3306 28.22 97.4506 28.22C97.9973 28.22 98.4373 28.4 98.7706 28.76C99.1173 29.1067 99.2906 29.5667 99.2906 30.14V30.2C99.2906 30.7867 99.0906 31.2667 98.6906 31.64C98.304 32.0133 97.804 32.2 97.1906 32.2C96.5106 32.2 95.9773 32 95.5906 31.6C95.204 31.1867 95.0106 30.64 95.0106 29.96V24.72ZM97.2306 31.02C97.444 31.02 97.6173 30.9467 97.7506 30.8C97.8973 30.64 97.9706 30.4467 97.9706 30.22V30.12C97.9706 29.88 97.8973 29.6867 97.7506 29.54C97.6173 29.38 97.4373 29.3 97.2106 29.3C96.9973 29.3 96.8173 29.38 96.6706 29.54C96.5373 29.6867 96.4706 29.88 96.4706 30.12V30.22C96.4706 30.4467 96.5373 30.64 96.6706 30.8C96.8173 30.9467 97.004 31.02 97.2306 31.02ZM113.077 23.22C113.077 22.3533 113.297 21.7133 113.737 21.3C114.177 20.8733 114.784 20.66 115.557 20.66C115.917 20.66 116.23 20.7 116.497 20.78C116.777 20.86 117.01 20.9467 117.197 21.04L116.697 22.74C116.604 22.6733 116.49 22.62 116.357 22.58C116.237 22.54 116.104 22.52 115.957 22.52C115.744 22.52 115.557 22.5867 115.397 22.72C115.25 22.84 115.177 23.04 115.177 23.32V28.24C115.257 28.24 115.337 28.24 115.417 28.24C115.897 28.24 116.29 28.4133 116.597 28.76C116.917 29.1067 117.077 29.5533 117.077 30.1V30.2C117.077 30.8133 116.884 31.3 116.497 31.66C116.124 32.02 115.67 32.2 115.137 32.2C114.55 32.2 114.057 32.02 113.657 31.66C113.27 31.3 113.077 30.7533 113.077 30.02V23.22ZM115.137 31.02C115.337 31.02 115.504 30.9467 115.637 30.8C115.784 30.6533 115.857 30.46 115.857 30.22V30.1C115.857 29.86 115.784 29.6667 115.637 29.52C115.504 29.3733 115.33 29.3 115.117 29.3C114.917 29.3 114.75 29.3733 114.617 29.52C114.484 29.6667 114.417 29.86 114.417 30.1V30.22C114.417 30.46 114.484 30.6533 114.617 30.8C114.75 30.9467 114.924 31.02 115.137 31.02ZM123.407 32.16C122.714 32.16 122.1 32.02 121.567 31.74C121.034 31.46 120.614 31.08 120.307 30.6C120.014 30.1067 119.867 29.5333 119.867 28.88V28.54H121.927V28.84C121.927 29.2933 122.067 29.6667 122.347 29.96C122.627 30.24 122.987 30.38 123.427 30.38C123.867 30.38 124.227 30.24 124.507 29.96C124.787 29.6667 124.927 29.2933 124.927 28.84V27.94L122.767 27.6C122.06 27.48 121.434 27.28 120.887 27C120.34 26.7067 119.907 26.3267 119.587 25.86C119.28 25.38 119.127 24.8133 119.127 24.16C119.127 23.4133 119.307 22.7733 119.667 22.24C120.027 21.7067 120.534 21.2933 121.187 21C121.854 20.7067 122.62 20.56 123.487 20.56C124.54 20.56 125.427 20.7533 126.147 21.14C126.88 21.5133 127.467 21.94 127.907 22.42L126.527 23.8C126.207 23.4533 125.787 23.14 125.267 22.86C124.76 22.5667 124.174 22.42 123.507 22.42C122.827 22.42 122.28 22.5867 121.867 22.92C121.454 23.24 121.247 23.6733 121.247 24.22C121.247 24.78 121.42 25.1933 121.767 25.46C122.114 25.7133 122.534 25.8867 123.027 25.98L124.607 26.24C124.674 25.92 124.827 25.64 125.067 25.4C125.4 25.0667 125.807 24.9 126.287 24.9C126.767 24.9 127.167 25.0667 127.487 25.4C127.807 25.72 127.967 26.1133 127.967 26.58C127.967 27.0333 127.807 27.42 127.487 27.74C127.327 27.9 127.147 28.02 126.947 28.1V28.86C126.947 29.5267 126.794 30.1067 126.487 30.6C126.194 31.08 125.78 31.46 125.247 31.74C124.714 32.02 124.1 32.16 123.407 32.16ZM131.787 32V24.68C131.787 23.9867 131.607 23.48 131.247 23.16C130.9 22.84 130.367 22.68 129.647 22.68H128.747V20.8H129.867C130.374 20.8 130.787 20.86 131.107 20.98C131.427 21.0867 131.7 21.28 131.927 21.56H132.007V18.26C132.007 17.82 131.787 17.6 131.347 17.6H130.807V16H131.607C132.394 16 132.967 16.1733 133.327 16.52C133.7 16.8667 133.887 17.42 133.887 18.18V32H131.787ZM126.267 27.22C126.454 27.22 126.6 27.16 126.707 27.04C126.827 26.9067 126.887 26.7533 126.887 26.58C126.887 26.3933 126.827 26.24 126.707 26.12C126.6 26 126.454 25.94 126.267 25.94C126.094 25.94 125.947 26 125.827 26.12C125.72 26.24 125.667 26.3933 125.667 26.58C125.667 26.7533 125.72 26.9067 125.827 27.04C125.947 27.16 126.094 27.22 126.267 27.22Z" fill="white"/>
<path d="M149.4 32.32C148.373 32.32 147.407 32.1333 146.5 31.76C145.593 31.3867 144.793 30.8667 144.1 30.2C143.42 29.52 142.88 28.7267 142.48 27.82C142.093 26.9 141.9 25.9067 141.9 24.84C141.9 23.7733 142.093 22.7867 142.48 21.88C142.88 20.96 143.42 20.1667 144.1 19.5C144.793 18.82 145.593 18.2933 146.5 17.92C147.407 17.5467 148.373 17.36 149.4 17.36C150.493 17.36 151.5 17.5533 152.42 17.94C153.353 18.3267 154.133 18.8667 154.76 19.56L153.24 21.06C152.933 20.7133 152.58 20.42 152.18 20.18C151.793 19.94 151.367 19.76 150.9 19.64C150.433 19.5067 149.933 19.44 149.4 19.44C148.693 19.44 148.02 19.5667 147.38 19.82C146.74 20.0733 146.173 20.44 145.68 20.92C145.2 21.3867 144.82 21.9533 144.54 22.62C144.26 23.2733 144.12 24.0133 144.12 24.84C144.12 25.6667 144.26 26.4133 144.54 27.08C144.833 27.7333 145.22 28.3 145.7 28.78C146.193 29.2467 146.76 29.6067 147.4 29.86C148.04 30.1133 148.713 30.24 149.42 30.24C150.073 30.24 150.68 30.1467 151.24 29.96C151.813 29.7733 152.313 29.5067 152.74 29.16C153.167 28.8133 153.513 28.3933 153.78 27.9C154.047 27.3933 154.213 26.8267 154.28 26.2H149.38V24.26H156.34C156.367 24.42 156.393 24.6067 156.42 24.82C156.447 25.02 156.46 25.2133 156.46 25.4V25.42C156.46 26.4467 156.28 27.3867 155.92 28.24C155.573 29.0933 155.087 29.8267 154.46 30.44C153.833 31.04 153.087 31.5067 152.22 31.84C151.367 32.16 150.427 32.32 149.4 32.32ZM162.9 32.32C161.847 32.32 160.92 32.08 160.12 31.6C159.32 31.12 158.693 30.4733 158.24 29.66C157.787 28.8333 157.56 27.9133 157.56 26.9C157.56 25.8867 157.787 24.9733 158.24 24.16C158.693 23.3333 159.32 22.68 160.12 22.2C160.92 21.72 161.847 21.48 162.9 21.48C163.94 21.48 164.86 21.7267 165.66 22.22C166.46 22.7 167.087 23.3467 167.54 24.16C167.993 24.9733 168.22 25.8867 168.22 26.9C168.22 27.9133 167.993 28.8333 167.54 29.66C167.087 30.4733 166.46 31.12 165.66 31.6C164.86 32.08 163.94 32.32 162.9 32.32ZM162.9 30.34C163.46 30.34 163.98 30.2067 164.46 29.94C164.94 29.66 165.327 29.2667 165.62 28.76C165.927 28.24 166.08 27.62 166.08 26.9C166.08 26.18 165.927 25.5667 165.62 25.06C165.327 24.54 164.94 24.1467 164.46 23.88C163.98 23.6 163.46 23.46 162.9 23.46C162.34 23.46 161.813 23.6 161.32 23.88C160.84 24.1467 160.447 24.54 160.14 25.06C159.847 25.5667 159.7 26.18 159.7 26.9C159.7 27.62 159.847 28.24 160.14 28.76C160.447 29.2667 160.847 29.66 161.34 29.94C161.833 30.2067 162.353 30.34 162.9 30.34ZM175.009 32.32C173.956 32.32 173.029 32.08 172.229 31.6C171.429 31.12 170.803 30.4733 170.349 29.66C169.896 28.8333 169.669 27.9133 169.669 26.9C169.669 25.8867 169.896 24.9733 170.349 24.16C170.803 23.3333 171.429 22.68 172.229 22.2C173.029 21.72 173.956 21.48 175.009 21.48C176.049 21.48 176.969 21.7267 177.769 22.22C178.569 22.7 179.196 23.3467 179.649 24.16C180.103 24.9733 180.329 25.8867 180.329 26.9C180.329 27.9133 180.103 28.8333 179.649 29.66C179.196 30.4733 178.569 31.12 177.769 31.6C176.969 32.08 176.049 32.32 175.009 32.32ZM175.009 30.34C175.569 30.34 176.089 30.2067 176.569 29.94C177.049 29.66 177.436 29.2667 177.729 28.76C178.036 28.24 178.189 27.62 178.189 26.9C178.189 26.18 178.036 25.5667 177.729 25.06C177.436 24.54 177.049 24.1467 176.569 23.88C176.089 23.6 175.569 23.46 175.009 23.46C174.449 23.46 173.923 23.6 173.429 23.88C172.949 24.1467 172.556 24.54 172.249 25.06C171.956 25.5667 171.809 26.18 171.809 26.9C171.809 27.62 171.956 28.24 172.249 28.76C172.556 29.2667 172.956 29.66 173.449 29.94C173.943 30.2067 174.463 30.34 175.009 30.34ZM186.919 36.64C186.025 36.64 185.252 36.4933 184.599 36.2C183.959 35.92 183.439 35.5533 183.039 35.1C182.639 34.66 182.352 34.2067 182.179 33.74L184.179 32.9C184.392 33.4333 184.732 33.8667 185.199 34.2C185.679 34.5467 186.252 34.72 186.919 34.72C187.865 34.72 188.605 34.44 189.139 33.88C189.672 33.32 189.939 32.5267 189.939 31.5V30.52H189.819C189.499 30.9867 189.059 31.3667 188.499 31.66C187.939 31.9533 187.292 32.1 186.559 32.1C185.692 32.1 184.892 31.88 184.159 31.44C183.439 31 182.859 30.3867 182.419 29.6C181.992 28.8 181.779 27.8667 181.779 26.8C181.779 25.72 181.992 24.7867 182.419 24C182.859 23.2 183.439 22.58 184.159 22.14C184.892 21.7 185.692 21.48 186.559 21.48C187.292 21.48 187.939 21.6267 188.499 21.92C189.059 22.2 189.499 22.5867 189.819 23.08H189.939V21.8H191.999V31.46C191.999 32.5667 191.779 33.5067 191.339 34.28C190.912 35.0533 190.319 35.64 189.559 36.04C188.799 36.44 187.919 36.64 186.919 36.64ZM186.939 30.14C187.472 30.14 187.965 30.0133 188.419 29.76C188.885 29.4933 189.252 29.1133 189.519 28.62C189.799 28.1133 189.939 27.5067 189.939 26.8C189.939 26.0533 189.799 25.4333 189.519 24.94C189.252 24.4467 188.885 24.0733 188.419 23.82C187.965 23.5667 187.472 23.44 186.939 23.44C186.405 23.44 185.905 23.5667 185.439 23.82C184.985 24.0733 184.619 24.4533 184.339 24.96C184.059 25.4533 183.919 26.0667 183.919 26.8C183.919 27.52 184.059 28.1333 184.339 28.64C184.619 29.1333 184.985 29.5067 185.439 29.76C185.905 30.0133 186.405 30.14 186.939 30.14ZM194.546 32V17.68H196.706V32H194.546ZM203.815 32.32C202.815 32.32 201.921 32.0867 201.135 31.62C200.348 31.1533 199.728 30.5133 199.275 29.7C198.835 28.8867 198.615 27.96 198.615 26.92C198.615 25.9467 198.828 25.0467 199.255 24.22C199.681 23.3933 200.275 22.7333 201.035 22.24C201.808 21.7333 202.695 21.48 203.695 21.48C204.748 21.48 205.641 21.7067 206.375 22.16C207.121 22.6133 207.688 23.2333 208.075 24.02C208.461 24.8067 208.655 25.6933 208.655 26.68C208.655 26.8267 208.648 26.96 208.635 27.08C208.635 27.2 208.628 27.2933 208.615 27.36H200.735C200.788 27.92 200.928 28.4067 201.155 28.82C201.448 29.34 201.835 29.7333 202.315 30C202.795 30.2667 203.315 30.4 203.875 30.4C204.555 30.4 205.121 30.2467 205.575 29.94C206.041 29.62 206.408 29.2267 206.675 28.76L208.455 29.62C208.015 30.42 207.415 31.0733 206.655 31.58C205.895 32.0733 204.948 32.32 203.815 32.32ZM200.855 25.74H206.515C206.501 25.4867 206.435 25.22 206.315 24.94C206.195 24.6467 206.021 24.38 205.795 24.14C205.568 23.9 205.281 23.7067 204.935 23.56C204.588 23.4 204.181 23.32 203.715 23.32C203.128 23.32 202.608 23.4733 202.155 23.78C201.701 24.0733 201.348 24.4867 201.095 25.02C200.988 25.2467 200.908 25.4867 200.855 25.74ZM217.446 32L213.606 17.68H216.046L218.326 26.98L218.566 28.22H218.686L218.986 26.98L221.866 17.68H224.066L226.826 26.98L227.126 28.2H227.246L227.486 26.98L229.766 17.68H232.186L228.406 32H226.086L223.346 22.5L223.026 21.16H222.906L222.566 22.5L219.706 32H217.446ZM236.202 32.32C235.469 32.32 234.816 32.1733 234.242 31.88C233.682 31.5867 233.236 31.1867 232.902 30.68C232.582 30.16 232.422 29.5667 232.422 28.9C232.422 28.1667 232.609 27.5467 232.982 27.04C233.369 26.5333 233.882 26.1467 234.522 25.88C235.162 25.6133 235.869 25.48 236.642 25.48C237.069 25.48 237.462 25.5133 237.822 25.58C238.196 25.6333 238.516 25.7 238.782 25.78C239.062 25.86 239.282 25.9467 239.442 26.04V25.5C239.442 24.8333 239.202 24.3 238.722 23.9C238.242 23.5 237.622 23.3 236.862 23.3C236.342 23.3 235.849 23.42 235.382 23.66C234.916 23.8867 234.542 24.2 234.262 24.6L232.782 23.46C233.076 23.0467 233.429 22.6933 233.842 22.4C234.269 22.1067 234.742 21.88 235.262 21.72C235.796 21.56 236.349 21.48 236.922 21.48C238.402 21.48 239.542 21.8467 240.342 22.58C241.142 23.3 241.542 24.3133 241.542 25.62V32H239.442V30.74H239.322C239.149 31.0067 238.909 31.26 238.602 31.5C238.309 31.74 237.956 31.9333 237.542 32.08C237.142 32.24 236.696 32.32 236.202 32.32ZM236.582 30.56C237.142 30.56 237.636 30.4267 238.062 30.16C238.502 29.8933 238.842 29.5467 239.082 29.12C239.322 28.68 239.442 28.2067 239.442 27.7C239.149 27.5267 238.789 27.3867 238.362 27.28C237.949 27.16 237.509 27.1 237.042 27.1C236.162 27.1 235.536 27.2733 235.162 27.62C234.789 27.9667 234.602 28.4 234.602 28.92C234.602 29.4 234.782 29.7933 235.142 30.1C235.502 30.4067 235.982 30.56 236.582 30.56ZM243.94 32V17.68H246.1V32H243.94ZM248.667 32V17.68H250.827V32H248.667ZM257.936 32.32C256.936 32.32 256.042 32.0867 255.256 31.62C254.469 31.1533 253.849 30.5133 253.396 29.7C252.956 28.8867 252.736 27.96 252.736 26.92C252.736 25.9467 252.949 25.0467 253.376 24.22C253.802 23.3933 254.396 22.7333 255.156 22.24C255.929 21.7333 256.816 21.48 257.816 21.48C258.869 21.48 259.762 21.7067 260.496 22.16C261.242 22.6133 261.809 23.2333 262.196 24.02C262.582 24.8067 262.776 25.6933 262.776 26.68C262.776 26.8267 262.769 26.96 262.756 27.08C262.756 27.2 262.749 27.2933 262.736 27.36H254.856C254.909 27.92 255.049 28.4067 255.276 28.82C255.569 29.34 255.956 29.7333 256.436 30C256.916 30.2667 257.436 30.4 257.996 30.4C258.676 30.4 259.242 30.2467 259.696 29.94C260.162 29.62 260.529 29.2267 260.796 28.76L262.576 29.62C262.136 30.42 261.536 31.0733 260.776 31.58C260.016 32.0733 259.069 32.32 257.936 32.32ZM254.976 25.74H260.636C260.622 25.4867 260.556 25.22 260.436 24.94C260.316 24.6467 260.142 24.38 259.916 24.14C259.689 23.9 259.402 23.7067 259.056 23.56C258.709 23.4 258.302 23.32 257.836 23.32C257.249 23.32 256.729 23.4733 256.276 23.78C255.822 24.0733 255.469 24.4867 255.216 25.02C255.109 25.2467 255.029 25.4867 254.976 25.74ZM263.787 21.8H265.567V18.92H267.727V21.8H270.227V23.68H267.727V28.58C267.727 29.0867 267.827 29.4733 268.027 29.74C268.24 30.0067 268.593 30.14 269.087 30.14C269.327 30.14 269.54 30.1067 269.727 30.04C269.913 29.96 270.1 29.8667 270.287 29.76V31.86C270.06 31.9533 269.82 32.0267 269.567 32.08C269.313 32.1333 269.013 32.16 268.667 32.16C267.72 32.16 266.967 31.8867 266.407 31.34C265.847 30.78 265.567 30.0133 265.567 29.04V23.68H263.787V21.8Z" fill="white"/>
</svg>
