<svg width="355" height="50" viewBox="0 0 355 50" fill="none" xmlns="http://www.w3.org/2000/svg">
<rect x="0.5" y="0.5" width="354" height="49" rx="24.5" fill="#1F1F1F"/>
<path d="M51 22H21V17C21 14.2857 23.2018 12 25.8165 12H46.1835C48.7982 12 51 14.2857 51 17V22Z" fill="#34A853"/>
<path d="M51 26.0537H21V21.0537C21 18.3394 23.2018 16.0537 25.8165 16.0537H46.1835C48.7982 16.0537 51 18.3394 51 21.0537V26.0537Z" fill="#FBBC04"/>
<path d="M51 30.2468H21V25.2468C21 22.5325 23.2018 20.2468 25.8165 20.2468H46.1835C48.7982 20.2468 51 22.5325 51 25.2468V30.2468Z" fill="#EA4335"/>
<path d="M21 23.2752L40.0411 27.6789C42.2329 28.2294 44.6986 27.6789 46.4795 26.3028L51 23V33.3211C51 35.9358 48.8082 38 46.2055 38H25.7945C23.1918 38 21 35.9358 21 33.3211V23.2752Z" fill="url(#paint0_linear_1819_23968)"/>
<path d="M63.74 35.04V29.92H65C65.3067 29.4133 65.5533 28.76 65.74 27.96C65.94 27.1467 66.08 26.2533 66.16 25.28C66.2533 24.3067 66.3 23.3267 66.3 22.34V17.68H75.48V29.92H77.16V35.04H75.02V32H65.88V35.04H63.74ZM67.4 29.92H73.28V19.76H68.44V22.66C68.44 24.1133 68.3467 25.4533 68.16 26.68C67.9867 27.9067 67.7333 28.9467 67.4 29.8V29.92ZM83.7475 32.32C82.6942 32.32 81.7675 32.08 80.9675 31.6C80.1675 31.12 79.5408 30.4733 79.0875 29.66C78.6342 28.8467 78.4075 27.9267 78.4075 26.9C78.4075 25.8867 78.6342 24.9733 79.0875 24.16C79.5408 23.3333 80.1675 22.68 80.9675 22.2C81.7675 21.72 82.6942 21.48 83.7475 21.48C84.7875 21.48 85.7075 21.72 86.5075 22.2C87.3075 22.68 87.9342 23.3333 88.3875 24.16C88.8408 24.9733 89.0675 25.8867 89.0675 26.9C89.0675 27.9267 88.8408 28.8467 88.3875 29.66C87.9342 30.4733 87.3075 31.12 86.5075 31.6C85.7075 32.08 84.7875 32.32 83.7475 32.32ZM83.7475 30.34C84.3075 30.34 84.8275 30.2067 85.3075 29.94C85.7875 29.66 86.1742 29.2667 86.4675 28.76C86.7742 28.24 86.9275 27.62 86.9275 26.9C86.9275 26.18 86.7742 25.5667 86.4675 25.06C86.1742 24.54 85.7875 24.1467 85.3075 23.88C84.8275 23.6 84.3075 23.46 83.7475 23.46C83.1875 23.46 82.6608 23.6 82.1675 23.88C81.6875 24.1467 81.2942 24.54 80.9875 25.06C80.6942 25.5667 80.5475 26.18 80.5475 26.9C80.5475 27.62 80.6942 28.24 80.9875 28.76C81.2942 29.2667 81.6875 29.66 82.1675 29.94C82.6608 30.2067 83.1875 30.34 83.7475 30.34ZM95.8969 32.32C94.8969 32.32 94.0102 32.0933 93.2369 31.64C92.4769 31.1733 91.8769 30.4733 91.4369 29.54C90.9969 28.5933 90.7769 27.4067 90.7769 25.98C90.7769 24.5267 90.9235 23.3267 91.2169 22.38C91.5102 21.42 91.9969 20.6467 92.6769 20.06C93.1035 19.7 93.6302 19.4 94.2569 19.16C94.8969 18.92 95.6902 18.7267 96.6369 18.58C97.1302 18.5 97.4902 18.42 97.7169 18.34C97.9435 18.26 98.0835 18.1667 98.1369 18.06C98.2035 17.9533 98.2369 17.8267 98.2369 17.68H100.197C100.197 18.28 100.104 18.76 99.9169 19.12C99.7435 19.4667 99.4235 19.7333 98.9569 19.92C98.5035 20.1067 97.8569 20.26 97.0169 20.38C96.1369 20.5133 95.4635 20.6733 94.9969 20.86C94.5435 21.0467 94.1702 21.26 93.8769 21.5C93.2235 22.0333 92.8235 22.7933 92.6769 23.78H92.7969C93.1035 23.3133 93.5569 22.9267 94.1569 22.62C94.7702 22.3 95.4769 22.14 96.2769 22.14C97.2235 22.14 98.0569 22.36 98.7769 22.8C99.4969 23.2267 100.057 23.8133 100.457 24.56C100.87 25.3067 101.077 26.1533 101.077 27.1C101.077 28.0867 100.857 28.98 100.417 29.78C99.9902 30.5667 99.3835 31.1867 98.5969 31.64C97.8235 32.0933 96.9235 32.32 95.8969 32.32ZM95.9169 30.38C96.7702 30.38 97.4835 30.0867 98.0569 29.5C98.6302 28.9133 98.9169 28.1 98.9169 27.06C98.9169 26.1133 98.6302 25.3733 98.0569 24.84C97.4835 24.3067 96.7702 24.04 95.9169 24.04C95.0902 24.04 94.3835 24.3067 93.7969 24.84C93.2235 25.3733 92.9369 26.1133 92.9369 27.06C92.9369 28.1 93.2169 28.9133 93.7769 29.5C94.3502 30.0867 95.0635 30.38 95.9169 30.38ZM106.249 32.32C105.516 32.32 104.862 32.18 104.289 31.9C103.716 31.6067 103.269 31.2 102.949 30.68C102.629 30.16 102.469 29.5667 102.469 28.9C102.469 28.18 102.656 27.5667 103.029 27.06C103.416 26.54 103.929 26.1467 104.569 25.88C105.209 25.6133 105.916 25.48 106.689 25.48C107.329 25.48 107.889 25.54 108.369 25.66C108.862 25.78 109.236 25.9067 109.489 26.04V25.5C109.489 24.8333 109.249 24.3 108.769 23.9C108.289 23.5 107.669 23.3 106.909 23.3C106.389 23.3 105.896 23.42 105.429 23.66C104.962 23.8867 104.589 24.2 104.309 24.6L102.829 23.46C103.269 22.8467 103.849 22.3667 104.569 22.02C105.302 21.66 106.102 21.48 106.969 21.48C108.449 21.48 109.589 21.8467 110.389 22.58C111.189 23.3 111.589 24.3133 111.589 25.62V32H109.489V30.74H109.369C109.102 31.1533 108.702 31.52 108.169 31.84C107.636 32.16 106.996 32.32 106.249 32.32ZM106.629 30.56C107.189 30.56 107.682 30.4267 108.109 30.16C108.536 29.8933 108.869 29.5467 109.109 29.12C109.362 28.68 109.489 28.2067 109.489 27.7C109.182 27.5267 108.822 27.3867 108.409 27.28C107.996 27.16 107.556 27.1 107.089 27.1C106.209 27.1 105.582 27.28 105.209 27.64C104.836 27.9867 104.649 28.4133 104.649 28.92C104.649 29.4 104.829 29.7933 105.189 30.1C105.549 30.4067 106.029 30.56 106.629 30.56ZM113.967 32V21.8H119.027C119.627 21.8 120.16 21.92 120.627 22.16C121.107 22.3867 121.48 22.7 121.747 23.1C122.027 23.5 122.167 23.9467 122.167 24.44C122.167 24.9733 122.047 25.4333 121.807 25.82C121.58 26.2067 121.28 26.4933 120.907 26.68V26.8C121.414 27 121.814 27.3 122.107 27.7C122.414 28.1 122.567 28.56 122.567 29.08C122.567 29.68 122.407 30.2 122.087 30.64C121.78 31.08 121.38 31.42 120.887 31.66C120.394 31.8867 119.867 32 119.307 32H113.967ZM116.127 23.56V25.96H118.767C119.127 25.96 119.427 25.8467 119.667 25.62C119.907 25.3933 120.027 25.1067 120.027 24.76C120.027 24.4 119.907 24.1133 119.667 23.9C119.427 23.6733 119.127 23.56 118.767 23.56H116.127ZM116.127 30.2H119.087C119.474 30.2 119.794 30.08 120.047 29.84C120.314 29.5867 120.447 29.2667 120.447 28.88C120.447 28.5067 120.314 28.1933 120.047 27.94C119.794 27.6867 119.474 27.56 119.087 27.56H116.127V30.2ZM123.854 32V31.88L126.574 28.34L126.534 28.22C125.894 27.9667 125.374 27.5733 124.974 27.04C124.574 26.5067 124.374 25.8933 124.374 25.2C124.374 24.5467 124.534 23.9667 124.854 23.46C125.174 22.9533 125.607 22.5533 126.154 22.26C126.714 21.9533 127.341 21.8 128.034 21.8H132.414V32H130.254V28.54H128.834L126.274 32H123.854ZM128.194 26.82H130.254V23.6H128.194C127.727 23.6 127.327 23.7533 126.994 24.06C126.674 24.3667 126.514 24.7467 126.514 25.2C126.514 25.6667 126.674 26.0533 126.994 26.36C127.327 26.6667 127.727 26.82 128.194 26.82ZM134.944 32V21.8H137.104V25.9H141.944V21.8H144.104V32H141.944V27.78H137.104V32H134.944ZM151.186 32.32C150.186 32.32 149.292 32.0867 148.506 31.62C147.719 31.1533 147.099 30.5133 146.646 29.7C146.206 28.8867 145.986 27.96 145.986 26.92C145.986 25.9467 146.199 25.0467 146.626 24.22C147.052 23.3933 147.646 22.7333 148.406 22.24C149.179 21.7333 150.066 21.48 151.066 21.48C152.119 21.48 153.012 21.7067 153.746 22.16C154.492 22.6133 155.059 23.2333 155.446 24.02C155.832 24.8067 156.026 25.6933 156.026 26.68C156.026 26.8267 156.019 26.96 156.006 27.08C156.006 27.2 155.999 27.2933 155.986 27.36H148.106C148.212 28.3733 148.566 29.1333 149.166 29.64C149.779 30.1467 150.472 30.4 151.246 30.4C151.939 30.4 152.512 30.2467 152.966 29.94C153.419 29.62 153.779 29.2267 154.046 28.76L155.826 29.62C155.386 30.42 154.786 31.0733 154.026 31.58C153.266 32.0733 152.319 32.32 151.186 32.32ZM151.086 23.32C150.366 23.32 149.752 23.54 149.246 23.98C148.739 24.42 148.399 25.0067 148.226 25.74H153.886C153.859 25.3933 153.746 25.0333 153.546 24.66C153.346 24.2867 153.039 23.9733 152.626 23.72C152.226 23.4533 151.712 23.32 151.086 23.32ZM162.698 32V21.8H164.858V26.32H164.978L168.978 21.8H171.458V21.92L167.198 26.58L171.618 31.88V32H169.058L164.978 26.98H164.858V32H162.698ZM177.091 21.8V25.2H179.251C179.945 25.2 180.565 25.3467 181.111 25.64C181.658 25.9333 182.091 26.34 182.411 26.86C182.731 27.3667 182.891 27.9467 182.891 28.6C182.891 29.2533 182.731 29.8333 182.411 30.34C182.091 30.8467 181.658 31.2533 181.111 31.56C180.565 31.8533 179.945 32 179.251 32H174.951V23.68H172.191V21.8H177.091ZM177.091 30.2H179.071C179.551 30.2 179.951 30.0467 180.271 29.74C180.591 29.4333 180.751 29.0533 180.751 28.6C180.751 28.1467 180.591 27.7667 180.271 27.46C179.951 27.14 179.551 26.98 179.071 26.98H177.091V30.2ZM184.69 32V21.8H187.25L190.39 28.04H190.49L193.65 21.8H196.15V32H194.09V27.04L194.19 25.08H194.07L191.13 30.7H189.71L186.77 25.08H186.65L186.75 27.04V32H184.69Z" fill="white"/>
<path d="M211.4 32.32C210.373 32.32 209.407 32.1333 208.5 31.76C207.607 31.3867 206.813 30.8667 206.12 30.2C205.427 29.52 204.88 28.7267 204.48 27.82C204.093 26.9 203.9 25.9067 203.9 24.84C203.9 23.7733 204.093 22.7867 204.48 21.88C204.88 20.96 205.42 20.1667 206.1 19.5C206.793 18.82 207.593 18.2933 208.5 17.92C209.407 17.5467 210.373 17.36 211.4 17.36C212.493 17.36 213.5 17.5533 214.42 17.94C215.353 18.3267 216.133 18.8667 216.76 19.56L215.24 21.06C214.773 20.54 214.213 20.14 213.56 19.86C212.92 19.58 212.2 19.44 211.4 19.44C210.453 19.44 209.58 19.6667 208.78 20.12C207.98 20.56 207.333 21.1867 206.84 22C206.36 22.8 206.12 23.7467 206.12 24.84C206.12 25.9333 206.367 26.8867 206.86 27.7C207.353 28.5 208 29.1267 208.8 29.58C209.6 30.02 210.473 30.24 211.42 30.24C212.287 30.24 213.073 30.08 213.78 29.76C214.487 29.4267 215.053 28.96 215.48 28.36C215.92 27.76 216.187 27.04 216.28 26.2H211.38V24.26H218.34C218.42 24.62 218.46 25 218.46 25.4V25.42C218.46 26.8067 218.153 28.02 217.54 29.06C216.94 30.0867 216.107 30.8867 215.04 31.46C213.973 32.0333 212.76 32.32 211.4 32.32ZM224.9 32.32C223.847 32.32 222.92 32.08 222.12 31.6C221.32 31.12 220.693 30.4733 220.24 29.66C219.787 28.8467 219.56 27.9267 219.56 26.9C219.56 25.8867 219.787 24.9733 220.24 24.16C220.693 23.3333 221.32 22.68 222.12 22.2C222.92 21.72 223.847 21.48 224.9 21.48C225.94 21.48 226.86 21.72 227.66 22.2C228.46 22.68 229.087 23.3333 229.54 24.16C229.993 24.9733 230.22 25.8867 230.22 26.9C230.22 27.9267 229.993 28.8467 229.54 29.66C229.087 30.4733 228.46 31.12 227.66 31.6C226.86 32.08 225.94 32.32 224.9 32.32ZM224.9 30.34C225.46 30.34 225.98 30.2067 226.46 29.94C226.94 29.66 227.327 29.2667 227.62 28.76C227.927 28.24 228.08 27.62 228.08 26.9C228.08 26.18 227.927 25.5667 227.62 25.06C227.327 24.54 226.94 24.1467 226.46 23.88C225.98 23.6 225.46 23.46 224.9 23.46C224.34 23.46 223.813 23.6 223.32 23.88C222.84 24.1467 222.447 24.54 222.14 25.06C221.847 25.5667 221.7 26.18 221.7 26.9C221.7 27.62 221.847 28.24 222.14 28.76C222.447 29.2667 222.84 29.66 223.32 29.94C223.813 30.2067 224.34 30.34 224.9 30.34ZM237.009 32.32C235.956 32.32 235.029 32.08 234.229 31.6C233.429 31.12 232.803 30.4733 232.349 29.66C231.896 28.8467 231.669 27.9267 231.669 26.9C231.669 25.8867 231.896 24.9733 232.349 24.16C232.803 23.3333 233.429 22.68 234.229 22.2C235.029 21.72 235.956 21.48 237.009 21.48C238.049 21.48 238.969 21.72 239.769 22.2C240.569 22.68 241.196 23.3333 241.649 24.16C242.103 24.9733 242.329 25.8867 242.329 26.9C242.329 27.9267 242.103 28.8467 241.649 29.66C241.196 30.4733 240.569 31.12 239.769 31.6C238.969 32.08 238.049 32.32 237.009 32.32ZM237.009 30.34C237.569 30.34 238.089 30.2067 238.569 29.94C239.049 29.66 239.436 29.2667 239.729 28.76C240.036 28.24 240.189 27.62 240.189 26.9C240.189 26.18 240.036 25.5667 239.729 25.06C239.436 24.54 239.049 24.1467 238.569 23.88C238.089 23.6 237.569 23.46 237.009 23.46C236.449 23.46 235.923 23.6 235.429 23.88C234.949 24.1467 234.556 24.54 234.249 25.06C233.956 25.5667 233.809 26.18 233.809 26.9C233.809 27.62 233.956 28.24 234.249 28.76C234.556 29.2667 234.949 29.66 235.429 29.94C235.923 30.2067 236.449 30.34 237.009 30.34ZM248.919 36.64C248.025 36.64 247.252 36.4933 246.599 36.2C245.959 35.92 245.439 35.5533 245.039 35.1C244.639 34.66 244.352 34.2067 244.179 33.74L246.179 32.9C246.392 33.4333 246.732 33.8667 247.199 34.2C247.679 34.5467 248.252 34.72 248.919 34.72C249.852 34.72 250.585 34.44 251.119 33.88C251.665 33.32 251.939 32.5267 251.939 31.5V30.52H251.819C251.499 31 251.052 31.3867 250.479 31.68C249.919 31.96 249.279 32.1 248.559 32.1C247.692 32.1 246.899 31.88 246.179 31.44C245.459 31 244.879 30.3867 244.439 29.6C243.999 28.8 243.779 27.8667 243.779 26.8C243.779 25.72 243.999 24.7867 244.439 24C244.879 23.2 245.459 22.58 246.179 22.14C246.899 21.7 247.692 21.48 248.559 21.48C249.279 21.48 249.919 21.6267 250.479 21.92C251.052 22.2133 251.499 22.6 251.819 23.08H251.939V21.8H253.999V31.46C253.999 32.5667 253.779 33.5067 253.339 34.28C252.912 35.0533 252.319 35.64 251.559 36.04C250.799 36.44 249.919 36.64 248.919 36.64ZM248.939 30.14C249.472 30.14 249.965 30.0133 250.419 29.76C250.872 29.4933 251.239 29.1133 251.519 28.62C251.799 28.1133 251.939 27.5067 251.939 26.8C251.939 26.0667 251.799 25.4533 251.519 24.96C251.239 24.4533 250.872 24.0733 250.419 23.82C249.965 23.5667 249.472 23.44 248.939 23.44C248.405 23.44 247.905 23.5733 247.439 23.84C246.985 24.0933 246.619 24.4667 246.339 24.96C246.059 25.4533 245.919 26.0667 245.919 26.8C245.919 27.52 246.059 28.1333 246.339 28.64C246.619 29.1333 246.985 29.5067 247.439 29.76C247.905 30.0133 248.405 30.14 248.939 30.14ZM256.546 32V17.68H258.706V32H256.546ZM265.815 32.32C264.815 32.32 263.921 32.0867 263.135 31.62C262.348 31.1533 261.728 30.5133 261.275 29.7C260.835 28.8867 260.615 27.96 260.615 26.92C260.615 25.9467 260.828 25.0467 261.255 24.22C261.681 23.3933 262.275 22.7333 263.035 22.24C263.808 21.7333 264.695 21.48 265.695 21.48C266.748 21.48 267.641 21.7067 268.375 22.16C269.121 22.6133 269.688 23.2333 270.075 24.02C270.461 24.8067 270.655 25.6933 270.655 26.68C270.655 26.8267 270.648 26.96 270.635 27.08C270.635 27.2 270.628 27.2933 270.615 27.36H262.735C262.841 28.3733 263.195 29.1333 263.795 29.64C264.408 30.1467 265.101 30.4 265.875 30.4C266.568 30.4 267.141 30.2467 267.595 29.94C268.048 29.62 268.408 29.2267 268.675 28.76L270.455 29.62C270.015 30.42 269.415 31.0733 268.655 31.58C267.895 32.0733 266.948 32.32 265.815 32.32ZM265.715 23.32C264.995 23.32 264.381 23.54 263.875 23.98C263.368 24.42 263.028 25.0067 262.855 25.74H268.515C268.488 25.3933 268.375 25.0333 268.175 24.66C267.975 24.2867 267.668 23.9733 267.255 23.72C266.855 23.4533 266.341 23.32 265.715 23.32ZM279.446 32L275.606 17.68H278.046L280.326 26.98L280.566 28.22H280.686L280.986 26.98L283.866 17.68H286.066L288.826 26.98L289.126 28.2H289.246L289.486 26.98L291.766 17.68H294.186L290.406 32H288.086L285.346 22.5L285.026 21.16H284.906L284.566 22.5L281.706 32H279.446ZM298.202 32.32C297.469 32.32 296.816 32.18 296.242 31.9C295.669 31.6067 295.222 31.2 294.902 30.68C294.582 30.16 294.422 29.5667 294.422 28.9C294.422 28.18 294.609 27.5667 294.982 27.06C295.369 26.54 295.882 26.1467 296.522 25.88C297.162 25.6133 297.869 25.48 298.642 25.48C299.282 25.48 299.842 25.54 300.322 25.66C300.816 25.78 301.189 25.9067 301.442 26.04V25.5C301.442 24.8333 301.202 24.3 300.722 23.9C300.242 23.5 299.622 23.3 298.862 23.3C298.342 23.3 297.849 23.42 297.382 23.66C296.916 23.8867 296.542 24.2 296.262 24.6L294.782 23.46C295.222 22.8467 295.802 22.3667 296.522 22.02C297.256 21.66 298.056 21.48 298.922 21.48C300.402 21.48 301.542 21.8467 302.342 22.58C303.142 23.3 303.542 24.3133 303.542 25.62V32H301.442V30.74H301.322C301.056 31.1533 300.656 31.52 300.122 31.84C299.589 32.16 298.949 32.32 298.202 32.32ZM298.582 30.56C299.142 30.56 299.636 30.4267 300.062 30.16C300.489 29.8933 300.822 29.5467 301.062 29.12C301.316 28.68 301.442 28.2067 301.442 27.7C301.136 27.5267 300.776 27.3867 300.362 27.28C299.949 27.16 299.509 27.1 299.042 27.1C298.162 27.1 297.536 27.28 297.162 27.64C296.789 27.9867 296.602 28.4133 296.602 28.92C296.602 29.4 296.782 29.7933 297.142 30.1C297.502 30.4067 297.982 30.56 298.582 30.56ZM305.94 32V17.68H308.1V32H305.94ZM310.667 32V17.68H312.827V32H310.667ZM319.936 32.32C318.936 32.32 318.042 32.0867 317.256 31.62C316.469 31.1533 315.849 30.5133 315.396 29.7C314.956 28.8867 314.736 27.96 314.736 26.92C314.736 25.9467 314.949 25.0467 315.376 24.22C315.802 23.3933 316.396 22.7333 317.156 22.24C317.929 21.7333 318.816 21.48 319.816 21.48C320.869 21.48 321.762 21.7067 322.496 22.16C323.242 22.6133 323.809 23.2333 324.196 24.02C324.582 24.8067 324.776 25.6933 324.776 26.68C324.776 26.8267 324.769 26.96 324.756 27.08C324.756 27.2 324.749 27.2933 324.736 27.36H316.856C316.962 28.3733 317.316 29.1333 317.916 29.64C318.529 30.1467 319.222 30.4 319.996 30.4C320.689 30.4 321.262 30.2467 321.716 29.94C322.169 29.62 322.529 29.2267 322.796 28.76L324.576 29.62C324.136 30.42 323.536 31.0733 322.776 31.58C322.016 32.0733 321.069 32.32 319.936 32.32ZM319.836 23.32C319.116 23.32 318.502 23.54 317.996 23.98C317.489 24.42 317.149 25.0067 316.976 25.74H322.636C322.609 25.3933 322.496 25.0333 322.296 24.66C322.096 24.2867 321.789 23.9733 321.376 23.72C320.976 23.4533 320.462 23.32 319.836 23.32ZM327.567 29.04V23.68H325.787V21.8H327.567V18.92H329.727V21.8H332.227V23.68H329.727V28.58C329.727 29.0867 329.827 29.4733 330.027 29.74C330.24 30.0067 330.593 30.14 331.087 30.14C331.34 30.14 331.553 30.1067 331.727 30.04C331.913 29.9733 332.1 29.88 332.287 29.76V31.86C332.06 31.9533 331.82 32.0267 331.567 32.08C331.313 32.1333 331.013 32.16 330.667 32.16C329.72 32.16 328.967 31.8867 328.407 31.34C327.847 30.78 327.567 30.0133 327.567 29.04Z" fill="white"/>
<rect x="0.5" y="0.5" width="354" height="49" rx="24.5" stroke="#747775"/>
<defs>
<linearGradient id="paint0_linear_1819_23968" x1="34.5703" y1="30.7864" x2="18.7309" y2="48.9133" gradientUnits="userSpaceOnUse">
<stop stop-color="#4285F4"/>
<stop offset="1" stop-color="#1B74E8"/>
</linearGradient>
</defs>
</svg>
