<svg width="330" height="50" viewBox="0 0 330 50" fill="none" xmlns="http://www.w3.org/2000/svg">
<rect x="0.5" y="0.5" width="329" height="49" rx="24.5" fill="#1F1F1F"/>
<rect x="0.5" y="0.5" width="329" height="49" rx="24.5" stroke="#747775"/>
<path d="M51 22H21V17C21 14.2857 23.2018 12 25.8165 12H46.1835C48.7982 12 51 14.2857 51 17V22Z" fill="#34A853"/>
<path d="M51 26.0547H21V21.0547C21 18.3404 23.2018 16.0547 25.8165 16.0547H46.1835C48.7982 16.0547 51 18.3404 51 21.0547V26.0547Z" fill="#FBBC04"/>
<path d="M51 30.2461H21V25.2461C21 22.5318 23.2018 20.2461 25.8165 20.2461H46.1835C48.7982 20.2461 51 22.5318 51 25.2461V30.2461Z" fill="#EA4335"/>
<path d="M21 23.2752L40.0411 27.6789C42.2329 28.2294 44.6986 27.6789 46.4795 26.3028L51 23V33.3211C51 35.9358 48.8082 38 46.2055 38H25.7945C23.1918 38 21 35.9358 21 33.3211V23.2752Z" fill="#4285F4"/>
<path d="M63.6 32.02C63.6 31.54 63.6667 31.0067 63.8 30.42C63.9333 29.8333 64.1467 29.1867 64.44 28.48L65.88 29.04C65.6667 29.6 65.5067 30.1133 65.4 30.58C65.2933 31.0467 65.24 31.48 65.24 31.88C65.24 32.6267 65.42 33.2267 65.78 33.68C66.1533 34.1333 66.6467 34.4667 67.26 34.68C67.8867 34.8933 68.5733 35 69.32 35C70.5333 35 71.48 34.8333 72.16 34.5C72.8533 34.1667 73.34 33.7267 73.62 33.18C73.9133 32.6467 74.06 32.08 74.06 31.48C74.06 30.6 73.96 29.7933 73.76 29.06C73.5733 28.3133 73.3667 27.5467 73.14 26.76L74.76 26.32C74.9733 27.08 75.12 27.6333 75.2 27.98C75.28 28.3133 75.3533 28.5867 75.42 28.8C75.5667 29.2933 75.76 29.66 76 29.9C76.24 30.1267 76.5133 30.28 76.82 30.36C77.1267 30.4267 77.4533 30.46 77.8 30.46C78.08 30.46 78.28 30.54 78.4 30.7C78.5333 30.8467 78.6 31.0267 78.6 31.24C78.6 31.4533 78.5067 31.6533 78.32 31.84C78.1333 32.0133 77.8933 32.1 77.6 32.1C77.1867 32.1 76.82 32.0467 76.5 31.94C76.1933 31.82 75.9333 31.6733 75.72 31.5C75.6533 32.1533 75.5 32.7867 75.26 33.4C75.02 34.0133 74.6533 34.56 74.16 35.04C73.68 35.5333 73.04 35.92 72.24 36.2C71.44 36.4933 70.4467 36.64 69.26 36.64C68.26 36.64 67.3267 36.4733 66.46 36.14C65.6067 35.8067 64.9133 35.3 64.38 34.62C63.86 33.94 63.6 33.0733 63.6 32.02ZM77.6094 32.1L77.8094 30.46C78.5827 30.46 79.1894 30.4333 79.6294 30.38C80.0827 30.3133 80.4027 30.16 80.5894 29.92C80.776 29.68 80.8694 29.2867 80.8694 28.74C80.8694 28.2467 80.7494 27.6133 80.5094 26.84C80.2827 26.0667 80.0227 25.3 79.7294 24.54L81.3494 23.94C81.5227 24.38 81.6827 24.8733 81.8294 25.42C81.9894 25.9533 82.1227 26.4867 82.2294 27.02C82.336 27.5533 82.3894 28.02 82.3894 28.42C82.3894 29.7667 82.016 30.72 81.2694 31.28C80.5227 31.8267 79.3027 32.1 77.6094 32.1ZM81.3094 35.88C81.0294 35.88 80.7894 35.78 80.5894 35.58C80.4027 35.3933 80.3094 35.1667 80.3094 34.9C80.3094 34.6333 80.4027 34.4 80.5894 34.2C80.7894 34 81.0294 33.9 81.3094 33.9C81.576 33.9 81.8027 34 81.9894 34.2C82.1894 34.4 82.2894 34.6333 82.2894 34.9C82.2894 35.1667 82.1894 35.3933 81.9894 35.58C81.8027 35.78 81.576 35.88 81.3094 35.88ZM78.5694 35.88C78.2894 35.88 78.0494 35.78 77.8494 35.58C77.6627 35.3933 77.5694 35.1667 77.5694 34.9C77.5694 34.6333 77.6627 34.4 77.8494 34.2C78.0494 34 78.2894 33.9 78.5694 33.9C78.836 33.9 79.0627 34 79.2494 34.2C79.4494 34.4 79.5494 34.6333 79.5494 34.9C79.5494 35.1667 79.4494 35.3933 79.2494 35.58C79.0627 35.78 78.836 35.88 78.5694 35.88ZM83.6659 36.64L83.0859 35.12C84.3793 34.6933 85.3859 34.1867 86.1059 33.6C86.8393 33.0133 87.3526 32.4 87.6459 31.76C87.9526 31.1067 88.1059 30.4733 88.1059 29.86C88.1059 29.2067 87.9593 28.5467 87.6659 27.88C87.3859 27.2 87.0726 26.56 86.7259 25.96L88.1859 25.22C88.5593 25.9267 88.8726 26.6067 89.1259 27.26C89.3926 27.9133 89.5993 28.4867 89.7459 28.98C89.9326 29.5533 90.1726 29.9467 90.4659 30.16C90.7726 30.36 91.1859 30.46 91.7059 30.46C91.9859 30.46 92.1859 30.54 92.3059 30.7C92.4393 30.8467 92.5059 31.0267 92.5059 31.24C92.5059 31.4533 92.4126 31.6533 92.2259 31.84C92.0393 32.0133 91.7993 32.1 91.5059 32.1C90.9993 32.1 90.5726 32.02 90.2259 31.86C89.8926 31.7 89.6193 31.4867 89.4059 31.22C89.2726 31.9667 88.9926 32.6467 88.5659 33.26C88.1393 33.8733 87.6393 34.4067 87.0659 34.86C86.4926 35.3267 85.9059 35.7067 85.3059 36C84.7059 36.2933 84.1593 36.5067 83.6659 36.64ZM91.5156 32.1L91.7156 30.46H93.5956C94.369 30.46 94.989 30.42 95.4556 30.34C95.9223 30.2467 96.2623 30.1333 96.4756 30C96.7023 29.8533 96.849 29.7 96.9156 29.54C96.9956 29.3667 97.0356 29.1933 97.0356 29.02C97.0356 28.7133 96.9156 28.3333 96.6756 27.88C96.449 27.4267 95.9756 26.84 95.2556 26.12C94.7623 25.6133 94.269 25.1667 93.7756 24.78C93.2823 24.3933 92.8756 24.0667 92.5556 23.8C92.2356 23.5333 92.0756 23.34 92.0756 23.22C92.0756 22.9133 92.109 22.6267 92.1756 22.36C92.2423 22.0933 92.349 21.8867 92.4956 21.74C93.029 21.1667 93.8623 20.5933 94.9956 20.02C96.1423 19.4467 97.569 18.7267 99.2756 17.86L99.9556 19.34C98.7423 19.9267 97.749 20.4133 96.9756 20.8C96.2156 21.1733 95.5823 21.5067 95.0756 21.8C94.5823 22.08 94.1223 22.3667 93.6956 22.66C95.2556 23.9267 96.449 25.0667 97.2756 26.08C98.1156 27.08 98.5356 28.0933 98.5356 29.12C98.5356 29.4133 98.4823 29.7333 98.3756 30.08C98.269 30.4267 98.0423 30.7533 97.6956 31.06C97.349 31.3667 96.829 31.62 96.1356 31.82C95.4423 32.0067 94.509 32.1 93.3356 32.1H91.5156ZM105.026 32.02C105.026 31.54 105.092 31.0067 105.226 30.42C105.359 29.8333 105.572 29.1867 105.866 28.48L107.306 29.04C107.092 29.6 106.932 30.1133 106.826 30.58C106.719 31.0467 106.666 31.48 106.666 31.88C106.666 32.56 106.846 33.1333 107.206 33.6C107.566 34.0667 108.032 34.4133 108.606 34.64C109.192 34.88 109.819 35 110.486 35C111.779 35 112.792 34.7667 113.526 34.3C114.272 33.8467 114.786 33.24 115.066 32.48C115.359 31.7333 115.492 30.9133 115.466 30.02L115.026 17.72H116.686L117.006 27.86C117.019 28.54 117.126 29.0733 117.326 29.46C117.526 29.8333 117.792 30.0933 118.126 30.24C118.459 30.3867 118.826 30.46 119.226 30.46C119.506 30.46 119.706 30.54 119.826 30.7C119.959 30.8467 120.026 31.0267 120.026 31.24C120.026 31.4533 119.932 31.6533 119.746 31.84C119.559 32.0133 119.319 32.1 119.026 32.1C118.532 32.1 118.126 32.0267 117.806 31.88C117.499 31.72 117.252 31.5267 117.066 31.3C116.972 31.9667 116.786 32.6133 116.506 33.24C116.239 33.88 115.846 34.4533 115.326 34.96C114.806 35.48 114.139 35.8867 113.326 36.18C112.526 36.4867 111.546 36.64 110.386 36.64C109.452 36.64 108.579 36.4533 107.766 36.08C106.952 35.72 106.292 35.1933 105.786 34.5C105.279 33.82 105.026 32.9933 105.026 32.02ZM119.035 32.1L119.235 30.46C119.608 30.46 119.922 30.38 120.175 30.22C120.428 30.06 120.675 29.8 120.915 29.44C121.155 29.0667 121.415 28.56 121.695 27.92C122.082 27.0667 122.462 26.42 122.835 25.98C123.222 25.54 123.602 25.24 123.975 25.08C124.362 24.92 124.742 24.84 125.115 24.84C125.568 24.84 125.988 24.96 126.375 25.2C126.762 25.4267 127.102 25.7333 127.395 26.12C127.688 26.5067 127.915 26.9333 128.075 27.4C128.248 27.8533 128.335 28.3067 128.335 28.76C128.335 29.56 128.195 30.2 127.915 30.68C127.635 31.1467 127.275 31.4867 126.835 31.7C126.408 31.9 125.962 32 125.495 32C125.108 32 124.615 31.9333 124.015 31.8C123.428 31.6667 122.688 31.32 121.795 30.76C121.368 31.3733 120.942 31.7533 120.515 31.9C120.088 32.0333 119.595 32.1 119.035 32.1ZM122.775 28.98C122.695 29.1533 122.622 29.32 122.555 29.48C123.128 29.8133 123.648 30.0467 124.115 30.18C124.595 30.3 124.995 30.36 125.315 30.36C125.888 30.36 126.295 30.2333 126.535 29.98C126.775 29.7267 126.895 29.3933 126.895 28.98C126.895 28.5933 126.802 28.2067 126.615 27.82C126.428 27.4333 126.188 27.1133 125.895 26.86C125.615 26.6067 125.315 26.48 124.995 26.48C124.755 26.48 124.522 26.5467 124.295 26.68C124.068 26.8133 123.835 27.06 123.595 27.42C123.355 27.78 123.082 28.3 122.775 28.98ZM135.363 32.1C134.283 32.1 133.463 31.98 132.903 31.74C132.343 31.5 131.956 31.1267 131.743 30.62C131.53 30.1133 131.41 29.46 131.383 28.66L130.983 17.72H132.623L133.023 28.02C133.05 28.6733 133.11 29.18 133.203 29.54C133.31 29.8867 133.536 30.1267 133.883 30.26C134.243 30.3933 134.803 30.46 135.563 30.46C135.843 30.46 136.043 30.54 136.163 30.7C136.296 30.8467 136.363 31.0267 136.363 31.24C136.363 31.4533 136.27 31.6533 136.083 31.84C135.896 32.0133 135.656 32.1 135.363 32.1ZM135.363 32.1L135.563 30.46C135.99 30.46 136.337 30.4333 136.603 30.38C136.87 30.3133 137.09 30.16 137.263 29.92C137.45 29.6667 137.623 29.2733 137.783 28.74C137.943 28.2067 138.13 27.46 138.343 26.5L139.843 26.92C139.763 27.2667 139.67 27.6733 139.563 28.14C139.457 28.6067 139.403 29.0267 139.403 29.4C139.403 29.7333 139.53 29.9933 139.783 30.18C140.037 30.3667 140.497 30.46 141.163 30.46C141.563 30.46 141.89 30.4267 142.143 30.36C142.397 30.2933 142.603 30.1333 142.763 29.88C142.937 29.6267 143.09 29.2267 143.223 28.68C143.357 28.12 143.497 27.3467 143.643 26.36L145.163 26.64C145.123 26.88 145.07 27.1733 145.003 27.52C144.95 27.8667 144.903 28.2133 144.863 28.56C144.823 28.8933 144.803 29.1733 144.803 29.4C144.803 29.5867 144.843 29.7667 144.923 29.94C145.017 30.1 145.19 30.2267 145.443 30.32C145.71 30.4133 146.103 30.46 146.623 30.46C147.197 30.46 147.657 30.3467 148.003 30.12C148.35 29.8933 148.523 29.4333 148.523 28.74C148.523 28.2467 148.403 27.6133 148.163 26.84C147.937 26.0667 147.677 25.3 147.383 24.54L149.003 23.94C149.163 24.38 149.323 24.8733 149.483 25.42C149.643 25.9533 149.777 26.4867 149.883 27.02C149.99 27.5533 150.043 28.02 150.043 28.42C150.043 29.66 149.737 30.5867 149.123 31.2C148.51 31.8 147.67 32.1 146.603 32.1C145.87 32.1 145.29 32.0067 144.863 31.82C144.45 31.62 144.15 31.3133 143.963 30.9C143.643 31.3933 143.257 31.72 142.803 31.88C142.363 32.0267 141.737 32.1 140.923 32.1C140.643 32.1 140.343 32.0667 140.023 32C139.717 31.9333 139.43 31.8067 139.163 31.62C138.897 31.42 138.69 31.1267 138.543 30.74C138.197 31.3267 137.763 31.7 137.243 31.86C136.737 32.02 136.11 32.1 135.363 32.1ZM143.983 21.1C143.703 21.1 143.463 21.0067 143.263 20.82C143.077 20.62 142.983 20.3867 142.983 20.12C142.983 19.8533 143.077 19.62 143.263 19.42C143.463 19.22 143.703 19.12 143.983 19.12C144.25 19.12 144.477 19.22 144.663 19.42C144.863 19.62 144.963 19.8533 144.963 20.12C144.963 20.3867 144.863 20.62 144.663 20.82C144.477 21.0067 144.25 21.1 143.983 21.1ZM142.623 23.3C142.343 23.3 142.103 23.2067 141.903 23.02C141.717 22.82 141.623 22.5867 141.623 22.32C141.623 22.0533 141.717 21.82 141.903 21.62C142.103 21.42 142.343 21.32 142.623 21.32C142.89 21.32 143.117 21.42 143.303 21.62C143.503 21.82 143.603 22.0533 143.603 22.32C143.603 22.5867 143.503 22.82 143.303 23.02C143.117 23.2067 142.89 23.3 142.623 23.3ZM145.343 23.3C145.063 23.3 144.823 23.2067 144.623 23.02C144.437 22.82 144.343 22.5867 144.343 22.32C144.343 22.0533 144.437 21.82 144.623 21.62C144.823 21.42 145.063 21.32 145.343 21.32C145.61 21.32 145.837 21.42 146.023 21.62C146.223 21.82 146.323 22.0533 146.323 22.32C146.323 22.5867 146.223 22.82 146.023 23.02C145.837 23.2067 145.61 23.3 145.343 23.3ZM156.315 32.02C156.315 31.54 156.382 31.0067 156.515 30.42C156.648 29.8333 156.862 29.1867 157.155 28.48L158.595 29.04C158.382 29.6 158.222 30.1133 158.115 30.58C158.008 31.0467 157.955 31.48 157.955 31.88C157.955 32.6267 158.135 33.2267 158.495 33.68C158.868 34.1333 159.362 34.4667 159.975 34.68C160.602 34.8933 161.288 35 162.035 35C163.248 35 164.195 34.8333 164.875 34.5C165.568 34.1667 166.055 33.7267 166.335 33.18C166.628 32.6467 166.775 32.08 166.775 31.48C166.775 30.6 166.675 29.7933 166.475 29.06C166.288 28.3133 166.082 27.5467 165.855 26.76L167.475 26.32C167.688 27.08 167.835 27.6333 167.915 27.98C167.995 28.3133 168.068 28.5867 168.135 28.8C168.282 29.2933 168.475 29.66 168.715 29.9C168.955 30.1267 169.228 30.28 169.535 30.36C169.842 30.4267 170.168 30.46 170.515 30.46C170.795 30.46 170.995 30.54 171.115 30.7C171.248 30.8467 171.315 31.0267 171.315 31.24C171.315 31.4533 171.222 31.6533 171.035 31.84C170.848 32.0133 170.608 32.1 170.315 32.1C169.902 32.1 169.535 32.0467 169.215 31.94C168.908 31.82 168.648 31.6733 168.435 31.5C168.368 32.1533 168.215 32.7867 167.975 33.4C167.735 34.0133 167.368 34.56 166.875 35.04C166.395 35.5333 165.755 35.92 164.955 36.2C164.155 36.4933 163.162 36.64 161.975 36.64C160.975 36.64 160.042 36.4733 159.175 36.14C158.322 35.8067 157.628 35.3 157.095 34.62C156.575 33.94 156.315 33.0733 156.315 32.02ZM170.324 32.1L170.524 30.46C171.191 30.46 171.711 30.4133 172.084 30.32C172.458 30.2133 172.738 30.02 172.924 29.74C173.124 29.4467 173.284 29.0267 173.404 28.48C173.524 27.9333 173.671 27.22 173.844 26.34L175.404 26.64C175.324 27 175.231 27.4133 175.124 27.88C175.031 28.3467 174.984 28.74 174.984 29.06C174.984 29.26 174.998 29.4467 175.024 29.62C175.051 29.7933 175.151 29.94 175.324 30.06C175.498 30.18 175.791 30.28 176.204 30.36C176.618 30.4267 177.211 30.46 177.984 30.46C178.264 30.46 178.464 30.54 178.584 30.7C178.718 30.8467 178.784 31.0267 178.784 31.24C178.784 31.4533 178.691 31.6533 178.504 31.84C178.318 32.0133 178.078 32.1 177.784 32.1C176.918 32.1 176.238 32.0533 175.744 31.96C175.264 31.8533 174.904 31.7067 174.664 31.52C174.438 31.32 174.271 31.0733 174.164 30.78C173.778 31.3267 173.298 31.6867 172.724 31.86C172.164 32.02 171.364 32.1 170.324 32.1ZM175.364 35.88C175.084 35.88 174.844 35.78 174.644 35.58C174.458 35.3933 174.364 35.1667 174.364 34.9C174.364 34.6333 174.458 34.4 174.644 34.2C174.844 34 175.084 33.9 175.364 33.9C175.631 33.9 175.858 34 176.044 34.2C176.244 34.4 176.344 34.6333 176.344 34.9C176.344 35.1667 176.244 35.3933 176.044 35.58C175.858 35.78 175.631 35.88 175.364 35.88ZM172.624 35.88C172.344 35.88 172.104 35.78 171.904 35.58C171.718 35.3933 171.624 35.1667 171.624 34.9C171.624 34.6333 171.718 34.4 171.904 34.2C172.104 34 172.344 33.9 172.624 33.9C172.891 33.9 173.118 34 173.304 34.2C173.504 34.4 173.604 34.6333 173.604 34.9C173.604 35.1667 173.504 35.3933 173.304 35.58C173.118 35.78 172.891 35.88 172.624 35.88ZM177.785 32.1L177.985 30.46C178.358 30.46 178.672 30.38 178.925 30.22C179.178 30.06 179.425 29.8 179.665 29.44C179.905 29.0667 180.165 28.56 180.445 27.92C180.832 27.0667 181.212 26.42 181.585 25.98C181.972 25.54 182.352 25.24 182.725 25.08C183.112 24.92 183.492 24.84 183.865 24.84C184.318 24.84 184.738 24.96 185.125 25.2C185.512 25.4267 185.852 25.7333 186.145 26.12C186.438 26.5067 186.665 26.9333 186.825 27.4C186.998 27.8533 187.085 28.3067 187.085 28.76C187.085 29.56 186.945 30.2 186.665 30.68C186.385 31.1467 186.025 31.4867 185.585 31.7C185.158 31.9 184.712 32 184.245 32C183.858 32 183.365 31.9333 182.765 31.8C182.178 31.6667 181.438 31.32 180.545 30.76C180.118 31.3733 179.692 31.7533 179.265 31.9C178.838 32.0333 178.345 32.1 177.785 32.1ZM181.525 28.98C181.445 29.1533 181.372 29.32 181.305 29.48C181.878 29.8133 182.398 30.0467 182.865 30.18C183.345 30.3 183.745 30.36 184.065 30.36C184.638 30.36 185.045 30.2333 185.285 29.98C185.525 29.7267 185.645 29.3933 185.645 28.98C185.645 28.5933 185.552 28.2067 185.365 27.82C185.178 27.4333 184.938 27.1133 184.645 26.86C184.365 26.6067 184.065 26.48 183.745 26.48C183.505 26.48 183.272 26.5467 183.045 26.68C182.818 26.8133 182.585 27.06 182.345 27.42C182.105 27.78 181.832 28.3 181.525 28.98Z" fill="white"/>
<path d="M201.8 32.42C199.427 32.42 197.633 32.1133 196.42 31.5C195.207 30.8733 194.6 29.8267 194.6 28.36C194.6 27.8667 194.66 27.3467 194.78 26.8C194.9 26.24 195.027 25.7133 195.16 25.22L196.66 25.6C196.58 25.8933 196.487 26.2667 196.38 26.72C196.287 27.1733 196.24 27.5667 196.24 27.9C196.24 28.5933 196.413 29.1533 196.76 29.58C197.12 29.9933 197.74 30.3 198.62 30.5C199.5 30.6867 200.733 30.78 202.32 30.78C203.133 30.78 203.993 30.7333 204.9 30.64C205.807 30.5333 206.707 30.3533 207.6 30.1C208.507 29.8333 209.367 29.48 210.18 29.04C210.993 28.5867 211.707 28.0067 212.32 27.3L213.58 28.04C213.46 28.3467 213.38 28.5933 213.34 28.78C213.3 28.9533 213.28 29.1133 213.28 29.26C213.28 29.46 213.353 29.6533 213.5 29.84C213.647 30.0267 213.92 30.18 214.32 30.3C214.72 30.4067 215.3 30.46 216.06 30.46C216.34 30.46 216.54 30.54 216.66 30.7C216.793 30.8467 216.86 31.0267 216.86 31.24C216.86 31.4533 216.767 31.6533 216.58 31.84C216.393 32.0133 216.153 32.1 215.86 32.1C214.687 32.1 213.72 31.9267 212.96 31.58C212.213 31.2333 211.833 30.6667 211.82 29.88C210.713 30.7333 209.28 31.3733 207.52 31.8C205.76 32.2133 203.853 32.42 201.8 32.42ZM203.82 23.42C203.58 23.42 203.293 23.4133 202.96 23.4C202.64 23.3733 202.333 23.3467 202.04 23.32C201.747 23.2933 201.527 23.2733 201.38 23.26L201.42 22.1C201.5 22.1133 201.587 22.1267 201.68 22.14C201.773 22.14 201.873 22.1467 201.98 22.16C202.113 21.92 202.26 21.6933 202.42 21.48L202.32 18.24H203.42L203.52 20.36C203.76 20.1867 204.007 20.0533 204.26 19.96C204.527 19.8533 204.793 19.8 205.06 19.8C205.553 19.8 205.947 19.9533 206.24 20.26C206.547 20.5667 206.7 20.9467 206.7 21.4C206.7 21.6667 206.62 21.96 206.46 22.28C206.313 22.5867 206.033 22.8533 205.62 23.08C205.207 23.3067 204.607 23.42 203.82 23.42ZM204.9 20.98C204.66 20.98 204.427 21.0533 204.2 21.2C203.973 21.3467 203.76 21.52 203.56 21.72C203.373 21.92 203.227 22.0933 203.12 22.24C203.333 22.2533 203.52 22.26 203.68 22.26C204.333 22.26 204.807 22.1933 205.1 22.06C205.393 21.9133 205.54 21.7267 205.54 21.5C205.54 21.3267 205.48 21.2 205.36 21.12C205.24 21.0267 205.087 20.98 204.9 20.98ZM215.855 32.1L216.035 30.46C216.795 30.46 217.329 30.3867 217.635 30.24C217.942 30.0933 218.115 29.84 218.155 29.48C218.209 29.1067 218.222 28.58 218.195 27.9L217.815 17.72H219.435L219.835 27.72C219.875 28.6667 219.809 29.4667 219.635 30.12C219.475 30.7733 219.102 31.2667 218.515 31.6C217.942 31.9333 217.055 32.1 215.855 32.1ZM222.891 32L222.491 17.72H224.111L224.511 32H222.891ZM226.976 36.6L226.616 34.96C227.47 34.8533 228.243 34.6933 228.936 34.48C229.63 34.2667 230.223 33.96 230.716 33.56C231.21 33.16 231.576 32.6267 231.816 31.96C231.576 32.0267 231.323 32.0733 231.056 32.1C230.79 32.14 230.53 32.16 230.276 32.16C229.25 32.16 228.463 31.9533 227.916 31.54C227.37 31.1267 227.096 30.4867 227.096 29.62C227.096 29.1133 227.176 28.6067 227.336 28.1C227.496 27.58 227.723 27.1067 228.016 26.68C228.31 26.2533 228.663 25.9133 229.076 25.66C229.49 25.3933 229.95 25.26 230.456 25.26C231.176 25.26 231.77 25.5 232.236 25.98C232.716 26.4467 233.07 27.0533 233.296 27.8C233.536 28.5467 233.656 29.34 233.656 30.18C233.656 32.0467 233.09 33.52 231.956 34.6C230.836 35.68 229.176 36.3467 226.976 36.6ZM228.676 29.22C228.676 29.6333 228.81 29.9667 229.076 30.22C229.343 30.46 229.803 30.58 230.456 30.58C231.03 30.58 231.576 30.5 232.096 30.34C232.096 30.26 232.096 30.1667 232.096 30.06C232.096 29.5133 232.023 29 231.876 28.52C231.73 28.0267 231.523 27.6333 231.256 27.34C230.99 27.0467 230.67 26.9 230.296 26.9C229.976 26.9 229.696 27.02 229.456 27.26C229.216 27.4867 229.023 27.78 228.876 28.14C228.743 28.5 228.676 28.86 228.676 29.22Z" fill="white"/>
<path d="M248.4 32.32C247.373 32.32 246.407 32.1333 245.5 31.76C244.593 31.3867 243.793 30.8667 243.1 30.2C242.42 29.52 241.88 28.7267 241.48 27.82C241.093 26.9 240.9 25.9067 240.9 24.84C240.9 23.7733 241.093 22.7867 241.48 21.88C241.88 20.96 242.42 20.1667 243.1 19.5C243.793 18.82 244.593 18.2933 245.5 17.92C246.407 17.5467 247.373 17.36 248.4 17.36C249.493 17.36 250.5 17.5533 251.42 17.94C252.353 18.3267 253.133 18.8667 253.76 19.56L252.24 21.06C251.933 20.7133 251.58 20.42 251.18 20.18C250.793 19.94 250.367 19.76 249.9 19.64C249.433 19.5067 248.933 19.44 248.4 19.44C247.693 19.44 247.02 19.5667 246.38 19.82C245.74 20.0733 245.173 20.44 244.68 20.92C244.2 21.3867 243.82 21.9533 243.54 22.62C243.26 23.2733 243.12 24.0133 243.12 24.84C243.12 25.6667 243.26 26.4133 243.54 27.08C243.833 27.7333 244.22 28.3 244.7 28.78C245.193 29.2467 245.76 29.6067 246.4 29.86C247.04 30.1133 247.713 30.24 248.42 30.24C249.073 30.24 249.68 30.1467 250.24 29.96C250.813 29.7733 251.313 29.5067 251.74 29.16C252.167 28.8133 252.513 28.3933 252.78 27.9C253.047 27.3933 253.213 26.8267 253.28 26.2H248.38V24.26H255.34C255.367 24.42 255.393 24.6067 255.42 24.82C255.447 25.02 255.46 25.2133 255.46 25.4V25.42C255.46 26.4467 255.28 27.3867 254.92 28.24C254.573 29.0933 254.087 29.8267 253.46 30.44C252.833 31.04 252.087 31.5067 251.22 31.84C250.367 32.16 249.427 32.32 248.4 32.32ZM261.9 32.32C260.847 32.32 259.92 32.08 259.12 31.6C258.32 31.12 257.693 30.4733 257.24 29.66C256.787 28.8333 256.56 27.9133 256.56 26.9C256.56 25.8867 256.787 24.9733 257.24 24.16C257.693 23.3333 258.32 22.68 259.12 22.2C259.92 21.72 260.847 21.48 261.9 21.48C262.94 21.48 263.86 21.7267 264.66 22.22C265.46 22.7 266.087 23.3467 266.54 24.16C266.993 24.9733 267.22 25.8867 267.22 26.9C267.22 27.9133 266.993 28.8333 266.54 29.66C266.087 30.4733 265.46 31.12 264.66 31.6C263.86 32.08 262.94 32.32 261.9 32.32ZM261.9 30.34C262.46 30.34 262.98 30.2067 263.46 29.94C263.94 29.66 264.327 29.2667 264.62 28.76C264.927 28.24 265.08 27.62 265.08 26.9C265.08 26.18 264.927 25.5667 264.62 25.06C264.327 24.54 263.94 24.1467 263.46 23.88C262.98 23.6 262.46 23.46 261.9 23.46C261.34 23.46 260.813 23.6 260.32 23.88C259.84 24.1467 259.447 24.54 259.14 25.06C258.847 25.5667 258.7 26.18 258.7 26.9C258.7 27.62 258.847 28.24 259.14 28.76C259.447 29.2667 259.847 29.66 260.34 29.94C260.833 30.2067 261.353 30.34 261.9 30.34ZM274.009 32.32C272.956 32.32 272.029 32.08 271.229 31.6C270.429 31.12 269.803 30.4733 269.349 29.66C268.896 28.8333 268.669 27.9133 268.669 26.9C268.669 25.8867 268.896 24.9733 269.349 24.16C269.803 23.3333 270.429 22.68 271.229 22.2C272.029 21.72 272.956 21.48 274.009 21.48C275.049 21.48 275.969 21.7267 276.769 22.22C277.569 22.7 278.196 23.3467 278.649 24.16C279.103 24.9733 279.329 25.8867 279.329 26.9C279.329 27.9133 279.103 28.8333 278.649 29.66C278.196 30.4733 277.569 31.12 276.769 31.6C275.969 32.08 275.049 32.32 274.009 32.32ZM274.009 30.34C274.569 30.34 275.089 30.2067 275.569 29.94C276.049 29.66 276.436 29.2667 276.729 28.76C277.036 28.24 277.189 27.62 277.189 26.9C277.189 26.18 277.036 25.5667 276.729 25.06C276.436 24.54 276.049 24.1467 275.569 23.88C275.089 23.6 274.569 23.46 274.009 23.46C273.449 23.46 272.923 23.6 272.429 23.88C271.949 24.1467 271.556 24.54 271.249 25.06C270.956 25.5667 270.809 26.18 270.809 26.9C270.809 27.62 270.956 28.24 271.249 28.76C271.556 29.2667 271.956 29.66 272.449 29.94C272.943 30.2067 273.463 30.34 274.009 30.34ZM285.919 36.64C285.025 36.64 284.252 36.4933 283.599 36.2C282.959 35.92 282.439 35.5533 282.039 35.1C281.639 34.66 281.352 34.2067 281.179 33.74L283.179 32.9C283.392 33.4333 283.732 33.8667 284.199 34.2C284.679 34.5467 285.252 34.72 285.919 34.72C286.865 34.72 287.605 34.44 288.139 33.88C288.672 33.32 288.939 32.5267 288.939 31.5V30.52H288.819C288.499 30.9867 288.059 31.3667 287.499 31.66C286.939 31.9533 286.292 32.1 285.559 32.1C284.692 32.1 283.892 31.88 283.159 31.44C282.439 31 281.859 30.3867 281.419 29.6C280.992 28.8 280.779 27.8667 280.779 26.8C280.779 25.72 280.992 24.7867 281.419 24C281.859 23.2 282.439 22.58 283.159 22.14C283.892 21.7 284.692 21.48 285.559 21.48C286.292 21.48 286.939 21.6267 287.499 21.92C288.059 22.2 288.499 22.5867 288.819 23.08H288.939V21.8H290.999V31.46C290.999 32.5667 290.779 33.5067 290.339 34.28C289.912 35.0533 289.319 35.64 288.559 36.04C287.799 36.44 286.919 36.64 285.919 36.64ZM285.939 30.14C286.472 30.14 286.965 30.0133 287.419 29.76C287.885 29.4933 288.252 29.1133 288.519 28.62C288.799 28.1133 288.939 27.5067 288.939 26.8C288.939 26.0533 288.799 25.4333 288.519 24.94C288.252 24.4467 287.885 24.0733 287.419 23.82C286.965 23.5667 286.472 23.44 285.939 23.44C285.405 23.44 284.905 23.5667 284.439 23.82C283.985 24.0733 283.619 24.4533 283.339 24.96C283.059 25.4533 282.919 26.0667 282.919 26.8C282.919 27.52 283.059 28.1333 283.339 28.64C283.619 29.1333 283.985 29.5067 284.439 29.76C284.905 30.0133 285.405 30.14 285.939 30.14ZM293.546 32V17.68H295.706V32H293.546ZM302.815 32.32C301.815 32.32 300.921 32.0867 300.135 31.62C299.348 31.1533 298.728 30.5133 298.275 29.7C297.835 28.8867 297.615 27.96 297.615 26.92C297.615 25.9467 297.828 25.0467 298.255 24.22C298.681 23.3933 299.275 22.7333 300.035 22.24C300.808 21.7333 301.695 21.48 302.695 21.48C303.748 21.48 304.641 21.7067 305.375 22.16C306.121 22.6133 306.688 23.2333 307.075 24.02C307.461 24.8067 307.655 25.6933 307.655 26.68C307.655 26.8267 307.648 26.96 307.635 27.08C307.635 27.2 307.628 27.2933 307.615 27.36H299.735C299.788 27.92 299.928 28.4067 300.155 28.82C300.448 29.34 300.835 29.7333 301.315 30C301.795 30.2667 302.315 30.4 302.875 30.4C303.555 30.4 304.121 30.2467 304.575 29.94C305.041 29.62 305.408 29.2267 305.675 28.76L307.455 29.62C307.015 30.42 306.415 31.0733 305.655 31.58C304.895 32.0733 303.948 32.32 302.815 32.32ZM299.855 25.74H305.515C305.501 25.4867 305.435 25.22 305.315 24.94C305.195 24.6467 305.021 24.38 304.795 24.14C304.568 23.9 304.281 23.7067 303.935 23.56C303.588 23.4 303.181 23.32 302.715 23.32C302.128 23.32 301.608 23.4733 301.155 23.78C300.701 24.0733 300.348 24.4867 300.095 25.02C299.988 25.2467 299.908 25.4867 299.855 25.74Z" fill="white"/>
</svg>
