<svg width="292" height="50" viewBox="0 0 292 50" fill="none" xmlns="http://www.w3.org/2000/svg">
<rect x="0.5" y="0.5" width="291" height="49" rx="24.5" fill="#1F1F1F"/>
<path d="M51 22H21V17C21 14.2857 23.2018 12 25.8165 12H46.1835C48.7982 12 51 14.2857 51 17V22Z" fill="#34A853"/>
<path d="M51 26.0537H21V21.0537C21 18.3394 23.2018 16.0537 25.8165 16.0537H46.1835C48.7982 16.0537 51 18.3394 51 21.0537V26.0537Z" fill="#FBBC04"/>
<path d="M51 30.2468H21V25.2468C21 22.5325 23.2018 20.2468 25.8165 20.2468H46.1835C48.7982 20.2468 51 22.5325 51 25.2468V30.2468Z" fill="#EA4335"/>
<path d="M21 23.2752L40.0411 27.6789C42.2329 28.2294 44.6986 27.6789 46.4795 26.3028L51 23V33.3211C51 35.9358 48.8082 38 46.2055 38H25.7945C23.1918 38 21 35.9358 21 33.3211V23.2752Z" fill="url(#paint0_linear_1819_25032)"/>
<path d="M64.62 32V17.68H69.98C70.7533 17.68 71.46 17.8467 72.1 18.18C72.7533 18.5133 73.2667 18.9667 73.64 19.54C74.0267 20.1133 74.22 20.76 74.22 21.48C74.22 22.2133 74.0333 22.84 73.66 23.36C73.3 23.88 72.84 24.2733 72.28 24.54V24.64C73 24.8933 73.5867 25.3133 74.04 25.9C74.4933 26.4733 74.72 27.1667 74.72 27.98C74.72 28.78 74.5133 29.4867 74.1 30.1C73.7 30.7 73.1533 31.1667 72.46 31.5C71.78 31.8333 71.0333 32 70.22 32H64.62ZM69.96 19.7H66.82V23.7H69.88C70.5733 23.7 71.1133 23.4933 71.5 23.08C71.8867 22.6533 72.08 22.1867 72.08 21.68C72.08 21.1867 71.8933 20.7333 71.52 20.32C71.1467 19.9067 70.6267 19.7 69.96 19.7ZM66.82 29.96H70.22C70.94 29.96 71.5 29.7467 71.9 29.32C72.3133 28.88 72.52 28.38 72.52 27.82C72.52 27.26 72.3133 26.76 71.9 26.32C71.4867 25.88 70.9 25.66 70.14 25.66H66.82V29.96ZM80.0795 32.32C79.3062 32.32 78.6262 32.18 78.0395 31.9C77.4662 31.6067 77.0129 31.2 76.6795 30.68C76.3595 30.16 76.1995 29.5667 76.1995 28.9C76.1995 28.18 76.3862 27.5667 76.7595 27.06C77.1462 26.54 77.6595 26.1467 78.2995 25.88C78.9395 25.6133 79.6462 25.48 80.4195 25.48C81.0595 25.48 81.6129 25.54 82.0795 25.66C82.5595 25.78 82.9329 25.9133 83.1995 26.06V25.56C83.1995 24.8667 82.9729 24.32 82.5195 23.92C82.0795 23.5067 81.4795 23.3 80.7195 23.3C80.1995 23.3 79.7529 23.42 79.3795 23.66C79.0062 23.9 78.7262 24.2133 78.5395 24.6L76.8395 23.8C77.1862 23.0533 77.7129 22.48 78.4195 22.08C79.1262 21.68 79.8995 21.48 80.7395 21.48C81.6595 21.48 82.4329 21.64 83.0595 21.96C83.6995 22.2667 84.2062 22.7067 84.5795 23.28C84.9929 22.72 85.5062 22.2867 86.1195 21.98C86.7462 21.66 87.4462 21.5 88.2195 21.5C89.2729 21.5 90.1662 21.7267 90.8995 22.18C91.6462 22.6333 92.2129 23.2533 92.5995 24.04C92.9862 24.8133 93.1795 25.6933 93.1795 26.68C93.1795 26.8267 93.1729 26.96 93.1595 27.08C93.1595 27.2 93.1529 27.2933 93.1395 27.36H85.2795C85.3595 28.1067 85.5529 28.7 85.8595 29.14C86.1795 29.58 86.5662 29.9 87.0195 30.1C87.4729 30.3 87.9395 30.4 88.4195 30.4C89.0995 30.4 89.6662 30.2467 90.1195 29.94C90.5729 29.62 90.9329 29.2267 91.1995 28.76L92.9795 29.62C92.5395 30.42 91.9395 31.0733 91.1795 31.58C90.4195 32.0733 89.4795 32.32 88.3595 32.32C87.3995 32.32 86.5595 32.1 85.8395 31.66C85.1195 31.22 84.5529 30.6533 84.1395 29.96C83.5929 30.7867 82.9862 31.3867 82.3195 31.76C81.6662 32.1333 80.9195 32.32 80.0795 32.32ZM88.2395 23.34C87.6129 23.34 87.0195 23.5267 86.4595 23.9C85.8995 24.2733 85.5262 24.8867 85.3395 25.74H91.0195C90.9929 25.3933 90.8795 25.0333 90.6795 24.66C90.4929 24.2867 90.1929 23.9733 89.7795 23.72C89.3795 23.4667 88.8662 23.34 88.2395 23.34ZM80.3595 30.56C80.9195 30.56 81.4129 30.4267 81.8395 30.16C82.2662 29.8933 82.5995 29.5467 82.8395 29.12C83.0795 28.68 83.1995 28.2067 83.1995 27.7C82.5062 27.3 81.7129 27.1 80.8195 27.1C79.9395 27.1 79.3129 27.28 78.9395 27.64C78.5662 27.9867 78.3795 28.4133 78.3795 28.92C78.3795 29.4 78.5595 29.7933 78.9195 30.1C79.2795 30.4067 79.7595 30.56 80.3595 30.56ZM95.965 29.04V23.68H94.185V21.8H95.965V18.92H98.125V21.8H100.625V23.68H98.125V28.58C98.125 29.0867 98.225 29.4733 98.425 29.74C98.6383 30.0067 98.9917 30.14 99.485 30.14C99.7383 30.14 99.9517 30.1067 100.125 30.04C100.312 29.9733 100.498 29.88 100.685 29.76V31.86C100.458 31.9533 100.218 32.0267 99.965 32.08C99.7117 32.1333 99.4117 32.16 99.065 32.16C98.1183 32.16 97.365 31.8867 96.805 31.34C96.245 30.78 95.965 30.0133 95.965 29.04ZM105.702 32.32C104.969 32.32 104.316 32.18 103.742 31.9C103.169 31.6067 102.722 31.2 102.402 30.68C102.082 30.16 101.922 29.5667 101.922 28.9C101.922 28.18 102.109 27.5667 102.482 27.06C102.869 26.54 103.382 26.1467 104.022 25.88C104.662 25.6133 105.369 25.48 106.142 25.48C106.782 25.48 107.342 25.54 107.822 25.66C108.316 25.78 108.689 25.9067 108.942 26.04V25.5C108.942 24.8333 108.702 24.3 108.222 23.9C107.742 23.5 107.122 23.3 106.362 23.3C105.842 23.3 105.349 23.42 104.882 23.66C104.416 23.8867 104.042 24.2 103.762 24.6L102.282 23.46C102.722 22.8467 103.302 22.3667 104.022 22.02C104.756 21.66 105.556 21.48 106.422 21.48C107.902 21.48 109.042 21.8467 109.842 22.58C110.642 23.3 111.042 24.3133 111.042 25.62V32H108.942V30.74H108.822C108.556 31.1533 108.156 31.52 107.622 31.84C107.089 32.16 106.449 32.32 105.702 32.32ZM106.082 30.56C106.642 30.56 107.136 30.4267 107.562 30.16C107.989 29.8933 108.322 29.5467 108.562 29.12C108.816 28.68 108.942 28.2067 108.942 27.7C108.636 27.5267 108.276 27.3867 107.862 27.28C107.449 27.16 107.009 27.1 106.542 27.1C105.662 27.1 105.036 27.28 104.662 27.64C104.289 27.9867 104.102 28.4133 104.102 28.92C104.102 29.4 104.282 29.7933 104.642 30.1C105.002 30.4067 105.482 30.56 106.082 30.56ZM121.188 32L116.968 21.8H119.368L122.228 29.22H122.328L125.248 21.8H127.608L123.348 32H121.188ZM130.246 20.3C129.846 20.3 129.499 20.16 129.206 19.88C128.926 19.5867 128.786 19.24 128.786 18.84C128.786 18.44 128.926 18.1 129.206 17.82C129.499 17.54 129.846 17.4 130.246 17.4C130.646 17.4 130.986 17.54 131.266 17.82C131.559 18.1 131.706 18.44 131.706 18.84C131.706 19.24 131.559 19.5867 131.266 19.88C130.986 20.16 130.646 20.3 130.246 20.3ZM129.166 32V21.8H131.326V32H129.166ZM138.626 32.32C137.706 32.32 136.873 32.0933 136.126 31.64C135.379 31.1733 134.779 30.5533 134.326 29.78C133.886 29.0067 133.666 28.1533 133.666 27.22C133.666 26.2467 133.893 25.38 134.346 24.62C134.799 23.86 135.386 23.2667 136.106 22.84C136.826 22.4 137.599 22.18 138.426 22.18C139.013 22.18 139.519 22.2867 139.946 22.5C140.373 22.7 140.693 22.9067 140.906 23.12L141.026 23.04C140.879 22.6267 140.639 22.2333 140.306 21.86C139.986 21.4733 139.606 21.12 139.166 20.8L136.746 21.88L136.146 20.46L137.586 19.82C136.866 19.46 136.179 19.22 135.526 19.1L136.206 17.4C136.806 17.5333 137.399 17.7267 137.986 17.98C138.586 18.22 139.153 18.5267 139.686 18.9L141.706 18L142.306 19.4L141.026 19.98C141.813 20.7533 142.453 21.7067 142.946 22.84C143.439 23.9733 143.686 25.3 143.686 26.82C143.686 27.9267 143.466 28.8933 143.026 29.72C142.599 30.5333 142.006 31.1733 141.246 31.64C140.486 32.0933 139.613 32.32 138.626 32.32ZM138.646 30.34C139.193 30.34 139.679 30.2133 140.106 29.96C140.533 29.6933 140.873 29.3267 141.126 28.86C141.393 28.3933 141.526 27.8467 141.526 27.22C141.526 26.62 141.393 26.0867 141.126 25.62C140.873 25.1533 140.533 24.7867 140.106 24.52C139.679 24.2533 139.199 24.12 138.666 24.12C138.133 24.12 137.646 24.2533 137.206 24.52C136.779 24.7733 136.433 25.1333 136.166 25.6C135.913 26.0667 135.786 26.6067 135.786 27.22C135.786 27.8467 135.913 28.3933 136.166 28.86C136.433 29.3267 136.779 29.6933 137.206 29.96C137.646 30.2133 138.126 30.34 138.646 30.34Z" fill="white"/>
<path d="M158.4 32.32C157.373 32.32 156.407 32.1333 155.5 31.76C154.607 31.3867 153.813 30.8667 153.12 30.2C152.427 29.52 151.88 28.7267 151.48 27.82C151.093 26.9 150.9 25.9067 150.9 24.84C150.9 23.7733 151.093 22.7867 151.48 21.88C151.88 20.96 152.42 20.1667 153.1 19.5C153.793 18.82 154.593 18.2933 155.5 17.92C156.407 17.5467 157.373 17.36 158.4 17.36C159.493 17.36 160.5 17.5533 161.42 17.94C162.353 18.3267 163.133 18.8667 163.76 19.56L162.24 21.06C161.773 20.54 161.213 20.14 160.56 19.86C159.92 19.58 159.2 19.44 158.4 19.44C157.453 19.44 156.58 19.6667 155.78 20.12C154.98 20.56 154.333 21.1867 153.84 22C153.36 22.8 153.12 23.7467 153.12 24.84C153.12 25.9333 153.367 26.8867 153.86 27.7C154.353 28.5 155 29.1267 155.8 29.58C156.6 30.02 157.473 30.24 158.42 30.24C159.287 30.24 160.073 30.08 160.78 29.76C161.487 29.4267 162.053 28.96 162.48 28.36C162.92 27.76 163.187 27.04 163.28 26.2H158.38V24.26H165.34C165.42 24.62 165.46 25 165.46 25.4V25.42C165.46 26.8067 165.153 28.02 164.54 29.06C163.94 30.0867 163.107 30.8867 162.04 31.46C160.973 32.0333 159.76 32.32 158.4 32.32ZM171.9 32.32C170.847 32.32 169.92 32.08 169.12 31.6C168.32 31.12 167.693 30.4733 167.24 29.66C166.787 28.8467 166.56 27.9267 166.56 26.9C166.56 25.8867 166.787 24.9733 167.24 24.16C167.693 23.3333 168.32 22.68 169.12 22.2C169.92 21.72 170.847 21.48 171.9 21.48C172.94 21.48 173.86 21.72 174.66 22.2C175.46 22.68 176.087 23.3333 176.54 24.16C176.993 24.9733 177.22 25.8867 177.22 26.9C177.22 27.9267 176.993 28.8467 176.54 29.66C176.087 30.4733 175.46 31.12 174.66 31.6C173.86 32.08 172.94 32.32 171.9 32.32ZM171.9 30.34C172.46 30.34 172.98 30.2067 173.46 29.94C173.94 29.66 174.327 29.2667 174.62 28.76C174.927 28.24 175.08 27.62 175.08 26.9C175.08 26.18 174.927 25.5667 174.62 25.06C174.327 24.54 173.94 24.1467 173.46 23.88C172.98 23.6 172.46 23.46 171.9 23.46C171.34 23.46 170.813 23.6 170.32 23.88C169.84 24.1467 169.447 24.54 169.14 25.06C168.847 25.5667 168.7 26.18 168.7 26.9C168.7 27.62 168.847 28.24 169.14 28.76C169.447 29.2667 169.84 29.66 170.32 29.94C170.813 30.2067 171.34 30.34 171.9 30.34ZM184.009 32.32C182.956 32.32 182.029 32.08 181.229 31.6C180.429 31.12 179.803 30.4733 179.349 29.66C178.896 28.8467 178.669 27.9267 178.669 26.9C178.669 25.8867 178.896 24.9733 179.349 24.16C179.803 23.3333 180.429 22.68 181.229 22.2C182.029 21.72 182.956 21.48 184.009 21.48C185.049 21.48 185.969 21.72 186.769 22.2C187.569 22.68 188.196 23.3333 188.649 24.16C189.103 24.9733 189.329 25.8867 189.329 26.9C189.329 27.9267 189.103 28.8467 188.649 29.66C188.196 30.4733 187.569 31.12 186.769 31.6C185.969 32.08 185.049 32.32 184.009 32.32ZM184.009 30.34C184.569 30.34 185.089 30.2067 185.569 29.94C186.049 29.66 186.436 29.2667 186.729 28.76C187.036 28.24 187.189 27.62 187.189 26.9C187.189 26.18 187.036 25.5667 186.729 25.06C186.436 24.54 186.049 24.1467 185.569 23.88C185.089 23.6 184.569 23.46 184.009 23.46C183.449 23.46 182.923 23.6 182.429 23.88C181.949 24.1467 181.556 24.54 181.249 25.06C180.956 25.5667 180.809 26.18 180.809 26.9C180.809 27.62 180.956 28.24 181.249 28.76C181.556 29.2667 181.949 29.66 182.429 29.94C182.923 30.2067 183.449 30.34 184.009 30.34ZM195.919 36.64C195.025 36.64 194.252 36.4933 193.599 36.2C192.959 35.92 192.439 35.5533 192.039 35.1C191.639 34.66 191.352 34.2067 191.179 33.74L193.179 32.9C193.392 33.4333 193.732 33.8667 194.199 34.2C194.679 34.5467 195.252 34.72 195.919 34.72C196.852 34.72 197.585 34.44 198.119 33.88C198.665 33.32 198.939 32.5267 198.939 31.5V30.52H198.819C198.499 31 198.052 31.3867 197.479 31.68C196.919 31.96 196.279 32.1 195.559 32.1C194.692 32.1 193.899 31.88 193.179 31.44C192.459 31 191.879 30.3867 191.439 29.6C190.999 28.8 190.779 27.8667 190.779 26.8C190.779 25.72 190.999 24.7867 191.439 24C191.879 23.2 192.459 22.58 193.179 22.14C193.899 21.7 194.692 21.48 195.559 21.48C196.279 21.48 196.919 21.6267 197.479 21.92C198.052 22.2133 198.499 22.6 198.819 23.08H198.939V21.8H200.999V31.46C200.999 32.5667 200.779 33.5067 200.339 34.28C199.912 35.0533 199.319 35.64 198.559 36.04C197.799 36.44 196.919 36.64 195.919 36.64ZM195.939 30.14C196.472 30.14 196.965 30.0133 197.419 29.76C197.872 29.4933 198.239 29.1133 198.519 28.62C198.799 28.1133 198.939 27.5067 198.939 26.8C198.939 26.0667 198.799 25.4533 198.519 24.96C198.239 24.4533 197.872 24.0733 197.419 23.82C196.965 23.5667 196.472 23.44 195.939 23.44C195.405 23.44 194.905 23.5733 194.439 23.84C193.985 24.0933 193.619 24.4667 193.339 24.96C193.059 25.4533 192.919 26.0667 192.919 26.8C192.919 27.52 193.059 28.1333 193.339 28.64C193.619 29.1333 193.985 29.5067 194.439 29.76C194.905 30.0133 195.405 30.14 195.939 30.14ZM203.546 32V17.68H205.706V32H203.546ZM212.815 32.32C211.815 32.32 210.921 32.0867 210.135 31.62C209.348 31.1533 208.728 30.5133 208.275 29.7C207.835 28.8867 207.615 27.96 207.615 26.92C207.615 25.9467 207.828 25.0467 208.255 24.22C208.681 23.3933 209.275 22.7333 210.035 22.24C210.808 21.7333 211.695 21.48 212.695 21.48C213.748 21.48 214.641 21.7067 215.375 22.16C216.121 22.6133 216.688 23.2333 217.075 24.02C217.461 24.8067 217.655 25.6933 217.655 26.68C217.655 26.8267 217.648 26.96 217.635 27.08C217.635 27.2 217.628 27.2933 217.615 27.36H209.735C209.841 28.3733 210.195 29.1333 210.795 29.64C211.408 30.1467 212.101 30.4 212.875 30.4C213.568 30.4 214.141 30.2467 214.595 29.94C215.048 29.62 215.408 29.2267 215.675 28.76L217.455 29.62C217.015 30.42 216.415 31.0733 215.655 31.58C214.895 32.0733 213.948 32.32 212.815 32.32ZM212.715 23.32C211.995 23.32 211.381 23.54 210.875 23.98C210.368 24.42 210.028 25.0067 209.855 25.74H215.515C215.488 25.3933 215.375 25.0333 215.175 24.66C214.975 24.2867 214.668 23.9733 214.255 23.72C213.855 23.4533 213.341 23.32 212.715 23.32ZM227.426 32L223.206 21.8H225.606L228.466 29.22H228.566L231.486 21.8H233.846L229.586 32H227.426ZM239.611 32.32C238.611 32.32 237.718 32.0867 236.931 31.62C236.145 31.1533 235.525 30.5133 235.071 29.7C234.631 28.8867 234.411 27.96 234.411 26.92C234.411 25.9467 234.625 25.0467 235.051 24.22C235.478 23.3933 236.071 22.7333 236.831 22.24C237.605 21.7333 238.491 21.48 239.491 21.48C240.545 21.48 241.438 21.7067 242.171 22.16C242.918 22.6133 243.485 23.2333 243.871 24.02C244.258 24.8067 244.451 25.6933 244.451 26.68C244.451 26.8267 244.445 26.96 244.431 27.08C244.431 27.2 244.425 27.2933 244.411 27.36H236.531C236.638 28.3733 236.991 29.1333 237.591 29.64C238.205 30.1467 238.898 30.4 239.671 30.4C240.365 30.4 240.938 30.2467 241.391 29.94C241.845 29.62 242.205 29.2267 242.471 28.76L244.251 29.62C243.811 30.42 243.211 31.0733 242.451 31.58C241.691 32.0733 240.745 32.32 239.611 32.32ZM239.511 23.32C238.791 23.32 238.178 23.54 237.671 23.98C237.165 24.42 236.825 25.0067 236.651 25.74H242.311C242.285 25.3933 242.171 25.0333 241.971 24.66C241.771 24.2867 241.465 23.9733 241.051 23.72C240.651 23.4533 240.138 23.32 239.511 23.32ZM250.273 32.32C249.046 32.32 248.066 32.0533 247.333 31.52C246.6 30.9733 246.093 30.3267 245.813 29.58L247.753 28.74C247.993 29.2867 248.34 29.7067 248.793 30C249.246 30.28 249.76 30.42 250.333 30.42C250.866 30.42 251.326 30.3267 251.713 30.14C252.1 29.94 252.293 29.62 252.293 29.18C252.293 28.7533 252.1 28.44 251.713 28.24C251.326 28.04 250.846 27.8667 250.273 27.72L249.053 27.44C248.56 27.32 248.1 27.1333 247.673 26.88C247.246 26.6267 246.9 26.3 246.633 25.9C246.366 25.4867 246.233 25.0067 246.233 24.46C246.233 23.86 246.413 23.34 246.773 22.9C247.133 22.4467 247.606 22.1 248.193 21.86C248.793 21.6067 249.44 21.48 250.133 21.48C251.08 21.48 251.906 21.6667 252.613 22.04C253.333 22.4 253.86 22.9467 254.193 23.68L252.333 24.52C252.093 24.0667 251.78 23.7533 251.393 23.58C251.02 23.3933 250.606 23.3 250.153 23.3C249.646 23.3 249.22 23.4067 248.873 23.62C248.54 23.8333 248.373 24.1 248.373 24.42C248.373 24.7667 248.52 25.04 248.813 25.24C249.12 25.44 249.493 25.6 249.933 25.72L251.413 26.08C252.426 26.3333 253.186 26.72 253.693 27.24C254.2 27.7467 254.453 28.3667 254.453 29.1C254.453 29.7533 254.266 30.3267 253.893 30.82C253.52 31.3 253.013 31.6733 252.373 31.94C251.746 32.1933 251.046 32.32 250.273 32.32ZM256.338 32V17.68H258.498V26.12L262.818 21.8H265.498V21.92L261.558 25.82L265.638 31.88V32H263.078L260.038 27.32L258.498 28.84V32H256.338ZM268.223 20.3C267.823 20.3 267.476 20.16 267.183 19.88C266.903 19.5867 266.763 19.24 266.763 18.84C266.763 18.44 266.903 18.1 267.183 17.82C267.476 17.54 267.823 17.4 268.223 17.4C268.623 17.4 268.963 17.54 269.243 17.82C269.536 18.1 269.683 18.44 269.683 18.84C269.683 19.24 269.536 19.5867 269.243 19.88C268.963 20.16 268.623 20.3 268.223 20.3ZM267.143 32V21.8H269.303V32H267.143Z" fill="white"/>
<rect x="0.5" y="0.5" width="291" height="49" rx="24.5" stroke="#747775"/>
<defs>
<linearGradient id="paint0_linear_1819_25032" x1="34.5703" y1="30.7864" x2="18.7309" y2="48.9133" gradientUnits="userSpaceOnUse">
<stop stop-color="#4285F4"/>
<stop offset="1" stop-color="#1B74E8"/>
</linearGradient>
</defs>
</svg>
