<svg width="308" height="50" viewBox="0 0 308 50" fill="none" xmlns="http://www.w3.org/2000/svg">
<rect x="0.5" y="0.5" width="307" height="49" rx="24.5" fill="#1F1F1F"/>
<rect x="0.5" y="0.5" width="307" height="49" rx="24.5" stroke="#747775"/>
<path d="M51 22H21V17C21 14.2857 23.2018 12 25.8165 12H46.1835C48.7982 12 51 14.2857 51 17V22Z" fill="#34A853"/>
<path d="M51 26.0547H21V21.0547C21 18.3404 23.2018 16.0547 25.8165 16.0547H46.1835C48.7982 16.0547 51 18.3404 51 21.0547V26.0547Z" fill="#FBBC04"/>
<path d="M51 30.2461H21V25.2461C21 22.5318 23.2018 20.2461 25.8165 20.2461H46.1835C48.7982 20.2461 51 22.5318 51 25.2461V30.2461Z" fill="#EA4335"/>
<path d="M21 23.2752L40.0411 27.6789C42.2329 28.2294 44.6986 27.6789 46.4795 26.3028L51 23V33.3211C51 35.9358 48.8082 38 46.2055 38H25.7945C23.1918 38 21 35.9358 21 33.3211V23.2752Z" fill="#4285F4"/>
<path d="M71.4 32.32C70.3733 32.32 69.4067 32.1333 68.5 31.76C67.5933 31.3867 66.7933 30.8667 66.1 30.2C65.42 29.52 64.88 28.7267 64.48 27.82C64.0933 26.9 63.9 25.9067 63.9 24.84C63.9 23.7733 64.0933 22.7867 64.48 21.88C64.88 20.96 65.42 20.1667 66.1 19.5C66.7933 18.82 67.5933 18.2933 68.5 17.92C69.4067 17.5467 70.3733 17.36 71.4 17.36C72.4933 17.36 73.5 17.5533 74.42 17.94C75.3533 18.3267 76.1333 18.8667 76.76 19.56L75.24 21.06C74.9333 20.7133 74.58 20.42 74.18 20.18C73.7933 19.94 73.3667 19.76 72.9 19.64C72.4333 19.5067 71.9333 19.44 71.4 19.44C70.6933 19.44 70.02 19.5667 69.38 19.82C68.74 20.0733 68.1733 20.44 67.68 20.92C67.2 21.3867 66.82 21.9533 66.54 22.62C66.26 23.2733 66.12 24.0133 66.12 24.84C66.12 25.6667 66.26 26.4133 66.54 27.08C66.8333 27.7333 67.22 28.3 67.7 28.78C68.1933 29.2467 68.76 29.6067 69.4 29.86C70.04 30.1133 70.7133 30.24 71.42 30.24C72.0733 30.24 72.68 30.1467 73.24 29.96C73.8133 29.7733 74.3133 29.5067 74.74 29.16C75.1667 28.8133 75.5133 28.3933 75.78 27.9C76.0467 27.3933 76.2133 26.8267 76.28 26.2H71.38V24.26H78.34C78.3667 24.42 78.3933 24.6067 78.42 24.82C78.4467 25.02 78.46 25.2133 78.46 25.4V25.42C78.46 26.4467 78.28 27.3867 77.92 28.24C77.5733 29.0933 77.0867 29.8267 76.46 30.44C75.8333 31.04 75.0867 31.5067 74.22 31.84C73.3667 32.16 72.4267 32.32 71.4 32.32ZM84.8998 32.32C83.8465 32.32 82.9198 32.08 82.1198 31.6C81.3198 31.12 80.6932 30.4733 80.2398 29.66C79.7865 28.8333 79.5598 27.9133 79.5598 26.9C79.5598 25.8867 79.7865 24.9733 80.2398 24.16C80.6932 23.3333 81.3198 22.68 82.1198 22.2C82.9198 21.72 83.8465 21.48 84.8998 21.48C85.9398 21.48 86.8598 21.7267 87.6598 22.22C88.4598 22.7 89.0865 23.3467 89.5398 24.16C89.9932 24.9733 90.2198 25.8867 90.2198 26.9C90.2198 27.9133 89.9932 28.8333 89.5398 29.66C89.0865 30.4733 88.4598 31.12 87.6598 31.6C86.8598 32.08 85.9398 32.32 84.8998 32.32ZM84.8998 30.34C85.4598 30.34 85.9798 30.2067 86.4598 29.94C86.9398 29.66 87.3265 29.2667 87.6198 28.76C87.9265 28.24 88.0798 27.62 88.0798 26.9C88.0798 26.18 87.9265 25.5667 87.6198 25.06C87.3265 24.54 86.9398 24.1467 86.4598 23.88C85.9798 23.6 85.4598 23.46 84.8998 23.46C84.3398 23.46 83.8132 23.6 83.3198 23.88C82.8398 24.1467 82.4465 24.54 82.1398 25.06C81.8465 25.5667 81.6998 26.18 81.6998 26.9C81.6998 27.62 81.8465 28.24 82.1398 28.76C82.4465 29.2667 82.8465 29.66 83.3398 29.94C83.8332 30.2067 84.3532 30.34 84.8998 30.34ZM97.0092 32.32C95.9559 32.32 95.0292 32.08 94.2292 31.6C93.4292 31.12 92.8026 30.4733 92.3492 29.66C91.8959 28.8333 91.6692 27.9133 91.6692 26.9C91.6692 25.8867 91.8959 24.9733 92.3492 24.16C92.8026 23.3333 93.4292 22.68 94.2292 22.2C95.0292 21.72 95.9559 21.48 97.0092 21.48C98.0492 21.48 98.9692 21.7267 99.7692 22.22C100.569 22.7 101.196 23.3467 101.649 24.16C102.103 24.9733 102.329 25.8867 102.329 26.9C102.329 27.9133 102.103 28.8333 101.649 29.66C101.196 30.4733 100.569 31.12 99.7692 31.6C98.9692 32.08 98.0492 32.32 97.0092 32.32ZM97.0092 30.34C97.5692 30.34 98.0892 30.2067 98.5692 29.94C99.0492 29.66 99.4359 29.2667 99.7292 28.76C100.036 28.24 100.189 27.62 100.189 26.9C100.189 26.18 100.036 25.5667 99.7292 25.06C99.4359 24.54 99.0492 24.1467 98.5692 23.88C98.0892 23.6 97.5692 23.46 97.0092 23.46C96.4492 23.46 95.9226 23.6 95.4292 23.88C94.9492 24.1467 94.5559 24.54 94.2492 25.06C93.9559 25.5667 93.8092 26.18 93.8092 26.9C93.8092 27.62 93.9559 28.24 94.2492 28.76C94.5559 29.2667 94.9559 29.66 95.4492 29.94C95.9426 30.2067 96.4626 30.34 97.0092 30.34ZM108.919 36.64C108.025 36.64 107.252 36.4933 106.599 36.2C105.959 35.92 105.439 35.5533 105.039 35.1C104.639 34.66 104.352 34.2067 104.179 33.74L106.179 32.9C106.392 33.4333 106.732 33.8667 107.199 34.2C107.679 34.5467 108.252 34.72 108.919 34.72C109.865 34.72 110.605 34.44 111.139 33.88C111.672 33.32 111.939 32.5267 111.939 31.5V30.52H111.819C111.499 30.9867 111.059 31.3667 110.499 31.66C109.939 31.9533 109.292 32.1 108.559 32.1C107.692 32.1 106.892 31.88 106.159 31.44C105.439 31 104.859 30.3867 104.419 29.6C103.992 28.8 103.779 27.8667 103.779 26.8C103.779 25.72 103.992 24.7867 104.419 24C104.859 23.2 105.439 22.58 106.159 22.14C106.892 21.7 107.692 21.48 108.559 21.48C109.292 21.48 109.939 21.6267 110.499 21.92C111.059 22.2 111.499 22.5867 111.819 23.08H111.939V21.8H113.999V31.46C113.999 32.5667 113.779 33.5067 113.339 34.28C112.912 35.0533 112.319 35.64 111.559 36.04C110.799 36.44 109.919 36.64 108.919 36.64ZM108.939 30.14C109.472 30.14 109.965 30.0133 110.419 29.76C110.885 29.4933 111.252 29.1133 111.519 28.62C111.799 28.1133 111.939 27.5067 111.939 26.8C111.939 26.0533 111.799 25.4333 111.519 24.94C111.252 24.4467 110.885 24.0733 110.419 23.82C109.965 23.5667 109.472 23.44 108.939 23.44C108.405 23.44 107.905 23.5667 107.439 23.82C106.985 24.0733 106.619 24.4533 106.339 24.96C106.059 25.4533 105.919 26.0667 105.919 26.8C105.919 27.52 106.059 28.1333 106.339 28.64C106.619 29.1333 106.985 29.5067 107.439 29.76C107.905 30.0133 108.405 30.14 108.939 30.14ZM116.546 32V17.68H118.706V32H116.546ZM125.815 32.32C124.815 32.32 123.921 32.0867 123.135 31.62C122.348 31.1533 121.728 30.5133 121.275 29.7C120.835 28.8867 120.615 27.96 120.615 26.92C120.615 25.9467 120.828 25.0467 121.255 24.22C121.681 23.3933 122.275 22.7333 123.035 22.24C123.808 21.7333 124.695 21.48 125.695 21.48C126.748 21.48 127.641 21.7067 128.375 22.16C129.121 22.6133 129.688 23.2333 130.075 24.02C130.461 24.8067 130.655 25.6933 130.655 26.68C130.655 26.8267 130.648 26.96 130.635 27.08C130.635 27.2 130.628 27.2933 130.615 27.36H122.735C122.788 27.92 122.928 28.4067 123.155 28.82C123.448 29.34 123.835 29.7333 124.315 30C124.795 30.2667 125.315 30.4 125.875 30.4C126.555 30.4 127.121 30.2467 127.575 29.94C128.041 29.62 128.408 29.2267 128.675 28.76L130.455 29.62C130.015 30.42 129.415 31.0733 128.655 31.58C127.895 32.0733 126.948 32.32 125.815 32.32ZM122.855 25.74H128.515C128.501 25.4867 128.435 25.22 128.315 24.94C128.195 24.6467 128.021 24.38 127.795 24.14C127.568 23.9 127.281 23.7067 126.935 23.56C126.588 23.4 126.181 23.32 125.715 23.32C125.128 23.32 124.608 23.4733 124.155 23.78C123.701 24.0733 123.348 24.4867 123.095 25.02C122.988 25.2467 122.908 25.4867 122.855 25.74Z" fill="white"/>
<path d="M137.6 32.02C137.6 31.54 137.667 31.0067 137.8 30.42C137.933 29.8333 138.147 29.1867 138.44 28.48L139.88 29.04C139.667 29.6 139.507 30.1133 139.4 30.58C139.293 31.0467 139.24 31.48 139.24 31.88C139.24 32.8533 139.607 33.6133 140.34 34.16C141.087 34.72 142.06 35 143.26 35C144.553 35 145.553 34.7467 146.26 34.24C146.967 33.7467 147.447 32.9867 147.7 31.96C147.953 30.92 148.047 29.5933 147.98 27.98L147.6 17.72H149.26L149.6 28.4C149.64 29.52 149.567 30.58 149.38 31.58C149.207 32.5667 148.88 33.44 148.4 34.2C147.933 34.96 147.273 35.5533 146.42 35.98C145.58 36.42 144.507 36.64 143.2 36.64C142.493 36.64 141.807 36.5467 141.14 36.36C140.473 36.1733 139.873 35.8933 139.34 35.52C138.807 35.1467 138.38 34.6667 138.06 34.08C137.753 33.5067 137.6 32.82 137.6 32.02ZM152.066 36.6L151.706 34.96C152.533 34.8533 153.286 34.6933 153.966 34.48C154.66 34.28 155.253 33.9933 155.746 33.62C156.24 33.2467 156.606 32.74 156.846 32.1H155.566C154.966 32.1 154.406 32.02 153.886 31.86C153.38 31.6867 152.966 31.4133 152.646 31.04C152.34 30.6667 152.186 30.18 152.186 29.58C152.186 28.8467 152.333 28.1533 152.626 27.5C152.92 26.8333 153.32 26.2933 153.826 25.88C154.333 25.4667 154.906 25.26 155.546 25.26C156.466 25.26 157.226 25.6667 157.826 26.48C158.44 27.28 158.746 28.5133 158.746 30.18C158.746 30.2733 158.746 30.3667 158.746 30.46H160.546C160.826 30.46 161.026 30.54 161.146 30.7C161.28 30.8467 161.346 31.0267 161.346 31.24C161.346 31.4533 161.253 31.6533 161.066 31.84C160.88 32.0133 160.64 32.1 160.346 32.1H158.506C157.826 34.6867 155.68 36.1867 152.066 36.6ZM156.326 30.46H157.166C157.18 30.3267 157.186 30.1933 157.186 30.06C157.186 29.1533 157.02 28.4 156.686 27.8C156.353 27.2 155.92 26.9 155.386 26.9C155.106 26.9 154.84 27.0067 154.586 27.22C154.346 27.4333 154.153 27.72 154.006 28.08C153.86 28.44 153.786 28.8333 153.786 29.26C153.786 29.7267 153.993 30.0467 154.406 30.22C154.833 30.38 155.473 30.46 156.326 30.46ZM160.34 32.1L160.54 30.46C161.313 30.46 161.92 30.4333 162.36 30.38C162.813 30.3133 163.133 30.16 163.32 29.92C163.507 29.68 163.6 29.2867 163.6 28.74C163.6 28.2467 163.48 27.6133 163.24 26.84C163.013 26.0667 162.753 25.3 162.46 24.54L164.08 23.94C164.253 24.38 164.413 24.8733 164.56 25.42C164.72 25.9533 164.853 26.4867 164.96 27.02C165.067 27.5533 165.12 28.02 165.12 28.42C165.12 29.7667 164.747 30.72 164 31.28C163.253 31.8267 162.033 32.1 160.34 32.1ZM161.24 35.88C160.96 35.88 160.72 35.78 160.52 35.58C160.333 35.3933 160.24 35.1667 160.24 34.9C160.24 34.6333 160.333 34.4 160.52 34.2C160.72 34 160.96 33.9 161.24 33.9C161.507 33.9 161.733 34 161.92 34.2C162.12 34.4 162.22 34.6333 162.22 34.9C162.22 35.1667 162.12 35.3933 161.92 35.58C161.733 35.78 161.507 35.88 161.24 35.88ZM163.96 35.88C163.68 35.88 163.44 35.78 163.24 35.58C163.053 35.3933 162.96 35.1667 162.96 34.9C162.96 34.6333 163.053 34.4 163.24 34.2C163.44 34 163.68 33.9 163.96 33.9C164.227 33.9 164.453 34 164.64 34.2C164.84 34.4 164.94 34.6333 164.94 34.9C164.94 35.1667 164.84 35.3933 164.64 35.58C164.453 35.78 164.227 35.88 163.96 35.88ZM162.6 38.08C162.32 38.08 162.08 37.98 161.88 37.78C161.693 37.5933 161.6 37.3667 161.6 37.1C161.6 36.8333 161.693 36.6 161.88 36.4C162.08 36.2 162.32 36.1 162.6 36.1C162.867 36.1 163.093 36.2 163.28 36.4C163.48 36.6 163.58 36.8333 163.58 37.1C163.58 37.3667 163.48 37.5933 163.28 37.78C163.093 37.98 162.867 38.08 162.6 38.08ZM178.784 32.42C176.411 32.42 174.618 32.1133 173.404 31.5C172.191 30.8733 171.584 29.8267 171.584 28.36C171.584 27.8667 171.644 27.3467 171.764 26.8C171.884 26.24 172.011 25.7133 172.144 25.22L173.644 25.6C173.564 25.8933 173.471 26.2667 173.364 26.72C173.271 27.1733 173.224 27.5667 173.224 27.9C173.224 28.5933 173.398 29.1533 173.744 29.58C174.104 29.9933 174.724 30.3 175.604 30.5C176.484 30.6867 177.718 30.78 179.304 30.78C180.771 30.78 182.084 30.74 183.244 30.66C184.404 30.5667 185.344 30.46 186.064 30.34C185.744 30.0733 185.431 29.7133 185.124 29.26C184.818 28.7933 184.664 28.2267 184.664 27.56C184.664 26.84 184.824 26.1933 185.144 25.62C185.478 25.0333 185.911 24.5667 186.444 24.22C186.978 23.8733 187.551 23.7 188.164 23.7C188.818 23.7 189.391 23.8867 189.884 24.26C190.378 24.62 190.758 25.0867 191.024 25.66C191.304 26.2333 191.444 26.8133 191.444 27.4C191.444 28.0267 191.318 28.5867 191.064 29.08C190.811 29.56 190.464 29.98 190.024 30.34C190.571 30.38 191.124 30.4133 191.684 30.44C192.244 30.4533 192.731 30.46 193.144 30.46C193.424 30.46 193.624 30.54 193.744 30.7C193.878 30.8467 193.944 31.0267 193.944 31.24C193.944 31.4533 193.851 31.6533 193.664 31.84C193.478 32.0133 193.238 32.1 192.944 32.1C191.224 32.1 189.611 31.88 188.104 31.44C187.891 31.52 187.664 31.5933 187.424 31.66C187.024 31.78 186.384 31.9 185.504 32.02C184.638 32.14 183.618 32.2333 182.444 32.3C181.284 32.38 180.064 32.42 178.784 32.42ZM186.304 27.6C186.304 28.1333 186.471 28.5867 186.804 28.96C187.151 29.32 187.531 29.6133 187.944 29.84C188.464 29.6 188.904 29.2933 189.264 28.92C189.624 28.5333 189.804 28.0667 189.804 27.52C189.804 27.2267 189.731 26.9133 189.584 26.58C189.438 26.2333 189.231 25.94 188.964 25.7C188.711 25.46 188.424 25.34 188.104 25.34C187.784 25.34 187.484 25.4533 187.204 25.68C186.938 25.9067 186.718 26.1933 186.544 26.54C186.384 26.8867 186.304 27.24 186.304 27.6ZM187.984 21.64C187.704 21.64 187.464 21.5467 187.264 21.36C187.078 21.16 186.984 20.9267 186.984 20.66C186.984 20.3933 187.078 20.16 187.264 19.96C187.464 19.76 187.704 19.66 187.984 19.66C188.251 19.66 188.478 19.76 188.664 19.96C188.864 20.16 188.964 20.3933 188.964 20.66C188.964 20.9267 188.864 21.16 188.664 21.36C188.478 21.5467 188.251 21.64 187.984 21.64ZM192.938 32.1L193.138 30.46C193.804 30.46 194.324 30.4133 194.698 30.32C195.071 30.2133 195.351 30.02 195.538 29.74C195.738 29.4467 195.898 29.0267 196.018 28.48C196.138 27.9333 196.284 27.22 196.458 26.34L198.018 26.64C197.938 27 197.844 27.4133 197.738 27.88C197.644 28.3467 197.598 28.74 197.598 29.06C197.598 29.26 197.611 29.4467 197.638 29.62C197.664 29.7933 197.764 29.94 197.938 30.06C198.111 30.18 198.404 30.28 198.817 30.36C199.231 30.4267 199.824 30.46 200.598 30.46C200.878 30.46 201.078 30.54 201.198 30.7C201.331 30.8467 201.398 31.0267 201.398 31.24C201.398 31.4533 201.304 31.6533 201.118 31.84C200.931 32.0133 200.691 32.1 200.398 32.1C199.531 32.1 198.851 32.0533 198.358 31.96C197.878 31.8533 197.518 31.7067 197.278 31.52C197.051 31.32 196.884 31.0733 196.778 30.78C196.391 31.3267 195.911 31.6867 195.338 31.86C194.778 32.02 193.978 32.1 192.938 32.1ZM197.978 35.88C197.698 35.88 197.458 35.78 197.258 35.58C197.071 35.3933 196.978 35.1667 196.978 34.9C196.978 34.6333 197.071 34.4 197.258 34.2C197.458 34 197.698 33.9 197.978 33.9C198.244 33.9 198.471 34 198.658 34.2C198.858 34.4 198.958 34.6333 198.958 34.9C198.958 35.1667 198.858 35.3933 198.658 35.58C198.471 35.78 198.244 35.88 197.978 35.88ZM195.238 35.88C194.958 35.88 194.718 35.78 194.518 35.58C194.331 35.3933 194.238 35.1667 194.238 34.9C194.238 34.6333 194.331 34.4 194.518 34.2C194.718 34 194.958 33.9 195.238 33.9C195.504 33.9 195.731 34 195.918 34.2C196.118 34.4 196.218 34.6333 196.218 34.9C196.218 35.1667 196.118 35.3933 195.918 35.58C195.731 35.78 195.504 35.88 195.238 35.88ZM200.398 32.1L200.598 30.46H202.478C203.252 30.46 203.872 30.42 204.338 30.34C204.805 30.2467 205.145 30.1333 205.358 30C205.585 29.8533 205.732 29.7 205.798 29.54C205.878 29.3667 205.918 29.1933 205.918 29.02C205.918 28.7133 205.798 28.3333 205.558 27.88C205.332 27.4267 204.858 26.84 204.138 26.12C203.645 25.6133 203.152 25.1667 202.658 24.78C202.165 24.3933 201.758 24.0667 201.438 23.8C201.118 23.5333 200.958 23.34 200.958 23.22C200.958 22.9133 200.992 22.6267 201.058 22.36C201.125 22.0933 201.232 21.8867 201.378 21.74C201.912 21.1667 202.745 20.5933 203.878 20.02C205.025 19.4467 206.452 18.7267 208.158 17.86L208.838 19.34C207.625 19.9267 206.632 20.4133 205.858 20.8C205.098 21.1733 204.465 21.5067 203.958 21.8C203.465 22.08 203.005 22.3667 202.578 22.66C204.138 23.9267 205.332 25.0667 206.158 26.08C206.998 27.08 207.418 28.0933 207.418 29.12C207.418 29.4133 207.365 29.7333 207.258 30.08C207.152 30.4267 206.925 30.7533 206.578 31.06C206.232 31.3667 205.712 31.62 205.018 31.82C204.325 32.0067 203.392 32.1 202.218 32.1H200.398ZM223.029 32.1C222.162 32.1 221.415 31.9533 220.789 31.66C220.175 31.3667 219.742 30.8267 219.489 30.04C218.769 30.2133 218.075 30.2867 217.409 30.26C216.755 30.22 216.162 30.0933 215.629 29.88C215.095 29.6533 214.675 29.3467 214.369 28.96C214.062 28.56 213.909 28.0867 213.909 27.54C213.909 26.82 214.135 26.1667 214.589 25.58C215.042 24.98 215.655 24.4733 216.429 24.06C217.202 23.6467 218.055 23.36 218.989 23.2L218.929 21.68H220.549L220.869 28.28C220.895 28.9067 221.002 29.38 221.189 29.7C221.389 30.0067 221.655 30.2133 221.989 30.32C222.335 30.4133 222.749 30.46 223.229 30.46C223.509 30.46 223.709 30.54 223.829 30.7C223.962 30.8467 224.029 31.0267 224.029 31.24C224.029 31.4533 223.935 31.6533 223.749 31.84C223.562 32.0133 223.322 32.1 223.029 32.1ZM215.489 27.28C215.489 27.5867 215.609 27.84 215.849 28.04C216.102 28.24 216.422 28.3867 216.809 28.48C217.195 28.5733 217.602 28.62 218.029 28.62C218.469 28.62 218.875 28.5867 219.249 28.52L219.069 24.86C218.309 24.94 217.662 25.1133 217.129 25.38C216.595 25.6333 216.189 25.9333 215.909 26.28C215.629 26.6133 215.489 26.9467 215.489 27.28ZM223.035 32.1L223.235 30.46C223.875 30.46 224.388 30.42 224.775 30.34C225.175 30.26 225.462 30.1 225.635 29.86C225.808 29.6067 225.895 29.2333 225.895 28.74C225.895 28.2467 225.775 27.6133 225.535 26.84C225.308 26.0667 225.048 25.3 224.755 24.54L226.375 23.94C226.548 24.38 226.708 24.8733 226.855 25.42C227.015 25.9533 227.148 26.4867 227.255 27.02C227.362 27.5533 227.415 28.02 227.415 28.42C227.415 29.7667 227.055 30.72 226.335 31.28C225.628 31.8267 224.528 32.1 223.035 32.1ZM225.175 35.82C224.895 35.82 224.655 35.72 224.455 35.52C224.268 35.3333 224.175 35.1067 224.175 34.84C224.175 34.5733 224.268 34.34 224.455 34.14C224.655 33.94 224.895 33.84 225.175 33.84C225.442 33.84 225.668 33.94 225.855 34.14C226.055 34.34 226.155 34.5733 226.155 34.84C226.155 35.1067 226.055 35.3333 225.855 35.52C225.668 35.72 225.442 35.82 225.175 35.82ZM233.674 32.02C233.674 31.54 233.741 31.0067 233.874 30.42C234.008 29.8333 234.221 29.1867 234.514 28.48L235.954 29.04C235.741 29.6 235.581 30.1133 235.474 30.58C235.368 31.0467 235.314 31.48 235.314 31.88C235.314 32.5733 235.494 33.1467 235.854 33.6C236.214 34.0533 236.708 34.3933 237.334 34.62C237.961 34.8467 238.668 34.96 239.454 34.96C240.348 34.96 241.094 34.84 241.694 34.6C242.308 34.36 242.794 34.04 243.154 33.64C243.514 33.2533 243.768 32.82 243.914 32.34C244.074 31.86 244.154 31.3867 244.154 30.92C244.154 30.4133 244.054 29.8 243.854 29.08C243.668 28.36 243.314 27.4667 242.794 26.4L244.294 25.64C244.681 26.4133 245.021 27.2267 245.314 28.08C245.621 28.9333 245.774 29.8067 245.774 30.7C245.774 31.34 245.674 32.0067 245.474 32.7C245.274 33.3933 244.934 34.0333 244.454 34.62C243.974 35.2067 243.321 35.68 242.494 36.04C241.681 36.4133 240.661 36.6 239.434 36.6C238.394 36.6 237.434 36.44 236.554 36.12C235.688 35.8 234.988 35.3 234.454 34.62C233.934 33.94 233.674 33.0733 233.674 32.02ZM239.714 24.04C239.434 24.04 239.194 23.9467 238.994 23.76C238.808 23.56 238.714 23.3267 238.714 23.06C238.714 22.7933 238.808 22.56 238.994 22.36C239.194 22.16 239.434 22.06 239.714 22.06C239.981 22.06 240.208 22.16 240.394 22.36C240.594 22.56 240.694 22.7933 240.694 23.06C240.694 23.3267 240.594 23.56 240.394 23.76C240.208 23.9467 239.981 24.04 239.714 24.04ZM247.466 31.1L248.266 29.72C248.532 29.9067 248.906 30.08 249.386 30.24C249.866 30.3867 250.426 30.46 251.066 30.46C252.052 30.46 252.752 30.3133 253.166 30.02C253.579 29.7133 253.786 29.2933 253.786 28.76C253.786 28.4933 253.726 28.1667 253.606 27.78C253.499 27.38 253.259 26.8467 252.886 26.18C252.512 25.5 251.939 24.6133 251.166 23.52L252.546 22.62C253.599 24.0867 254.339 25.3333 254.766 26.36C255.192 27.3867 255.406 28.22 255.406 28.86C255.406 29.4067 255.272 29.9267 255.006 30.42C254.739 30.9133 254.292 31.32 253.666 31.64C253.039 31.96 252.172 32.12 251.066 32.12C250.332 32.12 249.652 32.0333 249.026 31.86C248.399 31.6733 247.879 31.42 247.466 31.1ZM257.457 36.6L257.097 34.96C257.95 34.8533 258.724 34.6933 259.417 34.48C260.11 34.2667 260.704 33.96 261.197 33.56C261.69 33.16 262.057 32.6267 262.297 31.96C262.057 32.0267 261.804 32.0733 261.537 32.1C261.27 32.14 261.01 32.16 260.757 32.16C259.73 32.16 258.944 31.9533 258.397 31.54C257.85 31.1267 257.577 30.4867 257.577 29.62C257.577 29.1133 257.657 28.6067 257.817 28.1C257.977 27.58 258.204 27.1067 258.497 26.68C258.79 26.2533 259.144 25.9133 259.557 25.66C259.97 25.3933 260.43 25.26 260.937 25.26C261.657 25.26 262.25 25.5 262.717 25.98C263.197 26.4467 263.55 27.0533 263.777 27.8C264.017 28.5467 264.137 29.34 264.137 30.18C264.137 32.0467 263.57 33.52 262.437 34.6C261.317 35.68 259.657 36.3467 257.457 36.6ZM259.157 29.22C259.157 29.6333 259.29 29.9667 259.557 30.22C259.824 30.46 260.284 30.58 260.937 30.58C261.51 30.58 262.057 30.5 262.577 30.34C262.577 30.26 262.577 30.1667 262.577 30.06C262.577 29.5133 262.504 29 262.357 28.52C262.21 28.0267 262.004 27.6333 261.737 27.34C261.47 27.0467 261.15 26.9 260.777 26.9C260.457 26.9 260.177 27.02 259.937 27.26C259.697 27.4867 259.504 27.78 259.357 28.14C259.224 28.5 259.157 28.86 259.157 29.22ZM265.322 36.64L264.742 35.12C266.036 34.6933 267.042 34.1867 267.762 33.6C268.496 33.0133 269.009 32.4 269.302 31.76C269.609 31.1067 269.762 30.4733 269.762 29.86C269.762 29.2067 269.616 28.5467 269.322 27.88C269.042 27.2 268.729 26.56 268.382 25.96L269.842 25.22C270.216 25.9267 270.529 26.6067 270.782 27.26C271.049 27.9133 271.256 28.4867 271.402 28.98C271.589 29.5533 271.829 29.9467 272.122 30.16C272.429 30.36 272.842 30.46 273.362 30.46C273.642 30.46 273.842 30.54 273.962 30.7C274.096 30.8467 274.162 31.0267 274.162 31.24C274.162 31.4533 274.069 31.6533 273.882 31.84C273.696 32.0133 273.456 32.1 273.162 32.1C272.656 32.1 272.229 32.02 271.882 31.86C271.549 31.7 271.276 31.4867 271.062 31.22C270.929 31.9667 270.649 32.6467 270.222 33.26C269.796 33.8733 269.296 34.4067 268.722 34.86C268.149 35.3267 267.562 35.7067 266.962 36C266.362 36.2933 265.816 36.5067 265.322 36.64ZM268.502 22.92C268.222 22.92 267.982 22.8267 267.782 22.64C267.596 22.44 267.502 22.2067 267.502 21.94C267.502 21.6733 267.596 21.44 267.782 21.24C267.982 21.04 268.222 20.94 268.502 20.94C268.769 20.94 268.996 21.04 269.182 21.24C269.382 21.44 269.482 21.6733 269.482 21.94C269.482 22.2067 269.382 22.44 269.182 22.64C268.996 22.8267 268.769 22.92 268.502 22.92ZM273.172 32.1L273.372 30.46C273.812 30.46 274.312 30.46 274.872 30.46C275.445 30.4467 275.999 30.42 276.532 30.38C277.065 30.3267 277.485 30.2467 277.792 30.14C278.219 29.9933 278.559 29.8067 278.812 29.58C279.079 29.34 279.279 29.0333 279.412 28.66C279.172 28.74 278.912 28.8 278.632 28.84C278.365 28.8667 278.099 28.88 277.832 28.88C276.805 28.88 276.019 28.64 275.472 28.16C274.925 27.68 274.652 27.0733 274.652 26.34C274.652 25.8333 274.732 25.3267 274.892 24.82C275.052 24.3 275.279 23.8267 275.572 23.4C275.865 22.9733 276.219 22.6333 276.632 22.38C277.045 22.1133 277.505 21.98 278.012 21.98C278.732 21.98 279.325 22.22 279.792 22.7C280.272 23.1667 280.625 23.7733 280.852 24.52C281.092 25.2667 281.212 26.06 281.212 26.9C281.212 27.9 281.039 28.76 280.692 29.48C280.359 30.1867 279.799 30.7733 279.012 31.24C278.599 31.48 278.079 31.6667 277.452 31.8C276.839 31.92 276.165 32 275.432 32.04C274.699 32.08 273.945 32.1 273.172 32.1ZM276.232 25.94C276.232 26.3533 276.365 26.6867 276.632 26.94C276.899 27.18 277.359 27.3 278.012 27.3C278.585 27.3 279.132 27.22 279.652 27.06C279.652 26.98 279.652 26.8867 279.652 26.78C279.652 26.2333 279.579 25.72 279.432 25.24C279.285 24.7467 279.079 24.3533 278.812 24.06C278.545 23.7667 278.225 23.62 277.852 23.62C277.532 23.62 277.252 23.74 277.012 23.98C276.772 24.2067 276.579 24.5 276.432 24.86C276.299 25.22 276.232 25.58 276.232 25.94ZM277.632 19.92C277.352 19.92 277.112 19.8267 276.912 19.64C276.725 19.44 276.632 19.2067 276.632 18.94C276.632 18.6733 276.725 18.44 276.912 18.24C277.112 18.04 277.352 17.94 277.632 17.94C277.899 17.94 278.125 18.04 278.312 18.24C278.512 18.44 278.612 18.6733 278.612 18.94C278.612 19.2067 278.512 19.44 278.312 19.64C278.125 19.8267 277.899 19.92 277.632 19.92ZM283.957 32L283.557 17.72H285.177L285.577 32H283.957Z" fill="white"/>
</svg>
