<svg width="319" height="50" viewBox="0 0 319 50" fill="none" xmlns="http://www.w3.org/2000/svg">
<rect x="0.5" y="0.5" width="318" height="49" rx="24.5" fill="#1F1F1F"/>
<path d="M51 22H21V17C21 14.2857 23.2018 12 25.8165 12H46.1835C48.7982 12 51 14.2857 51 17V22Z" fill="#34A853"/>
<path d="M51 26.0537H21V21.0537C21 18.3394 23.2018 16.0537 25.8165 16.0537H46.1835C48.7982 16.0537 51 18.3394 51 21.0537V26.0537Z" fill="#FBBC04"/>
<path d="M51 30.2468H21V25.2468C21 22.5325 23.2018 20.2468 25.8165 20.2468H46.1835C48.7982 20.2468 51 22.5325 51 25.2468V30.2468Z" fill="#EA4335"/>
<path d="M21 23.2752L40.0411 27.6789C42.2329 28.2294 44.6986 27.6789 46.4795 26.3028L51 23V33.3211C51 35.9358 48.8082 38 46.2055 38H25.7945C23.1918 38 21 35.9358 21 33.3211V23.2752Z" fill="url(#paint0_linear_1819_24462)"/>
<path d="M71.4 32.32C70.3733 32.32 69.4067 32.1333 68.5 31.76C67.6067 31.3867 66.8133 30.8667 66.12 30.2C65.4267 29.52 64.88 28.7267 64.48 27.82C64.0933 26.9 63.9 25.9067 63.9 24.84C63.9 23.7733 64.0933 22.7867 64.48 21.88C64.88 20.96 65.42 20.1667 66.1 19.5C66.7933 18.82 67.5933 18.2933 68.5 17.92C69.4067 17.5467 70.3733 17.36 71.4 17.36C72.4933 17.36 73.5 17.5533 74.42 17.94C75.3533 18.3267 76.1333 18.8667 76.76 19.56L75.24 21.06C74.7733 20.54 74.2133 20.14 73.56 19.86C72.92 19.58 72.2 19.44 71.4 19.44C70.4533 19.44 69.58 19.6667 68.78 20.12C67.98 20.56 67.3333 21.1867 66.84 22C66.36 22.8 66.12 23.7467 66.12 24.84C66.12 25.9333 66.3667 26.8867 66.86 27.7C67.3533 28.5 68 29.1267 68.8 29.58C69.6 30.02 70.4733 30.24 71.42 30.24C72.2867 30.24 73.0733 30.08 73.78 29.76C74.4867 29.4267 75.0533 28.96 75.48 28.36C75.92 27.76 76.1867 27.04 76.28 26.2H71.38V24.26H78.34C78.42 24.62 78.46 25 78.46 25.4V25.42C78.46 26.8067 78.1533 28.02 77.54 29.06C76.94 30.0867 76.1067 30.8867 75.04 31.46C73.9733 32.0333 72.76 32.32 71.4 32.32ZM84.8998 32.32C83.8465 32.32 82.9198 32.08 82.1198 31.6C81.3198 31.12 80.6932 30.4733 80.2398 29.66C79.7865 28.8467 79.5598 27.9267 79.5598 26.9C79.5598 25.8867 79.7865 24.9733 80.2398 24.16C80.6932 23.3333 81.3198 22.68 82.1198 22.2C82.9198 21.72 83.8465 21.48 84.8998 21.48C85.9398 21.48 86.8598 21.72 87.6598 22.2C88.4598 22.68 89.0865 23.3333 89.5398 24.16C89.9932 24.9733 90.2198 25.8867 90.2198 26.9C90.2198 27.9267 89.9932 28.8467 89.5398 29.66C89.0865 30.4733 88.4598 31.12 87.6598 31.6C86.8598 32.08 85.9398 32.32 84.8998 32.32ZM84.8998 30.34C85.4598 30.34 85.9798 30.2067 86.4598 29.94C86.9398 29.66 87.3265 29.2667 87.6198 28.76C87.9265 28.24 88.0798 27.62 88.0798 26.9C88.0798 26.18 87.9265 25.5667 87.6198 25.06C87.3265 24.54 86.9398 24.1467 86.4598 23.88C85.9798 23.6 85.4598 23.46 84.8998 23.46C84.3398 23.46 83.8132 23.6 83.3198 23.88C82.8398 24.1467 82.4465 24.54 82.1398 25.06C81.8465 25.5667 81.6998 26.18 81.6998 26.9C81.6998 27.62 81.8465 28.24 82.1398 28.76C82.4465 29.2667 82.8398 29.66 83.3198 29.94C83.8132 30.2067 84.3398 30.34 84.8998 30.34ZM97.0092 32.32C95.9559 32.32 95.0292 32.08 94.2292 31.6C93.4292 31.12 92.8026 30.4733 92.3492 29.66C91.8959 28.8467 91.6692 27.9267 91.6692 26.9C91.6692 25.8867 91.8959 24.9733 92.3492 24.16C92.8026 23.3333 93.4292 22.68 94.2292 22.2C95.0292 21.72 95.9559 21.48 97.0092 21.48C98.0492 21.48 98.9692 21.72 99.7692 22.2C100.569 22.68 101.196 23.3333 101.649 24.16C102.103 24.9733 102.329 25.8867 102.329 26.9C102.329 27.9267 102.103 28.8467 101.649 29.66C101.196 30.4733 100.569 31.12 99.7692 31.6C98.9692 32.08 98.0492 32.32 97.0092 32.32ZM97.0092 30.34C97.5692 30.34 98.0892 30.2067 98.5692 29.94C99.0492 29.66 99.4359 29.2667 99.7292 28.76C100.036 28.24 100.189 27.62 100.189 26.9C100.189 26.18 100.036 25.5667 99.7292 25.06C99.4359 24.54 99.0492 24.1467 98.5692 23.88C98.0892 23.6 97.5692 23.46 97.0092 23.46C96.4492 23.46 95.9226 23.6 95.4292 23.88C94.9492 24.1467 94.5559 24.54 94.2492 25.06C93.9559 25.5667 93.8092 26.18 93.8092 26.9C93.8092 27.62 93.9559 28.24 94.2492 28.76C94.5559 29.2667 94.9492 29.66 95.4292 29.94C95.9226 30.2067 96.4492 30.34 97.0092 30.34ZM108.919 36.64C108.025 36.64 107.252 36.4933 106.599 36.2C105.959 35.92 105.439 35.5533 105.039 35.1C104.639 34.66 104.352 34.2067 104.179 33.74L106.179 32.9C106.392 33.4333 106.732 33.8667 107.199 34.2C107.679 34.5467 108.252 34.72 108.919 34.72C109.852 34.72 110.585 34.44 111.119 33.88C111.665 33.32 111.939 32.5267 111.939 31.5V30.52H111.819C111.499 31 111.052 31.3867 110.479 31.68C109.919 31.96 109.279 32.1 108.559 32.1C107.692 32.1 106.899 31.88 106.179 31.44C105.459 31 104.879 30.3867 104.439 29.6C103.999 28.8 103.779 27.8667 103.779 26.8C103.779 25.72 103.999 24.7867 104.439 24C104.879 23.2 105.459 22.58 106.179 22.14C106.899 21.7 107.692 21.48 108.559 21.48C109.279 21.48 109.919 21.6267 110.479 21.92C111.052 22.2133 111.499 22.6 111.819 23.08H111.939V21.8H113.999V31.46C113.999 32.5667 113.779 33.5067 113.339 34.28C112.912 35.0533 112.319 35.64 111.559 36.04C110.799 36.44 109.919 36.64 108.919 36.64ZM108.939 30.14C109.472 30.14 109.965 30.0133 110.419 29.76C110.872 29.4933 111.239 29.1133 111.519 28.62C111.799 28.1133 111.939 27.5067 111.939 26.8C111.939 26.0667 111.799 25.4533 111.519 24.96C111.239 24.4533 110.872 24.0733 110.419 23.82C109.965 23.5667 109.472 23.44 108.939 23.44C108.405 23.44 107.905 23.5733 107.439 23.84C106.985 24.0933 106.619 24.4667 106.339 24.96C106.059 25.4533 105.919 26.0667 105.919 26.8C105.919 27.52 106.059 28.1333 106.339 28.64C106.619 29.1333 106.985 29.5067 107.439 29.76C107.905 30.0133 108.405 30.14 108.939 30.14ZM116.546 32V17.68H118.706V32H116.546ZM125.815 32.32C124.815 32.32 123.921 32.0867 123.135 31.62C122.348 31.1533 121.728 30.5133 121.275 29.7C120.835 28.8867 120.615 27.96 120.615 26.92C120.615 25.9467 120.828 25.0467 121.255 24.22C121.681 23.3933 122.275 22.7333 123.035 22.24C123.808 21.7333 124.695 21.48 125.695 21.48C126.748 21.48 127.641 21.7067 128.375 22.16C129.121 22.6133 129.688 23.2333 130.075 24.02C130.461 24.8067 130.655 25.6933 130.655 26.68C130.655 26.8267 130.648 26.96 130.635 27.08C130.635 27.2 130.628 27.2933 130.615 27.36H122.735C122.841 28.3733 123.195 29.1333 123.795 29.64C124.408 30.1467 125.101 30.4 125.875 30.4C126.568 30.4 127.141 30.2467 127.595 29.94C128.048 29.62 128.408 29.2267 128.675 28.76L130.455 29.62C130.015 30.42 129.415 31.0733 128.655 31.58C127.895 32.0733 126.948 32.32 125.815 32.32ZM125.715 23.32C124.995 23.32 124.381 23.54 123.875 23.98C123.368 24.42 123.028 25.0067 122.855 25.74H128.515C128.488 25.3933 128.375 25.0333 128.175 24.66C127.975 24.2867 127.668 23.9733 127.255 23.72C126.855 23.4533 126.341 23.32 125.715 23.32ZM139.446 32L135.606 17.68H138.046L140.326 26.98L140.566 28.22H140.686L140.986 26.98L143.866 17.68H146.066L148.826 26.98L149.126 28.2H149.246L149.486 26.98L151.766 17.68H154.186L150.406 32H148.086L145.346 22.5L145.026 21.16H144.906L144.566 22.5L141.706 32H139.446ZM158.202 32.32C157.469 32.32 156.816 32.18 156.242 31.9C155.669 31.6067 155.222 31.2 154.902 30.68C154.582 30.16 154.422 29.5667 154.422 28.9C154.422 28.18 154.609 27.5667 154.982 27.06C155.369 26.54 155.882 26.1467 156.522 25.88C157.162 25.6133 157.869 25.48 158.642 25.48C159.282 25.48 159.842 25.54 160.322 25.66C160.816 25.78 161.189 25.9067 161.442 26.04V25.5C161.442 24.8333 161.202 24.3 160.722 23.9C160.242 23.5 159.622 23.3 158.862 23.3C158.342 23.3 157.849 23.42 157.382 23.66C156.916 23.8867 156.542 24.2 156.262 24.6L154.782 23.46C155.222 22.8467 155.802 22.3667 156.522 22.02C157.256 21.66 158.056 21.48 158.922 21.48C160.402 21.48 161.542 21.8467 162.342 22.58C163.142 23.3 163.542 24.3133 163.542 25.62V32H161.442V30.74H161.322C161.056 31.1533 160.656 31.52 160.122 31.84C159.589 32.16 158.949 32.32 158.202 32.32ZM158.582 30.56C159.142 30.56 159.636 30.4267 160.062 30.16C160.489 29.8933 160.822 29.5467 161.062 29.12C161.316 28.68 161.442 28.2067 161.442 27.7C161.136 27.5267 160.776 27.3867 160.362 27.28C159.949 27.16 159.509 27.1 159.042 27.1C158.162 27.1 157.536 27.28 157.162 27.64C156.789 27.9867 156.602 28.4133 156.602 28.92C156.602 29.4 156.782 29.7933 157.142 30.1C157.502 30.4067 157.982 30.56 158.582 30.56ZM165.94 32V17.68H168.1V32H165.94ZM170.667 32V17.68H172.827V32H170.667ZM179.936 32.32C178.936 32.32 178.042 32.0867 177.256 31.62C176.469 31.1533 175.849 30.5133 175.396 29.7C174.956 28.8867 174.736 27.96 174.736 26.92C174.736 25.9467 174.949 25.0467 175.376 24.22C175.802 23.3933 176.396 22.7333 177.156 22.24C177.929 21.7333 178.816 21.48 179.816 21.48C180.869 21.48 181.762 21.7067 182.496 22.16C183.242 22.6133 183.809 23.2333 184.196 24.02C184.582 24.8067 184.776 25.6933 184.776 26.68C184.776 26.8267 184.769 26.96 184.756 27.08C184.756 27.2 184.749 27.2933 184.736 27.36H176.856C176.962 28.3733 177.316 29.1333 177.916 29.64C178.529 30.1467 179.222 30.4 179.996 30.4C180.689 30.4 181.262 30.2467 181.716 29.94C182.169 29.62 182.529 29.2267 182.796 28.76L184.576 29.62C184.136 30.42 183.536 31.0733 182.776 31.58C182.016 32.0733 181.069 32.32 179.936 32.32ZM179.836 23.32C179.116 23.32 178.502 23.54 177.996 23.98C177.489 24.42 177.149 25.0067 176.976 25.74H182.636C182.609 25.3933 182.496 25.0333 182.296 24.66C182.096 24.2867 181.789 23.9733 181.376 23.72C180.976 23.4533 180.462 23.32 179.836 23.32ZM187.567 29.04V23.68H185.787V21.8H187.567V18.92H189.727V21.8H192.227V23.68H189.727V28.58C189.727 29.0867 189.827 29.4733 190.027 29.74C190.24 30.0067 190.593 30.14 191.087 30.14C191.34 30.14 191.553 30.1067 191.727 30.04C191.913 29.9733 192.1 29.88 192.287 29.76V31.86C192.06 31.9533 191.82 32.0267 191.567 32.08C191.313 32.1333 191.013 32.16 190.667 32.16C189.72 32.16 188.967 31.8867 188.407 31.34C187.847 30.78 187.567 30.0133 187.567 29.04Z" fill="white"/>
<path d="M201.5 20.3C201.1 20.3 200.753 20.16 200.46 19.88C200.18 19.5867 200.04 19.24 200.04 18.84C200.04 18.44 200.18 18.1 200.46 17.82C200.753 17.54 201.1 17.4 201.5 17.4C201.9 17.4 202.24 17.54 202.52 17.82C202.813 18.1 202.96 18.44 202.96 18.84C202.96 19.24 202.813 19.5867 202.52 19.88C202.24 20.16 201.9 20.3 201.5 20.3ZM200.42 32V21.8H202.58V32H200.42ZM205.26 32V21.8H207.4V30.12H210.76V21.8H212.9V30.12H216.26V21.8H218.4V32H205.26ZM222.184 20.3C221.784 20.3 221.437 20.16 221.144 19.88C220.864 19.5867 220.724 19.24 220.724 18.84C220.724 18.44 220.864 18.1 221.144 17.82C221.437 17.54 221.784 17.4 222.184 17.4C222.584 17.4 222.924 17.54 223.204 17.82C223.497 18.1 223.644 18.44 223.644 18.84C223.644 19.24 223.497 19.5867 223.204 19.88C222.924 20.16 222.584 20.3 222.184 20.3ZM221.104 32V21.8H223.264V32H221.104ZM225.944 32V21.8H228.104V25.9H232.944V21.8H235.104V32H232.944V27.78H228.104V32H225.944ZM242.186 32.32C241.186 32.32 240.292 32.0867 239.506 31.62C238.719 31.1533 238.099 30.5133 237.646 29.7C237.206 28.8867 236.986 27.96 236.986 26.92C236.986 25.9467 237.199 25.0467 237.626 24.22C238.052 23.3933 238.646 22.7333 239.406 22.24C240.179 21.7333 241.066 21.48 242.066 21.48C243.119 21.48 244.012 21.7067 244.746 22.16C245.492 22.6133 246.059 23.2333 246.446 24.02C246.832 24.8067 247.026 25.6933 247.026 26.68C247.026 26.8267 247.019 26.96 247.006 27.08C247.006 27.2 246.999 27.2933 246.986 27.36H239.106C239.212 28.3733 239.566 29.1333 240.166 29.64C240.779 30.1467 241.472 30.4 242.246 30.4C242.939 30.4 243.512 30.2467 243.966 29.94C244.419 29.62 244.779 29.2267 245.046 28.76L246.826 29.62C246.386 30.42 245.786 31.0733 245.026 31.58C244.266 32.0733 243.319 32.32 242.186 32.32ZM242.086 23.32C241.366 23.32 240.752 23.54 240.246 23.98C239.739 24.42 239.399 25.0067 239.226 25.74H244.886C244.859 25.3933 244.746 25.0333 244.546 24.66C244.346 24.2867 244.039 23.9733 243.626 23.72C243.226 23.4533 242.712 23.32 242.086 23.32ZM253.698 32V21.8H255.858V26.32H255.978L259.978 21.8H262.458V21.92L258.198 26.58L262.618 31.88V32H260.058L255.978 26.98H255.858V32H253.698ZM260.938 35.04V32H260.258V30.06H262.938V35.04H260.938ZM268.986 32.32C267.932 32.32 267.006 32.08 266.206 31.6C265.406 31.12 264.779 30.4733 264.326 29.66C263.872 28.8467 263.646 27.9267 263.646 26.9C263.646 25.8867 263.872 24.9733 264.326 24.16C264.779 23.3333 265.406 22.68 266.206 22.2C267.006 21.72 267.932 21.48 268.986 21.48C270.026 21.48 270.946 21.72 271.746 22.2C272.546 22.68 273.172 23.3333 273.626 24.16C274.079 24.9733 274.306 25.8867 274.306 26.9C274.306 27.9267 274.079 28.8467 273.626 29.66C273.172 30.4733 272.546 31.12 271.746 31.6C270.946 32.08 270.026 32.32 268.986 32.32ZM268.986 30.34C269.546 30.34 270.066 30.2067 270.546 29.94C271.026 29.66 271.412 29.2667 271.706 28.76C272.012 28.24 272.166 27.62 272.166 26.9C272.166 26.18 272.012 25.5667 271.706 25.06C271.412 24.54 271.026 24.1467 270.546 23.88C270.066 23.6 269.546 23.46 268.986 23.46C268.426 23.46 267.899 23.6 267.406 23.88C266.926 24.1467 266.532 24.54 266.226 25.06C265.932 25.5667 265.786 26.18 265.786 26.9C265.786 27.62 265.932 28.24 266.226 28.76C266.532 29.2667 266.926 29.66 267.406 29.94C267.899 30.2067 268.426 30.34 268.986 30.34ZM281.015 32.32C279.988 32.32 279.082 32.0867 278.295 31.62C277.508 31.1533 276.888 30.5133 276.435 29.7C275.982 28.8733 275.755 27.94 275.755 26.9C275.755 25.86 275.982 24.9333 276.435 24.12C276.888 23.2933 277.508 22.6467 278.295 22.18C279.082 21.7133 279.988 21.48 281.015 21.48C282.148 21.48 283.102 21.7333 283.875 22.24C284.662 22.7467 285.222 23.4333 285.555 24.3L283.595 25.1C283.128 24.0067 282.255 23.46 280.975 23.46C280.415 23.46 279.902 23.6067 279.435 23.9C278.968 24.18 278.595 24.58 278.315 25.1C278.035 25.6067 277.895 26.2067 277.895 26.9C277.895 27.5933 278.035 28.2 278.315 28.72C278.595 29.24 278.968 29.64 279.435 29.92C279.902 30.2 280.415 30.34 280.975 30.34C281.628 30.34 282.182 30.1933 282.635 29.9C283.088 29.5933 283.442 29.18 283.695 28.66L285.615 29.5C285.255 30.3133 284.682 30.9867 283.895 31.52C283.108 32.0533 282.148 32.32 281.015 32.32ZM290.947 35.82C290.907 35.9267 290.86 36.0267 290.807 36.12C290.767 36.2133 290.74 36.28 290.727 36.32H288.427C288.494 36.1733 288.587 35.96 288.707 35.68C288.84 35.4133 288.967 35.1533 289.087 34.9C289.207 34.6467 289.334 34.36 289.467 34.04C289.614 33.72 289.76 33.4067 289.907 33.1L290.667 31.44L286.407 21.8H288.807L291.727 28.76H291.827L294.647 21.8H297.027L291.747 33.96C291.6 34.3067 291.44 34.6667 291.267 35.04C291.107 35.4267 291 35.6867 290.947 35.82Z" fill="white"/>
<rect x="0.5" y="0.5" width="318" height="49" rx="24.5" stroke="#747775"/>
<defs>
<linearGradient id="paint0_linear_1819_24462" x1="34.5703" y1="30.7864" x2="18.7309" y2="48.9133" gradientUnits="userSpaceOnUse">
<stop stop-color="#4285F4"/>
<stop offset="1" stop-color="#1B74E8"/>
</linearGradient>
</defs>
</svg>
