<svg width="355" height="50" viewBox="0 0 355 50" fill="none" xmlns="http://www.w3.org/2000/svg">
<rect x="0.5" y="0.5" width="354" height="49" rx="24.5" fill="#1F1F1F"/>
<path d="M51 22H21V17C21 14.2857 23.2018 12 25.8165 12H46.1835C48.7982 12 51 14.2857 51 17V22Z" fill="#34A853"/>
<path d="M51 26.0537H21V21.0537C21 18.3394 23.2018 16.0537 25.8165 16.0537H46.1835C48.7982 16.0537 51 18.3394 51 21.0537V26.0537Z" fill="#FBBC04"/>
<path d="M51 30.2468H21V25.2468C21 22.5325 23.2018 20.2468 25.8165 20.2468H46.1835C48.7982 20.2468 51 22.5325 51 25.2468V30.2468Z" fill="#EA4335"/>
<path d="M21 23.2752L40.0411 27.6789C42.2329 28.2294 44.6986 27.6789 46.4795 26.3028L51 23V33.3211C51 35.9358 48.8082 38 46.2055 38H25.7945C23.1918 38 21 35.9358 21 33.3211V23.2752Z" fill="url(#paint0_linear_1819_24633)"/>
<path d="M63.74 35.04V29.92H65C65.3067 29.4133 65.5533 28.76 65.74 27.96C65.94 27.1467 66.08 26.2533 66.16 25.28C66.2533 24.3067 66.3 23.3267 66.3 22.34V17.68H75.48V29.92H77.16V35.04H75.02V32H65.88V35.04H63.74ZM67.4 29.92H73.28V19.76H68.44V22.66C68.44 24.1133 68.3467 25.4533 68.16 26.68C67.9867 27.9067 67.7333 28.9467 67.4 29.8V29.92ZM83.7475 32.32C82.6942 32.32 81.7675 32.08 80.9675 31.6C80.1675 31.12 79.5408 30.4733 79.0875 29.66C78.6342 28.8467 78.4075 27.9267 78.4075 26.9C78.4075 25.8867 78.6342 24.9733 79.0875 24.16C79.5408 23.3333 80.1675 22.68 80.9675 22.2C81.7675 21.72 82.6942 21.48 83.7475 21.48C84.7875 21.48 85.7075 21.72 86.5075 22.2C87.3075 22.68 87.9342 23.3333 88.3875 24.16C88.8408 24.9733 89.0675 25.8867 89.0675 26.9C89.0675 27.9267 88.8408 28.8467 88.3875 29.66C87.9342 30.4733 87.3075 31.12 86.5075 31.6C85.7075 32.08 84.7875 32.32 83.7475 32.32ZM83.7475 30.34C84.3075 30.34 84.8275 30.2067 85.3075 29.94C85.7875 29.66 86.1742 29.2667 86.4675 28.76C86.7742 28.24 86.9275 27.62 86.9275 26.9C86.9275 26.18 86.7742 25.5667 86.4675 25.06C86.1742 24.54 85.7875 24.1467 85.3075 23.88C84.8275 23.6 84.3075 23.46 83.7475 23.46C83.1875 23.46 82.6608 23.6 82.1675 23.88C81.6875 24.1467 81.2942 24.54 80.9875 25.06C80.6942 25.5667 80.5475 26.18 80.5475 26.9C80.5475 27.62 80.6942 28.24 80.9875 28.76C81.2942 29.2667 81.6875 29.66 82.1675 29.94C82.6608 30.2067 83.1875 30.34 83.7475 30.34ZM95.8969 32.32C94.8969 32.32 94.0102 32.0933 93.2369 31.64C92.4769 31.1733 91.8769 30.4733 91.4369 29.54C90.9969 28.5933 90.7769 27.4067 90.7769 25.98C90.7769 24.5267 90.9235 23.3267 91.2169 22.38C91.5102 21.42 91.9969 20.6467 92.6769 20.06C93.1035 19.7 93.6302 19.4 94.2569 19.16C94.8969 18.92 95.6902 18.7267 96.6369 18.58C97.1302 18.5 97.4902 18.42 97.7169 18.34C97.9435 18.26 98.0835 18.1667 98.1369 18.06C98.2035 17.9533 98.2369 17.8267 98.2369 17.68H100.197C100.197 18.28 100.104 18.76 99.9169 19.12C99.7435 19.4667 99.4235 19.7333 98.9569 19.92C98.5035 20.1067 97.8569 20.26 97.0169 20.38C96.1369 20.5133 95.4635 20.6733 94.9969 20.86C94.5435 21.0467 94.1702 21.26 93.8769 21.5C93.2235 22.0333 92.8235 22.7933 92.6769 23.78H92.7969C93.1035 23.3133 93.5569 22.9267 94.1569 22.62C94.7702 22.3 95.4769 22.14 96.2769 22.14C97.2235 22.14 98.0569 22.36 98.7769 22.8C99.4969 23.2267 100.057 23.8133 100.457 24.56C100.87 25.3067 101.077 26.1533 101.077 27.1C101.077 28.0867 100.857 28.98 100.417 29.78C99.9902 30.5667 99.3835 31.1867 98.5969 31.64C97.8235 32.0933 96.9235 32.32 95.8969 32.32ZM95.9169 30.38C96.7702 30.38 97.4835 30.0867 98.0569 29.5C98.6302 28.9133 98.9169 28.1 98.9169 27.06C98.9169 26.1133 98.6302 25.3733 98.0569 24.84C97.4835 24.3067 96.7702 24.04 95.9169 24.04C95.0902 24.04 94.3835 24.3067 93.7969 24.84C93.2235 25.3733 92.9369 26.1133 92.9369 27.06C92.9369 28.1 93.2169 28.9133 93.7769 29.5C94.3502 30.0867 95.0635 30.38 95.9169 30.38ZM106.249 32.32C105.516 32.32 104.862 32.18 104.289 31.9C103.716 31.6067 103.269 31.2 102.949 30.68C102.629 30.16 102.469 29.5667 102.469 28.9C102.469 28.18 102.656 27.5667 103.029 27.06C103.416 26.54 103.929 26.1467 104.569 25.88C105.209 25.6133 105.916 25.48 106.689 25.48C107.329 25.48 107.889 25.54 108.369 25.66C108.862 25.78 109.236 25.9067 109.489 26.04V25.5C109.489 24.8333 109.249 24.3 108.769 23.9C108.289 23.5 107.669 23.3 106.909 23.3C106.389 23.3 105.896 23.42 105.429 23.66C104.962 23.8867 104.589 24.2 104.309 24.6L102.829 23.46C103.269 22.8467 103.849 22.3667 104.569 22.02C105.302 21.66 106.102 21.48 106.969 21.48C108.449 21.48 109.589 21.8467 110.389 22.58C111.189 23.3 111.589 24.3133 111.589 25.62V32H109.489V30.74H109.369C109.102 31.1533 108.702 31.52 108.169 31.84C107.636 32.16 106.996 32.32 106.249 32.32ZM106.629 30.56C107.189 30.56 107.682 30.4267 108.109 30.16C108.536 29.8933 108.869 29.5467 109.109 29.12C109.362 28.68 109.489 28.2067 109.489 27.7C109.182 27.5267 108.822 27.3867 108.409 27.28C107.996 27.16 107.556 27.1 107.089 27.1C106.209 27.1 105.582 27.28 105.209 27.64C104.836 27.9867 104.649 28.4133 104.649 28.92C104.649 29.4 104.829 29.7933 105.189 30.1C105.549 30.4067 106.029 30.56 106.629 30.56ZM113.967 32V21.8H119.027C119.627 21.8 120.16 21.92 120.627 22.16C121.107 22.3867 121.48 22.7 121.747 23.1C122.027 23.5 122.167 23.9467 122.167 24.44C122.167 24.9733 122.047 25.4333 121.807 25.82C121.58 26.2067 121.28 26.4933 120.907 26.68V26.8C121.414 27 121.814 27.3 122.107 27.7C122.414 28.1 122.567 28.56 122.567 29.08C122.567 29.68 122.407 30.2 122.087 30.64C121.78 31.08 121.38 31.42 120.887 31.66C120.394 31.8867 119.867 32 119.307 32H113.967ZM116.127 23.56V25.96H118.767C119.127 25.96 119.427 25.8467 119.667 25.62C119.907 25.3933 120.027 25.1067 120.027 24.76C120.027 24.4 119.907 24.1133 119.667 23.9C119.427 23.6733 119.127 23.56 118.767 23.56H116.127ZM116.127 30.2H119.087C119.474 30.2 119.794 30.08 120.047 29.84C120.314 29.5867 120.447 29.2667 120.447 28.88C120.447 28.5067 120.314 28.1933 120.047 27.94C119.794 27.6867 119.474 27.56 119.087 27.56H116.127V30.2ZM124.573 32V21.8H126.733V27.02L126.613 28.94H126.733L131.833 21.8H133.973V32H131.833V26.8L131.953 24.88H131.833L126.733 32H124.573ZM139.106 32V23.68H135.746V21.8H144.606V23.68H141.246V32H139.106ZM148.529 21.8V25.2H150.869C151.563 25.2 152.183 25.3467 152.729 25.64C153.289 25.9333 153.729 26.34 154.049 26.86C154.369 27.3667 154.529 27.9467 154.529 28.6C154.529 29.2533 154.369 29.8333 154.049 30.34C153.729 30.8467 153.289 31.2533 152.729 31.56C152.183 31.8533 151.563 32 150.869 32H146.369V21.8H148.529ZM148.529 30.2H150.689C151.169 30.2 151.569 30.0467 151.889 29.74C152.209 29.4333 152.369 29.0533 152.369 28.6C152.369 28.1467 152.209 27.7667 151.889 27.46C151.569 27.14 151.169 26.98 150.689 26.98H148.529V30.2ZM160.998 32V21.8H166.058C166.658 21.8 167.192 21.92 167.658 22.16C168.138 22.3867 168.512 22.7 168.778 23.1C169.058 23.5 169.198 23.9467 169.198 24.44C169.198 24.9733 169.078 25.4333 168.838 25.82C168.612 26.2067 168.312 26.4933 167.938 26.68V26.8C168.445 27 168.845 27.3 169.138 27.7C169.445 28.1 169.598 28.56 169.598 29.08C169.598 29.68 169.438 30.2 169.118 30.64C168.812 31.08 168.412 31.42 167.918 31.66C167.425 31.8867 166.898 32 166.338 32H160.998ZM163.158 23.56V25.96H165.798C166.158 25.96 166.458 25.8467 166.698 25.62C166.938 25.3933 167.058 25.1067 167.058 24.76C167.058 24.4 166.938 24.1133 166.698 23.9C166.458 23.6733 166.158 23.56 165.798 23.56H163.158ZM163.158 30.2H166.118C166.505 30.2 166.825 30.08 167.078 29.84C167.345 29.5867 167.478 29.2667 167.478 28.88C167.478 28.5067 167.345 28.1933 167.078 27.94C166.825 27.6867 166.505 27.56 166.118 27.56H163.158V30.2Z" fill="white"/>
<path d="M184.4 32.32C183.373 32.32 182.407 32.1333 181.5 31.76C180.607 31.3867 179.813 30.8667 179.12 30.2C178.427 29.52 177.88 28.7267 177.48 27.82C177.093 26.9 176.9 25.9067 176.9 24.84C176.9 23.7733 177.093 22.7867 177.48 21.88C177.88 20.96 178.42 20.1667 179.1 19.5C179.793 18.82 180.593 18.2933 181.5 17.92C182.407 17.5467 183.373 17.36 184.4 17.36C185.493 17.36 186.5 17.5533 187.42 17.94C188.353 18.3267 189.133 18.8667 189.76 19.56L188.24 21.06C187.773 20.54 187.213 20.14 186.56 19.86C185.92 19.58 185.2 19.44 184.4 19.44C183.453 19.44 182.58 19.6667 181.78 20.12C180.98 20.56 180.333 21.1867 179.84 22C179.36 22.8 179.12 23.7467 179.12 24.84C179.12 25.9333 179.367 26.8867 179.86 27.7C180.353 28.5 181 29.1267 181.8 29.58C182.6 30.02 183.473 30.24 184.42 30.24C185.287 30.24 186.073 30.08 186.78 29.76C187.487 29.4267 188.053 28.96 188.48 28.36C188.92 27.76 189.187 27.04 189.28 26.2H184.38V24.26H191.34C191.42 24.62 191.46 25 191.46 25.4V25.42C191.46 26.8067 191.153 28.02 190.54 29.06C189.94 30.0867 189.107 30.8867 188.04 31.46C186.973 32.0333 185.76 32.32 184.4 32.32ZM197.9 32.32C196.847 32.32 195.92 32.08 195.12 31.6C194.32 31.12 193.693 30.4733 193.24 29.66C192.787 28.8467 192.56 27.9267 192.56 26.9C192.56 25.8867 192.787 24.9733 193.24 24.16C193.693 23.3333 194.32 22.68 195.12 22.2C195.92 21.72 196.847 21.48 197.9 21.48C198.94 21.48 199.86 21.72 200.66 22.2C201.46 22.68 202.087 23.3333 202.54 24.16C202.993 24.9733 203.22 25.8867 203.22 26.9C203.22 27.9267 202.993 28.8467 202.54 29.66C202.087 30.4733 201.46 31.12 200.66 31.6C199.86 32.08 198.94 32.32 197.9 32.32ZM197.9 30.34C198.46 30.34 198.98 30.2067 199.46 29.94C199.94 29.66 200.327 29.2667 200.62 28.76C200.927 28.24 201.08 27.62 201.08 26.9C201.08 26.18 200.927 25.5667 200.62 25.06C200.327 24.54 199.94 24.1467 199.46 23.88C198.98 23.6 198.46 23.46 197.9 23.46C197.34 23.46 196.813 23.6 196.32 23.88C195.84 24.1467 195.447 24.54 195.14 25.06C194.847 25.5667 194.7 26.18 194.7 26.9C194.7 27.62 194.847 28.24 195.14 28.76C195.447 29.2667 195.84 29.66 196.32 29.94C196.813 30.2067 197.34 30.34 197.9 30.34ZM210.009 32.32C208.956 32.32 208.029 32.08 207.229 31.6C206.429 31.12 205.803 30.4733 205.349 29.66C204.896 28.8467 204.669 27.9267 204.669 26.9C204.669 25.8867 204.896 24.9733 205.349 24.16C205.803 23.3333 206.429 22.68 207.229 22.2C208.029 21.72 208.956 21.48 210.009 21.48C211.049 21.48 211.969 21.72 212.769 22.2C213.569 22.68 214.196 23.3333 214.649 24.16C215.103 24.9733 215.329 25.8867 215.329 26.9C215.329 27.9267 215.103 28.8467 214.649 29.66C214.196 30.4733 213.569 31.12 212.769 31.6C211.969 32.08 211.049 32.32 210.009 32.32ZM210.009 30.34C210.569 30.34 211.089 30.2067 211.569 29.94C212.049 29.66 212.436 29.2667 212.729 28.76C213.036 28.24 213.189 27.62 213.189 26.9C213.189 26.18 213.036 25.5667 212.729 25.06C212.436 24.54 212.049 24.1467 211.569 23.88C211.089 23.6 210.569 23.46 210.009 23.46C209.449 23.46 208.923 23.6 208.429 23.88C207.949 24.1467 207.556 24.54 207.249 25.06C206.956 25.5667 206.809 26.18 206.809 26.9C206.809 27.62 206.956 28.24 207.249 28.76C207.556 29.2667 207.949 29.66 208.429 29.94C208.923 30.2067 209.449 30.34 210.009 30.34ZM221.919 36.64C221.025 36.64 220.252 36.4933 219.599 36.2C218.959 35.92 218.439 35.5533 218.039 35.1C217.639 34.66 217.352 34.2067 217.179 33.74L219.179 32.9C219.392 33.4333 219.732 33.8667 220.199 34.2C220.679 34.5467 221.252 34.72 221.919 34.72C222.852 34.72 223.585 34.44 224.119 33.88C224.665 33.32 224.939 32.5267 224.939 31.5V30.52H224.819C224.499 31 224.052 31.3867 223.479 31.68C222.919 31.96 222.279 32.1 221.559 32.1C220.692 32.1 219.899 31.88 219.179 31.44C218.459 31 217.879 30.3867 217.439 29.6C216.999 28.8 216.779 27.8667 216.779 26.8C216.779 25.72 216.999 24.7867 217.439 24C217.879 23.2 218.459 22.58 219.179 22.14C219.899 21.7 220.692 21.48 221.559 21.48C222.279 21.48 222.919 21.6267 223.479 21.92C224.052 22.2133 224.499 22.6 224.819 23.08H224.939V21.8H226.999V31.46C226.999 32.5667 226.779 33.5067 226.339 34.28C225.912 35.0533 225.319 35.64 224.559 36.04C223.799 36.44 222.919 36.64 221.919 36.64ZM221.939 30.14C222.472 30.14 222.965 30.0133 223.419 29.76C223.872 29.4933 224.239 29.1133 224.519 28.62C224.799 28.1133 224.939 27.5067 224.939 26.8C224.939 26.0667 224.799 25.4533 224.519 24.96C224.239 24.4533 223.872 24.0733 223.419 23.82C222.965 23.5667 222.472 23.44 221.939 23.44C221.405 23.44 220.905 23.5733 220.439 23.84C219.985 24.0933 219.619 24.4667 219.339 24.96C219.059 25.4533 218.919 26.0667 218.919 26.8C218.919 27.52 219.059 28.1333 219.339 28.64C219.619 29.1333 219.985 29.5067 220.439 29.76C220.905 30.0133 221.405 30.14 221.939 30.14ZM229.546 32V17.68H231.706V32H229.546ZM238.815 32.32C237.815 32.32 236.921 32.0867 236.135 31.62C235.348 31.1533 234.728 30.5133 234.275 29.7C233.835 28.8867 233.615 27.96 233.615 26.92C233.615 25.9467 233.828 25.0467 234.255 24.22C234.681 23.3933 235.275 22.7333 236.035 22.24C236.808 21.7333 237.695 21.48 238.695 21.48C239.748 21.48 240.641 21.7067 241.375 22.16C242.121 22.6133 242.688 23.2333 243.075 24.02C243.461 24.8067 243.655 25.6933 243.655 26.68C243.655 26.8267 243.648 26.96 243.635 27.08C243.635 27.2 243.628 27.2933 243.615 27.36H235.735C235.841 28.3733 236.195 29.1333 236.795 29.64C237.408 30.1467 238.101 30.4 238.875 30.4C239.568 30.4 240.141 30.2467 240.595 29.94C241.048 29.62 241.408 29.2267 241.675 28.76L243.455 29.62C243.015 30.42 242.415 31.0733 241.655 31.58C240.895 32.0733 239.948 32.32 238.815 32.32ZM238.715 23.32C237.995 23.32 237.381 23.54 236.875 23.98C236.368 24.42 236.028 25.0067 235.855 25.74H241.515C241.488 25.3933 241.375 25.0333 241.175 24.66C240.975 24.2867 240.668 23.9733 240.255 23.72C239.855 23.4533 239.341 23.32 238.715 23.32ZM250.686 32V17.68H252.886V24.62H253.006L258.706 17.68H261.466V17.8L255.426 24.96L261.786 31.88V32H258.906L253.006 25.44H252.886V32H250.686ZM267.275 32.32C266.222 32.32 265.295 32.08 264.495 31.6C263.695 31.12 263.068 30.4733 262.615 29.66C262.162 28.8467 261.935 27.9267 261.935 26.9C261.935 25.8867 262.162 24.9733 262.615 24.16C263.068 23.3333 263.695 22.68 264.495 22.2C265.295 21.72 266.222 21.48 267.275 21.48C268.315 21.48 269.235 21.72 270.035 22.2C270.835 22.68 271.462 23.3333 271.915 24.16C272.368 24.9733 272.595 25.8867 272.595 26.9C272.595 27.9267 272.368 28.8467 271.915 29.66C271.462 30.4733 270.835 31.12 270.035 31.6C269.235 32.08 268.315 32.32 267.275 32.32ZM267.275 30.34C267.835 30.34 268.355 30.2067 268.835 29.94C269.315 29.66 269.702 29.2667 269.995 28.76C270.302 28.24 270.455 27.62 270.455 26.9C270.455 26.18 270.302 25.5667 269.995 25.06C269.702 24.54 269.315 24.1467 268.835 23.88C268.355 23.6 267.835 23.46 267.275 23.46C266.715 23.46 266.188 23.6 265.695 23.88C265.215 24.1467 264.822 24.54 264.515 25.06C264.222 25.5667 264.075 26.18 264.075 26.9C264.075 27.62 264.222 28.24 264.515 28.76C264.822 29.2667 265.215 29.66 265.695 29.94C266.188 30.2067 266.715 30.34 267.275 30.34ZM274.389 32V21.8H276.529V30.12H279.889V21.8H282.029V30.12H285.389V21.8H287.529V32H274.389ZM294.635 32.32C293.635 32.32 292.742 32.0867 291.955 31.62C291.168 31.1533 290.548 30.5133 290.095 29.7C289.655 28.8867 289.435 27.96 289.435 26.92C289.435 25.9467 289.648 25.0467 290.075 24.22C290.502 23.3933 291.095 22.7333 291.855 22.24C292.628 21.7333 293.515 21.48 294.515 21.48C295.568 21.48 296.462 21.7067 297.195 22.16C297.942 22.6133 298.508 23.2333 298.895 24.02C299.282 24.8067 299.475 25.6933 299.475 26.68C299.475 26.8267 299.468 26.96 299.455 27.08C299.455 27.2 299.448 27.2933 299.435 27.36H291.555C291.662 28.3733 292.015 29.1333 292.615 29.64C293.228 30.1467 293.922 30.4 294.695 30.4C295.388 30.4 295.962 30.2467 296.415 29.94C296.868 29.62 297.228 29.2267 297.495 28.76L299.275 29.62C298.835 30.42 298.235 31.0733 297.475 31.58C296.715 32.0733 295.768 32.32 294.635 32.32ZM294.535 23.32C293.815 23.32 293.202 23.54 292.695 23.98C292.188 24.42 291.848 25.0067 291.675 25.74H297.335C297.308 25.3933 297.195 25.0333 296.995 24.66C296.795 24.2867 296.488 23.9733 296.075 23.72C295.675 23.4533 295.162 23.32 294.535 23.32ZM301.443 32.16C301.137 32.16 300.843 32.1267 300.563 32.06V30.06C300.75 30.1533 300.957 30.2 301.183 30.2C301.637 30.2 301.957 30.0267 302.143 29.68C302.33 29.32 302.443 28.8667 302.483 28.32C302.523 27.7733 302.543 27.2067 302.543 26.62V21.8H310.343V32H308.203V23.68H304.583V26.96C304.583 27.6533 304.537 28.3133 304.443 28.94C304.363 29.5533 304.21 30.1067 303.983 30.6C303.757 31.08 303.437 31.46 303.023 31.74C302.623 32.02 302.097 32.16 301.443 32.16ZM317.447 32.32C316.447 32.32 315.554 32.0867 314.767 31.62C313.981 31.1533 313.361 30.5133 312.907 29.7C312.467 28.8867 312.247 27.96 312.247 26.92C312.247 25.9467 312.461 25.0467 312.887 24.22C313.314 23.3933 313.907 22.7333 314.667 22.24C315.441 21.7333 316.327 21.48 317.327 21.48C318.381 21.48 319.274 21.7067 320.007 22.16C320.754 22.6133 321.321 23.2333 321.707 24.02C322.094 24.8067 322.287 25.6933 322.287 26.68C322.287 26.8267 322.281 26.96 322.267 27.08C322.267 27.2 322.261 27.2933 322.247 27.36H314.367C314.474 28.3733 314.827 29.1333 315.427 29.64C316.041 30.1467 316.734 30.4 317.507 30.4C318.201 30.4 318.774 30.2467 319.227 29.94C319.681 29.62 320.041 29.2267 320.307 28.76L322.087 29.62C321.647 30.42 321.047 31.0733 320.287 31.58C319.527 32.0733 318.581 32.32 317.447 32.32ZM317.347 23.32C316.627 23.32 316.014 23.54 315.507 23.98C315.001 24.42 314.661 25.0067 314.487 25.74H320.147C320.121 25.3933 320.007 25.0333 319.807 24.66C319.607 24.2867 319.301 23.9733 318.887 23.72C318.487 23.4533 317.974 23.32 317.347 23.32ZM324.291 32V21.8H326.451V26.32H326.571L330.571 21.8H333.051V21.92L328.791 26.58L333.211 31.88V32H330.651L326.571 26.98H326.451V32H324.291Z" fill="white"/>
<rect x="0.5" y="0.5" width="354" height="49" rx="24.5" stroke="#747775"/>
<defs>
<linearGradient id="paint0_linear_1819_24633" x1="34.5703" y1="30.7864" x2="18.7309" y2="48.9133" gradientUnits="userSpaceOnUse">
<stop stop-color="#4285F4"/>
<stop offset="1" stop-color="#1B74E8"/>
</linearGradient>
</defs>
</svg>
