<svg width="322" height="50" viewBox="0 0 322 50" fill="none" xmlns="http://www.w3.org/2000/svg">
<rect x="0.5" y="0.5" width="321" height="49" rx="24.5" fill="#1F1F1F"/>
<path d="M51 22H21V17C21 14.2857 23.2018 12 25.8165 12H46.1835C48.7982 12 51 14.2857 51 17V22Z" fill="#34A853"/>
<path d="M51 26.0537H21V21.0537C21 18.3394 23.2018 16.0537 25.8165 16.0537H46.1835C48.7982 16.0537 51 18.3394 51 21.0537V26.0537Z" fill="#FBBC04"/>
<path d="M51 30.2468H21V25.2468C21 22.5325 23.2018 20.2468 25.8165 20.2468H46.1835C48.7982 20.2468 51 22.5325 51 25.2468V30.2468Z" fill="#EA4335"/>
<path d="M21 23.2752L40.0411 27.6789C42.2329 28.2294 44.6986 27.6789 46.4795 26.3028L51 23V33.3211C51 35.9358 48.8082 38 46.2055 38H25.7945C23.1918 38 21 35.9358 21 33.3211V23.2752Z" fill="url(#paint0_linear_1819_24956)"/>
<path d="M64.62 32V17.68H66.82V32H64.62ZM73.8739 32.32C72.9539 32.32 72.1206 32.0933 71.3739 31.64C70.6406 31.1733 70.0539 30.5333 69.6139 29.72C69.1872 28.8933 68.9739 27.9533 68.9739 26.9C68.9739 25.8467 69.1872 24.9133 69.6139 24.1C70.0539 23.2867 70.6406 22.6467 71.3739 22.18C72.1206 21.7133 72.9539 21.48 73.8739 21.48C74.6606 21.48 75.3339 21.6533 75.8939 22C76.4672 22.3467 76.8872 22.74 77.1539 23.18H77.2739L77.1539 21.76V17.68H79.2939V32H77.2739V30.64H77.1539C76.8872 31.08 76.4672 31.4733 75.8939 31.82C75.3339 32.1533 74.6606 32.32 73.8739 32.32ZM74.1939 30.34C74.7272 30.34 75.2272 30.2 75.6939 29.92C76.1739 29.64 76.5539 29.2467 76.8339 28.74C77.1272 28.22 77.2739 27.6067 77.2739 26.9C77.2739 26.1933 77.1272 25.5867 76.8339 25.08C76.5539 24.56 76.1739 24.16 75.6939 23.88C75.2272 23.6 74.7272 23.46 74.1939 23.46C73.6606 23.46 73.1606 23.6 72.6939 23.88C72.2272 24.16 71.8472 24.56 71.5539 25.08C71.2606 25.5867 71.1139 26.1933 71.1139 26.9C71.1139 27.6067 71.2606 28.22 71.5539 28.74C71.8472 29.2467 72.2272 29.64 72.6939 29.92C73.1606 30.2 73.6606 30.34 74.1939 30.34ZM84.9405 32.32C84.2071 32.32 83.5538 32.18 82.9805 31.9C82.4071 31.6067 81.9605 31.2 81.6405 30.68C81.3205 30.16 81.1605 29.5667 81.1605 28.9C81.1605 28.18 81.3471 27.5667 81.7205 27.06C82.1071 26.54 82.6205 26.1467 83.2605 25.88C83.9005 25.6133 84.6071 25.48 85.3805 25.48C86.0205 25.48 86.5805 25.54 87.0605 25.66C87.5538 25.78 87.9271 25.9067 88.1805 26.04V25.5C88.1805 24.8333 87.9405 24.3 87.4605 23.9C86.9805 23.5 86.3605 23.3 85.6005 23.3C85.0805 23.3 84.5871 23.42 84.1205 23.66C83.6538 23.8867 83.2805 24.2 83.0005 24.6L81.5205 23.46C81.9605 22.8467 82.5405 22.3667 83.2605 22.02C83.9938 21.66 84.7938 21.48 85.6605 21.48C87.1405 21.48 88.2805 21.8467 89.0805 22.58C89.8805 23.3 90.2805 24.3133 90.2805 25.62V32H88.1805V30.74H88.0605C87.7938 31.1533 87.3938 31.52 86.8605 31.84C86.3271 32.16 85.6871 32.32 84.9405 32.32ZM85.3205 30.56C85.8805 30.56 86.3738 30.4267 86.8005 30.16C87.2271 29.8933 87.5605 29.5467 87.8005 29.12C88.0538 28.68 88.1805 28.2067 88.1805 27.7C87.8738 27.5267 87.5138 27.3867 87.1005 27.28C86.6871 27.16 86.2471 27.1 85.7805 27.1C84.9005 27.1 84.2738 27.28 83.9005 27.64C83.5271 27.9867 83.3405 28.4133 83.3405 28.92C83.3405 29.4 83.5205 29.7933 83.8805 30.1C84.2405 30.4067 84.7205 30.56 85.3205 30.56ZM97.1608 36.64C96.2674 36.64 95.4941 36.4933 94.8408 36.2C94.2008 35.92 93.6808 35.5533 93.2808 35.1C92.8808 34.66 92.5941 34.2067 92.4208 33.74L94.4208 32.9C94.6341 33.4333 94.9741 33.8667 95.4408 34.2C95.9208 34.5467 96.4941 34.72 97.1608 34.72C98.0941 34.72 98.8274 34.44 99.3608 33.88C99.9074 33.32 100.181 32.5267 100.181 31.5V30.52H100.061C99.7408 31 99.2941 31.3867 98.7208 31.68C98.1608 31.96 97.5208 32.1 96.8008 32.1C95.9341 32.1 95.1408 31.88 94.4208 31.44C93.7008 31 93.1208 30.3867 92.6808 29.6C92.2408 28.8 92.0208 27.8667 92.0208 26.8C92.0208 25.72 92.2408 24.7867 92.6808 24C93.1208 23.2 93.7008 22.58 94.4208 22.14C95.1408 21.7 95.9341 21.48 96.8008 21.48C97.5208 21.48 98.1608 21.6267 98.7208 21.92C99.2941 22.2133 99.7408 22.6 100.061 23.08H100.181V21.8H102.241V31.46C102.241 32.5667 102.021 33.5067 101.581 34.28C101.154 35.0533 100.561 35.64 99.8008 36.04C99.0408 36.44 98.1608 36.64 97.1608 36.64ZM97.1808 30.14C97.7141 30.14 98.2074 30.0133 98.6608 29.76C99.1141 29.4933 99.4808 29.1133 99.7608 28.62C100.041 28.1133 100.181 27.5067 100.181 26.8C100.181 26.0667 100.041 25.4533 99.7608 24.96C99.4808 24.4533 99.1141 24.0733 98.6608 23.82C98.2074 23.5667 97.7141 23.44 97.1808 23.44C96.6474 23.44 96.1474 23.5733 95.6808 23.84C95.2274 24.0933 94.8608 24.4667 94.5808 24.96C94.3008 25.4533 94.1608 26.0667 94.1608 26.8C94.1608 27.52 94.3008 28.1333 94.5808 28.64C94.8608 29.1333 95.2274 29.5067 95.6808 29.76C96.1474 30.0133 96.6474 30.14 97.1808 30.14ZM109.03 32.32C108.11 32.32 107.277 32.0933 106.53 31.64C105.797 31.1733 105.21 30.5333 104.77 29.72C104.343 28.8933 104.13 27.9533 104.13 26.9C104.13 25.8467 104.343 24.9133 104.77 24.1C105.21 23.2867 105.797 22.6467 106.53 22.18C107.277 21.7133 108.11 21.48 109.03 21.48C109.817 21.48 110.49 21.6533 111.05 22C111.623 22.3467 112.043 22.74 112.31 23.18H112.43L112.31 21.76V17.68H114.45V32H112.43V30.64H112.31C112.043 31.08 111.623 31.4733 111.05 31.82C110.49 32.1533 109.817 32.32 109.03 32.32ZM109.35 30.34C109.883 30.34 110.383 30.2 110.85 29.92C111.33 29.64 111.71 29.2467 111.99 28.74C112.283 28.22 112.43 27.6067 112.43 26.9C112.43 26.1933 112.283 25.5867 111.99 25.08C111.71 24.56 111.33 24.16 110.85 23.88C110.383 23.6 109.883 23.46 109.35 23.46C108.817 23.46 108.317 23.6 107.85 23.88C107.383 24.16 107.003 24.56 106.71 25.08C106.417 25.5867 106.27 26.1933 106.27 26.9C106.27 27.6067 106.417 28.22 106.71 28.74C107.003 29.2467 107.383 29.64 107.85 29.92C108.317 30.2 108.817 30.34 109.35 30.34ZM120.097 32.32C119.363 32.32 118.71 32.18 118.137 31.9C117.563 31.6067 117.117 31.2 116.797 30.68C116.477 30.16 116.317 29.5667 116.317 28.9C116.317 28.18 116.503 27.5667 116.877 27.06C117.263 26.54 117.777 26.1467 118.417 25.88C119.057 25.6133 119.763 25.48 120.537 25.48C121.177 25.48 121.737 25.54 122.217 25.66C122.71 25.78 123.083 25.9067 123.337 26.04V25.5C123.337 24.8333 123.097 24.3 122.617 23.9C122.137 23.5 121.517 23.3 120.757 23.3C120.237 23.3 119.743 23.42 119.277 23.66C118.81 23.8867 118.437 24.2 118.157 24.6L116.677 23.46C117.117 22.8467 117.697 22.3667 118.417 22.02C119.15 21.66 119.95 21.48 120.817 21.48C122.297 21.48 123.437 21.8467 124.237 22.58C125.037 23.3 125.437 24.3133 125.437 25.62V32H123.337V30.74H123.217C122.95 31.1533 122.55 31.52 122.017 31.84C121.483 32.16 120.843 32.32 120.097 32.32ZM120.477 30.56C121.037 30.56 121.53 30.4267 121.957 30.16C122.383 29.8933 122.717 29.5467 122.957 29.12C123.21 28.68 123.337 28.2067 123.337 27.7C123.03 27.5267 122.67 27.3867 122.257 27.28C121.843 27.16 121.403 27.1 120.937 27.1C120.057 27.1 119.43 27.28 119.057 27.64C118.683 27.9867 118.497 28.4133 118.497 28.92C118.497 29.4 118.677 29.7933 119.037 30.1C119.397 30.4067 119.877 30.56 120.477 30.56ZM132.317 36.64C131.424 36.64 130.65 36.4933 129.997 36.2C129.357 35.92 128.837 35.5533 128.437 35.1C128.037 34.66 127.75 34.2067 127.577 33.74L129.577 32.9C129.79 33.4333 130.13 33.8667 130.597 34.2C131.077 34.5467 131.65 34.72 132.317 34.72C133.25 34.72 133.984 34.44 134.517 33.88C135.064 33.32 135.337 32.5267 135.337 31.5V30.52H135.217C134.897 31 134.45 31.3867 133.877 31.68C133.317 31.96 132.677 32.1 131.957 32.1C131.09 32.1 130.297 31.88 129.577 31.44C128.857 31 128.277 30.3867 127.837 29.6C127.397 28.8 127.177 27.8667 127.177 26.8C127.177 25.72 127.397 24.7867 127.837 24C128.277 23.2 128.857 22.58 129.577 22.14C130.297 21.7 131.09 21.48 131.957 21.48C132.677 21.48 133.317 21.6267 133.877 21.92C134.45 22.2133 134.897 22.6 135.217 23.08H135.337V21.8H137.397V31.46C137.397 32.5667 137.177 33.5067 136.737 34.28C136.31 35.0533 135.717 35.64 134.957 36.04C134.197 36.44 133.317 36.64 132.317 36.64ZM132.337 30.14C132.87 30.14 133.364 30.0133 133.817 29.76C134.27 29.4933 134.637 29.1133 134.917 28.62C135.197 28.1133 135.337 27.5067 135.337 26.8C135.337 26.0667 135.197 25.4533 134.917 24.96C134.637 24.4533 134.27 24.0733 133.817 23.82C133.364 23.5667 132.87 23.44 132.337 23.44C131.804 23.44 131.304 23.5733 130.837 23.84C130.384 24.0933 130.017 24.4667 129.737 24.96C129.457 25.4533 129.317 26.0667 129.317 26.8C129.317 27.52 129.457 28.1333 129.737 28.64C130.017 29.1333 130.384 29.5067 130.837 29.76C131.304 30.0133 131.804 30.14 132.337 30.14ZM148.312 32.32C147.085 32.32 146.105 32.0533 145.372 31.52C144.639 30.9733 144.132 30.3267 143.852 29.58L145.792 28.74C146.032 29.2867 146.379 29.7067 146.832 30C147.285 30.28 147.799 30.42 148.372 30.42C148.905 30.42 149.365 30.3267 149.752 30.14C150.139 29.94 150.332 29.62 150.332 29.18C150.332 28.7533 150.139 28.44 149.752 28.24C149.365 28.04 148.885 27.8667 148.312 27.72L147.092 27.44C146.599 27.32 146.139 27.1333 145.712 26.88C145.285 26.6267 144.939 26.3 144.672 25.9C144.405 25.4867 144.272 25.0067 144.272 24.46C144.272 23.86 144.452 23.34 144.812 22.9C145.172 22.4467 145.645 22.1 146.232 21.86C146.832 21.6067 147.479 21.48 148.172 21.48C149.119 21.48 149.945 21.6667 150.652 22.04C151.372 22.4 151.899 22.9467 152.232 23.68L150.372 24.52C150.132 24.0667 149.819 23.7533 149.432 23.58C149.059 23.3933 148.645 23.3 148.192 23.3C147.685 23.3 147.259 23.4067 146.912 23.62C146.579 23.8333 146.412 24.1 146.412 24.42C146.412 24.7667 146.559 25.04 146.852 25.24C147.159 25.44 147.532 25.6 147.972 25.72L149.452 26.08C150.465 26.3333 151.225 26.72 151.732 27.24C152.239 27.7467 152.492 28.3667 152.492 29.1C152.492 29.7533 152.305 30.3267 151.932 30.82C151.559 31.3 151.052 31.6733 150.412 31.94C149.785 32.1933 149.085 32.32 148.312 32.32ZM157.675 32.32C156.942 32.32 156.288 32.18 155.715 31.9C155.142 31.6067 154.695 31.2 154.375 30.68C154.055 30.16 153.895 29.5667 153.895 28.9C153.895 28.18 154.082 27.5667 154.455 27.06C154.842 26.54 155.355 26.1467 155.995 25.88C156.635 25.6133 157.342 25.48 158.115 25.48C158.755 25.48 159.315 25.54 159.795 25.66C160.288 25.78 160.662 25.9067 160.915 26.04V25.5C160.915 24.8333 160.675 24.3 160.195 23.9C159.715 23.5 159.095 23.3 158.335 23.3C157.815 23.3 157.322 23.42 156.855 23.66C156.388 23.8867 156.015 24.2 155.735 24.6L154.255 23.46C154.695 22.8467 155.275 22.3667 155.995 22.02C156.728 21.66 157.528 21.48 158.395 21.48C159.875 21.48 161.015 21.8467 161.815 22.58C162.615 23.3 163.015 24.3133 163.015 25.62V32H160.915V30.74H160.795C160.528 31.1533 160.128 31.52 159.595 31.84C159.062 32.16 158.422 32.32 157.675 32.32ZM158.055 30.56C158.615 30.56 159.108 30.4267 159.535 30.16C159.962 29.8933 160.295 29.5467 160.535 29.12C160.788 28.68 160.915 28.2067 160.915 27.7C160.608 27.5267 160.248 27.3867 159.835 27.28C159.422 27.16 158.982 27.1 158.515 27.1C157.635 27.1 157.008 27.28 156.635 27.64C156.262 27.9867 156.075 28.4133 156.075 28.92C156.075 29.4 156.255 29.7933 156.615 30.1C156.975 30.4067 157.455 30.56 158.055 30.56Z" fill="white"/>
<path d="M178.4 32.32C177.373 32.32 176.407 32.1333 175.5 31.76C174.607 31.3867 173.813 30.8667 173.12 30.2C172.427 29.52 171.88 28.7267 171.48 27.82C171.093 26.9 170.9 25.9067 170.9 24.84C170.9 23.7733 171.093 22.7867 171.48 21.88C171.88 20.96 172.42 20.1667 173.1 19.5C173.793 18.82 174.593 18.2933 175.5 17.92C176.407 17.5467 177.373 17.36 178.4 17.36C179.493 17.36 180.5 17.5533 181.42 17.94C182.353 18.3267 183.133 18.8667 183.76 19.56L182.24 21.06C181.773 20.54 181.213 20.14 180.56 19.86C179.92 19.58 179.2 19.44 178.4 19.44C177.453 19.44 176.58 19.6667 175.78 20.12C174.98 20.56 174.333 21.1867 173.84 22C173.36 22.8 173.12 23.7467 173.12 24.84C173.12 25.9333 173.367 26.8867 173.86 27.7C174.353 28.5 175 29.1267 175.8 29.58C176.6 30.02 177.473 30.24 178.42 30.24C179.287 30.24 180.073 30.08 180.78 29.76C181.487 29.4267 182.053 28.96 182.48 28.36C182.92 27.76 183.187 27.04 183.28 26.2H178.38V24.26H185.34C185.42 24.62 185.46 25 185.46 25.4V25.42C185.46 26.8067 185.153 28.02 184.54 29.06C183.94 30.0867 183.107 30.8867 182.04 31.46C180.973 32.0333 179.76 32.32 178.4 32.32ZM191.9 32.32C190.847 32.32 189.92 32.08 189.12 31.6C188.32 31.12 187.693 30.4733 187.24 29.66C186.787 28.8467 186.56 27.9267 186.56 26.9C186.56 25.8867 186.787 24.9733 187.24 24.16C187.693 23.3333 188.32 22.68 189.12 22.2C189.92 21.72 190.847 21.48 191.9 21.48C192.94 21.48 193.86 21.72 194.66 22.2C195.46 22.68 196.087 23.3333 196.54 24.16C196.993 24.9733 197.22 25.8867 197.22 26.9C197.22 27.9267 196.993 28.8467 196.54 29.66C196.087 30.4733 195.46 31.12 194.66 31.6C193.86 32.08 192.94 32.32 191.9 32.32ZM191.9 30.34C192.46 30.34 192.98 30.2067 193.46 29.94C193.94 29.66 194.327 29.2667 194.62 28.76C194.927 28.24 195.08 27.62 195.08 26.9C195.08 26.18 194.927 25.5667 194.62 25.06C194.327 24.54 193.94 24.1467 193.46 23.88C192.98 23.6 192.46 23.46 191.9 23.46C191.34 23.46 190.813 23.6 190.32 23.88C189.84 24.1467 189.447 24.54 189.14 25.06C188.847 25.5667 188.7 26.18 188.7 26.9C188.7 27.62 188.847 28.24 189.14 28.76C189.447 29.2667 189.84 29.66 190.32 29.94C190.813 30.2067 191.34 30.34 191.9 30.34ZM204.009 32.32C202.956 32.32 202.029 32.08 201.229 31.6C200.429 31.12 199.803 30.4733 199.349 29.66C198.896 28.8467 198.669 27.9267 198.669 26.9C198.669 25.8867 198.896 24.9733 199.349 24.16C199.803 23.3333 200.429 22.68 201.229 22.2C202.029 21.72 202.956 21.48 204.009 21.48C205.049 21.48 205.969 21.72 206.769 22.2C207.569 22.68 208.196 23.3333 208.649 24.16C209.103 24.9733 209.329 25.8867 209.329 26.9C209.329 27.9267 209.103 28.8467 208.649 29.66C208.196 30.4733 207.569 31.12 206.769 31.6C205.969 32.08 205.049 32.32 204.009 32.32ZM204.009 30.34C204.569 30.34 205.089 30.2067 205.569 29.94C206.049 29.66 206.436 29.2667 206.729 28.76C207.036 28.24 207.189 27.62 207.189 26.9C207.189 26.18 207.036 25.5667 206.729 25.06C206.436 24.54 206.049 24.1467 205.569 23.88C205.089 23.6 204.569 23.46 204.009 23.46C203.449 23.46 202.923 23.6 202.429 23.88C201.949 24.1467 201.556 24.54 201.249 25.06C200.956 25.5667 200.809 26.18 200.809 26.9C200.809 27.62 200.956 28.24 201.249 28.76C201.556 29.2667 201.949 29.66 202.429 29.94C202.923 30.2067 203.449 30.34 204.009 30.34ZM215.919 36.64C215.025 36.64 214.252 36.4933 213.599 36.2C212.959 35.92 212.439 35.5533 212.039 35.1C211.639 34.66 211.352 34.2067 211.179 33.74L213.179 32.9C213.392 33.4333 213.732 33.8667 214.199 34.2C214.679 34.5467 215.252 34.72 215.919 34.72C216.852 34.72 217.585 34.44 218.119 33.88C218.665 33.32 218.939 32.5267 218.939 31.5V30.52H218.819C218.499 31 218.052 31.3867 217.479 31.68C216.919 31.96 216.279 32.1 215.559 32.1C214.692 32.1 213.899 31.88 213.179 31.44C212.459 31 211.879 30.3867 211.439 29.6C210.999 28.8 210.779 27.8667 210.779 26.8C210.779 25.72 210.999 24.7867 211.439 24C211.879 23.2 212.459 22.58 213.179 22.14C213.899 21.7 214.692 21.48 215.559 21.48C216.279 21.48 216.919 21.6267 217.479 21.92C218.052 22.2133 218.499 22.6 218.819 23.08H218.939V21.8H220.999V31.46C220.999 32.5667 220.779 33.5067 220.339 34.28C219.912 35.0533 219.319 35.64 218.559 36.04C217.799 36.44 216.919 36.64 215.919 36.64ZM215.939 30.14C216.472 30.14 216.965 30.0133 217.419 29.76C217.872 29.4933 218.239 29.1133 218.519 28.62C218.799 28.1133 218.939 27.5067 218.939 26.8C218.939 26.0667 218.799 25.4533 218.519 24.96C218.239 24.4533 217.872 24.0733 217.419 23.82C216.965 23.5667 216.472 23.44 215.939 23.44C215.405 23.44 214.905 23.5733 214.439 23.84C213.985 24.0933 213.619 24.4667 213.339 24.96C213.059 25.4533 212.919 26.0667 212.919 26.8C212.919 27.52 213.059 28.1333 213.339 28.64C213.619 29.1333 213.985 29.5067 214.439 29.76C214.905 30.0133 215.405 30.14 215.939 30.14ZM223.546 32V17.68H225.706V32H223.546ZM232.815 32.32C231.815 32.32 230.921 32.0867 230.135 31.62C229.348 31.1533 228.728 30.5133 228.275 29.7C227.835 28.8867 227.615 27.96 227.615 26.92C227.615 25.9467 227.828 25.0467 228.255 24.22C228.681 23.3933 229.275 22.7333 230.035 22.24C230.808 21.7333 231.695 21.48 232.695 21.48C233.748 21.48 234.641 21.7067 235.375 22.16C236.121 22.6133 236.688 23.2333 237.075 24.02C237.461 24.8067 237.655 25.6933 237.655 26.68C237.655 26.8267 237.648 26.96 237.635 27.08C237.635 27.2 237.628 27.2933 237.615 27.36H229.735C229.841 28.3733 230.195 29.1333 230.795 29.64C231.408 30.1467 232.101 30.4 232.875 30.4C233.568 30.4 234.141 30.2467 234.595 29.94C235.048 29.62 235.408 29.2267 235.675 28.76L237.455 29.62C237.015 30.42 236.415 31.0733 235.655 31.58C234.895 32.0733 233.948 32.32 232.815 32.32ZM232.715 23.32C231.995 23.32 231.381 23.54 230.875 23.98C230.368 24.42 230.028 25.0067 229.855 25.74H235.515C235.488 25.3933 235.375 25.0333 235.175 24.66C234.975 24.2867 234.668 23.9733 234.255 23.72C233.855 23.4533 233.341 23.32 232.715 23.32ZM246.446 32L242.606 17.68H245.046L247.326 26.98L247.566 28.22H247.686L247.986 26.98L250.866 17.68H253.066L255.826 26.98L256.126 28.2H256.246L256.486 26.98L258.766 17.68H261.186L257.406 32H255.086L252.346 22.5L252.026 21.16H251.906L251.566 22.5L248.706 32H246.446ZM265.202 32.32C264.469 32.32 263.816 32.18 263.242 31.9C262.669 31.6067 262.222 31.2 261.902 30.68C261.582 30.16 261.422 29.5667 261.422 28.9C261.422 28.18 261.609 27.5667 261.982 27.06C262.369 26.54 262.882 26.1467 263.522 25.88C264.162 25.6133 264.869 25.48 265.642 25.48C266.282 25.48 266.842 25.54 267.322 25.66C267.816 25.78 268.189 25.9067 268.442 26.04V25.5C268.442 24.8333 268.202 24.3 267.722 23.9C267.242 23.5 266.622 23.3 265.862 23.3C265.342 23.3 264.849 23.42 264.382 23.66C263.916 23.8867 263.542 24.2 263.262 24.6L261.782 23.46C262.222 22.8467 262.802 22.3667 263.522 22.02C264.256 21.66 265.056 21.48 265.922 21.48C267.402 21.48 268.542 21.8467 269.342 22.58C270.142 23.3 270.542 24.3133 270.542 25.62V32H268.442V30.74H268.322C268.056 31.1533 267.656 31.52 267.122 31.84C266.589 32.16 265.949 32.32 265.202 32.32ZM265.582 30.56C266.142 30.56 266.636 30.4267 267.062 30.16C267.489 29.8933 267.822 29.5467 268.062 29.12C268.316 28.68 268.442 28.2067 268.442 27.7C268.136 27.5267 267.776 27.3867 267.362 27.28C266.949 27.16 266.509 27.1 266.042 27.1C265.162 27.1 264.536 27.28 264.162 27.64C263.789 27.9867 263.602 28.4133 263.602 28.92C263.602 29.4 263.782 29.7933 264.142 30.1C264.502 30.4067 264.982 30.56 265.582 30.56ZM272.94 32V17.68H275.1V32H272.94ZM277.667 32V17.68H279.827V32H277.667ZM286.936 32.32C285.936 32.32 285.042 32.0867 284.256 31.62C283.469 31.1533 282.849 30.5133 282.396 29.7C281.956 28.8867 281.736 27.96 281.736 26.92C281.736 25.9467 281.949 25.0467 282.376 24.22C282.802 23.3933 283.396 22.7333 284.156 22.24C284.929 21.7333 285.816 21.48 286.816 21.48C287.869 21.48 288.762 21.7067 289.496 22.16C290.242 22.6133 290.809 23.2333 291.196 24.02C291.582 24.8067 291.776 25.6933 291.776 26.68C291.776 26.8267 291.769 26.96 291.756 27.08C291.756 27.2 291.749 27.2933 291.736 27.36H283.856C283.962 28.3733 284.316 29.1333 284.916 29.64C285.529 30.1467 286.222 30.4 286.996 30.4C287.689 30.4 288.262 30.2467 288.716 29.94C289.169 29.62 289.529 29.2267 289.796 28.76L291.576 29.62C291.136 30.42 290.536 31.0733 289.776 31.58C289.016 32.0733 288.069 32.32 286.936 32.32ZM286.836 23.32C286.116 23.32 285.502 23.54 284.996 23.98C284.489 24.42 284.149 25.0067 283.976 25.74H289.636C289.609 25.3933 289.496 25.0333 289.296 24.66C289.096 24.2867 288.789 23.9733 288.376 23.72C287.976 23.4533 287.462 23.32 286.836 23.32ZM294.567 29.04V23.68H292.787V21.8H294.567V18.92H296.727V21.8H299.227V23.68H296.727V28.58C296.727 29.0867 296.827 29.4733 297.027 29.74C297.24 30.0067 297.593 30.14 298.087 30.14C298.34 30.14 298.553 30.1067 298.727 30.04C298.913 29.9733 299.1 29.88 299.287 29.76V31.86C299.06 31.9533 298.82 32.0267 298.567 32.08C298.313 32.1333 298.013 32.16 297.667 32.16C296.72 32.16 295.967 31.8867 295.407 31.34C294.847 30.78 294.567 30.0133 294.567 29.04Z" fill="white"/>
<rect x="0.5" y="0.5" width="321" height="49" rx="24.5" stroke="#747775"/>
<defs>
<linearGradient id="paint0_linear_1819_24956" x1="34.5703" y1="30.7864" x2="18.7309" y2="48.9133" gradientUnits="userSpaceOnUse">
<stop stop-color="#4285F4"/>
<stop offset="1" stop-color="#1B74E8"/>
</linearGradient>
</defs>
</svg>
