<svg width="327" height="50" viewBox="0 0 327 50" fill="none" xmlns="http://www.w3.org/2000/svg">
<rect x="0.5" y="0.5" width="326" height="49" rx="24.5" fill="#1F1F1F"/>
<path d="M51 22H21V17C21 14.2857 23.2018 12 25.8165 12H46.1835C48.7982 12 51 14.2857 51 17V22Z" fill="#34A853"/>
<path d="M51 26.0537H21V21.0537C21 18.3394 23.2018 16.0537 25.8165 16.0537H46.1835C48.7982 16.0537 51 18.3394 51 21.0537V26.0537Z" fill="#FBBC04"/>
<path d="M51 30.2468H21V25.2468C21 22.5325 23.2018 20.2468 25.8165 20.2468H46.1835C48.7982 20.2468 51 22.5325 51 25.2468V30.2468Z" fill="#EA4335"/>
<path d="M21 23.2752L40.0411 27.6789C42.2329 28.2294 44.6986 27.6789 46.4795 26.3028L51 23V33.3211C51 35.9358 48.8082 38 46.2055 38H25.7945C23.1918 38 21 35.9358 21 33.3211V23.2752Z" fill="url(#paint0_linear_1819_24842)"/>
<path d="M64.62 32V17.68H69.2C70.7067 17.68 72 17.9867 73.08 18.6C74.1733 19.2 75.0133 20.04 75.6 21.12C76.2 22.2 76.5 23.44 76.5 24.84C76.5 26.2533 76.2 27.5 75.6 28.58C75.0133 29.6467 74.1733 30.4867 73.08 31.1C72 31.7 70.7067 32 69.2 32H64.62ZM66.82 29.92H69.14C70.7667 29.92 72.0267 29.4667 72.92 28.56C73.8267 27.6533 74.28 26.4133 74.28 24.84C74.28 23.2667 73.8267 22.0267 72.92 21.12C72.0267 20.2133 70.7667 19.76 69.14 19.76H66.82V29.92ZM83.1616 32.32C82.1082 32.32 81.1816 32.08 80.3816 31.6C79.5816 31.12 78.9549 30.4733 78.5016 29.66C78.0482 28.8467 77.8216 27.9267 77.8216 26.9C77.8216 25.8867 78.0482 24.9733 78.5016 24.16C78.9549 23.3333 79.5816 22.68 80.3816 22.2C81.1816 21.72 82.1082 21.48 83.1616 21.48C84.2016 21.48 85.1216 21.72 85.9216 22.2C86.7216 22.68 87.3482 23.3333 87.8016 24.16C88.2549 24.9733 88.4816 25.8867 88.4816 26.9C88.4816 27.9267 88.2549 28.8467 87.8016 29.66C87.3482 30.4733 86.7216 31.12 85.9216 31.6C85.1216 32.08 84.2016 32.32 83.1616 32.32ZM83.1616 30.34C83.7216 30.34 84.2416 30.2067 84.7216 29.94C85.2016 29.66 85.5882 29.2667 85.8816 28.76C86.1882 28.24 86.3416 27.62 86.3416 26.9C86.3416 26.18 86.1882 25.5667 85.8816 25.06C85.5882 24.54 85.2016 24.1467 84.7216 23.88C84.2416 23.6 83.7216 23.46 83.1616 23.46C82.6016 23.46 82.0749 23.6 81.5816 23.88C81.1016 24.1467 80.7082 24.54 80.4016 25.06C80.1082 25.5667 79.9616 26.18 79.9616 26.9C79.9616 27.62 80.1082 28.24 80.4016 28.76C80.7082 29.2667 81.1016 29.66 81.5816 29.94C82.0749 30.2067 82.6016 30.34 83.1616 30.34ZM94.8309 32.32C93.9109 32.32 93.0776 32.0933 92.3309 31.64C91.5976 31.1733 91.0109 30.5333 90.5709 29.72C90.1443 28.8933 89.9309 27.9533 89.9309 26.9C89.9309 25.8467 90.1443 24.9133 90.5709 24.1C91.0109 23.2867 91.5976 22.6467 92.3309 22.18C93.0776 21.7133 93.9109 21.48 94.8309 21.48C95.6176 21.48 96.2909 21.6533 96.8509 22C97.4243 22.3467 97.8443 22.74 98.1109 23.18H98.2309L98.1109 21.76V17.68H100.251V32H98.2309V30.64H98.1109C97.8443 31.08 97.4243 31.4733 96.8509 31.82C96.2909 32.1533 95.6176 32.32 94.8309 32.32ZM95.1509 30.34C95.6843 30.34 96.1843 30.2 96.6509 29.92C97.1309 29.64 97.5109 29.2467 97.7909 28.74C98.0843 28.22 98.2309 27.6067 98.2309 26.9C98.2309 26.1933 98.0843 25.5867 97.7909 25.08C97.5109 24.56 97.1309 24.16 96.6509 23.88C96.1843 23.6 95.6843 23.46 95.1509 23.46C94.6176 23.46 94.1176 23.6 93.6509 23.88C93.1843 24.16 92.8043 24.56 92.5109 25.08C92.2176 25.5867 92.0709 26.1933 92.0709 26.9C92.0709 27.6067 92.2176 28.22 92.5109 28.74C92.8043 29.2467 93.1843 29.64 93.6509 29.92C94.1176 30.2 94.6176 30.34 95.1509 30.34ZM105.898 32.32C105.164 32.32 104.511 32.18 103.938 31.9C103.364 31.6067 102.918 31.2 102.598 30.68C102.278 30.16 102.118 29.5667 102.118 28.9C102.118 28.18 102.304 27.5667 102.678 27.06C103.064 26.54 103.578 26.1467 104.218 25.88C104.858 25.6133 105.564 25.48 106.338 25.48C106.978 25.48 107.538 25.54 108.018 25.66C108.511 25.78 108.884 25.9067 109.138 26.04V25.5C109.138 24.8333 108.898 24.3 108.418 23.9C107.938 23.5 107.318 23.3 106.558 23.3C106.038 23.3 105.544 23.42 105.078 23.66C104.611 23.8867 104.238 24.2 103.958 24.6L102.478 23.46C102.918 22.8467 103.498 22.3667 104.218 22.02C104.951 21.66 105.751 21.48 106.618 21.48C108.098 21.48 109.238 21.8467 110.038 22.58C110.838 23.3 111.238 24.3133 111.238 25.62V32H109.138V30.74H109.018C108.751 31.1533 108.351 31.52 107.818 31.84C107.284 32.16 106.644 32.32 105.898 32.32ZM106.278 30.56C106.838 30.56 107.331 30.4267 107.758 30.16C108.184 29.8933 108.518 29.5467 108.758 29.12C109.011 28.68 109.138 28.2067 109.138 27.7C108.831 27.5267 108.471 27.3867 108.058 27.28C107.644 27.16 107.204 27.1 106.738 27.1C105.858 27.1 105.231 27.28 104.858 27.64C104.484 27.9867 104.298 28.4133 104.298 28.92C104.298 29.4 104.478 29.7933 104.838 30.1C105.198 30.4067 105.678 30.56 106.278 30.56ZM114.855 20.3C114.455 20.3 114.109 20.16 113.815 19.88C113.535 19.5867 113.395 19.24 113.395 18.84C113.395 18.44 113.535 18.1 113.815 17.82C114.109 17.54 114.455 17.4 114.855 17.4C115.255 17.4 115.595 17.54 115.875 17.82C116.169 18.1 116.315 18.44 116.315 18.84C116.315 19.24 116.169 19.5867 115.875 19.88C115.595 20.16 115.255 20.3 114.855 20.3ZM112.915 36.52C112.502 36.52 112.129 36.4733 111.795 36.38V34.3C111.929 34.38 112.082 34.44 112.255 34.48C112.415 34.5333 112.575 34.56 112.735 34.56C113.122 34.56 113.389 34.44 113.535 34.2C113.695 33.9733 113.775 33.64 113.775 33.2V21.8H115.935V33.22C115.935 34.3933 115.649 35.2333 115.075 35.74C114.502 36.26 113.782 36.52 112.915 36.52ZM126.383 32L122.163 21.8H124.563L127.423 29.22H127.523L130.443 21.8H132.803L128.543 32H126.383Z" fill="white"/>
<path d="M146.4 32.32C145.373 32.32 144.407 32.1333 143.5 31.76C142.607 31.3867 141.813 30.8667 141.12 30.2C140.427 29.52 139.88 28.7267 139.48 27.82C139.093 26.9 138.9 25.9067 138.9 24.84C138.9 23.7733 139.093 22.7867 139.48 21.88C139.88 20.96 140.42 20.1667 141.1 19.5C141.793 18.82 142.593 18.2933 143.5 17.92C144.407 17.5467 145.373 17.36 146.4 17.36C147.493 17.36 148.5 17.5533 149.42 17.94C150.353 18.3267 151.133 18.8667 151.76 19.56L150.24 21.06C149.773 20.54 149.213 20.14 148.56 19.86C147.92 19.58 147.2 19.44 146.4 19.44C145.453 19.44 144.58 19.6667 143.78 20.12C142.98 20.56 142.333 21.1867 141.84 22C141.36 22.8 141.12 23.7467 141.12 24.84C141.12 25.9333 141.367 26.8867 141.86 27.7C142.353 28.5 143 29.1267 143.8 29.58C144.6 30.02 145.473 30.24 146.42 30.24C147.287 30.24 148.073 30.08 148.78 29.76C149.487 29.4267 150.053 28.96 150.48 28.36C150.92 27.76 151.187 27.04 151.28 26.2H146.38V24.26H153.34C153.42 24.62 153.46 25 153.46 25.4V25.42C153.46 26.8067 153.153 28.02 152.54 29.06C151.94 30.0867 151.107 30.8867 150.04 31.46C148.973 32.0333 147.76 32.32 146.4 32.32ZM159.9 32.32C158.847 32.32 157.92 32.08 157.12 31.6C156.32 31.12 155.693 30.4733 155.24 29.66C154.787 28.8467 154.56 27.9267 154.56 26.9C154.56 25.8867 154.787 24.9733 155.24 24.16C155.693 23.3333 156.32 22.68 157.12 22.2C157.92 21.72 158.847 21.48 159.9 21.48C160.94 21.48 161.86 21.72 162.66 22.2C163.46 22.68 164.087 23.3333 164.54 24.16C164.993 24.9733 165.22 25.8867 165.22 26.9C165.22 27.9267 164.993 28.8467 164.54 29.66C164.087 30.4733 163.46 31.12 162.66 31.6C161.86 32.08 160.94 32.32 159.9 32.32ZM159.9 30.34C160.46 30.34 160.98 30.2067 161.46 29.94C161.94 29.66 162.327 29.2667 162.62 28.76C162.927 28.24 163.08 27.62 163.08 26.9C163.08 26.18 162.927 25.5667 162.62 25.06C162.327 24.54 161.94 24.1467 161.46 23.88C160.98 23.6 160.46 23.46 159.9 23.46C159.34 23.46 158.813 23.6 158.32 23.88C157.84 24.1467 157.447 24.54 157.14 25.06C156.847 25.5667 156.7 26.18 156.7 26.9C156.7 27.62 156.847 28.24 157.14 28.76C157.447 29.2667 157.84 29.66 158.32 29.94C158.813 30.2067 159.34 30.34 159.9 30.34ZM172.009 32.32C170.956 32.32 170.029 32.08 169.229 31.6C168.429 31.12 167.803 30.4733 167.349 29.66C166.896 28.8467 166.669 27.9267 166.669 26.9C166.669 25.8867 166.896 24.9733 167.349 24.16C167.803 23.3333 168.429 22.68 169.229 22.2C170.029 21.72 170.956 21.48 172.009 21.48C173.049 21.48 173.969 21.72 174.769 22.2C175.569 22.68 176.196 23.3333 176.649 24.16C177.103 24.9733 177.329 25.8867 177.329 26.9C177.329 27.9267 177.103 28.8467 176.649 29.66C176.196 30.4733 175.569 31.12 174.769 31.6C173.969 32.08 173.049 32.32 172.009 32.32ZM172.009 30.34C172.569 30.34 173.089 30.2067 173.569 29.94C174.049 29.66 174.436 29.2667 174.729 28.76C175.036 28.24 175.189 27.62 175.189 26.9C175.189 26.18 175.036 25.5667 174.729 25.06C174.436 24.54 174.049 24.1467 173.569 23.88C173.089 23.6 172.569 23.46 172.009 23.46C171.449 23.46 170.923 23.6 170.429 23.88C169.949 24.1467 169.556 24.54 169.249 25.06C168.956 25.5667 168.809 26.18 168.809 26.9C168.809 27.62 168.956 28.24 169.249 28.76C169.556 29.2667 169.949 29.66 170.429 29.94C170.923 30.2067 171.449 30.34 172.009 30.34ZM183.919 36.64C183.025 36.64 182.252 36.4933 181.599 36.2C180.959 35.92 180.439 35.5533 180.039 35.1C179.639 34.66 179.352 34.2067 179.179 33.74L181.179 32.9C181.392 33.4333 181.732 33.8667 182.199 34.2C182.679 34.5467 183.252 34.72 183.919 34.72C184.852 34.72 185.585 34.44 186.119 33.88C186.665 33.32 186.939 32.5267 186.939 31.5V30.52H186.819C186.499 31 186.052 31.3867 185.479 31.68C184.919 31.96 184.279 32.1 183.559 32.1C182.692 32.1 181.899 31.88 181.179 31.44C180.459 31 179.879 30.3867 179.439 29.6C178.999 28.8 178.779 27.8667 178.779 26.8C178.779 25.72 178.999 24.7867 179.439 24C179.879 23.2 180.459 22.58 181.179 22.14C181.899 21.7 182.692 21.48 183.559 21.48C184.279 21.48 184.919 21.6267 185.479 21.92C186.052 22.2133 186.499 22.6 186.819 23.08H186.939V21.8H188.999V31.46C188.999 32.5667 188.779 33.5067 188.339 34.28C187.912 35.0533 187.319 35.64 186.559 36.04C185.799 36.44 184.919 36.64 183.919 36.64ZM183.939 30.14C184.472 30.14 184.965 30.0133 185.419 29.76C185.872 29.4933 186.239 29.1133 186.519 28.62C186.799 28.1133 186.939 27.5067 186.939 26.8C186.939 26.0667 186.799 25.4533 186.519 24.96C186.239 24.4533 185.872 24.0733 185.419 23.82C184.965 23.5667 184.472 23.44 183.939 23.44C183.405 23.44 182.905 23.5733 182.439 23.84C181.985 24.0933 181.619 24.4667 181.339 24.96C181.059 25.4533 180.919 26.0667 180.919 26.8C180.919 27.52 181.059 28.1333 181.339 28.64C181.619 29.1333 181.985 29.5067 182.439 29.76C182.905 30.0133 183.405 30.14 183.939 30.14ZM191.546 32V17.68H193.706V32H191.546ZM200.815 32.32C199.815 32.32 198.921 32.0867 198.135 31.62C197.348 31.1533 196.728 30.5133 196.275 29.7C195.835 28.8867 195.615 27.96 195.615 26.92C195.615 25.9467 195.828 25.0467 196.255 24.22C196.681 23.3933 197.275 22.7333 198.035 22.24C198.808 21.7333 199.695 21.48 200.695 21.48C201.748 21.48 202.641 21.7067 203.375 22.16C204.121 22.6133 204.688 23.2333 205.075 24.02C205.461 24.8067 205.655 25.6933 205.655 26.68C205.655 26.8267 205.648 26.96 205.635 27.08C205.635 27.2 205.628 27.2933 205.615 27.36H197.735C197.841 28.3733 198.195 29.1333 198.795 29.64C199.408 30.1467 200.101 30.4 200.875 30.4C201.568 30.4 202.141 30.2467 202.595 29.94C203.048 29.62 203.408 29.2267 203.675 28.76L205.455 29.62C205.015 30.42 204.415 31.0733 203.655 31.58C202.895 32.0733 201.948 32.32 200.815 32.32ZM200.715 23.32C199.995 23.32 199.381 23.54 198.875 23.98C198.368 24.42 198.028 25.0067 197.855 25.74H203.515C203.488 25.3933 203.375 25.0333 203.175 24.66C202.975 24.2867 202.668 23.9733 202.255 23.72C201.855 23.4533 201.341 23.32 200.715 23.32ZM212.686 32V17.68H217.266C218.773 17.68 220.066 17.9867 221.146 18.6C222.24 19.2 223.08 20.04 223.666 21.12C224.266 22.2 224.566 23.44 224.566 24.84C224.566 26.2533 224.266 27.5 223.666 28.58C223.08 29.6467 222.24 30.4867 221.146 31.1C220.066 31.7 218.773 32 217.266 32H212.686ZM214.886 29.92H217.206C218.833 29.92 220.093 29.4667 220.986 28.56C221.893 27.6533 222.346 26.4133 222.346 24.84C222.346 23.2667 221.893 22.0267 220.986 21.12C220.093 20.2133 218.833 19.76 217.206 19.76H214.886V29.92ZM231.088 32.32C230.088 32.32 229.195 32.0867 228.408 31.62C227.621 31.1533 227.001 30.5133 226.548 29.7C226.108 28.8867 225.888 27.96 225.888 26.92C225.888 25.9467 226.101 25.0467 226.528 24.22C226.955 23.3933 227.548 22.7333 228.308 22.24C229.081 21.7333 229.968 21.48 230.968 21.48C232.021 21.48 232.915 21.7067 233.648 22.16C234.395 22.6133 234.961 23.2333 235.348 24.02C235.735 24.8067 235.928 25.6933 235.928 26.68C235.928 26.8267 235.921 26.96 235.908 27.08C235.908 27.2 235.901 27.2933 235.888 27.36H228.008C228.115 28.3733 228.468 29.1333 229.068 29.64C229.681 30.1467 230.375 30.4 231.148 30.4C231.841 30.4 232.415 30.2467 232.868 29.94C233.321 29.62 233.681 29.2267 233.948 28.76L235.728 29.62C235.288 30.42 234.688 31.0733 233.928 31.58C233.168 32.0733 232.221 32.32 231.088 32.32ZM230.988 23.32C230.268 23.32 229.655 23.54 229.148 23.98C228.641 24.42 228.301 25.0067 228.128 25.74H233.788C233.761 25.3933 233.648 25.0333 233.448 24.66C233.248 24.2867 232.941 23.9733 232.528 23.72C232.128 23.4533 231.615 23.32 230.988 23.32ZM237.932 32V21.8H239.972V23.2H240.092C240.385 22.7067 240.819 22.3 241.392 21.98C241.979 21.6467 242.619 21.48 243.312 21.48C244.565 21.48 245.505 21.8533 246.132 22.6C246.759 23.3467 247.072 24.3333 247.072 25.56V32H244.932V25.84C244.932 25.0133 244.725 24.4133 244.312 24.04C243.899 23.6533 243.359 23.46 242.692 23.46C242.172 23.46 241.719 23.6067 241.332 23.9C240.945 24.18 240.639 24.5533 240.412 25.02C240.199 25.4867 240.092 25.9867 240.092 26.52V32H237.932ZM252.636 32.32C251.902 32.32 251.249 32.18 250.676 31.9C250.102 31.6067 249.656 31.2 249.336 30.68C249.016 30.16 248.856 29.5667 248.856 28.9C248.856 28.18 249.042 27.5667 249.416 27.06C249.802 26.54 250.316 26.1467 250.956 25.88C251.596 25.6133 252.302 25.48 253.076 25.48C253.716 25.48 254.276 25.54 254.756 25.66C255.249 25.78 255.622 25.9067 255.876 26.04V25.5C255.876 24.8333 255.636 24.3 255.156 23.9C254.676 23.5 254.056 23.3 253.296 23.3C252.776 23.3 252.282 23.42 251.816 23.66C251.349 23.8867 250.976 24.2 250.696 24.6L249.216 23.46C249.656 22.8467 250.236 22.3667 250.956 22.02C251.689 21.66 252.489 21.48 253.356 21.48C254.836 21.48 255.976 21.8467 256.776 22.58C257.576 23.3 257.976 24.3133 257.976 25.62V32H255.876V30.74H255.756C255.489 31.1533 255.089 31.52 254.556 31.84C254.022 32.16 253.382 32.32 252.636 32.32ZM253.016 30.56C253.576 30.56 254.069 30.4267 254.496 30.16C254.922 29.8933 255.256 29.5467 255.496 29.12C255.749 28.68 255.876 28.2067 255.876 27.7C255.569 27.5267 255.209 27.3867 254.796 27.28C254.382 27.16 253.942 27.1 253.476 27.1C252.596 27.1 251.969 27.28 251.596 27.64C251.222 27.9867 251.036 28.4133 251.036 28.92C251.036 29.4 251.216 29.7933 251.576 30.1C251.936 30.4067 252.416 30.56 253.016 30.56ZM260.354 32V21.8H262.394V23.3H262.514C262.74 22.78 263.127 22.3533 263.674 22.02C264.234 21.6733 264.834 21.5 265.474 21.5C265.754 21.5 265.987 21.52 266.174 21.56C266.374 21.6 266.554 21.6467 266.714 21.7V23.94C266.46 23.8333 266.2 23.7467 265.934 23.68C265.68 23.6133 265.414 23.58 265.134 23.58C264.627 23.58 264.174 23.72 263.774 24C263.387 24.2667 263.08 24.6333 262.854 25.1C262.627 25.5533 262.514 26.0533 262.514 26.6V32H260.354ZM268.381 32V21.8H270.421V23.2H270.541C270.834 22.7067 271.268 22.3 271.841 21.98C272.428 21.6467 273.068 21.48 273.761 21.48C275.014 21.48 275.954 21.8533 276.581 22.6C277.208 23.3467 277.521 24.3333 277.521 25.56V32H275.381V25.84C275.381 25.0133 275.174 24.4133 274.761 24.04C274.348 23.6533 273.808 23.46 273.141 23.46C272.621 23.46 272.168 23.6067 271.781 23.9C271.394 24.18 271.088 24.5533 270.861 25.02C270.648 25.4867 270.541 25.9867 270.541 26.52V32H268.381ZM281.223 20.3C280.823 20.3 280.476 20.16 280.183 19.88C279.903 19.5867 279.763 19.24 279.763 18.84C279.763 18.44 279.903 18.1 280.183 17.82C280.476 17.54 280.823 17.4 281.223 17.4C281.623 17.4 281.963 17.54 282.243 17.82C282.536 18.1 282.683 18.44 282.683 18.84C282.683 19.24 282.536 19.5867 282.243 19.88C281.963 20.16 281.623 20.3 281.223 20.3ZM280.143 32V21.8H282.303V32H280.143ZM289.605 32.32C288.578 32.32 287.672 32.0867 286.885 31.62C286.098 31.1533 285.478 30.5133 285.025 29.7C284.572 28.8733 284.345 27.94 284.345 26.9C284.345 25.86 284.572 24.9333 285.025 24.12C285.478 23.2933 286.098 22.6467 286.885 22.18C287.672 21.7133 288.578 21.48 289.605 21.48C290.738 21.48 291.692 21.7333 292.465 22.24C293.252 22.7467 293.812 23.4333 294.145 24.3L292.185 25.1C291.718 24.0067 290.845 23.46 289.565 23.46C289.005 23.46 288.492 23.6067 288.025 23.9C287.558 24.18 287.185 24.58 286.905 25.1C286.625 25.6067 286.485 26.2067 286.485 26.9C286.485 27.5933 286.625 28.2 286.905 28.72C287.185 29.24 287.558 29.64 288.025 29.92C288.492 30.2 289.005 30.34 289.565 30.34C290.218 30.34 290.772 30.1933 291.225 29.9C291.678 29.5933 292.032 29.18 292.285 28.66L294.205 29.5C293.845 30.3133 293.272 30.9867 292.485 31.52C291.698 32.0533 290.738 32.32 289.605 32.32ZM299.159 32.32C298.426 32.32 297.773 32.18 297.199 31.9C296.626 31.6067 296.179 31.2 295.859 30.68C295.539 30.16 295.379 29.5667 295.379 28.9C295.379 28.18 295.566 27.5667 295.939 27.06C296.326 26.54 296.839 26.1467 297.479 25.88C298.119 25.6133 298.826 25.48 299.599 25.48C300.239 25.48 300.799 25.54 301.279 25.66C301.773 25.78 302.146 25.9067 302.399 26.04V25.5C302.399 24.8333 302.159 24.3 301.679 23.9C301.199 23.5 300.579 23.3 299.819 23.3C299.299 23.3 298.806 23.42 298.339 23.66C297.873 23.8867 297.499 24.2 297.219 24.6L295.739 23.46C296.179 22.8467 296.759 22.3667 297.479 22.02C298.213 21.66 299.013 21.48 299.879 21.48C301.359 21.48 302.499 21.8467 303.299 22.58C304.099 23.3 304.499 24.3133 304.499 25.62V32H302.399V30.74H302.279C302.013 31.1533 301.613 31.52 301.079 31.84C300.546 32.16 299.906 32.32 299.159 32.32ZM299.539 30.56C300.099 30.56 300.593 30.4267 301.019 30.16C301.446 29.8933 301.779 29.5467 302.019 29.12C302.273 28.68 302.399 28.2067 302.399 27.7C302.093 27.5267 301.733 27.3867 301.319 27.28C300.906 27.16 300.466 27.1 299.999 27.1C299.119 27.1 298.493 27.28 298.119 27.64C297.746 27.9867 297.559 28.4133 297.559 28.92C297.559 29.4 297.739 29.7933 298.099 30.1C298.459 30.4067 298.939 30.56 299.539 30.56Z" fill="white"/>
<rect x="0.5" y="0.5" width="326" height="49" rx="24.5" stroke="#747775"/>
<defs>
<linearGradient id="paint0_linear_1819_24842" x1="34.5703" y1="30.7864" x2="18.7309" y2="48.9133" gradientUnits="userSpaceOnUse">
<stop stop-color="#4285F4"/>
<stop offset="1" stop-color="#1B74E8"/>
</linearGradient>
</defs>
</svg>
