<svg width="317" height="50" viewBox="0 0 317 50" fill="none" xmlns="http://www.w3.org/2000/svg">
<rect x="0.5" y="0.5" width="316" height="49" rx="24.5" fill="#1F1F1F"/>
<path d="M51 22H21V17C21 14.2857 23.2018 12 25.8165 12H46.1835C48.7982 12 51 14.2857 51 17V22Z" fill="#34A853"/>
<path d="M51 26.0537H21V21.0537C21 18.3394 23.2018 16.0537 25.8165 16.0537H46.1835C48.7982 16.0537 51 18.3394 51 21.0537V26.0537Z" fill="#FBBC04"/>
<path d="M51 30.2468H21V25.2468C21 22.5325 23.2018 20.2468 25.8165 20.2468H46.1835C48.7982 20.2468 51 22.5325 51 25.2468V30.2468Z" fill="#EA4335"/>
<path d="M21 23.2752L40.0411 27.6789C42.2329 28.2294 44.6986 27.6789 46.4795 26.3028L51 23V33.3211C51 35.9358 48.8082 38 46.2055 38H25.7945C23.1918 38 21 35.9358 21 33.3211V23.2752Z" fill="url(#paint0_linear_1819_24310)"/>
<path d="M63.3 32L68.7 17.68H71.2L76.62 32H74.2L72.88 28.32H67.04L65.72 32H63.3ZM69.36 21.9L67.78 26.28H72.14L70.56 21.9L70.02 20.26H69.9L69.36 21.9ZM79.4258 20.3C79.0258 20.3 78.6791 20.16 78.3858 19.88C78.1058 19.5867 77.9658 19.24 77.9658 18.84C77.9658 18.44 78.1058 18.1 78.3858 17.82C78.6791 17.54 79.0258 17.4 79.4258 17.4C79.8258 17.4 80.1658 17.54 80.4458 17.82C80.7391 18.1 80.8858 18.44 80.8858 18.84C80.8858 19.24 80.7391 19.5867 80.4458 19.88C80.1658 20.16 79.8258 20.3 79.4258 20.3ZM77.4858 36.52C77.0724 36.52 76.6991 36.4733 76.3658 36.38V34.3C76.4991 34.38 76.6524 34.44 76.8258 34.48C76.9858 34.5333 77.1458 34.56 77.3058 34.56C77.6924 34.56 77.9591 34.44 78.1058 34.2C78.2658 33.9733 78.3458 33.64 78.3458 33.2V21.8H80.5058V33.22C80.5058 34.3933 80.2191 35.2333 79.6458 35.74C79.0724 36.26 78.3524 36.52 77.4858 36.52ZM87.8881 32.32C86.8348 32.32 85.9081 32.08 85.1081 31.6C84.3081 31.12 83.6815 30.4733 83.2281 29.66C82.7748 28.8467 82.5481 27.9267 82.5481 26.9C82.5481 25.8867 82.7748 24.9733 83.2281 24.16C83.6815 23.3333 84.3081 22.68 85.1081 22.2C85.9081 21.72 86.8348 21.48 87.8881 21.48C88.9281 21.48 89.8481 21.72 90.6481 22.2C91.4481 22.68 92.0748 23.3333 92.5281 24.16C92.9815 24.9733 93.2081 25.8867 93.2081 26.9C93.2081 27.9267 92.9815 28.8467 92.5281 29.66C92.0748 30.4733 91.4481 31.12 90.6481 31.6C89.8481 32.08 88.9281 32.32 87.8881 32.32ZM87.8881 30.34C88.4481 30.34 88.9681 30.2067 89.4481 29.94C89.9281 29.66 90.3148 29.2667 90.6081 28.76C90.9148 28.24 91.0681 27.62 91.0681 26.9C91.0681 26.18 90.9148 25.5667 90.6081 25.06C90.3148 24.54 89.9281 24.1467 89.4481 23.88C88.9681 23.6 88.4481 23.46 87.8881 23.46C87.3281 23.46 86.8015 23.6 86.3081 23.88C85.8281 24.1467 85.4348 24.54 85.1281 25.06C84.8348 25.5667 84.6881 26.18 84.6881 26.9C84.6881 27.62 84.8348 28.24 85.1281 28.76C85.4348 29.2667 85.8281 29.66 86.3081 29.94C86.8015 30.2067 87.3281 30.34 87.8881 30.34ZM98.7998 32.32C97.5465 32.32 96.5998 31.9467 95.9598 31.2C95.3332 30.44 95.0198 29.4133 95.0198 28.12V21.8H97.1798V27.82C97.1798 28.6867 97.3798 29.3267 97.7798 29.74C98.1932 30.14 98.7065 30.34 99.3198 30.34C99.8665 30.34 100.34 30.2 100.74 29.92C101.153 29.6267 101.467 29.2533 101.68 28.8C101.907 28.3333 102.02 27.8267 102.02 27.28V21.8H104.16V32H102.14V30.62H102.02C101.727 31.1 101.287 31.5067 100.7 31.84C100.127 32.16 99.4932 32.32 98.7998 32.32ZM107.879 29.04V23.68H106.099V21.8H107.879V18.92H110.039V21.8H112.539V23.68H110.039V28.58C110.039 29.0867 110.139 29.4733 110.339 29.74C110.552 30.0067 110.906 30.14 111.399 30.14C111.652 30.14 111.866 30.1067 112.039 30.04C112.226 29.9733 112.412 29.88 112.599 29.76V31.86C112.372 31.9533 112.132 32.0267 111.879 32.08C111.626 32.1333 111.326 32.16 110.979 32.16C110.032 32.16 109.279 31.8867 108.719 31.34C108.159 30.78 107.879 30.0133 107.879 29.04ZM118.881 32.32C117.881 32.32 116.988 32.0867 116.201 31.62C115.414 31.1533 114.794 30.5133 114.341 29.7C113.901 28.8867 113.681 27.96 113.681 26.92C113.681 25.9467 113.894 25.0467 114.321 24.22C114.748 23.3933 115.341 22.7333 116.101 22.24C116.874 21.7333 117.761 21.48 118.761 21.48C119.814 21.48 120.708 21.7067 121.441 22.16C122.188 22.6133 122.754 23.2333 123.141 24.02C123.528 24.8067 123.721 25.6933 123.721 26.68C123.721 26.8267 123.714 26.96 123.701 27.08C123.701 27.2 123.694 27.2933 123.681 27.36H115.801C115.908 28.3733 116.261 29.1333 116.861 29.64C117.474 30.1467 118.168 30.4 118.941 30.4C119.634 30.4 120.208 30.2467 120.661 29.94C121.114 29.62 121.474 29.2267 121.741 28.76L123.521 29.62C123.081 30.42 122.481 31.0733 121.721 31.58C120.961 32.0733 120.014 32.32 118.881 32.32ZM118.781 23.32C118.061 23.32 117.448 23.54 116.941 23.98C116.434 24.42 116.094 25.0067 115.921 25.74H121.581C121.554 25.3933 121.441 25.0333 121.241 24.66C121.041 24.2867 120.734 23.9733 120.321 23.72C119.921 23.4533 119.408 23.32 118.781 23.32ZM125.725 32V21.8H127.765V23.3H127.885C128.112 22.78 128.498 22.3533 129.045 22.02C129.605 21.6733 130.205 21.5 130.845 21.5C131.125 21.5 131.358 21.52 131.545 21.56C131.745 21.6 131.925 21.6467 132.085 21.7V23.94C131.832 23.8333 131.572 23.7467 131.305 23.68C131.052 23.6133 130.785 23.58 130.505 23.58C129.998 23.58 129.545 23.72 129.145 24C128.758 24.2667 128.452 24.6333 128.225 25.1C127.998 25.5533 127.885 26.0533 127.885 26.6V32H125.725ZM141.62 32.32C140.887 32.32 140.233 32.18 139.66 31.9C139.087 31.6067 138.64 31.2 138.32 30.68C138 30.16 137.84 29.5667 137.84 28.9C137.84 28.18 138.027 27.5667 138.4 27.06C138.787 26.54 139.3 26.1467 139.94 25.88C140.58 25.6133 141.287 25.48 142.06 25.48C142.7 25.48 143.26 25.54 143.74 25.66C144.233 25.78 144.607 25.9067 144.86 26.04V25.5C144.86 24.8333 144.62 24.3 144.14 23.9C143.66 23.5 143.04 23.3 142.28 23.3C141.76 23.3 141.267 23.42 140.8 23.66C140.333 23.8867 139.96 24.2 139.68 24.6L138.2 23.46C138.64 22.8467 139.22 22.3667 139.94 22.02C140.673 21.66 141.473 21.48 142.34 21.48C143.82 21.48 144.96 21.8467 145.76 22.58C146.56 23.3 146.96 24.3133 146.96 25.62V32H144.86V30.74H144.74C144.473 31.1533 144.073 31.52 143.54 31.84C143.007 32.16 142.367 32.32 141.62 32.32ZM142 30.56C142.56 30.56 143.053 30.4267 143.48 30.16C143.907 29.8933 144.24 29.5467 144.48 29.12C144.733 28.68 144.86 28.2067 144.86 27.7C144.553 27.5267 144.193 27.3867 143.78 27.28C143.367 27.16 142.927 27.1 142.46 27.1C141.58 27.1 140.953 27.28 140.58 27.64C140.207 27.9867 140.02 28.4133 140.02 28.92C140.02 29.4 140.2 29.7933 140.56 30.1C140.92 30.4067 141.4 30.56 142 30.56ZM153.038 32.32C151.785 32.32 150.838 31.9467 150.198 31.2C149.571 30.44 149.258 29.4133 149.258 28.12V21.8H151.418V27.82C151.418 28.6867 151.618 29.3267 152.018 29.74C152.431 30.14 152.945 30.34 153.558 30.34C154.105 30.34 154.578 30.2 154.978 29.92C155.391 29.6267 155.705 29.2533 155.918 28.8C156.145 28.3333 156.258 27.8267 156.258 27.28V21.8H158.398V32H156.378V30.62H156.258C155.965 31.1 155.525 31.5067 154.938 31.84C154.365 32.16 153.731 32.32 153.038 32.32Z" fill="white"/>
<path d="M173.4 32.32C172.373 32.32 171.407 32.1333 170.5 31.76C169.607 31.3867 168.813 30.8667 168.12 30.2C167.427 29.52 166.88 28.7267 166.48 27.82C166.093 26.9 165.9 25.9067 165.9 24.84C165.9 23.7733 166.093 22.7867 166.48 21.88C166.88 20.96 167.42 20.1667 168.1 19.5C168.793 18.82 169.593 18.2933 170.5 17.92C171.407 17.5467 172.373 17.36 173.4 17.36C174.493 17.36 175.5 17.5533 176.42 17.94C177.353 18.3267 178.133 18.8667 178.76 19.56L177.24 21.06C176.773 20.54 176.213 20.14 175.56 19.86C174.92 19.58 174.2 19.44 173.4 19.44C172.453 19.44 171.58 19.6667 170.78 20.12C169.98 20.56 169.333 21.1867 168.84 22C168.36 22.8 168.12 23.7467 168.12 24.84C168.12 25.9333 168.367 26.8867 168.86 27.7C169.353 28.5 170 29.1267 170.8 29.58C171.6 30.02 172.473 30.24 173.42 30.24C174.287 30.24 175.073 30.08 175.78 29.76C176.487 29.4267 177.053 28.96 177.48 28.36C177.92 27.76 178.187 27.04 178.28 26.2H173.38V24.26H180.34C180.42 24.62 180.46 25 180.46 25.4V25.42C180.46 26.8067 180.153 28.02 179.54 29.06C178.94 30.0867 178.107 30.8867 177.04 31.46C175.973 32.0333 174.76 32.32 173.4 32.32ZM186.9 32.32C185.847 32.32 184.92 32.08 184.12 31.6C183.32 31.12 182.693 30.4733 182.24 29.66C181.787 28.8467 181.56 27.9267 181.56 26.9C181.56 25.8867 181.787 24.9733 182.24 24.16C182.693 23.3333 183.32 22.68 184.12 22.2C184.92 21.72 185.847 21.48 186.9 21.48C187.94 21.48 188.86 21.72 189.66 22.2C190.46 22.68 191.087 23.3333 191.54 24.16C191.993 24.9733 192.22 25.8867 192.22 26.9C192.22 27.9267 191.993 28.8467 191.54 29.66C191.087 30.4733 190.46 31.12 189.66 31.6C188.86 32.08 187.94 32.32 186.9 32.32ZM186.9 30.34C187.46 30.34 187.98 30.2067 188.46 29.94C188.94 29.66 189.327 29.2667 189.62 28.76C189.927 28.24 190.08 27.62 190.08 26.9C190.08 26.18 189.927 25.5667 189.62 25.06C189.327 24.54 188.94 24.1467 188.46 23.88C187.98 23.6 187.46 23.46 186.9 23.46C186.34 23.46 185.813 23.6 185.32 23.88C184.84 24.1467 184.447 24.54 184.14 25.06C183.847 25.5667 183.7 26.18 183.7 26.9C183.7 27.62 183.847 28.24 184.14 28.76C184.447 29.2667 184.84 29.66 185.32 29.94C185.813 30.2067 186.34 30.34 186.9 30.34ZM199.009 32.32C197.956 32.32 197.029 32.08 196.229 31.6C195.429 31.12 194.803 30.4733 194.349 29.66C193.896 28.8467 193.669 27.9267 193.669 26.9C193.669 25.8867 193.896 24.9733 194.349 24.16C194.803 23.3333 195.429 22.68 196.229 22.2C197.029 21.72 197.956 21.48 199.009 21.48C200.049 21.48 200.969 21.72 201.769 22.2C202.569 22.68 203.196 23.3333 203.649 24.16C204.103 24.9733 204.329 25.8867 204.329 26.9C204.329 27.9267 204.103 28.8467 203.649 29.66C203.196 30.4733 202.569 31.12 201.769 31.6C200.969 32.08 200.049 32.32 199.009 32.32ZM199.009 30.34C199.569 30.34 200.089 30.2067 200.569 29.94C201.049 29.66 201.436 29.2667 201.729 28.76C202.036 28.24 202.189 27.62 202.189 26.9C202.189 26.18 202.036 25.5667 201.729 25.06C201.436 24.54 201.049 24.1467 200.569 23.88C200.089 23.6 199.569 23.46 199.009 23.46C198.449 23.46 197.923 23.6 197.429 23.88C196.949 24.1467 196.556 24.54 196.249 25.06C195.956 25.5667 195.809 26.18 195.809 26.9C195.809 27.62 195.956 28.24 196.249 28.76C196.556 29.2667 196.949 29.66 197.429 29.94C197.923 30.2067 198.449 30.34 199.009 30.34ZM210.919 36.64C210.025 36.64 209.252 36.4933 208.599 36.2C207.959 35.92 207.439 35.5533 207.039 35.1C206.639 34.66 206.352 34.2067 206.179 33.74L208.179 32.9C208.392 33.4333 208.732 33.8667 209.199 34.2C209.679 34.5467 210.252 34.72 210.919 34.72C211.852 34.72 212.585 34.44 213.119 33.88C213.665 33.32 213.939 32.5267 213.939 31.5V30.52H213.819C213.499 31 213.052 31.3867 212.479 31.68C211.919 31.96 211.279 32.1 210.559 32.1C209.692 32.1 208.899 31.88 208.179 31.44C207.459 31 206.879 30.3867 206.439 29.6C205.999 28.8 205.779 27.8667 205.779 26.8C205.779 25.72 205.999 24.7867 206.439 24C206.879 23.2 207.459 22.58 208.179 22.14C208.899 21.7 209.692 21.48 210.559 21.48C211.279 21.48 211.919 21.6267 212.479 21.92C213.052 22.2133 213.499 22.6 213.819 23.08H213.939V21.8H215.999V31.46C215.999 32.5667 215.779 33.5067 215.339 34.28C214.912 35.0533 214.319 35.64 213.559 36.04C212.799 36.44 211.919 36.64 210.919 36.64ZM210.939 30.14C211.472 30.14 211.965 30.0133 212.419 29.76C212.872 29.4933 213.239 29.1133 213.519 28.62C213.799 28.1133 213.939 27.5067 213.939 26.8C213.939 26.0667 213.799 25.4533 213.519 24.96C213.239 24.4533 212.872 24.0733 212.419 23.82C211.965 23.5667 211.472 23.44 210.939 23.44C210.405 23.44 209.905 23.5733 209.439 23.84C208.985 24.0933 208.619 24.4667 208.339 24.96C208.059 25.4533 207.919 26.0667 207.919 26.8C207.919 27.52 208.059 28.1333 208.339 28.64C208.619 29.1333 208.985 29.5067 209.439 29.76C209.905 30.0133 210.405 30.14 210.939 30.14ZM218.546 32V17.68H220.706V32H218.546ZM227.815 32.32C226.815 32.32 225.921 32.0867 225.135 31.62C224.348 31.1533 223.728 30.5133 223.275 29.7C222.835 28.8867 222.615 27.96 222.615 26.92C222.615 25.9467 222.828 25.0467 223.255 24.22C223.681 23.3933 224.275 22.7333 225.035 22.24C225.808 21.7333 226.695 21.48 227.695 21.48C228.748 21.48 229.641 21.7067 230.375 22.16C231.121 22.6133 231.688 23.2333 232.075 24.02C232.461 24.8067 232.655 25.6933 232.655 26.68C232.655 26.8267 232.648 26.96 232.635 27.08C232.635 27.2 232.628 27.2933 232.615 27.36H224.735C224.841 28.3733 225.195 29.1333 225.795 29.64C226.408 30.1467 227.101 30.4 227.875 30.4C228.568 30.4 229.141 30.2467 229.595 29.94C230.048 29.62 230.408 29.2267 230.675 28.76L232.455 29.62C232.015 30.42 231.415 31.0733 230.655 31.58C229.895 32.0733 228.948 32.32 227.815 32.32ZM227.715 23.32C226.995 23.32 226.381 23.54 225.875 23.98C225.368 24.42 225.028 25.0067 224.855 25.74H230.515C230.488 25.3933 230.375 25.0333 230.175 24.66C229.975 24.2867 229.668 23.9733 229.255 23.72C228.855 23.4533 228.341 23.32 227.715 23.32ZM241.446 32L237.606 17.68H240.046L242.326 26.98L242.566 28.22H242.686L242.986 26.98L245.866 17.68H248.066L250.826 26.98L251.126 28.2H251.246L251.486 26.98L253.766 17.68H256.186L252.406 32H250.086L247.346 22.5L247.026 21.16H246.906L246.566 22.5L243.706 32H241.446ZM260.202 32.32C259.469 32.32 258.816 32.18 258.242 31.9C257.669 31.6067 257.222 31.2 256.902 30.68C256.582 30.16 256.422 29.5667 256.422 28.9C256.422 28.18 256.609 27.5667 256.982 27.06C257.369 26.54 257.882 26.1467 258.522 25.88C259.162 25.6133 259.869 25.48 260.642 25.48C261.282 25.48 261.842 25.54 262.322 25.66C262.816 25.78 263.189 25.9067 263.442 26.04V25.5C263.442 24.8333 263.202 24.3 262.722 23.9C262.242 23.5 261.622 23.3 260.862 23.3C260.342 23.3 259.849 23.42 259.382 23.66C258.916 23.8867 258.542 24.2 258.262 24.6L256.782 23.46C257.222 22.8467 257.802 22.3667 258.522 22.02C259.256 21.66 260.056 21.48 260.922 21.48C262.402 21.48 263.542 21.8467 264.342 22.58C265.142 23.3 265.542 24.3133 265.542 25.62V32H263.442V30.74H263.322C263.056 31.1533 262.656 31.52 262.122 31.84C261.589 32.16 260.949 32.32 260.202 32.32ZM260.582 30.56C261.142 30.56 261.636 30.4267 262.062 30.16C262.489 29.8933 262.822 29.5467 263.062 29.12C263.316 28.68 263.442 28.2067 263.442 27.7C263.136 27.5267 262.776 27.3867 262.362 27.28C261.949 27.16 261.509 27.1 261.042 27.1C260.162 27.1 259.536 27.28 259.162 27.64C258.789 27.9867 258.602 28.4133 258.602 28.92C258.602 29.4 258.782 29.7933 259.142 30.1C259.502 30.4067 259.982 30.56 260.582 30.56ZM267.94 32V17.68H270.1V32H267.94ZM272.667 32V17.68H274.827V32H272.667ZM281.936 32.32C280.936 32.32 280.042 32.0867 279.256 31.62C278.469 31.1533 277.849 30.5133 277.396 29.7C276.956 28.8867 276.736 27.96 276.736 26.92C276.736 25.9467 276.949 25.0467 277.376 24.22C277.802 23.3933 278.396 22.7333 279.156 22.24C279.929 21.7333 280.816 21.48 281.816 21.48C282.869 21.48 283.762 21.7067 284.496 22.16C285.242 22.6133 285.809 23.2333 286.196 24.02C286.582 24.8067 286.776 25.6933 286.776 26.68C286.776 26.8267 286.769 26.96 286.756 27.08C286.756 27.2 286.749 27.2933 286.736 27.36H278.856C278.962 28.3733 279.316 29.1333 279.916 29.64C280.529 30.1467 281.222 30.4 281.996 30.4C282.689 30.4 283.262 30.2467 283.716 29.94C284.169 29.62 284.529 29.2267 284.796 28.76L286.576 29.62C286.136 30.42 285.536 31.0733 284.776 31.58C284.016 32.0733 283.069 32.32 281.936 32.32ZM281.836 23.32C281.116 23.32 280.502 23.54 279.996 23.98C279.489 24.42 279.149 25.0067 278.976 25.74H284.636C284.609 25.3933 284.496 25.0333 284.296 24.66C284.096 24.2867 283.789 23.9733 283.376 23.72C282.976 23.4533 282.462 23.32 281.836 23.32ZM289.567 29.04V23.68H287.787V21.8H289.567V18.92H291.727V21.8H294.227V23.68H291.727V28.58C291.727 29.0867 291.827 29.4733 292.027 29.74C292.24 30.0067 292.593 30.14 293.087 30.14C293.34 30.14 293.553 30.1067 293.727 30.04C293.913 29.9733 294.1 29.88 294.287 29.76V31.86C294.06 31.9533 293.82 32.0267 293.567 32.08C293.313 32.1333 293.013 32.16 292.667 32.16C291.72 32.16 290.967 31.8867 290.407 31.34C289.847 30.78 289.567 30.0133 289.567 29.04Z" fill="white"/>
<rect x="0.5" y="0.5" width="316" height="49" rx="24.5" stroke="#747775"/>
<defs>
<linearGradient id="paint0_linear_1819_24310" x1="34.5703" y1="30.7864" x2="18.7309" y2="48.9133" gradientUnits="userSpaceOnUse">
<stop stop-color="#4285F4"/>
<stop offset="1" stop-color="#1B74E8"/>
</linearGradient>
</defs>
</svg>
