<svg width="291" height="50" viewBox="0 0 291 50" fill="none" xmlns="http://www.w3.org/2000/svg">
<rect x="0.5" y="0.5" width="290" height="49" rx="24.5" fill="#1F1F1F"/>
<path d="M51 22H21V17C21 14.2857 23.2018 12 25.8165 12H46.1835C48.7982 12 51 14.2857 51 17V22Z" fill="#34A853"/>
<path d="M51 26.0537H21V21.0537C21 18.3394 23.2018 16.0537 25.8165 16.0537H46.1835C48.7982 16.0537 51 18.3394 51 21.0537V26.0537Z" fill="#FBBC04"/>
<path d="M51 30.2468H21V25.2468C21 22.5325 23.2018 20.2468 25.8165 20.2468H46.1835C48.7982 20.2468 51 22.5325 51 25.2468V30.2468Z" fill="#EA4335"/>
<path d="M21 23.2752L40.0411 27.6789C42.2329 28.2294 44.6986 27.6789 46.4795 26.3028L51 23V33.3211C51 35.9358 48.8082 38 46.2055 38H25.7945C23.1918 38 21 35.9358 21 33.3211V23.2752Z" fill="url(#paint0_linear_1819_24044)"/>
<path d="M64.62 32V17.68H69.2C70.7067 17.68 72 17.9867 73.08 18.6C74.1733 19.2 75.0133 20.04 75.6 21.12C76.2 22.2 76.5 23.44 76.5 24.84C76.5 26.2533 76.2 27.5 75.6 28.58C75.0133 29.6467 74.1733 30.4867 73.08 31.1C72 31.7 70.7067 32 69.2 32H64.62ZM66.82 29.92H69.14C70.7667 29.92 72.0267 29.4667 72.92 28.56C73.8267 27.6533 74.28 26.4133 74.28 24.84C74.28 23.2667 73.8267 22.0267 72.92 21.12C72.0267 20.2133 70.7667 19.76 69.14 19.76H66.82V29.92ZM83.1616 32.32C82.1082 32.32 81.1816 32.08 80.3816 31.6C79.5816 31.12 78.9549 30.4733 78.5016 29.66C78.0482 28.8467 77.8216 27.9267 77.8216 26.9C77.8216 25.8867 78.0482 24.9733 78.5016 24.16C78.9549 23.3333 79.5816 22.68 80.3816 22.2C81.1816 21.72 82.1082 21.48 83.1616 21.48C84.2016 21.48 85.1216 21.72 85.9216 22.2C86.7216 22.68 87.3482 23.3333 87.8016 24.16C88.2549 24.9733 88.4816 25.8867 88.4816 26.9C88.4816 27.9267 88.2549 28.8467 87.8016 29.66C87.3482 30.4733 86.7216 31.12 85.9216 31.6C85.1216 32.08 84.2016 32.32 83.1616 32.32ZM83.1616 30.34C83.7216 30.34 84.2416 30.2067 84.7216 29.94C85.2016 29.66 85.5882 29.2667 85.8816 28.76C86.1882 28.24 86.3416 27.62 86.3416 26.9C86.3416 26.18 86.1882 25.5667 85.8816 25.06C85.5882 24.54 85.2016 24.1467 84.7216 23.88C84.2416 23.6 83.7216 23.46 83.1616 23.46C82.6016 23.46 82.0749 23.6 81.5816 23.88C81.1016 24.1467 80.7082 24.54 80.4016 25.06C80.1082 25.5667 79.9616 26.18 79.9616 26.9C79.9616 27.62 80.1082 28.24 80.4016 28.76C80.7082 29.2667 81.1016 29.66 81.5816 29.94C82.0749 30.2067 82.6016 30.34 83.1616 30.34ZM94.8309 32.32C93.9109 32.32 93.0776 32.0933 92.3309 31.64C91.5976 31.1733 91.0109 30.5333 90.5709 29.72C90.1443 28.8933 89.9309 27.9533 89.9309 26.9C89.9309 25.8467 90.1443 24.9133 90.5709 24.1C91.0109 23.2867 91.5976 22.6467 92.3309 22.18C93.0776 21.7133 93.9109 21.48 94.8309 21.48C95.6176 21.48 96.2909 21.6533 96.8509 22C97.4243 22.3467 97.8443 22.74 98.1109 23.18H98.2309L98.1109 21.76V17.68H100.251V32H98.2309V30.64H98.1109C97.8443 31.08 97.4243 31.4733 96.8509 31.82C96.2909 32.1533 95.6176 32.32 94.8309 32.32ZM95.1509 30.34C95.6843 30.34 96.1843 30.2 96.6509 29.92C97.1309 29.64 97.5109 29.2467 97.7909 28.74C98.0843 28.22 98.2309 27.6067 98.2309 26.9C98.2309 26.1933 98.0843 25.5867 97.7909 25.08C97.5109 24.56 97.1309 24.16 96.6509 23.88C96.1843 23.6 95.6843 23.46 95.1509 23.46C94.6176 23.46 94.1176 23.6 93.6509 23.88C93.1843 24.16 92.8043 24.56 92.5109 25.08C92.2176 25.5867 92.0709 26.1933 92.0709 26.9C92.0709 27.6067 92.2176 28.22 92.5109 28.74C92.8043 29.2467 93.1843 29.64 93.6509 29.92C94.1176 30.2 94.6176 30.34 95.1509 30.34ZM105.898 32.32C105.164 32.32 104.511 32.18 103.938 31.9C103.364 31.6067 102.918 31.2 102.598 30.68C102.278 30.16 102.118 29.5667 102.118 28.9C102.118 28.18 102.304 27.5667 102.678 27.06C103.064 26.54 103.578 26.1467 104.218 25.88C104.858 25.6133 105.564 25.48 106.338 25.48C106.978 25.48 107.538 25.54 108.018 25.66C108.511 25.78 108.884 25.9067 109.138 26.04V25.5C109.138 24.8333 108.898 24.3 108.418 23.9C107.938 23.5 107.318 23.3 106.558 23.3C106.038 23.3 105.544 23.42 105.078 23.66C104.611 23.8867 104.238 24.2 103.958 24.6L102.478 23.46C102.918 22.8467 103.498 22.3667 104.218 22.02C104.951 21.66 105.751 21.48 106.618 21.48C108.098 21.48 109.238 21.8467 110.038 22.58C110.838 23.3 111.238 24.3133 111.238 25.62V32H109.138V30.74H109.018C108.751 31.1533 108.351 31.52 107.818 31.84C107.284 32.16 106.644 32.32 105.898 32.32ZM106.278 30.56C106.838 30.56 107.331 30.4267 107.758 30.16C108.184 29.8933 108.518 29.5467 108.758 29.12C109.011 28.68 109.138 28.2067 109.138 27.7C108.831 27.5267 108.471 27.3867 108.058 27.28C107.644 27.16 107.204 27.1 106.738 27.1C105.858 27.1 105.231 27.28 104.858 27.64C104.484 27.9867 104.298 28.4133 104.298 28.92C104.298 29.4 104.478 29.7933 104.838 30.1C105.198 30.4067 105.678 30.56 106.278 30.56ZM114.855 20.3C114.455 20.3 114.109 20.16 113.815 19.88C113.535 19.5867 113.395 19.24 113.395 18.84C113.395 18.44 113.535 18.1 113.815 17.82C114.109 17.54 114.455 17.4 114.855 17.4C115.255 17.4 115.595 17.54 115.875 17.82C116.169 18.1 116.315 18.44 116.315 18.84C116.315 19.24 116.169 19.5867 115.875 19.88C115.595 20.16 115.255 20.3 114.855 20.3ZM112.915 36.52C112.502 36.52 112.129 36.4733 111.795 36.38V34.3C111.929 34.38 112.082 34.44 112.255 34.48C112.415 34.5333 112.575 34.56 112.735 34.56C113.122 34.56 113.389 34.44 113.535 34.2C113.695 33.9733 113.775 33.64 113.775 33.2V21.8H115.935V33.22C115.935 34.3933 115.649 35.2333 115.075 35.74C114.502 36.26 113.782 36.52 112.915 36.52ZM126.983 32.32C125.73 32.32 124.783 31.9467 124.143 31.2C123.517 30.44 123.203 29.4133 123.203 28.12V21.8H125.363V27.82C125.363 28.6867 125.563 29.3267 125.963 29.74C126.377 30.14 126.89 30.34 127.503 30.34C128.05 30.34 128.523 30.2 128.923 29.92C129.337 29.6267 129.65 29.2533 129.863 28.8C130.09 28.3333 130.203 27.8267 130.203 27.28V21.8H132.343V32H130.323V30.62H130.203C129.91 31.1 129.47 31.5067 128.883 31.84C128.31 32.16 127.677 32.32 126.983 32.32Z" fill="white"/>
<path d="M147.4 32.32C146.373 32.32 145.407 32.1333 144.5 31.76C143.607 31.3867 142.813 30.8667 142.12 30.2C141.427 29.52 140.88 28.7267 140.48 27.82C140.093 26.9 139.9 25.9067 139.9 24.84C139.9 23.7733 140.093 22.7867 140.48 21.88C140.88 20.96 141.42 20.1667 142.1 19.5C142.793 18.82 143.593 18.2933 144.5 17.92C145.407 17.5467 146.373 17.36 147.4 17.36C148.493 17.36 149.5 17.5533 150.42 17.94C151.353 18.3267 152.133 18.8667 152.76 19.56L151.24 21.06C150.773 20.54 150.213 20.14 149.56 19.86C148.92 19.58 148.2 19.44 147.4 19.44C146.453 19.44 145.58 19.6667 144.78 20.12C143.98 20.56 143.333 21.1867 142.84 22C142.36 22.8 142.12 23.7467 142.12 24.84C142.12 25.9333 142.367 26.8867 142.86 27.7C143.353 28.5 144 29.1267 144.8 29.58C145.6 30.02 146.473 30.24 147.42 30.24C148.287 30.24 149.073 30.08 149.78 29.76C150.487 29.4267 151.053 28.96 151.48 28.36C151.92 27.76 152.187 27.04 152.28 26.2H147.38V24.26H154.34C154.42 24.62 154.46 25 154.46 25.4V25.42C154.46 26.8067 154.153 28.02 153.54 29.06C152.94 30.0867 152.107 30.8867 151.04 31.46C149.973 32.0333 148.76 32.32 147.4 32.32ZM160.9 32.32C159.847 32.32 158.92 32.08 158.12 31.6C157.32 31.12 156.693 30.4733 156.24 29.66C155.787 28.8467 155.56 27.9267 155.56 26.9C155.56 25.8867 155.787 24.9733 156.24 24.16C156.693 23.3333 157.32 22.68 158.12 22.2C158.92 21.72 159.847 21.48 160.9 21.48C161.94 21.48 162.86 21.72 163.66 22.2C164.46 22.68 165.087 23.3333 165.54 24.16C165.993 24.9733 166.22 25.8867 166.22 26.9C166.22 27.9267 165.993 28.8467 165.54 29.66C165.087 30.4733 164.46 31.12 163.66 31.6C162.86 32.08 161.94 32.32 160.9 32.32ZM160.9 30.34C161.46 30.34 161.98 30.2067 162.46 29.94C162.94 29.66 163.327 29.2667 163.62 28.76C163.927 28.24 164.08 27.62 164.08 26.9C164.08 26.18 163.927 25.5667 163.62 25.06C163.327 24.54 162.94 24.1467 162.46 23.88C161.98 23.6 161.46 23.46 160.9 23.46C160.34 23.46 159.813 23.6 159.32 23.88C158.84 24.1467 158.447 24.54 158.14 25.06C157.847 25.5667 157.7 26.18 157.7 26.9C157.7 27.62 157.847 28.24 158.14 28.76C158.447 29.2667 158.84 29.66 159.32 29.94C159.813 30.2067 160.34 30.34 160.9 30.34ZM173.009 32.32C171.956 32.32 171.029 32.08 170.229 31.6C169.429 31.12 168.803 30.4733 168.349 29.66C167.896 28.8467 167.669 27.9267 167.669 26.9C167.669 25.8867 167.896 24.9733 168.349 24.16C168.803 23.3333 169.429 22.68 170.229 22.2C171.029 21.72 171.956 21.48 173.009 21.48C174.049 21.48 174.969 21.72 175.769 22.2C176.569 22.68 177.196 23.3333 177.649 24.16C178.103 24.9733 178.329 25.8867 178.329 26.9C178.329 27.9267 178.103 28.8467 177.649 29.66C177.196 30.4733 176.569 31.12 175.769 31.6C174.969 32.08 174.049 32.32 173.009 32.32ZM173.009 30.34C173.569 30.34 174.089 30.2067 174.569 29.94C175.049 29.66 175.436 29.2667 175.729 28.76C176.036 28.24 176.189 27.62 176.189 26.9C176.189 26.18 176.036 25.5667 175.729 25.06C175.436 24.54 175.049 24.1467 174.569 23.88C174.089 23.6 173.569 23.46 173.009 23.46C172.449 23.46 171.923 23.6 171.429 23.88C170.949 24.1467 170.556 24.54 170.249 25.06C169.956 25.5667 169.809 26.18 169.809 26.9C169.809 27.62 169.956 28.24 170.249 28.76C170.556 29.2667 170.949 29.66 171.429 29.94C171.923 30.2067 172.449 30.34 173.009 30.34ZM184.919 36.64C184.025 36.64 183.252 36.4933 182.599 36.2C181.959 35.92 181.439 35.5533 181.039 35.1C180.639 34.66 180.352 34.2067 180.179 33.74L182.179 32.9C182.392 33.4333 182.732 33.8667 183.199 34.2C183.679 34.5467 184.252 34.72 184.919 34.72C185.852 34.72 186.585 34.44 187.119 33.88C187.665 33.32 187.939 32.5267 187.939 31.5V30.52H187.819C187.499 31 187.052 31.3867 186.479 31.68C185.919 31.96 185.279 32.1 184.559 32.1C183.692 32.1 182.899 31.88 182.179 31.44C181.459 31 180.879 30.3867 180.439 29.6C179.999 28.8 179.779 27.8667 179.779 26.8C179.779 25.72 179.999 24.7867 180.439 24C180.879 23.2 181.459 22.58 182.179 22.14C182.899 21.7 183.692 21.48 184.559 21.48C185.279 21.48 185.919 21.6267 186.479 21.92C187.052 22.2133 187.499 22.6 187.819 23.08H187.939V21.8H189.999V31.46C189.999 32.5667 189.779 33.5067 189.339 34.28C188.912 35.0533 188.319 35.64 187.559 36.04C186.799 36.44 185.919 36.64 184.919 36.64ZM184.939 30.14C185.472 30.14 185.965 30.0133 186.419 29.76C186.872 29.4933 187.239 29.1133 187.519 28.62C187.799 28.1133 187.939 27.5067 187.939 26.8C187.939 26.0667 187.799 25.4533 187.519 24.96C187.239 24.4533 186.872 24.0733 186.419 23.82C185.965 23.5667 185.472 23.44 184.939 23.44C184.405 23.44 183.905 23.5733 183.439 23.84C182.985 24.0933 182.619 24.4667 182.339 24.96C182.059 25.4533 181.919 26.0667 181.919 26.8C181.919 27.52 182.059 28.1333 182.339 28.64C182.619 29.1333 182.985 29.5067 183.439 29.76C183.905 30.0133 184.405 30.14 184.939 30.14ZM192.546 32V17.68H194.706V32H192.546ZM201.815 32.32C200.815 32.32 199.921 32.0867 199.135 31.62C198.348 31.1533 197.728 30.5133 197.275 29.7C196.835 28.8867 196.615 27.96 196.615 26.92C196.615 25.9467 196.828 25.0467 197.255 24.22C197.681 23.3933 198.275 22.7333 199.035 22.24C199.808 21.7333 200.695 21.48 201.695 21.48C202.748 21.48 203.641 21.7067 204.375 22.16C205.121 22.6133 205.688 23.2333 206.075 24.02C206.461 24.8067 206.655 25.6933 206.655 26.68C206.655 26.8267 206.648 26.96 206.635 27.08C206.635 27.2 206.628 27.2933 206.615 27.36H198.735C198.841 28.3733 199.195 29.1333 199.795 29.64C200.408 30.1467 201.101 30.4 201.875 30.4C202.568 30.4 203.141 30.2467 203.595 29.94C204.048 29.62 204.408 29.2267 204.675 28.76L206.455 29.62C206.015 30.42 205.415 31.0733 204.655 31.58C203.895 32.0733 202.948 32.32 201.815 32.32ZM201.715 23.32C200.995 23.32 200.381 23.54 199.875 23.98C199.368 24.42 199.028 25.0067 198.855 25.74H204.515C204.488 25.3933 204.375 25.0333 204.175 24.66C203.975 24.2867 203.668 23.9733 203.255 23.72C202.855 23.4533 202.341 23.32 201.715 23.32ZM215.446 32L211.606 17.68H214.046L216.326 26.98L216.566 28.22H216.686L216.986 26.98L219.866 17.68H222.066L224.826 26.98L225.126 28.2H225.246L225.486 26.98L227.766 17.68H230.186L226.406 32H224.086L221.346 22.5L221.026 21.16H220.906L220.566 22.5L217.706 32H215.446ZM234.202 32.32C233.469 32.32 232.816 32.18 232.242 31.9C231.669 31.6067 231.222 31.2 230.902 30.68C230.582 30.16 230.422 29.5667 230.422 28.9C230.422 28.18 230.609 27.5667 230.982 27.06C231.369 26.54 231.882 26.1467 232.522 25.88C233.162 25.6133 233.869 25.48 234.642 25.48C235.282 25.48 235.842 25.54 236.322 25.66C236.816 25.78 237.189 25.9067 237.442 26.04V25.5C237.442 24.8333 237.202 24.3 236.722 23.9C236.242 23.5 235.622 23.3 234.862 23.3C234.342 23.3 233.849 23.42 233.382 23.66C232.916 23.8867 232.542 24.2 232.262 24.6L230.782 23.46C231.222 22.8467 231.802 22.3667 232.522 22.02C233.256 21.66 234.056 21.48 234.922 21.48C236.402 21.48 237.542 21.8467 238.342 22.58C239.142 23.3 239.542 24.3133 239.542 25.62V32H237.442V30.74H237.322C237.056 31.1533 236.656 31.52 236.122 31.84C235.589 32.16 234.949 32.32 234.202 32.32ZM234.582 30.56C235.142 30.56 235.636 30.4267 236.062 30.16C236.489 29.8933 236.822 29.5467 237.062 29.12C237.316 28.68 237.442 28.2067 237.442 27.7C237.136 27.5267 236.776 27.3867 236.362 27.28C235.949 27.16 235.509 27.1 235.042 27.1C234.162 27.1 233.536 27.28 233.162 27.64C232.789 27.9867 232.602 28.4133 232.602 28.92C232.602 29.4 232.782 29.7933 233.142 30.1C233.502 30.4067 233.982 30.56 234.582 30.56ZM241.94 32V17.68H244.1V32H241.94ZM246.667 32V17.68H248.827V32H246.667ZM255.936 32.32C254.936 32.32 254.042 32.0867 253.256 31.62C252.469 31.1533 251.849 30.5133 251.396 29.7C250.956 28.8867 250.736 27.96 250.736 26.92C250.736 25.9467 250.949 25.0467 251.376 24.22C251.802 23.3933 252.396 22.7333 253.156 22.24C253.929 21.7333 254.816 21.48 255.816 21.48C256.869 21.48 257.762 21.7067 258.496 22.16C259.242 22.6133 259.809 23.2333 260.196 24.02C260.582 24.8067 260.776 25.6933 260.776 26.68C260.776 26.8267 260.769 26.96 260.756 27.08C260.756 27.2 260.749 27.2933 260.736 27.36H252.856C252.962 28.3733 253.316 29.1333 253.916 29.64C254.529 30.1467 255.222 30.4 255.996 30.4C256.689 30.4 257.262 30.2467 257.716 29.94C258.169 29.62 258.529 29.2267 258.796 28.76L260.576 29.62C260.136 30.42 259.536 31.0733 258.776 31.58C258.016 32.0733 257.069 32.32 255.936 32.32ZM255.836 23.32C255.116 23.32 254.502 23.54 253.996 23.98C253.489 24.42 253.149 25.0067 252.976 25.74H258.636C258.609 25.3933 258.496 25.0333 258.296 24.66C258.096 24.2867 257.789 23.9733 257.376 23.72C256.976 23.4533 256.462 23.32 255.836 23.32ZM263.567 29.04V23.68H261.787V21.8H263.567V18.92H265.727V21.8H268.227V23.68H265.727V28.58C265.727 29.0867 265.827 29.4733 266.027 29.74C266.24 30.0067 266.593 30.14 267.087 30.14C267.34 30.14 267.553 30.1067 267.727 30.04C267.913 29.9733 268.1 29.88 268.287 29.76V31.86C268.06 31.9533 267.82 32.0267 267.567 32.08C267.313 32.1333 267.013 32.16 266.667 32.16C265.72 32.16 264.967 31.8867 264.407 31.34C263.847 30.78 263.567 30.0133 263.567 29.04Z" fill="white"/>
<rect x="0.5" y="0.5" width="290" height="49" rx="24.5" stroke="#747775"/>
<defs>
<linearGradient id="paint0_linear_1819_24044" x1="34.5703" y1="30.7864" x2="18.7309" y2="48.9133" gradientUnits="userSpaceOnUse">
<stop stop-color="#4285F4"/>
<stop offset="1" stop-color="#1B74E8"/>
</linearGradient>
</defs>
</svg>
