<svg width="339" height="50" viewBox="0 0 339 50" fill="none" xmlns="http://www.w3.org/2000/svg">
<rect x="0.5" y="0.5" width="338" height="49" rx="24.5" fill="#1F1F1F"/>
<path d="M51 22H21V17C21 14.2857 23.2018 12 25.8165 12H46.1835C48.7982 12 51 14.2857 51 17V22Z" fill="#34A853"/>
<path d="M51 26.0537H21V21.0537C21 18.3394 23.2018 16.0537 25.8165 16.0537H46.1835C48.7982 16.0537 51 18.3394 51 21.0537V26.0537Z" fill="#FBBC04"/>
<path d="M51 30.2468H21V25.2468C21 22.5325 23.2018 20.2468 25.8165 20.2468H46.1835C48.7982 20.2468 51 22.5325 51 25.2468V30.2468Z" fill="#EA4335"/>
<path d="M21 23.2752L40.0411 27.6789C42.2329 28.2294 44.6986 27.6789 46.4795 26.3028L51 23V33.3211C51 35.9358 48.8082 38 46.2055 38H25.7945C23.1918 38 21 35.9358 21 33.3211V23.2752Z" fill="url(#paint0_linear_1819_24500)"/>
<path d="M64.62 32V17.68H69.54C70.4067 17.68 71.1933 17.8667 71.9 18.24C72.6067 18.6133 73.1667 19.1267 73.58 19.78C74.0067 20.4333 74.22 21.1933 74.22 22.06C74.22 22.9267 74.0067 23.6933 73.58 24.36C73.1667 25.0133 72.6067 25.5267 71.9 25.9C71.1933 26.26 70.4067 26.44 69.54 26.44H66.82V32H64.62ZM69.6 19.76H66.82V24.36H69.6C70.12 24.36 70.56 24.2533 70.92 24.04C71.28 23.8133 71.5533 23.5267 71.74 23.18C71.94 22.82 72.04 22.4467 72.04 22.06C72.04 21.6733 71.94 21.3067 71.74 20.96C71.5533 20.6133 71.28 20.3267 70.92 20.1C70.56 19.8733 70.12 19.76 69.6 19.76ZM76.1155 32V21.8H78.1555V23.3H78.2755C78.5021 22.78 78.8888 22.3533 79.4355 22.02C79.9955 21.6733 80.5955 21.5 81.2355 21.5C81.5155 21.5 81.7488 21.52 81.9355 21.56C82.1355 21.6 82.3155 21.6467 82.4755 21.7V23.94C82.2221 23.8333 81.9621 23.7467 81.6955 23.68C81.4421 23.6133 81.1755 23.58 80.8955 23.58C80.3888 23.58 79.9355 23.72 79.5355 24C79.1488 24.2667 78.8421 24.6333 78.6155 25.1C78.3888 25.5533 78.2755 26.0533 78.2755 26.6V32H76.1155ZM85.3828 20.3C84.9828 20.3 84.6361 20.16 84.3428 19.88C84.0628 19.5867 83.9228 19.24 83.9228 18.84C83.9228 18.44 84.0628 18.1 84.3428 17.82C84.6361 17.54 84.9828 17.4 85.3828 17.4C85.7828 17.4 86.1228 17.54 86.4028 17.82C86.6961 18.1 86.8428 18.44 86.8428 18.84C86.8428 19.24 86.6961 19.5867 86.4028 19.88C86.1228 20.16 85.7828 20.3 85.3828 20.3ZM84.3028 32V21.8H86.4628V32H84.3028ZM93.4052 32.32C92.4852 32.32 91.6518 32.0933 90.9052 31.64C90.1718 31.1733 89.5852 30.5333 89.1452 29.72C88.7185 28.8933 88.5052 27.9533 88.5052 26.9C88.5052 25.8467 88.7185 24.9133 89.1452 24.1C89.5852 23.2867 90.1718 22.6467 90.9052 22.18C91.6518 21.7133 92.4852 21.48 93.4052 21.48C94.1918 21.48 94.8652 21.6533 95.4252 22C95.9985 22.3467 96.4185 22.74 96.6852 23.18H96.8052L96.6852 21.76V17.68H98.8252V32H96.8052V30.64H96.6852C96.4185 31.08 95.9985 31.4733 95.4252 31.82C94.8652 32.1533 94.1918 32.32 93.4052 32.32ZM93.7252 30.34C94.2585 30.34 94.7585 30.2 95.2252 29.92C95.7052 29.64 96.0852 29.2467 96.3652 28.74C96.6585 28.22 96.8052 27.6067 96.8052 26.9C96.8052 26.1933 96.6585 25.5867 96.3652 25.08C96.0852 24.56 95.7052 24.16 95.2252 23.88C94.7585 23.6 94.2585 23.46 93.7252 23.46C93.1918 23.46 92.6918 23.6 92.2252 23.88C91.7585 24.16 91.3785 24.56 91.0852 25.08C90.7918 25.5867 90.6452 26.1933 90.6452 26.9C90.6452 27.6067 90.7918 28.22 91.0852 28.74C91.3785 29.2467 91.7585 29.64 92.2252 29.92C92.6918 30.2 93.1918 30.34 93.7252 30.34ZM105.932 32.32C104.932 32.32 104.038 32.0867 103.252 31.62C102.465 31.1533 101.845 30.5133 101.392 29.7C100.952 28.8867 100.732 27.96 100.732 26.92C100.732 25.9467 100.945 25.0467 101.372 24.22C101.798 23.3933 102.392 22.7333 103.152 22.24C103.925 21.7333 104.812 21.48 105.812 21.48C106.865 21.48 107.758 21.7067 108.492 22.16C109.238 22.6133 109.805 23.2333 110.192 24.02C110.578 24.8067 110.772 25.6933 110.772 26.68C110.772 26.8267 110.765 26.96 110.752 27.08C110.752 27.2 110.745 27.2933 110.732 27.36H102.852C102.958 28.3733 103.312 29.1333 103.912 29.64C104.525 30.1467 105.218 30.4 105.992 30.4C106.685 30.4 107.258 30.2467 107.712 29.94C108.165 29.62 108.525 29.2267 108.792 28.76L110.572 29.62C110.132 30.42 109.532 31.0733 108.772 31.58C108.012 32.0733 107.065 32.32 105.932 32.32ZM105.832 23.32C105.112 23.32 104.498 23.54 103.992 23.98C103.485 24.42 103.145 25.0067 102.972 25.74H108.632C108.605 25.3933 108.492 25.0333 108.292 24.66C108.092 24.2867 107.785 23.9733 107.372 23.72C106.972 23.4533 106.458 23.32 105.832 23.32ZM105.812 19.8C105.465 19.8 105.165 19.6733 104.912 19.42C104.658 19.1667 104.532 18.86 104.532 18.5C104.532 18.14 104.658 17.84 104.912 17.6C105.165 17.3467 105.465 17.22 105.812 17.22C106.185 17.22 106.492 17.3467 106.732 17.6C106.972 17.84 107.092 18.14 107.092 18.5C107.092 18.86 106.972 19.1667 106.732 19.42C106.492 19.6733 106.185 19.8 105.812 19.8ZM113.563 29.04V23.68H111.783V21.8H113.563V18.92H115.723V21.8H118.223V23.68H115.723V28.58C115.723 29.0867 115.823 29.4733 116.023 29.74C116.236 30.0067 116.589 30.14 117.083 30.14C117.336 30.14 117.549 30.1067 117.723 30.04C117.909 29.9733 118.096 29.88 118.283 29.76V31.86C118.056 31.9533 117.816 32.0267 117.563 32.08C117.309 32.1333 117.009 32.16 116.663 32.16C115.716 32.16 114.963 31.8867 114.403 31.34C113.843 30.78 113.563 30.0133 113.563 29.04ZM121.633 20.3C121.233 20.3 120.886 20.16 120.593 19.88C120.313 19.5867 120.173 19.24 120.173 18.84C120.173 18.44 120.313 18.1 120.593 17.82C120.886 17.54 121.233 17.4 121.633 17.4C122.033 17.4 122.373 17.54 122.653 17.82C122.946 18.1 123.093 18.44 123.093 18.84C123.093 19.24 122.946 19.5867 122.653 19.88C122.373 20.16 122.033 20.3 121.633 20.3ZM120.553 32V21.8H122.713V32H120.553ZM130.041 36.32V21.8H132.061V23.18H132.181C132.447 22.74 132.861 22.3467 133.421 22C133.994 21.6533 134.674 21.48 135.461 21.48C136.394 21.48 137.227 21.7133 137.961 22.18C138.694 22.6467 139.274 23.2867 139.701 24.1C140.141 24.9133 140.361 25.8467 140.361 26.9C140.361 27.9533 140.141 28.8933 139.701 29.72C139.274 30.5333 138.694 31.1733 137.961 31.64C137.227 32.0933 136.394 32.32 135.461 32.32C134.674 32.32 133.994 32.1533 133.421 31.82C132.861 31.4733 132.447 31.08 132.181 30.64H132.061L132.181 32.06V36.32H130.041ZM135.141 30.34C135.674 30.34 136.174 30.2 136.641 29.92C137.107 29.64 137.487 29.2467 137.781 28.74C138.074 28.22 138.221 27.6067 138.221 26.9C138.221 26.1933 138.074 25.5867 137.781 25.08C137.487 24.56 137.107 24.16 136.641 23.88C136.174 23.6 135.674 23.46 135.141 23.46C134.607 23.46 134.107 23.6 133.641 23.88C133.174 24.16 132.794 24.56 132.501 25.08C132.207 25.5867 132.061 26.1933 132.061 26.9C132.061 27.6067 132.207 28.22 132.501 28.74C132.794 29.2467 133.174 29.64 133.641 29.92C134.107 30.2 134.607 30.34 135.141 30.34ZM142.248 32V21.8H144.288V23.3H144.408C144.635 22.78 145.022 22.3533 145.568 22.02C146.128 21.6733 146.728 21.5 147.368 21.5C147.648 21.5 147.882 21.52 148.068 21.56C148.268 21.6 148.448 21.6467 148.608 21.7V23.94C148.355 23.8333 148.095 23.7467 147.828 23.68C147.575 23.6133 147.308 23.58 147.028 23.58C146.522 23.58 146.068 23.72 145.668 24C145.282 24.2667 144.975 24.6333 144.748 25.1C144.522 25.5533 144.408 26.0533 144.408 26.6V32H142.248ZM151.516 20.3C151.116 20.3 150.769 20.16 150.476 19.88C150.196 19.5867 150.056 19.24 150.056 18.84C150.056 18.44 150.196 18.1 150.476 17.82C150.769 17.54 151.116 17.4 151.516 17.4C151.916 17.4 152.256 17.54 152.536 17.82C152.829 18.1 152.976 18.44 152.976 18.84C152.976 19.24 152.829 19.5867 152.536 19.88C152.256 20.16 151.916 20.3 151.516 20.3ZM150.436 32V21.8H152.596V32H150.436ZM159.838 32.32C158.838 32.32 157.945 32.0867 157.158 31.62C156.371 31.1533 155.751 30.5133 155.298 29.7C154.858 28.8867 154.638 27.96 154.638 26.92C154.638 25.9467 154.851 25.0467 155.278 24.22C155.705 23.3933 156.298 22.7333 157.058 22.24C157.831 21.7333 158.718 21.48 159.718 21.48C160.771 21.48 161.665 21.7067 162.398 22.16C163.145 22.6133 163.711 23.2333 164.098 24.02C164.485 24.8067 164.678 25.6933 164.678 26.68C164.678 26.8267 164.671 26.96 164.658 27.08C164.658 27.2 164.651 27.2933 164.638 27.36H156.758C156.865 28.3733 157.218 29.1333 157.818 29.64C158.431 30.1467 159.125 30.4 159.898 30.4C160.591 30.4 161.165 30.2467 161.618 29.94C162.071 29.62 162.431 29.2267 162.698 28.76L164.478 29.62C164.038 30.42 163.438 31.0733 162.678 31.58C161.918 32.0733 160.971 32.32 159.838 32.32ZM159.738 23.32C159.018 23.32 158.405 23.54 157.898 23.98C157.391 24.42 157.051 25.0067 156.878 25.74H162.538C162.511 25.3933 162.398 25.0333 162.198 24.66C161.998 24.2867 161.691 23.9733 161.278 23.72C160.878 23.4533 160.365 23.32 159.738 23.32Z" fill="white"/>
<path d="M179.4 32.32C178.373 32.32 177.407 32.1333 176.5 31.76C175.607 31.3867 174.813 30.8667 174.12 30.2C173.427 29.52 172.88 28.7267 172.48 27.82C172.093 26.9 171.9 25.9067 171.9 24.84C171.9 23.7733 172.093 22.7867 172.48 21.88C172.88 20.96 173.42 20.1667 174.1 19.5C174.793 18.82 175.593 18.2933 176.5 17.92C177.407 17.5467 178.373 17.36 179.4 17.36C180.493 17.36 181.5 17.5533 182.42 17.94C183.353 18.3267 184.133 18.8667 184.76 19.56L183.24 21.06C182.773 20.54 182.213 20.14 181.56 19.86C180.92 19.58 180.2 19.44 179.4 19.44C178.453 19.44 177.58 19.6667 176.78 20.12C175.98 20.56 175.333 21.1867 174.84 22C174.36 22.8 174.12 23.7467 174.12 24.84C174.12 25.9333 174.367 26.8867 174.86 27.7C175.353 28.5 176 29.1267 176.8 29.58C177.6 30.02 178.473 30.24 179.42 30.24C180.287 30.24 181.073 30.08 181.78 29.76C182.487 29.4267 183.053 28.96 183.48 28.36C183.92 27.76 184.187 27.04 184.28 26.2H179.38V24.26H186.34C186.42 24.62 186.46 25 186.46 25.4V25.42C186.46 26.8067 186.153 28.02 185.54 29.06C184.94 30.0867 184.107 30.8867 183.04 31.46C181.973 32.0333 180.76 32.32 179.4 32.32ZM192.9 32.32C191.847 32.32 190.92 32.08 190.12 31.6C189.32 31.12 188.693 30.4733 188.24 29.66C187.787 28.8467 187.56 27.9267 187.56 26.9C187.56 25.8867 187.787 24.9733 188.24 24.16C188.693 23.3333 189.32 22.68 190.12 22.2C190.92 21.72 191.847 21.48 192.9 21.48C193.94 21.48 194.86 21.72 195.66 22.2C196.46 22.68 197.087 23.3333 197.54 24.16C197.993 24.9733 198.22 25.8867 198.22 26.9C198.22 27.9267 197.993 28.8467 197.54 29.66C197.087 30.4733 196.46 31.12 195.66 31.6C194.86 32.08 193.94 32.32 192.9 32.32ZM192.9 30.34C193.46 30.34 193.98 30.2067 194.46 29.94C194.94 29.66 195.327 29.2667 195.62 28.76C195.927 28.24 196.08 27.62 196.08 26.9C196.08 26.18 195.927 25.5667 195.62 25.06C195.327 24.54 194.94 24.1467 194.46 23.88C193.98 23.6 193.46 23.46 192.9 23.46C192.34 23.46 191.813 23.6 191.32 23.88C190.84 24.1467 190.447 24.54 190.14 25.06C189.847 25.5667 189.7 26.18 189.7 26.9C189.7 27.62 189.847 28.24 190.14 28.76C190.447 29.2667 190.84 29.66 191.32 29.94C191.813 30.2067 192.34 30.34 192.9 30.34ZM205.009 32.32C203.956 32.32 203.029 32.08 202.229 31.6C201.429 31.12 200.803 30.4733 200.349 29.66C199.896 28.8467 199.669 27.9267 199.669 26.9C199.669 25.8867 199.896 24.9733 200.349 24.16C200.803 23.3333 201.429 22.68 202.229 22.2C203.029 21.72 203.956 21.48 205.009 21.48C206.049 21.48 206.969 21.72 207.769 22.2C208.569 22.68 209.196 23.3333 209.649 24.16C210.103 24.9733 210.329 25.8867 210.329 26.9C210.329 27.9267 210.103 28.8467 209.649 29.66C209.196 30.4733 208.569 31.12 207.769 31.6C206.969 32.08 206.049 32.32 205.009 32.32ZM205.009 30.34C205.569 30.34 206.089 30.2067 206.569 29.94C207.049 29.66 207.436 29.2667 207.729 28.76C208.036 28.24 208.189 27.62 208.189 26.9C208.189 26.18 208.036 25.5667 207.729 25.06C207.436 24.54 207.049 24.1467 206.569 23.88C206.089 23.6 205.569 23.46 205.009 23.46C204.449 23.46 203.923 23.6 203.429 23.88C202.949 24.1467 202.556 24.54 202.249 25.06C201.956 25.5667 201.809 26.18 201.809 26.9C201.809 27.62 201.956 28.24 202.249 28.76C202.556 29.2667 202.949 29.66 203.429 29.94C203.923 30.2067 204.449 30.34 205.009 30.34ZM216.919 36.64C216.025 36.64 215.252 36.4933 214.599 36.2C213.959 35.92 213.439 35.5533 213.039 35.1C212.639 34.66 212.352 34.2067 212.179 33.74L214.179 32.9C214.392 33.4333 214.732 33.8667 215.199 34.2C215.679 34.5467 216.252 34.72 216.919 34.72C217.852 34.72 218.585 34.44 219.119 33.88C219.665 33.32 219.939 32.5267 219.939 31.5V30.52H219.819C219.499 31 219.052 31.3867 218.479 31.68C217.919 31.96 217.279 32.1 216.559 32.1C215.692 32.1 214.899 31.88 214.179 31.44C213.459 31 212.879 30.3867 212.439 29.6C211.999 28.8 211.779 27.8667 211.779 26.8C211.779 25.72 211.999 24.7867 212.439 24C212.879 23.2 213.459 22.58 214.179 22.14C214.899 21.7 215.692 21.48 216.559 21.48C217.279 21.48 217.919 21.6267 218.479 21.92C219.052 22.2133 219.499 22.6 219.819 23.08H219.939V21.8H221.999V31.46C221.999 32.5667 221.779 33.5067 221.339 34.28C220.912 35.0533 220.319 35.64 219.559 36.04C218.799 36.44 217.919 36.64 216.919 36.64ZM216.939 30.14C217.472 30.14 217.965 30.0133 218.419 29.76C218.872 29.4933 219.239 29.1133 219.519 28.62C219.799 28.1133 219.939 27.5067 219.939 26.8C219.939 26.0667 219.799 25.4533 219.519 24.96C219.239 24.4533 218.872 24.0733 218.419 23.82C217.965 23.5667 217.472 23.44 216.939 23.44C216.405 23.44 215.905 23.5733 215.439 23.84C214.985 24.0933 214.619 24.4667 214.339 24.96C214.059 25.4533 213.919 26.0667 213.919 26.8C213.919 27.52 214.059 28.1333 214.339 28.64C214.619 29.1333 214.985 29.5067 215.439 29.76C215.905 30.0133 216.405 30.14 216.939 30.14ZM224.546 32V17.68H226.706V32H224.546ZM233.815 32.32C232.815 32.32 231.921 32.0867 231.135 31.62C230.348 31.1533 229.728 30.5133 229.275 29.7C228.835 28.8867 228.615 27.96 228.615 26.92C228.615 25.9467 228.828 25.0467 229.255 24.22C229.681 23.3933 230.275 22.7333 231.035 22.24C231.808 21.7333 232.695 21.48 233.695 21.48C234.748 21.48 235.641 21.7067 236.375 22.16C237.121 22.6133 237.688 23.2333 238.075 24.02C238.461 24.8067 238.655 25.6933 238.655 26.68C238.655 26.8267 238.648 26.96 238.635 27.08C238.635 27.2 238.628 27.2933 238.615 27.36H230.735C230.841 28.3733 231.195 29.1333 231.795 29.64C232.408 30.1467 233.101 30.4 233.875 30.4C234.568 30.4 235.141 30.2467 235.595 29.94C236.048 29.62 236.408 29.2267 236.675 28.76L238.455 29.62C238.015 30.42 237.415 31.0733 236.655 31.58C235.895 32.0733 234.948 32.32 233.815 32.32ZM233.715 23.32C232.995 23.32 232.381 23.54 231.875 23.98C231.368 24.42 231.028 25.0067 230.855 25.74H236.515C236.488 25.3933 236.375 25.0333 236.175 24.66C235.975 24.2867 235.668 23.9733 235.255 23.72C234.855 23.4533 234.341 23.32 233.715 23.32ZM245.686 32V17.68H250.606C251.473 17.68 252.26 17.8667 252.966 18.24C253.673 18.6133 254.233 19.1267 254.646 19.78C255.073 20.4333 255.286 21.1933 255.286 22.06C255.286 22.9267 255.073 23.6933 254.646 24.36C254.233 25.0133 253.673 25.5267 252.966 25.9C252.26 26.26 251.473 26.44 250.606 26.44H247.886V32H245.686ZM250.666 19.76H247.886V24.36H250.666C251.186 24.36 251.626 24.2533 251.986 24.04C252.346 23.8133 252.62 23.5267 252.806 23.18C253.006 22.82 253.106 22.4467 253.106 22.06C253.106 21.6733 253.006 21.3067 252.806 20.96C252.62 20.6133 252.346 20.3267 251.986 20.1C251.626 19.8733 251.186 19.76 250.666 19.76ZM258.422 20.3C258.022 20.3 257.675 20.16 257.382 19.88C257.102 19.5867 256.962 19.24 256.962 18.84C256.962 18.44 257.102 18.1 257.382 17.82C257.675 17.54 258.022 17.4 258.422 17.4C258.822 17.4 259.162 17.54 259.442 17.82C259.735 18.1 259.882 18.44 259.882 18.84C259.882 19.24 259.735 19.5867 259.442 19.88C259.162 20.16 258.822 20.3 258.422 20.3ZM257.342 32V21.8H259.502V32H257.342ZM262.182 32V21.8H264.222V23.2H264.342C264.635 22.7067 265.069 22.3 265.642 21.98C266.229 21.6467 266.869 21.48 267.562 21.48C268.815 21.48 269.755 21.8533 270.382 22.6C271.009 23.3467 271.322 24.3333 271.322 25.56V32H269.182V25.84C269.182 25.0133 268.975 24.4133 268.562 24.04C268.149 23.6533 267.609 23.46 266.942 23.46C266.422 23.46 265.969 23.6067 265.582 23.9C265.195 24.18 264.889 24.5533 264.662 25.02C264.449 25.4867 264.342 25.9867 264.342 26.52V32H262.182ZM275.023 20.3C274.623 20.3 274.277 20.16 273.983 19.88C273.703 19.5867 273.563 19.24 273.563 18.84C273.563 18.44 273.703 18.1 273.983 17.82C274.277 17.54 274.623 17.4 275.023 17.4C275.423 17.4 275.763 17.54 276.043 17.82C276.337 18.1 276.483 18.44 276.483 18.84C276.483 19.24 276.337 19.5867 276.043 19.88C275.763 20.16 275.423 20.3 275.023 20.3ZM273.943 32V21.8H276.103V32H273.943ZM283.286 36.64C282.392 36.64 281.619 36.4933 280.966 36.2C280.326 35.92 279.806 35.5533 279.406 35.1C279.006 34.66 278.719 34.2067 278.546 33.74L280.546 32.9C280.759 33.4333 281.099 33.8667 281.566 34.2C282.046 34.5467 282.619 34.72 283.286 34.72C284.219 34.72 284.952 34.44 285.486 33.88C286.032 33.32 286.306 32.5267 286.306 31.5V30.52H286.186C285.866 31 285.419 31.3867 284.846 31.68C284.286 31.96 283.646 32.1 282.926 32.1C282.059 32.1 281.266 31.88 280.546 31.44C279.826 31 279.246 30.3867 278.806 29.6C278.366 28.8 278.146 27.8667 278.146 26.8C278.146 25.72 278.366 24.7867 278.806 24C279.246 23.2 279.826 22.58 280.546 22.14C281.266 21.7 282.059 21.48 282.926 21.48C283.646 21.48 284.286 21.6267 284.846 21.92C285.419 22.2133 285.866 22.6 286.186 23.08H286.306V21.8H288.366V31.46C288.366 32.5667 288.146 33.5067 287.706 34.28C287.279 35.0533 286.686 35.64 285.926 36.04C285.166 36.44 284.286 36.64 283.286 36.64ZM283.306 30.14C283.839 30.14 284.332 30.0133 284.786 29.76C285.239 29.4933 285.606 29.1133 285.886 28.62C286.166 28.1133 286.306 27.5067 286.306 26.8C286.306 26.0667 286.166 25.4533 285.886 24.96C285.606 24.4533 285.239 24.0733 284.786 23.82C284.332 23.5667 283.839 23.44 283.306 23.44C282.772 23.44 282.272 23.5733 281.806 23.84C281.352 24.0933 280.986 24.4667 280.706 24.96C280.426 25.4533 280.286 26.0667 280.286 26.8C280.286 27.52 280.426 28.1333 280.706 28.64C280.986 29.1333 281.352 29.5067 281.806 29.76C282.272 30.0133 282.772 30.14 283.306 30.14ZM292.133 20.3C291.733 20.3 291.386 20.16 291.093 19.88C290.813 19.5867 290.673 19.24 290.673 18.84C290.673 18.44 290.813 18.1 291.093 17.82C291.386 17.54 291.733 17.4 292.133 17.4C292.533 17.4 292.873 17.54 293.153 17.82C293.446 18.1 293.593 18.44 293.593 18.84C293.593 19.24 293.446 19.5867 293.153 19.88C292.873 20.16 292.533 20.3 292.133 20.3ZM291.053 32V21.8H293.213V32H291.053ZM295.893 32V21.8H297.933V23.2H298.053C298.346 22.7067 298.779 22.3 299.353 21.98C299.939 21.6467 300.579 21.48 301.273 21.48C302.526 21.48 303.466 21.8533 304.093 22.6C304.719 23.3467 305.033 24.3333 305.033 25.56V32H302.893V25.84C302.893 25.0133 302.686 24.4133 302.273 24.04C301.859 23.6533 301.319 23.46 300.653 23.46C300.133 23.46 299.679 23.6067 299.293 23.9C298.906 24.18 298.599 24.5533 298.373 25.02C298.159 25.4867 298.053 25.9867 298.053 26.52V32H295.893ZM312.154 32.32C311.154 32.32 310.261 32.0867 309.474 31.62C308.688 31.1533 308.068 30.5133 307.614 29.7C307.174 28.8867 306.954 27.96 306.954 26.92C306.954 25.9467 307.168 25.0467 307.594 24.22C308.021 23.3933 308.614 22.7333 309.374 22.24C310.148 21.7333 311.034 21.48 312.034 21.48C313.088 21.48 313.981 21.7067 314.714 22.16C315.461 22.6133 316.028 23.2333 316.414 24.02C316.801 24.8067 316.994 25.6933 316.994 26.68C316.994 26.8267 316.988 26.96 316.974 27.08C316.974 27.2 316.968 27.2933 316.954 27.36H309.074C309.181 28.3733 309.534 29.1333 310.134 29.64C310.748 30.1467 311.441 30.4 312.214 30.4C312.908 30.4 313.481 30.2467 313.934 29.94C314.388 29.62 314.748 29.2267 315.014 28.76L316.794 29.62C316.354 30.42 315.754 31.0733 314.994 31.58C314.234 32.0733 313.288 32.32 312.154 32.32ZM312.054 23.32C311.334 23.32 310.721 23.54 310.214 23.98C309.708 24.42 309.368 25.0067 309.194 25.74H314.854C314.828 25.3933 314.714 25.0333 314.514 24.66C314.314 24.2867 314.008 23.9733 313.594 23.72C313.194 23.4533 312.681 23.32 312.054 23.32ZM312.034 19.8C311.688 19.8 311.388 19.6733 311.134 19.42C310.881 19.1667 310.754 18.86 310.754 18.5C310.754 18.14 310.881 17.84 311.134 17.6C311.388 17.3467 311.688 17.22 312.034 17.22C312.408 17.22 312.714 17.3467 312.954 17.6C313.194 17.84 313.314 18.14 313.314 18.5C313.314 18.86 313.194 19.1667 312.954 19.42C312.714 19.6733 312.408 19.8 312.034 19.8Z" fill="white"/>
<rect x="0.5" y="0.5" width="338" height="49" rx="24.5" stroke="#747775"/>
<defs>
<linearGradient id="paint0_linear_1819_24500" x1="34.5703" y1="30.7864" x2="18.7309" y2="48.9133" gradientUnits="userSpaceOnUse">
<stop stop-color="#4285F4"/>
<stop offset="1" stop-color="#1B74E8"/>
</linearGradient>
</defs>
</svg>
