<svg width="319" height="50" viewBox="0 0 319 50" fill="none" xmlns="http://www.w3.org/2000/svg">
<rect x="0.5" y="0.5" width="318" height="49" rx="24.5" fill="#1F1F1F"/>
<path d="M51 22H21V17C21 14.2857 23.2018 12 25.8165 12H46.1835C48.7982 12 51 14.2857 51 17V22Z" fill="#34A853"/>
<path d="M51 26.0537H21V21.0537C21 18.3394 23.2018 16.0537 25.8165 16.0537H46.1835C48.7982 16.0537 51 18.3394 51 21.0537V26.0537Z" fill="#FBBC04"/>
<path d="M51 30.2468H21V25.2468C21 22.5325 23.2018 20.2468 25.8165 20.2468H46.1835C48.7982 20.2468 51 22.5325 51 25.2468V30.2468Z" fill="#EA4335"/>
<path d="M21 23.2752L40.0411 27.6789C42.2329 28.2294 44.6986 27.6789 46.4795 26.3028L51 23V33.3211C51 35.9358 48.8082 38 46.2055 38H25.7945C23.1918 38 21 35.9358 21 33.3211V23.2752Z" fill="url(#paint0_linear_1819_24424)"/>
<path d="M63.3 32L68.7 17.68H71.2L76.62 32H74.2L72.88 28.32H67.04L65.72 32H63.3ZM69.36 21.9L67.78 26.28H72.14L70.56 21.9L70.02 20.26H69.9L69.36 21.9ZM82.5905 36.64C81.6971 36.64 80.9238 36.4933 80.2705 36.2C79.6305 35.92 79.1105 35.5533 78.7105 35.1C78.3105 34.66 78.0238 34.2067 77.8505 33.74L79.8505 32.9C80.0638 33.4333 80.4038 33.8667 80.8705 34.2C81.3505 34.5467 81.9238 34.72 82.5905 34.72C83.5238 34.72 84.2571 34.44 84.7905 33.88C85.3371 33.32 85.6105 32.5267 85.6105 31.5V30.52H85.4905C85.1705 31 84.7238 31.3867 84.1505 31.68C83.5905 31.96 82.9505 32.1 82.2305 32.1C81.3638 32.1 80.5705 31.88 79.8505 31.44C79.1305 31 78.5505 30.3867 78.1105 29.6C77.6705 28.8 77.4505 27.8667 77.4505 26.8C77.4505 25.72 77.6705 24.7867 78.1105 24C78.5505 23.2 79.1305 22.58 79.8505 22.14C80.5705 21.7 81.3638 21.48 82.2305 21.48C82.9505 21.48 83.5905 21.6267 84.1505 21.92C84.7238 22.2133 85.1705 22.6 85.4905 23.08H85.6105V21.8H87.6705V31.46C87.6705 32.5667 87.4505 33.5067 87.0105 34.28C86.5838 35.0533 85.9905 35.64 85.2305 36.04C84.4705 36.44 83.5905 36.64 82.5905 36.64ZM82.6105 30.14C83.1438 30.14 83.6371 30.0133 84.0905 29.76C84.5438 29.4933 84.9105 29.1133 85.1905 28.62C85.4705 28.1133 85.6105 27.5067 85.6105 26.8C85.6105 26.0667 85.4705 25.4533 85.1905 24.96C84.9105 24.4533 84.5438 24.0733 84.0905 23.82C83.6371 23.5667 83.1438 23.44 82.6105 23.44C82.0771 23.44 81.5771 23.5733 81.1105 23.84C80.6571 24.0933 80.2905 24.4667 80.0105 24.96C79.7305 25.4533 79.5905 26.0667 79.5905 26.8C79.5905 27.52 79.7305 28.1333 80.0105 28.64C80.2905 29.1333 80.6571 29.5067 81.1105 29.76C81.5771 30.0133 82.0771 30.14 82.6105 30.14ZM94.6998 36.64C93.8065 36.64 93.0332 36.4933 92.3798 36.2C91.7398 35.92 91.2198 35.5533 90.8198 35.1C90.4198 34.66 90.1332 34.2067 89.9598 33.74L91.9598 32.9C92.1732 33.4333 92.5132 33.8667 92.9798 34.2C93.4598 34.5467 94.0332 34.72 94.6998 34.72C95.6332 34.72 96.3665 34.44 96.8998 33.88C97.4465 33.32 97.7198 32.5267 97.7198 31.5V30.52H97.5998C97.2798 31 96.8332 31.3867 96.2598 31.68C95.6998 31.96 95.0598 32.1 94.3398 32.1C93.4732 32.1 92.6798 31.88 91.9598 31.44C91.2398 31 90.6598 30.3867 90.2198 29.6C89.7798 28.8 89.5598 27.8667 89.5598 26.8C89.5598 25.72 89.7798 24.7867 90.2198 24C90.6598 23.2 91.2398 22.58 91.9598 22.14C92.6798 21.7 93.4732 21.48 94.3398 21.48C95.0598 21.48 95.6998 21.6267 96.2598 21.92C96.8332 22.2133 97.2798 22.6 97.5998 23.08H97.7198V21.8H99.7798V31.46C99.7798 32.5667 99.5598 33.5067 99.1198 34.28C98.6932 35.0533 98.0998 35.64 97.3398 36.04C96.5798 36.44 95.6998 36.64 94.6998 36.64ZM94.7198 30.14C95.2532 30.14 95.7465 30.0133 96.1998 29.76C96.6532 29.4933 97.0198 29.1133 97.2998 28.62C97.5798 28.1133 97.7198 27.5067 97.7198 26.8C97.7198 26.0667 97.5798 25.4533 97.2998 24.96C97.0198 24.4533 96.6532 24.0733 96.1998 23.82C95.7465 23.5667 95.2532 23.44 94.7198 23.44C94.1865 23.44 93.6865 23.5733 93.2198 23.84C92.7665 24.0933 92.3998 24.4667 92.1198 24.96C91.8398 25.4533 91.6998 26.0667 91.6998 26.8C91.6998 27.52 91.8398 28.1333 92.1198 28.64C92.3998 29.1333 92.7665 29.5067 93.2198 29.76C93.6865 30.0133 94.1865 30.14 94.7198 30.14ZM103.547 20.3C103.147 20.3 102.8 20.16 102.507 19.88C102.227 19.5867 102.087 19.24 102.087 18.84C102.087 18.44 102.227 18.1 102.507 17.82C102.8 17.54 103.147 17.4 103.547 17.4C103.947 17.4 104.287 17.54 104.567 17.82C104.86 18.1 105.007 18.44 105.007 18.84C105.007 19.24 104.86 19.5867 104.567 19.88C104.287 20.16 103.947 20.3 103.547 20.3ZM102.467 32V21.8H104.627V32H102.467ZM111.007 32.32C109.754 32.32 108.807 31.9467 108.167 31.2C107.54 30.44 107.227 29.4133 107.227 28.12V21.8H109.387V27.82C109.387 28.6867 109.587 29.3267 109.987 29.74C110.4 30.14 110.914 30.34 111.527 30.34C112.074 30.34 112.547 30.2 112.947 29.92C113.36 29.6267 113.674 29.2533 113.887 28.8C114.114 28.3333 114.227 27.8267 114.227 27.28V21.8H116.367V32H114.347V30.62H114.227C113.934 31.1 113.494 31.5067 112.907 31.84C112.334 32.16 111.7 32.32 111.007 32.32ZM118.908 32V21.8H120.948V23.2H121.068C121.362 22.7067 121.795 22.3 122.368 21.98C122.955 21.6467 123.595 21.48 124.288 21.48C125.542 21.48 126.482 21.8533 127.108 22.6C127.735 23.3467 128.048 24.3333 128.048 25.56V32H125.908V25.84C125.908 25.0133 125.702 24.4133 125.288 24.04C124.875 23.6533 124.335 23.46 123.668 23.46C123.148 23.46 122.695 23.6067 122.308 23.9C121.922 24.18 121.615 24.5533 121.388 25.02C121.175 25.4867 121.068 25.9867 121.068 26.52V32H118.908ZM135.012 36.64C134.119 36.64 133.346 36.4933 132.692 36.2C132.052 35.92 131.532 35.5533 131.132 35.1C130.732 34.66 130.446 34.2067 130.272 33.74L132.272 32.9C132.486 33.4333 132.826 33.8667 133.292 34.2C133.772 34.5467 134.346 34.72 135.012 34.72C135.946 34.72 136.679 34.44 137.212 33.88C137.759 33.32 138.032 32.5267 138.032 31.5V30.52H137.912C137.592 31 137.146 31.3867 136.572 31.68C136.012 31.96 135.372 32.1 134.652 32.1C133.786 32.1 132.992 31.88 132.272 31.44C131.552 31 130.972 30.3867 130.532 29.6C130.092 28.8 129.872 27.8667 129.872 26.8C129.872 25.72 130.092 24.7867 130.532 24C130.972 23.2 131.552 22.58 132.272 22.14C132.992 21.7 133.786 21.48 134.652 21.48C135.372 21.48 136.012 21.6267 136.572 21.92C137.146 22.2133 137.592 22.6 137.912 23.08H138.032V21.8H140.092V31.46C140.092 32.5667 139.872 33.5067 139.432 34.28C139.006 35.0533 138.412 35.64 137.652 36.04C136.892 36.44 136.012 36.64 135.012 36.64ZM135.032 30.14C135.566 30.14 136.059 30.0133 136.512 29.76C136.966 29.4933 137.332 29.1133 137.612 28.62C137.892 28.1133 138.032 27.5067 138.032 26.8C138.032 26.0667 137.892 25.4533 137.612 24.96C137.332 24.4533 136.966 24.0733 136.512 23.82C136.059 23.5667 135.566 23.44 135.032 23.44C134.499 23.44 133.999 23.5733 133.532 23.84C133.079 24.0933 132.712 24.4667 132.432 24.96C132.152 25.4533 132.012 26.0667 132.012 26.8C132.012 27.52 132.152 28.1333 132.432 28.64C132.712 29.1333 133.079 29.5067 133.532 29.76C133.999 30.0133 134.499 30.14 135.032 30.14ZM143.859 20.3C143.459 20.3 143.113 20.16 142.819 19.88C142.539 19.5867 142.399 19.24 142.399 18.84C142.399 18.44 142.539 18.1 142.819 17.82C143.113 17.54 143.459 17.4 143.859 17.4C144.259 17.4 144.599 17.54 144.879 17.82C145.173 18.1 145.319 18.44 145.319 18.84C145.319 19.24 145.173 19.5867 144.879 19.88C144.599 20.16 144.259 20.3 143.859 20.3ZM142.779 32V21.8H144.939V32H142.779ZM155.487 32.32C154.754 32.32 154.101 32.18 153.527 31.9C152.954 31.6067 152.507 31.2 152.187 30.68C151.867 30.16 151.707 29.5667 151.707 28.9C151.707 28.18 151.894 27.5667 152.267 27.06C152.654 26.54 153.167 26.1467 153.807 25.88C154.447 25.6133 155.154 25.48 155.927 25.48C156.567 25.48 157.127 25.54 157.607 25.66C158.101 25.78 158.474 25.9067 158.727 26.04V25.5C158.727 24.8333 158.487 24.3 158.007 23.9C157.527 23.5 156.907 23.3 156.147 23.3C155.627 23.3 155.134 23.42 154.667 23.66C154.201 23.8867 153.827 24.2 153.547 24.6L152.067 23.46C152.507 22.8467 153.087 22.3667 153.807 22.02C154.541 21.66 155.341 21.48 156.207 21.48C157.687 21.48 158.827 21.8467 159.627 22.58C160.427 23.3 160.827 24.3133 160.827 25.62V32H158.727V30.74H158.607C158.341 31.1533 157.941 31.52 157.407 31.84C156.874 32.16 156.234 32.32 155.487 32.32ZM155.867 30.56C156.427 30.56 156.921 30.4267 157.347 30.16C157.774 29.8933 158.107 29.5467 158.347 29.12C158.601 28.68 158.727 28.2067 158.727 27.7C158.421 27.5267 158.061 27.3867 157.647 27.28C157.234 27.16 156.794 27.1 156.327 27.1C155.447 27.1 154.821 27.28 154.447 27.64C154.074 27.9867 153.887 28.4133 153.887 28.92C153.887 29.4 154.067 29.7933 154.427 30.1C154.787 30.4067 155.267 30.56 155.867 30.56Z" fill="white"/>
<path d="M175.4 32.32C174.373 32.32 173.407 32.1333 172.5 31.76C171.607 31.3867 170.813 30.8667 170.12 30.2C169.427 29.52 168.88 28.7267 168.48 27.82C168.093 26.9 167.9 25.9067 167.9 24.84C167.9 23.7733 168.093 22.7867 168.48 21.88C168.88 20.96 169.42 20.1667 170.1 19.5C170.793 18.82 171.593 18.2933 172.5 17.92C173.407 17.5467 174.373 17.36 175.4 17.36C176.493 17.36 177.5 17.5533 178.42 17.94C179.353 18.3267 180.133 18.8667 180.76 19.56L179.24 21.06C178.773 20.54 178.213 20.14 177.56 19.86C176.92 19.58 176.2 19.44 175.4 19.44C174.453 19.44 173.58 19.6667 172.78 20.12C171.98 20.56 171.333 21.1867 170.84 22C170.36 22.8 170.12 23.7467 170.12 24.84C170.12 25.9333 170.367 26.8867 170.86 27.7C171.353 28.5 172 29.1267 172.8 29.58C173.6 30.02 174.473 30.24 175.42 30.24C176.287 30.24 177.073 30.08 177.78 29.76C178.487 29.4267 179.053 28.96 179.48 28.36C179.92 27.76 180.187 27.04 180.28 26.2H175.38V24.26H182.34C182.42 24.62 182.46 25 182.46 25.4V25.42C182.46 26.8067 182.153 28.02 181.54 29.06C180.94 30.0867 180.107 30.8867 179.04 31.46C177.973 32.0333 176.76 32.32 175.4 32.32ZM188.9 32.32C187.847 32.32 186.92 32.08 186.12 31.6C185.32 31.12 184.693 30.4733 184.24 29.66C183.787 28.8467 183.56 27.9267 183.56 26.9C183.56 25.8867 183.787 24.9733 184.24 24.16C184.693 23.3333 185.32 22.68 186.12 22.2C186.92 21.72 187.847 21.48 188.9 21.48C189.94 21.48 190.86 21.72 191.66 22.2C192.46 22.68 193.087 23.3333 193.54 24.16C193.993 24.9733 194.22 25.8867 194.22 26.9C194.22 27.9267 193.993 28.8467 193.54 29.66C193.087 30.4733 192.46 31.12 191.66 31.6C190.86 32.08 189.94 32.32 188.9 32.32ZM188.9 30.34C189.46 30.34 189.98 30.2067 190.46 29.94C190.94 29.66 191.327 29.2667 191.62 28.76C191.927 28.24 192.08 27.62 192.08 26.9C192.08 26.18 191.927 25.5667 191.62 25.06C191.327 24.54 190.94 24.1467 190.46 23.88C189.98 23.6 189.46 23.46 188.9 23.46C188.34 23.46 187.813 23.6 187.32 23.88C186.84 24.1467 186.447 24.54 186.14 25.06C185.847 25.5667 185.7 26.18 185.7 26.9C185.7 27.62 185.847 28.24 186.14 28.76C186.447 29.2667 186.84 29.66 187.32 29.94C187.813 30.2067 188.34 30.34 188.9 30.34ZM201.009 32.32C199.956 32.32 199.029 32.08 198.229 31.6C197.429 31.12 196.803 30.4733 196.349 29.66C195.896 28.8467 195.669 27.9267 195.669 26.9C195.669 25.8867 195.896 24.9733 196.349 24.16C196.803 23.3333 197.429 22.68 198.229 22.2C199.029 21.72 199.956 21.48 201.009 21.48C202.049 21.48 202.969 21.72 203.769 22.2C204.569 22.68 205.196 23.3333 205.649 24.16C206.103 24.9733 206.329 25.8867 206.329 26.9C206.329 27.9267 206.103 28.8467 205.649 29.66C205.196 30.4733 204.569 31.12 203.769 31.6C202.969 32.08 202.049 32.32 201.009 32.32ZM201.009 30.34C201.569 30.34 202.089 30.2067 202.569 29.94C203.049 29.66 203.436 29.2667 203.729 28.76C204.036 28.24 204.189 27.62 204.189 26.9C204.189 26.18 204.036 25.5667 203.729 25.06C203.436 24.54 203.049 24.1467 202.569 23.88C202.089 23.6 201.569 23.46 201.009 23.46C200.449 23.46 199.923 23.6 199.429 23.88C198.949 24.1467 198.556 24.54 198.249 25.06C197.956 25.5667 197.809 26.18 197.809 26.9C197.809 27.62 197.956 28.24 198.249 28.76C198.556 29.2667 198.949 29.66 199.429 29.94C199.923 30.2067 200.449 30.34 201.009 30.34ZM212.919 36.64C212.025 36.64 211.252 36.4933 210.599 36.2C209.959 35.92 209.439 35.5533 209.039 35.1C208.639 34.66 208.352 34.2067 208.179 33.74L210.179 32.9C210.392 33.4333 210.732 33.8667 211.199 34.2C211.679 34.5467 212.252 34.72 212.919 34.72C213.852 34.72 214.585 34.44 215.119 33.88C215.665 33.32 215.939 32.5267 215.939 31.5V30.52H215.819C215.499 31 215.052 31.3867 214.479 31.68C213.919 31.96 213.279 32.1 212.559 32.1C211.692 32.1 210.899 31.88 210.179 31.44C209.459 31 208.879 30.3867 208.439 29.6C207.999 28.8 207.779 27.8667 207.779 26.8C207.779 25.72 207.999 24.7867 208.439 24C208.879 23.2 209.459 22.58 210.179 22.14C210.899 21.7 211.692 21.48 212.559 21.48C213.279 21.48 213.919 21.6267 214.479 21.92C215.052 22.2133 215.499 22.6 215.819 23.08H215.939V21.8H217.999V31.46C217.999 32.5667 217.779 33.5067 217.339 34.28C216.912 35.0533 216.319 35.64 215.559 36.04C214.799 36.44 213.919 36.64 212.919 36.64ZM212.939 30.14C213.472 30.14 213.965 30.0133 214.419 29.76C214.872 29.4933 215.239 29.1133 215.519 28.62C215.799 28.1133 215.939 27.5067 215.939 26.8C215.939 26.0667 215.799 25.4533 215.519 24.96C215.239 24.4533 214.872 24.0733 214.419 23.82C213.965 23.5667 213.472 23.44 212.939 23.44C212.405 23.44 211.905 23.5733 211.439 23.84C210.985 24.0933 210.619 24.4667 210.339 24.96C210.059 25.4533 209.919 26.0667 209.919 26.8C209.919 27.52 210.059 28.1333 210.339 28.64C210.619 29.1333 210.985 29.5067 211.439 29.76C211.905 30.0133 212.405 30.14 212.939 30.14ZM220.546 32V17.68H222.706V32H220.546ZM229.815 32.32C228.815 32.32 227.921 32.0867 227.135 31.62C226.348 31.1533 225.728 30.5133 225.275 29.7C224.835 28.8867 224.615 27.96 224.615 26.92C224.615 25.9467 224.828 25.0467 225.255 24.22C225.681 23.3933 226.275 22.7333 227.035 22.24C227.808 21.7333 228.695 21.48 229.695 21.48C230.748 21.48 231.641 21.7067 232.375 22.16C233.121 22.6133 233.688 23.2333 234.075 24.02C234.461 24.8067 234.655 25.6933 234.655 26.68C234.655 26.8267 234.648 26.96 234.635 27.08C234.635 27.2 234.628 27.2933 234.615 27.36H226.735C226.841 28.3733 227.195 29.1333 227.795 29.64C228.408 30.1467 229.101 30.4 229.875 30.4C230.568 30.4 231.141 30.2467 231.595 29.94C232.048 29.62 232.408 29.2267 232.675 28.76L234.455 29.62C234.015 30.42 233.415 31.0733 232.655 31.58C231.895 32.0733 230.948 32.32 229.815 32.32ZM229.715 23.32C228.995 23.32 228.381 23.54 227.875 23.98C227.368 24.42 227.028 25.0067 226.855 25.74H232.515C232.488 25.3933 232.375 25.0333 232.175 24.66C231.975 24.2867 231.668 23.9733 231.255 23.72C230.855 23.4533 230.341 23.32 229.715 23.32ZM243.446 32L239.606 17.68H242.046L244.326 26.98L244.566 28.22H244.686L244.986 26.98L247.866 17.68H250.066L252.826 26.98L253.126 28.2H253.246L253.486 26.98L255.766 17.68H258.186L254.406 32H252.086L249.346 22.5L249.026 21.16H248.906L248.566 22.5L245.706 32H243.446ZM262.202 32.32C261.469 32.32 260.816 32.18 260.242 31.9C259.669 31.6067 259.222 31.2 258.902 30.68C258.582 30.16 258.422 29.5667 258.422 28.9C258.422 28.18 258.609 27.5667 258.982 27.06C259.369 26.54 259.882 26.1467 260.522 25.88C261.162 25.6133 261.869 25.48 262.642 25.48C263.282 25.48 263.842 25.54 264.322 25.66C264.816 25.78 265.189 25.9067 265.442 26.04V25.5C265.442 24.8333 265.202 24.3 264.722 23.9C264.242 23.5 263.622 23.3 262.862 23.3C262.342 23.3 261.849 23.42 261.382 23.66C260.916 23.8867 260.542 24.2 260.262 24.6L258.782 23.46C259.222 22.8467 259.802 22.3667 260.522 22.02C261.256 21.66 262.056 21.48 262.922 21.48C264.402 21.48 265.542 21.8467 266.342 22.58C267.142 23.3 267.542 24.3133 267.542 25.62V32H265.442V30.74H265.322C265.056 31.1533 264.656 31.52 264.122 31.84C263.589 32.16 262.949 32.32 262.202 32.32ZM262.582 30.56C263.142 30.56 263.636 30.4267 264.062 30.16C264.489 29.8933 264.822 29.5467 265.062 29.12C265.316 28.68 265.442 28.2067 265.442 27.7C265.136 27.5267 264.776 27.3867 264.362 27.28C263.949 27.16 263.509 27.1 263.042 27.1C262.162 27.1 261.536 27.28 261.162 27.64C260.789 27.9867 260.602 28.4133 260.602 28.92C260.602 29.4 260.782 29.7933 261.142 30.1C261.502 30.4067 261.982 30.56 262.582 30.56ZM269.94 32V17.68H272.1V32H269.94ZM274.667 32V17.68H276.827V32H274.667ZM283.936 32.32C282.936 32.32 282.042 32.0867 281.256 31.62C280.469 31.1533 279.849 30.5133 279.396 29.7C278.956 28.8867 278.736 27.96 278.736 26.92C278.736 25.9467 278.949 25.0467 279.376 24.22C279.802 23.3933 280.396 22.7333 281.156 22.24C281.929 21.7333 282.816 21.48 283.816 21.48C284.869 21.48 285.762 21.7067 286.496 22.16C287.242 22.6133 287.809 23.2333 288.196 24.02C288.582 24.8067 288.776 25.6933 288.776 26.68C288.776 26.8267 288.769 26.96 288.756 27.08C288.756 27.2 288.749 27.2933 288.736 27.36H280.856C280.962 28.3733 281.316 29.1333 281.916 29.64C282.529 30.1467 283.222 30.4 283.996 30.4C284.689 30.4 285.262 30.2467 285.716 29.94C286.169 29.62 286.529 29.2267 286.796 28.76L288.576 29.62C288.136 30.42 287.536 31.0733 286.776 31.58C286.016 32.0733 285.069 32.32 283.936 32.32ZM283.836 23.32C283.116 23.32 282.502 23.54 281.996 23.98C281.489 24.42 281.149 25.0067 280.976 25.74H286.636C286.609 25.3933 286.496 25.0333 286.296 24.66C286.096 24.2867 285.789 23.9733 285.376 23.72C284.976 23.4533 284.462 23.32 283.836 23.32ZM291.567 29.04V23.68H289.787V21.8H291.567V18.92H293.727V21.8H296.227V23.68H293.727V28.58C293.727 29.0867 293.827 29.4733 294.027 29.74C294.24 30.0067 294.593 30.14 295.087 30.14C295.34 30.14 295.553 30.1067 295.727 30.04C295.913 29.9733 296.1 29.88 296.287 29.76V31.86C296.06 31.9533 295.82 32.0267 295.567 32.08C295.313 32.1333 295.013 32.16 294.667 32.16C293.72 32.16 292.967 31.8867 292.407 31.34C291.847 30.78 291.567 30.0133 291.567 29.04Z" fill="white"/>
<rect x="0.5" y="0.5" width="318" height="49" rx="24.5" stroke="#747775"/>
<defs>
<linearGradient id="paint0_linear_1819_24424" x1="34.5703" y1="30.7864" x2="18.7309" y2="48.9133" gradientUnits="userSpaceOnUse">
<stop stop-color="#4285F4"/>
<stop offset="1" stop-color="#1B74E8"/>
</linearGradient>
</defs>
</svg>
