<svg width="367" height="50" viewBox="0 0 367 50" fill="none" xmlns="http://www.w3.org/2000/svg">
<rect x="0.5" y="0.5" width="366" height="49" rx="24.5" fill="#1F1F1F"/>
<rect x="0.5" y="0.5" width="366" height="49" rx="24.5" stroke="#747775"/>
<path d="M51 22H21V17C21 14.2857 23.2018 12 25.8165 12H46.1835C48.7982 12 51 14.2857 51 17V22Z" fill="#34A853"/>
<path d="M51 26.0537H21V21.0537C21 18.3394 23.2018 16.0537 25.8165 16.0537H46.1835C48.7982 16.0537 51 18.3394 51 21.0537V26.0537Z" fill="#FBBC04"/>
<path d="M51 30.2471H21V25.2471C21 22.5328 23.2018 20.2471 25.8165 20.2471H46.1835C48.7982 20.2471 51 22.5328 51 25.2471V30.2471Z" fill="#EA4335"/>
<path d="M21 23.2752L40.0411 27.6789C42.2329 28.2294 44.6986 27.6789 46.4795 26.3028L51 23V33.3211C51 35.9358 48.8082 38 46.2055 38H25.7945C23.1918 38 21 35.9358 21 33.3211V23.2752Z" fill="#4285F4"/>
<path d="M67.18 32L63.34 17.68H65.78L68.06 26.98L68.3 28.22H68.42L68.72 26.98L71.6 17.68H73.8L76.56 26.98L76.86 28.2H76.98L77.22 26.98L79.5 17.68H81.92L78.14 32H75.82L73.08 22.5L72.76 21.16H72.64L72.3 22.5L69.44 32H67.18ZM87.045 32.32C86.045 32.32 85.1517 32.0867 84.365 31.62C83.5783 31.1533 82.9583 30.5133 82.505 29.7C82.065 28.8867 81.845 27.96 81.845 26.92C81.845 25.9467 82.0583 25.0467 82.485 24.22C82.9117 23.3933 83.505 22.7333 84.265 22.24C85.0383 21.7333 85.925 21.48 86.925 21.48C87.9783 21.48 88.8717 21.7067 89.605 22.16C90.3517 22.6133 90.9183 23.2333 91.305 24.02C91.6917 24.8067 91.885 25.6933 91.885 26.68C91.885 26.8267 91.8783 26.96 91.865 27.08C91.865 27.2 91.8583 27.2933 91.845 27.36H83.965C84.0183 27.92 84.1583 28.4067 84.385 28.82C84.6783 29.34 85.065 29.7333 85.545 30C86.025 30.2667 86.545 30.4 87.105 30.4C87.785 30.4 88.3517 30.2467 88.805 29.94C89.2717 29.62 89.6383 29.2267 89.905 28.76L91.685 29.62C91.245 30.42 90.645 31.0733 89.885 31.58C89.125 32.0733 88.1783 32.32 87.045 32.32ZM84.085 25.74H89.745C89.7317 25.4867 89.665 25.22 89.545 24.94C89.425 24.6467 89.2517 24.38 89.025 24.14C88.7983 23.9 88.5117 23.7067 88.165 23.56C87.8183 23.4 87.4117 23.32 86.945 23.32C86.3583 23.32 85.8383 23.4733 85.385 23.78C84.9317 24.0733 84.5783 24.4867 84.325 25.02C84.2183 25.2467 84.1383 25.4867 84.085 25.74ZM93.8889 32V17.68H96.0489V26.12L100.369 21.8H103.049V21.92L99.1089 25.82L103.189 31.88V32H100.629L97.5889 27.32L96.0489 28.84V32H93.8889ZM107.538 32.32C106.805 32.32 106.151 32.1733 105.578 31.88C105.018 31.5867 104.571 31.1867 104.238 30.68C103.918 30.16 103.758 29.5667 103.758 28.9C103.758 28.1667 103.945 27.5467 104.318 27.04C104.705 26.5333 105.218 26.1467 105.858 25.88C106.498 25.6133 107.205 25.48 107.978 25.48C108.405 25.48 108.798 25.5133 109.158 25.58C109.531 25.6333 109.851 25.7 110.118 25.78C110.398 25.86 110.618 25.9467 110.778 26.04V25.5C110.778 24.8333 110.538 24.3 110.058 23.9C109.578 23.5 108.958 23.3 108.198 23.3C107.678 23.3 107.185 23.42 106.718 23.66C106.251 23.8867 105.878 24.2 105.598 24.6L104.118 23.46C104.411 23.0467 104.765 22.6933 105.178 22.4C105.605 22.1067 106.078 21.88 106.598 21.72C107.131 21.56 107.685 21.48 108.258 21.48C109.738 21.48 110.878 21.8467 111.678 22.58C112.478 23.3 112.878 24.3133 112.878 25.62V32H110.778V30.74H110.658C110.485 31.0067 110.245 31.26 109.938 31.5C109.645 31.74 109.291 31.9333 108.878 32.08C108.478 32.24 108.031 32.32 107.538 32.32ZM107.918 30.56C108.478 30.56 108.971 30.4267 109.398 30.16C109.838 29.8933 110.178 29.5467 110.418 29.12C110.658 28.68 110.778 28.2067 110.778 27.7C110.485 27.5267 110.125 27.3867 109.698 27.28C109.285 27.16 108.845 27.1 108.378 27.1C107.498 27.1 106.871 27.2733 106.498 27.62C106.125 27.9667 105.938 28.4 105.938 28.92C105.938 29.4 106.118 29.7933 106.478 30.1C106.838 30.4067 107.318 30.56 107.918 30.56ZM119.924 32V17.68H122.084V26.12L126.404 21.8H129.084V21.92L125.144 25.82L129.224 31.88V32H126.664L123.624 27.32L122.084 28.84V32H119.924ZM132.709 32L129.449 21.8H131.789L133.889 29.14H133.969L136.269 21.8H138.489L140.789 29.14H140.869L142.969 21.8H145.269L141.989 32H139.729L137.369 24.62H137.289L134.949 32H132.709ZM151.127 32.32C150.127 32.32 149.234 32.0867 148.447 31.62C147.66 31.1533 147.04 30.5133 146.587 29.7C146.147 28.8867 145.927 27.96 145.927 26.92C145.927 25.9467 146.14 25.0467 146.567 24.22C146.994 23.3933 147.587 22.7333 148.347 22.24C149.12 21.7333 150.007 21.48 151.007 21.48C152.06 21.48 152.954 21.7067 153.687 22.16C154.434 22.6133 155 23.2333 155.387 24.02C155.774 24.8067 155.967 25.6933 155.967 26.68C155.967 26.8267 155.96 26.96 155.947 27.08C155.947 27.2 155.94 27.2933 155.927 27.36H148.047C148.1 27.92 148.24 28.4067 148.467 28.82C148.76 29.34 149.147 29.7333 149.627 30C150.107 30.2667 150.627 30.4 151.187 30.4C151.867 30.4 152.434 30.2467 152.887 29.94C153.354 29.62 153.72 29.2267 153.987 28.76L155.767 29.62C155.327 30.42 154.727 31.0733 153.967 31.58C153.207 32.0733 152.26 32.32 151.127 32.32ZM148.167 25.74H153.827C153.814 25.4867 153.747 25.22 153.627 24.94C153.507 24.6467 153.334 24.38 153.107 24.14C152.88 23.9 152.594 23.7067 152.247 23.56C151.9 23.4 151.494 23.32 151.027 23.32C150.44 23.32 149.92 23.4733 149.467 23.78C149.014 24.0733 148.66 24.4867 148.407 25.02C148.3 25.2467 148.22 25.4867 148.167 25.74ZM157.971 32V21.8H160.011V23.2H160.131C160.424 22.7067 160.858 22.3 161.431 21.98C162.018 21.6467 162.658 21.48 163.351 21.48C164.604 21.48 165.544 21.8533 166.171 22.6C166.798 23.3333 167.111 24.32 167.111 25.56V32H164.971V25.84C164.971 25.0133 164.764 24.4133 164.351 24.04C163.938 23.6533 163.398 23.46 162.731 23.46C162.211 23.46 161.758 23.6067 161.371 23.9C160.984 24.18 160.678 24.5533 160.451 25.02C160.238 25.4867 160.131 25.9867 160.131 26.52V32H157.971ZM172.779 35.82C172.739 35.9133 172.692 36.0067 172.639 36.1C172.599 36.2067 172.572 36.28 172.559 36.32H170.259C170.326 36.1733 170.419 35.9667 170.539 35.7C170.672 35.4333 170.799 35.1667 170.919 34.9C170.999 34.7267 171.079 34.54 171.159 34.34C171.252 34.14 171.346 33.9333 171.439 33.72C171.546 33.5067 171.646 33.3 171.739 33.1L172.499 31.44L168.239 21.8H170.639L173.559 28.76H173.659L176.479 21.8H178.859L173.579 33.96C173.486 34.1867 173.379 34.4267 173.259 34.68C173.152 34.9333 173.052 35.16 172.959 35.36C172.879 35.5733 172.819 35.7267 172.779 35.82ZM184.565 32.32C183.565 32.32 182.671 32.0867 181.885 31.62C181.098 31.1533 180.478 30.5133 180.025 29.7C179.585 28.8867 179.365 27.96 179.365 26.92C179.365 25.9467 179.578 25.0467 180.005 24.22C180.431 23.3933 181.025 22.7333 181.785 22.24C182.558 21.7333 183.445 21.48 184.445 21.48C185.498 21.48 186.391 21.7067 187.125 22.16C187.871 22.6133 188.438 23.2333 188.825 24.02C189.211 24.8067 189.405 25.6933 189.405 26.68C189.405 26.8267 189.398 26.96 189.385 27.08C189.385 27.2 189.378 27.2933 189.365 27.36H181.485C181.538 27.92 181.678 28.4067 181.905 28.82C182.198 29.34 182.585 29.7333 183.065 30C183.545 30.2667 184.065 30.4 184.625 30.4C185.305 30.4 185.871 30.2467 186.325 29.94C186.791 29.62 187.158 29.2267 187.425 28.76L189.205 29.62C188.765 30.42 188.165 31.0733 187.405 31.58C186.645 32.0733 185.698 32.32 184.565 32.32ZM181.605 25.74H187.265C187.251 25.4867 187.185 25.22 187.065 24.94C186.945 24.6467 186.771 24.38 186.545 24.14C186.318 23.9 186.031 23.7067 185.685 23.56C185.338 23.4 184.931 23.32 184.465 23.32C183.878 23.32 183.358 23.4733 182.905 23.78C182.451 24.0733 182.098 24.4867 181.845 25.02C181.738 25.2467 181.658 25.4867 181.605 25.74Z" fill="white"/>
<path d="M197.62 32V17.68H202.54C203.407 17.68 204.193 17.8667 204.9 18.24C205.607 18.6 206.167 19.1133 206.58 19.78C207.007 20.4333 207.22 21.1933 207.22 22.06C207.22 22.9133 207.007 23.6733 206.58 24.34C206.167 25.0067 205.607 25.5267 204.9 25.9C204.193 26.26 203.407 26.44 202.54 26.44H199.82V32H197.62ZM199.82 24.36H202.6C203.12 24.36 203.56 24.2533 203.92 24.04C204.28 23.8133 204.553 23.5267 204.74 23.18C204.94 22.82 205.04 22.4467 205.04 22.06C205.04 21.6733 204.94 21.3067 204.74 20.96C204.553 20.6133 204.28 20.3267 203.92 20.1C203.56 19.8733 203.12 19.76 202.6 19.76H199.82V24.36ZM213.212 32.32C212.159 32.32 211.232 32.08 210.432 31.6C209.632 31.12 209.006 30.4733 208.552 29.66C208.099 28.8333 207.872 27.9133 207.872 26.9C207.872 25.8867 208.099 24.9733 208.552 24.16C209.006 23.3333 209.632 22.68 210.432 22.2C211.232 21.72 212.159 21.48 213.212 21.48C214.252 21.48 215.172 21.7267 215.972 22.22C216.772 22.7 217.399 23.3467 217.852 24.16C218.306 24.9733 218.532 25.8867 218.532 26.9C218.532 27.9133 218.306 28.8333 217.852 29.66C217.399 30.4733 216.772 31.12 215.972 31.6C215.172 32.08 214.252 32.32 213.212 32.32ZM213.212 30.34C213.772 30.34 214.292 30.2067 214.772 29.94C215.252 29.66 215.639 29.2667 215.932 28.76C216.239 28.24 216.392 27.62 216.392 26.9C216.392 26.18 216.239 25.5667 215.932 25.06C215.639 24.54 215.252 24.1467 214.772 23.88C214.292 23.6 213.772 23.46 213.212 23.46C212.652 23.46 212.126 23.6 211.632 23.88C211.152 24.1467 210.759 24.54 210.452 25.06C210.159 25.5667 210.012 26.18 210.012 26.9C210.012 27.62 210.159 28.24 210.452 28.76C210.759 29.2667 211.159 29.66 211.652 29.94C212.146 30.2067 212.666 30.34 213.212 30.34ZM225.242 32.32C224.215 32.32 223.302 32.0867 222.502 31.62C221.715 31.1533 221.095 30.5133 220.642 29.7C220.202 28.8733 219.982 27.94 219.982 26.9C219.982 25.86 220.202 24.9333 220.642 24.12C221.095 23.3067 221.715 22.6667 222.502 22.2C223.302 21.72 224.215 21.48 225.242 21.48C226.375 21.48 227.328 21.7333 228.102 22.24C228.888 22.7467 229.448 23.4333 229.782 24.3L227.822 25.1C227.582 24.5533 227.235 24.1467 226.782 23.88C226.342 23.6 225.815 23.46 225.202 23.46C224.642 23.46 224.128 23.6067 223.662 23.9C223.195 24.18 222.822 24.5733 222.542 25.08C222.262 25.5867 222.122 26.1933 222.122 26.9C222.122 27.5933 222.262 28.2 222.542 28.72C222.822 29.24 223.195 29.64 223.662 29.92C224.128 30.2 224.642 30.34 225.202 30.34C225.855 30.34 226.408 30.1933 226.862 29.9C227.315 29.6067 227.668 29.1933 227.922 28.66L229.842 29.5C229.468 30.3133 228.888 30.9867 228.102 31.52C227.328 32.0533 226.375 32.32 225.242 32.32ZM231.694 32V17.68H233.854V21.6L233.734 23.2H233.854C234.134 22.7067 234.56 22.3 235.134 21.98C235.72 21.6467 236.367 21.48 237.074 21.48C237.927 21.48 238.634 21.6533 239.194 22C239.767 22.3467 240.194 22.8267 240.474 23.44C240.754 24.04 240.894 24.7467 240.894 25.56V32H238.754V25.84C238.754 25.2933 238.647 24.8467 238.434 24.5C238.234 24.1533 237.967 23.8933 237.634 23.72C237.3 23.5467 236.927 23.46 236.514 23.46C235.994 23.46 235.534 23.6067 235.134 23.9C234.734 24.1933 234.42 24.58 234.194 25.06C233.967 25.5267 233.854 26.0267 233.854 26.56V32H231.694ZM243.514 32V21.8H245.674V32H243.514ZM244.594 20.3C244.194 20.3 243.847 20.16 243.554 19.88C243.274 19.5867 243.134 19.24 243.134 18.84C243.134 18.4267 243.274 18.0867 243.554 17.82C243.847 17.54 244.194 17.4 244.594 17.4C245.007 17.4 245.354 17.54 245.634 17.82C245.914 18.0867 246.054 18.4267 246.054 18.84C246.054 19.24 245.914 19.5867 245.634 19.88C245.354 20.16 245.007 20.3 244.594 20.3ZM256.502 35.82C256.462 35.9133 256.415 36.0067 256.362 36.1C256.322 36.2067 256.295 36.28 256.282 36.32H253.982C254.048 36.1733 254.142 35.9667 254.262 35.7C254.395 35.4333 254.522 35.1667 254.642 34.9C254.722 34.7267 254.802 34.54 254.882 34.34C254.975 34.14 255.068 33.9333 255.162 33.72C255.268 33.5067 255.368 33.3 255.462 33.1L256.222 31.44L251.962 21.8H254.362L257.282 28.76H257.382L260.202 21.8H262.582L257.302 33.96C257.208 34.1867 257.102 34.4267 256.982 34.68C256.875 34.9333 256.775 35.16 256.682 35.36C256.602 35.5733 256.542 35.7267 256.502 35.82ZM266.71 32.32C265.977 32.32 265.323 32.1733 264.75 31.88C264.19 31.5867 263.743 31.1867 263.41 30.68C263.09 30.16 262.93 29.5667 262.93 28.9C262.93 28.1667 263.117 27.5467 263.49 27.04C263.877 26.5333 264.39 26.1467 265.03 25.88C265.67 25.6133 266.377 25.48 267.15 25.48C267.577 25.48 267.97 25.5133 268.33 25.58C268.703 25.6333 269.023 25.7 269.29 25.78C269.57 25.86 269.79 25.9467 269.95 26.04V25.5C269.95 24.8333 269.71 24.3 269.23 23.9C268.75 23.5 268.13 23.3 267.37 23.3C266.85 23.3 266.357 23.42 265.89 23.66C265.423 23.8867 265.05 24.2 264.77 24.6L263.29 23.46C263.583 23.0467 263.937 22.6933 264.35 22.4C264.777 22.1067 265.25 21.88 265.77 21.72C266.303 21.56 266.857 21.48 267.43 21.48C268.91 21.48 270.05 21.8467 270.85 22.58C271.65 23.3 272.05 24.3133 272.05 25.62V32H269.95V30.74H269.83C269.657 31.0067 269.417 31.26 269.11 31.5C268.817 31.74 268.463 31.9333 268.05 32.08C267.65 32.24 267.203 32.32 266.71 32.32ZM267.09 30.56C267.65 30.56 268.143 30.4267 268.57 30.16C269.01 29.8933 269.35 29.5467 269.59 29.12C269.83 28.68 269.95 28.2067 269.95 27.7C269.657 27.5267 269.297 27.3867 268.87 27.28C268.457 27.16 268.017 27.1 267.55 27.1C266.67 27.1 266.043 27.2733 265.67 27.62C265.297 27.9667 265.11 28.4 265.11 28.92C265.11 29.4 265.29 29.7933 265.65 30.1C266.01 30.4067 266.49 30.56 267.09 30.56ZM285.845 32.32C284.819 32.32 283.852 32.1333 282.945 31.76C282.039 31.3867 281.239 30.8667 280.545 30.2C279.865 29.52 279.325 28.7267 278.925 27.82C278.539 26.9 278.345 25.9067 278.345 24.84C278.345 23.7733 278.539 22.7867 278.925 21.88C279.325 20.96 279.865 20.1667 280.545 19.5C281.239 18.82 282.039 18.2933 282.945 17.92C283.852 17.5467 284.819 17.36 285.845 17.36C286.939 17.36 287.945 17.5533 288.865 17.94C289.799 18.3267 290.579 18.8667 291.205 19.56L289.685 21.06C289.379 20.7133 289.025 20.42 288.625 20.18C288.239 19.94 287.812 19.76 287.345 19.64C286.879 19.5067 286.379 19.44 285.845 19.44C285.139 19.44 284.465 19.5667 283.825 19.82C283.185 20.0733 282.619 20.44 282.125 20.92C281.645 21.3867 281.265 21.9533 280.985 22.62C280.705 23.2733 280.565 24.0133 280.565 24.84C280.565 25.6667 280.705 26.4133 280.985 27.08C281.279 27.7333 281.665 28.3 282.145 28.78C282.639 29.2467 283.205 29.6067 283.845 29.86C284.485 30.1133 285.159 30.24 285.865 30.24C286.519 30.24 287.125 30.1467 287.685 29.96C288.259 29.7733 288.759 29.5067 289.185 29.16C289.612 28.8133 289.959 28.3933 290.225 27.9C290.492 27.3933 290.659 26.8267 290.725 26.2H285.825V24.26H292.785C292.812 24.42 292.839 24.6067 292.865 24.82C292.892 25.02 292.905 25.2133 292.905 25.4V25.42C292.905 26.4467 292.725 27.3867 292.365 28.24C292.019 29.0933 291.532 29.8267 290.905 30.44C290.279 31.04 289.532 31.5067 288.665 31.84C287.812 32.16 286.872 32.32 285.845 32.32ZM299.345 32.32C298.292 32.32 297.365 32.08 296.565 31.6C295.765 31.12 295.138 30.4733 294.685 29.66C294.232 28.8333 294.005 27.9133 294.005 26.9C294.005 25.8867 294.232 24.9733 294.685 24.16C295.138 23.3333 295.765 22.68 296.565 22.2C297.365 21.72 298.292 21.48 299.345 21.48C300.385 21.48 301.305 21.7267 302.105 22.22C302.905 22.7 303.532 23.3467 303.985 24.16C304.438 24.9733 304.665 25.8867 304.665 26.9C304.665 27.9133 304.438 28.8333 303.985 29.66C303.532 30.4733 302.905 31.12 302.105 31.6C301.305 32.08 300.385 32.32 299.345 32.32ZM299.345 30.34C299.905 30.34 300.425 30.2067 300.905 29.94C301.385 29.66 301.772 29.2667 302.065 28.76C302.372 28.24 302.525 27.62 302.525 26.9C302.525 26.18 302.372 25.5667 302.065 25.06C301.772 24.54 301.385 24.1467 300.905 23.88C300.425 23.6 299.905 23.46 299.345 23.46C298.785 23.46 298.258 23.6 297.765 23.88C297.285 24.1467 296.892 24.54 296.585 25.06C296.292 25.5667 296.145 26.18 296.145 26.9C296.145 27.62 296.292 28.24 296.585 28.76C296.892 29.2667 297.292 29.66 297.785 29.94C298.278 30.2067 298.798 30.34 299.345 30.34ZM311.455 32.32C310.401 32.32 309.475 32.08 308.675 31.6C307.875 31.12 307.248 30.4733 306.795 29.66C306.341 28.8333 306.115 27.9133 306.115 26.9C306.115 25.8867 306.341 24.9733 306.795 24.16C307.248 23.3333 307.875 22.68 308.675 22.2C309.475 21.72 310.401 21.48 311.455 21.48C312.495 21.48 313.415 21.7267 314.215 22.22C315.015 22.7 315.641 23.3467 316.095 24.16C316.548 24.9733 316.775 25.8867 316.775 26.9C316.775 27.9133 316.548 28.8333 316.095 29.66C315.641 30.4733 315.015 31.12 314.215 31.6C313.415 32.08 312.495 32.32 311.455 32.32ZM311.455 30.34C312.015 30.34 312.535 30.2067 313.015 29.94C313.495 29.66 313.881 29.2667 314.175 28.76C314.481 28.24 314.635 27.62 314.635 26.9C314.635 26.18 314.481 25.5667 314.175 25.06C313.881 24.54 313.495 24.1467 313.015 23.88C312.535 23.6 312.015 23.46 311.455 23.46C310.895 23.46 310.368 23.6 309.875 23.88C309.395 24.1467 309.001 24.54 308.695 25.06C308.401 25.5667 308.255 26.18 308.255 26.9C308.255 27.62 308.401 28.24 308.695 28.76C309.001 29.2667 309.401 29.66 309.895 29.94C310.388 30.2067 310.908 30.34 311.455 30.34ZM323.364 36.64C322.471 36.64 321.697 36.4933 321.044 36.2C320.404 35.92 319.884 35.5533 319.484 35.1C319.084 34.66 318.797 34.2067 318.624 33.74L320.624 32.9C320.837 33.4333 321.177 33.8667 321.644 34.2C322.124 34.5467 322.697 34.72 323.364 34.72C324.311 34.72 325.051 34.44 325.584 33.88C326.117 33.32 326.384 32.5267 326.384 31.5V30.52H326.264C325.944 30.9867 325.504 31.3667 324.944 31.66C324.384 31.9533 323.737 32.1 323.004 32.1C322.137 32.1 321.337 31.88 320.604 31.44C319.884 31 319.304 30.3867 318.864 29.6C318.437 28.8 318.224 27.8667 318.224 26.8C318.224 25.72 318.437 24.7867 318.864 24C319.304 23.2 319.884 22.58 320.604 22.14C321.337 21.7 322.137 21.48 323.004 21.48C323.737 21.48 324.384 21.6267 324.944 21.92C325.504 22.2 325.944 22.5867 326.264 23.08H326.384V21.8H328.444V31.46C328.444 32.5667 328.224 33.5067 327.784 34.28C327.357 35.0533 326.764 35.64 326.004 36.04C325.244 36.44 324.364 36.64 323.364 36.64ZM323.384 30.14C323.917 30.14 324.411 30.0133 324.864 29.76C325.331 29.4933 325.697 29.1133 325.964 28.62C326.244 28.1133 326.384 27.5067 326.384 26.8C326.384 26.0533 326.244 25.4333 325.964 24.94C325.697 24.4467 325.331 24.0733 324.864 23.82C324.411 23.5667 323.917 23.44 323.384 23.44C322.851 23.44 322.351 23.5667 321.884 23.82C321.431 24.0733 321.064 24.4533 320.784 24.96C320.504 25.4533 320.364 26.0667 320.364 26.8C320.364 27.52 320.504 28.1333 320.784 28.64C321.064 29.1333 321.431 29.5067 321.884 29.76C322.351 30.0133 322.851 30.14 323.384 30.14ZM330.991 32V17.68H333.151V32H330.991ZM340.26 32.32C339.26 32.32 338.367 32.0867 337.58 31.62C336.793 31.1533 336.173 30.5133 335.72 29.7C335.28 28.8867 335.06 27.96 335.06 26.92C335.06 25.9467 335.273 25.0467 335.7 24.22C336.127 23.3933 336.72 22.7333 337.48 22.24C338.253 21.7333 339.14 21.48 340.14 21.48C341.193 21.48 342.087 21.7067 342.82 22.16C343.567 22.6133 344.133 23.2333 344.52 24.02C344.907 24.8067 345.1 25.6933 345.1 26.68C345.1 26.8267 345.093 26.96 345.08 27.08C345.08 27.2 345.073 27.2933 345.06 27.36H337.18C337.233 27.92 337.373 28.4067 337.6 28.82C337.893 29.34 338.28 29.7333 338.76 30C339.24 30.2667 339.76 30.4 340.32 30.4C341 30.4 341.567 30.2467 342.02 29.94C342.487 29.62 342.853 29.2267 343.12 28.76L344.9 29.62C344.46 30.42 343.86 31.0733 343.1 31.58C342.34 32.0733 341.393 32.32 340.26 32.32ZM337.3 25.74H342.96C342.947 25.4867 342.88 25.22 342.76 24.94C342.64 24.6467 342.467 24.38 342.24 24.14C342.013 23.9 341.727 23.7067 341.38 23.56C341.033 23.4 340.627 23.32 340.16 23.32C339.573 23.32 339.053 23.4733 338.6 23.78C338.147 24.0733 337.793 24.4867 337.54 25.02C337.433 25.2467 337.353 25.4867 337.3 25.74Z" fill="white"/>
</svg>
