<svg width="354" height="50" viewBox="0 0 354 50" fill="none" xmlns="http://www.w3.org/2000/svg">
<rect x="0.5" y="0.5" width="353" height="49" rx="24.5" fill="#1F1F1F"/>
<path d="M51 22H21V17C21 14.2857 23.2018 12 25.8165 12H46.1835C48.7982 12 51 14.2857 51 17V22Z" fill="#34A853"/>
<path d="M51 26.0537H21V21.0537C21 18.3394 23.2018 16.0537 25.8165 16.0537H46.1835C48.7982 16.0537 51 18.3394 51 21.0537V26.0537Z" fill="#FBBC04"/>
<path d="M51 30.2468H21V25.2468C21 22.5325 23.2018 20.2468 25.8165 20.2468H46.1835C48.7982 20.2468 51 22.5325 51 25.2468V30.2468Z" fill="#EA4335"/>
<path d="M21 23.2752L40.0411 27.6789C42.2329 28.2294 44.6986 27.6789 46.4795 26.3028L51 23V33.3211C51 35.9358 48.8082 38 46.2055 38H25.7945C23.1918 38 21 35.9358 21 33.3211V23.2752Z" fill="url(#paint0_linear_1819_24329)"/>
<path d="M64.62 32V17.68H66.82V23.64H73.52V17.68H75.7V32H73.52V25.72H66.82V32H64.62ZM79.8164 20.3C79.4164 20.3 79.0697 20.16 78.7764 19.88C78.4964 19.5867 78.3564 19.24 78.3564 18.84C78.3564 18.44 78.4964 18.1 78.7764 17.82C79.0697 17.54 79.4164 17.4 79.8164 17.4C80.2164 17.4 80.5564 17.54 80.8364 17.82C81.1297 18.1 81.2764 18.44 81.2764 18.84C81.2764 19.24 81.1297 19.5867 80.8364 19.88C80.5564 20.16 80.2164 20.3 79.8164 20.3ZM78.7364 32V21.8H80.8964V32H78.7364ZM83.5764 32V21.8H85.6164V23.2H85.7364C86.0297 22.7067 86.4631 22.3 87.0364 21.98C87.6231 21.6467 88.2631 21.48 88.9564 21.48C90.2097 21.48 91.1497 21.8533 91.7764 22.6C92.4031 23.3467 92.7164 24.3333 92.7164 25.56V32H90.5764V25.84C90.5764 25.0133 90.3697 24.4133 89.9564 24.04C89.5431 23.6533 89.0031 23.46 88.3364 23.46C87.8164 23.46 87.3631 23.6067 86.9764 23.9C86.5897 24.18 86.2831 24.5533 86.0564 25.02C85.8431 25.4867 85.7364 25.9867 85.7364 26.52V32H83.5764ZM94.658 32V30.2L100.338 23.68H94.838V21.8H102.978V23.6L97.318 30.12H103.138V32H94.658ZM108.858 32.32C107.605 32.32 106.658 31.9467 106.018 31.2C105.392 30.44 105.078 29.4133 105.078 28.12V21.8H107.238V27.82C107.238 28.6867 107.438 29.3267 107.838 29.74C108.252 30.14 108.765 30.34 109.378 30.34C109.925 30.34 110.398 30.2 110.798 29.92C111.212 29.6267 111.525 29.2533 111.738 28.8C111.965 28.3333 112.078 27.8267 112.078 27.28V21.8H114.218V32H112.198V30.62H112.078C111.785 31.1 111.345 31.5067 110.758 31.84C110.185 32.16 109.552 32.32 108.858 32.32ZM118.018 32V23.68H116.158V21.8H118.018V20.96C118.018 20.24 118.171 19.6267 118.478 19.12C118.784 18.6 119.198 18.2067 119.718 17.94C120.251 17.66 120.851 17.52 121.518 17.52C121.878 17.52 122.184 17.5467 122.438 17.6C122.704 17.64 122.924 17.6933 123.098 17.76V19.86C122.924 19.7933 122.724 19.7267 122.498 19.66C122.284 19.58 122.018 19.54 121.698 19.54C121.284 19.54 120.924 19.68 120.618 19.96C120.311 20.2267 120.158 20.62 120.158 21.14V21.8H122.718V23.68H120.158V32H118.018ZM128.292 32.32C127.039 32.32 126.092 31.9467 125.452 31.2C124.825 30.44 124.512 29.4133 124.512 28.12V21.8H126.672V27.82C126.672 28.6867 126.872 29.3267 127.272 29.74C127.685 30.14 128.199 30.34 128.812 30.34C129.359 30.34 129.832 30.2 130.232 29.92C130.645 29.6267 130.959 29.2533 131.172 28.8C131.399 28.3333 131.512 27.8267 131.512 27.28V21.8H133.652V32H131.632V30.62H131.512C131.219 31.1 130.779 31.5067 130.192 31.84C129.619 32.16 128.985 32.32 128.292 32.32ZM130.852 19.72C130.519 19.72 130.225 19.6 129.972 19.36C129.732 19.1067 129.612 18.8067 129.612 18.46C129.612 18.1133 129.732 17.8267 129.972 17.6C130.225 17.36 130.519 17.24 130.852 17.24C131.212 17.24 131.512 17.36 131.752 17.6C131.992 17.8267 132.112 18.1133 132.112 18.46C132.112 18.8067 131.992 19.1067 131.752 19.36C131.512 19.6 131.212 19.72 130.852 19.72ZM127.312 19.72C126.979 19.72 126.685 19.6 126.432 19.36C126.192 19.1067 126.072 18.8067 126.072 18.46C126.072 18.1133 126.192 17.8267 126.432 17.6C126.685 17.36 126.979 17.24 127.312 17.24C127.672 17.24 127.965 17.36 128.192 17.6C128.432 17.8267 128.552 18.1133 128.552 18.46C128.552 18.8067 128.432 19.1067 128.192 19.36C127.965 19.6 127.672 19.72 127.312 19.72ZM140.696 36.64C139.803 36.64 139.029 36.4933 138.376 36.2C137.736 35.92 137.216 35.5533 136.816 35.1C136.416 34.66 136.129 34.2067 135.956 33.74L137.956 32.9C138.169 33.4333 138.509 33.8667 138.976 34.2C139.456 34.5467 140.029 34.72 140.696 34.72C141.629 34.72 142.363 34.44 142.896 33.88C143.443 33.32 143.716 32.5267 143.716 31.5V30.52H143.596C143.276 31 142.829 31.3867 142.256 31.68C141.696 31.96 141.056 32.1 140.336 32.1C139.469 32.1 138.676 31.88 137.956 31.44C137.236 31 136.656 30.3867 136.216 29.6C135.776 28.8 135.556 27.8667 135.556 26.8C135.556 25.72 135.776 24.7867 136.216 24C136.656 23.2 137.236 22.58 137.956 22.14C138.676 21.7 139.469 21.48 140.336 21.48C141.056 21.48 141.696 21.6267 142.256 21.92C142.829 22.2133 143.276 22.6 143.596 23.08H143.716V21.8H145.776V31.46C145.776 32.5667 145.556 33.5067 145.116 34.28C144.689 35.0533 144.096 35.64 143.336 36.04C142.576 36.44 141.696 36.64 140.696 36.64ZM140.716 30.14C141.249 30.14 141.743 30.0133 142.196 29.76C142.649 29.4933 143.016 29.1133 143.296 28.62C143.576 28.1133 143.716 27.5067 143.716 26.8C143.716 26.0667 143.576 25.4533 143.296 24.96C143.016 24.4533 142.649 24.0733 142.196 23.82C141.743 23.5667 141.249 23.44 140.716 23.44C140.183 23.44 139.683 23.5733 139.216 23.84C138.763 24.0933 138.396 24.4667 138.116 24.96C137.836 25.4533 137.696 26.0667 137.696 26.8C137.696 27.52 137.836 28.1333 138.116 28.64C138.396 29.1333 138.763 29.5067 139.216 29.76C139.683 30.0133 140.183 30.14 140.716 30.14ZM152.865 32.32C151.865 32.32 150.972 32.0867 150.185 31.62C149.399 31.1533 148.779 30.5133 148.325 29.7C147.885 28.8867 147.665 27.96 147.665 26.92C147.665 25.9467 147.879 25.0467 148.305 24.22C148.732 23.3933 149.325 22.7333 150.085 22.24C150.859 21.7333 151.745 21.48 152.745 21.48C153.799 21.48 154.692 21.7067 155.425 22.16C156.172 22.6133 156.739 23.2333 157.125 24.02C157.512 24.8067 157.705 25.6933 157.705 26.68C157.705 26.8267 157.699 26.96 157.685 27.08C157.685 27.2 157.679 27.2933 157.665 27.36H149.785C149.892 28.3733 150.245 29.1333 150.845 29.64C151.459 30.1467 152.152 30.4 152.925 30.4C153.619 30.4 154.192 30.2467 154.645 29.94C155.099 29.62 155.459 29.2267 155.725 28.76L157.505 29.62C157.065 30.42 156.465 31.0733 155.705 31.58C154.945 32.0733 153.999 32.32 152.865 32.32ZM152.765 23.32C152.045 23.32 151.432 23.54 150.925 23.98C150.419 24.42 150.079 25.0067 149.905 25.74H155.565C155.539 25.3933 155.425 25.0333 155.225 24.66C155.025 24.2867 154.719 23.9733 154.305 23.72C153.905 23.4533 153.392 23.32 152.765 23.32ZM159.709 32V21.8H161.749V23.2H161.869C162.163 22.7067 162.596 22.3 163.169 21.98C163.756 21.6467 164.396 21.48 165.089 21.48C166.343 21.48 167.283 21.8533 167.909 22.6C168.536 23.3467 168.849 24.3333 168.849 25.56V32H166.709V25.84C166.709 25.0133 166.503 24.4133 166.089 24.04C165.676 23.6533 165.136 23.46 164.469 23.46C163.949 23.46 163.496 23.6067 163.109 23.9C162.723 24.18 162.416 24.5533 162.189 25.02C161.976 25.4867 161.869 25.9867 161.869 26.52V32H159.709ZM175.459 32V30.2L181.139 23.68H175.639V21.8H183.779V23.6L178.119 30.12H183.939V32H175.459ZM189.659 32.32C188.406 32.32 187.459 31.9467 186.819 31.2C186.193 30.44 185.879 29.4133 185.879 28.12V21.8H188.039V27.82C188.039 28.6867 188.239 29.3267 188.639 29.74C189.053 30.14 189.566 30.34 190.179 30.34C190.726 30.34 191.199 30.2 191.599 29.92C192.013 29.6267 192.326 29.2533 192.539 28.8C192.766 28.3333 192.879 27.8267 192.879 27.28V21.8H195.019V32H192.999V30.62H192.879C192.586 31.1 192.146 31.5067 191.559 31.84C190.986 32.16 190.353 32.32 189.659 32.32Z" fill="white"/>
<path d="M210.4 32.32C209.373 32.32 208.407 32.1333 207.5 31.76C206.607 31.3867 205.813 30.8667 205.12 30.2C204.427 29.52 203.88 28.7267 203.48 27.82C203.093 26.9 202.9 25.9067 202.9 24.84C202.9 23.7733 203.093 22.7867 203.48 21.88C203.88 20.96 204.42 20.1667 205.1 19.5C205.793 18.82 206.593 18.2933 207.5 17.92C208.407 17.5467 209.373 17.36 210.4 17.36C211.493 17.36 212.5 17.5533 213.42 17.94C214.353 18.3267 215.133 18.8667 215.76 19.56L214.24 21.06C213.773 20.54 213.213 20.14 212.56 19.86C211.92 19.58 211.2 19.44 210.4 19.44C209.453 19.44 208.58 19.6667 207.78 20.12C206.98 20.56 206.333 21.1867 205.84 22C205.36 22.8 205.12 23.7467 205.12 24.84C205.12 25.9333 205.367 26.8867 205.86 27.7C206.353 28.5 207 29.1267 207.8 29.58C208.6 30.02 209.473 30.24 210.42 30.24C211.287 30.24 212.073 30.08 212.78 29.76C213.487 29.4267 214.053 28.96 214.48 28.36C214.92 27.76 215.187 27.04 215.28 26.2H210.38V24.26H217.34C217.42 24.62 217.46 25 217.46 25.4V25.42C217.46 26.8067 217.153 28.02 216.54 29.06C215.94 30.0867 215.107 30.8867 214.04 31.46C212.973 32.0333 211.76 32.32 210.4 32.32ZM223.9 32.32C222.847 32.32 221.92 32.08 221.12 31.6C220.32 31.12 219.693 30.4733 219.24 29.66C218.787 28.8467 218.56 27.9267 218.56 26.9C218.56 25.8867 218.787 24.9733 219.24 24.16C219.693 23.3333 220.32 22.68 221.12 22.2C221.92 21.72 222.847 21.48 223.9 21.48C224.94 21.48 225.86 21.72 226.66 22.2C227.46 22.68 228.087 23.3333 228.54 24.16C228.993 24.9733 229.22 25.8867 229.22 26.9C229.22 27.9267 228.993 28.8467 228.54 29.66C228.087 30.4733 227.46 31.12 226.66 31.6C225.86 32.08 224.94 32.32 223.9 32.32ZM223.9 30.34C224.46 30.34 224.98 30.2067 225.46 29.94C225.94 29.66 226.327 29.2667 226.62 28.76C226.927 28.24 227.08 27.62 227.08 26.9C227.08 26.18 226.927 25.5667 226.62 25.06C226.327 24.54 225.94 24.1467 225.46 23.88C224.98 23.6 224.46 23.46 223.9 23.46C223.34 23.46 222.813 23.6 222.32 23.88C221.84 24.1467 221.447 24.54 221.14 25.06C220.847 25.5667 220.7 26.18 220.7 26.9C220.7 27.62 220.847 28.24 221.14 28.76C221.447 29.2667 221.84 29.66 222.32 29.94C222.813 30.2067 223.34 30.34 223.9 30.34ZM236.009 32.32C234.956 32.32 234.029 32.08 233.229 31.6C232.429 31.12 231.803 30.4733 231.349 29.66C230.896 28.8467 230.669 27.9267 230.669 26.9C230.669 25.8867 230.896 24.9733 231.349 24.16C231.803 23.3333 232.429 22.68 233.229 22.2C234.029 21.72 234.956 21.48 236.009 21.48C237.049 21.48 237.969 21.72 238.769 22.2C239.569 22.68 240.196 23.3333 240.649 24.16C241.103 24.9733 241.329 25.8867 241.329 26.9C241.329 27.9267 241.103 28.8467 240.649 29.66C240.196 30.4733 239.569 31.12 238.769 31.6C237.969 32.08 237.049 32.32 236.009 32.32ZM236.009 30.34C236.569 30.34 237.089 30.2067 237.569 29.94C238.049 29.66 238.436 29.2667 238.729 28.76C239.036 28.24 239.189 27.62 239.189 26.9C239.189 26.18 239.036 25.5667 238.729 25.06C238.436 24.54 238.049 24.1467 237.569 23.88C237.089 23.6 236.569 23.46 236.009 23.46C235.449 23.46 234.923 23.6 234.429 23.88C233.949 24.1467 233.556 24.54 233.249 25.06C232.956 25.5667 232.809 26.18 232.809 26.9C232.809 27.62 232.956 28.24 233.249 28.76C233.556 29.2667 233.949 29.66 234.429 29.94C234.923 30.2067 235.449 30.34 236.009 30.34ZM247.919 36.64C247.025 36.64 246.252 36.4933 245.599 36.2C244.959 35.92 244.439 35.5533 244.039 35.1C243.639 34.66 243.352 34.2067 243.179 33.74L245.179 32.9C245.392 33.4333 245.732 33.8667 246.199 34.2C246.679 34.5467 247.252 34.72 247.919 34.72C248.852 34.72 249.585 34.44 250.119 33.88C250.665 33.32 250.939 32.5267 250.939 31.5V30.52H250.819C250.499 31 250.052 31.3867 249.479 31.68C248.919 31.96 248.279 32.1 247.559 32.1C246.692 32.1 245.899 31.88 245.179 31.44C244.459 31 243.879 30.3867 243.439 29.6C242.999 28.8 242.779 27.8667 242.779 26.8C242.779 25.72 242.999 24.7867 243.439 24C243.879 23.2 244.459 22.58 245.179 22.14C245.899 21.7 246.692 21.48 247.559 21.48C248.279 21.48 248.919 21.6267 249.479 21.92C250.052 22.2133 250.499 22.6 250.819 23.08H250.939V21.8H252.999V31.46C252.999 32.5667 252.779 33.5067 252.339 34.28C251.912 35.0533 251.319 35.64 250.559 36.04C249.799 36.44 248.919 36.64 247.919 36.64ZM247.939 30.14C248.472 30.14 248.965 30.0133 249.419 29.76C249.872 29.4933 250.239 29.1133 250.519 28.62C250.799 28.1133 250.939 27.5067 250.939 26.8C250.939 26.0667 250.799 25.4533 250.519 24.96C250.239 24.4533 249.872 24.0733 249.419 23.82C248.965 23.5667 248.472 23.44 247.939 23.44C247.405 23.44 246.905 23.5733 246.439 23.84C245.985 24.0933 245.619 24.4667 245.339 24.96C245.059 25.4533 244.919 26.0667 244.919 26.8C244.919 27.52 245.059 28.1333 245.339 28.64C245.619 29.1333 245.985 29.5067 246.439 29.76C246.905 30.0133 247.405 30.14 247.939 30.14ZM255.546 32V17.68H257.706V32H255.546ZM264.815 32.32C263.815 32.32 262.921 32.0867 262.135 31.62C261.348 31.1533 260.728 30.5133 260.275 29.7C259.835 28.8867 259.615 27.96 259.615 26.92C259.615 25.9467 259.828 25.0467 260.255 24.22C260.681 23.3933 261.275 22.7333 262.035 22.24C262.808 21.7333 263.695 21.48 264.695 21.48C265.748 21.48 266.641 21.7067 267.375 22.16C268.121 22.6133 268.688 23.2333 269.075 24.02C269.461 24.8067 269.655 25.6933 269.655 26.68C269.655 26.8267 269.648 26.96 269.635 27.08C269.635 27.2 269.628 27.2933 269.615 27.36H261.735C261.841 28.3733 262.195 29.1333 262.795 29.64C263.408 30.1467 264.101 30.4 264.875 30.4C265.568 30.4 266.141 30.2467 266.595 29.94C267.048 29.62 267.408 29.2267 267.675 28.76L269.455 29.62C269.015 30.42 268.415 31.0733 267.655 31.58C266.895 32.0733 265.948 32.32 264.815 32.32ZM264.715 23.32C263.995 23.32 263.381 23.54 262.875 23.98C262.368 24.42 262.028 25.0067 261.855 25.74H267.515C267.488 25.3933 267.375 25.0333 267.175 24.66C266.975 24.2867 266.668 23.9733 266.255 23.72C265.855 23.4533 265.341 23.32 264.715 23.32ZM278.446 32L274.606 17.68H277.046L279.326 26.98L279.566 28.22H279.686L279.986 26.98L282.866 17.68H285.066L287.826 26.98L288.126 28.2H288.246L288.486 26.98L290.766 17.68H293.186L289.406 32H287.086L284.346 22.5L284.026 21.16H283.906L283.566 22.5L280.706 32H278.446ZM297.202 32.32C296.469 32.32 295.816 32.18 295.242 31.9C294.669 31.6067 294.222 31.2 293.902 30.68C293.582 30.16 293.422 29.5667 293.422 28.9C293.422 28.18 293.609 27.5667 293.982 27.06C294.369 26.54 294.882 26.1467 295.522 25.88C296.162 25.6133 296.869 25.48 297.642 25.48C298.282 25.48 298.842 25.54 299.322 25.66C299.816 25.78 300.189 25.9067 300.442 26.04V25.5C300.442 24.8333 300.202 24.3 299.722 23.9C299.242 23.5 298.622 23.3 297.862 23.3C297.342 23.3 296.849 23.42 296.382 23.66C295.916 23.8867 295.542 24.2 295.262 24.6L293.782 23.46C294.222 22.8467 294.802 22.3667 295.522 22.02C296.256 21.66 297.056 21.48 297.922 21.48C299.402 21.48 300.542 21.8467 301.342 22.58C302.142 23.3 302.542 24.3133 302.542 25.62V32H300.442V30.74H300.322C300.056 31.1533 299.656 31.52 299.122 31.84C298.589 32.16 297.949 32.32 297.202 32.32ZM297.582 30.56C298.142 30.56 298.636 30.4267 299.062 30.16C299.489 29.8933 299.822 29.5467 300.062 29.12C300.316 28.68 300.442 28.2067 300.442 27.7C300.136 27.5267 299.776 27.3867 299.362 27.28C298.949 27.16 298.509 27.1 298.042 27.1C297.162 27.1 296.536 27.28 296.162 27.64C295.789 27.9867 295.602 28.4133 295.602 28.92C295.602 29.4 295.782 29.7933 296.142 30.1C296.502 30.4067 296.982 30.56 297.582 30.56ZM304.94 32V17.68H307.1V32H304.94ZM309.667 32V17.68H311.827V32H309.667ZM318.936 32.32C317.936 32.32 317.042 32.0867 316.256 31.62C315.469 31.1533 314.849 30.5133 314.396 29.7C313.956 28.8867 313.736 27.96 313.736 26.92C313.736 25.9467 313.949 25.0467 314.376 24.22C314.802 23.3933 315.396 22.7333 316.156 22.24C316.929 21.7333 317.816 21.48 318.816 21.48C319.869 21.48 320.762 21.7067 321.496 22.16C322.242 22.6133 322.809 23.2333 323.196 24.02C323.582 24.8067 323.776 25.6933 323.776 26.68C323.776 26.8267 323.769 26.96 323.756 27.08C323.756 27.2 323.749 27.2933 323.736 27.36H315.856C315.962 28.3733 316.316 29.1333 316.916 29.64C317.529 30.1467 318.222 30.4 318.996 30.4C319.689 30.4 320.262 30.2467 320.716 29.94C321.169 29.62 321.529 29.2267 321.796 28.76L323.576 29.62C323.136 30.42 322.536 31.0733 321.776 31.58C321.016 32.0733 320.069 32.32 318.936 32.32ZM318.836 23.32C318.116 23.32 317.502 23.54 316.996 23.98C316.489 24.42 316.149 25.0067 315.976 25.74H321.636C321.609 25.3933 321.496 25.0333 321.296 24.66C321.096 24.2867 320.789 23.9733 320.376 23.72C319.976 23.4533 319.462 23.32 318.836 23.32ZM326.567 29.04V23.68H324.787V21.8H326.567V18.92H328.727V21.8H331.227V23.68H328.727V28.58C328.727 29.0867 328.827 29.4733 329.027 29.74C329.24 30.0067 329.593 30.14 330.087 30.14C330.34 30.14 330.553 30.1067 330.727 30.04C330.913 29.9733 331.1 29.88 331.287 29.76V31.86C331.06 31.9533 330.82 32.0267 330.567 32.08C330.313 32.1333 330.013 32.16 329.667 32.16C328.72 32.16 327.967 31.8867 327.407 31.34C326.847 30.78 326.567 30.0133 326.567 29.04Z" fill="white"/>
<rect x="0.5" y="0.5" width="353" height="49" rx="24.5" stroke="#747775"/>
<defs>
<linearGradient id="paint0_linear_1819_24329" x1="34.5703" y1="30.7864" x2="18.7309" y2="48.9133" gradientUnits="userSpaceOnUse">
<stop stop-color="#4285F4"/>
<stop offset="1" stop-color="#1B74E8"/>
</linearGradient>
</defs>
</svg>
