<svg width="296" height="50" viewBox="0 0 296 50" fill="none" xmlns="http://www.w3.org/2000/svg">
<rect x="0.5" y="0.5" width="295" height="49" rx="24.5" fill="#1F1F1F"/>
<rect x="0.5" y="0.5" width="295" height="49" rx="24.5" stroke="#747775"/>
<path d="M51 22H21V17C21 14.2857 23.2018 12 25.8165 12H46.1835C48.7982 12 51 14.2857 51 17V22Z" fill="#34A853"/>
<path d="M51 26.0547H21V21.0547C21 18.3404 23.2018 16.0547 25.8165 16.0547H46.1835C48.7982 16.0547 51 18.3404 51 21.0547V26.0547Z" fill="#FBBC04"/>
<path d="M51 30.2461H21V25.2461C21 22.5318 23.2018 20.2461 25.8165 20.2461H46.1835C48.7982 20.2461 51 22.5318 51 25.2461V30.2461Z" fill="#EA4335"/>
<path d="M21 23.2752L40.0411 27.6789C42.2329 28.2294 44.6986 27.6789 46.4795 26.3028L51 23V33.3211C51 35.9358 48.8082 38 46.2055 38H25.7945C23.1918 38 21 35.9358 21 33.3211V23.2752Z" fill="#4285F4"/>
<path d="M68.36 32L63.28 17.68H65.68L68.92 27.2L69.42 28.82H69.54L70.08 27.2L73.46 17.68H75.86L70.64 32H68.36ZM81.0131 32.32C79.9598 32.32 79.0331 32.08 78.2331 31.6C77.4331 31.12 76.8065 30.4733 76.3531 29.66C75.8998 28.8333 75.6731 27.9133 75.6731 26.9C75.6731 25.8867 75.8998 24.9733 76.3531 24.16C76.8065 23.3333 77.4331 22.68 78.2331 22.2C79.0331 21.72 79.9598 21.48 81.0131 21.48C82.0531 21.48 82.9731 21.7267 83.7731 22.22C84.5731 22.7 85.1998 23.3467 85.6531 24.16C86.1065 24.9733 86.3331 25.8867 86.3331 26.9C86.3331 27.9133 86.1065 28.8333 85.6531 29.66C85.1998 30.4733 84.5731 31.12 83.7731 31.6C82.9731 32.08 82.0531 32.32 81.0131 32.32ZM81.0131 30.34C81.5731 30.34 82.0931 30.2067 82.5731 29.94C83.0531 29.66 83.4398 29.2667 83.7331 28.76C84.0398 28.24 84.1931 27.62 84.1931 26.9C84.1931 26.18 84.0398 25.5667 83.7331 25.06C83.4398 24.54 83.0531 24.1467 82.5731 23.88C82.0931 23.6 81.5731 23.46 81.0131 23.46C80.4531 23.46 79.9265 23.6 79.4331 23.88C78.9531 24.1467 78.5598 24.54 78.2531 25.06C77.9598 25.5667 77.8131 26.18 77.8131 26.9C77.8131 27.62 77.9598 28.24 78.2531 28.76C78.5598 29.2667 78.9598 29.66 79.4531 29.94C79.9465 30.2067 80.4665 30.34 81.0131 30.34ZM92.9825 32.32C91.9825 32.32 91.0892 32.0867 90.3025 31.62C89.5158 31.1533 88.8958 30.5133 88.4425 29.7C88.0025 28.8867 87.7825 27.96 87.7825 26.92C87.7825 25.9467 87.9958 25.0467 88.4225 24.22C88.8492 23.3933 89.4425 22.7333 90.2025 22.24C90.9758 21.7333 91.8625 21.48 92.8625 21.48C93.9158 21.48 94.8092 21.7067 95.5425 22.16C96.2892 22.6133 96.8558 23.2333 97.2425 24.02C97.6292 24.8067 97.8225 25.6933 97.8225 26.68C97.8225 26.8267 97.8158 26.96 97.8025 27.08C97.8025 27.2 97.7958 27.2933 97.7825 27.36H89.9025C89.9558 27.92 90.0958 28.4067 90.3225 28.82C90.6158 29.34 91.0025 29.7333 91.4825 30C91.9625 30.2667 92.4825 30.4 93.0425 30.4C93.7225 30.4 94.2892 30.2467 94.7425 29.94C95.2092 29.62 95.5758 29.2267 95.8425 28.76L97.6225 29.62C97.1825 30.42 96.5825 31.0733 95.8225 31.58C95.0625 32.0733 94.1158 32.32 92.9825 32.32ZM90.0225 25.74H95.6825C95.6692 25.4867 95.6025 25.22 95.4825 24.94C95.3625 24.6467 95.1892 24.38 94.9625 24.14C94.7358 23.9 94.4492 23.7067 94.1025 23.56C93.7558 23.4 93.3492 23.32 92.8825 23.32C92.2958 23.32 91.7758 23.4733 91.3225 23.78C90.8692 24.0733 90.5158 24.4867 90.2625 25.02C90.1558 25.2467 90.0758 25.4867 90.0225 25.74ZM104.524 36.64C103.631 36.64 102.857 36.4933 102.204 36.2C101.564 35.92 101.044 35.5533 100.644 35.1C100.244 34.66 99.9574 34.2067 99.7841 33.74L101.784 32.9C101.997 33.4333 102.337 33.8667 102.804 34.2C103.284 34.5467 103.857 34.72 104.524 34.72C105.471 34.72 106.211 34.44 106.744 33.88C107.277 33.32 107.544 32.5267 107.544 31.5V30.52H107.424C107.104 30.9867 106.664 31.3667 106.104 31.66C105.544 31.9533 104.897 32.1 104.164 32.1C103.297 32.1 102.497 31.88 101.764 31.44C101.044 31 100.464 30.3867 100.024 29.6C99.5974 28.8 99.3841 27.8667 99.3841 26.8C99.3841 25.72 99.5974 24.7867 100.024 24C100.464 23.2 101.044 22.58 101.764 22.14C102.497 21.7 103.297 21.48 104.164 21.48C104.897 21.48 105.544 21.6267 106.104 21.92C106.664 22.2 107.104 22.5867 107.424 23.08H107.544V21.8H109.604V31.46C109.604 32.5667 109.384 33.5067 108.944 34.28C108.517 35.0533 107.924 35.64 107.164 36.04C106.404 36.44 105.524 36.64 104.524 36.64ZM104.544 30.14C105.077 30.14 105.571 30.0133 106.024 29.76C106.491 29.4933 106.857 29.1133 107.124 28.62C107.404 28.1133 107.544 27.5067 107.544 26.8C107.544 26.0533 107.404 25.4333 107.124 24.94C106.857 24.4467 106.491 24.0733 106.024 23.82C105.571 23.5667 105.077 23.44 104.544 23.44C104.011 23.44 103.511 23.5667 103.044 23.82C102.591 24.0733 102.224 24.4533 101.944 24.96C101.664 25.4533 101.524 26.0667 101.524 26.8C101.524 27.52 101.664 28.1333 101.944 28.64C102.224 29.1333 102.591 29.5067 103.044 29.76C103.511 30.0133 104.011 30.14 104.544 30.14ZM122.239 32.32C121.719 32.32 121.246 32.24 120.819 32.08C120.392 31.92 120.019 31.7133 119.699 31.46C119.392 31.1933 119.146 30.92 118.959 30.64H118.839V32H116.799V17.68H118.959V21.76L118.839 23.18H118.959C119.146 22.8867 119.392 22.6133 119.699 22.36C120.019 22.0933 120.392 21.88 120.819 21.72C121.246 21.56 121.719 21.48 122.239 21.48C123.172 21.48 124.006 21.7133 124.739 22.18C125.472 22.6467 126.052 23.2867 126.479 24.1C126.919 24.9133 127.139 25.8467 127.139 26.9C127.139 27.9533 126.919 28.8867 126.479 29.7C126.052 30.5133 125.472 31.1533 124.739 31.62C124.006 32.0867 123.172 32.32 122.239 32.32ZM121.919 30.34C122.452 30.34 122.952 30.2 123.419 29.92C123.899 29.64 124.279 29.24 124.559 28.72C124.852 28.2 124.999 27.5933 124.999 26.9C124.999 26.1933 124.852 25.5867 124.559 25.08C124.279 24.56 123.899 24.16 123.419 23.88C122.952 23.6 122.452 23.46 121.919 23.46C121.386 23.46 120.886 23.6 120.419 23.88C119.952 24.16 119.572 24.56 119.279 25.08C118.986 25.5867 118.839 26.1933 118.839 26.9C118.839 27.6067 118.986 28.22 119.279 28.74C119.572 29.2467 119.952 29.64 120.419 29.92C120.886 30.2 121.386 30.34 121.919 30.34ZM132.213 35.82C132.173 35.9133 132.126 36.0067 132.073 36.1C132.033 36.2067 132.006 36.28 131.993 36.32H129.693C129.759 36.1733 129.853 35.9667 129.973 35.7C130.106 35.4333 130.233 35.1667 130.353 34.9C130.433 34.7267 130.513 34.54 130.593 34.34C130.686 34.14 130.779 33.9333 130.873 33.72C130.979 33.5067 131.079 33.3 131.173 33.1L131.933 31.44L127.673 21.8H130.073L132.993 28.76H133.093L135.913 21.8H138.293L133.013 33.96C132.919 34.1867 132.813 34.4267 132.693 34.68C132.586 34.9333 132.486 35.16 132.393 35.36C132.313 35.5733 132.253 35.7267 132.213 35.82Z" fill="white"/>
<path d="M152.4 32.32C151.373 32.32 150.407 32.1333 149.5 31.76C148.593 31.3867 147.793 30.8667 147.1 30.2C146.42 29.52 145.88 28.7267 145.48 27.82C145.093 26.9 144.9 25.9067 144.9 24.84C144.9 23.7733 145.093 22.7867 145.48 21.88C145.88 20.96 146.42 20.1667 147.1 19.5C147.793 18.82 148.593 18.2933 149.5 17.92C150.407 17.5467 151.373 17.36 152.4 17.36C153.493 17.36 154.5 17.5533 155.42 17.94C156.353 18.3267 157.133 18.8667 157.76 19.56L156.24 21.06C155.933 20.7133 155.58 20.42 155.18 20.18C154.793 19.94 154.367 19.76 153.9 19.64C153.433 19.5067 152.933 19.44 152.4 19.44C151.693 19.44 151.02 19.5667 150.38 19.82C149.74 20.0733 149.173 20.44 148.68 20.92C148.2 21.3867 147.82 21.9533 147.54 22.62C147.26 23.2733 147.12 24.0133 147.12 24.84C147.12 25.6667 147.26 26.4133 147.54 27.08C147.833 27.7333 148.22 28.3 148.7 28.78C149.193 29.2467 149.76 29.6067 150.4 29.86C151.04 30.1133 151.713 30.24 152.42 30.24C153.073 30.24 153.68 30.1467 154.24 29.96C154.813 29.7733 155.313 29.5067 155.74 29.16C156.167 28.8133 156.513 28.3933 156.78 27.9C157.047 27.3933 157.213 26.8267 157.28 26.2H152.38V24.26H159.34C159.367 24.42 159.393 24.6067 159.42 24.82C159.447 25.02 159.46 25.2133 159.46 25.4V25.42C159.46 26.4467 159.28 27.3867 158.92 28.24C158.573 29.0933 158.087 29.8267 157.46 30.44C156.833 31.04 156.087 31.5067 155.22 31.84C154.367 32.16 153.427 32.32 152.4 32.32ZM165.9 32.32C164.847 32.32 163.92 32.08 163.12 31.6C162.32 31.12 161.693 30.4733 161.24 29.66C160.787 28.8333 160.56 27.9133 160.56 26.9C160.56 25.8867 160.787 24.9733 161.24 24.16C161.693 23.3333 162.32 22.68 163.12 22.2C163.92 21.72 164.847 21.48 165.9 21.48C166.94 21.48 167.86 21.7267 168.66 22.22C169.46 22.7 170.087 23.3467 170.54 24.16C170.993 24.9733 171.22 25.8867 171.22 26.9C171.22 27.9133 170.993 28.8333 170.54 29.66C170.087 30.4733 169.46 31.12 168.66 31.6C167.86 32.08 166.94 32.32 165.9 32.32ZM165.9 30.34C166.46 30.34 166.98 30.2067 167.46 29.94C167.94 29.66 168.327 29.2667 168.62 28.76C168.927 28.24 169.08 27.62 169.08 26.9C169.08 26.18 168.927 25.5667 168.62 25.06C168.327 24.54 167.94 24.1467 167.46 23.88C166.98 23.6 166.46 23.46 165.9 23.46C165.34 23.46 164.813 23.6 164.32 23.88C163.84 24.1467 163.447 24.54 163.14 25.06C162.847 25.5667 162.7 26.18 162.7 26.9C162.7 27.62 162.847 28.24 163.14 28.76C163.447 29.2667 163.847 29.66 164.34 29.94C164.833 30.2067 165.353 30.34 165.9 30.34ZM178.009 32.32C176.956 32.32 176.029 32.08 175.229 31.6C174.429 31.12 173.803 30.4733 173.349 29.66C172.896 28.8333 172.669 27.9133 172.669 26.9C172.669 25.8867 172.896 24.9733 173.349 24.16C173.803 23.3333 174.429 22.68 175.229 22.2C176.029 21.72 176.956 21.48 178.009 21.48C179.049 21.48 179.969 21.7267 180.769 22.22C181.569 22.7 182.196 23.3467 182.649 24.16C183.103 24.9733 183.329 25.8867 183.329 26.9C183.329 27.9133 183.103 28.8333 182.649 29.66C182.196 30.4733 181.569 31.12 180.769 31.6C179.969 32.08 179.049 32.32 178.009 32.32ZM178.009 30.34C178.569 30.34 179.089 30.2067 179.569 29.94C180.049 29.66 180.436 29.2667 180.729 28.76C181.036 28.24 181.189 27.62 181.189 26.9C181.189 26.18 181.036 25.5667 180.729 25.06C180.436 24.54 180.049 24.1467 179.569 23.88C179.089 23.6 178.569 23.46 178.009 23.46C177.449 23.46 176.923 23.6 176.429 23.88C175.949 24.1467 175.556 24.54 175.249 25.06C174.956 25.5667 174.809 26.18 174.809 26.9C174.809 27.62 174.956 28.24 175.249 28.76C175.556 29.2667 175.956 29.66 176.449 29.94C176.943 30.2067 177.463 30.34 178.009 30.34ZM189.919 36.64C189.025 36.64 188.252 36.4933 187.599 36.2C186.959 35.92 186.439 35.5533 186.039 35.1C185.639 34.66 185.352 34.2067 185.179 33.74L187.179 32.9C187.392 33.4333 187.732 33.8667 188.199 34.2C188.679 34.5467 189.252 34.72 189.919 34.72C190.865 34.72 191.605 34.44 192.139 33.88C192.672 33.32 192.939 32.5267 192.939 31.5V30.52H192.819C192.499 30.9867 192.059 31.3667 191.499 31.66C190.939 31.9533 190.292 32.1 189.559 32.1C188.692 32.1 187.892 31.88 187.159 31.44C186.439 31 185.859 30.3867 185.419 29.6C184.992 28.8 184.779 27.8667 184.779 26.8C184.779 25.72 184.992 24.7867 185.419 24C185.859 23.2 186.439 22.58 187.159 22.14C187.892 21.7 188.692 21.48 189.559 21.48C190.292 21.48 190.939 21.6267 191.499 21.92C192.059 22.2 192.499 22.5867 192.819 23.08H192.939V21.8H194.999V31.46C194.999 32.5667 194.779 33.5067 194.339 34.28C193.912 35.0533 193.319 35.64 192.559 36.04C191.799 36.44 190.919 36.64 189.919 36.64ZM189.939 30.14C190.472 30.14 190.965 30.0133 191.419 29.76C191.885 29.4933 192.252 29.1133 192.519 28.62C192.799 28.1133 192.939 27.5067 192.939 26.8C192.939 26.0533 192.799 25.4333 192.519 24.94C192.252 24.4467 191.885 24.0733 191.419 23.82C190.965 23.5667 190.472 23.44 189.939 23.44C189.405 23.44 188.905 23.5667 188.439 23.82C187.985 24.0733 187.619 24.4533 187.339 24.96C187.059 25.4533 186.919 26.0667 186.919 26.8C186.919 27.52 187.059 28.1333 187.339 28.64C187.619 29.1333 187.985 29.5067 188.439 29.76C188.905 30.0133 189.405 30.14 189.939 30.14ZM197.546 32V17.68H199.706V32H197.546ZM206.815 32.32C205.815 32.32 204.921 32.0867 204.135 31.62C203.348 31.1533 202.728 30.5133 202.275 29.7C201.835 28.8867 201.615 27.96 201.615 26.92C201.615 25.9467 201.828 25.0467 202.255 24.22C202.681 23.3933 203.275 22.7333 204.035 22.24C204.808 21.7333 205.695 21.48 206.695 21.48C207.748 21.48 208.641 21.7067 209.375 22.16C210.121 22.6133 210.688 23.2333 211.075 24.02C211.461 24.8067 211.655 25.6933 211.655 26.68C211.655 26.8267 211.648 26.96 211.635 27.08C211.635 27.2 211.628 27.2933 211.615 27.36H203.735C203.788 27.92 203.928 28.4067 204.155 28.82C204.448 29.34 204.835 29.7333 205.315 30C205.795 30.2667 206.315 30.4 206.875 30.4C207.555 30.4 208.121 30.2467 208.575 29.94C209.041 29.62 209.408 29.2267 209.675 28.76L211.455 29.62C211.015 30.42 210.415 31.0733 209.655 31.58C208.895 32.0733 207.948 32.32 206.815 32.32ZM203.855 25.74H209.515C209.501 25.4867 209.435 25.22 209.315 24.94C209.195 24.6467 209.021 24.38 208.795 24.14C208.568 23.9 208.281 23.7067 207.935 23.56C207.588 23.4 207.181 23.32 206.715 23.32C206.128 23.32 205.608 23.4733 205.155 23.78C204.701 24.0733 204.348 24.4867 204.095 25.02C203.988 25.2467 203.908 25.4867 203.855 25.74ZM220.446 32L216.606 17.68H219.046L221.326 26.98L221.566 28.22H221.686L221.986 26.98L224.866 17.68H227.066L229.826 26.98L230.126 28.2H230.246L230.486 26.98L232.766 17.68H235.186L231.406 32H229.086L226.346 22.5L226.026 21.16H225.906L225.566 22.5L222.706 32H220.446ZM239.202 32.32C238.469 32.32 237.816 32.1733 237.242 31.88C236.682 31.5867 236.236 31.1867 235.902 30.68C235.582 30.16 235.422 29.5667 235.422 28.9C235.422 28.1667 235.609 27.5467 235.982 27.04C236.369 26.5333 236.882 26.1467 237.522 25.88C238.162 25.6133 238.869 25.48 239.642 25.48C240.069 25.48 240.462 25.5133 240.822 25.58C241.196 25.6333 241.516 25.7 241.782 25.78C242.062 25.86 242.282 25.9467 242.442 26.04V25.5C242.442 24.8333 242.202 24.3 241.722 23.9C241.242 23.5 240.622 23.3 239.862 23.3C239.342 23.3 238.849 23.42 238.382 23.66C237.916 23.8867 237.542 24.2 237.262 24.6L235.782 23.46C236.076 23.0467 236.429 22.6933 236.842 22.4C237.269 22.1067 237.742 21.88 238.262 21.72C238.796 21.56 239.349 21.48 239.922 21.48C241.402 21.48 242.542 21.8467 243.342 22.58C244.142 23.3 244.542 24.3133 244.542 25.62V32H242.442V30.74H242.322C242.149 31.0067 241.909 31.26 241.602 31.5C241.309 31.74 240.956 31.9333 240.542 32.08C240.142 32.24 239.696 32.32 239.202 32.32ZM239.582 30.56C240.142 30.56 240.636 30.4267 241.062 30.16C241.502 29.8933 241.842 29.5467 242.082 29.12C242.322 28.68 242.442 28.2067 242.442 27.7C242.149 27.5267 241.789 27.3867 241.362 27.28C240.949 27.16 240.509 27.1 240.042 27.1C239.162 27.1 238.536 27.2733 238.162 27.62C237.789 27.9667 237.602 28.4 237.602 28.92C237.602 29.4 237.782 29.7933 238.142 30.1C238.502 30.4067 238.982 30.56 239.582 30.56ZM246.94 32V17.68H249.1V32H246.94ZM251.667 32V17.68H253.827V32H251.667ZM260.936 32.32C259.936 32.32 259.042 32.0867 258.256 31.62C257.469 31.1533 256.849 30.5133 256.396 29.7C255.956 28.8867 255.736 27.96 255.736 26.92C255.736 25.9467 255.949 25.0467 256.376 24.22C256.802 23.3933 257.396 22.7333 258.156 22.24C258.929 21.7333 259.816 21.48 260.816 21.48C261.869 21.48 262.762 21.7067 263.496 22.16C264.242 22.6133 264.809 23.2333 265.196 24.02C265.582 24.8067 265.776 25.6933 265.776 26.68C265.776 26.8267 265.769 26.96 265.756 27.08C265.756 27.2 265.749 27.2933 265.736 27.36H257.856C257.909 27.92 258.049 28.4067 258.276 28.82C258.569 29.34 258.956 29.7333 259.436 30C259.916 30.2667 260.436 30.4 260.996 30.4C261.676 30.4 262.242 30.2467 262.696 29.94C263.162 29.62 263.529 29.2267 263.796 28.76L265.576 29.62C265.136 30.42 264.536 31.0733 263.776 31.58C263.016 32.0733 262.069 32.32 260.936 32.32ZM257.976 25.74H263.636C263.622 25.4867 263.556 25.22 263.436 24.94C263.316 24.6467 263.142 24.38 262.916 24.14C262.689 23.9 262.402 23.7067 262.056 23.56C261.709 23.4 261.302 23.32 260.836 23.32C260.249 23.32 259.729 23.4733 259.276 23.78C258.822 24.0733 258.469 24.4867 258.216 25.02C258.109 25.2467 258.029 25.4867 257.976 25.74ZM266.787 21.8H268.567V18.92H270.727V21.8H273.227V23.68H270.727V28.58C270.727 29.0867 270.827 29.4733 271.027 29.74C271.24 30.0067 271.593 30.14 272.087 30.14C272.327 30.14 272.54 30.1067 272.727 30.04C272.913 29.96 273.1 29.8667 273.287 29.76V31.86C273.06 31.9533 272.82 32.0267 272.567 32.08C272.313 32.1333 272.013 32.16 271.667 32.16C270.72 32.16 269.967 31.8867 269.407 31.34C268.847 30.78 268.567 30.0133 268.567 29.04V23.68H266.787V21.8Z" fill="white"/>
</svg>
