<svg width="294" height="50" viewBox="0 0 294 50" fill="none" xmlns="http://www.w3.org/2000/svg">
<rect x="0.5" y="0.5" width="293" height="49" rx="24.5" fill="#1F1F1F"/>
<rect x="0.5" y="0.5" width="293" height="49" rx="24.5" stroke="#747775"/>
<path d="M51 22H21V17C21 14.2857 23.2018 12 25.8165 12H46.1835C48.7982 12 51 14.2857 51 17V22Z" fill="#34A853"/>
<path d="M51 26.0547H21V21.0547C21 18.3404 23.2018 16.0547 25.8165 16.0547H46.1835C48.7982 16.0547 51 18.3404 51 21.0547V26.0547Z" fill="#FBBC04"/>
<path d="M51 30.2461H21V25.2461C21 22.5318 23.2018 20.2461 25.8165 20.2461H46.1835C48.7982 20.2461 51 22.5318 51 25.2461V30.2461Z" fill="#EA4335"/>
<path d="M21 23.2752L40.0411 27.6789C42.2329 28.2294 44.6986 27.6789 46.4795 26.3028L51 23V33.3211C51 35.9358 48.8082 38 46.2055 38H25.7945C23.1918 38 21 35.9358 21 33.3211V23.2752Z" fill="#4285F4"/>
<path d="M67.42 30.84C66.74 30.84 66.12 30.7067 65.56 30.44C65.0133 30.1733 64.5733 29.7067 64.24 29.04C63.92 28.36 63.76 27.4267 63.76 26.24C63.76 24.8133 64.0067 23.6 64.5 22.6C65.0067 21.6 65.7 20.82 66.58 20.26C67.4733 19.6867 68.5 19.3533 69.66 19.26L71.8 19.08V20.04L71.9 20.08C72.0067 19.9333 72.1533 19.7867 72.34 19.64C72.5267 19.48 72.7733 19.3467 73.08 19.24C73.4 19.1333 73.78 19.08 74.22 19.08C74.9133 19.08 75.52 19.2467 76.04 19.58C76.56 19.9 76.9667 20.4333 77.26 21.18C77.5533 21.9133 77.7 22.9 77.7 24.14C77.7 25.4333 77.5133 26.5267 77.14 27.42C76.78 28.3133 76.24 28.9867 75.52 29.44C74.8133 29.8933 73.94 30.12 72.9 30.12C72.4333 30.12 72.0533 30.08 71.76 30C71.48 29.92 71.2667 29.8267 71.12 29.72C70.9733 29.6 70.86 29.5 70.78 29.42H70.66C70.54 29.6067 70.3467 29.8133 70.08 30.04C69.8267 30.2667 69.48 30.46 69.04 30.62C68.6133 30.7667 68.0733 30.84 67.42 30.84ZM67.7 29C68.0733 29 68.4067 28.9333 68.7 28.8C68.9933 28.6667 69.2267 28.4467 69.4 28.14C69.5733 27.8333 69.66 27.44 69.66 26.96V21.12C68.9267 21.1867 68.28 21.4267 67.72 21.84C67.1733 22.24 66.74 22.8 66.42 23.52C66.1133 24.2267 65.96 25.0867 65.96 26.1C65.96 27.1933 66.1067 27.9533 66.4 28.38C66.7067 28.7933 67.14 29 67.7 29ZM72.96 28.28C73.4133 28.28 73.8267 28.16 74.2 27.92C74.5867 27.6667 74.8933 27.26 75.12 26.7C75.36 26.14 75.48 25.38 75.48 24.42C75.48 23.5667 75.4067 22.8867 75.26 22.38C75.1133 21.8733 74.8933 21.5067 74.6 21.28C74.32 21.04 73.9733 20.92 73.56 20.92C73.0667 20.92 72.66 21.0467 72.34 21.3C72.0333 21.5533 71.8533 21.8933 71.8 22.32V26.82C71.8 27.3267 71.8733 27.7 72.02 27.94C72.18 28.1667 72.4933 28.28 72.96 28.28ZM83.5692 24.34C83.6626 24.6733 83.7959 25.0267 83.9692 25.4C84.1426 25.7733 84.3359 26.14 84.5492 26.5C84.7626 26.86 84.9759 27.2 85.1892 27.52C85.4159 27.8267 85.6226 28.08 85.8092 28.28H90.1492C90.1226 28.48 90.0959 28.7133 90.0692 28.98C90.0559 29.2467 90.0492 29.54 90.0492 29.86C90.0492 30.1 90.0626 30.3733 90.0892 30.68C90.1159 30.9867 90.1492 31.2733 90.1892 31.54C90.2426 31.7933 90.2892 31.9867 90.3292 32.12L88.1892 32.34C88.1226 32.1933 88.0626 31.9867 88.0092 31.72C87.9559 31.4533 87.9092 31.1667 87.8692 30.86C87.8426 30.5533 87.8292 30.28 87.8292 30.04H81.3892C81.3892 30.24 81.3759 30.48 81.3492 30.76C81.3359 31.04 81.3092 31.3133 81.2692 31.58C81.2292 31.8467 81.1759 32.06 81.1092 32.22L78.9492 32.04C79.0026 31.8933 79.0426 31.6933 79.0692 31.44C79.1092 31.1867 79.1359 30.92 79.1492 30.64C79.1759 30.3467 79.1892 30.0867 79.1892 29.86C79.1892 29.5267 79.1759 29.22 79.1492 28.94C79.1359 28.6467 79.1159 28.4267 79.0892 28.28H83.2092V28.24C83.0626 28.08 82.8492 27.8 82.5692 27.4C82.3026 27 82.0292 26.5067 81.7492 25.92C81.4692 25.3333 81.2292 24.6733 81.0292 23.94C80.8426 23.1933 80.7492 22.4 80.7492 21.56C80.7492 19.8933 81.1759 18.62 82.0292 17.74C82.8959 16.8467 84.1092 16.4 85.6692 16.4C86.8826 16.4 87.7826 16.72 88.3692 17.36C88.9692 17.9867 89.2692 18.8333 89.2692 19.9C89.2692 20.8867 89.0159 21.6933 88.5092 22.32C88.0159 22.9333 87.3359 23.4 86.4692 23.72C85.6159 24.0267 84.6492 24.2333 83.5692 24.34ZM83.0692 22.52C84.0026 22.4533 84.7626 22.3067 85.3492 22.08C85.9359 21.84 86.3626 21.5333 86.6292 21.16C86.9092 20.7867 87.0492 20.3667 87.0492 19.9C87.0492 19.3933 86.9159 18.9933 86.6492 18.7C86.3959 18.3933 86.0092 18.24 85.4892 18.24C84.7159 18.24 84.1026 18.52 83.6492 19.08C83.1959 19.64 82.9692 20.4533 82.9692 21.52C82.9692 21.7733 82.9759 21.98 82.9892 22.14C83.0159 22.3 83.0426 22.4267 83.0692 22.52Z" fill="white"/>
<path d="M104.4 32.32C103.373 32.32 102.407 32.1333 101.5 31.76C100.593 31.3867 99.7933 30.8667 99.1 30.2C98.42 29.52 97.88 28.7267 97.48 27.82C97.0933 26.9 96.9 25.9067 96.9 24.84C96.9 23.7733 97.0933 22.7867 97.48 21.88C97.88 20.96 98.42 20.1667 99.1 19.5C99.7933 18.82 100.593 18.2933 101.5 17.92C102.407 17.5467 103.373 17.36 104.4 17.36C105.493 17.36 106.5 17.5533 107.42 17.94C108.353 18.3267 109.133 18.8667 109.76 19.56L108.24 21.06C107.933 20.7133 107.58 20.42 107.18 20.18C106.793 19.94 106.367 19.76 105.9 19.64C105.433 19.5067 104.933 19.44 104.4 19.44C103.693 19.44 103.02 19.5667 102.38 19.82C101.74 20.0733 101.173 20.44 100.68 20.92C100.2 21.3867 99.82 21.9533 99.54 22.62C99.26 23.2733 99.12 24.0133 99.12 24.84C99.12 25.6667 99.26 26.4133 99.54 27.08C99.8333 27.7333 100.22 28.3 100.7 28.78C101.193 29.2467 101.76 29.6067 102.4 29.86C103.04 30.1133 103.713 30.24 104.42 30.24C105.073 30.24 105.68 30.1467 106.24 29.96C106.813 29.7733 107.313 29.5067 107.74 29.16C108.167 28.8133 108.513 28.3933 108.78 27.9C109.047 27.3933 109.213 26.8267 109.28 26.2H104.38V24.26H111.34C111.367 24.42 111.393 24.6067 111.42 24.82C111.447 25.02 111.46 25.2133 111.46 25.4V25.42C111.46 26.4467 111.28 27.3867 110.92 28.24C110.573 29.0933 110.087 29.8267 109.46 30.44C108.833 31.04 108.087 31.5067 107.22 31.84C106.367 32.16 105.427 32.32 104.4 32.32ZM117.9 32.32C116.847 32.32 115.92 32.08 115.12 31.6C114.32 31.12 113.693 30.4733 113.24 29.66C112.787 28.8333 112.56 27.9133 112.56 26.9C112.56 25.8867 112.787 24.9733 113.24 24.16C113.693 23.3333 114.32 22.68 115.12 22.2C115.92 21.72 116.847 21.48 117.9 21.48C118.94 21.48 119.86 21.7267 120.66 22.22C121.46 22.7 122.087 23.3467 122.54 24.16C122.993 24.9733 123.22 25.8867 123.22 26.9C123.22 27.9133 122.993 28.8333 122.54 29.66C122.087 30.4733 121.46 31.12 120.66 31.6C119.86 32.08 118.94 32.32 117.9 32.32ZM117.9 30.34C118.46 30.34 118.98 30.2067 119.46 29.94C119.94 29.66 120.327 29.2667 120.62 28.76C120.927 28.24 121.08 27.62 121.08 26.9C121.08 26.18 120.927 25.5667 120.62 25.06C120.327 24.54 119.94 24.1467 119.46 23.88C118.98 23.6 118.46 23.46 117.9 23.46C117.34 23.46 116.813 23.6 116.32 23.88C115.84 24.1467 115.447 24.54 115.14 25.06C114.847 25.5667 114.7 26.18 114.7 26.9C114.7 27.62 114.847 28.24 115.14 28.76C115.447 29.2667 115.847 29.66 116.34 29.94C116.833 30.2067 117.353 30.34 117.9 30.34ZM130.009 32.32C128.956 32.32 128.029 32.08 127.229 31.6C126.429 31.12 125.803 30.4733 125.349 29.66C124.896 28.8333 124.669 27.9133 124.669 26.9C124.669 25.8867 124.896 24.9733 125.349 24.16C125.803 23.3333 126.429 22.68 127.229 22.2C128.029 21.72 128.956 21.48 130.009 21.48C131.049 21.48 131.969 21.7267 132.769 22.22C133.569 22.7 134.196 23.3467 134.649 24.16C135.103 24.9733 135.329 25.8867 135.329 26.9C135.329 27.9133 135.103 28.8333 134.649 29.66C134.196 30.4733 133.569 31.12 132.769 31.6C131.969 32.08 131.049 32.32 130.009 32.32ZM130.009 30.34C130.569 30.34 131.089 30.2067 131.569 29.94C132.049 29.66 132.436 29.2667 132.729 28.76C133.036 28.24 133.189 27.62 133.189 26.9C133.189 26.18 133.036 25.5667 132.729 25.06C132.436 24.54 132.049 24.1467 131.569 23.88C131.089 23.6 130.569 23.46 130.009 23.46C129.449 23.46 128.923 23.6 128.429 23.88C127.949 24.1467 127.556 24.54 127.249 25.06C126.956 25.5667 126.809 26.18 126.809 26.9C126.809 27.62 126.956 28.24 127.249 28.76C127.556 29.2667 127.956 29.66 128.449 29.94C128.943 30.2067 129.463 30.34 130.009 30.34ZM141.919 36.64C141.025 36.64 140.252 36.4933 139.599 36.2C138.959 35.92 138.439 35.5533 138.039 35.1C137.639 34.66 137.352 34.2067 137.179 33.74L139.179 32.9C139.392 33.4333 139.732 33.8667 140.199 34.2C140.679 34.5467 141.252 34.72 141.919 34.72C142.865 34.72 143.605 34.44 144.139 33.88C144.672 33.32 144.939 32.5267 144.939 31.5V30.52H144.819C144.499 30.9867 144.059 31.3667 143.499 31.66C142.939 31.9533 142.292 32.1 141.559 32.1C140.692 32.1 139.892 31.88 139.159 31.44C138.439 31 137.859 30.3867 137.419 29.6C136.992 28.8 136.779 27.8667 136.779 26.8C136.779 25.72 136.992 24.7867 137.419 24C137.859 23.2 138.439 22.58 139.159 22.14C139.892 21.7 140.692 21.48 141.559 21.48C142.292 21.48 142.939 21.6267 143.499 21.92C144.059 22.2 144.499 22.5867 144.819 23.08H144.939V21.8H146.999V31.46C146.999 32.5667 146.779 33.5067 146.339 34.28C145.912 35.0533 145.319 35.64 144.559 36.04C143.799 36.44 142.919 36.64 141.919 36.64ZM141.939 30.14C142.472 30.14 142.965 30.0133 143.419 29.76C143.885 29.4933 144.252 29.1133 144.519 28.62C144.799 28.1133 144.939 27.5067 144.939 26.8C144.939 26.0533 144.799 25.4333 144.519 24.94C144.252 24.4467 143.885 24.0733 143.419 23.82C142.965 23.5667 142.472 23.44 141.939 23.44C141.405 23.44 140.905 23.5667 140.439 23.82C139.985 24.0733 139.619 24.4533 139.339 24.96C139.059 25.4533 138.919 26.0667 138.919 26.8C138.919 27.52 139.059 28.1333 139.339 28.64C139.619 29.1333 139.985 29.5067 140.439 29.76C140.905 30.0133 141.405 30.14 141.939 30.14ZM149.546 32V17.68H151.706V32H149.546ZM158.815 32.32C157.815 32.32 156.921 32.0867 156.135 31.62C155.348 31.1533 154.728 30.5133 154.275 29.7C153.835 28.8867 153.615 27.96 153.615 26.92C153.615 25.9467 153.828 25.0467 154.255 24.22C154.681 23.3933 155.275 22.7333 156.035 22.24C156.808 21.7333 157.695 21.48 158.695 21.48C159.748 21.48 160.641 21.7067 161.375 22.16C162.121 22.6133 162.688 23.2333 163.075 24.02C163.461 24.8067 163.655 25.6933 163.655 26.68C163.655 26.8267 163.648 26.96 163.635 27.08C163.635 27.2 163.628 27.2933 163.615 27.36H155.735C155.788 27.92 155.928 28.4067 156.155 28.82C156.448 29.34 156.835 29.7333 157.315 30C157.795 30.2667 158.315 30.4 158.875 30.4C159.555 30.4 160.121 30.2467 160.575 29.94C161.041 29.62 161.408 29.2267 161.675 28.76L163.455 29.62C163.015 30.42 162.415 31.0733 161.655 31.58C160.895 32.0733 159.948 32.32 158.815 32.32ZM155.855 25.74H161.515C161.501 25.4867 161.435 25.22 161.315 24.94C161.195 24.6467 161.021 24.38 160.795 24.14C160.568 23.9 160.281 23.7067 159.935 23.56C159.588 23.4 159.181 23.32 158.715 23.32C158.128 23.32 157.608 23.4733 157.155 23.78C156.701 24.0733 156.348 24.4867 156.095 25.02C155.988 25.2467 155.908 25.4867 155.855 25.74ZM172.446 32L168.606 17.68H171.046L173.326 26.98L173.566 28.22H173.686L173.986 26.98L176.866 17.68H179.066L181.826 26.98L182.126 28.2H182.246L182.486 26.98L184.766 17.68H187.186L183.406 32H181.086L178.346 22.5L178.026 21.16H177.906L177.566 22.5L174.706 32H172.446ZM191.202 32.32C190.469 32.32 189.816 32.1733 189.242 31.88C188.682 31.5867 188.236 31.1867 187.902 30.68C187.582 30.16 187.422 29.5667 187.422 28.9C187.422 28.1667 187.609 27.5467 187.982 27.04C188.369 26.5333 188.882 26.1467 189.522 25.88C190.162 25.6133 190.869 25.48 191.642 25.48C192.069 25.48 192.462 25.5133 192.822 25.58C193.196 25.6333 193.516 25.7 193.782 25.78C194.062 25.86 194.282 25.9467 194.442 26.04V25.5C194.442 24.8333 194.202 24.3 193.722 23.9C193.242 23.5 192.622 23.3 191.862 23.3C191.342 23.3 190.849 23.42 190.382 23.66C189.916 23.8867 189.542 24.2 189.262 24.6L187.782 23.46C188.076 23.0467 188.429 22.6933 188.842 22.4C189.269 22.1067 189.742 21.88 190.262 21.72C190.796 21.56 191.349 21.48 191.922 21.48C193.402 21.48 194.542 21.8467 195.342 22.58C196.142 23.3 196.542 24.3133 196.542 25.62V32H194.442V30.74H194.322C194.149 31.0067 193.909 31.26 193.602 31.5C193.309 31.74 192.956 31.9333 192.542 32.08C192.142 32.24 191.696 32.32 191.202 32.32ZM191.582 30.56C192.142 30.56 192.636 30.4267 193.062 30.16C193.502 29.8933 193.842 29.5467 194.082 29.12C194.322 28.68 194.442 28.2067 194.442 27.7C194.149 27.5267 193.789 27.3867 193.362 27.28C192.949 27.16 192.509 27.1 192.042 27.1C191.162 27.1 190.536 27.2733 190.162 27.62C189.789 27.9667 189.602 28.4 189.602 28.92C189.602 29.4 189.782 29.7933 190.142 30.1C190.502 30.4067 190.982 30.56 191.582 30.56ZM198.94 32V17.68H201.1V32H198.94ZM203.667 32V17.68H205.827V32H203.667ZM212.936 32.32C211.936 32.32 211.042 32.0867 210.256 31.62C209.469 31.1533 208.849 30.5133 208.396 29.7C207.956 28.8867 207.736 27.96 207.736 26.92C207.736 25.9467 207.949 25.0467 208.376 24.22C208.802 23.3933 209.396 22.7333 210.156 22.24C210.929 21.7333 211.816 21.48 212.816 21.48C213.869 21.48 214.762 21.7067 215.496 22.16C216.242 22.6133 216.809 23.2333 217.196 24.02C217.582 24.8067 217.776 25.6933 217.776 26.68C217.776 26.8267 217.769 26.96 217.756 27.08C217.756 27.2 217.749 27.2933 217.736 27.36H209.856C209.909 27.92 210.049 28.4067 210.276 28.82C210.569 29.34 210.956 29.7333 211.436 30C211.916 30.2667 212.436 30.4 212.996 30.4C213.676 30.4 214.242 30.2467 214.696 29.94C215.162 29.62 215.529 29.2267 215.796 28.76L217.576 29.62C217.136 30.42 216.536 31.0733 215.776 31.58C215.016 32.0733 214.069 32.32 212.936 32.32ZM209.976 25.74H215.636C215.622 25.4867 215.556 25.22 215.436 24.94C215.316 24.6467 215.142 24.38 214.916 24.14C214.689 23.9 214.402 23.7067 214.056 23.56C213.709 23.4 213.302 23.32 212.836 23.32C212.249 23.32 211.729 23.4733 211.276 23.78C210.822 24.0733 210.469 24.4867 210.216 25.02C210.109 25.2467 210.029 25.4867 209.976 25.74ZM218.787 21.8H220.567V18.92H222.727V21.8H225.227V23.68H222.727V28.58C222.727 29.0867 222.827 29.4733 223.027 29.74C223.24 30.0067 223.593 30.14 224.087 30.14C224.327 30.14 224.54 30.1067 224.727 30.04C224.913 29.96 225.1 29.8667 225.287 29.76V31.86C225.06 31.9533 224.82 32.0267 224.567 32.08C224.313 32.1333 224.013 32.16 223.667 32.16C222.72 32.16 221.967 31.8867 221.407 31.34C220.847 30.78 220.567 30.0133 220.567 29.04V23.68H218.787V21.8Z" fill="white"/>
<path d="M233.9 32.1C233.58 32.14 233.307 32.0667 233.08 31.88C232.867 31.6933 232.76 31.3267 232.76 30.78C232.76 30.0867 232.893 29.32 233.16 28.48C233.427 27.6267 233.773 26.7733 234.2 25.92C234.627 25.0533 235.087 24.2267 235.58 23.44C236.073 22.64 236.533 21.94 236.96 21.34L236.92 21.28H234.94V18.18C234.94 17.78 234.907 17.4467 234.84 17.18C234.787 16.9 234.7 16.6667 234.58 16.48C234.473 16.28 234.32 16.1067 234.12 15.96L236.14 15.82C236.527 15.7933 236.787 15.9533 236.92 16.3C237.053 16.6467 237.12 17.2467 237.12 18.1V19.5H240.68L240.74 19.64C240.3 20.16 239.84 20.7533 239.36 21.42C238.893 22.0733 238.44 22.7533 238 23.46L238.04 23.52C238.373 23.4133 238.767 23.3133 239.22 23.22C239.673 23.1267 240.127 23.08 240.58 23.08C240.98 23.08 241.3 23.1667 241.54 23.34C241.793 23.5133 242 23.8267 242.16 24.28C242.32 24.72 242.467 25.3467 242.6 26.16L243.3 30.1C243.367 30.5 243.453 30.8267 243.56 31.08C243.667 31.32 243.78 31.5067 243.9 31.64C244.033 31.7733 244.167 31.8733 244.3 31.94L242.46 32.12C242.193 32.1467 241.98 32.12 241.82 32.04C241.66 31.9733 241.527 31.8 241.42 31.52C241.313 31.2267 241.207 30.7667 241.1 30.14L240.42 26.16C240.353 25.7733 240.24 25.4733 240.08 25.26C239.933 25.0333 239.627 24.92 239.16 24.92C238.707 24.92 238.26 24.98 237.82 25.1C237.393 25.2067 237.08 25.3 236.88 25.38C236.72 25.6467 236.533 26 236.32 26.44C236.107 26.8667 235.893 27.3333 235.68 27.84C235.48 28.3467 235.307 28.8533 235.16 29.36C235.027 29.8667 234.96 30.34 234.96 30.78C234.96 31.1533 235.007 31.42 235.1 31.58C235.207 31.74 235.347 31.86 235.52 31.94L233.9 32.1ZM248.173 32.1C247.973 32.1133 247.813 32.0867 247.693 32.02C247.586 31.9533 247.48 31.8333 247.373 31.66C247.253 31.4333 247.14 31.1133 247.033 30.7C246.94 30.2867 246.893 29.8267 246.893 29.32C246.893 28.4 247.006 27.64 247.233 27.04C247.46 26.44 247.673 26.0133 247.873 25.76H246.393C246.433 24.4 246.693 23.2133 247.173 22.2C247.533 21.44 248 20.8067 248.573 20.3H247.253V17.5C247.253 16.9 247.186 16.44 247.053 16.12C246.933 15.8 246.726 15.52 246.433 15.28L248.453 15.14C248.706 15.1133 248.906 15.1733 249.053 15.32C249.2 15.4667 249.3 15.7133 249.353 16.06C249.406 16.3933 249.433 16.8467 249.433 17.42V19.68C250.233 19.2267 251.166 19 252.233 19C253.7 19 254.753 19.38 255.393 20.14C256.046 20.9 256.373 22.0333 256.373 23.54C256.373 24.4333 256.32 25.3267 256.213 26.22C256.106 27.1133 256.053 28.0267 256.053 28.96C256.053 29.6667 256.1 30.22 256.193 30.62C256.286 31.0067 256.406 31.2933 256.553 31.48C256.7 31.6667 256.846 31.82 256.993 31.94L254.953 32.1C254.713 32.1267 254.513 32.0533 254.353 31.88C254.193 31.7067 254.066 31.4 253.973 30.96C253.893 30.5067 253.853 29.8733 253.853 29.06C253.853 28.06 253.906 27.14 254.013 26.3C254.133 25.46 254.193 24.6133 254.193 23.76C254.193 22.7333 254.02 22.0067 253.673 21.58C253.326 21.14 252.78 20.92 252.033 20.92C251.406 20.92 250.873 21.06 250.433 21.34C249.993 21.62 249.64 22 249.373 22.48C249.12 22.9467 248.946 23.4933 248.853 24.12H251.513C251.14 24.44 250.766 24.8467 250.393 25.34C250.02 25.82 249.706 26.3733 249.453 27C249.213 27.6267 249.093 28.3333 249.093 29.12C249.093 29.8533 249.2 30.44 249.413 30.88C249.626 31.32 249.873 31.6733 250.153 31.94L248.173 32.1ZM261.984 26.36L262.064 26.42C262.171 26.38 262.337 26.3267 262.564 26.26C262.804 26.1933 263.144 26.16 263.584 26.16C264.091 26.16 264.571 26.2533 265.024 26.44C265.477 26.6267 265.851 26.94 266.144 27.38C266.437 27.82 266.584 28.4133 266.584 29.16C266.584 29.8667 266.431 30.46 266.124 30.94C265.831 31.4067 265.417 31.7533 264.884 31.98C264.351 32.2067 263.731 32.32 263.024 32.32C262.317 32.32 261.704 32.2067 261.184 31.98C260.664 31.74 260.264 31.3133 259.984 30.7C259.704 30.0867 259.564 29.2267 259.564 28.12C259.564 26.96 259.771 25.84 260.184 24.76C260.597 23.68 261.157 22.6933 261.864 21.8C262.571 20.8933 263.371 20.1333 264.264 19.52L263.744 16.74L265.924 16.34L266.464 19.4C267.277 19.8933 267.904 20.4933 268.344 21.2C268.784 21.9067 269.124 22.7267 269.364 23.66C269.617 24.5933 269.831 25.64 270.004 26.8L270.504 29.98C270.571 30.3933 270.651 30.7267 270.744 30.98C270.851 31.22 270.971 31.4133 271.104 31.56C271.237 31.6933 271.384 31.82 271.544 31.94L269.724 32.12C269.457 32.1467 269.231 32.12 269.044 32.04C268.871 31.9733 268.724 31.7933 268.604 31.5C268.497 31.2067 268.397 30.76 268.304 30.16L267.844 27.06C267.617 25.46 267.317 24.1867 266.944 23.24C266.571 22.28 266.071 21.62 265.444 21.26C264.991 21.5267 264.564 21.8733 264.164 22.3C263.777 22.7133 263.431 23.1667 263.124 23.66C262.817 24.1533 262.564 24.6333 262.364 25.1C262.164 25.5667 262.037 25.9867 261.984 26.36ZM263.024 30.54C263.411 30.54 263.731 30.4267 263.984 30.2C264.237 29.9733 264.364 29.6467 264.364 29.22C264.364 28.78 264.244 28.46 264.004 28.26C263.764 28.0467 263.451 27.94 263.064 27.94C262.717 27.94 262.437 27.9867 262.224 28.08C262.011 28.16 261.857 28.24 261.764 28.32C261.764 28.5867 261.777 28.8533 261.804 29.12C261.831 29.3733 261.884 29.6133 261.964 29.84C262.044 30.0533 262.164 30.2267 262.324 30.36C262.497 30.48 262.731 30.54 263.024 30.54Z" fill="white"/>
</svg>
