<svg width="309" height="50" viewBox="0 0 309 50" fill="none" xmlns="http://www.w3.org/2000/svg">
<rect x="0.5" y="0.5" width="308" height="49" rx="24.5" fill="#1F1F1F"/>
<path d="M51 22H21V17C21 14.2857 23.2018 12 25.8165 12H46.1835C48.7982 12 51 14.2857 51 17V22Z" fill="#34A853"/>
<path d="M51 26.0537H21V21.0537C21 18.3394 23.2018 16.0537 25.8165 16.0537H46.1835C48.7982 16.0537 51 18.3394 51 21.0537V26.0537Z" fill="#FBBC04"/>
<path d="M51 30.2468H21V25.2468C21 22.5325 23.2018 20.2468 25.8165 20.2468H46.1835C48.7982 20.2468 51 22.5325 51 25.2468V30.2468Z" fill="#EA4335"/>
<path d="M21 23.2752L40.0411 27.6789C42.2329 28.2294 44.6986 27.6789 46.4795 26.3028L51 23V33.3211C51 35.9358 48.8082 38 46.2055 38H25.7945C23.1918 38 21 35.9358 21 33.3211V23.2752Z" fill="url(#paint0_linear_1819_23930)"/>
<path d="M77.72 32.1L77.9 30.46C78.66 30.46 79.1933 30.3867 79.5 30.24C79.8067 30.0933 79.98 29.84 80.02 29.48C80.0733 29.1067 80.0867 28.58 80.06 27.9L79.68 17.72H81.3L81.7 27.72C81.74 28.6667 81.6733 29.4667 81.5 30.12C81.34 30.7733 80.9667 31.2667 80.38 31.6C79.8067 31.9333 78.92 32.1 77.72 32.1ZM63.6 32.02C63.6 31.54 63.6667 31.0067 63.8 30.42C63.9333 29.8333 64.1467 29.1867 64.44 28.48L65.88 29.04C65.6667 29.6 65.5067 30.1133 65.4 30.58C65.2933 31.0467 65.24 31.48 65.24 31.88C65.24 32.6267 65.4533 33.2267 65.88 33.68C66.32 34.1467 66.8933 34.4867 67.6 34.7C68.32 34.9133 69.1067 35.02 69.96 35.02C70.9867 35.02 71.92 34.9 72.76 34.66C73.6133 34.4333 74.2933 34.12 74.8 33.72C75.3067 33.32 75.56 32.88 75.56 32.4C75.56 32.0533 75.2933 31.7533 74.76 31.5C74.2267 31.2467 73.48 30.9867 72.52 30.72L72.9 29.06C74.2733 29.6067 75.3467 29.98 76.12 30.18C76.9067 30.3667 77.5067 30.46 77.92 30.46C78.2 30.46 78.4 30.54 78.52 30.7C78.6533 30.8467 78.72 31.0267 78.72 31.24C78.72 31.4533 78.6267 31.6533 78.44 31.84C78.2533 32.0133 78.0133 32.1 77.72 32.1H76.98C76.9933 32.22 77.0067 32.3133 77.02 32.38C77.0467 32.46 77.06 32.56 77.06 32.68C77.06 33.3333 76.76 33.96 76.16 34.56C75.56 35.1733 74.6933 35.6733 73.56 36.06C72.44 36.4467 71.0933 36.64 69.52 36.64C68.4533 36.64 67.4733 36.4733 66.58 36.14C65.6867 35.8067 64.9667 35.2933 64.42 34.6C63.8733 33.92 63.6 33.06 63.6 32.02ZM84.7619 32L84.3619 17.72H85.9819L86.3819 32H84.7619ZM84.2219 38.06L83.9819 36.98C84.1819 36.94 84.3552 36.9 84.5019 36.86C84.6485 36.82 84.7885 36.7867 84.9219 36.76C84.6685 36.5867 84.4485 36.36 84.2619 36.08C84.0752 35.8 83.9819 35.4933 83.9819 35.16C83.9819 34.56 84.1885 34.1067 84.6019 33.8C85.0285 33.4933 85.5085 33.34 86.0419 33.34C86.3485 33.34 86.6619 33.3933 86.9819 33.5L86.8219 34.5C86.6885 34.4733 86.5552 34.4467 86.4219 34.42C86.3019 34.3933 86.1752 34.38 86.0419 34.38C85.3885 34.38 85.0619 34.62 85.0619 35.1C85.0619 35.4467 85.1885 35.7333 85.4419 35.96C85.7085 36.1867 85.9685 36.3333 86.2219 36.4C86.7285 36.2533 87.1752 36.1067 87.5619 35.96L87.8819 36.98C87.5619 37.1 87.1819 37.2267 86.7419 37.36C86.3152 37.4933 85.8752 37.62 85.4219 37.74C84.9819 37.8733 84.5819 37.98 84.2219 38.06ZM102.075 32.1C101.209 32.1 100.462 31.9533 99.8355 31.66C99.2221 31.3667 98.7888 30.8267 98.5355 30.04C97.8155 30.2133 97.1221 30.2867 96.4555 30.26C95.8021 30.22 95.2088 30.0933 94.6755 29.88C94.1421 29.6533 93.7221 29.3467 93.4155 28.96C93.1088 28.56 92.9555 28.0867 92.9555 27.54C92.9555 26.82 93.1821 26.1667 93.6355 25.58C94.0888 24.98 94.7021 24.4733 95.4755 24.06C96.2488 23.6467 97.1021 23.36 98.0355 23.2L97.9755 21.68H99.5955L99.9155 28.28C99.9421 28.9067 100.049 29.38 100.235 29.7C100.435 30.0067 100.702 30.2133 101.035 30.32C101.382 30.4133 101.795 30.46 102.275 30.46C102.555 30.46 102.755 30.54 102.875 30.7C103.009 30.8467 103.075 31.0267 103.075 31.24C103.075 31.4533 102.982 31.6533 102.795 31.84C102.609 32.0133 102.369 32.1 102.075 32.1ZM94.5355 27.28C94.5355 27.5867 94.6555 27.84 94.8955 28.04C95.1488 28.24 95.4688 28.3867 95.8555 28.48C96.2421 28.5733 96.6488 28.62 97.0755 28.62C97.5155 28.62 97.9221 28.5867 98.2955 28.52L98.1155 24.86C97.3555 24.94 96.7088 25.1133 96.1755 25.38C95.6421 25.6333 95.2355 25.9333 94.9555 26.28C94.6755 26.6133 94.5355 26.9467 94.5355 27.28ZM98.6355 19.38C98.3555 19.38 98.1155 19.2867 97.9155 19.1C97.7288 18.9 97.6355 18.6667 97.6355 18.4C97.6355 18.1333 97.7288 17.9 97.9155 17.7C98.1155 17.5 98.3555 17.4 98.6355 17.4C98.9021 17.4 99.1288 17.5 99.3155 17.7C99.5155 17.9 99.6155 18.1333 99.6155 18.4C99.6155 18.6667 99.5155 18.9 99.3155 19.1C99.1288 19.2867 98.9021 19.38 98.6355 19.38ZM95.8955 19.38C95.6155 19.38 95.3755 19.2867 95.1755 19.1C94.9888 18.9 94.8955 18.6667 94.8955 18.4C94.8955 18.1333 94.9888 17.9 95.1755 17.7C95.3755 17.5 95.6155 17.4 95.8955 17.4C96.1621 17.4 96.3888 17.5 96.5755 17.7C96.7755 17.9 96.8755 18.1333 96.8755 18.4C96.8755 18.6667 96.7755 18.9 96.5755 19.1C96.3888 19.2867 96.1621 19.38 95.8955 19.38ZM102.082 32.1L102.282 30.46C102.722 30.46 103.222 30.46 103.782 30.46C104.355 30.4467 104.909 30.42 105.442 30.38C105.975 30.3267 106.395 30.2467 106.702 30.14C107.129 29.9933 107.469 29.8067 107.722 29.58C107.989 29.34 108.189 29.0333 108.322 28.66C108.082 28.74 107.822 28.8 107.542 28.84C107.275 28.8667 107.009 28.88 106.742 28.88C105.715 28.88 104.929 28.64 104.382 28.16C103.835 27.68 103.562 27.0733 103.562 26.34C103.562 25.8333 103.642 25.3267 103.802 24.82C103.962 24.3 104.189 23.8267 104.482 23.4C104.775 22.9733 105.129 22.6333 105.542 22.38C105.955 22.1133 106.415 21.98 106.922 21.98C107.642 21.98 108.235 22.22 108.702 22.7C109.182 23.1667 109.535 23.7733 109.762 24.52C110.002 25.2667 110.122 26.06 110.122 26.9C110.122 27.9 109.949 28.76 109.602 29.48C109.269 30.1867 108.709 30.7733 107.922 31.24C107.509 31.48 106.989 31.6667 106.362 31.8C105.749 31.92 105.075 32 104.342 32.04C103.609 32.08 102.855 32.1 102.082 32.1ZM105.142 25.94C105.142 26.3533 105.275 26.6867 105.542 26.94C105.809 27.18 106.269 27.3 106.922 27.3C107.495 27.3 108.042 27.22 108.562 27.06C108.562 26.98 108.562 26.8867 108.562 26.78C108.562 26.2333 108.489 25.72 108.342 25.24C108.195 24.7467 107.989 24.3533 107.722 24.06C107.455 23.7667 107.135 23.62 106.762 23.62C106.442 23.62 106.162 23.74 105.922 23.98C105.682 24.2067 105.489 24.5 105.342 24.86C105.209 25.22 105.142 25.58 105.142 25.94ZM106.542 19.92C106.262 19.92 106.022 19.8267 105.822 19.64C105.635 19.44 105.542 19.2067 105.542 18.94C105.542 18.6733 105.635 18.44 105.822 18.24C106.022 18.04 106.262 17.94 106.542 17.94C106.809 17.94 107.035 18.04 107.222 18.24C107.422 18.44 107.522 18.6733 107.522 18.94C107.522 19.2067 107.422 19.44 107.222 19.64C107.035 19.8267 106.809 19.92 106.542 19.92ZM116.847 32.1C115.767 32.1 114.947 31.98 114.387 31.74C113.827 31.5 113.441 31.1267 113.227 30.62C113.014 30.1133 112.894 29.46 112.867 28.66L112.467 17.72H114.107L114.507 28.02C114.534 28.6733 114.594 29.18 114.687 29.54C114.794 29.8867 115.021 30.1267 115.367 30.26C115.727 30.3933 116.287 30.46 117.047 30.46C117.327 30.46 117.527 30.54 117.647 30.7C117.781 30.8467 117.847 31.0267 117.847 31.24C117.847 31.4533 117.754 31.6533 117.567 31.84C117.381 32.0133 117.141 32.1 116.847 32.1ZM126.528 32.36C125.101 32.36 123.948 32.2933 123.068 32.16C122.201 32.04 121.541 31.8533 121.088 31.6C120.634 31.3333 120.321 31 120.148 30.6C119.828 31.0667 119.488 31.4067 119.128 31.62C118.781 31.82 118.414 31.9467 118.028 32C117.654 32.0667 117.261 32.1 116.848 32.1L117.048 30.46C117.674 30.46 118.154 30.34 118.488 30.1C118.821 29.8467 119.081 29.4333 119.268 28.86C119.468 28.2867 119.688 27.5 119.928 26.5L121.388 26.88C121.254 27.3467 121.148 27.7733 121.068 28.16C121.001 28.5333 120.968 28.8067 120.968 28.98C120.968 29.3533 121.068 29.6667 121.268 29.92C121.481 30.16 121.914 30.34 122.568 30.46C122.994 29.7933 123.501 29.12 124.088 28.44C124.674 27.7467 125.314 27.1133 126.008 26.54C126.701 25.9667 127.421 25.5067 128.168 25.16C128.928 24.8 129.694 24.62 130.468 24.62C131.201 24.62 131.828 24.7733 132.348 25.08C132.881 25.3733 133.288 25.7733 133.568 26.28C133.861 26.7867 134.008 27.36 134.008 28C134.008 28.7867 133.774 29.5133 133.308 30.18C132.841 30.8333 132.061 31.36 130.968 31.76C129.888 32.16 128.408 32.36 126.528 32.36ZM130.348 26.26C129.748 26.26 129.141 26.4133 128.528 26.72C127.928 27.0133 127.354 27.3933 126.808 27.86C126.261 28.3267 125.768 28.8133 125.328 29.32C124.888 29.8133 124.521 30.26 124.228 30.66C124.934 30.7 125.821 30.72 126.888 30.72C128.648 30.72 130.014 30.5067 130.988 30.08C131.974 29.64 132.468 29 132.468 28.16C132.468 27.8667 132.394 27.58 132.248 27.3C132.101 27.0067 131.868 26.76 131.548 26.56C131.241 26.36 130.841 26.26 130.348 26.26ZM129.888 22.56C129.608 22.56 129.368 22.4667 129.168 22.28C128.981 22.08 128.888 21.8467 128.888 21.58C128.888 21.3133 128.981 21.08 129.168 20.88C129.368 20.68 129.608 20.58 129.888 20.58C130.154 20.58 130.381 20.68 130.568 20.88C130.768 21.08 130.868 21.3133 130.868 21.58C130.868 21.8467 130.768 22.08 130.568 22.28C130.381 22.4667 130.154 22.56 129.888 22.56ZM142.774 21.28C142.774 20.9867 142.754 20.6333 142.714 20.22C142.674 19.8067 142.627 19.3933 142.574 18.98C142.521 18.5667 142.467 18.2133 142.414 17.92L144.134 17.72C144.174 17.9867 144.214 18.34 144.254 18.78C144.294 19.2067 144.327 19.64 144.354 20.08C144.394 20.5067 144.414 20.8533 144.414 21.12C144.414 21.96 144.334 22.78 144.174 23.58C144.027 24.3667 143.781 25.1333 143.434 25.88C144.061 26.5333 144.521 27.1333 144.814 27.68C145.107 28.2267 145.254 28.7667 145.254 29.3C145.254 29.6867 145.161 30.0933 144.974 30.52C144.787 30.9333 144.447 31.2867 143.954 31.58C143.461 31.86 142.747 32 141.814 32H137.214V30.38C139.214 28.9533 140.641 27.5333 141.494 26.12C140.747 25.4533 139.867 24.74 138.854 23.98C137.854 23.22 136.807 22.4467 135.714 21.66L136.654 20.34C137.841 21.22 138.894 22.02 139.814 22.74C140.734 23.4467 141.527 24.1 142.194 24.7C142.394 24.1667 142.541 23.62 142.634 23.06C142.727 22.4867 142.774 21.8933 142.774 21.28ZM139.594 30.36H142.114C142.794 30.36 143.241 30.24 143.454 30C143.667 29.7467 143.774 29.46 143.774 29.14C143.774 28.9 143.674 28.62 143.474 28.3C143.287 27.98 143.021 27.6333 142.674 27.26C142.301 27.82 141.854 28.36 141.334 28.88C140.827 29.4 140.247 29.8933 139.594 30.36ZM136.854 38.06L136.614 36.98C136.814 36.94 136.987 36.9 137.134 36.86C137.281 36.82 137.421 36.7867 137.554 36.76C137.301 36.5867 137.081 36.36 136.894 36.08C136.707 35.8 136.614 35.4933 136.614 35.16C136.614 34.56 136.821 34.1067 137.234 33.8C137.661 33.4933 138.141 33.34 138.674 33.34C138.981 33.34 139.294 33.3933 139.614 33.5L139.454 34.5C139.321 34.4733 139.187 34.4467 139.054 34.42C138.934 34.3933 138.807 34.38 138.674 34.38C138.021 34.38 137.694 34.62 137.694 35.1C137.694 35.4467 137.821 35.7333 138.074 35.96C138.341 36.1867 138.601 36.3333 138.854 36.4C139.361 36.2533 139.807 36.1067 140.194 35.96L140.514 36.98C140.194 37.1 139.814 37.2267 139.374 37.36C138.947 37.4933 138.507 37.62 138.054 37.74C137.614 37.8733 137.214 37.98 136.854 38.06ZM148.395 32L147.995 17.72H149.615L150.015 32H148.395Z" fill="white"/>
<path d="M165.4 32.32C164.373 32.32 163.407 32.1333 162.5 31.76C161.607 31.3867 160.813 30.8667 160.12 30.2C159.427 29.52 158.88 28.7267 158.48 27.82C158.093 26.9 157.9 25.9067 157.9 24.84C157.9 23.7733 158.093 22.7867 158.48 21.88C158.88 20.96 159.42 20.1667 160.1 19.5C160.793 18.82 161.593 18.2933 162.5 17.92C163.407 17.5467 164.373 17.36 165.4 17.36C166.493 17.36 167.5 17.5533 168.42 17.94C169.353 18.3267 170.133 18.8667 170.76 19.56L169.24 21.06C168.773 20.54 168.213 20.14 167.56 19.86C166.92 19.58 166.2 19.44 165.4 19.44C164.453 19.44 163.58 19.6667 162.78 20.12C161.98 20.56 161.333 21.1867 160.84 22C160.36 22.8 160.12 23.7467 160.12 24.84C160.12 25.9333 160.367 26.8867 160.86 27.7C161.353 28.5 162 29.1267 162.8 29.58C163.6 30.02 164.473 30.24 165.42 30.24C166.287 30.24 167.073 30.08 167.78 29.76C168.487 29.4267 169.053 28.96 169.48 28.36C169.92 27.76 170.187 27.04 170.28 26.2H165.38V24.26H172.34C172.42 24.62 172.46 25 172.46 25.4V25.42C172.46 26.8067 172.153 28.02 171.54 29.06C170.94 30.0867 170.107 30.8867 169.04 31.46C167.973 32.0333 166.76 32.32 165.4 32.32ZM178.9 32.32C177.847 32.32 176.92 32.08 176.12 31.6C175.32 31.12 174.693 30.4733 174.24 29.66C173.787 28.8467 173.56 27.9267 173.56 26.9C173.56 25.8867 173.787 24.9733 174.24 24.16C174.693 23.3333 175.32 22.68 176.12 22.2C176.92 21.72 177.847 21.48 178.9 21.48C179.94 21.48 180.86 21.72 181.66 22.2C182.46 22.68 183.087 23.3333 183.54 24.16C183.993 24.9733 184.22 25.8867 184.22 26.9C184.22 27.9267 183.993 28.8467 183.54 29.66C183.087 30.4733 182.46 31.12 181.66 31.6C180.86 32.08 179.94 32.32 178.9 32.32ZM178.9 30.34C179.46 30.34 179.98 30.2067 180.46 29.94C180.94 29.66 181.327 29.2667 181.62 28.76C181.927 28.24 182.08 27.62 182.08 26.9C182.08 26.18 181.927 25.5667 181.62 25.06C181.327 24.54 180.94 24.1467 180.46 23.88C179.98 23.6 179.46 23.46 178.9 23.46C178.34 23.46 177.813 23.6 177.32 23.88C176.84 24.1467 176.447 24.54 176.14 25.06C175.847 25.5667 175.7 26.18 175.7 26.9C175.7 27.62 175.847 28.24 176.14 28.76C176.447 29.2667 176.84 29.66 177.32 29.94C177.813 30.2067 178.34 30.34 178.9 30.34ZM191.009 32.32C189.956 32.32 189.029 32.08 188.229 31.6C187.429 31.12 186.803 30.4733 186.349 29.66C185.896 28.8467 185.669 27.9267 185.669 26.9C185.669 25.8867 185.896 24.9733 186.349 24.16C186.803 23.3333 187.429 22.68 188.229 22.2C189.029 21.72 189.956 21.48 191.009 21.48C192.049 21.48 192.969 21.72 193.769 22.2C194.569 22.68 195.196 23.3333 195.649 24.16C196.103 24.9733 196.329 25.8867 196.329 26.9C196.329 27.9267 196.103 28.8467 195.649 29.66C195.196 30.4733 194.569 31.12 193.769 31.6C192.969 32.08 192.049 32.32 191.009 32.32ZM191.009 30.34C191.569 30.34 192.089 30.2067 192.569 29.94C193.049 29.66 193.436 29.2667 193.729 28.76C194.036 28.24 194.189 27.62 194.189 26.9C194.189 26.18 194.036 25.5667 193.729 25.06C193.436 24.54 193.049 24.1467 192.569 23.88C192.089 23.6 191.569 23.46 191.009 23.46C190.449 23.46 189.923 23.6 189.429 23.88C188.949 24.1467 188.556 24.54 188.249 25.06C187.956 25.5667 187.809 26.18 187.809 26.9C187.809 27.62 187.956 28.24 188.249 28.76C188.556 29.2667 188.949 29.66 189.429 29.94C189.923 30.2067 190.449 30.34 191.009 30.34ZM202.919 36.64C202.025 36.64 201.252 36.4933 200.599 36.2C199.959 35.92 199.439 35.5533 199.039 35.1C198.639 34.66 198.352 34.2067 198.179 33.74L200.179 32.9C200.392 33.4333 200.732 33.8667 201.199 34.2C201.679 34.5467 202.252 34.72 202.919 34.72C203.852 34.72 204.585 34.44 205.119 33.88C205.665 33.32 205.939 32.5267 205.939 31.5V30.52H205.819C205.499 31 205.052 31.3867 204.479 31.68C203.919 31.96 203.279 32.1 202.559 32.1C201.692 32.1 200.899 31.88 200.179 31.44C199.459 31 198.879 30.3867 198.439 29.6C197.999 28.8 197.779 27.8667 197.779 26.8C197.779 25.72 197.999 24.7867 198.439 24C198.879 23.2 199.459 22.58 200.179 22.14C200.899 21.7 201.692 21.48 202.559 21.48C203.279 21.48 203.919 21.6267 204.479 21.92C205.052 22.2133 205.499 22.6 205.819 23.08H205.939V21.8H207.999V31.46C207.999 32.5667 207.779 33.5067 207.339 34.28C206.912 35.0533 206.319 35.64 205.559 36.04C204.799 36.44 203.919 36.64 202.919 36.64ZM202.939 30.14C203.472 30.14 203.965 30.0133 204.419 29.76C204.872 29.4933 205.239 29.1133 205.519 28.62C205.799 28.1133 205.939 27.5067 205.939 26.8C205.939 26.0667 205.799 25.4533 205.519 24.96C205.239 24.4533 204.872 24.0733 204.419 23.82C203.965 23.5667 203.472 23.44 202.939 23.44C202.405 23.44 201.905 23.5733 201.439 23.84C200.985 24.0933 200.619 24.4667 200.339 24.96C200.059 25.4533 199.919 26.0667 199.919 26.8C199.919 27.52 200.059 28.1333 200.339 28.64C200.619 29.1333 200.985 29.5067 201.439 29.76C201.905 30.0133 202.405 30.14 202.939 30.14ZM210.546 32V17.68H212.706V32H210.546ZM219.815 32.32C218.815 32.32 217.921 32.0867 217.135 31.62C216.348 31.1533 215.728 30.5133 215.275 29.7C214.835 28.8867 214.615 27.96 214.615 26.92C214.615 25.9467 214.828 25.0467 215.255 24.22C215.681 23.3933 216.275 22.7333 217.035 22.24C217.808 21.7333 218.695 21.48 219.695 21.48C220.748 21.48 221.641 21.7067 222.375 22.16C223.121 22.6133 223.688 23.2333 224.075 24.02C224.461 24.8067 224.655 25.6933 224.655 26.68C224.655 26.8267 224.648 26.96 224.635 27.08C224.635 27.2 224.628 27.2933 224.615 27.36H216.735C216.841 28.3733 217.195 29.1333 217.795 29.64C218.408 30.1467 219.101 30.4 219.875 30.4C220.568 30.4 221.141 30.2467 221.595 29.94C222.048 29.62 222.408 29.2267 222.675 28.76L224.455 29.62C224.015 30.42 223.415 31.0733 222.655 31.58C221.895 32.0733 220.948 32.32 219.815 32.32ZM219.715 23.32C218.995 23.32 218.381 23.54 217.875 23.98C217.368 24.42 217.028 25.0067 216.855 25.74H222.515C222.488 25.3933 222.375 25.0333 222.175 24.66C221.975 24.2867 221.668 23.9733 221.255 23.72C220.855 23.4533 220.341 23.32 219.715 23.32ZM239.786 32.1C238.92 32.1 238.173 31.9533 237.546 31.66C236.933 31.3667 236.5 30.8267 236.246 30.04C235.526 30.2133 234.833 30.2867 234.166 30.26C233.513 30.22 232.92 30.0933 232.386 29.88C231.853 29.6533 231.433 29.3467 231.126 28.96C230.82 28.56 230.666 28.0867 230.666 27.54C230.666 26.82 230.893 26.1667 231.346 25.58C231.8 24.98 232.413 24.4733 233.186 24.06C233.96 23.6467 234.813 23.36 235.746 23.2L235.686 21.68H237.306L237.626 28.28C237.653 28.9067 237.76 29.38 237.946 29.7C238.146 30.0067 238.413 30.2133 238.746 30.32C239.093 30.4133 239.506 30.46 239.986 30.46C240.266 30.46 240.466 30.54 240.586 30.7C240.72 30.8467 240.786 31.0267 240.786 31.24C240.786 31.4533 240.693 31.6533 240.506 31.84C240.32 32.0133 240.08 32.1 239.786 32.1ZM232.246 27.28C232.246 27.5867 232.366 27.84 232.606 28.04C232.86 28.24 233.18 28.3867 233.566 28.48C233.953 28.5733 234.36 28.62 234.786 28.62C235.226 28.62 235.633 28.5867 236.006 28.52L235.826 24.86C235.066 24.94 234.42 25.1133 233.886 25.38C233.353 25.6333 232.946 25.9333 232.666 26.28C232.386 26.6133 232.246 26.9467 232.246 27.28ZM236.346 19.38C236.066 19.38 235.826 19.2867 235.626 19.1C235.44 18.9 235.346 18.6667 235.346 18.4C235.346 18.1333 235.44 17.9 235.626 17.7C235.826 17.5 236.066 17.4 236.346 17.4C236.613 17.4 236.84 17.5 237.026 17.7C237.226 17.9 237.326 18.1333 237.326 18.4C237.326 18.6667 237.226 18.9 237.026 19.1C236.84 19.2867 236.613 19.38 236.346 19.38ZM233.606 19.38C233.326 19.38 233.086 19.2867 232.886 19.1C232.7 18.9 232.606 18.6667 232.606 18.4C232.606 18.1333 232.7 17.9 232.886 17.7C233.086 17.5 233.326 17.4 233.606 17.4C233.873 17.4 234.1 17.5 234.286 17.7C234.486 17.9 234.586 18.1333 234.586 18.4C234.586 18.6667 234.486 18.9 234.286 19.1C234.1 19.2867 233.873 19.38 233.606 19.38ZM239.793 32.1L239.993 30.46H240.993C241.206 30.1267 241.433 29.8 241.673 29.48L241.293 17.72H242.913L243.273 27.6C244.086 26.7733 244.973 26.0733 245.933 25.5C246.906 24.9133 247.893 24.62 248.893 24.62C249.626 24.62 250.253 24.7733 250.773 25.08C251.306 25.3733 251.713 25.7733 251.993 26.28C252.286 26.7867 252.433 27.36 252.433 28C252.433 28.6267 252.206 29.26 251.753 29.9C251.3 30.5267 250.52 31.02 249.413 31.38C248.56 31.66 247.533 31.8533 246.333 31.96C245.133 32.0533 243.653 32.1 241.893 32.1H239.793ZM248.773 26.26C248.2 26.26 247.62 26.4 247.033 26.68C246.46 26.96 245.906 27.32 245.373 27.76C244.84 28.1867 244.353 28.6467 243.913 29.14C243.473 29.62 243.106 30.06 242.813 30.46H244.173C246.493 30.46 248.193 30.26 249.273 29.86C250.353 29.46 250.893 28.8333 250.893 27.98C250.893 27.7533 250.82 27.5067 250.673 27.24C250.526 26.9733 250.293 26.7467 249.973 26.56C249.666 26.36 249.266 26.26 248.773 26.26ZM253.993 32.1C253.646 32.1 253.206 32.0667 252.673 32C252.153 31.92 251.62 31.7867 251.073 31.6C250.54 31.4133 250.086 31.1533 249.713 30.82L251.353 30C251.82 30.1867 252.3 30.3133 252.793 30.38C253.3 30.4333 253.766 30.46 254.193 30.46C254.473 30.46 254.673 30.54 254.793 30.7C254.926 30.8467 254.993 31.0267 254.993 31.24C254.993 31.4533 254.9 31.6533 254.713 31.84C254.526 32.0133 254.286 32.1 253.993 32.1ZM247.913 22.56C247.633 22.56 247.393 22.4667 247.193 22.28C247.006 22.08 246.913 21.8467 246.913 21.58C246.913 21.3133 247.006 21.08 247.193 20.88C247.393 20.68 247.633 20.58 247.913 20.58C248.18 20.58 248.406 20.68 248.593 20.88C248.793 21.08 248.893 21.3133 248.893 21.58C248.893 21.8467 248.793 22.08 248.593 22.28C248.406 22.4667 248.18 22.56 247.913 22.56ZM253.992 32.1L254.192 30.46C254.646 30.46 255.112 30.4533 255.592 30.44C256.086 30.4267 256.559 30.3933 257.012 30.34C256.692 30.0467 256.379 29.6667 256.072 29.2C255.766 28.7333 255.612 28.1667 255.612 27.5C255.612 26.7933 255.779 26.1533 256.112 25.58C256.446 24.9933 256.872 24.5333 257.392 24.2C257.926 23.8667 258.499 23.7 259.112 23.7C259.766 23.7 260.339 23.88 260.832 24.24C261.326 24.6 261.706 25.06 261.972 25.62C262.252 26.1667 262.392 26.74 262.392 27.34C262.392 27.9667 262.266 28.5267 262.012 29.02C261.759 29.5133 261.419 29.9467 260.992 30.32C261.526 30.36 262.072 30.3933 262.632 30.42C263.192 30.4467 263.679 30.46 264.092 30.46C264.372 30.46 264.572 30.54 264.692 30.7C264.826 30.8467 264.892 31.0267 264.892 31.24C264.892 31.4533 264.799 31.6533 264.612 31.84C264.426 32.0133 264.186 32.1 263.892 32.1C263.079 32.1 262.232 32.04 261.352 31.92C260.472 31.7867 259.699 31.6267 259.032 31.44C258.819 31.52 258.599 31.5933 258.372 31.66C257.759 31.8333 257.059 31.9467 256.272 32C255.486 32.0667 254.726 32.1 253.992 32.1ZM257.252 27.54C257.252 28.06 257.412 28.52 257.732 28.92C258.052 29.3067 258.412 29.62 258.812 29.86C259.359 29.62 259.819 29.3 260.192 28.9C260.566 28.5 260.752 28.02 260.752 27.46C260.752 27.1533 260.679 26.84 260.532 26.52C260.386 26.1867 260.186 25.9067 259.932 25.68C259.679 25.4533 259.386 25.34 259.052 25.34C258.732 25.34 258.432 25.4533 258.152 25.68C257.886 25.8933 257.666 26.1667 257.492 26.5C257.332 26.8333 257.252 27.18 257.252 27.54ZM258.932 21.64C258.652 21.64 258.412 21.5467 258.212 21.36C258.026 21.16 257.932 20.9267 257.932 20.66C257.932 20.3933 258.026 20.16 258.212 19.96C258.412 19.76 258.652 19.66 258.932 19.66C259.199 19.66 259.426 19.76 259.612 19.96C259.812 20.16 259.912 20.3933 259.912 20.66C259.912 20.9267 259.812 21.16 259.612 21.36C259.426 21.5467 259.199 21.64 258.932 21.64ZM263.895 32.1L264.075 30.46C265.448 30.46 266.781 30.26 268.075 29.86C269.368 29.4467 270.548 28.8667 271.615 28.12C271.095 27.6667 270.455 27.3 269.695 27.02C268.948 26.74 268.121 26.6 267.215 26.6C266.881 26.6 266.588 26.62 266.335 26.66C266.081 26.6867 265.775 26.74 265.415 26.82L265.095 25.3C265.841 25.0733 266.548 24.96 267.215 24.96C267.908 24.96 268.535 25.0467 269.095 25.22C269.655 25.38 270.161 25.58 270.615 25.82C271.081 26.06 271.515 26.3 271.915 26.54C272.328 26.78 272.728 26.9867 273.115 27.16C273.501 27.32 273.901 27.4 274.315 27.4H274.735L274.875 28.84C274.461 28.84 274.061 28.8867 273.675 28.98C273.928 29.58 274.288 29.98 274.755 30.18C275.221 30.3667 275.915 30.46 276.835 30.46C277.115 30.46 277.315 30.54 277.435 30.7C277.568 30.8467 277.635 31.0267 277.635 31.24C277.635 31.4533 277.541 31.6533 277.355 31.84C277.168 32.0133 276.928 32.1 276.635 32.1C275.915 32.1 275.268 32.04 274.695 31.92C274.135 31.7867 273.655 31.5333 273.255 31.16C272.855 30.7733 272.561 30.2 272.375 29.44C271.868 29.68 271.348 29.9533 270.815 30.26C270.295 30.5533 269.715 30.84 269.075 31.12C268.435 31.4 267.695 31.6333 266.855 31.82C266.015 32.0067 265.028 32.1 263.895 32.1ZM276.629 32.1L276.829 30.46C277.202 30.46 277.516 30.38 277.769 30.22C278.022 30.06 278.269 29.8 278.509 29.44C278.749 29.0667 279.009 28.56 279.289 27.92C279.676 27.0667 280.056 26.42 280.429 25.98C280.816 25.54 281.196 25.24 281.569 25.08C281.956 24.92 282.336 24.84 282.709 24.84C283.162 24.84 283.582 24.96 283.969 25.2C284.356 25.4267 284.696 25.7333 284.989 26.12C285.282 26.5067 285.509 26.9333 285.669 27.4C285.842 27.8533 285.929 28.3067 285.929 28.76C285.929 29.56 285.789 30.2 285.509 30.68C285.229 31.1467 284.869 31.4867 284.429 31.7C284.002 31.9 283.556 32 283.089 32C282.702 32 282.209 31.9333 281.609 31.8C281.022 31.6667 280.282 31.32 279.389 30.76C278.962 31.3733 278.536 31.7533 278.109 31.9C277.682 32.0333 277.189 32.1 276.629 32.1ZM280.369 28.98C280.289 29.1533 280.216 29.32 280.149 29.48C280.722 29.8133 281.242 30.0467 281.709 30.18C282.189 30.3 282.589 30.36 282.909 30.36C283.482 30.36 283.889 30.2333 284.129 29.98C284.369 29.7267 284.489 29.3933 284.489 28.98C284.489 28.5933 284.396 28.2067 284.209 27.82C284.022 27.4333 283.782 27.1133 283.489 26.86C283.209 26.6067 282.909 26.48 282.589 26.48C282.349 26.48 282.116 26.5467 281.889 26.68C281.662 26.8133 281.429 27.06 281.189 27.42C280.949 27.78 280.676 28.3 280.369 28.98Z" fill="white"/>
<rect x="0.5" y="0.5" width="308" height="49" rx="24.5" stroke="#747775"/>
<defs>
<linearGradient id="paint0_linear_1819_23930" x1="34.5703" y1="30.7864" x2="18.7309" y2="48.9133" gradientUnits="userSpaceOnUse">
<stop stop-color="#4285F4"/>
<stop offset="1" stop-color="#1B74E8"/>
</linearGradient>
</defs>
</svg>
