<svg width="367" height="50" viewBox="0 0 367 50" fill="none" xmlns="http://www.w3.org/2000/svg">
<rect x="0.5" y="0.5" width="366" height="49" rx="24.5" fill="#1F1F1F"/>
<path d="M51 22H21V17C21 14.2857 23.2018 12 25.8165 12H46.1835C48.7982 12 51 14.2857 51 17V22Z" fill="#34A853"/>
<path d="M51 26.0537H21V21.0537C21 18.3394 23.2018 16.0537 25.8165 16.0537H46.1835C48.7982 16.0537 51 18.3394 51 21.0537V26.0537Z" fill="#FBBC04"/>
<path d="M51 30.2468H21V25.2468C21 22.5325 23.2018 20.2468 25.8165 20.2468H46.1835C48.7982 20.2468 51 22.5325 51 25.2468V30.2468Z" fill="#EA4335"/>
<path d="M21 23.2752L40.0411 27.6789C42.2329 28.2294 44.6986 27.6789 46.4795 26.3028L51 23V33.3211C51 35.9358 48.8082 38 46.2055 38H25.7945C23.1918 38 21 35.9358 21 33.3211V23.2752Z" fill="url(#paint0_linear_1819_24918)"/>
<path d="M71.4 32.32C70.3733 32.32 69.4067 32.1333 68.5 31.76C67.6067 31.3867 66.8133 30.8667 66.12 30.2C65.4267 29.52 64.88 28.7267 64.48 27.82C64.0933 26.9 63.9 25.9067 63.9 24.84C63.9 23.7733 64.0933 22.7867 64.48 21.88C64.88 20.96 65.42 20.1667 66.1 19.5C66.7933 18.82 67.5933 18.2933 68.5 17.92C69.4067 17.5467 70.3733 17.36 71.4 17.36C72.4933 17.36 73.5 17.5533 74.42 17.94C75.3533 18.3267 76.1333 18.8667 76.76 19.56L75.24 21.06C74.7733 20.54 74.2133 20.14 73.56 19.86C72.92 19.58 72.2 19.44 71.4 19.44C70.4533 19.44 69.58 19.6667 68.78 20.12C67.98 20.56 67.3333 21.1867 66.84 22C66.36 22.8 66.12 23.7467 66.12 24.84C66.12 25.9333 66.3667 26.8867 66.86 27.7C67.3533 28.5 68 29.1267 68.8 29.58C69.6 30.02 70.4733 30.24 71.42 30.24C72.2867 30.24 73.0733 30.08 73.78 29.76C74.4867 29.4267 75.0533 28.96 75.48 28.36C75.92 27.76 76.1867 27.04 76.28 26.2H71.38V24.26H78.34C78.42 24.62 78.46 25 78.46 25.4V25.42C78.46 26.8067 78.1533 28.02 77.54 29.06C76.94 30.0867 76.1067 30.8867 75.04 31.46C73.9733 32.0333 72.76 32.32 71.4 32.32ZM84.8998 32.32C83.8465 32.32 82.9198 32.08 82.1198 31.6C81.3198 31.12 80.6932 30.4733 80.2398 29.66C79.7865 28.8467 79.5598 27.9267 79.5598 26.9C79.5598 25.8867 79.7865 24.9733 80.2398 24.16C80.6932 23.3333 81.3198 22.68 82.1198 22.2C82.9198 21.72 83.8465 21.48 84.8998 21.48C85.9398 21.48 86.8598 21.72 87.6598 22.2C88.4598 22.68 89.0865 23.3333 89.5398 24.16C89.9932 24.9733 90.2198 25.8867 90.2198 26.9C90.2198 27.9267 89.9932 28.8467 89.5398 29.66C89.0865 30.4733 88.4598 31.12 87.6598 31.6C86.8598 32.08 85.9398 32.32 84.8998 32.32ZM84.8998 30.34C85.4598 30.34 85.9798 30.2067 86.4598 29.94C86.9398 29.66 87.3265 29.2667 87.6198 28.76C87.9265 28.24 88.0798 27.62 88.0798 26.9C88.0798 26.18 87.9265 25.5667 87.6198 25.06C87.3265 24.54 86.9398 24.1467 86.4598 23.88C85.9798 23.6 85.4598 23.46 84.8998 23.46C84.3398 23.46 83.8132 23.6 83.3198 23.88C82.8398 24.1467 82.4465 24.54 82.1398 25.06C81.8465 25.5667 81.6998 26.18 81.6998 26.9C81.6998 27.62 81.8465 28.24 82.1398 28.76C82.4465 29.2667 82.8398 29.66 83.3198 29.94C83.8132 30.2067 84.3398 30.34 84.8998 30.34ZM97.0092 32.32C95.9559 32.32 95.0292 32.08 94.2292 31.6C93.4292 31.12 92.8026 30.4733 92.3492 29.66C91.8959 28.8467 91.6692 27.9267 91.6692 26.9C91.6692 25.8867 91.8959 24.9733 92.3492 24.16C92.8026 23.3333 93.4292 22.68 94.2292 22.2C95.0292 21.72 95.9559 21.48 97.0092 21.48C98.0492 21.48 98.9692 21.72 99.7692 22.2C100.569 22.68 101.196 23.3333 101.649 24.16C102.103 24.9733 102.329 25.8867 102.329 26.9C102.329 27.9267 102.103 28.8467 101.649 29.66C101.196 30.4733 100.569 31.12 99.7692 31.6C98.9692 32.08 98.0492 32.32 97.0092 32.32ZM97.0092 30.34C97.5692 30.34 98.0892 30.2067 98.5692 29.94C99.0492 29.66 99.4359 29.2667 99.7292 28.76C100.036 28.24 100.189 27.62 100.189 26.9C100.189 26.18 100.036 25.5667 99.7292 25.06C99.4359 24.54 99.0492 24.1467 98.5692 23.88C98.0892 23.6 97.5692 23.46 97.0092 23.46C96.4492 23.46 95.9226 23.6 95.4292 23.88C94.9492 24.1467 94.5559 24.54 94.2492 25.06C93.9559 25.5667 93.8092 26.18 93.8092 26.9C93.8092 27.62 93.9559 28.24 94.2492 28.76C94.5559 29.2667 94.9492 29.66 95.4292 29.94C95.9226 30.2067 96.4492 30.34 97.0092 30.34ZM108.919 36.64C108.025 36.64 107.252 36.4933 106.599 36.2C105.959 35.92 105.439 35.5533 105.039 35.1C104.639 34.66 104.352 34.2067 104.179 33.74L106.179 32.9C106.392 33.4333 106.732 33.8667 107.199 34.2C107.679 34.5467 108.252 34.72 108.919 34.72C109.852 34.72 110.585 34.44 111.119 33.88C111.665 33.32 111.939 32.5267 111.939 31.5V30.52H111.819C111.499 31 111.052 31.3867 110.479 31.68C109.919 31.96 109.279 32.1 108.559 32.1C107.692 32.1 106.899 31.88 106.179 31.44C105.459 31 104.879 30.3867 104.439 29.6C103.999 28.8 103.779 27.8667 103.779 26.8C103.779 25.72 103.999 24.7867 104.439 24C104.879 23.2 105.459 22.58 106.179 22.14C106.899 21.7 107.692 21.48 108.559 21.48C109.279 21.48 109.919 21.6267 110.479 21.92C111.052 22.2133 111.499 22.6 111.819 23.08H111.939V21.8H113.999V31.46C113.999 32.5667 113.779 33.5067 113.339 34.28C112.912 35.0533 112.319 35.64 111.559 36.04C110.799 36.44 109.919 36.64 108.919 36.64ZM108.939 30.14C109.472 30.14 109.965 30.0133 110.419 29.76C110.872 29.4933 111.239 29.1133 111.519 28.62C111.799 28.1133 111.939 27.5067 111.939 26.8C111.939 26.0667 111.799 25.4533 111.519 24.96C111.239 24.4533 110.872 24.0733 110.419 23.82C109.965 23.5667 109.472 23.44 108.939 23.44C108.405 23.44 107.905 23.5733 107.439 23.84C106.985 24.0933 106.619 24.4667 106.339 24.96C106.059 25.4533 105.919 26.0667 105.919 26.8C105.919 27.52 106.059 28.1333 106.339 28.64C106.619 29.1333 106.985 29.5067 107.439 29.76C107.905 30.0133 108.405 30.14 108.939 30.14ZM116.546 32V17.68H118.706V32H116.546ZM125.815 32.32C124.815 32.32 123.921 32.0867 123.135 31.62C122.348 31.1533 121.728 30.5133 121.275 29.7C120.835 28.8867 120.615 27.96 120.615 26.92C120.615 25.9467 120.828 25.0467 121.255 24.22C121.681 23.3933 122.275 22.7333 123.035 22.24C123.808 21.7333 124.695 21.48 125.695 21.48C126.748 21.48 127.641 21.7067 128.375 22.16C129.121 22.6133 129.688 23.2333 130.075 24.02C130.461 24.8067 130.655 25.6933 130.655 26.68C130.655 26.8267 130.648 26.96 130.635 27.08C130.635 27.2 130.628 27.2933 130.615 27.36H122.735C122.841 28.3733 123.195 29.1333 123.795 29.64C124.408 30.1467 125.101 30.4 125.875 30.4C126.568 30.4 127.141 30.2467 127.595 29.94C128.048 29.62 128.408 29.2267 128.675 28.76L130.455 29.62C130.015 30.42 129.415 31.0733 128.655 31.58C127.895 32.0733 126.948 32.32 125.815 32.32ZM125.715 23.32C124.995 23.32 124.381 23.54 123.875 23.98C123.368 24.42 123.028 25.0067 122.855 25.74H128.515C128.488 25.3933 128.375 25.0333 128.175 24.66C127.975 24.2867 127.668 23.9733 127.255 23.72C126.855 23.4533 126.341 23.32 125.715 23.32ZM142.126 32.32C141.14 32.32 140.28 32.1 139.546 31.66C138.813 31.22 138.24 30.6133 137.826 29.84C137.413 29.0533 137.206 28.1533 137.206 27.14V17.68H139.366V27.18C139.366 28.14 139.633 28.9133 140.166 29.5C140.7 30.0733 141.346 30.36 142.106 30.36C142.666 30.36 143.16 30.24 143.586 30C144.013 29.76 144.346 29.44 144.586 29.04C144.826 28.64 144.946 28.1933 144.946 27.7C144.946 27.1133 144.766 26.5467 144.406 26L143.846 25.14C143.566 24.7267 143.353 24.3 143.206 23.86C143.06 23.42 142.993 22.9 143.006 22.3H145.166C145.153 22.6333 145.193 22.96 145.286 23.28C145.393 23.6 145.54 23.9 145.726 24.18L146.326 25.08C146.58 25.44 146.766 25.84 146.886 26.28C147.02 26.7067 147.086 27.1667 147.086 27.66C147.086 28.5 146.88 29.2733 146.466 29.98C146.066 30.6867 145.493 31.2533 144.746 31.68C144 32.1067 143.126 32.32 142.126 32.32ZM152.965 32.32C152.111 32.32 151.331 32.1467 150.625 31.8C149.931 31.4533 149.378 30.9733 148.965 30.36C148.565 29.7333 148.365 29 148.365 28.16C148.365 27.9467 148.378 27.7333 148.405 27.52C148.445 27.2933 148.498 27.08 148.565 26.88L150.605 27.2C150.551 27.5067 150.525 27.7733 150.525 28C150.525 28.76 150.758 29.3467 151.225 29.76C151.691 30.1733 152.265 30.38 152.945 30.38C153.651 30.38 154.231 30.18 154.685 29.78C155.151 29.3667 155.385 28.8333 155.385 28.18C155.385 27.8067 155.311 27.4867 155.165 27.22C155.031 26.94 154.865 26.7067 154.665 26.52C154.478 26.32 154.318 26.16 154.185 26.04L153.345 25.38C152.958 25.0733 152.611 24.68 152.305 24.2C152.011 23.7067 151.865 23.0733 151.865 22.3H154.025C154.025 22.7267 154.131 23.0867 154.345 23.38C154.571 23.6733 154.825 23.94 155.105 24.18L155.965 24.9C156.378 25.2467 156.738 25.6733 157.045 26.18C157.365 26.6733 157.525 27.3533 157.525 28.22C157.525 29.02 157.325 29.7267 156.925 30.34C156.525 30.9533 155.978 31.44 155.285 31.8C154.605 32.1467 153.831 32.32 152.965 32.32ZM168.076 36.64C166.982 36.64 166.009 36.48 165.156 36.16C164.316 35.84 163.662 35.3733 163.196 34.76C162.742 34.1467 162.549 33.4133 162.616 32.56L164.816 32.66C164.802 33.1133 164.942 33.4933 165.236 33.8C165.529 34.12 165.929 34.36 166.436 34.52C166.942 34.68 167.509 34.76 168.136 34.76C169.122 34.76 169.909 34.5333 170.496 34.08C171.082 33.6267 171.376 33.0667 171.376 32.4C171.376 31.8133 171.176 31.3267 170.776 30.94C170.389 30.5533 169.876 30.3533 169.236 30.34L168.976 30.32V28.4H169.556C170.209 28.4 170.729 28.2133 171.116 27.84C171.516 27.4533 171.716 26.9067 171.716 26.2C171.716 25.4667 171.536 24.9067 171.176 24.52C170.829 24.1333 170.369 23.94 169.796 23.94C169.236 23.94 168.782 24.1267 168.436 24.5C168.089 24.86 167.916 25.4 167.916 26.12V26.9C167.916 27.7 167.722 28.4267 167.336 29.08C166.962 29.72 166.436 30.2333 165.756 30.62C165.076 30.9933 164.296 31.18 163.416 31.18C162.522 31.18 161.736 30.9867 161.056 30.6C160.376 30.2133 159.842 29.6733 159.456 28.98C159.082 28.2867 158.896 27.4933 158.896 26.6C158.896 25.7067 159.082 24.9133 159.456 24.22C159.842 23.5133 160.369 22.9667 161.036 22.58C161.716 22.18 162.496 21.98 163.376 21.98C164.109 21.98 164.776 22.14 165.376 22.46C165.989 22.7667 166.442 23.2 166.736 23.76H166.796C167.062 23.2 167.462 22.7667 167.996 22.46C168.542 22.14 169.189 21.98 169.936 21.98C170.682 21.98 171.349 22.14 171.936 22.46C172.536 22.7667 173.009 23.22 173.356 23.82C173.702 24.4067 173.876 25.12 173.876 25.96C173.876 26.9467 173.656 27.7133 173.216 28.26C172.776 28.8067 172.256 29.18 171.656 29.38V29.5C172.256 29.7133 172.716 30.0867 173.036 30.62C173.356 31.14 173.516 31.7467 173.516 32.44C173.516 33.2533 173.296 33.9733 172.856 34.6C172.416 35.24 171.789 35.74 170.976 36.1C170.162 36.46 169.196 36.64 168.076 36.64ZM163.416 29.26C164.109 29.26 164.682 29.02 165.136 28.54C165.589 28.06 165.816 27.4133 165.816 26.6C165.816 25.7733 165.589 25.12 165.136 24.64C164.682 24.16 164.109 23.92 163.416 23.92C162.709 23.92 162.129 24.16 161.676 24.64C161.222 25.12 160.996 25.7733 160.996 26.6C160.996 27.4133 161.222 28.06 161.676 28.54C162.142 29.02 162.722 29.26 163.416 29.26ZM180.162 36.64C179.228 36.64 178.395 36.44 177.662 36.04C176.928 35.64 176.355 35.0867 175.942 34.38C175.528 33.6867 175.322 32.8933 175.322 32C175.322 31.3733 175.442 30.74 175.682 30.1L177.682 30.54C177.535 31.0067 177.462 31.46 177.462 31.9C177.462 32.66 177.695 33.3067 178.162 33.84C178.642 34.3867 179.308 34.66 180.162 34.66C180.935 34.66 181.588 34.4 182.122 33.88C182.655 33.36 182.922 32.6333 182.922 31.7V25.4C182.922 24.9467 182.795 24.5867 182.542 24.32C182.302 24.04 181.955 23.9 181.502 23.9C181.048 23.9 180.702 24.04 180.462 24.32C180.235 24.5867 180.122 24.9467 180.122 25.4V27.86H178.002V25.52C178.002 25.04 177.868 24.6867 177.602 24.46C177.348 24.2333 177.008 24.12 176.582 24.12H175.322V22.1H176.762C177.268 22.1 177.722 22.2 178.122 22.4C178.522 22.6 178.822 22.9067 179.022 23.32H179.142C179.368 22.9067 179.708 22.58 180.162 22.34C180.615 22.1 181.162 21.98 181.802 21.98C182.415 21.98 182.962 22.1133 183.442 22.38C183.935 22.6333 184.322 23.0067 184.602 23.5C184.895 23.9933 185.042 24.58 185.042 25.26V31.62C185.042 32.6067 184.835 33.4733 184.422 34.22C184.022 34.98 183.455 35.5733 182.722 36C181.988 36.4267 181.135 36.64 180.162 36.64ZM198.065 36.32C198.025 35.8 197.805 35.36 197.405 35C197.018 34.6533 196.505 34.3867 195.865 34.2C195.238 34.0133 194.538 33.92 193.765 33.92C193.152 33.92 192.525 33.9933 191.885 34.14C191.245 34.3 190.638 34.5267 190.065 34.82L189.265 33.38C189.865 33.0467 190.432 32.82 190.965 32.7V32.58C190.192 32.34 189.492 31.9733 188.865 31.48C188.252 30.9733 187.765 30.3333 187.405 29.56C187.045 28.7733 186.858 27.8533 186.845 26.8C186.832 25.7333 186.998 24.8467 187.345 24.14C187.705 23.42 188.172 22.88 188.745 22.52C189.332 22.16 189.972 21.98 190.665 21.98C191.185 21.98 191.712 22.12 192.245 22.4C192.792 22.6667 193.212 23.1333 193.505 23.8H193.625C193.878 23.16 194.245 22.7 194.725 22.42C195.218 22.1267 195.765 21.98 196.365 21.98C196.965 21.98 197.512 22.1267 198.005 22.42C198.498 22.7 198.865 23.16 199.105 23.8H199.225C199.505 23.16 199.898 22.7 200.405 22.42C200.912 22.1267 201.465 21.98 202.065 21.98C202.758 21.98 203.392 22.16 203.965 22.52C204.552 22.88 205.018 23.42 205.365 24.14C205.712 24.8467 205.885 25.7267 205.885 26.78C205.885 27.66 205.772 28.5 205.545 29.3C205.332 30.1 205.058 30.8067 204.725 31.42L202.685 30.96C203.018 30.2933 203.278 29.62 203.465 28.94C203.652 28.26 203.745 27.5533 203.745 26.82C203.745 25.9533 203.572 25.2667 203.225 24.76C202.892 24.24 202.452 23.98 201.905 23.98C201.385 23.98 200.965 24.1667 200.645 24.54C200.338 24.9133 200.185 25.5 200.185 26.3V29.14H198.065V26.1C198.065 25.4067 197.898 24.88 197.565 24.52C197.245 24.16 196.845 23.98 196.365 23.98C195.858 23.98 195.438 24.16 195.105 24.52C194.785 24.88 194.625 25.4067 194.625 26.1V29.14H192.485V26.3C192.485 25.5267 192.325 24.9467 192.005 24.56C191.698 24.1733 191.305 23.98 190.825 23.98C190.252 23.98 189.798 24.2267 189.465 24.72C189.145 25.2133 188.985 25.92 188.985 26.84C188.998 29.5733 190.552 31.2267 193.645 31.8L195.785 32.2C197.065 32.44 198.092 32.9133 198.865 33.62C199.638 34.3267 200.085 35.2267 200.205 36.32H198.065ZM212.113 36.64C211.18 36.64 210.347 36.44 209.613 36.04C208.88 35.64 208.307 35.0867 207.893 34.38C207.48 33.6867 207.273 32.8933 207.273 32C207.273 31.3733 207.393 30.74 207.633 30.1L209.633 30.54C209.487 31.0067 209.413 31.46 209.413 31.9C209.413 32.66 209.647 33.3067 210.113 33.84C210.593 34.3867 211.26 34.66 212.113 34.66C212.887 34.66 213.54 34.4 214.073 33.88C214.607 33.36 214.873 32.6333 214.873 31.7V26.54C214.873 25.74 214.627 25.1133 214.133 24.66C213.64 24.1933 213.013 23.96 212.253 23.96C211.813 23.96 211.393 24.0533 210.993 24.24C210.607 24.4267 210.293 24.6933 210.053 25.04C209.813 25.3867 209.693 25.8067 209.693 26.3C209.693 26.5667 209.727 26.84 209.793 27.12L207.713 27.38C207.62 26.9933 207.573 26.5867 207.573 26.16C207.573 25.32 207.78 24.5867 208.193 23.96C208.62 23.3333 209.187 22.8467 209.893 22.5C210.6 22.1533 211.387 21.98 212.253 21.98C213.187 21.98 214.007 22.1667 214.713 22.54C215.433 22.9133 215.993 23.4533 216.393 24.16C216.793 24.8533 216.993 25.68 216.993 26.64V31.62C216.993 32.6067 216.787 33.4733 216.373 34.22C215.96 34.98 215.387 35.5733 214.653 36C213.933 36.4267 213.087 36.64 212.113 36.64ZM223.959 32.32C222.932 32.32 222.039 32.0933 221.279 31.64C220.532 31.1733 219.952 30.5533 219.539 29.78C219.125 29.0067 218.919 28.16 218.919 27.24C218.919 26.2933 219.119 25.44 219.519 24.68C219.919 23.92 220.472 23.32 221.179 22.88C221.885 22.4267 222.692 22.2 223.599 22.2C224.319 22.2 224.932 22.36 225.439 22.68C225.959 23 226.372 23.3667 226.679 23.78H226.799L226.719 22.7V20.8C226.719 20.36 226.599 20 226.359 19.72C226.119 19.4267 225.759 19.28 225.279 19.28C224.825 19.28 224.479 19.4133 224.239 19.68C224.012 19.9333 223.899 20.2533 223.899 20.64V21.16H221.779V20.68C221.779 20.2133 221.645 19.8733 221.379 19.66C221.125 19.4467 220.785 19.34 220.359 19.34C220.039 19.34 219.765 19.3733 219.539 19.44C219.312 19.4933 219.112 19.5533 218.939 19.62V17.58C219.125 17.5267 219.352 17.48 219.619 17.44C219.885 17.3867 220.199 17.36 220.559 17.36C221.065 17.36 221.512 17.4733 221.899 17.7C222.299 17.9133 222.619 18.24 222.859 18.68H222.979C223.219 18.2667 223.559 17.9467 223.999 17.72C224.452 17.48 225.005 17.36 225.659 17.36C226.245 17.36 226.779 17.4933 227.259 17.76C227.739 18.0267 228.119 18.4067 228.399 18.9C228.692 19.3933 228.839 19.98 228.839 20.66V27.12C228.839 28.08 228.632 28.9533 228.219 29.74C227.805 30.5267 227.232 31.1533 226.499 31.62C225.765 32.0867 224.919 32.32 223.959 32.32ZM223.939 30.34C224.459 30.34 224.939 30.2133 225.379 29.96C225.819 29.7067 226.172 29.3467 226.439 28.88C226.705 28.4133 226.839 27.8667 226.839 27.24C226.839 26.6133 226.699 26.0733 226.419 25.62C226.152 25.1533 225.799 24.7933 225.359 24.54C224.932 24.2867 224.465 24.16 223.959 24.16C223.439 24.16 222.959 24.2867 222.519 24.54C222.079 24.7933 221.725 25.1533 221.459 25.62C221.192 26.0733 221.059 26.6133 221.059 27.24C221.059 27.8667 221.192 28.4133 221.459 28.88C221.725 29.3333 222.079 29.6933 222.519 29.96C222.959 30.2133 223.432 30.34 223.939 30.34ZM231.814 32C231.507 31.3867 231.234 30.66 230.994 29.82C230.754 28.9667 230.634 28.06 230.634 27.1C230.634 26.0733 230.834 25.18 231.234 24.42C231.647 23.6467 232.214 23.0467 232.934 22.62C233.667 22.1933 234.527 21.98 235.514 21.98C236.487 21.98 237.341 22.1933 238.074 22.62C238.821 23.0467 239.401 23.6467 239.814 24.42C240.227 25.18 240.434 26.0733 240.434 27.1C240.434 28.06 240.314 28.9667 240.074 29.82C239.834 30.66 239.561 31.3867 239.254 32H237.034C237.447 31.1867 237.761 30.3867 237.974 29.6C238.201 28.8 238.314 27.9733 238.314 27.12C238.314 26.0933 238.041 25.3067 237.494 24.76C236.947 24.2133 236.287 23.94 235.514 23.94C234.754 23.94 234.114 24.2133 233.594 24.76C233.074 25.2933 232.807 26.08 232.794 27.12C232.781 27.96 232.874 28.78 233.074 29.58C233.287 30.3667 233.607 31.1733 234.034 32H231.814Z" fill="white"/>
<path d="M257.04 36.32C256.973 35.6933 256.64 35.2 256.04 34.84C255.44 34.4933 254.727 34.32 253.9 34.32C253.3 34.32 252.74 34.3933 252.22 34.54C251.7 34.7 251.167 34.9267 250.62 35.22L249.82 33.78C250.447 33.4333 251.047 33.2067 251.62 33.1V32.98C250.9 32.7 250.247 32.2733 249.66 31.7C249.087 31.1267 248.627 30.44 248.28 29.64C247.933 28.8267 247.76 27.9467 247.76 27C247.76 25.9333 247.94 25.0267 248.3 24.28C248.673 23.52 249.167 22.9467 249.78 22.56C250.393 22.1733 251.073 21.98 251.82 21.98C252.5 21.98 253.113 22.1467 253.66 22.48C254.207 22.8 254.62 23.2733 254.9 23.9H255C255.333 23.2733 255.807 22.8 256.42 22.48C257.047 22.1467 257.76 21.98 258.56 21.98C259.467 21.98 260.267 22.1933 260.96 22.62C261.653 23.0333 262.193 23.6067 262.58 24.34C262.967 25.06 263.16 25.8933 263.16 26.84C263.16 27.7867 262.967 28.6267 262.58 29.36C262.193 30.08 261.647 30.6533 260.94 31.08C260.247 31.4933 259.44 31.7 258.52 31.7C257.6 31.7 256.787 31.4933 256.08 31.08C255.373 30.6667 254.82 30.1067 254.42 29.4C254.02 28.68 253.82 27.8667 253.82 26.96V26.4C253.82 25.5867 253.647 24.98 253.3 24.58C252.953 24.1667 252.513 23.96 251.98 23.96C251.353 23.96 250.847 24.22 250.46 24.74C250.087 25.26 249.9 26.0133 249.9 27C249.9 28.3733 250.293 29.5267 251.08 30.46C251.88 31.3933 252.953 32.0333 254.3 32.38L255.6 32.72C256.707 33 257.553 33.4467 258.14 34.06C258.74 34.6733 259.087 35.4267 259.18 36.32H257.04ZM258.5 29.74C259.207 29.74 259.807 29.4867 260.3 28.98C260.807 28.46 261.06 27.7467 261.06 26.84C261.06 25.9333 260.807 25.2267 260.3 24.72C259.807 24.2 259.207 23.94 258.5 23.94C257.793 23.94 257.187 24.2 256.68 24.72C256.173 25.2267 255.92 25.9333 255.92 26.84C255.92 27.7467 256.173 28.46 256.68 28.98C257.187 29.4867 257.793 29.74 258.5 29.74ZM269.035 32.32C268.182 32.32 267.402 32.1467 266.695 31.8C266.002 31.4533 265.448 30.9733 265.035 30.36C264.635 29.7333 264.435 29 264.435 28.16C264.435 27.9467 264.448 27.7333 264.475 27.52C264.515 27.2933 264.568 27.08 264.635 26.88L266.675 27.2C266.622 27.5067 266.595 27.7733 266.595 28C266.595 28.76 266.828 29.3467 267.295 29.76C267.762 30.1733 268.335 30.38 269.015 30.38C269.722 30.38 270.302 30.18 270.755 29.78C271.222 29.3667 271.455 28.8333 271.455 28.18C271.455 27.8067 271.382 27.4867 271.235 27.22C271.102 26.94 270.935 26.7067 270.735 26.52C270.548 26.32 270.388 26.16 270.255 26.04L269.415 25.38C269.028 25.0733 268.682 24.68 268.375 24.2C268.082 23.7067 267.935 23.0733 267.935 22.3H270.095C270.095 22.7267 270.202 23.0867 270.415 23.38C270.642 23.6733 270.895 23.94 271.175 24.18L272.035 24.9C272.448 25.2467 272.808 25.6733 273.115 26.18C273.435 26.6733 273.595 27.3533 273.595 28.22C273.595 29.02 273.395 29.7267 272.995 30.34C272.595 30.9533 272.048 31.44 271.355 31.8C270.675 32.1467 269.902 32.32 269.035 32.32ZM280.086 32.32C279.059 32.32 278.166 32.0867 277.406 31.62C276.659 31.1533 276.079 30.5333 275.666 29.76C275.253 28.9733 275.046 28.1 275.046 27.14C275.046 26.1667 275.246 25.2933 275.646 24.52C276.046 23.7333 276.599 23.1133 277.306 22.66C278.013 22.2067 278.819 21.98 279.726 21.98C280.446 21.98 281.059 22.14 281.566 22.46C282.073 22.78 282.473 23.1467 282.766 23.56H282.886L282.846 22.5V21.84C282.846 21.04 282.573 20.4133 282.026 19.96C281.493 19.5067 280.846 19.28 280.086 19.28C279.379 19.28 278.779 19.4533 278.286 19.8C277.806 20.1333 277.459 20.5667 277.246 21.1L275.286 20.26C275.446 19.7933 275.733 19.34 276.146 18.9C276.573 18.4467 277.113 18.08 277.766 17.8C278.419 17.5067 279.193 17.36 280.086 17.36C280.979 17.36 281.793 17.54 282.526 17.9C283.273 18.2467 283.866 18.7667 284.306 19.46C284.746 20.1533 284.966 20.9933 284.966 21.98V27.02C284.966 28.0067 284.759 28.9067 284.346 29.72C283.933 30.52 283.359 31.1533 282.626 31.62C281.893 32.0867 281.046 32.32 280.086 32.32ZM280.066 30.34C280.586 30.34 281.066 30.2067 281.506 29.94C281.946 29.6733 282.299 29.3 282.566 28.82C282.833 28.34 282.966 27.78 282.966 27.14C282.966 26.5 282.826 25.94 282.546 25.46C282.279 24.98 281.926 24.6133 281.486 24.36C281.059 24.0933 280.593 23.96 280.086 23.96C279.566 23.96 279.086 24.0933 278.646 24.36C278.206 24.6133 277.853 24.98 277.586 25.46C277.319 25.94 277.186 26.5 277.186 27.14C277.186 27.78 277.319 28.34 277.586 28.82C277.853 29.3 278.206 29.6733 278.646 29.94C279.086 30.2067 279.559 30.34 280.066 30.34ZM291.203 32.32C290.35 32.32 289.57 32.1467 288.863 31.8C288.17 31.4533 287.616 30.9733 287.203 30.36C286.803 29.7333 286.603 29 286.603 28.16C286.603 27.9467 286.616 27.7333 286.643 27.52C286.683 27.2933 286.736 27.08 286.803 26.88L288.843 27.2C288.79 27.5067 288.763 27.7733 288.763 28C288.763 28.76 288.996 29.3467 289.463 29.76C289.93 30.1733 290.503 30.38 291.183 30.38C291.89 30.38 292.47 30.18 292.923 29.78C293.39 29.3667 293.623 28.8333 293.623 28.18C293.623 27.8067 293.55 27.4867 293.403 27.22C293.27 26.94 293.103 26.7067 292.903 26.52C292.716 26.32 292.556 26.16 292.423 26.04L291.583 25.38C291.196 25.0733 290.85 24.68 290.543 24.2C290.25 23.7067 290.103 23.0733 290.103 22.3H292.263C292.263 22.7267 292.37 23.0867 292.583 23.38C292.81 23.6733 293.063 23.94 293.343 24.18L294.203 24.9C294.616 25.2467 294.976 25.6733 295.283 26.18C295.603 26.6733 295.763 27.3533 295.763 28.22C295.763 29.02 295.563 29.7267 295.163 30.34C294.763 30.9533 294.216 31.44 293.523 31.8C292.843 32.1467 292.07 32.32 291.203 32.32ZM304.194 36.64C303.181 36.64 302.234 36.4533 301.354 36.08C300.487 35.7067 299.727 35.18 299.074 34.5C298.421 33.8333 297.914 33.06 297.554 32.18C297.194 31.3 297.014 30.3533 297.014 29.34C297.014 28.1 297.274 26.9733 297.794 25.96C298.327 24.9333 299.054 24.0867 299.974 23.42C300.894 22.7533 301.947 22.3333 303.134 22.16V19.84H305.254V22.16C306.441 22.3333 307.494 22.7533 308.414 23.42C309.334 24.0867 310.061 24.9333 310.594 25.96C311.127 26.9733 311.394 28.1 311.394 29.34C311.394 30.3533 311.207 31.3 310.834 32.18C310.474 33.06 309.967 33.8333 309.314 34.5C308.674 35.18 307.914 35.7067 307.034 36.08C306.167 36.4533 305.221 36.64 304.194 36.64ZM303.134 29.5V25.62C303.134 25.06 303.174 24.5467 303.254 24.08C302.481 24.2267 301.781 24.5267 301.154 24.98C300.541 25.4333 300.054 26.0333 299.694 26.78C299.334 27.5133 299.154 28.3667 299.154 29.34C299.154 30.42 299.381 31.3533 299.834 32.14C300.287 32.94 300.894 33.56 301.654 34C302.427 34.44 303.274 34.66 304.194 34.66C305.114 34.66 305.954 34.44 306.714 34C307.487 33.56 308.101 32.94 308.554 32.14C309.021 31.3533 309.254 30.42 309.254 29.34C309.254 28.3667 309.067 27.5133 308.694 26.78C308.334 26.0333 307.841 25.4333 307.214 24.98C306.601 24.5267 305.907 24.2267 305.134 24.08C305.214 24.5333 305.254 25.0267 305.254 25.56V29.5H303.134ZM317.5 36.64C316.567 36.64 315.733 36.44 315 36.04C314.267 35.64 313.693 35.0867 313.28 34.38C312.867 33.6867 312.66 32.8933 312.66 32C312.66 31.3733 312.78 30.74 313.02 30.1L315.02 30.54C314.873 31.0067 314.8 31.46 314.8 31.9C314.8 32.66 315.033 33.3067 315.5 33.84C315.98 34.3867 316.647 34.66 317.5 34.66C318.273 34.66 318.927 34.4 319.46 33.88C319.993 33.36 320.26 32.6333 320.26 31.7V26.54C320.26 25.74 320.013 25.1133 319.52 24.66C319.027 24.1933 318.4 23.96 317.64 23.96C317.2 23.96 316.78 24.0533 316.38 24.24C315.993 24.4267 315.68 24.6933 315.44 25.04C315.2 25.3867 315.08 25.8067 315.08 26.3C315.08 26.5667 315.113 26.84 315.18 27.12L313.1 27.38C313.007 26.9933 312.96 26.5867 312.96 26.16C312.96 25.32 313.167 24.5867 313.58 23.96C314.007 23.3333 314.573 22.8467 315.28 22.5C315.987 22.1533 316.773 21.98 317.64 21.98C318.573 21.98 319.393 22.1667 320.1 22.54C320.82 22.9133 321.38 23.4533 321.78 24.16C322.18 24.8533 322.38 25.68 322.38 26.64V31.62C322.38 32.6067 322.173 33.4733 321.76 34.22C321.347 34.98 320.773 35.5733 320.04 36C319.32 36.4267 318.473 36.64 317.5 36.64ZM329.285 32.32C328.285 32.32 327.399 32.0933 326.625 31.64C325.852 31.1733 325.245 30.5533 324.805 29.78C324.379 28.9933 324.165 28.12 324.165 27.16C324.165 26.2667 324.345 25.46 324.705 24.74C325.065 24.0067 325.572 23.4067 326.225 22.94C326.879 22.4733 327.639 22.18 328.505 22.06V21.5C328.505 21.2067 328.479 20.9667 328.425 20.78C328.372 20.5933 328.212 20.4067 327.945 20.22L327.405 19.86C327.032 19.62 326.785 19.32 326.665 18.96C326.559 18.5867 326.512 18.16 326.525 17.68H328.665C328.665 17.9333 328.699 18.1467 328.765 18.32C328.845 18.48 329.019 18.66 329.285 18.86L329.805 19.22C330.152 19.46 330.379 19.74 330.485 20.06C330.592 20.38 330.645 20.76 330.645 21.2V22.18C331.405 22.3667 332.065 22.7 332.625 23.18C333.199 23.6467 333.639 24.22 333.945 24.9C334.252 25.58 334.405 26.3333 334.405 27.16C334.405 28.12 334.185 28.9933 333.745 29.78C333.319 30.5533 332.719 31.1733 331.945 31.64C331.185 32.0933 330.299 32.32 329.285 32.32ZM329.305 30.34C329.825 30.34 330.312 30.2133 330.765 29.96C331.219 29.7067 331.579 29.3467 331.845 28.88C332.125 28.4 332.265 27.8267 332.265 27.16C332.265 26.48 332.125 25.9067 331.845 25.44C331.579 24.96 331.219 24.5933 330.765 24.34C330.312 24.0867 329.825 23.96 329.305 23.96C328.772 23.96 328.279 24.0867 327.825 24.34C327.372 24.58 327.005 24.94 326.725 25.42C326.445 25.9 326.305 26.48 326.305 27.16C326.305 27.8267 326.445 28.4 326.725 28.88C327.005 29.3467 327.372 29.7067 327.825 29.96C328.279 30.2133 328.772 30.34 329.305 30.34ZM340.285 32.32C339.432 32.32 338.652 32.1467 337.945 31.8C337.252 31.4533 336.698 30.9733 336.285 30.36C335.885 29.7333 335.685 29 335.685 28.16C335.685 27.9467 335.698 27.7333 335.725 27.52C335.765 27.2933 335.818 27.08 335.885 26.88L337.925 27.2C337.872 27.5067 337.845 27.7733 337.845 28C337.845 28.76 338.078 29.3467 338.545 29.76C339.012 30.1733 339.585 30.38 340.265 30.38C340.972 30.38 341.552 30.18 342.005 29.78C342.472 29.3667 342.705 28.8333 342.705 28.18C342.705 27.8067 342.632 27.4867 342.485 27.22C342.352 26.94 342.185 26.7067 341.985 26.52C341.798 26.32 341.638 26.16 341.505 26.04L340.665 25.38C340.278 25.0733 339.932 24.68 339.625 24.2C339.332 23.7067 339.185 23.0733 339.185 22.3H341.345C341.345 22.7267 341.452 23.0867 341.665 23.38C341.892 23.6733 342.145 23.94 342.425 24.18L343.285 24.9C343.698 25.2467 344.058 25.6733 344.365 26.18C344.685 26.6733 344.845 27.3533 344.845 28.22C344.845 29.02 344.645 29.7267 344.245 30.34C343.845 30.9533 343.298 31.44 342.605 31.8C341.925 32.1467 341.152 32.32 340.285 32.32Z" fill="white"/>
<rect x="0.5" y="0.5" width="366" height="49" rx="24.5" stroke="#747775"/>
<defs>
<linearGradient id="paint0_linear_1819_24918" x1="34.5703" y1="30.7864" x2="18.7309" y2="48.9133" gradientUnits="userSpaceOnUse">
<stop stop-color="#4285F4"/>
<stop offset="1" stop-color="#1B74E8"/>
</linearGradient>
</defs>
</svg>
