<svg width="378" height="50" viewBox="0 0 378 50" fill="none" xmlns="http://www.w3.org/2000/svg">
<rect x="0.5" y="0.5" width="377" height="49" rx="24.5" fill="#1F1F1F"/>
<path d="M51 22H21V17C21 14.2857 23.2018 12 25.8165 12H46.1835C48.7982 12 51 14.2857 51 17V22Z" fill="#34A853"/>
<path d="M51 26.0537H21V21.0537C21 18.3394 23.2018 16.0537 25.8165 16.0537H46.1835C48.7982 16.0537 51 18.3394 51 21.0537V26.0537Z" fill="#FBBC04"/>
<path d="M51 30.2468H21V25.2468C21 22.5325 23.2018 20.2468 25.8165 20.2468H46.1835C48.7982 20.2468 51 22.5325 51 25.2468V30.2468Z" fill="#EA4335"/>
<path d="M21 23.2752L40.0411 27.6789C42.2329 28.2294 44.6986 27.6789 46.4795 26.3028L51 23V33.3211C51 35.9358 48.8082 38 46.2055 38H25.7945C23.1918 38 21 35.9358 21 33.3211V23.2752Z" fill="url(#paint0_linear_1819_24690)"/>
<path d="M63.3 32L68.7 17.68H71.2L76.62 32H74.2L72.88 28.32H67.04L65.72 32H63.3ZM69.36 21.9L67.78 26.28H72.14L70.56 21.9L70.02 20.26H69.9L69.36 21.9ZM82.5905 36.64C81.6971 36.64 80.9238 36.4933 80.2705 36.2C79.6305 35.92 79.1105 35.5533 78.7105 35.1C78.3105 34.66 78.0238 34.2067 77.8505 33.74L79.8505 32.9C80.0638 33.4333 80.4038 33.8667 80.8705 34.2C81.3505 34.5467 81.9238 34.72 82.5905 34.72C83.5238 34.72 84.2571 34.44 84.7905 33.88C85.3371 33.32 85.6105 32.5267 85.6105 31.5V30.52H85.4905C85.1705 31 84.7238 31.3867 84.1505 31.68C83.5905 31.96 82.9505 32.1 82.2305 32.1C81.3638 32.1 80.5705 31.88 79.8505 31.44C79.1305 31 78.5505 30.3867 78.1105 29.6C77.6705 28.8 77.4505 27.8667 77.4505 26.8C77.4505 25.72 77.6705 24.7867 78.1105 24C78.5505 23.2 79.1305 22.58 79.8505 22.14C80.5705 21.7 81.3638 21.48 82.2305 21.48C82.9505 21.48 83.5905 21.6267 84.1505 21.92C84.7238 22.2133 85.1705 22.6 85.4905 23.08H85.6105V21.8H87.6705V31.46C87.6705 32.5667 87.4505 33.5067 87.0105 34.28C86.5838 35.0533 85.9905 35.64 85.2305 36.04C84.4705 36.44 83.5905 36.64 82.5905 36.64ZM82.6105 30.14C83.1438 30.14 83.6371 30.0133 84.0905 29.76C84.5438 29.4933 84.9105 29.1133 85.1905 28.62C85.4705 28.1133 85.6105 27.5067 85.6105 26.8C85.6105 26.0667 85.4705 25.4533 85.1905 24.96C84.9105 24.4533 84.5438 24.0733 84.0905 23.82C83.6371 23.5667 83.1438 23.44 82.6105 23.44C82.0771 23.44 81.5771 23.5733 81.1105 23.84C80.6571 24.0933 80.2905 24.4667 80.0105 24.96C79.7305 25.4533 79.5905 26.0667 79.5905 26.8C79.5905 27.52 79.7305 28.1333 80.0105 28.64C80.2905 29.1333 80.6571 29.5067 81.1105 29.76C81.5771 30.0133 82.0771 30.14 82.6105 30.14ZM90.1975 32V21.8H92.2375V23.3H92.3575C92.5842 22.78 92.9708 22.3533 93.5175 22.02C94.0775 21.6733 94.6775 21.5 95.3175 21.5C95.5975 21.5 95.8308 21.52 96.0175 21.56C96.2175 21.6 96.3975 21.6467 96.5575 21.7V23.94C96.3042 23.8333 96.0442 23.7467 95.7775 23.68C95.5242 23.6133 95.2575 23.58 94.9775 23.58C94.4708 23.58 94.0175 23.72 93.6175 24C93.2308 24.2667 92.9242 24.6333 92.6975 25.1C92.4708 25.5533 92.3575 26.0533 92.3575 26.6V32H90.1975ZM102.279 32.32C101.279 32.32 100.386 32.0867 99.5994 31.62C98.8127 31.1533 98.1927 30.5133 97.7394 29.7C97.2994 28.8867 97.0794 27.96 97.0794 26.92C97.0794 25.9467 97.2927 25.0467 97.7194 24.22C98.146 23.3933 98.7394 22.7333 99.4994 22.24C100.273 21.7333 101.159 21.48 102.159 21.48C103.213 21.48 104.106 21.7067 104.839 22.16C105.586 22.6133 106.153 23.2333 106.539 24.02C106.926 24.8067 107.119 25.6933 107.119 26.68C107.119 26.8267 107.113 26.96 107.099 27.08C107.099 27.2 107.093 27.2933 107.079 27.36H99.1994C99.306 28.3733 99.6594 29.1333 100.259 29.64C100.873 30.1467 101.566 30.4 102.339 30.4C103.033 30.4 103.606 30.2467 104.059 29.94C104.513 29.62 104.873 29.2267 105.139 28.76L106.919 29.62C106.479 30.42 105.879 31.0733 105.119 31.58C104.359 32.0733 103.413 32.32 102.279 32.32ZM102.179 23.32C101.459 23.32 100.846 23.54 100.339 23.98C99.8327 24.42 99.4927 25.0067 99.3194 25.74H104.979C104.953 25.3933 104.839 25.0333 104.639 24.66C104.439 24.2867 104.133 23.9733 103.719 23.72C103.319 23.4533 102.806 23.32 102.179 23.32ZM113.821 36.64C112.928 36.64 112.154 36.4933 111.501 36.2C110.861 35.92 110.341 35.5533 109.941 35.1C109.541 34.66 109.254 34.2067 109.081 33.74L111.081 32.9C111.294 33.4333 111.634 33.8667 112.101 34.2C112.581 34.5467 113.154 34.72 113.821 34.72C114.754 34.72 115.488 34.44 116.021 33.88C116.568 33.32 116.841 32.5267 116.841 31.5V30.52H116.721C116.401 31 115.954 31.3867 115.381 31.68C114.821 31.96 114.181 32.1 113.461 32.1C112.594 32.1 111.801 31.88 111.081 31.44C110.361 31 109.781 30.3867 109.341 29.6C108.901 28.8 108.681 27.8667 108.681 26.8C108.681 25.72 108.901 24.7867 109.341 24C109.781 23.2 110.361 22.58 111.081 22.14C111.801 21.7 112.594 21.48 113.461 21.48C114.181 21.48 114.821 21.6267 115.381 21.92C115.954 22.2133 116.401 22.6 116.721 23.08H116.841V21.8H118.901V31.46C118.901 32.5667 118.681 33.5067 118.241 34.28C117.814 35.0533 117.221 35.64 116.461 36.04C115.701 36.44 114.821 36.64 113.821 36.64ZM113.841 30.14C114.374 30.14 114.868 30.0133 115.321 29.76C115.774 29.4933 116.141 29.1133 116.421 28.62C116.701 28.1133 116.841 27.5067 116.841 26.8C116.841 26.0667 116.701 25.4533 116.421 24.96C116.141 24.4533 115.774 24.0733 115.321 23.82C114.868 23.5667 114.374 23.44 113.841 23.44C113.308 23.44 112.808 23.5733 112.341 23.84C111.888 24.0933 111.521 24.4667 111.241 24.96C110.961 25.4533 110.821 26.0667 110.821 26.8C110.821 27.52 110.961 28.1333 111.241 28.64C111.521 29.1333 111.888 29.5067 112.341 29.76C112.808 30.0133 113.308 30.14 113.841 30.14ZM124.53 32.32C123.797 32.32 123.144 32.18 122.57 31.9C121.997 31.6067 121.55 31.2 121.23 30.68C120.91 30.16 120.75 29.5667 120.75 28.9C120.75 28.18 120.937 27.5667 121.31 27.06C121.697 26.54 122.21 26.1467 122.85 25.88C123.49 25.6133 124.197 25.48 124.97 25.48C125.61 25.48 126.17 25.54 126.65 25.66C127.144 25.78 127.517 25.9067 127.77 26.04V25.5C127.77 24.8333 127.53 24.3 127.05 23.9C126.57 23.5 125.95 23.3 125.19 23.3C124.67 23.3 124.177 23.42 123.71 23.66C123.244 23.8867 122.87 24.2 122.59 24.6L121.11 23.46C121.55 22.8467 122.13 22.3667 122.85 22.02C123.584 21.66 124.384 21.48 125.25 21.48C126.73 21.48 127.87 21.8467 128.67 22.58C129.47 23.3 129.87 24.3133 129.87 25.62V32H127.77V30.74H127.65C127.384 31.1533 126.984 31.52 126.45 31.84C125.917 32.16 125.277 32.32 124.53 32.32ZM124.91 30.56C125.47 30.56 125.964 30.4267 126.39 30.16C126.817 29.8933 127.15 29.5467 127.39 29.12C127.644 28.68 127.77 28.2067 127.77 27.7C127.464 27.5267 127.104 27.3867 126.69 27.28C126.277 27.16 125.837 27.1 125.37 27.1C124.49 27.1 123.864 27.28 123.49 27.64C123.117 27.9867 122.93 28.4133 122.93 28.92C122.93 29.4 123.11 29.7933 123.47 30.1C123.83 30.4067 124.31 30.56 124.91 30.56ZM132.248 32V21.8H134.288V23.3H134.408C134.635 22.78 135.022 22.3533 135.568 22.02C136.128 21.6733 136.728 21.5 137.368 21.5C137.648 21.5 137.882 21.52 138.068 21.56C138.268 21.6 138.448 21.6467 138.608 21.7V23.94C138.355 23.8333 138.095 23.7467 137.828 23.68C137.575 23.6133 137.308 23.58 137.028 23.58C136.522 23.58 136.068 23.72 135.668 24C135.282 24.2667 134.975 24.6333 134.748 25.1C134.522 25.5533 134.408 26.0533 134.408 26.6V32H132.248ZM148.144 32.32C147.41 32.32 146.757 32.18 146.184 31.9C145.61 31.6067 145.164 31.2 144.844 30.68C144.524 30.16 144.364 29.5667 144.364 28.9C144.364 28.18 144.55 27.5667 144.924 27.06C145.31 26.54 145.824 26.1467 146.464 25.88C147.104 25.6133 147.81 25.48 148.584 25.48C149.224 25.48 149.784 25.54 150.264 25.66C150.757 25.78 151.13 25.9067 151.384 26.04V25.5C151.384 24.8333 151.144 24.3 150.664 23.9C150.184 23.5 149.564 23.3 148.804 23.3C148.284 23.3 147.79 23.42 147.324 23.66C146.857 23.8867 146.484 24.2 146.204 24.6L144.724 23.46C145.164 22.8467 145.744 22.3667 146.464 22.02C147.197 21.66 147.997 21.48 148.864 21.48C150.344 21.48 151.484 21.8467 152.284 22.58C153.084 23.3 153.484 24.3133 153.484 25.62V32H151.384V30.74H151.264C150.997 31.1533 150.597 31.52 150.064 31.84C149.53 32.16 148.89 32.32 148.144 32.32ZM148.524 30.56C149.084 30.56 149.577 30.4267 150.004 30.16C150.43 29.8933 150.764 29.5467 151.004 29.12C151.257 28.68 151.384 28.2067 151.384 27.7C151.077 27.5267 150.717 27.3867 150.304 27.28C149.89 27.16 149.45 27.1 148.984 27.1C148.104 27.1 147.477 27.28 147.104 27.64C146.73 27.9867 146.544 28.4133 146.544 28.92C146.544 29.4 146.724 29.7933 147.084 30.1C147.444 30.4067 147.924 30.56 148.524 30.56ZM160.55 32V17.68H162.71V32H160.55ZM168.358 32.32C167.625 32.32 166.972 32.18 166.398 31.9C165.825 31.6067 165.378 31.2 165.058 30.68C164.738 30.16 164.578 29.5667 164.578 28.9C164.578 28.18 164.765 27.5667 165.138 27.06C165.525 26.54 166.038 26.1467 166.678 25.88C167.318 25.6133 168.025 25.48 168.798 25.48C169.438 25.48 169.998 25.54 170.478 25.66C170.972 25.78 171.345 25.9067 171.598 26.04V25.5C171.598 24.8333 171.358 24.3 170.878 23.9C170.398 23.5 169.778 23.3 169.018 23.3C168.498 23.3 168.005 23.42 167.538 23.66C167.072 23.8867 166.698 24.2 166.418 24.6L164.938 23.46C165.378 22.8467 165.958 22.3667 166.678 22.02C167.412 21.66 168.212 21.48 169.078 21.48C170.558 21.48 171.698 21.8467 172.498 22.58C173.298 23.3 173.698 24.3133 173.698 25.62V32H171.598V30.74H171.478C171.212 31.1533 170.812 31.52 170.278 31.84C169.745 32.16 169.105 32.32 168.358 32.32ZM168.738 30.56C169.298 30.56 169.792 30.4267 170.218 30.16C170.645 29.8933 170.978 29.5467 171.218 29.12C171.472 28.68 171.598 28.2067 171.598 27.7C171.292 27.5267 170.932 27.3867 170.518 27.28C170.105 27.16 169.665 27.1 169.198 27.1C168.318 27.1 167.692 27.28 167.318 27.64C166.945 27.9867 166.758 28.4133 166.758 28.92C166.758 29.4 166.938 29.7933 167.298 30.1C167.658 30.4067 168.138 30.56 168.738 30.56Z" fill="white"/>
<path d="M181.62 32V17.68H186.98C187.753 17.68 188.46 17.8467 189.1 18.18C189.753 18.5133 190.267 18.9667 190.64 19.54C191.027 20.1133 191.22 20.76 191.22 21.48C191.22 22.2133 191.033 22.84 190.66 23.36C190.3 23.88 189.84 24.2733 189.28 24.54V24.64C190 24.8933 190.587 25.3133 191.04 25.9C191.493 26.4733 191.72 27.1667 191.72 27.98C191.72 28.78 191.513 29.4867 191.1 30.1C190.7 30.7 190.153 31.1667 189.46 31.5C188.78 31.8333 188.033 32 187.22 32H181.62ZM186.96 19.7H183.82V23.7H186.88C187.573 23.7 188.113 23.4933 188.5 23.08C188.887 22.6533 189.08 22.1867 189.08 21.68C189.08 21.1867 188.893 20.7333 188.52 20.32C188.147 19.9067 187.627 19.7 186.96 19.7ZM183.82 29.96H187.22C187.94 29.96 188.5 29.7467 188.9 29.32C189.313 28.88 189.52 28.38 189.52 27.82C189.52 27.26 189.313 26.76 188.9 26.32C188.487 25.88 187.9 25.66 187.14 25.66H183.82V29.96ZM195.02 20.3C194.62 20.3 194.273 20.16 193.98 19.88C193.7 19.5867 193.56 19.24 193.56 18.84C193.56 18.44 193.7 18.1 193.98 17.82C194.273 17.54 194.62 17.4 195.02 17.4C195.42 17.4 195.76 17.54 196.04 17.82C196.333 18.1 196.48 18.44 196.48 18.84C196.48 19.24 196.333 19.5867 196.04 19.88C195.76 20.16 195.42 20.3 195.02 20.3ZM193.94 32V21.8H196.1V32H193.94ZM198.8 32V17.68H200.96V32H198.8ZM203.526 32V17.68H205.686V32H203.526ZM212.795 32.32C211.795 32.32 210.902 32.0867 210.115 31.62C209.328 31.1533 208.708 30.5133 208.255 29.7C207.815 28.8867 207.595 27.96 207.595 26.92C207.595 25.9467 207.808 25.0467 208.235 24.22C208.662 23.3933 209.255 22.7333 210.015 22.24C210.788 21.7333 211.675 21.48 212.675 21.48C213.728 21.48 214.622 21.7067 215.355 22.16C216.102 22.6133 216.668 23.2333 217.055 24.02C217.442 24.8067 217.635 25.6933 217.635 26.68C217.635 26.8267 217.628 26.96 217.615 27.08C217.615 27.2 217.608 27.2933 217.595 27.36H209.715C209.822 28.3733 210.175 29.1333 210.775 29.64C211.388 30.1467 212.082 30.4 212.855 30.4C213.548 30.4 214.122 30.2467 214.575 29.94C215.028 29.62 215.388 29.2267 215.655 28.76L217.435 29.62C216.995 30.42 216.395 31.0733 215.635 31.58C214.875 32.0733 213.928 32.32 212.795 32.32ZM212.695 23.32C211.975 23.32 211.362 23.54 210.855 23.98C210.348 24.42 210.008 25.0067 209.835 25.74H215.495C215.468 25.3933 215.355 25.0333 215.155 24.66C214.955 24.2867 214.648 23.9733 214.235 23.72C213.835 23.4533 213.322 23.32 212.695 23.32ZM220.426 29.04V23.68H218.646V21.8H220.426V18.92H222.586V21.8H225.086V23.68H222.586V28.58C222.586 29.0867 222.686 29.4733 222.886 29.74C223.099 30.0067 223.453 30.14 223.946 30.14C224.199 30.14 224.413 30.1067 224.586 30.04C224.773 29.9733 224.959 29.88 225.146 29.76V31.86C224.919 31.9533 224.679 32.0267 224.426 32.08C224.173 32.1333 223.873 32.16 223.526 32.16C222.579 32.16 221.826 31.8867 221.266 31.34C220.706 30.78 220.426 30.0133 220.426 29.04ZM231.428 32.32C230.428 32.32 229.534 32.0867 228.748 31.62C227.961 31.1533 227.341 30.5133 226.888 29.7C226.448 28.8867 226.228 27.96 226.228 26.92C226.228 25.9467 226.441 25.0467 226.868 24.22C227.294 23.3933 227.888 22.7333 228.648 22.24C229.421 21.7333 230.308 21.48 231.308 21.48C232.361 21.48 233.254 21.7067 233.988 22.16C234.734 22.6133 235.301 23.2333 235.688 24.02C236.074 24.8067 236.268 25.6933 236.268 26.68C236.268 26.8267 236.261 26.96 236.248 27.08C236.248 27.2 236.241 27.2933 236.228 27.36H228.348C228.454 28.3733 228.808 29.1333 229.408 29.64C230.021 30.1467 230.714 30.4 231.488 30.4C232.181 30.4 232.754 30.2467 233.208 29.94C233.661 29.62 234.021 29.2267 234.288 28.76L236.068 29.62C235.628 30.42 235.028 31.0733 234.268 31.58C233.508 32.0733 232.561 32.32 231.428 32.32ZM231.328 23.32C230.608 23.32 229.994 23.54 229.488 23.98C228.981 24.42 228.641 25.0067 228.468 25.74H234.128C234.101 25.3933 233.988 25.0333 233.788 24.66C233.588 24.2867 233.281 23.9733 232.868 23.72C232.468 23.4533 231.954 23.32 231.328 23.32ZM238.272 32V21.8H240.312V23.3H240.432C240.658 22.78 241.045 22.3533 241.592 22.02C242.152 21.6733 242.752 21.5 243.392 21.5C243.672 21.5 243.905 21.52 244.092 21.56C244.292 21.6 244.472 21.6467 244.632 21.7V23.94C244.378 23.8333 244.118 23.7467 243.852 23.68C243.598 23.6133 243.332 23.58 243.052 23.58C242.545 23.58 242.092 23.72 241.692 24C241.305 24.2667 240.998 24.6333 240.772 25.1C240.545 25.5533 240.432 26.0533 240.432 26.6V32H238.272ZM249.148 32.32C248.414 32.32 247.761 32.18 247.188 31.9C246.614 31.6067 246.168 31.2 245.848 30.68C245.528 30.16 245.368 29.5667 245.368 28.9C245.368 28.18 245.554 27.5667 245.928 27.06C246.314 26.54 246.828 26.1467 247.468 25.88C248.108 25.6133 248.814 25.48 249.588 25.48C250.228 25.48 250.788 25.54 251.268 25.66C251.761 25.78 252.134 25.9067 252.388 26.04V25.5C252.388 24.8333 252.148 24.3 251.668 23.9C251.188 23.5 250.568 23.3 249.808 23.3C249.288 23.3 248.794 23.42 248.328 23.66C247.861 23.8867 247.488 24.2 247.208 24.6L245.728 23.46C246.168 22.8467 246.748 22.3667 247.468 22.02C248.201 21.66 249.001 21.48 249.868 21.48C251.348 21.48 252.488 21.8467 253.288 22.58C254.088 23.3 254.488 24.3133 254.488 25.62V32H252.388V30.74H252.268C252.001 31.1533 251.601 31.52 251.068 31.84C250.534 32.16 249.894 32.32 249.148 32.32ZM249.528 30.56C250.088 30.56 250.581 30.4267 251.008 30.16C251.434 29.8933 251.768 29.5467 252.008 29.12C252.261 28.68 252.388 28.2067 252.388 27.7C252.081 27.5267 251.721 27.3867 251.308 27.28C250.894 27.16 250.454 27.1 249.988 27.1C249.108 27.1 248.481 27.28 248.108 27.64C247.734 27.9867 247.548 28.4133 247.548 28.92C247.548 29.4 247.728 29.7933 248.088 30.1C248.448 30.4067 248.928 30.56 249.528 30.56ZM265.893 32.32C264.973 32.32 264.14 32.0933 263.393 31.64C262.66 31.1733 262.073 30.5333 261.633 29.72C261.207 28.8933 260.993 27.9533 260.993 26.9C260.993 25.8467 261.207 24.9133 261.633 24.1C262.073 23.2867 262.66 22.6467 263.393 22.18C264.14 21.7133 264.973 21.48 265.893 21.48C266.68 21.48 267.353 21.6533 267.913 22C268.487 22.3467 268.907 22.74 269.173 23.18H269.293L269.173 21.76V17.68H271.313V32H269.293V30.64H269.173C268.907 31.08 268.487 31.4733 267.913 31.82C267.353 32.1533 266.68 32.32 265.893 32.32ZM266.213 30.34C266.747 30.34 267.247 30.2 267.713 29.92C268.193 29.64 268.573 29.2467 268.853 28.74C269.147 28.22 269.293 27.6067 269.293 26.9C269.293 26.1933 269.147 25.5867 268.853 25.08C268.573 24.56 268.193 24.16 267.713 23.88C267.247 23.6 266.747 23.46 266.213 23.46C265.68 23.46 265.18 23.6 264.713 23.88C264.247 24.16 263.867 24.56 263.573 25.08C263.28 25.5867 263.133 26.1933 263.133 26.9C263.133 27.6067 263.28 28.22 263.573 28.74C263.867 29.2467 264.247 29.64 264.713 29.92C265.18 30.2 265.68 30.34 266.213 30.34ZM278.42 32.32C277.42 32.32 276.527 32.0867 275.74 31.62C274.953 31.1533 274.333 30.5133 273.88 29.7C273.44 28.8867 273.22 27.96 273.22 26.92C273.22 25.9467 273.433 25.0467 273.86 24.22C274.287 23.3933 274.88 22.7333 275.64 22.24C276.413 21.7333 277.3 21.48 278.3 21.48C279.353 21.48 280.247 21.7067 280.98 22.16C281.727 22.6133 282.293 23.2333 282.68 24.02C283.067 24.8067 283.26 25.6933 283.26 26.68C283.26 26.8267 283.253 26.96 283.24 27.08C283.24 27.2 283.233 27.2933 283.22 27.36H275.34C275.447 28.3733 275.8 29.1333 276.4 29.64C277.013 30.1467 277.707 30.4 278.48 30.4C279.173 30.4 279.747 30.2467 280.2 29.94C280.653 29.62 281.013 29.2267 281.28 28.76L283.06 29.62C282.62 30.42 282.02 31.0733 281.26 31.58C280.5 32.0733 279.553 32.32 278.42 32.32ZM278.32 23.32C277.6 23.32 276.987 23.54 276.48 23.98C275.973 24.42 275.633 25.0067 275.46 25.74H281.12C281.093 25.3933 280.98 25.0333 280.78 24.66C280.58 24.2867 280.273 23.9733 279.86 23.72C279.46 23.4533 278.947 23.32 278.32 23.32ZM296.681 32.32C295.655 32.32 294.688 32.1333 293.781 31.76C292.888 31.3867 292.095 30.8667 291.401 30.2C290.708 29.52 290.161 28.7267 289.761 27.82C289.375 26.9 289.181 25.9067 289.181 24.84C289.181 23.7733 289.375 22.7867 289.761 21.88C290.161 20.96 290.701 20.1667 291.381 19.5C292.075 18.82 292.875 18.2933 293.781 17.92C294.688 17.5467 295.655 17.36 296.681 17.36C297.775 17.36 298.781 17.5533 299.701 17.94C300.635 18.3267 301.415 18.8667 302.041 19.56L300.521 21.06C300.055 20.54 299.495 20.14 298.841 19.86C298.201 19.58 297.481 19.44 296.681 19.44C295.735 19.44 294.861 19.6667 294.061 20.12C293.261 20.56 292.615 21.1867 292.121 22C291.641 22.8 291.401 23.7467 291.401 24.84C291.401 25.9333 291.648 26.8867 292.141 27.7C292.635 28.5 293.281 29.1267 294.081 29.58C294.881 30.02 295.755 30.24 296.701 30.24C297.568 30.24 298.355 30.08 299.061 29.76C299.768 29.4267 300.335 28.96 300.761 28.36C301.201 27.76 301.468 27.04 301.561 26.2H296.661V24.26H303.621C303.701 24.62 303.741 25 303.741 25.4V25.42C303.741 26.8067 303.435 28.02 302.821 29.06C302.221 30.0867 301.388 30.8867 300.321 31.46C299.255 32.0333 298.041 32.32 296.681 32.32ZM310.181 32.32C309.128 32.32 308.201 32.08 307.401 31.6C306.601 31.12 305.974 30.4733 305.521 29.66C305.068 28.8467 304.841 27.9267 304.841 26.9C304.841 25.8867 305.068 24.9733 305.521 24.16C305.974 23.3333 306.601 22.68 307.401 22.2C308.201 21.72 309.128 21.48 310.181 21.48C311.221 21.48 312.141 21.72 312.941 22.2C313.741 22.68 314.368 23.3333 314.821 24.16C315.274 24.9733 315.501 25.8867 315.501 26.9C315.501 27.9267 315.274 28.8467 314.821 29.66C314.368 30.4733 313.741 31.12 312.941 31.6C312.141 32.08 311.221 32.32 310.181 32.32ZM310.181 30.34C310.741 30.34 311.261 30.2067 311.741 29.94C312.221 29.66 312.608 29.2667 312.901 28.76C313.208 28.24 313.361 27.62 313.361 26.9C313.361 26.18 313.208 25.5667 312.901 25.06C312.608 24.54 312.221 24.1467 311.741 23.88C311.261 23.6 310.741 23.46 310.181 23.46C309.621 23.46 309.094 23.6 308.601 23.88C308.121 24.1467 307.728 24.54 307.421 25.06C307.128 25.5667 306.981 26.18 306.981 26.9C306.981 27.62 307.128 28.24 307.421 28.76C307.728 29.2667 308.121 29.66 308.601 29.94C309.094 30.2067 309.621 30.34 310.181 30.34ZM322.29 32.32C321.237 32.32 320.31 32.08 319.51 31.6C318.71 31.12 318.084 30.4733 317.63 29.66C317.177 28.8467 316.95 27.9267 316.95 26.9C316.95 25.8867 317.177 24.9733 317.63 24.16C318.084 23.3333 318.71 22.68 319.51 22.2C320.31 21.72 321.237 21.48 322.29 21.48C323.33 21.48 324.25 21.72 325.05 22.2C325.85 22.68 326.477 23.3333 326.93 24.16C327.384 24.9733 327.61 25.8867 327.61 26.9C327.61 27.9267 327.384 28.8467 326.93 29.66C326.477 30.4733 325.85 31.12 325.05 31.6C324.25 32.08 323.33 32.32 322.29 32.32ZM322.29 30.34C322.85 30.34 323.37 30.2067 323.85 29.94C324.33 29.66 324.717 29.2667 325.01 28.76C325.317 28.24 325.47 27.62 325.47 26.9C325.47 26.18 325.317 25.5667 325.01 25.06C324.717 24.54 324.33 24.1467 323.85 23.88C323.37 23.6 322.85 23.46 322.29 23.46C321.73 23.46 321.204 23.6 320.71 23.88C320.23 24.1467 319.837 24.54 319.53 25.06C319.237 25.5667 319.09 26.18 319.09 26.9C319.09 27.62 319.237 28.24 319.53 28.76C319.837 29.2667 320.23 29.66 320.71 29.94C321.204 30.2067 321.73 30.34 322.29 30.34ZM334.2 36.64C333.307 36.64 332.533 36.4933 331.88 36.2C331.24 35.92 330.72 35.5533 330.32 35.1C329.92 34.66 329.633 34.2067 329.46 33.74L331.46 32.9C331.673 33.4333 332.013 33.8667 332.48 34.2C332.96 34.5467 333.533 34.72 334.2 34.72C335.133 34.72 335.867 34.44 336.4 33.88C336.947 33.32 337.22 32.5267 337.22 31.5V30.52H337.1C336.78 31 336.333 31.3867 335.76 31.68C335.2 31.96 334.56 32.1 333.84 32.1C332.973 32.1 332.18 31.88 331.46 31.44C330.74 31 330.16 30.3867 329.72 29.6C329.28 28.8 329.06 27.8667 329.06 26.8C329.06 25.72 329.28 24.7867 329.72 24C330.16 23.2 330.74 22.58 331.46 22.14C332.18 21.7 332.973 21.48 333.84 21.48C334.56 21.48 335.2 21.6267 335.76 21.92C336.333 22.2133 336.78 22.6 337.1 23.08H337.22V21.8H339.28V31.46C339.28 32.5667 339.06 33.5067 338.62 34.28C338.193 35.0533 337.6 35.64 336.84 36.04C336.08 36.44 335.2 36.64 334.2 36.64ZM334.22 30.14C334.753 30.14 335.247 30.0133 335.7 29.76C336.153 29.4933 336.52 29.1133 336.8 28.62C337.08 28.1133 337.22 27.5067 337.22 26.8C337.22 26.0667 337.08 25.4533 336.8 24.96C336.52 24.4533 336.153 24.0733 335.7 23.82C335.247 23.5667 334.753 23.44 334.22 23.44C333.687 23.44 333.187 23.5733 332.72 23.84C332.267 24.0933 331.9 24.4667 331.62 24.96C331.34 25.4533 331.2 26.0667 331.2 26.8C331.2 27.52 331.34 28.1333 331.62 28.64C331.9 29.1333 332.267 29.5067 332.72 29.76C333.187 30.0133 333.687 30.14 334.22 30.14ZM341.827 32V17.68H343.987V32H341.827ZM351.096 32.32C350.096 32.32 349.202 32.0867 348.416 31.62C347.629 31.1533 347.009 30.5133 346.556 29.7C346.116 28.8867 345.896 27.96 345.896 26.92C345.896 25.9467 346.109 25.0467 346.536 24.22C346.962 23.3933 347.556 22.7333 348.316 22.24C349.089 21.7333 349.976 21.48 350.976 21.48C352.029 21.48 352.922 21.7067 353.656 22.16C354.402 22.6133 354.969 23.2333 355.356 24.02C355.742 24.8067 355.936 25.6933 355.936 26.68C355.936 26.8267 355.929 26.96 355.916 27.08C355.916 27.2 355.909 27.2933 355.896 27.36H348.016C348.122 28.3733 348.476 29.1333 349.076 29.64C349.689 30.1467 350.382 30.4 351.156 30.4C351.849 30.4 352.422 30.2467 352.876 29.94C353.329 29.62 353.689 29.2267 353.956 28.76L355.736 29.62C355.296 30.42 354.696 31.0733 353.936 31.58C353.176 32.0733 352.229 32.32 351.096 32.32ZM350.996 23.32C350.276 23.32 349.662 23.54 349.156 23.98C348.649 24.42 348.309 25.0067 348.136 25.74H353.796C353.769 25.3933 353.656 25.0333 353.456 24.66C353.256 24.2867 352.949 23.9733 352.536 23.72C352.136 23.4533 351.622 23.32 350.996 23.32Z" fill="white"/>
<rect x="0.5" y="0.5" width="377" height="49" rx="24.5" stroke="#747775"/>
<defs>
<linearGradient id="paint0_linear_1819_24690" x1="34.5703" y1="30.7864" x2="18.7309" y2="48.9133" gradientUnits="userSpaceOnUse">
<stop stop-color="#4285F4"/>
<stop offset="1" stop-color="#1B74E8"/>
</linearGradient>
</defs>
</svg>
