<svg width="404" height="50" viewBox="0 0 404 50" fill="none" xmlns="http://www.w3.org/2000/svg">
<rect x="0.5" y="0.5" width="403" height="49" rx="24.5" fill="#1F1F1F"/>
<path d="M51 22H21V17C21 14.2857 23.2018 12 25.8165 12H46.1835C48.7982 12 51 14.2857 51 17V22Z" fill="#34A853"/>
<path d="M51 26.0537H21V21.0537C21 18.3394 23.2018 16.0537 25.8165 16.0537H46.1835C48.7982 16.0537 51 18.3394 51 21.0537V26.0537Z" fill="#FBBC04"/>
<path d="M51 30.2468H21V25.2468C21 22.5325 23.2018 20.2468 25.8165 20.2468H46.1835C48.7982 20.2468 51 22.5325 51 25.2468V30.2468Z" fill="#EA4335"/>
<path d="M21 23.2752L40.0411 27.6789C42.2329 28.2294 44.6986 27.6789 46.4795 26.3028L51 23V33.3211C51 35.9358 48.8082 38 46.2055 38H25.7945C23.1918 38 21 35.9358 21 33.3211V23.2752Z" fill="url(#paint0_linear_1819_24348)"/>
<path d="M64.62 32V17.68H75.42V32H73.22V19.76H66.82V32H64.62ZM78.0277 36.32V27.06C78.0277 25.9267 78.2477 24.9467 78.6877 24.12C79.141 23.28 79.7543 22.6333 80.5277 22.18C81.3143 21.7133 82.201 21.48 83.1877 21.48C84.3077 21.48 85.2477 21.7333 86.0077 22.24C86.781 22.7333 87.3677 23.4 87.7677 24.24C88.1677 25.0667 88.3677 25.96 88.3677 26.92C88.3677 27.9733 88.1477 28.9067 87.7077 29.72C87.281 30.5333 86.701 31.1733 85.9677 31.64C85.2343 32.0933 84.421 32.32 83.5277 32.32C82.7277 32.32 82.041 32.1533 81.4677 31.82C80.9077 31.4867 80.481 31.0933 80.1877 30.64H80.0677L80.1877 32.04V36.32H78.0277ZM83.1277 30.34C83.6743 30.34 84.181 30.2 84.6477 29.92C85.1143 29.6267 85.4943 29.2267 85.7877 28.72C86.081 28.2133 86.2277 27.62 86.2277 26.94C86.2277 26.2067 86.0743 25.58 85.7677 25.06C85.4743 24.54 85.0943 24.1467 84.6277 23.88C84.161 23.6 83.661 23.46 83.1277 23.46C82.6343 23.46 82.1543 23.5933 81.6877 23.86C81.221 24.1267 80.8343 24.52 80.5277 25.04C80.221 25.56 80.0677 26.2067 80.0677 26.98C80.0677 27.62 80.2077 28.2 80.4877 28.72C80.7677 29.2267 81.141 29.6267 81.6077 29.92C82.0743 30.2 82.581 30.34 83.1277 30.34ZM95.1538 32.32C94.1004 32.32 93.1738 32.08 92.3738 31.6C91.5738 31.12 90.9471 30.4733 90.4938 29.66C90.0404 28.8467 89.8138 27.9267 89.8138 26.9C89.8138 25.8867 90.0404 24.9733 90.4938 24.16C90.9471 23.3333 91.5738 22.68 92.3738 22.2C93.1738 21.72 94.1004 21.48 95.1538 21.48C96.1938 21.48 97.1138 21.72 97.9138 22.2C98.7138 22.68 99.3404 23.3333 99.7938 24.16C100.247 24.9733 100.474 25.8867 100.474 26.9C100.474 27.9267 100.247 28.8467 99.7938 29.66C99.3404 30.4733 98.7138 31.12 97.9138 31.6C97.1138 32.08 96.1938 32.32 95.1538 32.32ZM95.1538 30.34C95.7138 30.34 96.2338 30.2067 96.7138 29.94C97.1938 29.66 97.5804 29.2667 97.8738 28.76C98.1804 28.24 98.3338 27.62 98.3338 26.9C98.3338 26.18 98.1804 25.5667 97.8738 25.06C97.5804 24.54 97.1938 24.1467 96.7138 23.88C96.2338 23.6 95.7138 23.46 95.1538 23.46C94.5938 23.46 94.0671 23.6 93.5738 23.88C93.0938 24.1467 92.7004 24.54 92.3938 25.06C92.1004 25.5667 91.9538 26.18 91.9538 26.9C91.9538 27.62 92.1004 28.24 92.3938 28.76C92.7004 29.2667 93.0938 29.66 93.5738 29.94C94.0671 30.2067 94.5938 30.34 95.1538 30.34ZM107.123 32.32C106.096 32.32 105.19 32.0933 104.403 31.64C103.616 31.1733 103.003 30.5467 102.563 29.76C102.136 28.96 101.923 28.06 101.923 27.06C101.923 26.0467 102.143 25.1467 102.583 24.36C103.023 23.5733 103.65 22.9533 104.463 22.5C105.29 22.0333 106.263 21.8 107.383 21.8H113.603V23.68H112.423L110.843 23.54V23.66C111.31 24.02 111.683 24.48 111.963 25.04C112.243 25.6 112.383 26.2533 112.383 27C112.383 28 112.163 28.9 111.723 29.7C111.283 30.5 110.663 31.14 109.863 31.62C109.076 32.0867 108.163 32.32 107.123 32.32ZM107.143 30.34C107.69 30.34 108.196 30.2133 108.663 29.96C109.13 29.6933 109.51 29.3133 109.803 28.82C110.096 28.3267 110.243 27.7333 110.243 27.04C110.243 26.32 110.096 25.7133 109.803 25.22C109.51 24.7133 109.13 24.3267 108.663 24.06C108.196 23.7933 107.69 23.66 107.143 23.66C106.61 23.66 106.103 23.7933 105.623 24.06C105.156 24.3267 104.776 24.7133 104.483 25.22C104.203 25.7133 104.063 26.32 104.063 27.04C104.063 27.7333 104.203 28.3267 104.483 28.82C104.776 29.3133 105.156 29.6933 105.623 29.96C106.103 30.2133 106.61 30.34 107.143 30.34ZM120.211 32.32C119.171 32.32 118.258 32.0533 117.471 31.52C116.698 30.9733 116.091 30.1533 115.651 29.06C115.225 27.9533 115.011 26.5667 115.011 24.9C115.011 23.2467 115.225 21.8733 115.651 20.78C116.091 19.6867 116.698 18.8733 117.471 18.34C118.258 17.7933 119.171 17.52 120.211 17.52C121.251 17.52 122.158 17.7933 122.931 18.34C123.718 18.8733 124.331 19.6867 124.771 20.78C125.211 21.8733 125.431 23.2467 125.431 24.9C125.431 26.5667 125.211 27.9533 124.771 29.06C124.331 30.1533 123.718 30.9733 122.931 31.52C122.158 32.0533 121.251 32.32 120.211 32.32ZM120.211 19.5C119.705 19.5 119.231 19.6267 118.791 19.88C118.365 20.1333 118.005 20.58 117.711 21.22C117.418 21.86 117.238 22.76 117.171 23.92H123.251C123.198 22.76 123.025 21.86 122.731 21.22C122.438 20.58 122.071 20.1333 121.631 19.88C121.191 19.6267 120.718 19.5 120.211 19.5ZM120.211 30.34C120.718 30.34 121.185 30.2 121.611 29.92C122.051 29.64 122.411 29.1733 122.691 28.52C122.985 27.8533 123.171 26.9467 123.251 25.8H117.191C117.258 26.9467 117.431 27.8533 117.711 28.52C118.005 29.1867 118.365 29.66 118.791 29.94C119.231 30.2067 119.705 30.34 120.211 30.34ZM127.502 32V21.8H129.542V23.2H129.662C129.956 22.7067 130.389 22.3 130.962 21.98C131.549 21.6467 132.189 21.48 132.882 21.48C134.136 21.48 135.076 21.8533 135.702 22.6C136.329 23.3467 136.642 24.3333 136.642 25.56V36.32H134.502V25.84C134.502 25.0133 134.296 24.4133 133.882 24.04C133.469 23.6533 132.929 23.46 132.262 23.46C131.742 23.46 131.289 23.6067 130.902 23.9C130.516 24.18 130.209 24.5533 129.982 25.02C129.769 25.4867 129.662 25.9867 129.662 26.52V32H127.502ZM130.882 19.84L131.622 16.72H134.182L132.702 19.84H130.882ZM139.104 32V21.8H141.264V26.14L145.584 21.8H148.264V21.92L144.324 25.82L148.404 31.88V32H145.844L142.824 27.32L141.264 28.84V32H139.104ZM149.748 32V21.8H151.788V23.2H151.908C152.202 22.7067 152.635 22.3 153.208 21.98C153.795 21.6467 154.435 21.48 155.128 21.48C156.382 21.48 157.322 21.8533 157.948 22.6C158.575 23.3467 158.888 24.3333 158.888 25.56V36.32H156.748V25.84C156.748 25.0133 156.542 24.4133 156.128 24.04C155.715 23.6533 155.175 23.46 154.508 23.46C153.988 23.46 153.535 23.6067 153.148 23.9C152.762 24.18 152.455 24.5533 152.228 25.02C152.015 25.4867 151.908 25.9867 151.908 26.52V32H149.748ZM170.678 32.32C169.651 32.32 168.744 32.0933 167.958 31.64C167.171 31.1733 166.558 30.5467 166.118 29.76C165.691 28.96 165.478 28.06 165.478 27.06C165.478 26.0467 165.698 25.1467 166.138 24.36C166.578 23.5733 167.204 22.9533 168.018 22.5C168.844 22.0333 169.818 21.8 170.938 21.8H177.158V23.68H175.978L174.398 23.54V23.66C174.864 24.02 175.238 24.48 175.518 25.04C175.798 25.6 175.938 26.2533 175.938 27C175.938 28 175.718 28.9 175.278 29.7C174.838 30.5 174.218 31.14 173.418 31.62C172.631 32.0867 171.718 32.32 170.678 32.32ZM170.698 30.34C171.244 30.34 171.751 30.2133 172.218 29.96C172.684 29.6933 173.064 29.3133 173.358 28.82C173.651 28.3267 173.798 27.7333 173.798 27.04C173.798 26.32 173.651 25.7133 173.358 25.22C173.064 24.7133 172.684 24.3267 172.218 24.06C171.751 23.7933 171.244 23.66 170.698 23.66C170.164 23.66 169.658 23.7933 169.178 24.06C168.711 24.3267 168.331 24.7133 168.038 25.22C167.758 25.7133 167.618 26.32 167.618 27.04C167.618 27.7333 167.758 28.3267 168.038 28.82C168.331 29.3133 168.711 29.6933 169.178 29.96C169.658 30.2133 170.164 30.34 170.698 30.34ZM184.686 32.16C183.753 32.16 182.999 31.8933 182.426 31.36C181.853 30.8267 181.566 30.06 181.566 29.06V23.68H178.306V21.8H187.546V23.68H183.706V28.6C183.706 29.12 183.813 29.5067 184.026 29.76C184.253 30.0133 184.606 30.14 185.086 30.14C185.339 30.14 185.553 30.1067 185.726 30.04C185.913 29.96 186.093 29.8667 186.266 29.76V31.86C185.786 32.06 185.259 32.16 184.686 32.16ZM194.197 32.32C193.143 32.32 192.217 32.08 191.417 31.6C190.617 31.12 189.99 30.4733 189.537 29.66C189.083 28.8467 188.857 27.9267 188.857 26.9C188.857 25.8867 189.083 24.9733 189.537 24.16C189.99 23.3333 190.617 22.68 191.417 22.2C192.217 21.72 193.143 21.48 194.197 21.48C195.237 21.48 196.157 21.72 196.957 22.2C197.757 22.68 198.383 23.3333 198.837 24.16C199.29 24.9733 199.517 25.8867 199.517 26.9C199.517 27.9267 199.29 28.8467 198.837 29.66C198.383 30.4733 197.757 31.12 196.957 31.6C196.157 32.08 195.237 32.32 194.197 32.32ZM194.197 30.34C194.757 30.34 195.277 30.2067 195.757 29.94C196.237 29.66 196.623 29.2667 196.917 28.76C197.223 28.24 197.377 27.62 197.377 26.9C197.377 26.18 197.223 25.5667 196.917 25.06C196.623 24.54 196.237 24.1467 195.757 23.88C195.277 23.6 194.757 23.46 194.197 23.46C193.637 23.46 193.11 23.6 192.617 23.88C192.137 24.1467 191.743 24.54 191.437 25.06C191.143 25.5667 190.997 26.18 190.997 26.9C190.997 27.62 191.143 28.24 191.437 28.76C191.743 29.2667 192.137 29.66 192.617 29.94C193.11 30.2067 193.637 30.34 194.197 30.34Z" fill="white"/>
<path d="M207.62 32V17.68H218.42V32H216.22V19.76H209.82V32H207.62ZM225.908 32.32C224.854 32.32 223.928 32.08 223.128 31.6C222.328 31.12 221.701 30.4733 221.248 29.66C220.794 28.8467 220.568 27.9267 220.568 26.9C220.568 25.8867 220.794 24.9733 221.248 24.16C221.701 23.3333 222.328 22.68 223.128 22.2C223.928 21.72 224.854 21.48 225.908 21.48C226.948 21.48 227.868 21.72 228.668 22.2C229.468 22.68 230.094 23.3333 230.548 24.16C231.001 24.9733 231.228 25.8867 231.228 26.9C231.228 27.9267 231.001 28.8467 230.548 29.66C230.094 30.4733 229.468 31.12 228.668 31.6C227.868 32.08 226.948 32.32 225.908 32.32ZM225.908 30.34C226.468 30.34 226.988 30.2067 227.468 29.94C227.948 29.66 228.334 29.2667 228.628 28.76C228.934 28.24 229.088 27.62 229.088 26.9C229.088 26.18 228.934 25.5667 228.628 25.06C228.334 24.54 227.948 24.1467 227.468 23.88C226.988 23.6 226.468 23.46 225.908 23.46C225.348 23.46 224.821 23.6 224.328 23.88C223.848 24.1467 223.454 24.54 223.148 25.06C222.854 25.5667 222.708 26.18 222.708 26.9C222.708 27.62 222.854 28.24 223.148 28.76C223.454 29.2667 223.848 29.66 224.328 29.94C224.821 30.2067 225.348 30.34 225.908 30.34ZM232.942 36.32V27.06C232.942 25.9267 233.162 24.9467 233.602 24.12C234.055 23.28 234.668 22.6333 235.442 22.18C236.228 21.7133 237.115 21.48 238.102 21.48C239.222 21.48 240.162 21.7333 240.922 22.24C241.695 22.7333 242.282 23.4 242.682 24.24C243.082 25.0667 243.282 25.96 243.282 26.92C243.282 27.9733 243.062 28.9067 242.622 29.72C242.195 30.5333 241.615 31.1733 240.882 31.64C240.148 32.0933 239.335 32.32 238.442 32.32C237.642 32.32 236.955 32.1533 236.382 31.82C235.822 31.4867 235.395 31.0933 235.102 30.64H234.982L235.102 32.04V36.32H232.942ZM238.042 30.34C238.588 30.34 239.095 30.2 239.562 29.92C240.028 29.6267 240.408 29.2267 240.702 28.72C240.995 28.2133 241.142 27.62 241.142 26.94C241.142 26.2067 240.988 25.58 240.682 25.06C240.388 24.54 240.008 24.1467 239.542 23.88C239.075 23.6 238.575 23.46 238.042 23.46C237.548 23.46 237.068 23.5933 236.602 23.86C236.135 24.1267 235.748 24.52 235.442 25.04C235.135 25.56 234.982 26.2067 234.982 26.98C234.982 27.62 235.122 28.2 235.402 28.72C235.682 29.2267 236.055 29.6267 236.522 29.92C236.988 30.2 237.495 30.34 238.042 30.34ZM250.753 32.16C249.819 32.16 249.066 31.8933 248.493 31.36C247.919 30.8267 247.633 30.06 247.633 29.06V23.68H244.373V21.8H253.613V23.68H249.773V28.6C249.773 29.12 249.879 29.5067 250.093 29.76C250.319 30.0133 250.673 30.14 251.153 30.14C251.406 30.14 251.619 30.1067 251.793 30.04C251.979 29.96 252.159 29.8667 252.333 29.76V31.86C251.853 32.06 251.326 32.16 250.753 32.16ZM260.263 32.32C259.21 32.32 258.283 32.08 257.483 31.6C256.683 31.12 256.056 30.4733 255.603 29.66C255.15 28.8467 254.923 27.9267 254.923 26.9C254.923 25.8867 255.15 24.9733 255.603 24.16C256.056 23.3333 256.683 22.68 257.483 22.2C258.283 21.72 259.21 21.48 260.263 21.48C261.303 21.48 262.223 21.72 263.023 22.2C263.823 22.68 264.45 23.3333 264.903 24.16C265.356 24.9733 265.583 25.8867 265.583 26.9C265.583 27.9267 265.356 28.8467 264.903 29.66C264.45 30.4733 263.823 31.12 263.023 31.6C262.223 32.08 261.303 32.32 260.263 32.32ZM260.263 30.34C260.823 30.34 261.343 30.2067 261.823 29.94C262.303 29.66 262.69 29.2667 262.983 28.76C263.29 28.24 263.443 27.62 263.443 26.9C263.443 26.18 263.29 25.5667 262.983 25.06C262.69 24.54 262.303 24.1467 261.823 23.88C261.343 23.6 260.823 23.46 260.263 23.46C259.703 23.46 259.176 23.6 258.683 23.88C258.203 24.1467 257.81 24.54 257.503 25.06C257.21 25.5667 257.063 26.18 257.063 26.9C257.063 27.62 257.21 28.24 257.503 28.76C257.81 29.2667 258.203 29.66 258.683 29.94C259.176 30.2067 259.703 30.34 260.263 30.34ZM267.033 26.9C267.033 25.94 267.226 25.0667 267.613 24.28C268.013 23.4933 268.626 22.8533 269.453 22.36C270.279 21.8533 271.339 21.54 272.633 21.42V18.92H274.793V21.42C276.086 21.54 277.139 21.8533 277.953 22.36C278.779 22.8533 279.386 23.4933 279.773 24.28C280.173 25.0667 280.373 25.94 280.373 26.9C280.373 27.82 280.173 28.6733 279.773 29.46C279.386 30.2467 278.779 30.9 277.953 31.42C277.126 31.94 276.073 32.26 274.793 32.38V36.32H272.633V32.38C271.339 32.26 270.279 31.94 269.453 31.42C268.626 30.9 268.013 30.2467 267.613 29.46C267.226 28.6733 267.033 27.82 267.033 26.9ZM278.233 26.9C278.233 25.8867 277.959 25.0667 277.413 24.44C276.879 23.8 276.006 23.4133 274.793 23.28V30.52C275.993 30.3733 276.866 29.9733 277.413 29.32C277.959 28.6533 278.233 27.8467 278.233 26.9ZM269.193 26.9C269.193 27.8333 269.459 28.6333 269.993 29.3C270.526 29.9533 271.406 30.36 272.633 30.52V23.28C271.419 23.4267 270.539 23.82 269.993 24.46C269.459 25.0867 269.193 25.9 269.193 26.9ZM287.158 32.32C286.104 32.32 285.178 32.08 284.378 31.6C283.578 31.12 282.951 30.4733 282.498 29.66C282.044 28.8467 281.818 27.9267 281.818 26.9C281.818 25.8867 282.044 24.9733 282.498 24.16C282.951 23.3333 283.578 22.68 284.378 22.2C285.178 21.72 286.104 21.48 287.158 21.48C288.198 21.48 289.118 21.72 289.918 22.2C290.718 22.68 291.344 23.3333 291.798 24.16C292.251 24.9733 292.478 25.8867 292.478 26.9C292.478 27.9267 292.251 28.8467 291.798 29.66C291.344 30.4733 290.718 31.12 289.918 31.6C289.118 32.08 288.198 32.32 287.158 32.32ZM287.158 30.34C287.718 30.34 288.238 30.2067 288.718 29.94C289.198 29.66 289.584 29.2667 289.878 28.76C290.184 28.24 290.338 27.62 290.338 26.9C290.338 26.18 290.184 25.5667 289.878 25.06C289.584 24.54 289.198 24.1467 288.718 23.88C288.238 23.6 287.718 23.46 287.158 23.46C286.598 23.46 286.071 23.6 285.578 23.88C285.098 24.1467 284.704 24.54 284.398 25.06C284.104 25.5667 283.958 26.18 283.958 26.9C283.958 27.62 284.104 28.24 284.398 28.76C284.704 29.2667 285.098 29.66 285.578 29.94C286.071 30.2067 286.598 30.34 287.158 30.34ZM286.238 19.84L286.978 16.72H289.538L288.058 19.84H286.238ZM292.976 32L297.216 22.44L296.476 20.86C296.236 20.34 296.003 19.9933 295.776 19.82C295.55 19.6333 295.263 19.54 294.916 19.54C294.596 19.54 294.29 19.6267 293.996 19.8V17.7C294.183 17.6467 294.383 17.6067 294.596 17.58C294.81 17.54 295.056 17.52 295.336 17.52C295.883 17.52 296.33 17.6 296.676 17.76C297.036 17.92 297.343 18.1933 297.596 18.58C297.863 18.9533 298.13 19.4533 298.396 20.08L303.576 32H301.216L298.396 25.04H298.296L295.376 32H292.976ZM307.839 32.16C306.879 32.16 306.119 31.8867 305.559 31.34C304.999 30.78 304.719 30.0133 304.719 29.04V21.8H306.879V28.58C306.879 29.0867 306.986 29.4733 307.199 29.74C307.412 30.0067 307.759 30.14 308.239 30.14C308.492 30.14 308.706 30.1067 308.879 30.04C309.066 29.9733 309.252 29.88 309.439 29.76V31.86C309.212 31.9533 308.972 32.0267 308.719 32.08C308.466 32.1333 308.172 32.16 307.839 32.16ZM322.701 32.32C321.674 32.32 320.707 32.1333 319.801 31.76C318.907 31.3867 318.114 30.8667 317.421 30.2C316.727 29.52 316.181 28.7267 315.781 27.82C315.394 26.9 315.201 25.9067 315.201 24.84C315.201 23.7733 315.394 22.7867 315.781 21.88C316.181 20.96 316.721 20.1667 317.401 19.5C318.094 18.82 318.894 18.2933 319.801 17.92C320.707 17.5467 321.674 17.36 322.701 17.36C323.794 17.36 324.801 17.5533 325.721 17.94C326.654 18.3267 327.434 18.8667 328.061 19.56L326.541 21.06C326.074 20.54 325.514 20.14 324.861 19.86C324.221 19.58 323.501 19.44 322.701 19.44C321.754 19.44 320.881 19.6667 320.081 20.12C319.281 20.56 318.634 21.1867 318.141 22C317.661 22.8 317.421 23.7467 317.421 24.84C317.421 25.9333 317.667 26.8867 318.161 27.7C318.654 28.5 319.301 29.1267 320.101 29.58C320.901 30.02 321.774 30.24 322.721 30.24C323.587 30.24 324.374 30.08 325.081 29.76C325.787 29.4267 326.354 28.96 326.781 28.36C327.221 27.76 327.487 27.04 327.581 26.2H322.681V24.26H329.641C329.721 24.62 329.761 25 329.761 25.4V25.42C329.761 26.8067 329.454 28.02 328.841 29.06C328.241 30.0867 327.407 30.8867 326.341 31.46C325.274 32.0333 324.061 32.32 322.701 32.32ZM336.201 32.32C335.147 32.32 334.221 32.08 333.421 31.6C332.621 31.12 331.994 30.4733 331.541 29.66C331.087 28.8467 330.861 27.9267 330.861 26.9C330.861 25.8867 331.087 24.9733 331.541 24.16C331.994 23.3333 332.621 22.68 333.421 22.2C334.221 21.72 335.147 21.48 336.201 21.48C337.241 21.48 338.161 21.72 338.961 22.2C339.761 22.68 340.387 23.3333 340.841 24.16C341.294 24.9733 341.521 25.8867 341.521 26.9C341.521 27.9267 341.294 28.8467 340.841 29.66C340.387 30.4733 339.761 31.12 338.961 31.6C338.161 32.08 337.241 32.32 336.201 32.32ZM336.201 30.34C336.761 30.34 337.281 30.2067 337.761 29.94C338.241 29.66 338.627 29.2667 338.921 28.76C339.227 28.24 339.381 27.62 339.381 26.9C339.381 26.18 339.227 25.5667 338.921 25.06C338.627 24.54 338.241 24.1467 337.761 23.88C337.281 23.6 336.761 23.46 336.201 23.46C335.641 23.46 335.114 23.6 334.621 23.88C334.141 24.1467 333.747 24.54 333.441 25.06C333.147 25.5667 333.001 26.18 333.001 26.9C333.001 27.62 333.147 28.24 333.441 28.76C333.747 29.2667 334.141 29.66 334.621 29.94C335.114 30.2067 335.641 30.34 336.201 30.34ZM348.31 32.32C347.257 32.32 346.33 32.08 345.53 31.6C344.73 31.12 344.103 30.4733 343.65 29.66C343.197 28.8467 342.97 27.9267 342.97 26.9C342.97 25.8867 343.197 24.9733 343.65 24.16C344.103 23.3333 344.73 22.68 345.53 22.2C346.33 21.72 347.257 21.48 348.31 21.48C349.35 21.48 350.27 21.72 351.07 22.2C351.87 22.68 352.497 23.3333 352.95 24.16C353.403 24.9733 353.63 25.8867 353.63 26.9C353.63 27.9267 353.403 28.8467 352.95 29.66C352.497 30.4733 351.87 31.12 351.07 31.6C350.27 32.08 349.35 32.32 348.31 32.32ZM348.31 30.34C348.87 30.34 349.39 30.2067 349.87 29.94C350.35 29.66 350.737 29.2667 351.03 28.76C351.337 28.24 351.49 27.62 351.49 26.9C351.49 26.18 351.337 25.5667 351.03 25.06C350.737 24.54 350.35 24.1467 349.87 23.88C349.39 23.6 348.87 23.46 348.31 23.46C347.75 23.46 347.223 23.6 346.73 23.88C346.25 24.1467 345.857 24.54 345.55 25.06C345.257 25.5667 345.11 26.18 345.11 26.9C345.11 27.62 345.257 28.24 345.55 28.76C345.857 29.2667 346.25 29.66 346.73 29.94C347.223 30.2067 347.75 30.34 348.31 30.34ZM360.219 36.64C359.326 36.64 358.553 36.4933 357.899 36.2C357.259 35.92 356.739 35.5533 356.339 35.1C355.939 34.66 355.653 34.2067 355.479 33.74L357.479 32.9C357.693 33.4333 358.033 33.8667 358.499 34.2C358.979 34.5467 359.553 34.72 360.219 34.72C361.153 34.72 361.886 34.44 362.419 33.88C362.966 33.32 363.239 32.5267 363.239 31.5V30.52H363.119C362.799 31 362.353 31.3867 361.779 31.68C361.219 31.96 360.579 32.1 359.859 32.1C358.993 32.1 358.199 31.88 357.479 31.44C356.759 31 356.179 30.3867 355.739 29.6C355.299 28.8 355.079 27.8667 355.079 26.8C355.079 25.72 355.299 24.7867 355.739 24C356.179 23.2 356.759 22.58 357.479 22.14C358.199 21.7 358.993 21.48 359.859 21.48C360.579 21.48 361.219 21.6267 361.779 21.92C362.353 22.2133 362.799 22.6 363.119 23.08H363.239V21.8H365.299V31.46C365.299 32.5667 365.079 33.5067 364.639 34.28C364.213 35.0533 363.619 35.64 362.859 36.04C362.099 36.44 361.219 36.64 360.219 36.64ZM360.239 30.14C360.773 30.14 361.266 30.0133 361.719 29.76C362.173 29.4933 362.539 29.1133 362.819 28.62C363.099 28.1133 363.239 27.5067 363.239 26.8C363.239 26.0667 363.099 25.4533 362.819 24.96C362.539 24.4533 362.173 24.0733 361.719 23.82C361.266 23.5667 360.773 23.44 360.239 23.44C359.706 23.44 359.206 23.5733 358.739 23.84C358.286 24.0933 357.919 24.4667 357.639 24.96C357.359 25.4533 357.219 26.0667 357.219 26.8C357.219 27.52 357.359 28.1333 357.639 28.64C357.919 29.1333 358.286 29.5067 358.739 29.76C359.206 30.0133 359.706 30.14 360.239 30.14ZM367.846 32V17.68H370.006V32H367.846ZM377.115 32.32C376.115 32.32 375.222 32.0867 374.435 31.62C373.649 31.1533 373.029 30.5133 372.575 29.7C372.135 28.8867 371.915 27.96 371.915 26.92C371.915 25.9467 372.129 25.0467 372.555 24.22C372.982 23.3933 373.575 22.7333 374.335 22.24C375.109 21.7333 375.995 21.48 376.995 21.48C378.049 21.48 378.942 21.7067 379.675 22.16C380.422 22.6133 380.989 23.2333 381.375 24.02C381.762 24.8067 381.955 25.6933 381.955 26.68C381.955 26.8267 381.949 26.96 381.935 27.08C381.935 27.2 381.929 27.2933 381.915 27.36H374.035C374.142 28.3733 374.495 29.1333 375.095 29.64C375.709 30.1467 376.402 30.4 377.175 30.4C377.869 30.4 378.442 30.2467 378.895 29.94C379.349 29.62 379.709 29.2267 379.975 28.76L381.755 29.62C381.315 30.42 380.715 31.0733 379.955 31.58C379.195 32.0733 378.249 32.32 377.115 32.32ZM377.015 23.32C376.295 23.32 375.682 23.54 375.175 23.98C374.669 24.42 374.329 25.0067 374.155 25.74H379.815C379.789 25.3933 379.675 25.0333 379.475 24.66C379.275 24.2867 378.969 23.9733 378.555 23.72C378.155 23.4533 377.642 23.32 377.015 23.32Z" fill="white"/>
<rect x="0.5" y="0.5" width="403" height="49" rx="24.5" stroke="#747775"/>
<defs>
<linearGradient id="paint0_linear_1819_24348" x1="34.5703" y1="30.7864" x2="18.7309" y2="48.9133" gradientUnits="userSpaceOnUse">
<stop stop-color="#4285F4"/>
<stop offset="1" stop-color="#1B74E8"/>
</linearGradient>
</defs>
</svg>
