<svg width="312" height="50" viewBox="0 0 312 50" fill="none" xmlns="http://www.w3.org/2000/svg">
<rect x="0.5" y="0.5" width="311" height="49" rx="24.5" fill="#1F1F1F"/>
<path d="M51 22H21V17C21 14.2857 23.2018 12 25.8165 12H46.1835C48.7982 12 51 14.2857 51 17V22Z" fill="#34A853"/>
<path d="M51 26.0537H21V21.0537C21 18.3394 23.2018 16.0537 25.8165 16.0537H46.1835C48.7982 16.0537 51 18.3394 51 21.0537V26.0537Z" fill="#FBBC04"/>
<path d="M51 30.2468H21V25.2468C21 22.5325 23.2018 20.2468 25.8165 20.2468H46.1835C48.7982 20.2468 51 22.5325 51 25.2468V30.2468Z" fill="#EA4335"/>
<path d="M21 23.2752L40.0411 27.6789C42.2329 28.2294 44.6986 27.6789 46.4795 26.3028L51 23V33.3211C51 35.9358 48.8082 38 46.2055 38H25.7945C23.1918 38 21 35.9358 21 33.3211V23.2752Z" fill="url(#paint0_linear_1819_24652)"/>
<path d="M63.74 35.04V29.92H65C65.3067 29.4133 65.5533 28.76 65.74 27.96C65.94 27.1467 66.08 26.2533 66.16 25.28C66.2533 24.3067 66.3 23.3267 66.3 22.34V17.68H75.48V29.92H77.16V35.04H75.02V32H65.88V35.04H63.74ZM67.4 29.92H73.28V19.76H68.44V22.66C68.44 24.1133 68.3467 25.4533 68.16 26.68C67.9867 27.9067 67.7333 28.9467 67.4 29.8V29.92ZM83.7475 32.32C82.6942 32.32 81.7675 32.08 80.9675 31.6C80.1675 31.12 79.5408 30.4733 79.0875 29.66C78.6342 28.8467 78.4075 27.9267 78.4075 26.9C78.4075 25.8867 78.6342 24.9733 79.0875 24.16C79.5408 23.3333 80.1675 22.68 80.9675 22.2C81.7675 21.72 82.6942 21.48 83.7475 21.48C84.7875 21.48 85.7075 21.72 86.5075 22.2C87.3075 22.68 87.9342 23.3333 88.3875 24.16C88.8408 24.9733 89.0675 25.8867 89.0675 26.9C89.0675 27.9267 88.8408 28.8467 88.3875 29.66C87.9342 30.4733 87.3075 31.12 86.5075 31.6C85.7075 32.08 84.7875 32.32 83.7475 32.32ZM83.7475 30.34C84.3075 30.34 84.8275 30.2067 85.3075 29.94C85.7875 29.66 86.1742 29.2667 86.4675 28.76C86.7742 28.24 86.9275 27.62 86.9275 26.9C86.9275 26.18 86.7742 25.5667 86.4675 25.06C86.1742 24.54 85.7875 24.1467 85.3075 23.88C84.8275 23.6 84.3075 23.46 83.7475 23.46C83.1875 23.46 82.6608 23.6 82.1675 23.88C81.6875 24.1467 81.2942 24.54 80.9875 25.06C80.6942 25.5667 80.5475 26.18 80.5475 26.9C80.5475 27.62 80.6942 28.24 80.9875 28.76C81.2942 29.2667 81.6875 29.66 82.1675 29.94C82.6608 30.2067 83.1875 30.34 83.7475 30.34ZM89.8277 35.04V30.12H90.9477C91.161 29.8667 91.3477 29.5067 91.5077 29.04C91.681 28.56 91.8143 28.02 91.9077 27.42C92.0143 26.82 92.0677 26.2133 92.0677 25.6V21.8H99.7077V30.12H101.188V35.04H99.2077V32H91.8277V35.04H89.8277ZM93.2677 30.12H97.5677V23.68H94.1077V25.78C94.1077 26.7133 94.041 27.52 93.9077 28.2C93.7743 28.8667 93.561 29.4667 93.2677 30V30.12ZM106.308 32.32C105.574 32.32 104.921 32.18 104.348 31.9C103.774 31.6067 103.328 31.2 103.008 30.68C102.688 30.16 102.528 29.5667 102.528 28.9C102.528 28.18 102.714 27.5667 103.088 27.06C103.474 26.54 103.988 26.1467 104.628 25.88C105.268 25.6133 105.974 25.48 106.748 25.48C107.388 25.48 107.948 25.54 108.428 25.66C108.921 25.78 109.294 25.9067 109.548 26.04V25.5C109.548 24.8333 109.308 24.3 108.828 23.9C108.348 23.5 107.728 23.3 106.968 23.3C106.448 23.3 105.954 23.42 105.488 23.66C105.021 23.8867 104.648 24.2 104.368 24.6L102.888 23.46C103.328 22.8467 103.908 22.3667 104.628 22.02C105.361 21.66 106.161 21.48 107.028 21.48C108.508 21.48 109.648 21.8467 110.448 22.58C111.248 23.3 111.648 24.3133 111.648 25.62V32H109.548V30.74H109.428C109.161 31.1533 108.761 31.52 108.228 31.84C107.694 32.16 107.054 32.32 106.308 32.32ZM106.688 30.56C107.248 30.56 107.741 30.4267 108.168 30.16C108.594 29.8933 108.928 29.5467 109.168 29.12C109.421 28.68 109.548 28.2067 109.548 27.7C109.241 27.5267 108.881 27.3867 108.468 27.28C108.054 27.16 107.614 27.1 107.148 27.1C106.268 27.1 105.641 27.28 105.268 27.64C104.894 27.9867 104.708 28.4133 104.708 28.92C104.708 29.4 104.888 29.7933 105.248 30.1C105.608 30.4067 106.088 30.56 106.688 30.56ZM115.266 20.3C114.866 20.3 114.519 20.16 114.226 19.88C113.946 19.5867 113.806 19.24 113.806 18.84C113.806 18.44 113.946 18.1 114.226 17.82C114.519 17.54 114.866 17.4 115.266 17.4C115.666 17.4 116.006 17.54 116.286 17.82C116.579 18.1 116.726 18.44 116.726 18.84C116.726 19.24 116.579 19.5867 116.286 19.88C116.006 20.16 115.666 20.3 115.266 20.3ZM113.326 36.52C112.912 36.52 112.539 36.4733 112.206 36.38V34.3C112.339 34.38 112.492 34.44 112.666 34.48C112.826 34.5333 112.986 34.56 113.146 34.56C113.532 34.56 113.799 34.44 113.946 34.2C114.106 33.9733 114.186 33.64 114.186 33.2V21.8H116.346V33.22C116.346 34.3933 116.059 35.2333 115.486 35.74C114.912 36.26 114.192 36.52 113.326 36.52ZM121.626 32V23.68H118.266V21.8H127.126V23.68H123.766V32H121.626ZM133.549 32.32C132.549 32.32 131.656 32.0867 130.869 31.62C130.082 31.1533 129.462 30.5133 129.009 29.7C128.569 28.8867 128.349 27.96 128.349 26.92C128.349 25.9467 128.562 25.0467 128.989 24.22C129.416 23.3933 130.009 22.7333 130.769 22.24C131.542 21.7333 132.429 21.48 133.429 21.48C134.482 21.48 135.376 21.7067 136.109 22.16C136.856 22.6133 137.422 23.2333 137.809 24.02C138.196 24.8067 138.389 25.6933 138.389 26.68C138.389 26.8267 138.382 26.96 138.369 27.08C138.369 27.2 138.362 27.2933 138.349 27.36H130.469C130.576 28.3733 130.929 29.1333 131.529 29.64C132.142 30.1467 132.836 30.4 133.609 30.4C134.302 30.4 134.876 30.2467 135.329 29.94C135.782 29.62 136.142 29.2267 136.409 28.76L138.189 29.62C137.749 30.42 137.149 31.0733 136.389 31.58C135.629 32.0733 134.682 32.32 133.549 32.32ZM133.449 23.32C132.729 23.32 132.116 23.54 131.609 23.98C131.102 24.42 130.762 25.0067 130.589 25.74H136.249C136.222 25.3933 136.109 25.0333 135.909 24.66C135.709 24.2867 135.402 23.9733 134.989 23.72C134.589 23.4533 134.076 23.32 133.449 23.32ZM148.541 35.82C148.501 35.9267 148.454 36.0267 148.401 36.12C148.361 36.2133 148.334 36.28 148.321 36.32H146.021C146.087 36.1733 146.181 35.96 146.301 35.68C146.434 35.4133 146.561 35.1533 146.681 34.9C146.801 34.6467 146.927 34.36 147.061 34.04C147.207 33.72 147.354 33.4067 147.501 33.1L148.261 31.44L144.001 21.8H146.401L149.321 28.76H149.421L152.241 21.8H154.621L149.341 33.96C149.194 34.3067 149.034 34.6667 148.861 35.04C148.701 35.4267 148.594 35.6867 148.541 35.82Z" fill="white"/>
<path d="M168.4 32.32C167.373 32.32 166.407 32.1333 165.5 31.76C164.607 31.3867 163.813 30.8667 163.12 30.2C162.427 29.52 161.88 28.7267 161.48 27.82C161.093 26.9 160.9 25.9067 160.9 24.84C160.9 23.7733 161.093 22.7867 161.48 21.88C161.88 20.96 162.42 20.1667 163.1 19.5C163.793 18.82 164.593 18.2933 165.5 17.92C166.407 17.5467 167.373 17.36 168.4 17.36C169.493 17.36 170.5 17.5533 171.42 17.94C172.353 18.3267 173.133 18.8667 173.76 19.56L172.24 21.06C171.773 20.54 171.213 20.14 170.56 19.86C169.92 19.58 169.2 19.44 168.4 19.44C167.453 19.44 166.58 19.6667 165.78 20.12C164.98 20.56 164.333 21.1867 163.84 22C163.36 22.8 163.12 23.7467 163.12 24.84C163.12 25.9333 163.367 26.8867 163.86 27.7C164.353 28.5 165 29.1267 165.8 29.58C166.6 30.02 167.473 30.24 168.42 30.24C169.287 30.24 170.073 30.08 170.78 29.76C171.487 29.4267 172.053 28.96 172.48 28.36C172.92 27.76 173.187 27.04 173.28 26.2H168.38V24.26H175.34C175.42 24.62 175.46 25 175.46 25.4V25.42C175.46 26.8067 175.153 28.02 174.54 29.06C173.94 30.0867 173.107 30.8867 172.04 31.46C170.973 32.0333 169.76 32.32 168.4 32.32ZM181.9 32.32C180.847 32.32 179.92 32.08 179.12 31.6C178.32 31.12 177.693 30.4733 177.24 29.66C176.787 28.8467 176.56 27.9267 176.56 26.9C176.56 25.8867 176.787 24.9733 177.24 24.16C177.693 23.3333 178.32 22.68 179.12 22.2C179.92 21.72 180.847 21.48 181.9 21.48C182.94 21.48 183.86 21.72 184.66 22.2C185.46 22.68 186.087 23.3333 186.54 24.16C186.993 24.9733 187.22 25.8867 187.22 26.9C187.22 27.9267 186.993 28.8467 186.54 29.66C186.087 30.4733 185.46 31.12 184.66 31.6C183.86 32.08 182.94 32.32 181.9 32.32ZM181.9 30.34C182.46 30.34 182.98 30.2067 183.46 29.94C183.94 29.66 184.327 29.2667 184.62 28.76C184.927 28.24 185.08 27.62 185.08 26.9C185.08 26.18 184.927 25.5667 184.62 25.06C184.327 24.54 183.94 24.1467 183.46 23.88C182.98 23.6 182.46 23.46 181.9 23.46C181.34 23.46 180.813 23.6 180.32 23.88C179.84 24.1467 179.447 24.54 179.14 25.06C178.847 25.5667 178.7 26.18 178.7 26.9C178.7 27.62 178.847 28.24 179.14 28.76C179.447 29.2667 179.84 29.66 180.32 29.94C180.813 30.2067 181.34 30.34 181.9 30.34ZM194.009 32.32C192.956 32.32 192.029 32.08 191.229 31.6C190.429 31.12 189.803 30.4733 189.349 29.66C188.896 28.8467 188.669 27.9267 188.669 26.9C188.669 25.8867 188.896 24.9733 189.349 24.16C189.803 23.3333 190.429 22.68 191.229 22.2C192.029 21.72 192.956 21.48 194.009 21.48C195.049 21.48 195.969 21.72 196.769 22.2C197.569 22.68 198.196 23.3333 198.649 24.16C199.103 24.9733 199.329 25.8867 199.329 26.9C199.329 27.9267 199.103 28.8467 198.649 29.66C198.196 30.4733 197.569 31.12 196.769 31.6C195.969 32.08 195.049 32.32 194.009 32.32ZM194.009 30.34C194.569 30.34 195.089 30.2067 195.569 29.94C196.049 29.66 196.436 29.2667 196.729 28.76C197.036 28.24 197.189 27.62 197.189 26.9C197.189 26.18 197.036 25.5667 196.729 25.06C196.436 24.54 196.049 24.1467 195.569 23.88C195.089 23.6 194.569 23.46 194.009 23.46C193.449 23.46 192.923 23.6 192.429 23.88C191.949 24.1467 191.556 24.54 191.249 25.06C190.956 25.5667 190.809 26.18 190.809 26.9C190.809 27.62 190.956 28.24 191.249 28.76C191.556 29.2667 191.949 29.66 192.429 29.94C192.923 30.2067 193.449 30.34 194.009 30.34ZM205.919 36.64C205.025 36.64 204.252 36.4933 203.599 36.2C202.959 35.92 202.439 35.5533 202.039 35.1C201.639 34.66 201.352 34.2067 201.179 33.74L203.179 32.9C203.392 33.4333 203.732 33.8667 204.199 34.2C204.679 34.5467 205.252 34.72 205.919 34.72C206.852 34.72 207.585 34.44 208.119 33.88C208.665 33.32 208.939 32.5267 208.939 31.5V30.52H208.819C208.499 31 208.052 31.3867 207.479 31.68C206.919 31.96 206.279 32.1 205.559 32.1C204.692 32.1 203.899 31.88 203.179 31.44C202.459 31 201.879 30.3867 201.439 29.6C200.999 28.8 200.779 27.8667 200.779 26.8C200.779 25.72 200.999 24.7867 201.439 24C201.879 23.2 202.459 22.58 203.179 22.14C203.899 21.7 204.692 21.48 205.559 21.48C206.279 21.48 206.919 21.6267 207.479 21.92C208.052 22.2133 208.499 22.6 208.819 23.08H208.939V21.8H210.999V31.46C210.999 32.5667 210.779 33.5067 210.339 34.28C209.912 35.0533 209.319 35.64 208.559 36.04C207.799 36.44 206.919 36.64 205.919 36.64ZM205.939 30.14C206.472 30.14 206.965 30.0133 207.419 29.76C207.872 29.4933 208.239 29.1133 208.519 28.62C208.799 28.1133 208.939 27.5067 208.939 26.8C208.939 26.0667 208.799 25.4533 208.519 24.96C208.239 24.4533 207.872 24.0733 207.419 23.82C206.965 23.5667 206.472 23.44 205.939 23.44C205.405 23.44 204.905 23.5733 204.439 23.84C203.985 24.0933 203.619 24.4667 203.339 24.96C203.059 25.4533 202.919 26.0667 202.919 26.8C202.919 27.52 203.059 28.1333 203.339 28.64C203.619 29.1333 203.985 29.5067 204.439 29.76C204.905 30.0133 205.405 30.14 205.939 30.14ZM213.546 32V17.68H215.706V32H213.546ZM222.815 32.32C221.815 32.32 220.921 32.0867 220.135 31.62C219.348 31.1533 218.728 30.5133 218.275 29.7C217.835 28.8867 217.615 27.96 217.615 26.92C217.615 25.9467 217.828 25.0467 218.255 24.22C218.681 23.3933 219.275 22.7333 220.035 22.24C220.808 21.7333 221.695 21.48 222.695 21.48C223.748 21.48 224.641 21.7067 225.375 22.16C226.121 22.6133 226.688 23.2333 227.075 24.02C227.461 24.8067 227.655 25.6933 227.655 26.68C227.655 26.8267 227.648 26.96 227.635 27.08C227.635 27.2 227.628 27.2933 227.615 27.36H219.735C219.841 28.3733 220.195 29.1333 220.795 29.64C221.408 30.1467 222.101 30.4 222.875 30.4C223.568 30.4 224.141 30.2467 224.595 29.94C225.048 29.62 225.408 29.2267 225.675 28.76L227.455 29.62C227.015 30.42 226.415 31.0733 225.655 31.58C224.895 32.0733 223.948 32.32 222.815 32.32ZM222.715 23.32C221.995 23.32 221.381 23.54 220.875 23.98C220.368 24.42 220.028 25.0067 219.855 25.74H225.515C225.488 25.3933 225.375 25.0333 225.175 24.66C224.975 24.2867 224.668 23.9733 224.255 23.72C223.855 23.4533 223.341 23.32 222.715 23.32ZM236.446 32L232.606 17.68H235.046L237.326 26.98L237.566 28.22H237.686L237.986 26.98L240.866 17.68H243.066L245.826 26.98L246.126 28.2H246.246L246.486 26.98L248.766 17.68H251.186L247.406 32H245.086L242.346 22.5L242.026 21.16H241.906L241.566 22.5L238.706 32H236.446ZM255.202 32.32C254.469 32.32 253.816 32.18 253.242 31.9C252.669 31.6067 252.222 31.2 251.902 30.68C251.582 30.16 251.422 29.5667 251.422 28.9C251.422 28.18 251.609 27.5667 251.982 27.06C252.369 26.54 252.882 26.1467 253.522 25.88C254.162 25.6133 254.869 25.48 255.642 25.48C256.282 25.48 256.842 25.54 257.322 25.66C257.816 25.78 258.189 25.9067 258.442 26.04V25.5C258.442 24.8333 258.202 24.3 257.722 23.9C257.242 23.5 256.622 23.3 255.862 23.3C255.342 23.3 254.849 23.42 254.382 23.66C253.916 23.8867 253.542 24.2 253.262 24.6L251.782 23.46C252.222 22.8467 252.802 22.3667 253.522 22.02C254.256 21.66 255.056 21.48 255.922 21.48C257.402 21.48 258.542 21.8467 259.342 22.58C260.142 23.3 260.542 24.3133 260.542 25.62V32H258.442V30.74H258.322C258.056 31.1533 257.656 31.52 257.122 31.84C256.589 32.16 255.949 32.32 255.202 32.32ZM255.582 30.56C256.142 30.56 256.636 30.4267 257.062 30.16C257.489 29.8933 257.822 29.5467 258.062 29.12C258.316 28.68 258.442 28.2067 258.442 27.7C258.136 27.5267 257.776 27.3867 257.362 27.28C256.949 27.16 256.509 27.1 256.042 27.1C255.162 27.1 254.536 27.28 254.162 27.64C253.789 27.9867 253.602 28.4133 253.602 28.92C253.602 29.4 253.782 29.7933 254.142 30.1C254.502 30.4067 254.982 30.56 255.582 30.56ZM262.94 32V17.68H265.1V32H262.94ZM267.667 32V17.68H269.827V32H267.667ZM276.936 32.32C275.936 32.32 275.042 32.0867 274.256 31.62C273.469 31.1533 272.849 30.5133 272.396 29.7C271.956 28.8867 271.736 27.96 271.736 26.92C271.736 25.9467 271.949 25.0467 272.376 24.22C272.802 23.3933 273.396 22.7333 274.156 22.24C274.929 21.7333 275.816 21.48 276.816 21.48C277.869 21.48 278.762 21.7067 279.496 22.16C280.242 22.6133 280.809 23.2333 281.196 24.02C281.582 24.8067 281.776 25.6933 281.776 26.68C281.776 26.8267 281.769 26.96 281.756 27.08C281.756 27.2 281.749 27.2933 281.736 27.36H273.856C273.962 28.3733 274.316 29.1333 274.916 29.64C275.529 30.1467 276.222 30.4 276.996 30.4C277.689 30.4 278.262 30.2467 278.716 29.94C279.169 29.62 279.529 29.2267 279.796 28.76L281.576 29.62C281.136 30.42 280.536 31.0733 279.776 31.58C279.016 32.0733 278.069 32.32 276.936 32.32ZM276.836 23.32C276.116 23.32 275.502 23.54 274.996 23.98C274.489 24.42 274.149 25.0067 273.976 25.74H279.636C279.609 25.3933 279.496 25.0333 279.296 24.66C279.096 24.2867 278.789 23.9733 278.376 23.72C277.976 23.4533 277.462 23.32 276.836 23.32ZM284.567 29.04V23.68H282.787V21.8H284.567V18.92H286.727V21.8H289.227V23.68H286.727V28.58C286.727 29.0867 286.827 29.4733 287.027 29.74C287.24 30.0067 287.593 30.14 288.087 30.14C288.34 30.14 288.553 30.1067 288.727 30.04C288.913 29.9733 289.1 29.88 289.287 29.76V31.86C289.06 31.9533 288.82 32.0267 288.567 32.08C288.313 32.1333 288.013 32.16 287.667 32.16C286.72 32.16 285.967 31.8867 285.407 31.34C284.847 30.78 284.567 30.0133 284.567 29.04Z" fill="white"/>
<rect x="0.5" y="0.5" width="311" height="49" rx="24.5" stroke="#747775"/>
<defs>
<linearGradient id="paint0_linear_1819_24652" x1="34.5703" y1="30.7864" x2="18.7309" y2="48.9133" gradientUnits="userSpaceOnUse">
<stop stop-color="#4285F4"/>
<stop offset="1" stop-color="#1B74E8"/>
</linearGradient>
</defs>
</svg>
