<svg width="339" height="50" viewBox="0 0 339 50" fill="none" xmlns="http://www.w3.org/2000/svg">
<rect x="0.5" y="0.5" width="338" height="49" rx="24.5" fill="#1F1F1F"/>
<path d="M51 22H21V17C21 14.2857 23.2018 12 25.8165 12H46.1835C48.7982 12 51 14.2857 51 17V22Z" fill="#34A853"/>
<path d="M51 26.0537H21V21.0537C21 18.3394 23.2018 16.0537 25.8165 16.0537H46.1835C48.7982 16.0537 51 18.3394 51 21.0537V26.0537Z" fill="#FBBC04"/>
<path d="M51 30.2468H21V25.2468C21 22.5325 23.2018 20.2468 25.8165 20.2468H46.1835C48.7982 20.2468 51 22.5325 51 25.2468V30.2468Z" fill="#EA4335"/>
<path d="M21 23.2752L40.0411 27.6789C42.2329 28.2294 44.6986 27.6789 46.4795 26.3028L51 23V33.3211C51 35.9358 48.8082 38 46.2055 38H25.7945C23.1918 38 21 35.9358 21 33.3211V23.2752Z" fill="url(#paint0_linear_1819_24823)"/>
<path d="M64.62 32V17.68H69.2C70.7067 17.68 72 17.9867 73.08 18.6C74.1733 19.2 75.0133 20.04 75.6 21.12C76.2 22.2 76.5 23.44 76.5 24.84C76.5 26.2533 76.2 27.5 75.6 28.58C75.0133 29.6467 74.1733 30.4867 73.08 31.1C72 31.7 70.7067 32 69.2 32H64.62ZM66.82 29.92H69.14C70.7667 29.92 72.0267 29.4667 72.92 28.56C73.8267 27.6533 74.28 26.4133 74.28 24.84C74.28 23.2667 73.8267 22.0267 72.92 21.12C72.0267 20.2133 70.7667 19.76 69.14 19.76H66.82V29.92ZM83.1616 32.32C82.1082 32.32 81.1816 32.08 80.3816 31.6C79.5816 31.12 78.9549 30.4733 78.5016 29.66C78.0482 28.8467 77.8216 27.9267 77.8216 26.9C77.8216 25.8867 78.0482 24.9733 78.5016 24.16C78.9549 23.3333 79.5816 22.68 80.3816 22.2C81.1816 21.72 82.1082 21.48 83.1616 21.48C84.2016 21.48 85.1216 21.72 85.9216 22.2C86.7216 22.68 87.3482 23.3333 87.8016 24.16C88.2549 24.9733 88.4816 25.8867 88.4816 26.9C88.4816 27.9267 88.2549 28.8467 87.8016 29.66C87.3482 30.4733 86.7216 31.12 85.9216 31.6C85.1216 32.08 84.2016 32.32 83.1616 32.32ZM83.1616 30.34C83.7216 30.34 84.2416 30.2067 84.7216 29.94C85.2016 29.66 85.5882 29.2667 85.8816 28.76C86.1882 28.24 86.3416 27.62 86.3416 26.9C86.3416 26.18 86.1882 25.5667 85.8816 25.06C85.5882 24.54 85.2016 24.1467 84.7216 23.88C84.2416 23.6 83.7216 23.46 83.1616 23.46C82.6016 23.46 82.0749 23.6 81.5816 23.88C81.1016 24.1467 80.7082 24.54 80.4016 25.06C80.1082 25.5667 79.9616 26.18 79.9616 26.9C79.9616 27.62 80.1082 28.24 80.4016 28.76C80.7082 29.2667 81.1016 29.66 81.5816 29.94C82.0749 30.2067 82.6016 30.34 83.1616 30.34ZM94.8309 32.32C93.9109 32.32 93.0776 32.0933 92.3309 31.64C91.5976 31.1733 91.0109 30.5333 90.5709 29.72C90.1443 28.8933 89.9309 27.9533 89.9309 26.9C89.9309 25.8467 90.1443 24.9133 90.5709 24.1C91.0109 23.2867 91.5976 22.6467 92.3309 22.18C93.0776 21.7133 93.9109 21.48 94.8309 21.48C95.6176 21.48 96.2909 21.6533 96.8509 22C97.4243 22.3467 97.8443 22.74 98.1109 23.18H98.2309L98.1109 21.76V17.68H100.251V32H98.2309V30.64H98.1109C97.8443 31.08 97.4243 31.4733 96.8509 31.82C96.2909 32.1533 95.6176 32.32 94.8309 32.32ZM95.1509 30.34C95.6843 30.34 96.1843 30.2 96.6509 29.92C97.1309 29.64 97.5109 29.2467 97.7909 28.74C98.0843 28.22 98.2309 27.6067 98.2309 26.9C98.2309 26.1933 98.0843 25.5867 97.7909 25.08C97.5109 24.56 97.1309 24.16 96.6509 23.88C96.1843 23.6 95.6843 23.46 95.1509 23.46C94.6176 23.46 94.1176 23.6 93.6509 23.88C93.1843 24.16 92.8043 24.56 92.5109 25.08C92.2176 25.5867 92.0709 26.1933 92.0709 26.9C92.0709 27.6067 92.2176 28.22 92.5109 28.74C92.8043 29.2467 93.1843 29.64 93.6509 29.92C94.1176 30.2 94.6176 30.34 95.1509 30.34ZM105.898 32.32C105.164 32.32 104.511 32.18 103.938 31.9C103.364 31.6067 102.918 31.2 102.598 30.68C102.278 30.16 102.118 29.5667 102.118 28.9C102.118 28.18 102.304 27.5667 102.678 27.06C103.064 26.54 103.578 26.1467 104.218 25.88C104.858 25.6133 105.564 25.48 106.338 25.48C106.978 25.48 107.538 25.54 108.018 25.66C108.511 25.78 108.884 25.9067 109.138 26.04V25.5C109.138 24.8333 108.898 24.3 108.418 23.9C107.938 23.5 107.318 23.3 106.558 23.3C106.038 23.3 105.544 23.42 105.078 23.66C104.611 23.8867 104.238 24.2 103.958 24.6L102.478 23.46C102.918 22.8467 103.498 22.3667 104.218 22.02C104.951 21.66 105.751 21.48 106.618 21.48C108.098 21.48 109.238 21.8467 110.038 22.58C110.838 23.3 111.238 24.3133 111.238 25.62V32H109.138V30.74H109.018C108.751 31.1533 108.351 31.52 107.818 31.84C107.284 32.16 106.644 32.32 105.898 32.32ZM106.278 30.56C106.838 30.56 107.331 30.4267 107.758 30.16C108.184 29.8933 108.518 29.5467 108.758 29.12C109.011 28.68 109.138 28.2067 109.138 27.7C108.831 27.5267 108.471 27.3867 108.058 27.28C107.644 27.16 107.204 27.1 106.738 27.1C105.858 27.1 105.231 27.28 104.858 27.64C104.484 27.9867 104.298 28.4133 104.298 28.92C104.298 29.4 104.478 29.7933 104.838 30.1C105.198 30.4067 105.678 30.56 106.278 30.56ZM114.855 20.3C114.455 20.3 114.109 20.16 113.815 19.88C113.535 19.5867 113.395 19.24 113.395 18.84C113.395 18.44 113.535 18.1 113.815 17.82C114.109 17.54 114.455 17.4 114.855 17.4C115.255 17.4 115.595 17.54 115.875 17.82C116.169 18.1 116.315 18.44 116.315 18.84C116.315 19.24 116.169 19.5867 115.875 19.88C115.595 20.16 115.255 20.3 114.855 20.3ZM112.915 36.52C112.502 36.52 112.129 36.4733 111.795 36.38V34.3C111.929 34.38 112.082 34.44 112.255 34.48C112.415 34.5333 112.575 34.56 112.735 34.56C113.122 34.56 113.389 34.44 113.535 34.2C113.695 33.9733 113.775 33.64 113.775 33.2V21.8H115.935V33.22C115.935 34.3933 115.649 35.2333 115.075 35.74C114.502 36.26 113.782 36.52 112.915 36.52ZM119.695 29.04V23.68H117.915V21.8H119.695V18.92H121.855V21.8H124.355V23.68H121.855V28.58C121.855 29.0867 121.955 29.4733 122.155 29.74C122.369 30.0067 122.722 30.14 123.215 30.14C123.469 30.14 123.682 30.1067 123.855 30.04C124.042 29.9733 124.229 29.88 124.415 29.76V31.86C124.189 31.9533 123.949 32.0267 123.695 32.08C123.442 32.1333 123.142 32.16 122.795 32.16C121.849 32.16 121.095 31.8867 120.535 31.34C119.975 30.78 119.695 30.0133 119.695 29.04ZM130.697 32.32C129.697 32.32 128.804 32.0867 128.017 31.62C127.231 31.1533 126.611 30.5133 126.157 29.7C125.717 28.8867 125.497 27.96 125.497 26.92C125.497 25.9467 125.711 25.0467 126.137 24.22C126.564 23.3933 127.157 22.7333 127.917 22.24C128.691 21.7333 129.577 21.48 130.577 21.48C131.631 21.48 132.524 21.7067 133.257 22.16C134.004 22.6133 134.571 23.2333 134.957 24.02C135.344 24.8067 135.537 25.6933 135.537 26.68C135.537 26.8267 135.531 26.96 135.517 27.08C135.517 27.2 135.511 27.2933 135.497 27.36H127.617C127.724 28.3733 128.077 29.1333 128.677 29.64C129.291 30.1467 129.984 30.4 130.757 30.4C131.451 30.4 132.024 30.2467 132.477 29.94C132.931 29.62 133.291 29.2267 133.557 28.76L135.337 29.62C134.897 30.42 134.297 31.0733 133.537 31.58C132.777 32.0733 131.831 32.32 130.697 32.32ZM130.597 23.32C129.877 23.32 129.264 23.54 128.757 23.98C128.251 24.42 127.911 25.0067 127.737 25.74H133.397C133.371 25.3933 133.257 25.0333 133.057 24.66C132.857 24.2867 132.551 23.9733 132.137 23.72C131.737 23.4533 131.224 23.32 130.597 23.32ZM145.909 32.32C144.656 32.32 143.709 31.9467 143.069 31.2C142.443 30.44 142.129 29.4133 142.129 28.12V21.8H144.289V27.82C144.289 28.6867 144.489 29.3267 144.889 29.74C145.303 30.14 145.816 30.34 146.429 30.34C146.976 30.34 147.449 30.2 147.849 29.92C148.263 29.6267 148.576 29.2533 148.789 28.8C149.016 28.3333 149.129 27.8267 149.129 27.28V21.8H151.269V32H149.249V30.62H149.129C148.836 31.1 148.396 31.5067 147.809 31.84C147.236 32.16 146.603 32.32 145.909 32.32Z" fill="white"/>
<path d="M166.4 32.32C165.373 32.32 164.407 32.1333 163.5 31.76C162.607 31.3867 161.813 30.8667 161.12 30.2C160.427 29.52 159.88 28.7267 159.48 27.82C159.093 26.9 158.9 25.9067 158.9 24.84C158.9 23.7733 159.093 22.7867 159.48 21.88C159.88 20.96 160.42 20.1667 161.1 19.5C161.793 18.82 162.593 18.2933 163.5 17.92C164.407 17.5467 165.373 17.36 166.4 17.36C167.493 17.36 168.5 17.5533 169.42 17.94C170.353 18.3267 171.133 18.8667 171.76 19.56L170.24 21.06C169.773 20.54 169.213 20.14 168.56 19.86C167.92 19.58 167.2 19.44 166.4 19.44C165.453 19.44 164.58 19.6667 163.78 20.12C162.98 20.56 162.333 21.1867 161.84 22C161.36 22.8 161.12 23.7467 161.12 24.84C161.12 25.9333 161.367 26.8867 161.86 27.7C162.353 28.5 163 29.1267 163.8 29.58C164.6 30.02 165.473 30.24 166.42 30.24C167.287 30.24 168.073 30.08 168.78 29.76C169.487 29.4267 170.053 28.96 170.48 28.36C170.92 27.76 171.187 27.04 171.28 26.2H166.38V24.26H173.34C173.42 24.62 173.46 25 173.46 25.4V25.42C173.46 26.8067 173.153 28.02 172.54 29.06C171.94 30.0867 171.107 30.8867 170.04 31.46C168.973 32.0333 167.76 32.32 166.4 32.32ZM179.9 32.32C178.847 32.32 177.92 32.08 177.12 31.6C176.32 31.12 175.693 30.4733 175.24 29.66C174.787 28.8467 174.56 27.9267 174.56 26.9C174.56 25.8867 174.787 24.9733 175.24 24.16C175.693 23.3333 176.32 22.68 177.12 22.2C177.92 21.72 178.847 21.48 179.9 21.48C180.94 21.48 181.86 21.72 182.66 22.2C183.46 22.68 184.087 23.3333 184.54 24.16C184.993 24.9733 185.22 25.8867 185.22 26.9C185.22 27.9267 184.993 28.8467 184.54 29.66C184.087 30.4733 183.46 31.12 182.66 31.6C181.86 32.08 180.94 32.32 179.9 32.32ZM179.9 30.34C180.46 30.34 180.98 30.2067 181.46 29.94C181.94 29.66 182.327 29.2667 182.62 28.76C182.927 28.24 183.08 27.62 183.08 26.9C183.08 26.18 182.927 25.5667 182.62 25.06C182.327 24.54 181.94 24.1467 181.46 23.88C180.98 23.6 180.46 23.46 179.9 23.46C179.34 23.46 178.813 23.6 178.32 23.88C177.84 24.1467 177.447 24.54 177.14 25.06C176.847 25.5667 176.7 26.18 176.7 26.9C176.7 27.62 176.847 28.24 177.14 28.76C177.447 29.2667 177.84 29.66 178.32 29.94C178.813 30.2067 179.34 30.34 179.9 30.34ZM192.009 32.32C190.956 32.32 190.029 32.08 189.229 31.6C188.429 31.12 187.803 30.4733 187.349 29.66C186.896 28.8467 186.669 27.9267 186.669 26.9C186.669 25.8867 186.896 24.9733 187.349 24.16C187.803 23.3333 188.429 22.68 189.229 22.2C190.029 21.72 190.956 21.48 192.009 21.48C193.049 21.48 193.969 21.72 194.769 22.2C195.569 22.68 196.196 23.3333 196.649 24.16C197.103 24.9733 197.329 25.8867 197.329 26.9C197.329 27.9267 197.103 28.8467 196.649 29.66C196.196 30.4733 195.569 31.12 194.769 31.6C193.969 32.08 193.049 32.32 192.009 32.32ZM192.009 30.34C192.569 30.34 193.089 30.2067 193.569 29.94C194.049 29.66 194.436 29.2667 194.729 28.76C195.036 28.24 195.189 27.62 195.189 26.9C195.189 26.18 195.036 25.5667 194.729 25.06C194.436 24.54 194.049 24.1467 193.569 23.88C193.089 23.6 192.569 23.46 192.009 23.46C191.449 23.46 190.923 23.6 190.429 23.88C189.949 24.1467 189.556 24.54 189.249 25.06C188.956 25.5667 188.809 26.18 188.809 26.9C188.809 27.62 188.956 28.24 189.249 28.76C189.556 29.2667 189.949 29.66 190.429 29.94C190.923 30.2067 191.449 30.34 192.009 30.34ZM203.919 36.64C203.025 36.64 202.252 36.4933 201.599 36.2C200.959 35.92 200.439 35.5533 200.039 35.1C199.639 34.66 199.352 34.2067 199.179 33.74L201.179 32.9C201.392 33.4333 201.732 33.8667 202.199 34.2C202.679 34.5467 203.252 34.72 203.919 34.72C204.852 34.72 205.585 34.44 206.119 33.88C206.665 33.32 206.939 32.5267 206.939 31.5V30.52H206.819C206.499 31 206.052 31.3867 205.479 31.68C204.919 31.96 204.279 32.1 203.559 32.1C202.692 32.1 201.899 31.88 201.179 31.44C200.459 31 199.879 30.3867 199.439 29.6C198.999 28.8 198.779 27.8667 198.779 26.8C198.779 25.72 198.999 24.7867 199.439 24C199.879 23.2 200.459 22.58 201.179 22.14C201.899 21.7 202.692 21.48 203.559 21.48C204.279 21.48 204.919 21.6267 205.479 21.92C206.052 22.2133 206.499 22.6 206.819 23.08H206.939V21.8H208.999V31.46C208.999 32.5667 208.779 33.5067 208.339 34.28C207.912 35.0533 207.319 35.64 206.559 36.04C205.799 36.44 204.919 36.64 203.919 36.64ZM203.939 30.14C204.472 30.14 204.965 30.0133 205.419 29.76C205.872 29.4933 206.239 29.1133 206.519 28.62C206.799 28.1133 206.939 27.5067 206.939 26.8C206.939 26.0667 206.799 25.4533 206.519 24.96C206.239 24.4533 205.872 24.0733 205.419 23.82C204.965 23.5667 204.472 23.44 203.939 23.44C203.405 23.44 202.905 23.5733 202.439 23.84C201.985 24.0933 201.619 24.4667 201.339 24.96C201.059 25.4533 200.919 26.0667 200.919 26.8C200.919 27.52 201.059 28.1333 201.339 28.64C201.619 29.1333 201.985 29.5067 202.439 29.76C202.905 30.0133 203.405 30.14 203.939 30.14ZM211.546 32V17.68H213.706V32H211.546ZM220.815 32.32C219.815 32.32 218.921 32.0867 218.135 31.62C217.348 31.1533 216.728 30.5133 216.275 29.7C215.835 28.8867 215.615 27.96 215.615 26.92C215.615 25.9467 215.828 25.0467 216.255 24.22C216.681 23.3933 217.275 22.7333 218.035 22.24C218.808 21.7333 219.695 21.48 220.695 21.48C221.748 21.48 222.641 21.7067 223.375 22.16C224.121 22.6133 224.688 23.2333 225.075 24.02C225.461 24.8067 225.655 25.6933 225.655 26.68C225.655 26.8267 225.648 26.96 225.635 27.08C225.635 27.2 225.628 27.2933 225.615 27.36H217.735C217.841 28.3733 218.195 29.1333 218.795 29.64C219.408 30.1467 220.101 30.4 220.875 30.4C221.568 30.4 222.141 30.2467 222.595 29.94C223.048 29.62 223.408 29.2267 223.675 28.76L225.455 29.62C225.015 30.42 224.415 31.0733 223.655 31.58C222.895 32.0733 221.948 32.32 220.815 32.32ZM220.715 23.32C219.995 23.32 219.381 23.54 218.875 23.98C218.368 24.42 218.028 25.0067 217.855 25.74H223.515C223.488 25.3933 223.375 25.0333 223.175 24.66C222.975 24.2867 222.668 23.9733 222.255 23.72C221.855 23.4533 221.341 23.32 220.715 23.32ZM232.686 32V17.68H235.286L241.766 28.2H241.886L241.766 25.44V17.68H243.946V32H241.666L234.866 20.94H234.746L234.866 23.7V32H232.686ZM251.423 32.32C250.37 32.32 249.443 32.08 248.643 31.6C247.843 31.12 247.217 30.4733 246.763 29.66C246.31 28.8467 246.083 27.9267 246.083 26.9C246.083 25.8867 246.31 24.9733 246.763 24.16C247.217 23.3333 247.843 22.68 248.643 22.2C249.443 21.72 250.37 21.48 251.423 21.48C252.463 21.48 253.383 21.72 254.183 22.2C254.983 22.68 255.61 23.3333 256.063 24.16C256.517 24.9733 256.743 25.8867 256.743 26.9C256.743 27.9267 256.517 28.8467 256.063 29.66C255.61 30.4733 254.983 31.12 254.183 31.6C253.383 32.08 252.463 32.32 251.423 32.32ZM251.423 30.34C251.983 30.34 252.503 30.2067 252.983 29.94C253.463 29.66 253.85 29.2667 254.143 28.76C254.45 28.24 254.603 27.62 254.603 26.9C254.603 26.18 254.45 25.5667 254.143 25.06C253.85 24.54 253.463 24.1467 252.983 23.88C252.503 23.6 251.983 23.46 251.423 23.46C250.863 23.46 250.337 23.6 249.843 23.88C249.363 24.1467 248.97 24.54 248.663 25.06C248.37 25.5667 248.223 26.18 248.223 26.9C248.223 27.62 248.37 28.24 248.663 28.76C248.97 29.2667 249.363 29.66 249.843 29.94C250.337 30.2067 250.863 30.34 251.423 30.34ZM261.54 32L257.32 21.8H259.72L262.58 29.22H262.68L265.6 21.8H267.96L263.7 32H261.54ZM273.785 32.32C272.758 32.32 271.851 32.0867 271.065 31.62C270.278 31.1533 269.658 30.5133 269.205 29.7C268.751 28.8733 268.525 27.94 268.525 26.9C268.525 25.86 268.751 24.9333 269.205 24.12C269.658 23.2933 270.278 22.6467 271.065 22.18C271.851 21.7133 272.758 21.48 273.785 21.48C274.918 21.48 275.871 21.7333 276.645 22.24C277.431 22.7467 277.991 23.4333 278.325 24.3L276.365 25.1C275.898 24.0067 275.025 23.46 273.745 23.46C273.185 23.46 272.671 23.6067 272.205 23.9C271.738 24.18 271.365 24.58 271.085 25.1C270.805 25.6067 270.665 26.2067 270.665 26.9C270.665 27.5933 270.805 28.2 271.085 28.72C271.365 29.24 271.738 29.64 272.205 29.92C272.671 30.2 273.185 30.34 273.745 30.34C274.398 30.34 274.951 30.1933 275.405 29.9C275.858 29.5933 276.211 29.18 276.465 28.66L278.385 29.5C278.025 30.3133 277.451 30.9867 276.665 31.52C275.878 32.0533 274.918 32.32 273.785 32.32ZM272.845 19.84L270.705 17.42V17.28H272.765L273.685 18.52H273.885L274.825 17.28H276.905V17.42L274.745 19.84H272.845ZM283.339 32.32C282.606 32.32 281.952 32.18 281.379 31.9C280.806 31.6067 280.359 31.2 280.039 30.68C279.719 30.16 279.559 29.5667 279.559 28.9C279.559 28.18 279.746 27.5667 280.119 27.06C280.506 26.54 281.019 26.1467 281.659 25.88C282.299 25.6133 283.006 25.48 283.779 25.48C284.419 25.48 284.979 25.54 285.459 25.66C285.952 25.78 286.326 25.9067 286.579 26.04V25.5C286.579 24.8333 286.339 24.3 285.859 23.9C285.379 23.5 284.759 23.3 283.999 23.3C283.479 23.3 282.986 23.42 282.519 23.66C282.052 23.8867 281.679 24.2 281.399 24.6L279.919 23.46C280.359 22.8467 280.939 22.3667 281.659 22.02C282.392 21.66 283.192 21.48 284.059 21.48C285.539 21.48 286.679 21.8467 287.479 22.58C288.279 23.3 288.679 24.3133 288.679 25.62V32H286.579V30.74H286.459C286.192 31.1533 285.792 31.52 285.259 31.84C284.726 32.16 284.086 32.32 283.339 32.32ZM283.719 30.56C284.279 30.56 284.772 30.4267 285.199 30.16C285.626 29.8933 285.959 29.5467 286.199 29.12C286.452 28.68 286.579 28.2067 286.579 27.7C286.272 27.5267 285.912 27.3867 285.499 27.28C285.086 27.16 284.646 27.1 284.179 27.1C283.299 27.1 282.672 27.28 282.299 27.64C281.926 27.9867 281.739 28.4133 281.739 28.92C281.739 29.4 281.919 29.7933 282.279 30.1C282.639 30.4067 283.119 30.56 283.719 30.56ZM291.057 32V21.8H293.097V23.2H293.217C293.51 22.7067 293.944 22.3 294.517 21.98C295.104 21.6467 295.744 21.48 296.437 21.48C297.69 21.48 298.63 21.8533 299.257 22.6C299.884 23.3467 300.197 24.3333 300.197 25.56V32H298.057V25.84C298.057 25.0133 297.85 24.4133 297.437 24.04C297.024 23.6533 296.484 23.46 295.817 23.46C295.297 23.46 294.844 23.6067 294.457 23.9C294.07 24.18 293.764 24.5533 293.537 25.02C293.324 25.4867 293.217 25.9867 293.217 26.52V32H291.057ZM303.898 20.3C303.498 20.3 303.152 20.16 302.858 19.88C302.578 19.5867 302.438 19.24 302.438 18.84C302.438 18.44 302.578 18.1 302.858 17.82C303.152 17.54 303.498 17.4 303.898 17.4C304.298 17.4 304.638 17.54 304.918 17.82C305.212 18.1 305.358 18.44 305.358 18.84C305.358 19.24 305.212 19.5867 304.918 19.88C304.638 20.16 304.298 20.3 303.898 20.3ZM302.818 32V21.8H304.978V32H302.818ZM307.658 32V17.68H309.818V26.12L314.138 21.8H316.818V21.92L312.878 25.82L316.958 31.88V32H314.398L311.358 27.32L309.818 28.84V32H307.658Z" fill="white"/>
<rect x="0.5" y="0.5" width="338" height="49" rx="24.5" stroke="#747775"/>
<defs>
<linearGradient id="paint0_linear_1819_24823" x1="34.5703" y1="30.7864" x2="18.7309" y2="48.9133" gradientUnits="userSpaceOnUse">
<stop stop-color="#4285F4"/>
<stop offset="1" stop-color="#1B74E8"/>
</linearGradient>
</defs>
</svg>
