<svg width="411" height="50" viewBox="0 0 411 50" fill="none" xmlns="http://www.w3.org/2000/svg">
<rect x="0.5" y="0.5" width="410" height="49" rx="24.5" fill="#1F1F1F"/>
<path d="M51 22H21V17C21 14.2857 23.2018 12 25.8165 12H46.1835C48.7982 12 51 14.2857 51 17V22Z" fill="#34A853"/>
<path d="M51 26.0537H21V21.0537C21 18.3394 23.2018 16.0537 25.8165 16.0537H46.1835C48.7982 16.0537 51 18.3394 51 21.0537V26.0537Z" fill="#FBBC04"/>
<path d="M51 30.2468H21V25.2468C21 22.5325 23.2018 20.2468 25.8165 20.2468H46.1835C48.7982 20.2468 51 22.5325 51 25.2468V30.2468Z" fill="#EA4335"/>
<path d="M21 23.2752L40.0411 27.6789C42.2329 28.2294 44.6986 27.6789 46.4795 26.3028L51 23V33.3211C51 35.9358 48.8082 38 46.2055 38H25.7945C23.1918 38 21 35.9358 21 33.3211V23.2752Z" fill="url(#paint0_linear_1819_24671)"/>
<path d="M64.62 32V17.68H69.54C70.4067 17.68 71.1933 17.8667 71.9 18.24C72.6067 18.6133 73.1667 19.1267 73.58 19.78C74.0067 20.4333 74.22 21.1933 74.22 22.06C74.22 22.9267 74.0067 23.6933 73.58 24.36C73.1667 25.0133 72.6067 25.5267 71.9 25.9C71.1933 26.26 70.4067 26.44 69.54 26.44H66.82V32H64.62ZM69.6 19.76H66.82V24.36H69.6C70.12 24.36 70.56 24.2533 70.92 24.04C71.28 23.8133 71.5533 23.5267 71.74 23.18C71.94 22.82 72.04 22.4467 72.04 22.06C72.04 21.6733 71.94 21.3067 71.74 20.96C71.5533 20.6133 71.28 20.3267 70.92 20.1C70.56 19.8733 70.12 19.76 69.6 19.76ZM76.1155 32V21.8H78.1555V23.3H78.2755C78.5021 22.78 78.8888 22.3533 79.4355 22.02C79.9955 21.6733 80.5955 21.5 81.2355 21.5C81.5155 21.5 81.7488 21.52 81.9355 21.56C82.1355 21.6 82.3155 21.6467 82.4755 21.7V23.94C82.2221 23.8333 81.9621 23.7467 81.6955 23.68C81.4421 23.6133 81.1755 23.58 80.8955 23.58C80.3888 23.58 79.9355 23.72 79.5355 24C79.1488 24.2667 78.8421 24.6333 78.6155 25.1C78.3888 25.5533 78.2755 26.0533 78.2755 26.6V32H76.1155ZM85.3828 20.3C84.9828 20.3 84.6361 20.16 84.3428 19.88C84.0628 19.5867 83.9228 19.24 83.9228 18.84C83.9228 18.44 84.0628 18.1 84.3428 17.82C84.6361 17.54 84.9828 17.4 85.3828 17.4C85.7828 17.4 86.1228 17.54 86.4028 17.82C86.6961 18.1 86.8428 18.44 86.8428 18.84C86.8428 19.24 86.6961 19.5867 86.4028 19.88C86.1228 20.16 85.7828 20.3 85.3828 20.3ZM84.3028 32V21.8H86.4628V32H84.3028ZM93.4052 32.32C92.4852 32.32 91.6518 32.0933 90.9052 31.64C90.1718 31.1733 89.5852 30.5333 89.1452 29.72C88.7185 28.8933 88.5052 27.9533 88.5052 26.9C88.5052 25.8467 88.7185 24.9133 89.1452 24.1C89.5852 23.2867 90.1718 22.6467 90.9052 22.18C91.6518 21.7133 92.4852 21.48 93.4052 21.48C94.1918 21.48 94.8652 21.6533 95.4252 22C95.9985 22.3467 96.4185 22.74 96.6852 23.18H96.8052L96.6852 21.76V17.68H98.8252V32H96.8052V30.64H96.6852C96.4185 31.08 95.9985 31.4733 95.4252 31.82C94.8652 32.1533 94.1918 32.32 93.4052 32.32ZM93.7252 30.34C94.2585 30.34 94.7585 30.2 95.2252 29.92C95.7052 29.64 96.0852 29.2467 96.3652 28.74C96.6585 28.22 96.8052 27.6067 96.8052 26.9C96.8052 26.1933 96.6585 25.5867 96.3652 25.08C96.0852 24.56 95.7052 24.16 95.2252 23.88C94.7585 23.6 94.2585 23.46 93.7252 23.46C93.1918 23.46 92.6918 23.6 92.2252 23.88C91.7585 24.16 91.3785 24.56 91.0852 25.08C90.7918 25.5867 90.6452 26.1933 90.6452 26.9C90.6452 27.6067 90.7918 28.22 91.0852 28.74C91.3785 29.2467 91.7585 29.64 92.2252 29.92C92.6918 30.2 93.1918 30.34 93.7252 30.34ZM104.472 32.32C103.738 32.32 103.085 32.18 102.512 31.9C101.938 31.6067 101.492 31.2 101.172 30.68C100.852 30.16 100.692 29.5667 100.692 28.9C100.692 28.18 100.878 27.5667 101.252 27.06C101.638 26.54 102.152 26.1467 102.792 25.88C103.432 25.6133 104.138 25.48 104.912 25.48C105.552 25.48 106.112 25.54 106.592 25.66C107.085 25.78 107.458 25.9067 107.712 26.04V25.5C107.712 24.8333 107.472 24.3 106.992 23.9C106.512 23.5 105.892 23.3 105.132 23.3C104.612 23.3 104.118 23.42 103.652 23.66C103.185 23.8867 102.812 24.2 102.532 24.6L101.052 23.46C101.492 22.8467 102.072 22.3667 102.792 22.02C103.525 21.66 104.325 21.48 105.192 21.48C106.672 21.48 107.812 21.8467 108.612 22.58C109.412 23.3 109.812 24.3133 109.812 25.62V32H107.712V30.74H107.592C107.325 31.1533 106.925 31.52 106.392 31.84C105.858 32.16 105.218 32.32 104.472 32.32ZM104.852 30.56C105.412 30.56 105.905 30.4267 106.332 30.16C106.758 29.8933 107.092 29.5467 107.332 29.12C107.585 28.68 107.712 28.2067 107.712 27.7C107.405 27.5267 107.045 27.3867 106.632 27.28C106.218 27.16 105.778 27.1 105.312 27.1C104.432 27.1 103.805 27.28 103.432 27.64C103.058 27.9867 102.872 28.4133 102.872 28.92C102.872 29.4 103.052 29.7933 103.412 30.1C103.772 30.4067 104.252 30.56 104.852 30.56ZM113.074 29.04V23.68H111.294V21.8H113.074V18.92H115.234V21.8H117.734V23.68H115.234V28.58C115.234 29.0867 115.334 29.4733 115.534 29.74C115.748 30.0067 116.101 30.14 116.594 30.14C116.848 30.14 117.061 30.1067 117.234 30.04C117.421 29.9733 117.608 29.88 117.794 29.76V31.86C117.568 31.9533 117.328 32.0267 117.074 32.08C116.821 32.1333 116.521 32.16 116.174 32.16C115.228 32.16 114.474 31.8867 113.914 31.34C113.354 30.78 113.074 30.0133 113.074 29.04ZM116.354 20.62V17.68H118.374L117.874 20.62H116.354ZM128.698 32.32C127.778 32.32 126.945 32.0933 126.198 31.64C125.465 31.1733 124.878 30.5333 124.438 29.72C124.011 28.8933 123.798 27.9533 123.798 26.9C123.798 25.8467 124.011 24.9133 124.438 24.1C124.878 23.2867 125.465 22.6467 126.198 22.18C126.945 21.7133 127.778 21.48 128.698 21.48C129.485 21.48 130.158 21.6533 130.718 22C131.291 22.3467 131.711 22.74 131.978 23.18H132.098L131.978 21.76V17.68H134.118V32H132.098V30.64H131.978C131.711 31.08 131.291 31.4733 130.718 31.82C130.158 32.1533 129.485 32.32 128.698 32.32ZM129.018 30.34C129.551 30.34 130.051 30.2 130.518 29.92C130.998 29.64 131.378 29.2467 131.658 28.74C131.951 28.22 132.098 27.6067 132.098 26.9C132.098 26.1933 131.951 25.5867 131.658 25.08C131.378 24.56 130.998 24.16 130.518 23.88C130.051 23.6 129.551 23.46 129.018 23.46C128.485 23.46 127.985 23.6 127.518 23.88C127.051 24.16 126.671 24.56 126.378 25.08C126.085 25.5867 125.938 26.1933 125.938 26.9C125.938 27.6067 126.085 28.22 126.378 28.74C126.671 29.2467 127.051 29.64 127.518 29.92C127.985 30.2 128.485 30.34 129.018 30.34ZM141.365 32.32C140.311 32.32 139.385 32.08 138.585 31.6C137.785 31.12 137.158 30.4733 136.705 29.66C136.251 28.8467 136.025 27.9267 136.025 26.9C136.025 25.8867 136.251 24.9733 136.705 24.16C137.158 23.3333 137.785 22.68 138.585 22.2C139.385 21.72 140.311 21.48 141.365 21.48C142.405 21.48 143.325 21.72 144.125 22.2C144.925 22.68 145.551 23.3333 146.005 24.16C146.458 24.9733 146.685 25.8867 146.685 26.9C146.685 27.9267 146.458 28.8467 146.005 29.66C145.551 30.4733 144.925 31.12 144.125 31.6C143.325 32.08 142.405 32.32 141.365 32.32ZM141.365 30.34C141.925 30.34 142.445 30.2067 142.925 29.94C143.405 29.66 143.791 29.2667 144.085 28.76C144.391 28.24 144.545 27.62 144.545 26.9C144.545 26.18 144.391 25.5667 144.085 25.06C143.791 24.54 143.405 24.1467 142.925 23.88C142.445 23.6 141.925 23.46 141.365 23.46C140.805 23.46 140.278 23.6 139.785 23.88C139.305 24.1467 138.911 24.54 138.605 25.06C138.311 25.5667 138.165 26.18 138.165 26.9C138.165 27.62 138.311 28.24 138.605 28.76C138.911 29.2667 139.305 29.66 139.785 29.94C140.278 30.2067 140.805 30.34 141.365 30.34ZM157.062 32.32C155.835 32.32 154.855 32.0533 154.122 31.52C153.389 30.9733 152.882 30.3267 152.602 29.58L154.542 28.74C154.782 29.2867 155.129 29.7067 155.582 30C156.035 30.28 156.549 30.42 157.122 30.42C157.655 30.42 158.115 30.3267 158.502 30.14C158.889 29.94 159.082 29.62 159.082 29.18C159.082 28.7533 158.889 28.44 158.502 28.24C158.115 28.04 157.635 27.8667 157.062 27.72L155.842 27.44C155.349 27.32 154.889 27.1333 154.462 26.88C154.035 26.6267 153.689 26.3 153.422 25.9C153.155 25.4867 153.022 25.0067 153.022 24.46C153.022 23.86 153.202 23.34 153.562 22.9C153.922 22.4467 154.395 22.1 154.982 21.86C155.582 21.6067 156.229 21.48 156.922 21.48C157.869 21.48 158.695 21.6667 159.402 22.04C160.122 22.4 160.649 22.9467 160.982 23.68L159.122 24.52C158.882 24.0667 158.569 23.7533 158.182 23.58C157.809 23.3933 157.395 23.3 156.942 23.3C156.435 23.3 156.009 23.4067 155.662 23.62C155.329 23.8333 155.162 24.1 155.162 24.42C155.162 24.7667 155.309 25.04 155.602 25.24C155.909 25.44 156.282 25.6 156.722 25.72L158.202 26.08C159.215 26.3333 159.975 26.72 160.482 27.24C160.989 27.7467 161.242 28.3667 161.242 29.1C161.242 29.7533 161.055 30.3267 160.682 30.82C160.309 31.3 159.802 31.6733 159.162 31.94C158.535 32.1933 157.835 32.32 157.062 32.32ZM163.147 32V17.68H165.307V32H163.147ZM171.554 32.32C170.3 32.32 169.354 31.9467 168.714 31.2C168.087 30.44 167.774 29.4133 167.774 28.12V21.8H169.934V27.82C169.934 28.6867 170.134 29.3267 170.534 29.74C170.947 30.14 171.46 30.34 172.074 30.34C172.62 30.34 173.094 30.2 173.494 29.92C173.907 29.6267 174.22 29.2533 174.434 28.8C174.66 28.3333 174.774 27.8267 174.774 27.28V21.8H176.914V32H174.894V30.62H174.774C174.48 31.1 174.04 31.5067 173.454 31.84C172.88 32.16 172.247 32.32 171.554 32.32ZM179.228 32V30.2L184.908 23.68H179.408V21.8H187.548V23.6L181.888 30.12H187.708V32H179.228ZM182.548 19.84L180.408 17.42V17.28H182.468L183.388 18.52H183.588L184.528 17.28H186.608V17.42L184.448 19.84H182.548ZM195.364 32.32C194.577 32.32 193.897 32.1533 193.324 31.82C192.764 31.4733 192.351 31.08 192.084 30.64H191.964V32H189.924V17.68H192.084V21.76L191.964 23.18H192.084C192.351 22.74 192.764 22.3467 193.324 22C193.897 21.6533 194.577 21.48 195.364 21.48C196.297 21.48 197.131 21.7133 197.864 22.18C198.597 22.6467 199.177 23.2867 199.604 24.1C200.044 24.9133 200.264 25.8467 200.264 26.9C200.264 27.9533 200.044 28.8933 199.604 29.72C199.177 30.5333 198.597 31.1733 197.864 31.64C197.131 32.0933 196.297 32.32 195.364 32.32ZM195.044 30.34C195.577 30.34 196.077 30.2 196.544 29.92C197.011 29.64 197.391 29.2467 197.684 28.74C197.977 28.22 198.124 27.6067 198.124 26.9C198.124 26.1933 197.977 25.5867 197.684 25.08C197.391 24.56 197.011 24.16 196.544 23.88C196.077 23.6 195.577 23.46 195.044 23.46C194.511 23.46 194.011 23.6 193.544 23.88C193.077 24.16 192.697 24.56 192.404 25.08C192.111 25.5867 191.964 26.1933 191.964 26.9C191.964 27.6067 192.111 28.22 192.404 28.74C192.697 29.2467 193.077 29.64 193.544 29.92C194.011 30.2 194.511 30.34 195.044 30.34ZM205.338 35.82C205.298 35.9267 205.251 36.0267 205.198 36.12C205.158 36.2133 205.131 36.28 205.118 36.32H202.818C202.884 36.1733 202.978 35.96 203.098 35.68C203.231 35.4133 203.358 35.1533 203.478 34.9C203.598 34.6467 203.724 34.36 203.858 34.04C204.004 33.72 204.151 33.4067 204.298 33.1L205.058 31.44L200.798 21.8H203.198L206.118 28.76H206.218L209.038 21.8H211.418L206.138 33.96C205.991 34.3067 205.831 34.6667 205.658 35.04C205.498 35.4267 205.391 35.6867 205.338 35.82Z" fill="white"/>
<path d="M225.4 32.32C224.373 32.32 223.407 32.1333 222.5 31.76C221.607 31.3867 220.813 30.8667 220.12 30.2C219.427 29.52 218.88 28.7267 218.48 27.82C218.093 26.9 217.9 25.9067 217.9 24.84C217.9 23.7733 218.093 22.7867 218.48 21.88C218.88 20.96 219.42 20.1667 220.1 19.5C220.793 18.82 221.593 18.2933 222.5 17.92C223.407 17.5467 224.373 17.36 225.4 17.36C226.493 17.36 227.5 17.5533 228.42 17.94C229.353 18.3267 230.133 18.8667 230.76 19.56L229.24 21.06C228.773 20.54 228.213 20.14 227.56 19.86C226.92 19.58 226.2 19.44 225.4 19.44C224.453 19.44 223.58 19.6667 222.78 20.12C221.98 20.56 221.333 21.1867 220.84 22C220.36 22.8 220.12 23.7467 220.12 24.84C220.12 25.9333 220.367 26.8867 220.86 27.7C221.353 28.5 222 29.1267 222.8 29.58C223.6 30.02 224.473 30.24 225.42 30.24C226.287 30.24 227.073 30.08 227.78 29.76C228.487 29.4267 229.053 28.96 229.48 28.36C229.92 27.76 230.187 27.04 230.28 26.2H225.38V24.26H232.34C232.42 24.62 232.46 25 232.46 25.4V25.42C232.46 26.8067 232.153 28.02 231.54 29.06C230.94 30.0867 230.107 30.8867 229.04 31.46C227.973 32.0333 226.76 32.32 225.4 32.32ZM238.9 32.32C237.847 32.32 236.92 32.08 236.12 31.6C235.32 31.12 234.693 30.4733 234.24 29.66C233.787 28.8467 233.56 27.9267 233.56 26.9C233.56 25.8867 233.787 24.9733 234.24 24.16C234.693 23.3333 235.32 22.68 236.12 22.2C236.92 21.72 237.847 21.48 238.9 21.48C239.94 21.48 240.86 21.72 241.66 22.2C242.46 22.68 243.087 23.3333 243.54 24.16C243.993 24.9733 244.22 25.8867 244.22 26.9C244.22 27.9267 243.993 28.8467 243.54 29.66C243.087 30.4733 242.46 31.12 241.66 31.6C240.86 32.08 239.94 32.32 238.9 32.32ZM238.9 30.34C239.46 30.34 239.98 30.2067 240.46 29.94C240.94 29.66 241.327 29.2667 241.62 28.76C241.927 28.24 242.08 27.62 242.08 26.9C242.08 26.18 241.927 25.5667 241.62 25.06C241.327 24.54 240.94 24.1467 240.46 23.88C239.98 23.6 239.46 23.46 238.9 23.46C238.34 23.46 237.813 23.6 237.32 23.88C236.84 24.1467 236.447 24.54 236.14 25.06C235.847 25.5667 235.7 26.18 235.7 26.9C235.7 27.62 235.847 28.24 236.14 28.76C236.447 29.2667 236.84 29.66 237.32 29.94C237.813 30.2067 238.34 30.34 238.9 30.34ZM251.009 32.32C249.956 32.32 249.029 32.08 248.229 31.6C247.429 31.12 246.803 30.4733 246.349 29.66C245.896 28.8467 245.669 27.9267 245.669 26.9C245.669 25.8867 245.896 24.9733 246.349 24.16C246.803 23.3333 247.429 22.68 248.229 22.2C249.029 21.72 249.956 21.48 251.009 21.48C252.049 21.48 252.969 21.72 253.769 22.2C254.569 22.68 255.196 23.3333 255.649 24.16C256.103 24.9733 256.329 25.8867 256.329 26.9C256.329 27.9267 256.103 28.8467 255.649 29.66C255.196 30.4733 254.569 31.12 253.769 31.6C252.969 32.08 252.049 32.32 251.009 32.32ZM251.009 30.34C251.569 30.34 252.089 30.2067 252.569 29.94C253.049 29.66 253.436 29.2667 253.729 28.76C254.036 28.24 254.189 27.62 254.189 26.9C254.189 26.18 254.036 25.5667 253.729 25.06C253.436 24.54 253.049 24.1467 252.569 23.88C252.089 23.6 251.569 23.46 251.009 23.46C250.449 23.46 249.923 23.6 249.429 23.88C248.949 24.1467 248.556 24.54 248.249 25.06C247.956 25.5667 247.809 26.18 247.809 26.9C247.809 27.62 247.956 28.24 248.249 28.76C248.556 29.2667 248.949 29.66 249.429 29.94C249.923 30.2067 250.449 30.34 251.009 30.34ZM262.919 36.64C262.025 36.64 261.252 36.4933 260.599 36.2C259.959 35.92 259.439 35.5533 259.039 35.1C258.639 34.66 258.352 34.2067 258.179 33.74L260.179 32.9C260.392 33.4333 260.732 33.8667 261.199 34.2C261.679 34.5467 262.252 34.72 262.919 34.72C263.852 34.72 264.585 34.44 265.119 33.88C265.665 33.32 265.939 32.5267 265.939 31.5V30.52H265.819C265.499 31 265.052 31.3867 264.479 31.68C263.919 31.96 263.279 32.1 262.559 32.1C261.692 32.1 260.899 31.88 260.179 31.44C259.459 31 258.879 30.3867 258.439 29.6C257.999 28.8 257.779 27.8667 257.779 26.8C257.779 25.72 257.999 24.7867 258.439 24C258.879 23.2 259.459 22.58 260.179 22.14C260.899 21.7 261.692 21.48 262.559 21.48C263.279 21.48 263.919 21.6267 264.479 21.92C265.052 22.2133 265.499 22.6 265.819 23.08H265.939V21.8H267.999V31.46C267.999 32.5667 267.779 33.5067 267.339 34.28C266.912 35.0533 266.319 35.64 265.559 36.04C264.799 36.44 263.919 36.64 262.919 36.64ZM262.939 30.14C263.472 30.14 263.965 30.0133 264.419 29.76C264.872 29.4933 265.239 29.1133 265.519 28.62C265.799 28.1133 265.939 27.5067 265.939 26.8C265.939 26.0667 265.799 25.4533 265.519 24.96C265.239 24.4533 264.872 24.0733 264.419 23.82C263.965 23.5667 263.472 23.44 262.939 23.44C262.405 23.44 261.905 23.5733 261.439 23.84C260.985 24.0933 260.619 24.4667 260.339 24.96C260.059 25.4533 259.919 26.0667 259.919 26.8C259.919 27.52 260.059 28.1333 260.339 28.64C260.619 29.1333 260.985 29.5067 261.439 29.76C261.905 30.0133 262.405 30.14 262.939 30.14ZM270.546 32V17.68H272.706V32H270.546ZM279.815 32.32C278.815 32.32 277.921 32.0867 277.135 31.62C276.348 31.1533 275.728 30.5133 275.275 29.7C274.835 28.8867 274.615 27.96 274.615 26.92C274.615 25.9467 274.828 25.0467 275.255 24.22C275.681 23.3933 276.275 22.7333 277.035 22.24C277.808 21.7333 278.695 21.48 279.695 21.48C280.748 21.48 281.641 21.7067 282.375 22.16C283.121 22.6133 283.688 23.2333 284.075 24.02C284.461 24.8067 284.655 25.6933 284.655 26.68C284.655 26.8267 284.648 26.96 284.635 27.08C284.635 27.2 284.628 27.2933 284.615 27.36H276.735C276.841 28.3733 277.195 29.1333 277.795 29.64C278.408 30.1467 279.101 30.4 279.875 30.4C280.568 30.4 281.141 30.2467 281.595 29.94C282.048 29.62 282.408 29.2267 282.675 28.76L284.455 29.62C284.015 30.42 283.415 31.0733 282.655 31.58C281.895 32.0733 280.948 32.32 279.815 32.32ZM279.715 23.32C278.995 23.32 278.381 23.54 277.875 23.98C277.368 24.42 277.028 25.0067 276.855 25.74H282.515C282.488 25.3933 282.375 25.0333 282.175 24.66C281.975 24.2867 281.668 23.9733 281.255 23.72C280.855 23.4533 280.341 23.32 279.715 23.32ZM291.686 32V17.68H296.606C297.473 17.68 298.26 17.8667 298.966 18.24C299.673 18.6133 300.233 19.1267 300.646 19.78C301.073 20.4333 301.286 21.1933 301.286 22.06C301.286 22.9267 301.073 23.6933 300.646 24.36C300.233 25.0133 299.673 25.5267 298.966 25.9C298.26 26.26 297.473 26.44 296.606 26.44H293.886V32H291.686ZM296.666 19.76H293.886V24.36H296.666C297.186 24.36 297.626 24.2533 297.986 24.04C298.346 23.8133 298.62 23.5267 298.806 23.18C299.006 22.82 299.106 22.4467 299.106 22.06C299.106 21.6733 299.006 21.3067 298.806 20.96C298.62 20.6133 298.346 20.3267 297.986 20.1C297.626 19.8733 297.186 19.76 296.666 19.76ZM307.139 32.32C306.139 32.32 305.245 32.0867 304.459 31.62C303.672 31.1533 303.052 30.5133 302.599 29.7C302.159 28.8867 301.939 27.96 301.939 26.92C301.939 25.9467 302.152 25.0467 302.579 24.22C303.005 23.3933 303.599 22.7333 304.359 22.24C305.132 21.7333 306.019 21.48 307.019 21.48C308.072 21.48 308.965 21.7067 309.699 22.16C310.445 22.6133 311.012 23.2333 311.399 24.02C311.785 24.8067 311.979 25.6933 311.979 26.68C311.979 26.8267 311.972 26.96 311.959 27.08C311.959 27.2 311.952 27.2933 311.939 27.36H304.059C304.165 28.3733 304.519 29.1333 305.119 29.64C305.732 30.1467 306.425 30.4 307.199 30.4C307.892 30.4 308.465 30.2467 308.919 29.94C309.372 29.62 309.732 29.2267 309.999 28.76L311.779 29.62C311.339 30.42 310.739 31.0733 309.979 31.58C309.219 32.0733 308.272 32.32 307.139 32.32ZM307.039 23.32C306.319 23.32 305.705 23.54 305.199 23.98C304.692 24.42 304.352 25.0067 304.179 25.74H309.839C309.812 25.3933 309.699 25.0333 309.499 24.66C309.299 24.2867 308.992 23.9733 308.579 23.72C308.179 23.4533 307.665 23.32 307.039 23.32ZM313.983 32V21.8H316.023V23.2H316.143C316.436 22.7067 316.869 22.3 317.443 21.98C318.029 21.6467 318.669 21.48 319.363 21.48C320.616 21.48 321.556 21.8533 322.183 22.6C322.809 23.3467 323.123 24.3333 323.123 25.56V32H320.983V25.84C320.983 25.0133 320.776 24.4133 320.363 24.04C319.949 23.6533 319.409 23.46 318.743 23.46C318.223 23.46 317.769 23.6067 317.383 23.9C316.996 24.18 316.689 24.5533 316.463 25.02C316.249 25.4867 316.143 25.9867 316.143 26.52V32H313.983ZM317.843 19.84L315.703 17.42V17.28H317.763L318.683 18.52H318.883L319.823 17.28H321.903V17.42L319.743 19.84H317.843ZM328.687 32.32C327.953 32.32 327.3 32.18 326.727 31.9C326.153 31.6067 325.707 31.2 325.387 30.68C325.067 30.16 324.907 29.5667 324.907 28.9C324.907 28.18 325.093 27.5667 325.467 27.06C325.853 26.54 326.367 26.1467 327.007 25.88C327.647 25.6133 328.353 25.48 329.127 25.48C329.767 25.48 330.327 25.54 330.807 25.66C331.3 25.78 331.673 25.9067 331.927 26.04V25.5C331.927 24.8333 331.687 24.3 331.207 23.9C330.727 23.5 330.107 23.3 329.347 23.3C328.827 23.3 328.333 23.42 327.867 23.66C327.4 23.8867 327.027 24.2 326.747 24.6L325.267 23.46C325.707 22.8467 326.287 22.3667 327.007 22.02C327.74 21.66 328.54 21.48 329.407 21.48C330.887 21.48 332.027 21.8467 332.827 22.58C333.627 23.3 334.027 24.3133 334.027 25.62V32H331.927V30.74H331.807C331.54 31.1533 331.14 31.52 330.607 31.84C330.073 32.16 329.433 32.32 328.687 32.32ZM329.067 30.56C329.627 30.56 330.12 30.4267 330.547 30.16C330.973 29.8933 331.307 29.5467 331.547 29.12C331.8 28.68 331.927 28.2067 331.927 27.7C331.62 27.5267 331.26 27.3867 330.847 27.28C330.433 27.16 329.993 27.1 329.527 27.1C328.647 27.1 328.02 27.28 327.647 27.64C327.273 27.9867 327.087 28.4133 327.087 28.92C327.087 29.4 327.267 29.7933 327.627 30.1C327.987 30.4067 328.467 30.56 329.067 30.56ZM335.865 32V30.2L341.545 23.68H336.045V21.8H344.185V23.6L338.525 30.12H344.345V32H335.865ZM339.185 19.84L337.045 17.42V17.28H339.105L340.025 18.52H340.225L341.165 17.28H343.245V17.42L341.085 19.84H339.185ZM350.83 32.32C349.83 32.32 348.937 32.0867 348.15 31.62C347.363 31.1533 346.743 30.5133 346.29 29.7C345.85 28.8867 345.63 27.96 345.63 26.92C345.63 25.9467 345.843 25.0467 346.27 24.22C346.697 23.3933 347.29 22.7333 348.05 22.24C348.823 21.7333 349.71 21.48 350.71 21.48C351.763 21.48 352.657 21.7067 353.39 22.16C354.137 22.6133 354.703 23.2333 355.09 24.02C355.477 24.8067 355.67 25.6933 355.67 26.68C355.67 26.8267 355.663 26.96 355.65 27.08C355.65 27.2 355.643 27.2933 355.63 27.36H347.75C347.857 28.3733 348.21 29.1333 348.81 29.64C349.423 30.1467 350.117 30.4 350.89 30.4C351.583 30.4 352.157 30.2467 352.61 29.94C353.063 29.62 353.423 29.2267 353.69 28.76L355.47 29.62C355.03 30.42 354.43 31.0733 353.67 31.58C352.91 32.0733 351.963 32.32 350.83 32.32ZM350.73 23.32C350.01 23.32 349.397 23.54 348.89 23.98C348.383 24.42 348.043 25.0067 347.87 25.74H353.53C353.503 25.3933 353.39 25.0333 353.19 24.66C352.99 24.2867 352.683 23.9733 352.27 23.72C351.87 23.4533 351.357 23.32 350.73 23.32ZM357.674 32V21.8H359.714V23.2H359.834C360.127 22.7067 360.561 22.3 361.134 21.98C361.721 21.6467 362.361 21.48 363.054 21.48C364.307 21.48 365.247 21.8533 365.874 22.6C366.501 23.3467 366.814 24.3333 366.814 25.56V32H364.674V25.84C364.674 25.0133 364.467 24.4133 364.054 24.04C363.641 23.6533 363.101 23.46 362.434 23.46C361.914 23.46 361.461 23.6067 361.074 23.9C360.687 24.18 360.381 24.5533 360.154 25.02C359.941 25.4867 359.834 25.9867 359.834 26.52V32H357.674ZM369.276 32V17.68H371.436V26.12L375.756 21.8H378.436V21.92L374.496 25.82L378.576 31.88V32H376.016L372.976 27.32L371.436 28.84V32H369.276ZM382.925 32.32C382.192 32.32 381.538 32.18 380.965 31.9C380.392 31.6067 379.945 31.2 379.625 30.68C379.305 30.16 379.145 29.5667 379.145 28.9C379.145 28.18 379.332 27.5667 379.705 27.06C380.092 26.54 380.605 26.1467 381.245 25.88C381.885 25.6133 382.592 25.48 383.365 25.48C384.005 25.48 384.565 25.54 385.045 25.66C385.538 25.78 385.912 25.9067 386.165 26.04V25.5C386.165 24.8333 385.925 24.3 385.445 23.9C384.965 23.5 384.345 23.3 383.585 23.3C383.065 23.3 382.572 23.42 382.105 23.66C381.638 23.8867 381.265 24.2 380.985 24.6L379.505 23.46C379.945 22.8467 380.525 22.3667 381.245 22.02C381.978 21.66 382.778 21.48 383.645 21.48C385.125 21.48 386.265 21.8467 387.065 22.58C387.865 23.3 388.265 24.3133 388.265 25.62V32H386.165V30.74H386.045C385.778 31.1533 385.378 31.52 384.845 31.84C384.312 32.16 383.672 32.32 382.925 32.32ZM383.305 30.56C383.865 30.56 384.358 30.4267 384.785 30.16C385.212 29.8933 385.545 29.5467 385.785 29.12C386.038 28.68 386.165 28.2067 386.165 27.7C385.858 27.5267 385.498 27.3867 385.085 27.28C384.672 27.16 384.232 27.1 383.765 27.1C382.885 27.1 382.258 27.28 381.885 27.64C381.512 27.9867 381.325 28.4133 381.325 28.92C381.325 29.4 381.505 29.7933 381.865 30.1C382.225 30.4067 382.705 30.56 383.305 30.56Z" fill="white"/>
<rect x="0.5" y="0.5" width="410" height="49" rx="24.5" stroke="#747775"/>
<defs>
<linearGradient id="paint0_linear_1819_24671" x1="34.5703" y1="30.7864" x2="18.7309" y2="48.9133" gradientUnits="userSpaceOnUse">
<stop stop-color="#4285F4"/>
<stop offset="1" stop-color="#1B74E8"/>
</linearGradient>
</defs>
</svg>
