<svg width="361" height="50" viewBox="0 0 361 50" fill="none" xmlns="http://www.w3.org/2000/svg">
<rect x="0.5" y="0.5" width="360" height="49" rx="24.5" fill="#1F1F1F"/>
<path d="M51 22H21V17C21 14.2857 23.2018 12 25.8165 12H46.1835C48.7982 12 51 14.2857 51 17V22Z" fill="#34A853"/>
<path d="M51 26.0537H21V21.0537C21 18.3394 23.2018 16.0537 25.8165 16.0537H46.1835C48.7982 16.0537 51 18.3394 51 21.0537V26.0537Z" fill="#FBBC04"/>
<path d="M51 30.2468H21V25.2468C21 22.5325 23.2018 20.2468 25.8165 20.2468H46.1835C48.7982 20.2468 51 22.5325 51 25.2468V30.2468Z" fill="#EA4335"/>
<path d="M21 23.2752L40.0411 27.6789C42.2329 28.2294 44.6986 27.6789 46.4795 26.3028L51 23V33.3211C51 35.9358 48.8082 38 46.2055 38H25.7945C23.1918 38 21 35.9358 21 33.3211V23.2752Z" fill="url(#paint0_linear_1819_24101)"/>
<path d="M67.54 32V19.76H63.52V17.68H73.72V19.76H69.72V32H67.54ZM78.6889 32.32C77.6356 32.32 76.7089 32.08 75.9089 31.6C75.1089 31.12 74.4822 30.4733 74.0289 29.66C73.5756 28.8467 73.3489 27.9267 73.3489 26.9C73.3489 25.8867 73.5756 24.9733 74.0289 24.16C74.4822 23.3333 75.1089 22.68 75.9089 22.2C76.7089 21.72 77.6356 21.48 78.6889 21.48C79.7289 21.48 80.6489 21.72 81.4489 22.2C82.2489 22.68 82.8756 23.3333 83.3289 24.16C83.7822 24.9733 84.0089 25.8867 84.0089 26.9C84.0089 27.9267 83.7822 28.8467 83.3289 29.66C82.8756 30.4733 82.2489 31.12 81.4489 31.6C80.6489 32.08 79.7289 32.32 78.6889 32.32ZM78.6889 30.34C79.2489 30.34 79.7689 30.2067 80.2489 29.94C80.7289 29.66 81.1156 29.2667 81.4089 28.76C81.7156 28.24 81.8689 27.62 81.8689 26.9C81.8689 26.18 81.7156 25.5667 81.4089 25.06C81.1156 24.54 80.7289 24.1467 80.2489 23.88C79.7689 23.6 79.2489 23.46 78.6889 23.46C78.1289 23.46 77.6022 23.6 77.1089 23.88C76.6289 24.1467 76.2356 24.54 75.9289 25.06C75.6356 25.5667 75.4889 26.18 75.4889 26.9C75.4889 27.62 75.6356 28.24 75.9289 28.76C76.2356 29.2667 76.6289 29.66 77.1089 29.94C77.6022 30.2067 78.1289 30.34 78.6889 30.34ZM90.6583 32.32C89.6583 32.32 88.7649 32.0867 87.9783 31.62C87.1916 31.1533 86.5716 30.5133 86.1183 29.7C85.6783 28.8867 85.4583 27.96 85.4583 26.92C85.4583 25.9467 85.6716 25.0467 86.0983 24.22C86.5249 23.3933 87.1183 22.7333 87.8783 22.24C88.6516 21.7333 89.5383 21.48 90.5383 21.48C91.5916 21.48 92.4849 21.7067 93.2183 22.16C93.9649 22.6133 94.5316 23.2333 94.9183 24.02C95.3049 24.8067 95.4983 25.6933 95.4983 26.68C95.4983 26.8267 95.4916 26.96 95.4783 27.08C95.4783 27.2 95.4716 27.2933 95.4583 27.36H87.5783C87.6849 28.3733 88.0383 29.1333 88.6383 29.64C89.2516 30.1467 89.9449 30.4 90.7183 30.4C91.4116 30.4 91.9849 30.2467 92.4383 29.94C92.8916 29.62 93.2516 29.2267 93.5183 28.76L95.2983 29.62C94.8583 30.42 94.2583 31.0733 93.4983 31.58C92.7383 32.0733 91.7916 32.32 90.6583 32.32ZM90.5583 23.32C89.8383 23.32 89.2249 23.54 88.7183 23.98C88.2116 24.42 87.8716 25.0067 87.6983 25.74H93.3583C93.3316 25.3933 93.2183 25.0333 93.0183 24.66C92.8183 24.2867 92.5116 23.9733 92.0983 23.72C91.6983 23.4533 91.1849 23.32 90.5583 23.32ZM100.407 32L96.1869 21.8H98.5869L101.447 29.22H101.547L104.467 21.8H106.827L102.567 32H100.407ZM112.732 32.32C111.679 32.32 110.752 32.08 109.952 31.6C109.152 31.12 108.525 30.4733 108.072 29.66C107.619 28.8467 107.392 27.9267 107.392 26.9C107.392 25.8867 107.619 24.9733 108.072 24.16C108.525 23.3333 109.152 22.68 109.952 22.2C110.752 21.72 111.679 21.48 112.732 21.48C113.772 21.48 114.692 21.72 115.492 22.2C116.292 22.68 116.919 23.3333 117.372 24.16C117.825 24.9733 118.052 25.8867 118.052 26.9C118.052 27.9267 117.825 28.8467 117.372 29.66C116.919 30.4733 116.292 31.12 115.492 31.6C114.692 32.08 113.772 32.32 112.732 32.32ZM112.732 30.34C113.292 30.34 113.812 30.2067 114.292 29.94C114.772 29.66 115.159 29.2667 115.452 28.76C115.759 28.24 115.912 27.62 115.912 26.9C115.912 26.18 115.759 25.5667 115.452 25.06C115.159 24.54 114.772 24.1467 114.292 23.88C113.812 23.6 113.292 23.46 112.732 23.46C112.172 23.46 111.645 23.6 111.152 23.88C110.672 24.1467 110.279 24.54 109.972 25.06C109.679 25.5667 109.532 26.18 109.532 26.9C109.532 27.62 109.679 28.24 109.972 28.76C110.279 29.2667 110.672 29.66 111.152 29.94C111.645 30.2067 112.172 30.34 112.732 30.34ZM124.701 32.32C123.701 32.32 122.808 32.0867 122.021 31.62C121.235 31.1533 120.615 30.5133 120.161 29.7C119.721 28.8867 119.501 27.96 119.501 26.92C119.501 25.9467 119.715 25.0467 120.141 24.22C120.568 23.3933 121.161 22.7333 121.921 22.24C122.695 21.7333 123.581 21.48 124.581 21.48C125.635 21.48 126.528 21.7067 127.261 22.16C128.008 22.6133 128.575 23.2333 128.961 24.02C129.348 24.8067 129.541 25.6933 129.541 26.68C129.541 26.8267 129.535 26.96 129.521 27.08C129.521 27.2 129.515 27.2933 129.501 27.36H121.621C121.728 28.3733 122.081 29.1333 122.681 29.64C123.295 30.1467 123.988 30.4 124.761 30.4C125.455 30.4 126.028 30.2467 126.481 29.94C126.935 29.62 127.295 29.2267 127.561 28.76L129.341 29.62C128.901 30.42 128.301 31.0733 127.541 31.58C126.781 32.0733 125.835 32.32 124.701 32.32ZM124.601 23.32C123.881 23.32 123.268 23.54 122.761 23.98C122.255 24.42 121.915 25.0067 121.741 25.74H127.401C127.375 25.3933 127.261 25.0333 127.061 24.66C126.861 24.2867 126.555 23.9733 126.141 23.72C125.741 23.4533 125.228 23.32 124.601 23.32ZM136.243 36.64C135.349 36.64 134.576 36.4933 133.923 36.2C133.283 35.92 132.763 35.5533 132.363 35.1C131.963 34.66 131.676 34.2067 131.503 33.74L133.503 32.9C133.716 33.4333 134.056 33.8667 134.523 34.2C135.003 34.5467 135.576 34.72 136.243 34.72C137.176 34.72 137.909 34.44 138.443 33.88C138.989 33.32 139.263 32.5267 139.263 31.5V30.52H139.143C138.823 31 138.376 31.3867 137.803 31.68C137.243 31.96 136.603 32.1 135.883 32.1C135.016 32.1 134.223 31.88 133.503 31.44C132.783 31 132.203 30.3867 131.763 29.6C131.323 28.8 131.103 27.8667 131.103 26.8C131.103 25.72 131.323 24.7867 131.763 24C132.203 23.2 132.783 22.58 133.503 22.14C134.223 21.7 135.016 21.48 135.883 21.48C136.603 21.48 137.243 21.6267 137.803 21.92C138.376 22.2133 138.823 22.6 139.143 23.08H139.263V21.8H141.323V31.46C141.323 32.5667 141.103 33.5067 140.663 34.28C140.236 35.0533 139.643 35.64 138.883 36.04C138.123 36.44 137.243 36.64 136.243 36.64ZM136.263 30.14C136.796 30.14 137.289 30.0133 137.743 29.76C138.196 29.4933 138.563 29.1133 138.843 28.62C139.123 28.1133 139.263 27.5067 139.263 26.8C139.263 26.0667 139.123 25.4533 138.843 24.96C138.563 24.4533 138.196 24.0733 137.743 23.82C137.289 23.5667 136.796 23.44 136.263 23.44C135.729 23.44 135.229 23.5733 134.763 23.84C134.309 24.0933 133.943 24.4667 133.663 24.96C133.383 25.4533 133.243 26.0667 133.243 26.8C133.243 27.52 133.383 28.1333 133.663 28.64C133.943 29.1333 134.309 29.5067 134.763 29.76C135.229 30.0133 135.729 30.14 136.263 30.14ZM148.412 32.32C147.412 32.32 146.519 32.0867 145.732 31.62C144.946 31.1533 144.326 30.5133 143.872 29.7C143.432 28.8867 143.212 27.96 143.212 26.92C143.212 25.9467 143.426 25.0467 143.852 24.22C144.279 23.3933 144.872 22.7333 145.632 22.24C146.406 21.7333 147.292 21.48 148.292 21.48C149.346 21.48 150.239 21.7067 150.972 22.16C151.719 22.6133 152.286 23.2333 152.672 24.02C153.059 24.8067 153.252 25.6933 153.252 26.68C153.252 26.8267 153.246 26.96 153.232 27.08C153.232 27.2 153.226 27.2933 153.212 27.36H145.332C145.439 28.3733 145.792 29.1333 146.392 29.64C147.006 30.1467 147.699 30.4 148.472 30.4C149.166 30.4 149.739 30.2467 150.192 29.94C150.646 29.62 151.006 29.2267 151.272 28.76L153.052 29.62C152.612 30.42 152.012 31.0733 151.252 31.58C150.492 32.0733 149.546 32.32 148.412 32.32ZM148.312 23.32C147.592 23.32 146.979 23.54 146.472 23.98C145.966 24.42 145.626 25.0067 145.452 25.74H151.112C151.086 25.3933 150.972 25.0333 150.772 24.66C150.572 24.2867 150.266 23.9733 149.852 23.72C149.452 23.4533 148.939 23.32 148.312 23.32ZM155.256 32V21.8H157.296V23.2H157.416C157.709 22.7067 158.143 22.3 158.716 21.98C159.303 21.6467 159.943 21.48 160.636 21.48C161.889 21.48 162.829 21.8533 163.456 22.6C164.083 23.3467 164.396 24.3333 164.396 25.56V32H162.256V25.84C162.256 25.0133 162.049 24.4133 161.636 24.04C161.223 23.6533 160.683 23.46 160.016 23.46C159.496 23.46 159.043 23.6067 158.656 23.9C158.269 24.18 157.963 24.5533 157.736 25.02C157.523 25.4867 157.416 25.9867 157.416 26.52V32H155.256ZM174.726 32.32C173.992 32.32 173.339 32.18 172.766 31.9C172.192 31.6067 171.746 31.2 171.426 30.68C171.106 30.16 170.946 29.5667 170.946 28.9C170.946 28.18 171.132 27.5667 171.506 27.06C171.892 26.54 172.406 26.1467 173.046 25.88C173.686 25.6133 174.392 25.48 175.166 25.48C175.806 25.48 176.366 25.54 176.846 25.66C177.339 25.78 177.712 25.9067 177.966 26.04V25.5C177.966 24.8333 177.726 24.3 177.246 23.9C176.766 23.5 176.146 23.3 175.386 23.3C174.866 23.3 174.372 23.42 173.906 23.66C173.439 23.8867 173.066 24.2 172.786 24.6L171.306 23.46C171.746 22.8467 172.326 22.3667 173.046 22.02C173.779 21.66 174.579 21.48 175.446 21.48C176.926 21.48 178.066 21.8467 178.866 22.58C179.666 23.3 180.066 24.3133 180.066 25.62V32H177.966V30.74H177.846C177.579 31.1533 177.179 31.52 176.646 31.84C176.112 32.16 175.472 32.32 174.726 32.32ZM175.106 30.56C175.666 30.56 176.159 30.4267 176.586 30.16C177.012 29.8933 177.346 29.5467 177.586 29.12C177.839 28.68 177.966 28.2067 177.966 27.7C177.659 27.5267 177.299 27.3867 176.886 27.28C176.472 27.16 176.032 27.1 175.566 27.1C174.686 27.1 174.059 27.28 173.686 27.64C173.312 27.9867 173.126 28.4133 173.126 28.92C173.126 29.4 173.306 29.7933 173.666 30.1C174.026 30.4067 174.506 30.56 175.106 30.56ZM185.546 32.32C184.813 32.32 184.159 32.18 183.586 31.9C183.013 31.6067 182.566 31.2 182.246 30.68C181.926 30.16 181.766 29.5667 181.766 28.9C181.766 28.18 181.953 27.5667 182.326 27.06C182.713 26.54 183.226 26.1467 183.866 25.88C184.506 25.6133 185.213 25.48 185.986 25.48C186.626 25.48 187.186 25.54 187.666 25.66C188.159 25.78 188.533 25.9067 188.786 26.04V25.5C188.786 24.8333 188.546 24.3 188.066 23.9C187.586 23.5 186.966 23.3 186.206 23.3C185.686 23.3 185.193 23.42 184.726 23.66C184.259 23.8867 183.886 24.2 183.606 24.6L182.126 23.46C182.566 22.8467 183.146 22.3667 183.866 22.02C184.599 21.66 185.399 21.48 186.266 21.48C187.746 21.48 188.886 21.8467 189.686 22.58C190.486 23.3 190.886 24.3133 190.886 25.62V32H188.786V30.74H188.666C188.399 31.1533 187.999 31.52 187.466 31.84C186.933 32.16 186.293 32.32 185.546 32.32ZM185.926 30.56C186.486 30.56 186.979 30.4267 187.406 30.16C187.833 29.8933 188.166 29.5467 188.406 29.12C188.659 28.68 188.786 28.2067 188.786 27.7C188.479 27.5267 188.119 27.3867 187.706 27.28C187.293 27.16 186.853 27.1 186.386 27.1C185.506 27.1 184.879 27.28 184.506 27.64C184.133 27.9867 183.946 28.4133 183.946 28.92C183.946 29.4 184.126 29.7933 184.486 30.1C184.846 30.4067 185.326 30.56 185.926 30.56ZM193.264 32V21.8H195.304V23.2H195.424C195.717 22.7067 196.151 22.3 196.724 21.98C197.311 21.6467 197.951 21.48 198.644 21.48C199.897 21.48 200.837 21.8533 201.464 22.6C202.091 23.3467 202.404 24.3333 202.404 25.56V32H200.264V25.84C200.264 25.0133 200.057 24.4133 199.644 24.04C199.231 23.6533 198.691 23.46 198.024 23.46C197.504 23.46 197.051 23.6067 196.664 23.9C196.277 24.18 195.971 24.5533 195.744 25.02C195.531 25.4867 195.424 25.9867 195.424 26.52V32H193.264Z" fill="white"/>
<path d="M217.4 32.32C216.373 32.32 215.407 32.1333 214.5 31.76C213.607 31.3867 212.813 30.8667 212.12 30.2C211.427 29.52 210.88 28.7267 210.48 27.82C210.093 26.9 209.9 25.9067 209.9 24.84C209.9 23.7733 210.093 22.7867 210.48 21.88C210.88 20.96 211.42 20.1667 212.1 19.5C212.793 18.82 213.593 18.2933 214.5 17.92C215.407 17.5467 216.373 17.36 217.4 17.36C218.493 17.36 219.5 17.5533 220.42 17.94C221.353 18.3267 222.133 18.8667 222.76 19.56L221.24 21.06C220.773 20.54 220.213 20.14 219.56 19.86C218.92 19.58 218.2 19.44 217.4 19.44C216.453 19.44 215.58 19.6667 214.78 20.12C213.98 20.56 213.333 21.1867 212.84 22C212.36 22.8 212.12 23.7467 212.12 24.84C212.12 25.9333 212.367 26.8867 212.86 27.7C213.353 28.5 214 29.1267 214.8 29.58C215.6 30.02 216.473 30.24 217.42 30.24C218.287 30.24 219.073 30.08 219.78 29.76C220.487 29.4267 221.053 28.96 221.48 28.36C221.92 27.76 222.187 27.04 222.28 26.2H217.38V24.26H224.34C224.42 24.62 224.46 25 224.46 25.4V25.42C224.46 26.8067 224.153 28.02 223.54 29.06C222.94 30.0867 222.107 30.8867 221.04 31.46C219.973 32.0333 218.76 32.32 217.4 32.32ZM230.9 32.32C229.847 32.32 228.92 32.08 228.12 31.6C227.32 31.12 226.693 30.4733 226.24 29.66C225.787 28.8467 225.56 27.9267 225.56 26.9C225.56 25.8867 225.787 24.9733 226.24 24.16C226.693 23.3333 227.32 22.68 228.12 22.2C228.92 21.72 229.847 21.48 230.9 21.48C231.94 21.48 232.86 21.72 233.66 22.2C234.46 22.68 235.087 23.3333 235.54 24.16C235.993 24.9733 236.22 25.8867 236.22 26.9C236.22 27.9267 235.993 28.8467 235.54 29.66C235.087 30.4733 234.46 31.12 233.66 31.6C232.86 32.08 231.94 32.32 230.9 32.32ZM230.9 30.34C231.46 30.34 231.98 30.2067 232.46 29.94C232.94 29.66 233.327 29.2667 233.62 28.76C233.927 28.24 234.08 27.62 234.08 26.9C234.08 26.18 233.927 25.5667 233.62 25.06C233.327 24.54 232.94 24.1467 232.46 23.88C231.98 23.6 231.46 23.46 230.9 23.46C230.34 23.46 229.813 23.6 229.32 23.88C228.84 24.1467 228.447 24.54 228.14 25.06C227.847 25.5667 227.7 26.18 227.7 26.9C227.7 27.62 227.847 28.24 228.14 28.76C228.447 29.2667 228.84 29.66 229.32 29.94C229.813 30.2067 230.34 30.34 230.9 30.34ZM243.009 32.32C241.956 32.32 241.029 32.08 240.229 31.6C239.429 31.12 238.803 30.4733 238.349 29.66C237.896 28.8467 237.669 27.9267 237.669 26.9C237.669 25.8867 237.896 24.9733 238.349 24.16C238.803 23.3333 239.429 22.68 240.229 22.2C241.029 21.72 241.956 21.48 243.009 21.48C244.049 21.48 244.969 21.72 245.769 22.2C246.569 22.68 247.196 23.3333 247.649 24.16C248.103 24.9733 248.329 25.8867 248.329 26.9C248.329 27.9267 248.103 28.8467 247.649 29.66C247.196 30.4733 246.569 31.12 245.769 31.6C244.969 32.08 244.049 32.32 243.009 32.32ZM243.009 30.34C243.569 30.34 244.089 30.2067 244.569 29.94C245.049 29.66 245.436 29.2667 245.729 28.76C246.036 28.24 246.189 27.62 246.189 26.9C246.189 26.18 246.036 25.5667 245.729 25.06C245.436 24.54 245.049 24.1467 244.569 23.88C244.089 23.6 243.569 23.46 243.009 23.46C242.449 23.46 241.923 23.6 241.429 23.88C240.949 24.1467 240.556 24.54 240.249 25.06C239.956 25.5667 239.809 26.18 239.809 26.9C239.809 27.62 239.956 28.24 240.249 28.76C240.556 29.2667 240.949 29.66 241.429 29.94C241.923 30.2067 242.449 30.34 243.009 30.34ZM254.919 36.64C254.025 36.64 253.252 36.4933 252.599 36.2C251.959 35.92 251.439 35.5533 251.039 35.1C250.639 34.66 250.352 34.2067 250.179 33.74L252.179 32.9C252.392 33.4333 252.732 33.8667 253.199 34.2C253.679 34.5467 254.252 34.72 254.919 34.72C255.852 34.72 256.585 34.44 257.119 33.88C257.665 33.32 257.939 32.5267 257.939 31.5V30.52H257.819C257.499 31 257.052 31.3867 256.479 31.68C255.919 31.96 255.279 32.1 254.559 32.1C253.692 32.1 252.899 31.88 252.179 31.44C251.459 31 250.879 30.3867 250.439 29.6C249.999 28.8 249.779 27.8667 249.779 26.8C249.779 25.72 249.999 24.7867 250.439 24C250.879 23.2 251.459 22.58 252.179 22.14C252.899 21.7 253.692 21.48 254.559 21.48C255.279 21.48 255.919 21.6267 256.479 21.92C257.052 22.2133 257.499 22.6 257.819 23.08H257.939V21.8H259.999V31.46C259.999 32.5667 259.779 33.5067 259.339 34.28C258.912 35.0533 258.319 35.64 257.559 36.04C256.799 36.44 255.919 36.64 254.919 36.64ZM254.939 30.14C255.472 30.14 255.965 30.0133 256.419 29.76C256.872 29.4933 257.239 29.1133 257.519 28.62C257.799 28.1133 257.939 27.5067 257.939 26.8C257.939 26.0667 257.799 25.4533 257.519 24.96C257.239 24.4533 256.872 24.0733 256.419 23.82C255.965 23.5667 255.472 23.44 254.939 23.44C254.405 23.44 253.905 23.5733 253.439 23.84C252.985 24.0933 252.619 24.4667 252.339 24.96C252.059 25.4533 251.919 26.0667 251.919 26.8C251.919 27.52 252.059 28.1333 252.339 28.64C252.619 29.1333 252.985 29.5067 253.439 29.76C253.905 30.0133 254.405 30.14 254.939 30.14ZM262.546 32V17.68H264.706V32H262.546ZM271.815 32.32C270.815 32.32 269.921 32.0867 269.135 31.62C268.348 31.1533 267.728 30.5133 267.275 29.7C266.835 28.8867 266.615 27.96 266.615 26.92C266.615 25.9467 266.828 25.0467 267.255 24.22C267.681 23.3933 268.275 22.7333 269.035 22.24C269.808 21.7333 270.695 21.48 271.695 21.48C272.748 21.48 273.641 21.7067 274.375 22.16C275.121 22.6133 275.688 23.2333 276.075 24.02C276.461 24.8067 276.655 25.6933 276.655 26.68C276.655 26.8267 276.648 26.96 276.635 27.08C276.635 27.2 276.628 27.2933 276.615 27.36H268.735C268.841 28.3733 269.195 29.1333 269.795 29.64C270.408 30.1467 271.101 30.4 271.875 30.4C272.568 30.4 273.141 30.2467 273.595 29.94C274.048 29.62 274.408 29.2267 274.675 28.76L276.455 29.62C276.015 30.42 275.415 31.0733 274.655 31.58C273.895 32.0733 272.948 32.32 271.815 32.32ZM271.715 23.32C270.995 23.32 270.381 23.54 269.875 23.98C269.368 24.42 269.028 25.0067 268.855 25.74H274.515C274.488 25.3933 274.375 25.0333 274.175 24.66C273.975 24.2867 273.668 23.9733 273.255 23.72C272.855 23.4533 272.341 23.32 271.715 23.32ZM285.446 32L281.606 17.68H284.046L286.326 26.98L286.566 28.22H286.686L286.986 26.98L289.866 17.68H292.066L294.826 26.98L295.126 28.2H295.246L295.486 26.98L297.766 17.68H300.186L296.406 32H294.086L291.346 22.5L291.026 21.16H290.906L290.566 22.5L287.706 32H285.446ZM304.202 32.32C303.469 32.32 302.816 32.18 302.242 31.9C301.669 31.6067 301.222 31.2 300.902 30.68C300.582 30.16 300.422 29.5667 300.422 28.9C300.422 28.18 300.609 27.5667 300.982 27.06C301.369 26.54 301.882 26.1467 302.522 25.88C303.162 25.6133 303.869 25.48 304.642 25.48C305.282 25.48 305.842 25.54 306.322 25.66C306.816 25.78 307.189 25.9067 307.442 26.04V25.5C307.442 24.8333 307.202 24.3 306.722 23.9C306.242 23.5 305.622 23.3 304.862 23.3C304.342 23.3 303.849 23.42 303.382 23.66C302.916 23.8867 302.542 24.2 302.262 24.6L300.782 23.46C301.222 22.8467 301.802 22.3667 302.522 22.02C303.256 21.66 304.056 21.48 304.922 21.48C306.402 21.48 307.542 21.8467 308.342 22.58C309.142 23.3 309.542 24.3133 309.542 25.62V32H307.442V30.74H307.322C307.056 31.1533 306.656 31.52 306.122 31.84C305.589 32.16 304.949 32.32 304.202 32.32ZM304.582 30.56C305.142 30.56 305.636 30.4267 306.062 30.16C306.489 29.8933 306.822 29.5467 307.062 29.12C307.316 28.68 307.442 28.2067 307.442 27.7C307.136 27.5267 306.776 27.3867 306.362 27.28C305.949 27.16 305.509 27.1 305.042 27.1C304.162 27.1 303.536 27.28 303.162 27.64C302.789 27.9867 302.602 28.4133 302.602 28.92C302.602 29.4 302.782 29.7933 303.142 30.1C303.502 30.4067 303.982 30.56 304.582 30.56ZM311.94 32V17.68H314.1V32H311.94ZM316.667 32V17.68H318.827V32H316.667ZM325.936 32.32C324.936 32.32 324.042 32.0867 323.256 31.62C322.469 31.1533 321.849 30.5133 321.396 29.7C320.956 28.8867 320.736 27.96 320.736 26.92C320.736 25.9467 320.949 25.0467 321.376 24.22C321.802 23.3933 322.396 22.7333 323.156 22.24C323.929 21.7333 324.816 21.48 325.816 21.48C326.869 21.48 327.762 21.7067 328.496 22.16C329.242 22.6133 329.809 23.2333 330.196 24.02C330.582 24.8067 330.776 25.6933 330.776 26.68C330.776 26.8267 330.769 26.96 330.756 27.08C330.756 27.2 330.749 27.2933 330.736 27.36H322.856C322.962 28.3733 323.316 29.1333 323.916 29.64C324.529 30.1467 325.222 30.4 325.996 30.4C326.689 30.4 327.262 30.2467 327.716 29.94C328.169 29.62 328.529 29.2267 328.796 28.76L330.576 29.62C330.136 30.42 329.536 31.0733 328.776 31.58C328.016 32.0733 327.069 32.32 325.936 32.32ZM325.836 23.32C325.116 23.32 324.502 23.54 323.996 23.98C323.489 24.42 323.149 25.0067 322.976 25.74H328.636C328.609 25.3933 328.496 25.0333 328.296 24.66C328.096 24.2867 327.789 23.9733 327.376 23.72C326.976 23.4533 326.462 23.32 325.836 23.32ZM333.567 29.04V23.68H331.787V21.8H333.567V18.92H335.727V21.8H338.227V23.68H335.727V28.58C335.727 29.0867 335.827 29.4733 336.027 29.74C336.24 30.0067 336.593 30.14 337.087 30.14C337.34 30.14 337.553 30.1067 337.727 30.04C337.913 29.9733 338.1 29.88 338.287 29.76V31.86C338.06 31.9533 337.82 32.0267 337.567 32.08C337.313 32.1333 337.013 32.16 336.667 32.16C335.72 32.16 334.967 31.8867 334.407 31.34C333.847 30.78 333.567 30.0133 333.567 29.04Z" fill="white"/>
<rect x="0.5" y="0.5" width="360" height="49" rx="24.5" stroke="#747775"/>
<defs>
<linearGradient id="paint0_linear_1819_24101" x1="34.5703" y1="30.7864" x2="18.7309" y2="48.9133" gradientUnits="userSpaceOnUse">
<stop stop-color="#4285F4"/>
<stop offset="1" stop-color="#1B74E8"/>
</linearGradient>
</defs>
</svg>
