<svg width="399" height="50" viewBox="0 0 399 50" fill="none" xmlns="http://www.w3.org/2000/svg">
<rect x="0.5" y="0.5" width="398" height="49" rx="24.5" fill="#1F1F1F"/>
<rect x="0.5" y="0.5" width="398" height="49" rx="24.5" stroke="#747775"/>
<path d="M51 22H21V17C21 14.2857 23.2018 12 25.8165 12H46.1835C48.7982 12 51 14.2857 51 17V22Z" fill="#34A853"/>
<path d="M51 26.0537H21V21.0537C21 18.3394 23.2018 16.0537 25.8165 16.0537H46.1835C48.7982 16.0537 51 18.3394 51 21.0537V26.0537Z" fill="#FBBC04"/>
<path d="M51 30.2471H21V25.2471C21 22.5328 23.2018 20.2471 25.8165 20.2471H46.1835C48.7982 20.2471 51 22.5328 51 25.2471V30.2471Z" fill="#EA4335"/>
<path d="M21 23.2752L40.0411 27.6789C42.2329 28.2294 44.6986 27.6789 46.4795 26.3028L51 23V33.3211C51 35.9358 48.8082 38 46.2055 38H25.7945C23.1918 38 21 35.9358 21 33.3211V23.2752Z" fill="#4285F4"/>
<path d="M71.4 32.32C70.3733 32.32 69.4067 32.1333 68.5 31.76C67.5933 31.3867 66.7933 30.8667 66.1 30.2C65.42 29.52 64.88 28.7267 64.48 27.82C64.0933 26.9 63.9 25.9067 63.9 24.84C63.9 23.7733 64.0933 22.7867 64.48 21.88C64.88 20.96 65.42 20.1667 66.1 19.5C66.7933 18.82 67.5933 18.2933 68.5 17.92C69.4067 17.5467 70.3733 17.36 71.4 17.36C72.4933 17.36 73.5 17.5533 74.42 17.94C75.3533 18.3267 76.1333 18.8667 76.76 19.56L75.24 21.06C74.9333 20.7133 74.58 20.42 74.18 20.18C73.7933 19.94 73.3667 19.76 72.9 19.64C72.4333 19.5067 71.9333 19.44 71.4 19.44C70.6933 19.44 70.02 19.5667 69.38 19.82C68.74 20.0733 68.1733 20.44 67.68 20.92C67.2 21.3867 66.82 21.9533 66.54 22.62C66.26 23.2733 66.12 24.0133 66.12 24.84C66.12 25.6667 66.26 26.4133 66.54 27.08C66.8333 27.7333 67.22 28.3 67.7 28.78C68.1933 29.2467 68.76 29.6067 69.4 29.86C70.04 30.1133 70.7133 30.24 71.42 30.24C72.0733 30.24 72.68 30.1467 73.24 29.96C73.8133 29.7733 74.3133 29.5067 74.74 29.16C75.1667 28.8133 75.5133 28.3933 75.78 27.9C76.0467 27.3933 76.2133 26.8267 76.28 26.2H71.38V24.26H78.34C78.3667 24.42 78.3933 24.6067 78.42 24.82C78.4467 25.02 78.46 25.2133 78.46 25.4V25.42C78.46 26.4467 78.28 27.3867 77.92 28.24C77.5733 29.0933 77.0867 29.8267 76.46 30.44C75.8333 31.04 75.0867 31.5067 74.22 31.84C73.3667 32.16 72.4267 32.32 71.4 32.32ZM84.8998 32.32C83.8465 32.32 82.9198 32.08 82.1198 31.6C81.3198 31.12 80.6932 30.4733 80.2398 29.66C79.7865 28.8333 79.5598 27.9133 79.5598 26.9C79.5598 25.8867 79.7865 24.9733 80.2398 24.16C80.6932 23.3333 81.3198 22.68 82.1198 22.2C82.9198 21.72 83.8465 21.48 84.8998 21.48C85.9398 21.48 86.8598 21.7267 87.6598 22.22C88.4598 22.7 89.0865 23.3467 89.5398 24.16C89.9932 24.9733 90.2198 25.8867 90.2198 26.9C90.2198 27.9133 89.9932 28.8333 89.5398 29.66C89.0865 30.4733 88.4598 31.12 87.6598 31.6C86.8598 32.08 85.9398 32.32 84.8998 32.32ZM84.8998 30.34C85.4598 30.34 85.9798 30.2067 86.4598 29.94C86.9398 29.66 87.3265 29.2667 87.6198 28.76C87.9265 28.24 88.0798 27.62 88.0798 26.9C88.0798 26.18 87.9265 25.5667 87.6198 25.06C87.3265 24.54 86.9398 24.1467 86.4598 23.88C85.9798 23.6 85.4598 23.46 84.8998 23.46C84.3398 23.46 83.8132 23.6 83.3198 23.88C82.8398 24.1467 82.4465 24.54 82.1398 25.06C81.8465 25.5667 81.6998 26.18 81.6998 26.9C81.6998 27.62 81.8465 28.24 82.1398 28.76C82.4465 29.2667 82.8465 29.66 83.3398 29.94C83.8332 30.2067 84.3532 30.34 84.8998 30.34ZM97.0092 32.32C95.9559 32.32 95.0292 32.08 94.2292 31.6C93.4292 31.12 92.8026 30.4733 92.3492 29.66C91.8959 28.8333 91.6692 27.9133 91.6692 26.9C91.6692 25.8867 91.8959 24.9733 92.3492 24.16C92.8026 23.3333 93.4292 22.68 94.2292 22.2C95.0292 21.72 95.9559 21.48 97.0092 21.48C98.0492 21.48 98.9692 21.7267 99.7692 22.22C100.569 22.7 101.196 23.3467 101.649 24.16C102.103 24.9733 102.329 25.8867 102.329 26.9C102.329 27.9133 102.103 28.8333 101.649 29.66C101.196 30.4733 100.569 31.12 99.7692 31.6C98.9692 32.08 98.0492 32.32 97.0092 32.32ZM97.0092 30.34C97.5692 30.34 98.0892 30.2067 98.5692 29.94C99.0492 29.66 99.4359 29.2667 99.7292 28.76C100.036 28.24 100.189 27.62 100.189 26.9C100.189 26.18 100.036 25.5667 99.7292 25.06C99.4359 24.54 99.0492 24.1467 98.5692 23.88C98.0892 23.6 97.5692 23.46 97.0092 23.46C96.4492 23.46 95.9226 23.6 95.4292 23.88C94.9492 24.1467 94.5559 24.54 94.2492 25.06C93.9559 25.5667 93.8092 26.18 93.8092 26.9C93.8092 27.62 93.9559 28.24 94.2492 28.76C94.5559 29.2667 94.9559 29.66 95.4492 29.94C95.9426 30.2067 96.4626 30.34 97.0092 30.34ZM108.919 36.64C108.025 36.64 107.252 36.4933 106.599 36.2C105.959 35.92 105.439 35.5533 105.039 35.1C104.639 34.66 104.352 34.2067 104.179 33.74L106.179 32.9C106.392 33.4333 106.732 33.8667 107.199 34.2C107.679 34.5467 108.252 34.72 108.919 34.72C109.865 34.72 110.605 34.44 111.139 33.88C111.672 33.32 111.939 32.5267 111.939 31.5V30.52H111.819C111.499 30.9867 111.059 31.3667 110.499 31.66C109.939 31.9533 109.292 32.1 108.559 32.1C107.692 32.1 106.892 31.88 106.159 31.44C105.439 31 104.859 30.3867 104.419 29.6C103.992 28.8 103.779 27.8667 103.779 26.8C103.779 25.72 103.992 24.7867 104.419 24C104.859 23.2 105.439 22.58 106.159 22.14C106.892 21.7 107.692 21.48 108.559 21.48C109.292 21.48 109.939 21.6267 110.499 21.92C111.059 22.2 111.499 22.5867 111.819 23.08H111.939V21.8H113.999V31.46C113.999 32.5667 113.779 33.5067 113.339 34.28C112.912 35.0533 112.319 35.64 111.559 36.04C110.799 36.44 109.919 36.64 108.919 36.64ZM108.939 30.14C109.472 30.14 109.965 30.0133 110.419 29.76C110.885 29.4933 111.252 29.1133 111.519 28.62C111.799 28.1133 111.939 27.5067 111.939 26.8C111.939 26.0533 111.799 25.4333 111.519 24.94C111.252 24.4467 110.885 24.0733 110.419 23.82C109.965 23.5667 109.472 23.44 108.939 23.44C108.405 23.44 107.905 23.5667 107.439 23.82C106.985 24.0733 106.619 24.4533 106.339 24.96C106.059 25.4533 105.919 26.0667 105.919 26.8C105.919 27.52 106.059 28.1333 106.339 28.64C106.619 29.1333 106.985 29.5067 107.439 29.76C107.905 30.0133 108.405 30.14 108.939 30.14ZM116.546 32V17.68H118.706V32H116.546ZM125.815 32.32C124.815 32.32 123.921 32.0867 123.135 31.62C122.348 31.1533 121.728 30.5133 121.275 29.7C120.835 28.8867 120.615 27.96 120.615 26.92C120.615 25.9467 120.828 25.0467 121.255 24.22C121.681 23.3933 122.275 22.7333 123.035 22.24C123.808 21.7333 124.695 21.48 125.695 21.48C126.748 21.48 127.641 21.7067 128.375 22.16C129.121 22.6133 129.688 23.2333 130.075 24.02C130.461 24.8067 130.655 25.6933 130.655 26.68C130.655 26.8267 130.648 26.96 130.635 27.08C130.635 27.2 130.628 27.2933 130.615 27.36H122.735C122.788 27.92 122.928 28.4067 123.155 28.82C123.448 29.34 123.835 29.7333 124.315 30C124.795 30.2667 125.315 30.4 125.875 30.4C126.555 30.4 127.121 30.2467 127.575 29.94C128.041 29.62 128.408 29.2267 128.675 28.76L130.455 29.62C130.015 30.42 129.415 31.0733 128.655 31.58C127.895 32.0733 126.948 32.32 125.815 32.32ZM122.855 25.74H128.515C128.501 25.4867 128.435 25.22 128.315 24.94C128.195 24.6467 128.021 24.38 127.795 24.14C127.568 23.9 127.281 23.7067 126.935 23.56C126.588 23.4 126.181 23.32 125.715 23.32C125.128 23.32 124.608 23.4733 124.155 23.78C123.701 24.0733 123.348 24.4867 123.095 25.02C122.988 25.2467 122.908 25.4867 122.855 25.74ZM139.446 32L135.606 17.68H138.046L140.326 26.98L140.566 28.22H140.686L140.986 26.98L143.866 17.68H146.066L148.826 26.98L149.126 28.2H149.246L149.486 26.98L151.766 17.68H154.186L150.406 32H148.086L145.346 22.5L145.026 21.16H144.906L144.566 22.5L141.706 32H139.446ZM158.202 32.32C157.469 32.32 156.816 32.1733 156.242 31.88C155.682 31.5867 155.236 31.1867 154.902 30.68C154.582 30.16 154.422 29.5667 154.422 28.9C154.422 28.1667 154.609 27.5467 154.982 27.04C155.369 26.5333 155.882 26.1467 156.522 25.88C157.162 25.6133 157.869 25.48 158.642 25.48C159.069 25.48 159.462 25.5133 159.822 25.58C160.196 25.6333 160.516 25.7 160.782 25.78C161.062 25.86 161.282 25.9467 161.442 26.04V25.5C161.442 24.8333 161.202 24.3 160.722 23.9C160.242 23.5 159.622 23.3 158.862 23.3C158.342 23.3 157.849 23.42 157.382 23.66C156.916 23.8867 156.542 24.2 156.262 24.6L154.782 23.46C155.076 23.0467 155.429 22.6933 155.842 22.4C156.269 22.1067 156.742 21.88 157.262 21.72C157.796 21.56 158.349 21.48 158.922 21.48C160.402 21.48 161.542 21.8467 162.342 22.58C163.142 23.3 163.542 24.3133 163.542 25.62V32H161.442V30.74H161.322C161.149 31.0067 160.909 31.26 160.602 31.5C160.309 31.74 159.956 31.9333 159.542 32.08C159.142 32.24 158.696 32.32 158.202 32.32ZM158.582 30.56C159.142 30.56 159.636 30.4267 160.062 30.16C160.502 29.8933 160.842 29.5467 161.082 29.12C161.322 28.68 161.442 28.2067 161.442 27.7C161.149 27.5267 160.789 27.3867 160.362 27.28C159.949 27.16 159.509 27.1 159.042 27.1C158.162 27.1 157.536 27.2733 157.162 27.62C156.789 27.9667 156.602 28.4 156.602 28.92C156.602 29.4 156.782 29.7933 157.142 30.1C157.502 30.4067 157.982 30.56 158.582 30.56ZM165.94 32V17.68H168.1V32H165.94ZM170.667 32V17.68H172.827V32H170.667ZM179.936 32.32C178.936 32.32 178.042 32.0867 177.256 31.62C176.469 31.1533 175.849 30.5133 175.396 29.7C174.956 28.8867 174.736 27.96 174.736 26.92C174.736 25.9467 174.949 25.0467 175.376 24.22C175.802 23.3933 176.396 22.7333 177.156 22.24C177.929 21.7333 178.816 21.48 179.816 21.48C180.869 21.48 181.762 21.7067 182.496 22.16C183.242 22.6133 183.809 23.2333 184.196 24.02C184.582 24.8067 184.776 25.6933 184.776 26.68C184.776 26.8267 184.769 26.96 184.756 27.08C184.756 27.2 184.749 27.2933 184.736 27.36H176.856C176.909 27.92 177.049 28.4067 177.276 28.82C177.569 29.34 177.956 29.7333 178.436 30C178.916 30.2667 179.436 30.4 179.996 30.4C180.676 30.4 181.242 30.2467 181.696 29.94C182.162 29.62 182.529 29.2267 182.796 28.76L184.576 29.62C184.136 30.42 183.536 31.0733 182.776 31.58C182.016 32.0733 181.069 32.32 179.936 32.32ZM176.976 25.74H182.636C182.622 25.4867 182.556 25.22 182.436 24.94C182.316 24.6467 182.142 24.38 181.916 24.14C181.689 23.9 181.402 23.7067 181.056 23.56C180.709 23.4 180.302 23.32 179.836 23.32C179.249 23.32 178.729 23.4733 178.276 23.78C177.822 24.0733 177.469 24.4867 177.216 25.02C177.109 25.2467 177.029 25.4867 176.976 25.74ZM185.787 21.8H187.567V18.92H189.727V21.8H192.227V23.68H189.727V28.58C189.727 29.0867 189.827 29.4733 190.027 29.74C190.24 30.0067 190.593 30.14 191.087 30.14C191.327 30.14 191.54 30.1067 191.727 30.04C191.913 29.96 192.1 29.8667 192.287 29.76V31.86C192.06 31.9533 191.82 32.0267 191.567 32.08C191.313 32.1333 191.013 32.16 190.667 32.16C189.72 32.16 188.967 31.8867 188.407 31.34C187.847 30.78 187.567 30.0133 187.567 29.04V23.68H185.787V21.8Z" fill="white"/>
<path d="M205.84 33.22C204.68 33.22 203.707 33.06 202.92 32.74C202.133 32.42 201.5 31.9933 201.02 31.46C200.553 30.9133 200.213 30.3067 200 29.64C199.787 28.9733 199.68 28.2933 199.68 27.6C199.68 26.4533 199.947 25.4533 200.48 24.6C201.027 23.7333 201.787 23.0667 202.76 22.6C203.747 22.12 204.907 21.88 206.24 21.88C207.227 21.88 208.107 21.9467 208.88 22.08C209.653 22.2133 210.413 22.4267 211.16 22.72L210.62 24.22C209.86 23.9133 209.14 23.7067 208.46 23.6C207.793 23.4933 207.053 23.44 206.24 23.44C205.333 23.44 204.507 23.58 203.76 23.86C203.027 24.14 202.44 24.5867 202 25.2C201.56 25.8133 201.34 26.6133 201.34 27.6C201.34 28.2667 201.48 28.9067 201.76 29.52C202.053 30.12 202.527 30.6067 203.18 30.98C203.833 31.3533 204.72 31.54 205.84 31.54C206.8 31.54 207.56 31.4267 208.12 31.2C208.68 30.96 209.08 30.64 209.32 30.24C209.573 29.84 209.7 29.3933 209.7 28.9C209.7 28.4733 209.593 28.06 209.38 27.66C209.18 27.26 208.78 26.96 208.18 26.76C208.26 26.9333 208.313 27.1133 208.34 27.3C208.38 27.4733 208.4 27.64 208.4 27.8C208.4 28.6 208.167 29.1667 207.7 29.5C207.233 29.82 206.647 29.98 205.94 29.98C205.207 29.98 204.593 29.78 204.1 29.38C203.607 28.9667 203.36 28.3667 203.36 27.58C203.36 26.8067 203.66 26.2067 204.26 25.78C204.86 25.34 205.647 25.12 206.62 25.12C207.687 25.12 208.567 25.2933 209.26 25.64C209.953 25.9867 210.467 26.4467 210.8 27.02C211.147 27.5933 211.32 28.2333 211.32 28.94C211.32 29.7533 211.133 30.4867 210.76 31.14C210.387 31.78 209.8 32.2867 209 32.66C208.2 33.0333 207.147 33.22 205.84 33.22ZM204.96 27.6C204.96 27.8267 205.033 28.0333 205.18 28.22C205.327 28.4067 205.573 28.5 205.92 28.5C206.24 28.5 206.473 28.42 206.62 28.26C206.78 28.0867 206.86 27.8533 206.86 27.56C206.86 27.4133 206.84 27.2533 206.8 27.08C206.773 26.8933 206.713 26.72 206.62 26.56H206.52C206 26.56 205.607 26.6533 205.34 26.84C205.087 27.0267 204.96 27.28 204.96 27.6ZM219.131 33.22C217.064 33.22 215.451 32.7533 214.291 31.82C213.144 30.8867 212.571 29.62 212.571 28.02C212.571 27.3933 212.684 26.82 212.911 26.3C213.151 25.7667 213.511 25.32 213.991 24.96C214.444 24.6133 215.038 24.3533 215.771 24.18C216.504 23.9933 217.444 23.9 218.591 23.9H219.431C219.404 23.3667 219.238 22.96 218.931 22.68C218.638 22.4 218.244 22.26 217.751 22.26C216.831 22.26 216.371 22.62 216.371 23.34C216.371 23.4067 216.371 23.4667 216.371 23.52C216.384 23.5733 216.398 23.6333 216.411 23.7L214.771 23.92C214.758 23.8133 214.738 23.6867 214.711 23.54C214.698 23.3933 214.691 23.2467 214.691 23.1C214.691 22.3267 214.951 21.7467 215.471 21.36C215.991 20.96 216.704 20.76 217.611 20.76C218.744 20.76 219.604 21.0933 220.191 21.76C220.791 22.4267 221.091 23.3867 221.091 24.64V25.4H218.611C217.624 25.4 216.871 25.4667 216.351 25.6C215.831 25.72 215.411 25.9 215.091 26.14C214.784 26.38 214.564 26.6667 214.431 27C214.311 27.32 214.251 27.6733 214.251 28.06C214.251 29.1 214.664 29.92 215.491 30.52C216.331 31.12 217.531 31.42 219.091 31.42C220.371 31.42 221.444 31.2267 222.311 30.84C223.191 30.4533 223.891 29.94 224.411 29.3C224.931 28.6467 225.304 27.92 225.531 27.12C225.758 26.32 225.871 25.5067 225.871 24.68C225.871 23.3733 225.678 22.2867 225.291 21.42C224.904 20.5533 224.391 19.86 223.751 19.34C223.111 18.82 222.404 18.4533 221.631 18.24C220.858 18.0133 220.084 17.9 219.311 17.9C218.164 17.9 217.118 18.0467 216.171 18.34C215.224 18.6333 214.338 19.02 213.511 19.5L212.771 18C213.731 17.4667 214.758 17.0467 215.851 16.74C216.944 16.4333 218.138 16.28 219.431 16.28C220.498 16.28 221.518 16.44 222.491 16.76C223.478 17.0667 224.351 17.56 225.111 18.24C225.884 18.9067 226.491 19.7733 226.931 20.84C227.371 21.9067 227.591 23.1867 227.591 24.68C227.591 25.8533 227.431 26.9533 227.111 27.98C226.804 29.0067 226.311 29.9133 225.631 30.7C224.964 31.4867 224.091 32.1067 223.011 32.56C221.944 33 220.651 33.22 219.131 33.22ZM235.877 33.22C234.944 33.22 234.097 33.08 233.337 32.8C232.59 32.52 231.99 32.08 231.537 31.48C231.097 30.8667 230.877 30.0733 230.877 29.1V29.04L230.197 30.2L228.717 29.36C229.477 28.3067 230.217 27.3267 230.937 26.42C231.657 25.5133 232.377 24.7067 233.097 24C232.99 23.6 232.824 23.28 232.597 23.04C232.384 22.7867 232.097 22.66 231.737 22.66C230.977 22.66 230.597 23.0733 230.597 23.9C230.597 24.0867 230.617 24.2667 230.657 24.44C230.697 24.6133 230.744 24.7867 230.797 24.96L229.157 25.28C229.077 25.0133 229.01 24.7467 228.957 24.48C228.917 24.2133 228.897 23.9533 228.897 23.7C228.897 22.8867 229.15 22.26 229.657 21.82C230.164 21.38 230.844 21.16 231.697 21.16C232.39 21.16 232.95 21.3267 233.377 21.66C233.804 21.9933 234.13 22.4067 234.357 22.9C235.224 22.2067 236.137 21.68 237.097 21.32C238.057 20.9467 239.09 20.76 240.197 20.76C241.624 20.76 242.83 21.0333 243.817 21.58C244.804 22.1267 245.544 22.8933 246.037 23.88C246.544 24.8533 246.797 25.9867 246.797 27.28C246.797 28.5333 246.57 29.5933 246.117 30.46C245.677 31.3133 245.07 31.96 244.297 32.4C243.524 32.84 242.664 33.06 241.717 33.06C241.557 33.06 241.404 33.0533 241.257 33.04C241.11 33.04 240.97 33.0333 240.837 33.02L240.917 31.42C241.13 31.4467 241.33 31.46 241.517 31.46C242.384 31.46 243.077 31.2733 243.597 30.9C244.117 30.5267 244.49 30.02 244.717 29.38C244.957 28.74 245.077 28.0267 245.077 27.24C245.077 25.6667 244.624 24.48 243.717 23.68C242.824 22.8667 241.624 22.46 240.117 22.46C239.077 22.46 238.137 22.6267 237.297 22.96C236.457 23.2933 235.69 23.7267 234.997 24.26C235.237 24.2067 235.504 24.16 235.797 24.12C236.09 24.0667 236.39 24.04 236.697 24.04C238.257 24.04 239.43 24.4333 240.217 25.22C241.017 26.0067 241.417 27.0733 241.417 28.42C241.417 28.9933 241.337 29.5667 241.177 30.14C241.017 30.7 240.737 31.2133 240.337 31.68C239.937 32.1467 239.37 32.52 238.637 32.8C237.917 33.08 236.997 33.22 235.877 33.22ZM232.397 28.82C232.397 29.7267 232.704 30.3933 233.317 30.82C233.944 31.2333 234.81 31.44 235.917 31.44C237.277 31.44 238.25 31.1667 238.837 30.62C239.437 30.0733 239.737 29.3333 239.737 28.4C239.737 27.4133 239.424 26.6933 238.797 26.24C238.17 25.7867 237.324 25.56 236.257 25.56C235.684 25.56 235.164 25.5933 234.697 25.66C234.244 25.7267 233.784 25.8467 233.317 26.02C233.05 26.3267 232.784 26.64 232.517 26.96C232.264 27.2667 232.017 27.58 231.777 27.9L232.497 27.94C232.43 28.2067 232.397 28.5 232.397 28.82ZM264.856 33.22C263.469 33.22 262.309 33.02 261.376 32.62C260.443 32.2067 259.736 31.64 259.256 30.92C258.789 30.2 258.556 29.3733 258.556 28.44C258.556 27.0533 259.096 26.02 260.176 25.34C259.869 25.3667 259.569 25.3867 259.276 25.4C258.996 25.4 258.756 25.4 258.556 25.4H258.076V23.9H264.916C264.876 23.3667 264.709 22.96 264.416 22.68C264.123 22.4 263.729 22.26 263.236 22.26C262.316 22.26 261.856 22.5867 261.856 23.24C261.856 23.3333 261.863 23.4067 261.876 23.46L260.196 23.54C260.183 23.4733 260.169 23.3933 260.156 23.3C260.156 23.2067 260.156 23.1267 260.156 23.06C260.156 22.3 260.416 21.7267 260.936 21.34C261.469 20.9533 262.189 20.76 263.096 20.76C264.243 20.76 265.109 21.0933 265.696 21.76C266.283 22.4267 266.576 23.3867 266.576 24.64V25.4H264.796C263.769 25.4 262.989 25.46 262.456 25.58C261.936 25.7 261.489 25.9067 261.116 26.2C260.529 26.64 260.236 27.3333 260.236 28.28C260.236 29.1867 260.609 29.94 261.356 30.54C262.103 31.1267 263.269 31.42 264.856 31.42C266.136 31.42 267.209 31.2333 268.076 30.86C268.956 30.4867 269.656 29.9867 270.176 29.36C270.696 28.72 271.069 28.02 271.296 27.26C271.523 26.4867 271.636 25.7 271.636 24.9C271.636 23.66 271.396 22.56 270.916 21.6C270.636 21.8933 270.303 22.14 269.916 22.34C269.543 22.54 269.103 22.64 268.596 22.64C266.969 22.64 266.156 21.66 266.156 19.7C266.156 19.18 266.143 18.7867 266.116 18.52C266.089 18.24 266.036 18.04 265.956 17.92C265.876 17.7867 265.769 17.6867 265.636 17.62L265.576 17.6L266.216 16.18C268.509 16.9267 270.276 18.0533 271.516 19.56C272.756 21.0533 273.376 22.8533 273.376 24.96C273.376 26.08 273.216 27.14 272.896 28.14C272.589 29.1267 272.096 30.0067 271.416 30.78C270.736 31.54 269.856 32.14 268.776 32.58C267.696 33.0067 266.389 33.22 264.856 33.22ZM267.736 19.74C267.763 20.2333 267.849 20.5933 267.996 20.82C268.143 21.0333 268.409 21.14 268.796 21.14C269.303 21.14 269.729 20.88 270.076 20.36C269.743 19.96 269.356 19.6 268.916 19.28C268.489 18.96 268.016 18.6667 267.496 18.4C267.576 18.5733 267.629 18.7733 267.656 19C267.696 19.2267 267.723 19.4733 267.736 19.74ZM285.159 33.22C284.452 33.22 283.865 33.0667 283.399 32.76C282.932 32.44 282.552 32.0333 282.259 31.54C281.939 32.1 281.552 32.52 281.099 32.8C280.645 33.08 280.092 33.22 279.439 33.22C278.919 33.22 278.412 33.1067 277.919 32.88C277.439 32.6533 277.039 32.2867 276.719 31.78C276.412 31.26 276.259 30.5733 276.259 29.72C276.259 29.6933 276.259 29.68 276.259 29.68L275.959 30.2L274.479 29.36C275.372 28.1333 276.165 27.1067 276.859 26.28C277.565 25.44 278.245 24.7133 278.899 24.1C278.779 23.6733 278.605 23.3267 278.379 23.06C278.165 22.7933 277.872 22.66 277.499 22.66C276.739 22.66 276.359 23.0733 276.359 23.9C276.359 24.0867 276.379 24.2667 276.419 24.44C276.459 24.6133 276.505 24.7867 276.559 24.96L274.919 25.28C274.839 25.0133 274.772 24.7467 274.719 24.48C274.679 24.2133 274.659 23.9533 274.659 23.7C274.659 22.8867 274.912 22.26 275.419 21.82C275.925 21.38 276.605 21.16 277.459 21.16C278.179 21.16 278.752 21.34 279.179 21.7C279.619 22.0467 279.952 22.4867 280.179 23.02C280.899 22.46 281.605 22.0133 282.299 21.68C282.992 21.3467 283.712 21.1133 284.459 20.98C285.219 20.8333 286.045 20.76 286.939 20.76C288.432 20.76 289.679 21.04 290.679 21.6C291.692 22.1467 292.452 22.92 292.959 23.92C293.479 24.9067 293.739 26.06 293.739 27.38C293.739 28.5667 293.539 29.5867 293.139 30.44C292.739 31.28 292.192 31.9267 291.499 32.38C290.805 32.8333 290.005 33.06 289.099 33.06C288.979 33.06 288.839 33.0533 288.679 33.04C288.519 33.04 288.385 33.0267 288.279 33L288.359 31.42C288.439 31.4333 288.525 31.4467 288.619 31.46C288.712 31.46 288.805 31.46 288.899 31.46C289.659 31.46 290.265 31.2733 290.719 30.9C291.185 30.5267 291.519 30.0333 291.719 29.42C291.919 28.8067 292.019 28.14 292.019 27.42C292.019 25.8067 291.552 24.58 290.619 23.74C289.685 22.8867 288.405 22.46 286.779 22.46C285.485 22.46 284.352 22.6267 283.379 22.96C282.419 23.28 281.525 23.7667 280.699 24.42C280.992 24.3133 281.332 24.2267 281.719 24.16C282.105 24.08 282.532 24.04 282.999 24.04C284.745 24.04 286.112 24.4667 287.099 25.32C288.099 26.1733 288.599 27.4133 288.599 29.04C288.599 29.84 288.465 30.5533 288.199 31.18C287.945 31.8067 287.565 32.3067 287.059 32.68C286.552 33.04 285.919 33.22 285.159 33.22ZM283.019 28.74C283.019 29.5533 283.179 30.2067 283.499 30.7C283.819 31.1933 284.332 31.44 285.039 31.44C285.732 31.44 286.219 31.2133 286.499 30.76C286.779 30.3067 286.919 29.74 286.919 29.06C286.919 27.98 286.565 27.1267 285.859 26.5C285.152 25.8733 284.079 25.56 282.639 25.56C281.905 25.56 281.272 25.6 280.739 25.68C280.205 25.7467 279.665 25.86 279.119 26.02C278.785 26.4067 278.445 26.8133 278.099 27.24C277.765 27.6667 277.439 28.1067 277.119 28.56H277.779C277.752 28.64 277.739 28.7267 277.739 28.82C277.739 28.9 277.739 28.9733 277.739 29.04C277.739 29.7867 277.872 30.3733 278.139 30.8C278.419 31.2267 278.899 31.44 279.579 31.44C280.192 31.44 280.665 31.22 280.999 30.78C281.332 30.34 281.499 29.6533 281.499 28.72V28.56H283.019V28.74ZM290.079 22.54V16.68C290.079 16.3867 290.065 16.1533 290.039 15.98C290.012 15.7933 289.965 15.64 289.899 15.52C289.739 15.2267 289.459 15.0067 289.059 14.86L289.659 13.5C290.339 13.6867 290.779 14.0133 290.979 14.48C291.125 14.1867 291.332 13.9533 291.599 13.78C291.879 13.5933 292.219 13.5 292.619 13.5C293.152 13.5 293.585 13.6667 293.919 14C294.265 14.32 294.439 14.7933 294.439 15.42C294.439 16.06 294.252 16.5533 293.879 16.9C293.505 17.2467 292.959 17.42 292.239 17.42C292.025 17.42 291.819 17.4067 291.619 17.38V22.54H290.079ZM291.619 15.86V16.14C291.792 16.1667 291.965 16.18 292.139 16.18C292.819 16.18 293.159 15.9267 293.159 15.42C293.159 15.1933 293.092 15.0267 292.959 14.92C292.825 14.8 292.665 14.74 292.479 14.74C292.132 14.74 291.899 14.84 291.779 15.04C291.672 15.24 291.619 15.5133 291.619 15.86ZM315.53 33.22C314.823 33.22 314.236 33.0667 313.77 32.76C313.303 32.44 312.923 32.0333 312.63 31.54C312.31 32.1 311.923 32.52 311.47 32.8C311.016 33.08 310.463 33.22 309.81 33.22C309.29 33.22 308.783 33.1067 308.29 32.88C307.81 32.6533 307.41 32.2867 307.09 31.78C306.783 31.26 306.63 30.5733 306.63 29.72C306.63 29.6933 306.63 29.68 306.63 29.68L306.33 30.2L304.85 29.36C305.743 28.1333 306.536 27.1067 307.23 26.28C307.936 25.44 308.616 24.7133 309.27 24.1C309.15 23.6733 308.976 23.3267 308.75 23.06C308.536 22.7933 308.243 22.66 307.87 22.66C307.11 22.66 306.73 23.0733 306.73 23.9C306.73 24.0867 306.75 24.2667 306.79 24.44C306.83 24.6133 306.876 24.7867 306.93 24.96L305.29 25.28C305.21 25.0133 305.143 24.7467 305.09 24.48C305.05 24.2133 305.03 23.9533 305.03 23.7C305.03 22.8867 305.283 22.26 305.79 21.82C306.296 21.38 306.976 21.16 307.83 21.16C308.55 21.16 309.123 21.34 309.55 21.7C309.99 22.0467 310.323 22.4867 310.55 23.02C311.27 22.46 311.976 22.0133 312.67 21.68C313.363 21.3467 314.083 21.1133 314.83 20.98C315.59 20.8333 316.416 20.76 317.31 20.76C318.803 20.76 320.05 21.04 321.05 21.6C322.063 22.1467 322.823 22.92 323.33 23.92C323.85 24.9067 324.11 26.06 324.11 27.38C324.11 28.5667 323.91 29.5867 323.51 30.44C323.11 31.28 322.563 31.9267 321.87 32.38C321.176 32.8333 320.376 33.06 319.47 33.06C319.35 33.06 319.21 33.0533 319.05 33.04C318.89 33.04 318.756 33.0267 318.65 33L318.73 31.42C318.81 31.4333 318.896 31.4467 318.99 31.46C319.083 31.46 319.176 31.46 319.27 31.46C320.03 31.46 320.636 31.2733 321.09 30.9C321.556 30.5267 321.89 30.0333 322.09 29.42C322.29 28.8067 322.39 28.14 322.39 27.42C322.39 25.8067 321.923 24.58 320.99 23.74C320.056 22.8867 318.776 22.46 317.15 22.46C315.856 22.46 314.723 22.6267 313.75 22.96C312.79 23.28 311.896 23.7667 311.07 24.42C311.363 24.3133 311.703 24.2267 312.09 24.16C312.476 24.08 312.903 24.04 313.37 24.04C315.116 24.04 316.483 24.4667 317.47 25.32C318.47 26.1733 318.97 27.4133 318.97 29.04C318.97 29.84 318.836 30.5533 318.57 31.18C318.316 31.8067 317.936 32.3067 317.43 32.68C316.923 33.04 316.29 33.22 315.53 33.22ZM313.39 28.74C313.39 29.5533 313.55 30.2067 313.87 30.7C314.19 31.1933 314.703 31.44 315.41 31.44C316.103 31.44 316.59 31.2133 316.87 30.76C317.15 30.3067 317.29 29.74 317.29 29.06C317.29 27.98 316.936 27.1267 316.23 26.5C315.523 25.8733 314.45 25.56 313.01 25.56C312.276 25.56 311.643 25.6 311.11 25.68C310.576 25.7467 310.036 25.86 309.49 26.02C309.156 26.4067 308.816 26.8133 308.47 27.24C308.136 27.6667 307.81 28.1067 307.49 28.56H308.15C308.123 28.64 308.11 28.7267 308.11 28.82C308.11 28.9 308.11 28.9733 308.11 29.04C308.11 29.7867 308.243 30.3733 308.51 30.8C308.79 31.2267 309.27 31.44 309.95 31.44C310.563 31.44 311.036 31.22 311.37 30.78C311.703 30.34 311.87 29.6533 311.87 28.72V28.56H313.39V28.74ZM331.721 33.22C329.774 33.22 328.247 32.72 327.141 31.72C326.047 30.7067 325.501 29.2867 325.501 27.46C325.501 26.38 325.701 25.4667 326.101 24.72C326.514 23.96 327.107 23.3133 327.881 22.78C328.667 22.2333 329.627 21.7333 330.761 21.28C331.827 20.7067 332.927 20.06 334.061 19.34C335.194 18.6067 336.314 17.7867 337.421 16.88L338.541 18.16C337.594 18.9467 336.661 19.6333 335.741 20.22C334.821 20.8067 333.941 21.2933 333.101 21.68C334.114 21.76 335.007 22.0267 335.781 22.48C336.567 22.9333 337.174 23.5667 337.601 24.38C338.041 25.18 338.261 26.1533 338.261 27.3C338.261 29.2067 337.681 30.6733 336.521 31.7C335.361 32.7133 333.761 33.22 331.721 33.22ZM327.181 27.34C327.181 28.5267 327.547 29.5067 328.281 30.28C329.027 31.04 330.181 31.42 331.741 31.42C332.847 31.42 333.754 31.24 334.461 30.88C335.181 30.52 335.714 30.0267 336.061 29.4C336.407 28.7733 336.581 28.06 336.581 27.26C336.581 25.9267 336.154 24.8933 335.301 24.16C334.461 23.4133 333.314 23.04 331.861 23.04C331.141 23.04 330.461 23.1133 329.821 23.26C328.794 23.7933 328.094 24.4067 327.721 25.1C327.361 25.78 327.181 26.5267 327.181 27.34ZM346.481 33.22C345.308 33.22 344.241 33.02 343.281 32.62C342.321 32.2067 341.514 31.5467 340.861 30.64C340.208 29.7333 339.748 28.5267 339.481 27.02L341.081 26.74C341.121 26.98 341.174 27.2067 341.241 27.42C341.321 27.42 341.401 27.42 341.481 27.42C341.921 27.42 342.348 27.36 342.761 27.24C343.174 27.12 343.554 26.88 343.901 26.52C344.261 26.1467 344.568 25.6 344.821 24.88C344.754 24.2667 344.601 23.7467 344.361 23.32C344.134 22.88 343.774 22.66 343.281 22.66C342.521 22.66 342.141 23.0733 342.141 23.9C342.141 24.0867 342.161 24.2667 342.201 24.44C342.254 24.6133 342.301 24.7867 342.341 24.96L340.701 25.28C340.621 25.0133 340.554 24.7467 340.501 24.48C340.461 24.2133 340.441 23.9533 340.441 23.7C340.441 22.8867 340.694 22.26 341.201 21.82C341.708 21.38 342.394 21.16 343.261 21.16C343.981 21.16 344.541 21.3333 344.941 21.68C345.354 22.0133 345.661 22.44 345.861 22.96C346.408 22.36 347.101 21.8467 347.941 21.42C348.781 20.98 349.774 20.76 350.921 20.76C352.361 20.76 353.574 21.0333 354.561 21.58C355.561 22.1267 356.314 22.8867 356.821 23.86C357.341 24.8333 357.601 25.96 357.601 27.24C357.601 28.52 357.381 29.5933 356.941 30.46C356.501 31.3267 355.908 31.98 355.161 32.42C354.414 32.8467 353.581 33.06 352.661 33.06C352.474 33.06 352.308 33.0533 352.161 33.04C352.014 33.04 351.854 33.0333 351.681 33.02L351.761 31.42C351.841 31.4333 351.954 31.4467 352.101 31.46C352.248 31.46 352.354 31.46 352.421 31.46C353.261 31.46 353.934 31.2733 354.441 30.9C354.948 30.5267 355.314 30.0333 355.541 29.42C355.768 28.7933 355.881 28.0933 355.881 27.32C355.881 26.28 355.668 25.4 355.241 24.68C354.814 23.96 354.221 23.4133 353.461 23.04C352.701 22.6533 351.821 22.46 350.821 22.46C349.928 22.46 349.161 22.6133 348.521 22.92C347.894 23.2133 347.354 23.6 346.901 24.08C347.141 24.0533 347.381 24.04 347.621 24.04C349.128 24.04 350.274 24.4267 351.061 25.2C351.861 25.96 352.261 27.0333 352.261 28.42C352.261 28.9933 352.168 29.5667 351.981 30.14C351.794 30.7 351.481 31.2133 351.041 31.68C350.614 32.1467 350.028 32.52 349.281 32.8C348.534 33.08 347.601 33.22 346.481 33.22ZM347.181 25.56C346.848 25.56 346.541 25.5733 346.261 25.6C345.994 26.4267 345.641 27.08 345.201 27.56C344.774 28.0267 344.268 28.3667 343.681 28.58C343.108 28.78 342.481 28.8933 341.801 28.92C342.268 29.8133 342.888 30.46 343.661 30.86C344.448 31.2467 345.401 31.44 346.521 31.44C347.841 31.44 348.848 31.16 349.541 30.6C350.234 30.04 350.581 29.2733 350.581 28.3C350.581 27.38 350.281 26.6933 349.681 26.24C349.081 25.7867 348.248 25.56 347.181 25.56ZM353.941 22.54V16.68C353.941 16.3867 353.928 16.1533 353.901 15.98C353.874 15.7933 353.828 15.64 353.761 15.52C353.601 15.2267 353.321 15.0067 352.921 14.86L353.521 13.5C354.201 13.6867 354.641 14.0133 354.841 14.48C354.988 14.1867 355.194 13.9533 355.461 13.78C355.741 13.5933 356.081 13.5 356.481 13.5C357.014 13.5 357.448 13.6667 357.781 14C358.128 14.32 358.301 14.7933 358.301 15.42C358.301 16.06 358.114 16.5533 357.741 16.9C357.368 17.2467 356.821 17.42 356.101 17.42C355.888 17.42 355.681 17.4067 355.481 17.38V22.54H353.941ZM355.481 15.86V16.14C355.654 16.1667 355.828 16.18 356.001 16.18C356.681 16.18 357.021 15.9267 357.021 15.42C357.021 15.1933 356.954 15.0267 356.821 14.92C356.688 14.8 356.528 14.74 356.341 14.74C355.994 14.74 355.761 14.84 355.641 15.04C355.534 15.24 355.481 15.5133 355.481 15.86ZM365.817 33.22C364.644 33.22 363.577 33.02 362.617 32.62C361.657 32.2067 360.85 31.5467 360.197 30.64C359.544 29.7333 359.084 28.5267 358.817 27.02L360.417 26.74C360.457 26.98 360.51 27.2067 360.577 27.42C360.657 27.42 360.737 27.42 360.817 27.42C361.257 27.42 361.684 27.36 362.097 27.24C362.51 27.12 362.89 26.88 363.237 26.52C363.597 26.1467 363.904 25.6 364.157 24.88C364.09 24.2667 363.937 23.7467 363.697 23.32C363.47 22.88 363.11 22.66 362.617 22.66C361.857 22.66 361.477 23.0733 361.477 23.9C361.477 24.0867 361.497 24.2667 361.537 24.44C361.59 24.6133 361.637 24.7867 361.677 24.96L360.037 25.28C359.957 25.0133 359.89 24.7467 359.837 24.48C359.797 24.2133 359.777 23.9533 359.777 23.7C359.777 22.8867 360.03 22.26 360.537 21.82C361.044 21.38 361.73 21.16 362.597 21.16C363.317 21.16 363.877 21.3333 364.277 21.68C364.69 22.0133 364.997 22.44 365.197 22.96C365.744 22.36 366.437 21.8467 367.277 21.42C368.117 20.98 369.11 20.76 370.257 20.76C371.697 20.76 372.91 21.0333 373.897 21.58C374.897 22.1267 375.65 22.8867 376.157 23.86C376.677 24.8333 376.937 25.96 376.937 27.24C376.937 28.52 376.717 29.5933 376.277 30.46C375.837 31.3267 375.244 31.98 374.497 32.42C373.75 32.8467 372.917 33.06 371.997 33.06C371.81 33.06 371.644 33.0533 371.497 33.04C371.35 33.04 371.19 33.0333 371.017 33.02L371.097 31.42C371.177 31.4333 371.29 31.4467 371.437 31.46C371.584 31.46 371.69 31.46 371.757 31.46C372.597 31.46 373.27 31.2733 373.777 30.9C374.284 30.5267 374.65 30.0333 374.877 29.42C375.104 28.7933 375.217 28.0933 375.217 27.32C375.217 26.28 375.004 25.4 374.577 24.68C374.15 23.96 373.557 23.4133 372.797 23.04C372.037 22.6533 371.157 22.46 370.157 22.46C369.264 22.46 368.497 22.6133 367.857 22.92C367.23 23.2133 366.69 23.6 366.237 24.08C366.477 24.0533 366.717 24.04 366.957 24.04C368.464 24.04 369.61 24.4267 370.397 25.2C371.197 25.96 371.597 27.0333 371.597 28.42C371.597 28.9933 371.504 29.5667 371.317 30.14C371.13 30.7 370.817 31.2133 370.377 31.68C369.95 32.1467 369.364 32.52 368.617 32.8C367.87 33.08 366.937 33.22 365.817 33.22ZM366.517 25.56C366.184 25.56 365.877 25.5733 365.597 25.6C365.33 26.4267 364.977 27.08 364.537 27.56C364.11 28.0267 363.604 28.3667 363.017 28.58C362.444 28.78 361.817 28.8933 361.137 28.92C361.604 29.8133 362.224 30.46 362.997 30.86C363.784 31.2467 364.737 31.44 365.857 31.44C367.177 31.44 368.184 31.16 368.877 30.6C369.57 30.04 369.917 29.2733 369.917 28.3C369.917 27.38 369.617 26.6933 369.017 26.24C368.417 25.7867 367.584 25.56 366.517 25.56Z" fill="white"/>
</svg>
