<svg width="318" height="50" viewBox="0 0 318 50" fill="none" xmlns="http://www.w3.org/2000/svg">
<rect x="0.5" y="0.5" width="317" height="49" rx="24.5" fill="#1F1F1F"/>
<rect x="0.5" y="0.5" width="317" height="49" rx="24.5" stroke="#747775"/>
<path d="M51 22H21V17C21 14.2857 23.2018 12 25.8165 12H46.1835C48.7982 12 51 14.2857 51 17V22Z" fill="#34A853"/>
<path d="M51 26.0547H21V21.0547C21 18.3404 23.2018 16.0547 25.8165 16.0547H46.1835C48.7982 16.0547 51 18.3404 51 21.0547V26.0547Z" fill="#FBBC04"/>
<path d="M51 30.2461H21V25.2461C21 22.5318 23.2018 20.2461 25.8165 20.2461H46.1835C48.7982 20.2461 51 22.5318 51 25.2461V30.2461Z" fill="#EA4335"/>
<path d="M21 23.2752L40.0411 27.6789C42.2329 28.2294 44.6986 27.6789 46.4795 26.3028L51 23V33.3211C51 35.9358 48.8082 38 46.2055 38H25.7945C23.1918 38 21 35.9358 21 33.3211V23.2752Z" fill="#4285F4"/>
<path d="M71.4 32.32C70.3733 32.32 69.4067 32.1333 68.5 31.76C67.5933 31.3867 66.7933 30.8667 66.1 30.2C65.42 29.52 64.88 28.7267 64.48 27.82C64.0933 26.9 63.9 25.9067 63.9 24.84C63.9 23.7733 64.0933 22.7867 64.48 21.88C64.88 20.96 65.42 20.1667 66.1 19.5C66.7933 18.82 67.5933 18.2933 68.5 17.92C69.4067 17.5467 70.3733 17.36 71.4 17.36C72.4933 17.36 73.5 17.5533 74.42 17.94C75.3533 18.3267 76.1333 18.8667 76.76 19.56L75.24 21.06C74.9333 20.7133 74.58 20.42 74.18 20.18C73.7933 19.94 73.3667 19.76 72.9 19.64C72.4333 19.5067 71.9333 19.44 71.4 19.44C70.6933 19.44 70.02 19.5667 69.38 19.82C68.74 20.0733 68.1733 20.44 67.68 20.92C67.2 21.3867 66.82 21.9533 66.54 22.62C66.26 23.2733 66.12 24.0133 66.12 24.84C66.12 25.6667 66.26 26.4133 66.54 27.08C66.8333 27.7333 67.22 28.3 67.7 28.78C68.1933 29.2467 68.76 29.6067 69.4 29.86C70.04 30.1133 70.7133 30.24 71.42 30.24C72.0733 30.24 72.68 30.1467 73.24 29.96C73.8133 29.7733 74.3133 29.5067 74.74 29.16C75.1667 28.8133 75.5133 28.3933 75.78 27.9C76.0467 27.3933 76.2133 26.8267 76.28 26.2H71.38V24.26H78.34C78.3667 24.42 78.3933 24.6067 78.42 24.82C78.4467 25.02 78.46 25.2133 78.46 25.4V25.42C78.46 26.4467 78.28 27.3867 77.92 28.24C77.5733 29.0933 77.0867 29.8267 76.46 30.44C75.8333 31.04 75.0867 31.5067 74.22 31.84C73.3667 32.16 72.4267 32.32 71.4 32.32ZM84.8998 32.32C83.8465 32.32 82.9198 32.08 82.1198 31.6C81.3198 31.12 80.6932 30.4733 80.2398 29.66C79.7865 28.8333 79.5598 27.9133 79.5598 26.9C79.5598 25.8867 79.7865 24.9733 80.2398 24.16C80.6932 23.3333 81.3198 22.68 82.1198 22.2C82.9198 21.72 83.8465 21.48 84.8998 21.48C85.9398 21.48 86.8598 21.7267 87.6598 22.22C88.4598 22.7 89.0865 23.3467 89.5398 24.16C89.9932 24.9733 90.2198 25.8867 90.2198 26.9C90.2198 27.9133 89.9932 28.8333 89.5398 29.66C89.0865 30.4733 88.4598 31.12 87.6598 31.6C86.8598 32.08 85.9398 32.32 84.8998 32.32ZM84.8998 30.34C85.4598 30.34 85.9798 30.2067 86.4598 29.94C86.9398 29.66 87.3265 29.2667 87.6198 28.76C87.9265 28.24 88.0798 27.62 88.0798 26.9C88.0798 26.18 87.9265 25.5667 87.6198 25.06C87.3265 24.54 86.9398 24.1467 86.4598 23.88C85.9798 23.6 85.4598 23.46 84.8998 23.46C84.3398 23.46 83.8132 23.6 83.3198 23.88C82.8398 24.1467 82.4465 24.54 82.1398 25.06C81.8465 25.5667 81.6998 26.18 81.6998 26.9C81.6998 27.62 81.8465 28.24 82.1398 28.76C82.4465 29.2667 82.8465 29.66 83.3398 29.94C83.8332 30.2067 84.3532 30.34 84.8998 30.34ZM97.0092 32.32C95.9559 32.32 95.0292 32.08 94.2292 31.6C93.4292 31.12 92.8026 30.4733 92.3492 29.66C91.8959 28.8333 91.6692 27.9133 91.6692 26.9C91.6692 25.8867 91.8959 24.9733 92.3492 24.16C92.8026 23.3333 93.4292 22.68 94.2292 22.2C95.0292 21.72 95.9559 21.48 97.0092 21.48C98.0492 21.48 98.9692 21.7267 99.7692 22.22C100.569 22.7 101.196 23.3467 101.649 24.16C102.103 24.9733 102.329 25.8867 102.329 26.9C102.329 27.9133 102.103 28.8333 101.649 29.66C101.196 30.4733 100.569 31.12 99.7692 31.6C98.9692 32.08 98.0492 32.32 97.0092 32.32ZM97.0092 30.34C97.5692 30.34 98.0892 30.2067 98.5692 29.94C99.0492 29.66 99.4359 29.2667 99.7292 28.76C100.036 28.24 100.189 27.62 100.189 26.9C100.189 26.18 100.036 25.5667 99.7292 25.06C99.4359 24.54 99.0492 24.1467 98.5692 23.88C98.0892 23.6 97.5692 23.46 97.0092 23.46C96.4492 23.46 95.9226 23.6 95.4292 23.88C94.9492 24.1467 94.5559 24.54 94.2492 25.06C93.9559 25.5667 93.8092 26.18 93.8092 26.9C93.8092 27.62 93.9559 28.24 94.2492 28.76C94.5559 29.2667 94.9559 29.66 95.4492 29.94C95.9426 30.2067 96.4626 30.34 97.0092 30.34ZM108.919 36.64C108.025 36.64 107.252 36.4933 106.599 36.2C105.959 35.92 105.439 35.5533 105.039 35.1C104.639 34.66 104.352 34.2067 104.179 33.74L106.179 32.9C106.392 33.4333 106.732 33.8667 107.199 34.2C107.679 34.5467 108.252 34.72 108.919 34.72C109.865 34.72 110.605 34.44 111.139 33.88C111.672 33.32 111.939 32.5267 111.939 31.5V30.52H111.819C111.499 30.9867 111.059 31.3667 110.499 31.66C109.939 31.9533 109.292 32.1 108.559 32.1C107.692 32.1 106.892 31.88 106.159 31.44C105.439 31 104.859 30.3867 104.419 29.6C103.992 28.8 103.779 27.8667 103.779 26.8C103.779 25.72 103.992 24.7867 104.419 24C104.859 23.2 105.439 22.58 106.159 22.14C106.892 21.7 107.692 21.48 108.559 21.48C109.292 21.48 109.939 21.6267 110.499 21.92C111.059 22.2 111.499 22.5867 111.819 23.08H111.939V21.8H113.999V31.46C113.999 32.5667 113.779 33.5067 113.339 34.28C112.912 35.0533 112.319 35.64 111.559 36.04C110.799 36.44 109.919 36.64 108.919 36.64ZM108.939 30.14C109.472 30.14 109.965 30.0133 110.419 29.76C110.885 29.4933 111.252 29.1133 111.519 28.62C111.799 28.1133 111.939 27.5067 111.939 26.8C111.939 26.0533 111.799 25.4333 111.519 24.94C111.252 24.4467 110.885 24.0733 110.419 23.82C109.965 23.5667 109.472 23.44 108.939 23.44C108.405 23.44 107.905 23.5667 107.439 23.82C106.985 24.0733 106.619 24.4533 106.339 24.96C106.059 25.4533 105.919 26.0667 105.919 26.8C105.919 27.52 106.059 28.1333 106.339 28.64C106.619 29.1333 106.985 29.5067 107.439 29.76C107.905 30.0133 108.405 30.14 108.939 30.14ZM116.546 32V17.68H118.706V32H116.546ZM125.815 32.32C124.815 32.32 123.921 32.0867 123.135 31.62C122.348 31.1533 121.728 30.5133 121.275 29.7C120.835 28.8867 120.615 27.96 120.615 26.92C120.615 25.9467 120.828 25.0467 121.255 24.22C121.681 23.3933 122.275 22.7333 123.035 22.24C123.808 21.7333 124.695 21.48 125.695 21.48C126.748 21.48 127.641 21.7067 128.375 22.16C129.121 22.6133 129.688 23.2333 130.075 24.02C130.461 24.8067 130.655 25.6933 130.655 26.68C130.655 26.8267 130.648 26.96 130.635 27.08C130.635 27.2 130.628 27.2933 130.615 27.36H122.735C122.788 27.92 122.928 28.4067 123.155 28.82C123.448 29.34 123.835 29.7333 124.315 30C124.795 30.2667 125.315 30.4 125.875 30.4C126.555 30.4 127.121 30.2467 127.575 29.94C128.041 29.62 128.408 29.2267 128.675 28.76L130.455 29.62C130.015 30.42 129.415 31.0733 128.655 31.58C127.895 32.0733 126.948 32.32 125.815 32.32ZM122.855 25.74H128.515C128.501 25.4867 128.435 25.22 128.315 24.94C128.195 24.6467 128.021 24.38 127.795 24.14C127.568 23.9 127.281 23.7067 126.935 23.56C126.588 23.4 126.181 23.32 125.715 23.32C125.128 23.32 124.608 23.4733 124.155 23.78C123.701 24.0733 123.348 24.4867 123.095 25.02C122.988 25.2467 122.908 25.4867 122.855 25.74ZM139.446 32L135.606 17.68H138.046L140.326 26.98L140.566 28.22H140.686L140.986 26.98L143.866 17.68H146.066L148.826 26.98L149.126 28.2H149.246L149.486 26.98L151.766 17.68H154.186L150.406 32H148.086L145.346 22.5L145.026 21.16H144.906L144.566 22.5L141.706 32H139.446ZM158.202 32.32C157.469 32.32 156.816 32.1733 156.242 31.88C155.682 31.5867 155.236 31.1867 154.902 30.68C154.582 30.16 154.422 29.5667 154.422 28.9C154.422 28.1667 154.609 27.5467 154.982 27.04C155.369 26.5333 155.882 26.1467 156.522 25.88C157.162 25.6133 157.869 25.48 158.642 25.48C159.069 25.48 159.462 25.5133 159.822 25.58C160.196 25.6333 160.516 25.7 160.782 25.78C161.062 25.86 161.282 25.9467 161.442 26.04V25.5C161.442 24.8333 161.202 24.3 160.722 23.9C160.242 23.5 159.622 23.3 158.862 23.3C158.342 23.3 157.849 23.42 157.382 23.66C156.916 23.8867 156.542 24.2 156.262 24.6L154.782 23.46C155.076 23.0467 155.429 22.6933 155.842 22.4C156.269 22.1067 156.742 21.88 157.262 21.72C157.796 21.56 158.349 21.48 158.922 21.48C160.402 21.48 161.542 21.8467 162.342 22.58C163.142 23.3 163.542 24.3133 163.542 25.62V32H161.442V30.74H161.322C161.149 31.0067 160.909 31.26 160.602 31.5C160.309 31.74 159.956 31.9333 159.542 32.08C159.142 32.24 158.696 32.32 158.202 32.32ZM158.582 30.56C159.142 30.56 159.636 30.4267 160.062 30.16C160.502 29.8933 160.842 29.5467 161.082 29.12C161.322 28.68 161.442 28.2067 161.442 27.7C161.149 27.5267 160.789 27.3867 160.362 27.28C159.949 27.16 159.509 27.1 159.042 27.1C158.162 27.1 157.536 27.2733 157.162 27.62C156.789 27.9667 156.602 28.4 156.602 28.92C156.602 29.4 156.782 29.7933 157.142 30.1C157.502 30.4067 157.982 30.56 158.582 30.56ZM165.94 32V17.68H168.1V32H165.94ZM170.667 32V17.68H172.827V32H170.667ZM179.936 32.32C178.936 32.32 178.042 32.0867 177.256 31.62C176.469 31.1533 175.849 30.5133 175.396 29.7C174.956 28.8867 174.736 27.96 174.736 26.92C174.736 25.9467 174.949 25.0467 175.376 24.22C175.802 23.3933 176.396 22.7333 177.156 22.24C177.929 21.7333 178.816 21.48 179.816 21.48C180.869 21.48 181.762 21.7067 182.496 22.16C183.242 22.6133 183.809 23.2333 184.196 24.02C184.582 24.8067 184.776 25.6933 184.776 26.68C184.776 26.8267 184.769 26.96 184.756 27.08C184.756 27.2 184.749 27.2933 184.736 27.36H176.856C176.909 27.92 177.049 28.4067 177.276 28.82C177.569 29.34 177.956 29.7333 178.436 30C178.916 30.2667 179.436 30.4 179.996 30.4C180.676 30.4 181.242 30.2467 181.696 29.94C182.162 29.62 182.529 29.2267 182.796 28.76L184.576 29.62C184.136 30.42 183.536 31.0733 182.776 31.58C182.016 32.0733 181.069 32.32 179.936 32.32ZM176.976 25.74H182.636C182.622 25.4867 182.556 25.22 182.436 24.94C182.316 24.6467 182.142 24.38 181.916 24.14C181.689 23.9 181.402 23.7067 181.056 23.56C180.709 23.4 180.302 23.32 179.836 23.32C179.249 23.32 178.729 23.4733 178.276 23.78C177.822 24.0733 177.469 24.4867 177.216 25.02C177.109 25.2467 177.029 25.4867 176.976 25.74ZM185.787 21.8H187.567V18.92H189.727V21.8H192.227V23.68H189.727V28.58C189.727 29.0867 189.827 29.4733 190.027 29.74C190.24 30.0067 190.593 30.14 191.087 30.14C191.327 30.14 191.54 30.1067 191.727 30.04C191.913 29.96 192.1 29.8667 192.287 29.76V31.86C192.06 31.9533 191.82 32.0267 191.567 32.08C191.313 32.1333 191.013 32.16 190.667 32.16C189.72 32.16 188.967 31.8867 188.407 31.34C187.847 30.78 187.567 30.0133 187.567 29.04V23.68H185.787V21.8Z" fill="white"/>
<path d="M205.1 32.2C203.913 32.2 202.86 31.9 201.94 31.3C201.02 30.7 200.373 29.9133 200 28.94L201.4 28.22C201.76 29.0467 202.26 29.6733 202.9 30.1C203.54 30.5133 204.28 30.72 205.12 30.72C205.907 30.72 206.587 30.54 207.16 30.18C207.733 29.8067 208.173 29.3133 208.48 28.7C208.8 28.0733 208.96 27.3733 208.96 26.6C208.96 25.7867 208.8 25.08 208.48 24.48C208.16 23.88 207.713 23.4133 207.14 23.08C206.567 22.7333 205.893 22.56 205.12 22.56C204.28 22.56 203.54 22.7733 202.9 23.2C202.26 23.6133 201.76 24.2333 201.4 25.06L200 24.34C200.373 23.3533 201.02 22.5667 201.94 21.98C202.86 21.38 203.907 21.08 205.08 21.08C206.253 21.08 207.26 21.32 208.1 21.8C208.953 22.28 209.613 22.9333 210.08 23.76C210.547 24.5733 210.78 25.5 210.78 26.54C210.78 27.0733 210.72 27.5867 210.6 28.08C211.067 28.8267 211.627 29.4533 212.28 29.96C212.933 30.4533 213.747 30.7 214.72 30.7C215.52 30.7 216.213 30.5267 216.8 30.18C217.387 29.8333 217.833 29.3533 218.14 28.74C218.46 28.1133 218.62 27.4 218.62 26.6C218.62 25.3733 218.273 24.3933 217.58 23.66C216.887 22.9267 215.96 22.56 214.8 22.56C214.013 22.56 213.347 22.68 212.8 22.92L212.16 21.6C212.547 21.4133 212.973 21.28 213.44 21.2C213.907 21.12 214.453 21.08 215.08 21.08C216.12 21.08 217.04 21.3133 217.84 21.78C218.653 22.2333 219.287 22.8733 219.74 23.7C220.207 24.5267 220.44 25.5067 220.44 26.64C220.44 27.7333 220.193 28.7 219.7 29.54C219.207 30.3667 218.527 31.02 217.66 31.5C216.793 31.9667 215.793 32.2 214.66 32.2C213.647 32.2 212.727 32 211.9 31.6C211.073 31.2 210.387 30.6067 209.84 29.82C209.387 30.5267 208.76 31.1 207.96 31.54C207.16 31.98 206.207 32.2 205.1 32.2ZM215.009 19.48C214.289 19.48 213.656 19.3133 213.109 18.98C212.562 18.6467 212.142 18.2 211.849 17.64C211.542 17.0667 211.389 16.4267 211.389 15.72C211.389 15.0267 211.542 14.4 211.849 13.84C212.142 13.2667 212.562 12.8133 213.109 12.48C213.656 12.1333 214.302 11.96 215.049 11.96C215.809 11.96 216.469 12.1333 217.029 12.48C217.576 12.8267 217.996 13.2933 218.289 13.88C218.582 14.4533 218.729 15.0933 218.729 15.8C218.729 16.4933 218.576 17.12 218.269 17.68C217.962 18.2267 217.536 18.6667 216.989 19C216.429 19.32 215.769 19.48 215.009 19.48ZM215.069 18.14C215.669 18.14 216.162 17.92 216.549 17.48C216.936 17.04 217.129 16.4933 217.129 15.84C217.129 15.12 216.949 14.52 216.589 14.04C216.216 13.5467 215.709 13.3 215.069 13.3C214.416 13.3 213.909 13.5333 213.549 14C213.176 14.4667 212.989 15.0533 212.989 15.76C212.989 16.44 213.176 17.0067 213.549 17.46C213.922 17.9133 214.429 18.14 215.069 18.14ZM218.873 38.44C218.22 38.44 217.693 38.2533 217.293 37.88C216.893 37.52 216.693 37 216.693 36.32C216.693 35.6533 216.893 35.1333 217.293 34.76C217.693 34.3867 218.22 34.2 218.873 34.2C219.513 34.2 220.04 34.3867 220.453 34.76C220.88 35.1333 221.093 35.6467 221.093 36.3C221.093 36.98 220.88 37.5067 220.453 37.88C220.04 38.2533 219.513 38.44 218.873 38.44ZM218.893 37.38C219.2 37.38 219.453 37.2867 219.653 37.1C219.853 36.9133 219.953 36.6533 219.953 36.32C219.953 35.9867 219.853 35.7267 219.653 35.54C219.453 35.3533 219.2 35.26 218.893 35.26C218.586 35.26 218.333 35.3533 218.133 35.54C217.933 35.7267 217.833 35.9867 217.833 36.32C217.833 37.0267 218.186 37.38 218.893 37.38ZM213.793 41.34V32.98H215.573V39.98H218.073V41.34H213.793ZM233.314 32.2C232.221 32.2 231.261 31.96 230.434 31.48C229.608 30.9867 228.968 30.32 228.514 29.48C228.061 28.64 227.834 27.6933 227.834 26.64C227.834 25.5867 228.061 24.64 228.514 23.8C228.981 22.96 229.628 22.3 230.454 21.82C231.294 21.3267 232.268 21.08 233.374 21.08C234.361 21.08 235.228 21.2733 235.974 21.66C236.734 22.0333 237.354 22.54 237.834 23.18C238.434 22.4867 239.101 21.9667 239.834 21.62C240.581 21.2733 241.494 21.1 242.574 21.1C243.708 21.1 244.688 21.3467 245.514 21.84C246.354 22.32 247.001 22.98 247.454 23.82C247.908 24.6467 248.134 25.5867 248.134 26.64C248.134 27.72 247.901 28.68 247.434 29.52C246.981 30.36 246.334 31.02 245.494 31.5C244.654 31.9667 243.648 32.2 242.474 32.2C241.434 32.2 240.528 32.0133 239.754 31.64C238.994 31.2667 238.368 30.74 237.874 30.06C237.381 30.7267 236.741 31.2533 235.954 31.64C235.181 32.0133 234.301 32.2 233.314 32.2ZM233.374 30.72C234.521 30.72 235.421 30.3467 236.074 29.6C236.741 28.8533 237.074 27.88 237.074 26.68C237.074 25.4533 236.748 24.46 236.094 23.7C235.454 22.94 234.554 22.56 233.394 22.56C232.274 22.56 231.368 22.9333 230.674 23.68C229.994 24.4267 229.654 25.4267 229.654 26.68C229.654 27.4933 229.814 28.2067 230.134 28.82C230.468 29.42 230.914 29.8867 231.474 30.22C232.034 30.5533 232.668 30.72 233.374 30.72ZM238.914 26.64C238.914 27.2933 238.828 27.9133 238.654 28.5C238.988 29.18 239.488 29.7267 240.154 30.14C240.821 30.54 241.601 30.74 242.494 30.74C243.681 30.74 244.614 30.3667 245.294 29.62C245.974 28.86 246.314 27.88 246.314 26.68C246.314 25.4133 245.988 24.4133 245.334 23.68C244.694 22.9333 243.788 22.56 242.614 22.56C241.801 22.56 241.061 22.7133 240.394 23.02C239.741 23.3133 239.154 23.8867 238.634 24.74C238.821 25.34 238.914 25.9733 238.914 26.64ZM255.894 32.2C255.334 32.2 254.794 32.1133 254.274 31.94C253.754 31.7667 253.274 31.5267 252.834 31.22V37.38C252.834 38.18 253.014 38.7933 253.374 39.22C253.734 39.66 254.301 39.88 255.074 39.88H266.254C267.041 39.88 267.608 39.66 267.954 39.22C268.314 38.7933 268.494 38.18 268.494 37.38V37.06H270.274V37.12C270.274 39.9333 268.908 41.34 266.174 41.34H255.154C252.421 41.34 251.054 39.9133 251.054 37.06V28.94L252.454 28.22C252.801 29.0467 253.288 29.6733 253.914 30.1C254.554 30.5133 255.228 30.72 255.934 30.72C256.654 30.72 257.281 30.5467 257.814 30.2C258.348 29.84 258.761 29.3467 259.054 28.72C259.348 28.0933 259.494 27.3867 259.494 26.6C259.494 25.4 259.181 24.4267 258.554 23.68C257.941 22.9333 257.068 22.56 255.934 22.56C255.228 22.56 254.554 22.7733 253.914 23.2C253.288 23.6133 252.801 24.2333 252.454 25.06L251.054 24.34C251.294 23.6867 251.654 23.12 252.134 22.64C252.628 22.1467 253.201 21.7667 253.854 21.5C254.508 21.22 255.188 21.08 255.894 21.08C257.028 21.08 257.994 21.3267 258.794 21.82C259.608 22.3 260.228 22.96 260.654 23.8C261.094 24.6267 261.314 25.5667 261.314 26.62C261.314 27.1533 261.261 27.66 261.154 28.14C261.568 28.9933 262.074 29.64 262.674 30.08C263.274 30.5067 264.021 30.72 264.914 30.72C266.021 30.72 266.894 30.34 267.534 29.58C268.174 28.82 268.494 27.8267 268.494 26.6C268.494 25.36 268.168 24.38 267.514 23.66C266.874 22.9267 266.021 22.56 264.954 22.56C264.234 22.56 263.621 22.68 263.114 22.92L262.474 21.6C262.848 21.4133 263.248 21.28 263.674 21.2C264.114 21.12 264.634 21.08 265.234 21.08C266.221 21.08 267.094 21.3067 267.854 21.76C268.628 22.2133 269.228 22.86 269.654 23.7C270.094 24.5267 270.314 25.5067 270.314 26.64C270.314 27.7067 270.088 28.66 269.634 29.5C269.181 30.34 268.548 31 267.734 31.48C266.934 31.96 265.988 32.2 264.894 32.2C263.988 32.2 263.148 32.0133 262.374 31.64C261.601 31.2533 260.961 30.68 260.454 29.92C260.001 30.6267 259.388 31.1867 258.614 31.6C257.854 32 256.948 32.2 255.894 32.2ZM264.922 38.44C264.269 38.44 263.742 38.2533 263.342 37.88C262.942 37.52 262.742 37 262.742 36.32C262.742 35.6533 262.942 35.1333 263.342 34.76C263.742 34.3867 264.269 34.2 264.922 34.2C265.562 34.2 266.096 34.3867 266.522 34.76C266.936 35.1333 267.142 35.6467 267.142 36.3C267.142 36.98 266.936 37.5067 266.522 37.88C266.096 38.2533 265.562 38.44 264.922 38.44ZM264.942 37.38C265.249 37.38 265.502 37.2867 265.702 37.1C265.902 36.9133 266.002 36.6533 266.002 36.32C266.002 35.9867 265.902 35.7267 265.702 35.54C265.502 35.3533 265.249 35.26 264.942 35.26C264.636 35.26 264.382 35.3533 264.182 35.54C263.982 35.7267 263.882 35.9867 263.882 36.32C263.882 37.0267 264.236 37.38 264.942 37.38ZM263.846 19.48C263.166 19.1067 262.612 18.5933 262.186 17.94C261.759 17.2733 261.546 16.5 261.546 15.62C261.546 14.86 261.706 14.2067 262.026 13.66C262.346 13.1133 262.779 12.6933 263.326 12.4C263.872 12.1067 264.492 11.96 265.186 11.96C265.866 11.96 266.479 12.1 267.026 12.38C267.559 12.66 267.979 13.06 268.286 13.58L267.146 14.46C266.932 14.1 266.659 13.82 266.326 13.62C265.992 13.4067 265.619 13.3 265.206 13.3C264.552 13.3 264.046 13.5267 263.686 13.98C263.326 14.4333 263.146 14.98 263.146 15.62C263.146 16.3133 263.312 16.8933 263.646 17.36C263.966 17.8133 264.326 18.1733 264.726 18.44L263.846 19.48ZM281.602 41.34V26.68C281.602 25.8667 281.449 25.1533 281.142 24.54C280.849 23.9267 280.429 23.4467 279.882 23.1C279.349 22.74 278.709 22.56 277.962 22.56C277.082 22.56 276.342 22.8 275.742 23.28C275.142 23.76 274.729 24.4267 274.502 25.28C276.235 25.44 277.595 26.0867 278.582 27.22C279.569 28.34 280.062 29.8733 280.062 31.82C279.755 31.9133 279.415 32 279.042 32.08C278.669 32.16 278.282 32.2 277.882 32.2C276.802 32.2 275.862 31.96 275.062 31.48C274.262 31 273.635 30.34 273.182 29.5C272.742 28.66 272.522 27.7067 272.522 26.64C272.522 25.56 272.749 24.6067 273.202 23.78C273.655 22.94 274.289 22.28 275.102 21.8C275.915 21.32 276.862 21.08 277.942 21.08C279.062 21.08 280.022 21.3267 280.822 21.82C281.635 22.3 282.262 22.96 282.702 23.8C283.142 24.6267 283.362 25.5733 283.362 26.64V39.98H285.862V41.34H281.602ZM277.942 30.72C278.102 30.72 278.262 30.7133 278.422 30.7C278.302 29.4867 277.882 28.54 277.162 27.86C276.442 27.18 275.502 26.7933 274.342 26.7C274.342 27.8867 274.655 28.8533 275.282 29.6C275.922 30.3467 276.809 30.72 277.942 30.72ZM290.551 41.34V32.2H289.871C288.471 32.2 287.458 31.9333 286.831 31.4C286.204 30.8533 285.891 30.1733 285.891 29.36C285.891 28.8133 286.024 28.34 286.291 27.94C286.571 27.5267 286.938 27.2067 287.391 26.98C287.858 26.7533 288.364 26.64 288.911 26.64C290.004 26.64 290.818 26.98 291.351 27.66C291.884 28.3267 292.198 29.3467 292.291 30.72C292.904 30.6667 293.378 30.5067 293.711 30.24C294.044 29.9733 294.211 29.5533 294.211 28.98C294.211 28.4733 293.938 28.0467 293.391 27.7C292.844 27.3533 292.064 27.0067 291.051 26.66C290.051 26.3133 289.331 25.92 288.891 25.48C288.464 25.04 288.251 24.48 288.251 23.8C288.251 23.28 288.398 22.82 288.691 22.42C288.984 22.0067 289.371 21.68 289.851 21.44C290.331 21.2 290.851 21.08 291.411 21.08C292.024 21.08 292.531 21.14 292.931 21.26C293.344 21.3667 293.711 21.5333 294.031 21.76C294.364 21.9733 294.711 22.2533 295.071 22.6L294.031 23.72C293.591 23.28 293.191 22.9733 292.831 22.8C292.471 22.6133 292.024 22.52 291.491 22.52C291.064 22.52 290.698 22.6333 290.391 22.86C290.084 23.0867 289.931 23.3733 289.931 23.72C289.931 24.1333 290.131 24.4667 290.531 24.72C290.944 24.96 291.571 25.22 292.411 25.5C293.171 25.7533 293.811 26.0267 294.331 26.32C294.851 26.6 295.244 26.9467 295.511 27.36C295.778 27.7733 295.911 28.3 295.911 28.94C295.911 29.9533 295.578 30.72 294.911 31.24C294.244 31.76 293.384 32.0667 292.331 32.16V41.34H290.551ZM289.831 30.74H290.551V30.72C290.551 29.8 290.378 29.14 290.031 28.74C289.698 28.3267 289.278 28.12 288.771 28.12C288.438 28.12 288.131 28.22 287.851 28.42C287.584 28.62 287.451 28.94 287.451 29.38C287.451 29.7933 287.651 30.1267 288.051 30.38C288.464 30.62 289.058 30.74 289.831 30.74ZM290.057 19.48C289.377 19.1067 288.823 18.5933 288.397 17.94C287.97 17.2733 287.757 16.5 287.757 15.62C287.757 14.86 287.917 14.2067 288.237 13.66C288.557 13.1133 288.99 12.6933 289.537 12.4C290.083 12.1067 290.703 11.96 291.397 11.96C292.077 11.96 292.69 12.1 293.237 12.38C293.77 12.66 294.19 13.06 294.497 13.58L293.357 14.46C293.143 14.1 292.87 13.82 292.537 13.62C292.203 13.4067 291.83 13.3 291.417 13.3C290.763 13.3 290.257 13.5267 289.897 13.98C289.537 14.4333 289.357 14.98 289.357 15.62C289.357 16.3133 289.523 16.8933 289.857 17.36C290.177 17.8133 290.537 18.1733 290.937 18.44L290.057 19.48Z" fill="white"/>
</svg>
