<svg width="317" height="50" viewBox="0 0 317 50" fill="none" xmlns="http://www.w3.org/2000/svg">
<rect x="0.5" y="0.5" width="316" height="49" rx="24.5" fill="#1F1F1F"/>
<path d="M51 22H21V17C21 14.2857 23.2018 12 25.8165 12H46.1835C48.7982 12 51 14.2857 51 17V22Z" fill="#34A853"/>
<path d="M51 26.0537H21V21.0537C21 18.3394 23.2018 16.0537 25.8165 16.0537H46.1835C48.7982 16.0537 51 18.3394 51 21.0537V26.0537Z" fill="#FBBC04"/>
<path d="M51 30.2468H21V25.2468C21 22.5325 23.2018 20.2468 25.8165 20.2468H46.1835C48.7982 20.2468 51 22.5325 51 25.2468V30.2468Z" fill="#EA4335"/>
<path d="M21 23.2752L40.0411 27.6789C42.2329 28.2294 44.6986 27.6789 46.4795 26.3028L51 23V33.3211C51 35.9358 48.8082 38 46.2055 38H25.7945C23.1918 38 21 35.9358 21 33.3211V23.2752Z" fill="url(#paint0_linear_1819_24975)"/>
<path d="M68.78 32.32C68.02 32.32 67.2933 32.1733 66.6 31.88C65.9067 31.5733 65.2933 31.1267 64.76 30.54C64.24 29.9533 63.8533 29.2267 63.6 28.36L65.68 27.52C65.8933 28.2933 66.2667 28.94 66.8 29.46C67.3333 29.98 68 30.24 68.8 30.24C69.2533 30.24 69.6733 30.16 70.06 30C70.46 29.84 70.78 29.6067 71.02 29.3C71.26 28.98 71.38 28.5933 71.38 28.14C71.38 27.5133 71.1467 27.0133 70.68 26.64C70.2133 26.2533 69.4667 25.8733 68.44 25.5L67.54 25.18C67.02 24.9933 66.4933 24.74 65.96 24.42C65.44 24.0867 65.0067 23.6667 64.66 23.16C64.3133 22.64 64.14 22.0067 64.14 21.26C64.14 20.5533 64.3267 19.9067 64.7 19.32C65.0867 18.72 65.6133 18.2467 66.28 17.9C66.96 17.54 67.7467 17.36 68.64 17.36C69.56 17.36 70.3267 17.5267 70.94 17.86C71.5667 18.18 72.0533 18.5733 72.4 19.04C72.76 19.4933 73.0067 19.92 73.14 20.32L71.16 21.16C71.08 20.8933 70.9333 20.6267 70.72 20.36C70.52 20.08 70.2467 19.8533 69.9 19.68C69.5667 19.4933 69.1533 19.4 68.66 19.4C68.02 19.4 67.4667 19.5733 67 19.92C66.5467 20.2533 66.32 20.6933 66.32 21.24C66.32 21.76 66.5333 22.18 66.96 22.5C67.3867 22.82 68.0067 23.12 68.82 23.4L69.74 23.72C70.3533 23.92 70.9533 24.1933 71.54 24.54C72.14 24.8867 72.6267 25.3467 73 25.92C73.3867 26.48 73.58 27.2067 73.58 28.1C73.58 28.8333 73.4333 29.4667 73.14 30C72.86 30.5333 72.48 30.9733 72 31.32C71.5333 31.6533 71.0133 31.9 70.44 32.06C69.88 32.2333 69.3267 32.32 68.78 32.32ZM75.7639 32V17.68H77.9239V21.6L77.8039 23.2H77.9239C78.2039 22.7067 78.6306 22.3 79.2039 21.98C79.7906 21.6467 80.4372 21.48 81.1439 21.48C82.4106 21.48 83.3639 21.86 84.0039 22.62C84.6439 23.3667 84.9639 24.3467 84.9639 25.56V32H82.8239V25.84C82.8239 25.0133 82.6039 24.4133 82.1639 24.04C81.7372 23.6533 81.2106 23.46 80.5839 23.46C80.0639 23.46 79.6039 23.6067 79.2039 23.9C78.8039 24.1933 78.4906 24.58 78.2639 25.06C78.0372 25.5267 77.9239 26.0267 77.9239 26.56V32H75.7639ZM87.9963 29.04V23.68H86.2163V21.8H87.9963V18.92H90.1563V21.8H92.6563V23.68H90.1563V28.58C90.1563 29.0867 90.2563 29.4733 90.4563 29.74C90.6696 30.0067 91.0229 30.14 91.5163 30.14C91.7696 30.14 91.9829 30.1067 92.1563 30.04C92.3429 29.9733 92.5296 29.88 92.7163 29.76V31.86C92.4896 31.9533 92.2496 32.0267 91.9963 32.08C91.7429 32.1333 91.4429 32.16 91.0963 32.16C90.1496 32.16 89.3963 31.8867 88.8363 31.34C88.2763 30.78 87.9963 30.0133 87.9963 29.04ZM99.1381 32.32C98.0848 32.32 97.1581 32.08 96.3581 31.6C95.5581 31.12 94.9315 30.4733 94.4781 29.66C94.0248 28.8467 93.7981 27.9267 93.7981 26.9C93.7981 25.8867 94.0248 24.9733 94.4781 24.16C94.9315 23.3333 95.5581 22.68 96.3581 22.2C97.1581 21.72 98.0848 21.48 99.1381 21.48C100.178 21.48 101.098 21.72 101.898 22.2C102.698 22.68 103.325 23.3333 103.778 24.16C104.231 24.9733 104.458 25.8867 104.458 26.9C104.458 27.9267 104.231 28.8467 103.778 29.66C103.325 30.4733 102.698 31.12 101.898 31.6C101.098 32.08 100.178 32.32 99.1381 32.32ZM99.1381 30.34C99.6981 30.34 100.218 30.2067 100.698 29.94C101.178 29.66 101.565 29.2667 101.858 28.76C102.165 28.24 102.318 27.62 102.318 26.9C102.318 26.18 102.165 25.5667 101.858 25.06C101.565 24.54 101.178 24.1467 100.698 23.88C100.218 23.6 99.6981 23.46 99.1381 23.46C98.5781 23.46 98.0515 23.6 97.5581 23.88C97.0781 24.1467 96.6848 24.54 96.3781 25.06C96.0848 25.5667 95.9381 26.18 95.9381 26.9C95.9381 27.62 96.0848 28.24 96.3781 28.76C96.6848 29.2667 97.0781 29.66 97.5581 29.94C98.0515 30.2067 98.5781 30.34 99.1381 30.34ZM112.195 29.04V23.68H110.415V21.8H112.195V18.92H114.355V21.8H116.855V23.68H114.355V28.58C114.355 29.0867 114.455 29.4733 114.655 29.74C114.869 30.0067 115.222 30.14 115.715 30.14C115.969 30.14 116.182 30.1067 116.355 30.04C116.542 29.9733 116.729 29.88 116.915 29.76V31.86C116.689 31.9533 116.449 32.0267 116.195 32.08C115.942 32.1333 115.642 32.16 115.295 32.16C114.349 32.16 113.595 31.8867 113.035 31.34C112.475 30.78 112.195 30.0133 112.195 29.04ZM123.197 32.32C122.197 32.32 121.304 32.0867 120.517 31.62C119.731 31.1533 119.111 30.5133 118.657 29.7C118.217 28.8867 117.997 27.96 117.997 26.92C117.997 25.9467 118.211 25.0467 118.637 24.22C119.064 23.3933 119.657 22.7333 120.417 22.24C121.191 21.7333 122.077 21.48 123.077 21.48C124.131 21.48 125.024 21.7067 125.757 22.16C126.504 22.6133 127.071 23.2333 127.457 24.02C127.844 24.8067 128.037 25.6933 128.037 26.68C128.037 26.8267 128.031 26.96 128.017 27.08C128.017 27.2 128.011 27.2933 127.997 27.36H120.117C120.224 28.3733 120.577 29.1333 121.177 29.64C121.791 30.1467 122.484 30.4 123.257 30.4C123.951 30.4 124.524 30.2467 124.977 29.94C125.431 29.62 125.791 29.2267 126.057 28.76L127.837 29.62C127.397 30.42 126.797 31.0733 126.037 31.58C125.277 32.0733 124.331 32.32 123.197 32.32ZM123.097 23.32C122.377 23.32 121.764 23.54 121.257 23.98C120.751 24.42 120.411 25.0067 120.237 25.74H125.897C125.871 25.3933 125.757 25.0333 125.557 24.66C125.357 24.2867 125.051 23.9733 124.637 23.72C124.237 23.4533 123.724 23.32 123.097 23.32Z" fill="white"/>
<path d="M135.62 32V17.68H140.54C141.407 17.68 142.193 17.8667 142.9 18.24C143.607 18.6133 144.167 19.1267 144.58 19.78C145.007 20.4333 145.22 21.1933 145.22 22.06C145.22 22.9267 145.007 23.6933 144.58 24.36C144.167 25.0133 143.607 25.5267 142.9 25.9C142.193 26.26 141.407 26.44 140.54 26.44H137.82V32H135.62ZM140.6 19.76H137.82V24.36H140.6C141.12 24.36 141.56 24.2533 141.92 24.04C142.28 23.8133 142.553 23.5267 142.74 23.18C142.94 22.82 143.04 22.4467 143.04 22.06C143.04 21.6733 142.94 21.3067 142.74 20.96C142.553 20.6133 142.28 20.3267 141.92 20.1C141.56 19.8733 141.12 19.76 140.6 19.76ZM151.212 32.32C150.159 32.32 149.232 32.08 148.432 31.6C147.632 31.12 147.006 30.4733 146.552 29.66C146.099 28.8467 145.872 27.9267 145.872 26.9C145.872 25.8867 146.099 24.9733 146.552 24.16C147.006 23.3333 147.632 22.68 148.432 22.2C149.232 21.72 150.159 21.48 151.212 21.48C152.252 21.48 153.172 21.72 153.972 22.2C154.772 22.68 155.399 23.3333 155.852 24.16C156.306 24.9733 156.532 25.8867 156.532 26.9C156.532 27.9267 156.306 28.8467 155.852 29.66C155.399 30.4733 154.772 31.12 153.972 31.6C153.172 32.08 152.252 32.32 151.212 32.32ZM151.212 30.34C151.772 30.34 152.292 30.2067 152.772 29.94C153.252 29.66 153.639 29.2667 153.932 28.76C154.239 28.24 154.392 27.62 154.392 26.9C154.392 26.18 154.239 25.5667 153.932 25.06C153.639 24.54 153.252 24.1467 152.772 23.88C152.292 23.6 151.772 23.46 151.212 23.46C150.652 23.46 150.126 23.6 149.632 23.88C149.152 24.1467 148.759 24.54 148.452 25.06C148.159 25.5667 148.012 26.18 148.012 26.9C148.012 27.62 148.159 28.24 148.452 28.76C148.759 29.2667 149.152 29.66 149.632 29.94C150.126 30.2067 150.652 30.34 151.212 30.34ZM167.506 29.04V23.68H165.726V21.8H167.506V18.92H169.666V21.8H172.166V23.68H169.666V28.58C169.666 29.0867 169.766 29.4733 169.966 29.74C170.18 30.0067 170.533 30.14 171.026 30.14C171.28 30.14 171.493 30.1067 171.666 30.04C171.853 29.9733 172.04 29.88 172.226 29.76V31.86C172 31.9533 171.76 32.0267 171.506 32.08C171.253 32.1333 170.96 32.16 170.626 32.16C169.666 32.16 168.906 31.8867 168.346 31.34C167.786 30.78 167.506 30.0133 167.506 29.04ZM158.326 32V21.8H160.366V23.3H160.486C160.753 22.74 161.166 22.3067 161.726 22C162.286 21.68 162.893 21.52 163.546 21.52C163.92 21.52 164.2 21.5467 164.386 21.6V23.76C164.093 23.6667 163.733 23.62 163.306 23.62C162.453 23.62 161.766 23.8933 161.246 24.44C160.74 24.9867 160.486 25.7267 160.486 26.66V32H158.326ZM178.673 32.32C177.62 32.32 176.693 32.08 175.893 31.6C175.093 31.12 174.467 30.4733 174.013 29.66C173.56 28.8467 173.333 27.9267 173.333 26.9C173.333 25.8867 173.56 24.9733 174.013 24.16C174.467 23.3333 175.093 22.68 175.893 22.2C176.693 21.72 177.62 21.48 178.673 21.48C179.713 21.48 180.633 21.72 181.433 22.2C182.233 22.68 182.86 23.3333 183.313 24.16C183.767 24.9733 183.993 25.8867 183.993 26.9C183.993 27.9267 183.767 28.8467 183.313 29.66C182.86 30.4733 182.233 31.12 181.433 31.6C180.633 32.08 179.713 32.32 178.673 32.32ZM178.673 30.34C179.233 30.34 179.753 30.2067 180.233 29.94C180.713 29.66 181.1 29.2667 181.393 28.76C181.7 28.24 181.853 27.62 181.853 26.9C181.853 26.18 181.7 25.5667 181.393 25.06C181.1 24.54 180.713 24.1467 180.233 23.88C179.753 23.6 179.233 23.46 178.673 23.46C178.113 23.46 177.587 23.6 177.093 23.88C176.613 24.1467 176.22 24.54 175.913 25.06C175.62 25.5667 175.473 26.18 175.473 26.9C175.473 27.62 175.62 28.24 175.913 28.76C176.22 29.2667 176.613 29.66 177.093 29.94C177.587 30.2067 178.113 30.34 178.673 30.34ZM186.85 32V23.68H184.99V21.8H186.85V20.96C186.85 20.24 187.003 19.6267 187.31 19.12C187.616 18.6 188.03 18.2067 188.55 17.94C189.083 17.66 189.683 17.52 190.35 17.52C190.71 17.52 191.016 17.5467 191.27 17.6C191.536 17.64 191.756 17.6933 191.93 17.76V19.86C191.756 19.7933 191.556 19.7267 191.33 19.66C191.116 19.58 190.85 19.54 190.53 19.54C190.116 19.54 189.756 19.68 189.45 19.96C189.143 20.2267 188.99 20.62 188.99 21.14V21.8H191.55V23.68H188.99V32H186.85ZM197.794 32.32C196.741 32.32 195.814 32.08 195.014 31.6C194.214 31.12 193.588 30.4733 193.134 29.66C192.681 28.8467 192.454 27.9267 192.454 26.9C192.454 25.8867 192.681 24.9733 193.134 24.16C193.588 23.3333 194.214 22.68 195.014 22.2C195.814 21.72 196.741 21.48 197.794 21.48C198.834 21.48 199.754 21.72 200.554 22.2C201.354 22.68 201.981 23.3333 202.434 24.16C202.888 24.9733 203.114 25.8867 203.114 26.9C203.114 27.9267 202.888 28.8467 202.434 29.66C201.981 30.4733 201.354 31.12 200.554 31.6C199.754 32.08 198.834 32.32 197.794 32.32ZM197.794 30.34C198.354 30.34 198.874 30.2067 199.354 29.94C199.834 29.66 200.221 29.2667 200.514 28.76C200.821 28.24 200.974 27.62 200.974 26.9C200.974 26.18 200.821 25.5667 200.514 25.06C200.221 24.54 199.834 24.1467 199.354 23.88C198.874 23.6 198.354 23.46 197.794 23.46C197.234 23.46 196.708 23.6 196.214 23.88C195.734 24.1467 195.341 24.54 195.034 25.06C194.741 25.5667 194.594 26.18 194.594 26.9C194.594 27.62 194.741 28.24 195.034 28.76C195.341 29.2667 195.734 29.66 196.214 29.94C196.708 30.2067 197.234 30.34 197.794 30.34ZM205.026 32V17.68H207.186V32H205.026ZM210.973 20.3C210.573 20.3 210.226 20.16 209.933 19.88C209.653 19.5867 209.513 19.24 209.513 18.84C209.513 18.44 209.653 18.1 209.933 17.82C210.226 17.54 210.573 17.4 210.973 17.4C211.373 17.4 211.713 17.54 211.993 17.82C212.286 18.1 212.433 18.44 212.433 18.84C212.433 19.24 212.286 19.5867 211.993 19.88C211.713 20.16 211.373 20.3 210.973 20.3ZM209.893 32V21.8H212.053V32H209.893ZM220.641 20.3C220.241 20.3 219.894 20.16 219.601 19.88C219.321 19.5867 219.181 19.24 219.181 18.84C219.181 18.44 219.321 18.1 219.601 17.82C219.894 17.54 220.241 17.4 220.641 17.4C221.041 17.4 221.381 17.54 221.661 17.82C221.954 18.1 222.101 18.44 222.101 18.84C222.101 19.24 221.954 19.5867 221.661 19.88C221.381 20.16 221.041 20.3 220.641 20.3ZM219.561 32V21.8H221.721V32H219.561ZM235.818 32.32C234.791 32.32 233.825 32.1333 232.918 31.76C232.025 31.3867 231.231 30.8667 230.538 30.2C229.845 29.52 229.298 28.7267 228.898 27.82C228.511 26.9 228.318 25.9067 228.318 24.84C228.318 23.7733 228.511 22.7867 228.898 21.88C229.298 20.96 229.838 20.1667 230.518 19.5C231.211 18.82 232.011 18.2933 232.918 17.92C233.825 17.5467 234.791 17.36 235.818 17.36C236.911 17.36 237.918 17.5533 238.838 17.94C239.771 18.3267 240.551 18.8667 241.178 19.56L239.658 21.06C239.191 20.54 238.631 20.14 237.978 19.86C237.338 19.58 236.618 19.44 235.818 19.44C234.871 19.44 233.998 19.6667 233.198 20.12C232.398 20.56 231.751 21.1867 231.258 22C230.778 22.8 230.538 23.7467 230.538 24.84C230.538 25.9333 230.785 26.8867 231.278 27.7C231.771 28.5 232.418 29.1267 233.218 29.58C234.018 30.02 234.891 30.24 235.838 30.24C236.705 30.24 237.491 30.08 238.198 29.76C238.905 29.4267 239.471 28.96 239.898 28.36C240.338 27.76 240.605 27.04 240.698 26.2H235.798V24.26H242.758C242.838 24.62 242.878 25 242.878 25.4V25.42C242.878 26.8067 242.571 28.02 241.958 29.06C241.358 30.0867 240.525 30.8867 239.458 31.46C238.391 32.0333 237.178 32.32 235.818 32.32ZM249.318 32.32C248.264 32.32 247.338 32.08 246.538 31.6C245.738 31.12 245.111 30.4733 244.658 29.66C244.204 28.8467 243.978 27.9267 243.978 26.9C243.978 25.8867 244.204 24.9733 244.658 24.16C245.111 23.3333 245.738 22.68 246.538 22.2C247.338 21.72 248.264 21.48 249.318 21.48C250.358 21.48 251.278 21.72 252.078 22.2C252.878 22.68 253.504 23.3333 253.958 24.16C254.411 24.9733 254.638 25.8867 254.638 26.9C254.638 27.9267 254.411 28.8467 253.958 29.66C253.504 30.4733 252.878 31.12 252.078 31.6C251.278 32.08 250.358 32.32 249.318 32.32ZM249.318 30.34C249.878 30.34 250.398 30.2067 250.878 29.94C251.358 29.66 251.744 29.2667 252.038 28.76C252.344 28.24 252.498 27.62 252.498 26.9C252.498 26.18 252.344 25.5667 252.038 25.06C251.744 24.54 251.358 24.1467 250.878 23.88C250.398 23.6 249.878 23.46 249.318 23.46C248.758 23.46 248.231 23.6 247.738 23.88C247.258 24.1467 246.864 24.54 246.558 25.06C246.264 25.5667 246.118 26.18 246.118 26.9C246.118 27.62 246.264 28.24 246.558 28.76C246.864 29.2667 247.258 29.66 247.738 29.94C248.231 30.2067 248.758 30.34 249.318 30.34ZM261.427 32.32C260.374 32.32 259.447 32.08 258.647 31.6C257.847 31.12 257.221 30.4733 256.767 29.66C256.314 28.8467 256.087 27.9267 256.087 26.9C256.087 25.8867 256.314 24.9733 256.767 24.16C257.221 23.3333 257.847 22.68 258.647 22.2C259.447 21.72 260.374 21.48 261.427 21.48C262.467 21.48 263.387 21.72 264.187 22.2C264.987 22.68 265.614 23.3333 266.067 24.16C266.521 24.9733 266.747 25.8867 266.747 26.9C266.747 27.9267 266.521 28.8467 266.067 29.66C265.614 30.4733 264.987 31.12 264.187 31.6C263.387 32.08 262.467 32.32 261.427 32.32ZM261.427 30.34C261.987 30.34 262.507 30.2067 262.987 29.94C263.467 29.66 263.854 29.2667 264.147 28.76C264.454 28.24 264.607 27.62 264.607 26.9C264.607 26.18 264.454 25.5667 264.147 25.06C263.854 24.54 263.467 24.1467 262.987 23.88C262.507 23.6 261.987 23.46 261.427 23.46C260.867 23.46 260.341 23.6 259.847 23.88C259.367 24.1467 258.974 24.54 258.667 25.06C258.374 25.5667 258.227 26.18 258.227 26.9C258.227 27.62 258.374 28.24 258.667 28.76C258.974 29.2667 259.367 29.66 259.847 29.94C260.341 30.2067 260.867 30.34 261.427 30.34ZM273.337 36.64C272.443 36.64 271.67 36.4933 271.017 36.2C270.377 35.92 269.857 35.5533 269.457 35.1C269.057 34.66 268.77 34.2067 268.597 33.74L270.597 32.9C270.81 33.4333 271.15 33.8667 271.617 34.2C272.097 34.5467 272.67 34.72 273.337 34.72C274.27 34.72 275.003 34.44 275.537 33.88C276.083 33.32 276.357 32.5267 276.357 31.5V30.52H276.237C275.917 31 275.47 31.3867 274.897 31.68C274.337 31.96 273.697 32.1 272.977 32.1C272.11 32.1 271.317 31.88 270.597 31.44C269.877 31 269.297 30.3867 268.857 29.6C268.417 28.8 268.197 27.8667 268.197 26.8C268.197 25.72 268.417 24.7867 268.857 24C269.297 23.2 269.877 22.58 270.597 22.14C271.317 21.7 272.11 21.48 272.977 21.48C273.697 21.48 274.337 21.6267 274.897 21.92C275.47 22.2133 275.917 22.6 276.237 23.08H276.357V21.8H278.417V31.46C278.417 32.5667 278.197 33.5067 277.757 34.28C277.33 35.0533 276.737 35.64 275.977 36.04C275.217 36.44 274.337 36.64 273.337 36.64ZM273.357 30.14C273.89 30.14 274.383 30.0133 274.837 29.76C275.29 29.4933 275.657 29.1133 275.937 28.62C276.217 28.1133 276.357 27.5067 276.357 26.8C276.357 26.0667 276.217 25.4533 275.937 24.96C275.657 24.4533 275.29 24.0733 274.837 23.82C274.383 23.5667 273.89 23.44 273.357 23.44C272.823 23.44 272.323 23.5733 271.857 23.84C271.403 24.0933 271.037 24.4667 270.757 24.96C270.477 25.4533 270.337 26.0667 270.337 26.8C270.337 27.52 270.477 28.1333 270.757 28.64C271.037 29.1333 271.403 29.5067 271.857 29.76C272.323 30.0133 272.823 30.14 273.357 30.14ZM280.964 32V17.68H283.124V32H280.964ZM290.233 32.32C289.233 32.32 288.339 32.0867 287.553 31.62C286.766 31.1533 286.146 30.5133 285.693 29.7C285.253 28.8867 285.033 27.96 285.033 26.92C285.033 25.9467 285.246 25.0467 285.673 24.22C286.099 23.3933 286.693 22.7333 287.453 22.24C288.226 21.7333 289.113 21.48 290.113 21.48C291.166 21.48 292.059 21.7067 292.793 22.16C293.539 22.6133 294.106 23.2333 294.493 24.02C294.879 24.8067 295.073 25.6933 295.073 26.68C295.073 26.8267 295.066 26.96 295.053 27.08C295.053 27.2 295.046 27.2933 295.033 27.36H287.153C287.259 28.3733 287.613 29.1333 288.213 29.64C288.826 30.1467 289.519 30.4 290.293 30.4C290.986 30.4 291.559 30.2467 292.013 29.94C292.466 29.62 292.826 29.2267 293.093 28.76L294.872 29.62C294.433 30.42 293.833 31.0733 293.073 31.58C292.313 32.0733 291.366 32.32 290.233 32.32ZM290.133 23.32C289.413 23.32 288.799 23.54 288.293 23.98C287.786 24.42 287.446 25.0067 287.273 25.74H292.933C292.906 25.3933 292.793 25.0333 292.593 24.66C292.393 24.2867 292.086 23.9733 291.673 23.72C291.273 23.4533 290.759 23.32 290.133 23.32Z" fill="white"/>
<rect x="0.5" y="0.5" width="316" height="49" rx="24.5" stroke="#747775"/>
<defs>
<linearGradient id="paint0_linear_1819_24975" x1="34.5703" y1="30.7864" x2="18.7309" y2="48.9133" gradientUnits="userSpaceOnUse">
<stop stop-color="#4285F4"/>
<stop offset="1" stop-color="#1B74E8"/>
</linearGradient>
</defs>
</svg>
