<svg width="296" height="50" viewBox="0 0 296 50" fill="none" xmlns="http://www.w3.org/2000/svg">
<rect x="0.5" y="0.5" width="295" height="49" rx="24.5" fill="#1F1F1F"/>
<rect x="0.5" y="0.5" width="295" height="49" rx="24.5" stroke="#747775"/>
<path d="M51 22H21V17C21 14.2857 23.2018 12 25.8165 12H46.1835C48.7982 12 51 14.2857 51 17V22Z" fill="#34A853"/>
<path d="M51 26.0547H21V21.0547C21 18.3404 23.2018 16.0547 25.8165 16.0547H46.1835C48.7982 16.0547 51 18.3404 51 21.0547V26.0547Z" fill="#FBBC04"/>
<path d="M51 30.2461H21V25.2461C21 22.5318 23.2018 20.2461 25.8165 20.2461H46.1835C48.7982 20.2461 51 22.5318 51 25.2461V30.2461Z" fill="#EA4335"/>
<path d="M21 23.2752L40.0411 27.6789C42.2329 28.2294 44.6986 27.6789 46.4795 26.3028L51 23V33.3211C51 35.9358 48.8082 38 46.2055 38H25.7945C23.1918 38 21 35.9358 21 33.3211V23.2752Z" fill="#4285F4"/>
<path d="M66.76 32.24C66.1067 32.24 65.5667 32.0267 65.14 31.6C64.7133 31.1733 64.5 30.6267 64.5 29.96V21.2H66.62V28.1C66.74 28.0867 66.86 28.08 66.98 28.08C67.58 28.08 68.0667 28.2733 68.44 28.66C68.8267 29.0467 69.02 29.54 69.02 30.14C69.02 30.7533 68.8067 31.26 68.38 31.66C67.9533 32.0467 67.4133 32.24 66.76 32.24ZM66.82 30.96C67.0733 30.96 67.2733 30.88 67.42 30.72C67.58 30.56 67.66 30.36 67.66 30.12C67.66 29.88 67.58 29.68 67.42 29.52C67.2733 29.36 67.0733 29.28 66.82 29.28C66.58 29.28 66.38 29.36 66.22 29.52C66.06 29.68 65.98 29.88 65.98 30.12C65.98 30.36 66.06 30.56 66.22 30.72C66.38 30.88 66.58 30.96 66.82 30.96ZM74.838 32.32C73.838 32.32 73.058 32.0333 72.498 31.46C71.9513 30.8733 71.678 30.04 71.678 28.96V25.1C71.5446 25.1267 71.4113 25.14 71.278 25.14C70.6913 25.14 70.2046 24.9467 69.818 24.56C69.4313 24.16 69.238 23.6667 69.238 23.08C69.238 22.4667 69.4513 21.9667 69.878 21.58C70.3046 21.18 70.8446 20.98 71.498 20.98C72.1513 20.98 72.6846 21.1933 73.098 21.62C73.5246 22.0467 73.738 22.5933 73.738 23.26V29.04C73.738 29.5467 73.858 29.9333 74.098 30.2C74.338 30.4667 74.678 30.6 75.118 30.6C75.598 30.6 75.9713 30.46 76.238 30.18C76.518 29.8867 76.658 29.4867 76.658 28.98V21.2H78.598V29.04C78.598 29.52 78.738 29.9 79.018 30.18C79.3113 30.46 79.6913 30.6 80.158 30.6C80.598 30.6 80.9313 30.4667 81.158 30.2C81.398 29.92 81.518 29.5133 81.518 28.98V21.2H83.598V28.94C83.598 29.9933 83.3113 30.82 82.738 31.42C82.1646 32.02 81.3846 32.32 80.398 32.32C79.238 32.32 78.338 31.9 77.698 31.06H77.598C76.9446 31.9 76.0246 32.32 74.838 32.32ZM71.438 23.94C71.678 23.94 71.878 23.86 72.038 23.7C72.198 23.54 72.278 23.34 72.278 23.1C72.278 22.8467 72.198 22.6467 72.038 22.5C71.878 22.34 71.678 22.26 71.438 22.26C71.198 22.26 70.998 22.34 70.838 22.5C70.678 22.6467 70.598 22.8467 70.598 23.1C70.598 23.34 70.678 23.54 70.838 23.7C70.998 23.86 71.198 23.94 71.438 23.94ZM73.772 19.68C73.572 19.4933 73.4187 19.2733 73.312 19.02C73.2054 18.7533 73.152 18.5 73.152 18.26C73.152 17.54 73.552 16.9733 74.352 16.56C75.1387 16.1333 76.2054 15.92 77.552 15.92C78.832 15.92 79.852 16.1333 80.612 16.56C81.372 16.9733 81.752 17.54 81.752 18.26C81.752 18.3133 81.7454 18.3733 81.732 18.44C81.772 18.4267 81.8187 18.4133 81.872 18.4C82.1387 18.32 82.3987 18.28 82.652 18.28H83.332V19.68H79.812C79.8787 19.52 79.9387 19.3533 79.992 19.18C80.032 19.0067 80.052 18.8467 80.052 18.7C80.052 18.2733 79.832 17.9333 79.392 17.68C78.9387 17.4133 78.3254 17.28 77.552 17.28C76.792 17.28 76.1854 17.4133 75.732 17.68C75.2787 17.9333 75.052 18.2733 75.052 18.7C75.052 18.82 75.0787 18.9667 75.132 19.14C75.172 19.3133 75.2254 19.4933 75.292 19.68H73.772ZM76.892 15.22L76.692 12.18H78.572L78.372 15.22H76.892ZM87.495 32.24C86.8417 32.24 86.3017 32.0467 85.875 31.66C85.4483 31.26 85.235 30.7533 85.235 30.14C85.235 29.54 85.4283 29.0467 85.815 28.66C86.215 28.2733 86.7083 28.08 87.295 28.08C87.4017 28.08 87.5083 28.0867 87.615 28.1V21.2H89.735V28.46C89.735 29.1133 89.9617 29.6333 90.415 30.02C90.8817 30.4067 91.475 30.6 92.195 30.6C92.8483 30.6 93.3617 30.42 93.735 30.06C94.1217 29.7 94.315 29.1867 94.315 28.52V21.2H96.435V28.54C96.435 29.7667 96.055 30.7067 95.295 31.36C94.5483 32 93.515 32.32 92.195 32.32C91.075 32.32 90.1683 31.98 89.475 31.3C89.4483 31.2733 89.4217 31.2467 89.395 31.22C89.315 31.3533 89.215 31.48 89.095 31.6C88.6683 32.0267 88.135 32.24 87.495 32.24ZM87.435 30.96C87.675 30.96 87.875 30.88 88.035 30.72C88.195 30.56 88.275 30.36 88.275 30.12C88.275 29.88 88.195 29.68 88.035 29.52C87.875 29.36 87.675 29.28 87.435 29.28C87.195 29.28 86.995 29.36 86.835 29.52C86.675 29.68 86.595 29.88 86.595 30.12C86.595 30.36 86.675 30.56 86.835 30.72C86.995 30.88 87.195 30.96 87.435 30.96ZM102.508 32.24C101.854 32.24 101.314 32.0267 100.888 31.6C100.461 31.1733 100.248 30.6267 100.248 29.96V21.86C100.248 21.3267 100.368 20.8133 100.608 20.32C100.848 19.8133 101.181 19.2733 101.608 18.7C101.954 18.22 102.214 17.8067 102.388 17.46C102.574 17.1 102.668 16.76 102.668 16.44C102.668 15.9467 102.494 15.5467 102.148 15.24C101.801 14.92 101.354 14.76 100.808 14.76C100.648 14.76 100.468 14.7867 100.268 14.84C100.188 14.8533 100.121 14.8733 100.068 14.9C100.414 15.0067 100.708 15.2067 100.948 15.5C101.228 15.8467 101.368 16.2467 101.368 16.7C101.368 17.2867 101.168 17.7733 100.768 18.16C100.368 18.5333 99.8542 18.72 99.2275 18.72C98.5875 18.72 98.0542 18.5067 97.6275 18.08C97.2008 17.64 96.9875 17.0867 96.9875 16.42C96.9875 15.78 97.1475 15.22 97.4675 14.74C97.7875 14.2467 98.2342 13.8667 98.8075 13.6C99.3942 13.3333 100.061 13.2 100.808 13.2C101.541 13.2 102.188 13.34 102.748 13.62C103.321 13.8867 103.768 14.2667 104.088 14.76C104.421 15.24 104.588 15.8 104.588 16.44C104.588 16.9067 104.488 17.3467 104.288 17.76C104.101 18.1733 103.828 18.6467 103.468 19.18C103.241 19.5133 103.048 19.8267 102.888 20.12C102.728 20.4133 102.601 20.7 102.508 20.98C102.414 21.26 102.368 21.56 102.368 21.88V28.1C102.488 28.0867 102.608 28.08 102.728 28.08C103.328 28.08 103.814 28.2733 104.188 28.66C104.574 29.0467 104.768 29.54 104.768 30.14C104.768 30.7533 104.554 31.26 104.128 31.66C103.714 32.0467 103.174 32.24 102.508 32.24ZM99.2475 17.6C99.5008 17.6 99.7075 17.52 99.8675 17.36C100.041 17.1867 100.128 16.9733 100.128 16.72C100.128 16.4667 100.041 16.26 99.8675 16.1C99.7075 15.9267 99.4942 15.84 99.2275 15.84C98.9742 15.84 98.7608 15.9267 98.5875 16.1C98.4275 16.26 98.3475 16.4667 98.3475 16.72C98.3475 16.9733 98.4342 17.1867 98.6075 17.36C98.7808 17.52 98.9942 17.6 99.2475 17.6ZM102.568 30.96C102.821 30.96 103.021 30.88 103.168 30.72C103.328 30.56 103.408 30.36 103.408 30.12C103.408 29.88 103.328 29.68 103.168 29.52C103.021 29.36 102.821 29.28 102.568 29.28C102.328 29.28 102.128 29.36 101.968 29.52C101.808 29.68 101.728 29.88 101.728 30.12C101.728 30.36 101.808 30.56 101.968 30.72C102.128 30.88 102.328 30.96 102.568 30.96ZM108.571 32.24C107.931 32.24 107.398 32.0333 106.971 31.62C106.558 31.1933 106.351 30.6467 106.351 29.98V28.54C106.351 27.66 106.651 26.98 107.251 26.5C107.851 26.02 108.638 25.78 109.611 25.78C110.265 25.78 110.805 25.8667 111.231 26.04C111.658 26.2133 112.005 26.4667 112.271 26.8C112.538 27.12 112.758 27.5 112.931 27.94L113.831 30.18C113.885 30.3 113.958 30.4 114.051 30.48C114.158 30.5467 114.285 30.58 114.431 30.58C114.591 30.58 114.725 30.5333 114.831 30.44C114.938 30.3467 114.991 30.22 114.991 30.06V25.08C114.991 24.8 114.951 24.54 114.871 24.3C114.525 24.4733 114.151 24.62 113.751 24.74C112.871 24.9933 111.878 25.12 110.771 25.12C109.398 25.12 108.298 24.9667 107.471 24.66C106.658 24.34 106.251 23.8533 106.251 23.2C106.251 22.7467 106.451 22.3467 106.851 22C107.265 21.6533 107.831 21.38 108.551 21.18C109.271 20.98 110.091 20.88 111.011 20.88C112.251 20.88 113.318 21.0533 114.211 21.4C114.611 21.56 114.965 21.74 115.271 21.94C115.578 21.58 115.858 21.18 116.111 20.74L117.891 21.5C117.491 22.1533 117.031 22.7133 116.511 23.18C116.871 23.7533 117.051 24.4133 117.051 25.16V30.16C117.051 30.8133 116.825 31.3267 116.371 31.7C115.931 32.06 115.351 32.24 114.631 32.24C113.951 32.24 113.438 32.1 113.091 31.82C112.745 31.54 112.478 31.1667 112.291 30.7L111.331 28.3C111.185 27.9267 110.985 27.6467 110.731 27.46C110.478 27.26 110.145 27.16 109.731 27.16C109.345 27.16 109.025 27.24 108.771 27.4C108.531 27.56 108.411 27.7933 108.411 28.1V28.18C108.531 28.1533 108.651 28.14 108.771 28.14C109.358 28.14 109.838 28.3333 110.211 28.72C110.598 29.1067 110.791 29.5933 110.791 30.18C110.791 30.78 110.578 31.2733 110.151 31.66C109.738 32.0467 109.211 32.24 108.571 32.24ZM113.971 23.12C113.718 22.9333 113.418 22.7733 113.071 22.64C112.458 22.4133 111.758 22.3 110.971 22.3C110.225 22.3 109.605 22.3933 109.111 22.58C108.631 22.7533 108.391 22.9533 108.391 23.18C108.391 23.3933 108.618 23.5733 109.071 23.72C109.525 23.8533 110.118 23.92 110.851 23.92C111.745 23.92 112.518 23.7867 113.171 23.52C113.451 23.4133 113.718 23.28 113.971 23.12ZM108.631 31C108.871 31 109.071 30.92 109.231 30.76C109.391 30.6 109.471 30.4 109.471 30.16C109.471 29.92 109.391 29.72 109.231 29.56C109.071 29.4 108.871 29.32 108.631 29.32C108.391 29.32 108.191 29.4 108.031 29.56C107.871 29.72 107.791 29.92 107.791 30.16C107.791 30.4 107.871 30.6 108.031 30.76C108.191 30.92 108.391 31 108.631 31ZM110.638 19.82L110.438 16.22H112.638L112.458 19.82H110.638ZM123.425 32.24C122.772 32.24 122.232 32.0267 121.805 31.6C121.379 31.1733 121.165 30.6267 121.165 29.96V21.86C121.165 21.3267 121.285 20.8133 121.525 20.32C121.765 19.8133 122.099 19.2733 122.525 18.7C122.872 18.22 123.132 17.8067 123.305 17.46C123.492 17.1 123.585 16.76 123.585 16.44C123.585 15.9467 123.412 15.5467 123.065 15.24C122.719 14.92 122.272 14.76 121.725 14.76C121.565 14.76 121.385 14.7867 121.185 14.84C121.105 14.8533 121.039 14.8733 120.985 14.9C121.332 15.0067 121.625 15.2067 121.865 15.5C122.145 15.8467 122.285 16.2467 122.285 16.7C122.285 17.2867 122.085 17.7733 121.685 18.16C121.285 18.5333 120.772 18.72 120.145 18.72C119.505 18.72 118.972 18.5067 118.545 18.08C118.119 17.64 117.905 17.0867 117.905 16.42C117.905 15.78 118.065 15.22 118.385 14.74C118.705 14.2467 119.152 13.8667 119.725 13.6C120.312 13.3333 120.979 13.2 121.725 13.2C122.459 13.2 123.105 13.34 123.665 13.62C124.239 13.8867 124.685 14.2667 125.005 14.76C125.339 15.24 125.505 15.8 125.505 16.44C125.505 16.9067 125.405 17.3467 125.205 17.76C125.019 18.1733 124.745 18.6467 124.385 19.18C124.159 19.5133 123.965 19.8267 123.805 20.12C123.645 20.4133 123.519 20.7 123.425 20.98C123.332 21.26 123.285 21.56 123.285 21.88V28.1C123.405 28.0867 123.525 28.08 123.645 28.08C124.245 28.08 124.732 28.2733 125.105 28.66C125.492 29.0467 125.685 29.54 125.685 30.14C125.685 30.7533 125.472 31.26 125.045 31.66C124.632 32.0467 124.092 32.24 123.425 32.24ZM120.165 17.6C120.419 17.6 120.625 17.52 120.785 17.36C120.959 17.1867 121.045 16.9733 121.045 16.72C121.045 16.4667 120.959 16.26 120.785 16.1C120.625 15.9267 120.412 15.84 120.145 15.84C119.892 15.84 119.679 15.9267 119.505 16.1C119.345 16.26 119.265 16.4667 119.265 16.72C119.265 16.9733 119.352 17.1867 119.525 17.36C119.699 17.52 119.912 17.6 120.165 17.6ZM123.485 30.96C123.739 30.96 123.939 30.88 124.085 30.72C124.245 30.56 124.325 30.36 124.325 30.12C124.325 29.88 124.245 29.68 124.085 29.52C123.939 29.36 123.739 29.28 123.485 29.28C123.245 29.28 123.045 29.36 122.885 29.52C122.725 29.68 122.645 29.88 122.645 30.12C122.645 30.36 122.725 30.56 122.885 30.72C123.045 30.88 123.245 30.96 123.485 30.96ZM133.729 32.32C133.009 32.32 132.356 32.1733 131.769 31.88C131.369 31.6667 131.016 31.3867 130.709 31.04C130.496 31.3867 130.223 31.66 129.889 31.86C129.503 32.1133 129.076 32.24 128.609 32.24C128.249 32.24 127.936 32.2133 127.669 32.16C127.416 32.1067 127.183 32.0333 126.969 31.94V30.22C127.303 30.3667 127.616 30.44 127.909 30.44C128.323 30.44 128.623 30.3133 128.809 30.06C128.996 29.7933 129.089 29.4 129.089 28.88V25.12C128.969 25.1333 128.856 25.14 128.749 25.14C128.163 25.14 127.676 24.9467 127.289 24.56C126.903 24.1733 126.709 23.68 126.709 23.08C126.709 22.4667 126.923 21.9667 127.349 21.58C127.776 21.18 128.316 20.98 128.969 20.98C129.609 20.98 130.143 21.1933 130.569 21.62C130.996 22.0467 131.209 22.5933 131.209 23.26V28.46C131.209 29.1267 131.409 29.6533 131.809 30.04C132.209 30.4133 132.756 30.6 133.449 30.6C134.049 30.6 134.516 30.42 134.849 30.06C135.183 29.7 135.349 29.1867 135.349 28.52V21.2H137.469V28.54C137.469 29.38 137.309 30.08 136.989 30.64C136.669 31.2 136.229 31.62 135.669 31.9C135.109 32.18 134.463 32.32 133.729 32.32ZM128.909 23.94C129.149 23.94 129.349 23.86 129.509 23.7C129.669 23.54 129.749 23.34 129.749 23.1C129.749 22.8467 129.669 22.6467 129.509 22.5C129.349 22.34 129.149 22.26 128.909 22.26C128.669 22.26 128.469 22.34 128.309 22.5C128.149 22.6467 128.069 22.8467 128.069 23.1C128.069 23.34 128.149 23.54 128.309 23.7C128.469 23.86 128.669 23.94 128.909 23.94Z" fill="white"/>
<path d="M152.4 32.32C151.373 32.32 150.407 32.1333 149.5 31.76C148.593 31.3867 147.793 30.8667 147.1 30.2C146.42 29.52 145.88 28.7267 145.48 27.82C145.093 26.9 144.9 25.9067 144.9 24.84C144.9 23.7733 145.093 22.7867 145.48 21.88C145.88 20.96 146.42 20.1667 147.1 19.5C147.793 18.82 148.593 18.2933 149.5 17.92C150.407 17.5467 151.373 17.36 152.4 17.36C153.493 17.36 154.5 17.5533 155.42 17.94C156.353 18.3267 157.133 18.8667 157.76 19.56L156.24 21.06C155.933 20.7133 155.58 20.42 155.18 20.18C154.793 19.94 154.367 19.76 153.9 19.64C153.433 19.5067 152.933 19.44 152.4 19.44C151.693 19.44 151.02 19.5667 150.38 19.82C149.74 20.0733 149.173 20.44 148.68 20.92C148.2 21.3867 147.82 21.9533 147.54 22.62C147.26 23.2733 147.12 24.0133 147.12 24.84C147.12 25.6667 147.26 26.4133 147.54 27.08C147.833 27.7333 148.22 28.3 148.7 28.78C149.193 29.2467 149.76 29.6067 150.4 29.86C151.04 30.1133 151.713 30.24 152.42 30.24C153.073 30.24 153.68 30.1467 154.24 29.96C154.813 29.7733 155.313 29.5067 155.74 29.16C156.167 28.8133 156.513 28.3933 156.78 27.9C157.047 27.3933 157.213 26.8267 157.28 26.2H152.38V24.26H159.34C159.367 24.42 159.393 24.6067 159.42 24.82C159.447 25.02 159.46 25.2133 159.46 25.4V25.42C159.46 26.4467 159.28 27.3867 158.92 28.24C158.573 29.0933 158.087 29.8267 157.46 30.44C156.833 31.04 156.087 31.5067 155.22 31.84C154.367 32.16 153.427 32.32 152.4 32.32ZM165.9 32.32C164.847 32.32 163.92 32.08 163.12 31.6C162.32 31.12 161.693 30.4733 161.24 29.66C160.787 28.8333 160.56 27.9133 160.56 26.9C160.56 25.8867 160.787 24.9733 161.24 24.16C161.693 23.3333 162.32 22.68 163.12 22.2C163.92 21.72 164.847 21.48 165.9 21.48C166.94 21.48 167.86 21.7267 168.66 22.22C169.46 22.7 170.087 23.3467 170.54 24.16C170.993 24.9733 171.22 25.8867 171.22 26.9C171.22 27.9133 170.993 28.8333 170.54 29.66C170.087 30.4733 169.46 31.12 168.66 31.6C167.86 32.08 166.94 32.32 165.9 32.32ZM165.9 30.34C166.46 30.34 166.98 30.2067 167.46 29.94C167.94 29.66 168.327 29.2667 168.62 28.76C168.927 28.24 169.08 27.62 169.08 26.9C169.08 26.18 168.927 25.5667 168.62 25.06C168.327 24.54 167.94 24.1467 167.46 23.88C166.98 23.6 166.46 23.46 165.9 23.46C165.34 23.46 164.813 23.6 164.32 23.88C163.84 24.1467 163.447 24.54 163.14 25.06C162.847 25.5667 162.7 26.18 162.7 26.9C162.7 27.62 162.847 28.24 163.14 28.76C163.447 29.2667 163.847 29.66 164.34 29.94C164.833 30.2067 165.353 30.34 165.9 30.34ZM178.009 32.32C176.956 32.32 176.029 32.08 175.229 31.6C174.429 31.12 173.803 30.4733 173.349 29.66C172.896 28.8333 172.669 27.9133 172.669 26.9C172.669 25.8867 172.896 24.9733 173.349 24.16C173.803 23.3333 174.429 22.68 175.229 22.2C176.029 21.72 176.956 21.48 178.009 21.48C179.049 21.48 179.969 21.7267 180.769 22.22C181.569 22.7 182.196 23.3467 182.649 24.16C183.103 24.9733 183.329 25.8867 183.329 26.9C183.329 27.9133 183.103 28.8333 182.649 29.66C182.196 30.4733 181.569 31.12 180.769 31.6C179.969 32.08 179.049 32.32 178.009 32.32ZM178.009 30.34C178.569 30.34 179.089 30.2067 179.569 29.94C180.049 29.66 180.436 29.2667 180.729 28.76C181.036 28.24 181.189 27.62 181.189 26.9C181.189 26.18 181.036 25.5667 180.729 25.06C180.436 24.54 180.049 24.1467 179.569 23.88C179.089 23.6 178.569 23.46 178.009 23.46C177.449 23.46 176.923 23.6 176.429 23.88C175.949 24.1467 175.556 24.54 175.249 25.06C174.956 25.5667 174.809 26.18 174.809 26.9C174.809 27.62 174.956 28.24 175.249 28.76C175.556 29.2667 175.956 29.66 176.449 29.94C176.943 30.2067 177.463 30.34 178.009 30.34ZM189.919 36.64C189.025 36.64 188.252 36.4933 187.599 36.2C186.959 35.92 186.439 35.5533 186.039 35.1C185.639 34.66 185.352 34.2067 185.179 33.74L187.179 32.9C187.392 33.4333 187.732 33.8667 188.199 34.2C188.679 34.5467 189.252 34.72 189.919 34.72C190.865 34.72 191.605 34.44 192.139 33.88C192.672 33.32 192.939 32.5267 192.939 31.5V30.52H192.819C192.499 30.9867 192.059 31.3667 191.499 31.66C190.939 31.9533 190.292 32.1 189.559 32.1C188.692 32.1 187.892 31.88 187.159 31.44C186.439 31 185.859 30.3867 185.419 29.6C184.992 28.8 184.779 27.8667 184.779 26.8C184.779 25.72 184.992 24.7867 185.419 24C185.859 23.2 186.439 22.58 187.159 22.14C187.892 21.7 188.692 21.48 189.559 21.48C190.292 21.48 190.939 21.6267 191.499 21.92C192.059 22.2 192.499 22.5867 192.819 23.08H192.939V21.8H194.999V31.46C194.999 32.5667 194.779 33.5067 194.339 34.28C193.912 35.0533 193.319 35.64 192.559 36.04C191.799 36.44 190.919 36.64 189.919 36.64ZM189.939 30.14C190.472 30.14 190.965 30.0133 191.419 29.76C191.885 29.4933 192.252 29.1133 192.519 28.62C192.799 28.1133 192.939 27.5067 192.939 26.8C192.939 26.0533 192.799 25.4333 192.519 24.94C192.252 24.4467 191.885 24.0733 191.419 23.82C190.965 23.5667 190.472 23.44 189.939 23.44C189.405 23.44 188.905 23.5667 188.439 23.82C187.985 24.0733 187.619 24.4533 187.339 24.96C187.059 25.4533 186.919 26.0667 186.919 26.8C186.919 27.52 187.059 28.1333 187.339 28.64C187.619 29.1333 187.985 29.5067 188.439 29.76C188.905 30.0133 189.405 30.14 189.939 30.14ZM197.546 32V17.68H199.706V32H197.546ZM206.815 32.32C205.815 32.32 204.921 32.0867 204.135 31.62C203.348 31.1533 202.728 30.5133 202.275 29.7C201.835 28.8867 201.615 27.96 201.615 26.92C201.615 25.9467 201.828 25.0467 202.255 24.22C202.681 23.3933 203.275 22.7333 204.035 22.24C204.808 21.7333 205.695 21.48 206.695 21.48C207.748 21.48 208.641 21.7067 209.375 22.16C210.121 22.6133 210.688 23.2333 211.075 24.02C211.461 24.8067 211.655 25.6933 211.655 26.68C211.655 26.8267 211.648 26.96 211.635 27.08C211.635 27.2 211.628 27.2933 211.615 27.36H203.735C203.788 27.92 203.928 28.4067 204.155 28.82C204.448 29.34 204.835 29.7333 205.315 30C205.795 30.2667 206.315 30.4 206.875 30.4C207.555 30.4 208.121 30.2467 208.575 29.94C209.041 29.62 209.408 29.2267 209.675 28.76L211.455 29.62C211.015 30.42 210.415 31.0733 209.655 31.58C208.895 32.0733 207.948 32.32 206.815 32.32ZM203.855 25.74H209.515C209.501 25.4867 209.435 25.22 209.315 24.94C209.195 24.6467 209.021 24.38 208.795 24.14C208.568 23.9 208.281 23.7067 207.935 23.56C207.588 23.4 207.181 23.32 206.715 23.32C206.128 23.32 205.608 23.4733 205.155 23.78C204.701 24.0733 204.348 24.4867 204.095 25.02C203.988 25.2467 203.908 25.4867 203.855 25.74ZM220.446 32L216.606 17.68H219.046L221.326 26.98L221.566 28.22H221.686L221.986 26.98L224.866 17.68H227.066L229.826 26.98L230.126 28.2H230.246L230.486 26.98L232.766 17.68H235.186L231.406 32H229.086L226.346 22.5L226.026 21.16H225.906L225.566 22.5L222.706 32H220.446ZM239.202 32.32C238.469 32.32 237.816 32.1733 237.242 31.88C236.682 31.5867 236.236 31.1867 235.902 30.68C235.582 30.16 235.422 29.5667 235.422 28.9C235.422 28.1667 235.609 27.5467 235.982 27.04C236.369 26.5333 236.882 26.1467 237.522 25.88C238.162 25.6133 238.869 25.48 239.642 25.48C240.069 25.48 240.462 25.5133 240.822 25.58C241.196 25.6333 241.516 25.7 241.782 25.78C242.062 25.86 242.282 25.9467 242.442 26.04V25.5C242.442 24.8333 242.202 24.3 241.722 23.9C241.242 23.5 240.622 23.3 239.862 23.3C239.342 23.3 238.849 23.42 238.382 23.66C237.916 23.8867 237.542 24.2 237.262 24.6L235.782 23.46C236.076 23.0467 236.429 22.6933 236.842 22.4C237.269 22.1067 237.742 21.88 238.262 21.72C238.796 21.56 239.349 21.48 239.922 21.48C241.402 21.48 242.542 21.8467 243.342 22.58C244.142 23.3 244.542 24.3133 244.542 25.62V32H242.442V30.74H242.322C242.149 31.0067 241.909 31.26 241.602 31.5C241.309 31.74 240.956 31.9333 240.542 32.08C240.142 32.24 239.696 32.32 239.202 32.32ZM239.582 30.56C240.142 30.56 240.636 30.4267 241.062 30.16C241.502 29.8933 241.842 29.5467 242.082 29.12C242.322 28.68 242.442 28.2067 242.442 27.7C242.149 27.5267 241.789 27.3867 241.362 27.28C240.949 27.16 240.509 27.1 240.042 27.1C239.162 27.1 238.536 27.2733 238.162 27.62C237.789 27.9667 237.602 28.4 237.602 28.92C237.602 29.4 237.782 29.7933 238.142 30.1C238.502 30.4067 238.982 30.56 239.582 30.56ZM246.94 32V17.68H249.1V32H246.94ZM251.667 32V17.68H253.827V32H251.667ZM260.936 32.32C259.936 32.32 259.042 32.0867 258.256 31.62C257.469 31.1533 256.849 30.5133 256.396 29.7C255.956 28.8867 255.736 27.96 255.736 26.92C255.736 25.9467 255.949 25.0467 256.376 24.22C256.802 23.3933 257.396 22.7333 258.156 22.24C258.929 21.7333 259.816 21.48 260.816 21.48C261.869 21.48 262.762 21.7067 263.496 22.16C264.242 22.6133 264.809 23.2333 265.196 24.02C265.582 24.8067 265.776 25.6933 265.776 26.68C265.776 26.8267 265.769 26.96 265.756 27.08C265.756 27.2 265.749 27.2933 265.736 27.36H257.856C257.909 27.92 258.049 28.4067 258.276 28.82C258.569 29.34 258.956 29.7333 259.436 30C259.916 30.2667 260.436 30.4 260.996 30.4C261.676 30.4 262.242 30.2467 262.696 29.94C263.162 29.62 263.529 29.2267 263.796 28.76L265.576 29.62C265.136 30.42 264.536 31.0733 263.776 31.58C263.016 32.0733 262.069 32.32 260.936 32.32ZM257.976 25.74H263.636C263.622 25.4867 263.556 25.22 263.436 24.94C263.316 24.6467 263.142 24.38 262.916 24.14C262.689 23.9 262.402 23.7067 262.056 23.56C261.709 23.4 261.302 23.32 260.836 23.32C260.249 23.32 259.729 23.4733 259.276 23.78C258.822 24.0733 258.469 24.4867 258.216 25.02C258.109 25.2467 258.029 25.4867 257.976 25.74ZM266.787 21.8H268.567V18.92H270.727V21.8H273.227V23.68H270.727V28.58C270.727 29.0867 270.827 29.4733 271.027 29.74C271.24 30.0067 271.593 30.14 272.087 30.14C272.327 30.14 272.54 30.1067 272.727 30.04C272.913 29.96 273.1 29.8667 273.287 29.76V31.86C273.06 31.9533 272.82 32.0267 272.567 32.08C272.313 32.1333 272.013 32.16 271.667 32.16C270.72 32.16 269.967 31.8867 269.407 31.34C268.847 30.78 268.567 30.0133 268.567 29.04V23.68H266.787V21.8Z" fill="white"/>
</svg>
