<svg width="321" height="50" viewBox="0 0 321 50" fill="none" xmlns="http://www.w3.org/2000/svg">
<rect x="0.5" y="0.5" width="320" height="49" rx="24.5" fill="#1F1F1F"/>
<path d="M51 22H21V17C21 14.2857 23.2018 12 25.8165 12H46.1835C48.7982 12 51 14.2857 51 17V22Z" fill="#34A853"/>
<path d="M51 26.0537H21V21.0537C21 18.3394 23.2018 16.0537 25.8165 16.0537H46.1835C48.7982 16.0537 51 18.3394 51 21.0537V26.0537Z" fill="#FBBC04"/>
<path d="M51 30.2468H21V25.2468C21 22.5325 23.2018 20.2468 25.8165 20.2468H46.1835C48.7982 20.2468 51 22.5325 51 25.2468V30.2468Z" fill="#EA4335"/>
<path d="M21 23.2752L40.0411 27.6789C42.2329 28.2294 44.6986 27.6789 46.4795 26.3028L51 23V33.3211C51 35.9358 48.8082 38 46.2055 38H25.7945C23.1918 38 21 35.9358 21 33.3211V23.2752Z" fill="url(#paint0_linear_1819_25013)"/>
<path d="M69.74 32.32C68.6733 32.32 67.7333 32.08 66.92 31.6C66.12 31.12 65.4933 30.4467 65.04 29.58C64.5867 28.7133 64.36 27.6867 64.36 26.5V17.68H66.54V26.62C66.54 27.66 66.8133 28.5267 67.36 29.22C67.9067 29.9 68.7133 30.24 69.78 30.24C70.78 30.24 71.5667 29.9267 72.14 29.3C72.7133 28.6733 73 27.78 73 26.62V17.68H75.18L75.2 26.44C75.2 27.3867 75.04 28.2467 74.72 29.02L77.18 30.6L76.1 32.28L73.66 30.72C73.18 31.2267 72.6067 31.62 71.94 31.9C71.2733 32.18 70.54 32.32 69.74 32.32ZM85.1397 36.74V32.06L85.2597 30.68H85.1397C84.8464 31.1467 84.4197 31.54 83.8597 31.86C83.2997 32.1667 82.6864 32.32 82.0197 32.32C80.8064 32.32 79.893 31.9533 79.2797 31.22C78.6664 30.4733 78.3597 29.4733 78.3597 28.22V22.12H80.5197V27.92C80.5197 28.7467 80.713 29.36 81.0997 29.76C81.4864 30.1467 81.9664 30.34 82.5397 30.34C83.073 30.34 83.533 30.2067 83.9197 29.94C84.3064 29.66 84.6064 29.3 84.8197 28.86C85.033 28.4067 85.1397 27.9133 85.1397 27.38V17.68H87.2797V34.86H90.5797V36.74H85.1397ZM93.4241 32.32C92.2507 32.32 91.3574 31.9533 90.7441 31.22C90.1441 30.4733 89.8441 29.4733 89.8441 28.22V17.68H92.0041V22.12H98.6241V24H92.0041V27.92C92.0041 28.7467 92.1907 29.36 92.5641 29.76C92.9374 30.1467 93.3974 30.34 93.9441 30.34C94.4641 30.34 94.9107 30.2067 95.2841 29.94C95.6574 29.66 95.9441 29.3 96.1441 28.86C96.3574 28.4067 96.4641 27.9133 96.4641 27.38V26.26H98.6041V32H96.5841V30.68H96.4641C96.1841 31.1467 95.7707 31.54 95.2241 31.86C94.6774 32.1667 94.0774 32.32 93.4241 32.32ZM101.135 36.74V22.12H103.295V34.86H107.495V36.74H101.135ZM109.166 32.32C107.966 32.32 107.072 31.96 106.486 31.24C105.899 30.5067 105.606 29.54 105.606 28.34V22.12H107.746V27.98C107.746 28.7933 107.919 29.3933 108.266 29.78C108.626 30.1533 109.119 30.34 109.746 30.34C110.239 30.34 110.672 30.2067 111.046 29.94C111.419 29.66 111.706 29.2867 111.906 28.82C112.119 28.3533 112.226 27.8333 112.226 27.26V22.12H114.386V27.98C114.386 28.7933 114.559 29.3933 114.906 29.78C115.266 30.1533 115.772 30.34 116.426 30.34C116.906 30.34 117.326 30.2 117.686 29.92C118.059 29.64 118.346 29.2667 118.546 28.8C118.746 28.3333 118.846 27.8133 118.846 27.24V22.12H121.006V32H118.966V30.6H118.846C118.552 31.0933 118.126 31.5067 117.566 31.84C117.006 32.16 116.386 32.32 115.706 32.32C114.946 32.32 114.299 32.14 113.766 31.78C113.232 31.42 112.852 30.9667 112.626 30.42C112.306 30.9533 111.852 31.4067 111.266 31.78C110.692 32.14 109.992 32.32 109.166 32.32ZM127.88 37.06C127.013 37.06 126.26 36.92 125.62 36.64C124.993 36.36 124.48 36 124.08 35.56C123.693 35.1333 123.42 34.6933 123.26 34.24L125.26 33.4C125.46 33.9067 125.787 34.3267 126.24 34.66C126.707 34.9933 127.253 35.16 127.88 35.16C128.76 35.16 129.46 34.8867 129.98 34.34C130.513 33.8067 130.78 33.0467 130.78 32.06V30.76H130.66C130.34 31.2267 129.907 31.6 129.36 31.88C128.827 32.16 128.213 32.3 127.52 32.3C126.693 32.3 125.927 32.0867 125.22 31.66C124.513 31.22 123.947 30.6067 123.52 29.82C123.093 29.0333 122.88 28.1133 122.88 27.06C122.88 26.0067 123.093 25.0867 123.52 24.3C123.947 23.5 124.513 22.8867 125.22 22.46C125.927 22.02 126.693 21.8 127.52 21.8C128.213 21.8 128.827 21.9467 129.36 22.24C129.907 22.5333 130.333 22.9133 130.64 23.38H130.76V22.1H132.82V32.02C132.82 33.0867 132.613 33.9933 132.2 34.74C131.787 35.5 131.207 36.0733 130.46 36.46C129.713 36.86 128.853 37.06 127.88 37.06ZM127.9 30.36C128.407 30.36 128.873 30.2333 129.3 29.98C129.74 29.7133 130.093 29.3333 130.36 28.84C130.64 28.3467 130.78 27.7533 130.78 27.06C130.78 26.34 130.64 25.7333 130.36 25.24C130.093 24.7467 129.74 24.3733 129.3 24.12C128.873 23.8667 128.407 23.74 127.9 23.74C127.393 23.74 126.92 23.8733 126.48 24.14C126.04 24.3933 125.687 24.7667 125.42 25.26C125.153 25.7533 125.02 26.3533 125.02 27.06C125.02 27.7667 125.153 28.3667 125.42 28.86C125.687 29.34 126.04 29.7133 126.48 29.98C126.92 30.2333 127.393 30.36 127.9 30.36ZM138.914 32.32C137.701 32.32 136.788 31.9533 136.174 31.22C135.561 30.4733 135.254 29.4733 135.254 28.22V19.56H133.254V17.68H137.414V27.92C137.414 28.7467 137.608 29.36 137.994 29.76C138.381 30.1467 138.861 30.34 139.434 30.34C139.968 30.34 140.428 30.2067 140.814 29.94C141.201 29.66 141.501 29.3 141.714 28.86C141.928 28.4067 142.034 27.9133 142.034 27.38V22.12H144.174V32H142.154V30.68H142.034C141.741 31.1467 141.314 31.54 140.754 31.86C140.194 32.1667 139.581 32.32 138.914 32.32ZM150.221 32.32C149.048 32.32 148.154 31.9533 147.541 31.22C146.941 30.4733 146.641 29.4733 146.641 28.22V17.68H148.801V22.12H155.421V24H148.801V27.92C148.801 28.7467 148.988 29.36 149.361 29.76C149.734 30.1467 150.194 30.34 150.741 30.34C151.261 30.34 151.708 30.2067 152.081 29.94C152.454 29.66 152.741 29.3 152.941 28.86C153.154 28.4067 153.261 27.9133 153.261 27.38V26.26H155.401V32H153.381V30.68H153.261C152.981 31.1467 152.568 31.54 152.021 31.86C151.474 32.1667 150.874 32.32 150.221 32.32ZM157.932 36.74V22.12H160.092V34.86H162.892V36.74H157.932Z" fill="white"/>
<path d="M177.4 32.32C176.373 32.32 175.407 32.1333 174.5 31.76C173.607 31.3867 172.813 30.8667 172.12 30.2C171.427 29.52 170.88 28.7267 170.48 27.82C170.093 26.9 169.9 25.9067 169.9 24.84C169.9 23.7733 170.093 22.7867 170.48 21.88C170.88 20.96 171.42 20.1667 172.1 19.5C172.793 18.82 173.593 18.2933 174.5 17.92C175.407 17.5467 176.373 17.36 177.4 17.36C178.493 17.36 179.5 17.5533 180.42 17.94C181.353 18.3267 182.133 18.8667 182.76 19.56L181.24 21.06C180.773 20.54 180.213 20.14 179.56 19.86C178.92 19.58 178.2 19.44 177.4 19.44C176.453 19.44 175.58 19.6667 174.78 20.12C173.98 20.56 173.333 21.1867 172.84 22C172.36 22.8 172.12 23.7467 172.12 24.84C172.12 25.9333 172.367 26.8867 172.86 27.7C173.353 28.5 174 29.1267 174.8 29.58C175.6 30.02 176.473 30.24 177.42 30.24C178.287 30.24 179.073 30.08 179.78 29.76C180.487 29.4267 181.053 28.96 181.48 28.36C181.92 27.76 182.187 27.04 182.28 26.2H177.38V24.26H184.34C184.42 24.62 184.46 25 184.46 25.4V25.42C184.46 26.8067 184.153 28.02 183.54 29.06C182.94 30.0867 182.107 30.8867 181.04 31.46C179.973 32.0333 178.76 32.32 177.4 32.32ZM190.9 32.32C189.847 32.32 188.92 32.08 188.12 31.6C187.32 31.12 186.693 30.4733 186.24 29.66C185.787 28.8467 185.56 27.9267 185.56 26.9C185.56 25.8867 185.787 24.9733 186.24 24.16C186.693 23.3333 187.32 22.68 188.12 22.2C188.92 21.72 189.847 21.48 190.9 21.48C191.94 21.48 192.86 21.72 193.66 22.2C194.46 22.68 195.087 23.3333 195.54 24.16C195.993 24.9733 196.22 25.8867 196.22 26.9C196.22 27.9267 195.993 28.8467 195.54 29.66C195.087 30.4733 194.46 31.12 193.66 31.6C192.86 32.08 191.94 32.32 190.9 32.32ZM190.9 30.34C191.46 30.34 191.98 30.2067 192.46 29.94C192.94 29.66 193.327 29.2667 193.62 28.76C193.927 28.24 194.08 27.62 194.08 26.9C194.08 26.18 193.927 25.5667 193.62 25.06C193.327 24.54 192.94 24.1467 192.46 23.88C191.98 23.6 191.46 23.46 190.9 23.46C190.34 23.46 189.813 23.6 189.32 23.88C188.84 24.1467 188.447 24.54 188.14 25.06C187.847 25.5667 187.7 26.18 187.7 26.9C187.7 27.62 187.847 28.24 188.14 28.76C188.447 29.2667 188.84 29.66 189.32 29.94C189.813 30.2067 190.34 30.34 190.9 30.34ZM203.009 32.32C201.956 32.32 201.029 32.08 200.229 31.6C199.429 31.12 198.803 30.4733 198.349 29.66C197.896 28.8467 197.669 27.9267 197.669 26.9C197.669 25.8867 197.896 24.9733 198.349 24.16C198.803 23.3333 199.429 22.68 200.229 22.2C201.029 21.72 201.956 21.48 203.009 21.48C204.049 21.48 204.969 21.72 205.769 22.2C206.569 22.68 207.196 23.3333 207.649 24.16C208.103 24.9733 208.329 25.8867 208.329 26.9C208.329 27.9267 208.103 28.8467 207.649 29.66C207.196 30.4733 206.569 31.12 205.769 31.6C204.969 32.08 204.049 32.32 203.009 32.32ZM203.009 30.34C203.569 30.34 204.089 30.2067 204.569 29.94C205.049 29.66 205.436 29.2667 205.729 28.76C206.036 28.24 206.189 27.62 206.189 26.9C206.189 26.18 206.036 25.5667 205.729 25.06C205.436 24.54 205.049 24.1467 204.569 23.88C204.089 23.6 203.569 23.46 203.009 23.46C202.449 23.46 201.923 23.6 201.429 23.88C200.949 24.1467 200.556 24.54 200.249 25.06C199.956 25.5667 199.809 26.18 199.809 26.9C199.809 27.62 199.956 28.24 200.249 28.76C200.556 29.2667 200.949 29.66 201.429 29.94C201.923 30.2067 202.449 30.34 203.009 30.34ZM214.919 36.64C214.025 36.64 213.252 36.4933 212.599 36.2C211.959 35.92 211.439 35.5533 211.039 35.1C210.639 34.66 210.352 34.2067 210.179 33.74L212.179 32.9C212.392 33.4333 212.732 33.8667 213.199 34.2C213.679 34.5467 214.252 34.72 214.919 34.72C215.852 34.72 216.585 34.44 217.119 33.88C217.665 33.32 217.939 32.5267 217.939 31.5V30.52H217.819C217.499 31 217.052 31.3867 216.479 31.68C215.919 31.96 215.279 32.1 214.559 32.1C213.692 32.1 212.899 31.88 212.179 31.44C211.459 31 210.879 30.3867 210.439 29.6C209.999 28.8 209.779 27.8667 209.779 26.8C209.779 25.72 209.999 24.7867 210.439 24C210.879 23.2 211.459 22.58 212.179 22.14C212.899 21.7 213.692 21.48 214.559 21.48C215.279 21.48 215.919 21.6267 216.479 21.92C217.052 22.2133 217.499 22.6 217.819 23.08H217.939V21.8H219.999V31.46C219.999 32.5667 219.779 33.5067 219.339 34.28C218.912 35.0533 218.319 35.64 217.559 36.04C216.799 36.44 215.919 36.64 214.919 36.64ZM214.939 30.14C215.472 30.14 215.965 30.0133 216.419 29.76C216.872 29.4933 217.239 29.1133 217.519 28.62C217.799 28.1133 217.939 27.5067 217.939 26.8C217.939 26.0667 217.799 25.4533 217.519 24.96C217.239 24.4533 216.872 24.0733 216.419 23.82C215.965 23.5667 215.472 23.44 214.939 23.44C214.405 23.44 213.905 23.5733 213.439 23.84C212.985 24.0933 212.619 24.4667 212.339 24.96C212.059 25.4533 211.919 26.0667 211.919 26.8C211.919 27.52 212.059 28.1333 212.339 28.64C212.619 29.1333 212.985 29.5067 213.439 29.76C213.905 30.0133 214.405 30.14 214.939 30.14ZM222.546 32V17.68H224.706V32H222.546ZM231.815 32.32C230.815 32.32 229.921 32.0867 229.135 31.62C228.348 31.1533 227.728 30.5133 227.275 29.7C226.835 28.8867 226.615 27.96 226.615 26.92C226.615 25.9467 226.828 25.0467 227.255 24.22C227.681 23.3933 228.275 22.7333 229.035 22.24C229.808 21.7333 230.695 21.48 231.695 21.48C232.748 21.48 233.641 21.7067 234.375 22.16C235.121 22.6133 235.688 23.2333 236.075 24.02C236.461 24.8067 236.655 25.6933 236.655 26.68C236.655 26.8267 236.648 26.96 236.635 27.08C236.635 27.2 236.628 27.2933 236.615 27.36H228.735C228.841 28.3733 229.195 29.1333 229.795 29.64C230.408 30.1467 231.101 30.4 231.875 30.4C232.568 30.4 233.141 30.2467 233.595 29.94C234.048 29.62 234.408 29.2267 234.675 28.76L236.455 29.62C236.015 30.42 235.415 31.0733 234.655 31.58C233.895 32.0733 232.948 32.32 231.815 32.32ZM231.715 23.32C230.995 23.32 230.381 23.54 229.875 23.98C229.368 24.42 229.028 25.0067 228.855 25.74H234.515C234.488 25.3933 234.375 25.0333 234.175 24.66C233.975 24.2867 233.668 23.9733 233.255 23.72C232.855 23.4533 232.341 23.32 231.715 23.32ZM245.446 32L241.606 17.68H244.046L246.326 26.98L246.566 28.22H246.686L246.986 26.98L249.866 17.68H252.066L254.826 26.98L255.126 28.2H255.246L255.486 26.98L257.766 17.68H260.186L256.406 32H254.086L251.346 22.5L251.026 21.16H250.906L250.566 22.5L247.706 32H245.446ZM264.202 32.32C263.469 32.32 262.816 32.18 262.242 31.9C261.669 31.6067 261.222 31.2 260.902 30.68C260.582 30.16 260.422 29.5667 260.422 28.9C260.422 28.18 260.609 27.5667 260.982 27.06C261.369 26.54 261.882 26.1467 262.522 25.88C263.162 25.6133 263.869 25.48 264.642 25.48C265.282 25.48 265.842 25.54 266.322 25.66C266.816 25.78 267.189 25.9067 267.442 26.04V25.5C267.442 24.8333 267.202 24.3 266.722 23.9C266.242 23.5 265.622 23.3 264.862 23.3C264.342 23.3 263.849 23.42 263.382 23.66C262.916 23.8867 262.542 24.2 262.262 24.6L260.782 23.46C261.222 22.8467 261.802 22.3667 262.522 22.02C263.256 21.66 264.056 21.48 264.922 21.48C266.402 21.48 267.542 21.8467 268.342 22.58C269.142 23.3 269.542 24.3133 269.542 25.62V32H267.442V30.74H267.322C267.056 31.1533 266.656 31.52 266.122 31.84C265.589 32.16 264.949 32.32 264.202 32.32ZM264.582 30.56C265.142 30.56 265.636 30.4267 266.062 30.16C266.489 29.8933 266.822 29.5467 267.062 29.12C267.316 28.68 267.442 28.2067 267.442 27.7C267.136 27.5267 266.776 27.3867 266.362 27.28C265.949 27.16 265.509 27.1 265.042 27.1C264.162 27.1 263.536 27.28 263.162 27.64C262.789 27.9867 262.602 28.4133 262.602 28.92C262.602 29.4 262.782 29.7933 263.142 30.1C263.502 30.4067 263.982 30.56 264.582 30.56ZM271.94 32V17.68H274.1V32H271.94ZM276.667 32V17.68H278.827V32H276.667ZM285.936 32.32C284.936 32.32 284.042 32.0867 283.256 31.62C282.469 31.1533 281.849 30.5133 281.396 29.7C280.956 28.8867 280.736 27.96 280.736 26.92C280.736 25.9467 280.949 25.0467 281.376 24.22C281.802 23.3933 282.396 22.7333 283.156 22.24C283.929 21.7333 284.816 21.48 285.816 21.48C286.869 21.48 287.762 21.7067 288.496 22.16C289.242 22.6133 289.809 23.2333 290.196 24.02C290.582 24.8067 290.776 25.6933 290.776 26.68C290.776 26.8267 290.769 26.96 290.756 27.08C290.756 27.2 290.749 27.2933 290.736 27.36H282.856C282.962 28.3733 283.316 29.1333 283.916 29.64C284.529 30.1467 285.222 30.4 285.996 30.4C286.689 30.4 287.262 30.2467 287.716 29.94C288.169 29.62 288.529 29.2267 288.796 28.76L290.576 29.62C290.136 30.42 289.536 31.0733 288.776 31.58C288.016 32.0733 287.069 32.32 285.936 32.32ZM285.836 23.32C285.116 23.32 284.502 23.54 283.996 23.98C283.489 24.42 283.149 25.0067 282.976 25.74H288.636C288.609 25.3933 288.496 25.0333 288.296 24.66C288.096 24.2867 287.789 23.9733 287.376 23.72C286.976 23.4533 286.462 23.32 285.836 23.32ZM293.567 29.04V23.68H291.787V21.8H293.567V18.92H295.727V21.8H298.227V23.68H295.727V28.58C295.727 29.0867 295.827 29.4733 296.027 29.74C296.24 30.0067 296.593 30.14 297.087 30.14C297.34 30.14 297.553 30.1067 297.727 30.04C297.913 29.9733 298.1 29.88 298.287 29.76V31.86C298.06 31.9533 297.82 32.0267 297.567 32.08C297.313 32.1333 297.013 32.16 296.667 32.16C295.72 32.16 294.967 31.8867 294.407 31.34C293.847 30.78 293.567 30.0133 293.567 29.04Z" fill="white"/>
<rect x="0.5" y="0.5" width="320" height="49" rx="24.5" stroke="#747775"/>
<defs>
<linearGradient id="paint0_linear_1819_25013" x1="34.5703" y1="30.7864" x2="18.7309" y2="48.9133" gradientUnits="userSpaceOnUse">
<stop stop-color="#4285F4"/>
<stop offset="1" stop-color="#1B74E8"/>
</linearGradient>
</defs>
</svg>
