<svg width="392" height="50" viewBox="0 0 392 50" fill="none" xmlns="http://www.w3.org/2000/svg">
<rect x="0.5" y="0.5" width="391" height="49" rx="24.5" fill="#1F1F1F"/>
<path d="M51 22H21V17C21 14.2857 23.2018 12 25.8165 12H46.1835C48.7982 12 51 14.2857 51 17V22Z" fill="#34A853"/>
<path d="M51 26.0537H21V21.0537C21 18.3394 23.2018 16.0537 25.8165 16.0537H46.1835C48.7982 16.0537 51 18.3394 51 21.0537V26.0537Z" fill="#FBBC04"/>
<path d="M51 30.2468H21V25.2468C21 22.5325 23.2018 20.2468 25.8165 20.2468H46.1835C48.7982 20.2468 51 22.5325 51 25.2468V30.2468Z" fill="#EA4335"/>
<path d="M21 23.2752L40.0411 27.6789C42.2329 28.2294 44.6986 27.6789 46.4795 26.3028L51 23V33.3211C51 35.9358 48.8082 38 46.2055 38H25.7945C23.1918 38 21 35.9358 21 33.3211V23.2752Z" fill="url(#paint0_linear_1819_24253)"/>
<path d="M64.62 32V17.68H66.82V29.92H72.98V32H64.62ZM76.1055 20.3C75.7055 20.3 75.3588 20.16 75.0655 19.88C74.7855 19.5867 74.6455 19.24 74.6455 18.84C74.6455 18.44 74.7855 18.1 75.0655 17.82C75.3588 17.54 75.7055 17.4 76.1055 17.4C76.5055 17.4 76.8455 17.54 77.1255 17.82C77.4188 18.1 77.5655 18.44 77.5655 18.84C77.5655 19.24 77.4188 19.5867 77.1255 19.88C76.8455 20.16 76.5055 20.3 76.1055 20.3ZM75.0255 32V21.8H77.1855V32H75.0255ZM83.5855 32.32C82.3588 32.32 81.3788 32.0533 80.6455 31.52C79.9121 30.9733 79.4055 30.3267 79.1255 29.58L81.0655 28.74C81.3055 29.2867 81.6521 29.7067 82.1055 30C82.5588 30.28 83.0721 30.42 83.6455 30.42C84.1788 30.42 84.6388 30.3267 85.0255 30.14C85.4121 29.94 85.6055 29.62 85.6055 29.18C85.6055 28.7533 85.4121 28.44 85.0255 28.24C84.6388 28.04 84.1588 27.8667 83.5855 27.72L82.3655 27.44C81.8721 27.32 81.4121 27.1333 80.9855 26.88C80.5588 26.6267 80.2121 26.3 79.9455 25.9C79.6788 25.4867 79.5455 25.0067 79.5455 24.46C79.5455 23.86 79.7255 23.34 80.0855 22.9C80.4455 22.4467 80.9188 22.1 81.5055 21.86C82.1055 21.6067 82.7521 21.48 83.4455 21.48C84.3921 21.48 85.2188 21.6667 85.9255 22.04C86.6455 22.4 87.1721 22.9467 87.5055 23.68L85.6455 24.52C85.4055 24.0667 85.0921 23.7533 84.7055 23.58C84.3321 23.3933 83.9188 23.3 83.4655 23.3C82.9588 23.3 82.5321 23.4067 82.1855 23.62C81.8521 23.8333 81.6855 24.1 81.6855 24.42C81.6855 24.7667 81.8321 25.04 82.1255 25.24C82.4321 25.44 82.8055 25.6 83.2455 25.72L84.7255 26.08C85.7388 26.3333 86.4988 26.72 87.0055 27.24C87.5121 27.7467 87.7655 28.3667 87.7655 29.1C87.7655 29.7533 87.5788 30.3267 87.2055 30.82C86.8321 31.3 86.3255 31.6733 85.6855 31.94C85.0588 32.1933 84.3588 32.32 83.5855 32.32ZM92.9483 32.32C92.2149 32.32 91.5616 32.18 90.9883 31.9C90.4149 31.6067 89.9683 31.2 89.6483 30.68C89.3283 30.16 89.1683 29.5667 89.1683 28.9C89.1683 28.18 89.3549 27.5667 89.7283 27.06C90.1149 26.54 90.6283 26.1467 91.2683 25.88C91.9083 25.6133 92.6149 25.48 93.3883 25.48C94.0283 25.48 94.5883 25.54 95.0683 25.66C95.5616 25.78 95.9349 25.9067 96.1883 26.04V25.5C96.1883 24.8333 95.9483 24.3 95.4683 23.9C94.9883 23.5 94.3683 23.3 93.6083 23.3C93.0883 23.3 92.5949 23.42 92.1283 23.66C91.6616 23.8867 91.2883 24.2 91.0083 24.6L89.5283 23.46C89.9683 22.8467 90.5483 22.3667 91.2683 22.02C92.0016 21.66 92.8016 21.48 93.6683 21.48C95.1483 21.48 96.2883 21.8467 97.0883 22.58C97.8883 23.3 98.2883 24.3133 98.2883 25.62V32H96.1883V30.74H96.0683C95.8016 31.1533 95.4016 31.52 94.8683 31.84C94.3349 32.16 93.6949 32.32 92.9483 32.32ZM93.3283 30.56C93.8883 30.56 94.3816 30.4267 94.8083 30.16C95.2349 29.8933 95.5683 29.5467 95.8083 29.12C96.0616 28.68 96.1883 28.2067 96.1883 27.7C95.8816 27.5267 95.5216 27.3867 95.1083 27.28C94.6949 27.16 94.2549 27.1 93.7883 27.1C92.9083 27.1 92.2816 27.28 91.9083 27.64C91.5349 27.9867 91.3483 28.4133 91.3483 28.92C91.3483 29.4 91.5283 29.7933 91.8883 30.1C92.2483 30.4067 92.7283 30.56 93.3283 30.56ZM100.666 32V21.8H102.706V23.2H102.826C103.12 22.7067 103.546 22.3 104.106 21.98C104.666 21.6467 105.286 21.48 105.966 21.48C106.726 21.48 107.373 21.66 107.906 22.02C108.44 22.38 108.82 22.8333 109.046 23.38C109.38 22.8467 109.833 22.4 110.406 22.04C110.98 21.6667 111.68 21.48 112.506 21.48C113.706 21.48 114.6 21.8467 115.186 22.58C115.773 23.3 116.066 24.26 116.066 25.46V32H113.926V25.82C113.926 25.0067 113.746 24.4133 113.386 24.04C113.04 23.6533 112.553 23.46 111.926 23.46C111.433 23.46 111 23.6 110.626 23.88C110.253 24.1467 109.96 24.5133 109.746 24.98C109.546 25.4467 109.446 25.9667 109.446 26.54V32H107.306V25.82C107.306 25.0067 107.126 24.4133 106.766 24.04C106.406 23.6533 105.9 23.46 105.246 23.46C104.766 23.46 104.346 23.6 103.986 23.88C103.626 24.16 103.34 24.5333 103.126 25C102.926 25.4667 102.826 25.9867 102.826 26.56V32H100.666ZM119.738 20.3C119.338 20.3 118.992 20.16 118.698 19.88C118.418 19.5867 118.278 19.24 118.278 18.84C118.278 18.44 118.418 18.1 118.698 17.82C118.992 17.54 119.338 17.4 119.738 17.4C120.138 17.4 120.478 17.54 120.758 17.82C121.052 18.1 121.198 18.44 121.198 18.84C121.198 19.24 121.052 19.5867 120.758 19.88C120.478 20.16 120.138 20.3 119.738 20.3ZM118.658 32V21.8H120.818V32H118.658ZM123.498 32V21.8H125.538V23.2H125.658C125.952 22.7067 126.385 22.3 126.958 21.98C127.545 21.6467 128.185 21.48 128.878 21.48C130.132 21.48 131.072 21.8533 131.698 22.6C132.325 23.3467 132.638 24.3333 132.638 25.56V32H130.498V25.84C130.498 25.0133 130.292 24.4133 129.878 24.04C129.465 23.6533 128.925 23.46 128.258 23.46C127.738 23.46 127.285 23.6067 126.898 23.9C126.512 24.18 126.205 24.5533 125.978 25.02C125.765 25.4867 125.658 25.9867 125.658 26.52V32H123.498ZM139.76 32.32C138.76 32.32 137.867 32.0867 137.08 31.62C136.293 31.1533 135.673 30.5133 135.22 29.7C134.78 28.8867 134.56 27.96 134.56 26.92C134.56 25.9467 134.773 25.0467 135.2 24.22C135.627 23.3933 136.22 22.7333 136.98 22.24C137.753 21.7333 138.64 21.48 139.64 21.48C140.693 21.48 141.587 21.7067 142.32 22.16C143.067 22.6133 143.633 23.2333 144.02 24.02C144.407 24.8067 144.6 25.6933 144.6 26.68C144.6 26.8267 144.593 26.96 144.58 27.08C144.58 27.2 144.573 27.2933 144.56 27.36H136.68C136.787 28.3733 137.14 29.1333 137.74 29.64C138.353 30.1467 139.047 30.4 139.82 30.4C140.513 30.4 141.087 30.2467 141.54 29.94C141.993 29.62 142.353 29.2267 142.62 28.76L144.4 29.62C143.96 30.42 143.36 31.0733 142.6 31.58C141.84 32.0733 140.893 32.32 139.76 32.32ZM139.66 23.32C138.94 23.32 138.327 23.54 137.82 23.98C137.313 24.42 136.973 25.0067 136.8 25.74H142.46C142.433 25.3933 142.32 25.0333 142.12 24.66C141.92 24.2867 141.613 23.9733 141.2 23.72C140.8 23.4533 140.287 23.32 139.66 23.32ZM154.472 32.32C153.738 32.32 153.085 32.18 152.512 31.9C151.938 31.6067 151.492 31.2 151.172 30.68C150.852 30.16 150.692 29.5667 150.692 28.9C150.692 28.18 150.878 27.5667 151.252 27.06C151.638 26.54 152.152 26.1467 152.792 25.88C153.432 25.6133 154.138 25.48 154.912 25.48C155.552 25.48 156.112 25.54 156.592 25.66C157.085 25.78 157.458 25.9067 157.712 26.04V25.5C157.712 24.8333 157.472 24.3 156.992 23.9C156.512 23.5 155.892 23.3 155.132 23.3C154.612 23.3 154.118 23.42 153.652 23.66C153.185 23.8867 152.812 24.2 152.532 24.6L151.052 23.46C151.492 22.8467 152.072 22.3667 152.792 22.02C153.525 21.66 154.325 21.48 155.192 21.48C156.672 21.48 157.812 21.8467 158.612 22.58C159.412 23.3 159.812 24.3133 159.812 25.62V32H157.712V30.74H157.592C157.325 31.1533 156.925 31.52 156.392 31.84C155.858 32.16 155.218 32.32 154.472 32.32ZM154.852 30.56C155.412 30.56 155.905 30.4267 156.332 30.16C156.758 29.8933 157.092 29.5467 157.332 29.12C157.585 28.68 157.712 28.2067 157.712 27.7C157.405 27.5267 157.045 27.3867 156.632 27.28C156.218 27.16 155.778 27.1 155.312 27.1C154.432 27.1 153.805 27.28 153.432 27.64C153.058 27.9867 152.872 28.4133 152.872 28.92C152.872 29.4 153.052 29.7933 153.412 30.1C153.772 30.4067 154.252 30.56 154.852 30.56ZM165.812 32.32C164.585 32.32 163.605 32.0533 162.872 31.52C162.139 30.9733 161.632 30.3267 161.352 29.58L163.292 28.74C163.532 29.2867 163.879 29.7067 164.332 30C164.785 30.28 165.299 30.42 165.872 30.42C166.405 30.42 166.865 30.3267 167.252 30.14C167.639 29.94 167.832 29.62 167.832 29.18C167.832 28.7533 167.639 28.44 167.252 28.24C166.865 28.04 166.385 27.8667 165.812 27.72L164.592 27.44C164.099 27.32 163.639 27.1333 163.212 26.88C162.785 26.6267 162.439 26.3 162.172 25.9C161.905 25.4867 161.772 25.0067 161.772 24.46C161.772 23.86 161.952 23.34 162.312 22.9C162.672 22.4467 163.145 22.1 163.732 21.86C164.332 21.6067 164.979 21.48 165.672 21.48C166.619 21.48 167.445 21.6667 168.152 22.04C168.872 22.4 169.399 22.9467 169.732 23.68L167.872 24.52C167.632 24.0667 167.319 23.7533 166.932 23.58C166.559 23.3933 166.145 23.3 165.692 23.3C165.185 23.3 164.759 23.4067 164.412 23.62C164.079 23.8333 163.912 24.1 163.912 24.42C163.912 24.7667 164.059 25.04 164.352 25.24C164.659 25.44 165.032 25.6 165.472 25.72L166.952 26.08C167.965 26.3333 168.725 26.72 169.232 27.24C169.739 27.7467 169.992 28.3667 169.992 29.1C169.992 29.7533 169.805 30.3267 169.432 30.82C169.059 31.3 168.552 31.6733 167.912 31.94C167.285 32.1933 166.585 32.32 165.812 32.32ZM175.577 32.32C174.324 32.32 173.377 31.9467 172.737 31.2C172.111 30.44 171.797 29.4133 171.797 28.12V21.8H173.957V27.82C173.957 28.6867 174.157 29.3267 174.557 29.74C174.971 30.14 175.484 30.34 176.097 30.34C176.644 30.34 177.117 30.2 177.517 29.92C177.931 29.6267 178.244 29.2533 178.457 28.8C178.684 28.3333 178.797 27.8267 178.797 27.28V21.8H180.937V32H178.917V30.62H178.797C178.504 31.1 178.064 31.5067 177.477 31.84C176.904 32.16 176.271 32.32 175.577 32.32ZM183.479 32V17.68H185.639V26.12L189.959 21.8H192.639V21.92L188.699 25.82L192.779 31.88V32H190.219L187.179 27.32L185.639 28.84V32H183.479ZM198.63 32.32C197.577 32.32 196.65 32.08 195.85 31.6C195.05 31.12 194.424 30.4733 193.97 29.66C193.517 28.8467 193.29 27.9267 193.29 26.9C193.29 25.8867 193.517 24.9733 193.97 24.16C194.424 23.3333 195.05 22.68 195.85 22.2C196.65 21.72 197.577 21.48 198.63 21.48C199.67 21.48 200.59 21.72 201.39 22.2C202.19 22.68 202.817 23.3333 203.27 24.16C203.724 24.9733 203.95 25.8867 203.95 26.9C203.95 27.9267 203.724 28.8467 203.27 29.66C202.817 30.4733 202.19 31.12 201.39 31.6C200.59 32.08 199.67 32.32 198.63 32.32ZM198.63 30.34C199.19 30.34 199.71 30.2067 200.19 29.94C200.67 29.66 201.057 29.2667 201.35 28.76C201.657 28.24 201.81 27.62 201.81 26.9C201.81 26.18 201.657 25.5667 201.35 25.06C201.057 24.54 200.67 24.1467 200.19 23.88C199.71 23.6 199.19 23.46 198.63 23.46C198.07 23.46 197.544 23.6 197.05 23.88C196.57 24.1467 196.177 24.54 195.87 25.06C195.577 25.5667 195.43 26.18 195.43 26.9C195.43 27.62 195.577 28.24 195.87 28.76C196.177 29.2667 196.57 29.66 197.05 29.94C197.544 30.2067 198.07 30.34 198.63 30.34ZM205.842 32V17.68H208.002V21.6L207.882 23.2H208.002C208.282 22.7067 208.709 22.3 209.282 21.98C209.869 21.6467 210.515 21.48 211.222 21.48C212.489 21.48 213.442 21.86 214.082 22.62C214.722 23.3667 215.042 24.3467 215.042 25.56V32H212.902V25.84C212.902 25.0133 212.682 24.4133 212.242 24.04C211.815 23.6533 211.289 23.46 210.662 23.46C210.142 23.46 209.682 23.6067 209.282 23.9C208.882 24.1933 208.569 24.58 208.342 25.06C208.115 25.5267 208.002 26.0267 208.002 26.56V32H205.842ZM218.074 29.04V23.68H216.294V21.8H218.074V18.92H220.234V21.8H222.734V23.68H220.234V28.58C220.234 29.0867 220.334 29.4733 220.534 29.74C220.748 30.0067 221.101 30.14 221.594 30.14C221.848 30.14 222.061 30.1067 222.234 30.04C222.421 29.9733 222.608 29.88 222.794 29.76V31.86C222.568 31.9533 222.328 32.0267 222.074 32.08C221.821 32.1333 221.521 32.16 221.174 32.16C220.228 32.16 219.474 31.8867 218.914 31.34C218.354 30.78 218.074 30.0133 218.074 29.04ZM227.812 32.32C227.078 32.32 226.425 32.18 225.852 31.9C225.278 31.6067 224.832 31.2 224.512 30.68C224.192 30.16 224.032 29.5667 224.032 28.9C224.032 28.18 224.218 27.5667 224.592 27.06C224.978 26.54 225.492 26.1467 226.132 25.88C226.772 25.6133 227.478 25.48 228.252 25.48C228.892 25.48 229.452 25.54 229.932 25.66C230.425 25.78 230.798 25.9067 231.052 26.04V25.5C231.052 24.8333 230.812 24.3 230.332 23.9C229.852 23.5 229.232 23.3 228.472 23.3C227.952 23.3 227.458 23.42 226.992 23.66C226.525 23.8867 226.152 24.2 225.872 24.6L224.392 23.46C224.832 22.8467 225.412 22.3667 226.132 22.02C226.865 21.66 227.665 21.48 228.532 21.48C230.012 21.48 231.152 21.8467 231.952 22.58C232.752 23.3 233.152 24.3133 233.152 25.62V32H231.052V30.74H230.932C230.665 31.1533 230.265 31.52 229.732 31.84C229.198 32.16 228.558 32.32 227.812 32.32ZM228.192 30.56C228.752 30.56 229.245 30.4267 229.672 30.16C230.098 29.8933 230.432 29.5467 230.672 29.12C230.925 28.68 231.052 28.2067 231.052 27.7C230.745 27.5267 230.385 27.3867 229.972 27.28C229.558 27.16 229.118 27.1 228.652 27.1C227.772 27.1 227.145 27.28 226.772 27.64C226.398 27.9867 226.212 28.4133 226.212 28.92C226.212 29.4 226.392 29.7933 226.752 30.1C227.112 30.4067 227.592 30.56 228.192 30.56Z" fill="white"/>
<path d="M248.4 32.32C247.373 32.32 246.407 32.1333 245.5 31.76C244.607 31.3867 243.813 30.8667 243.12 30.2C242.427 29.52 241.88 28.7267 241.48 27.82C241.093 26.9 240.9 25.9067 240.9 24.84C240.9 23.7733 241.093 22.7867 241.48 21.88C241.88 20.96 242.42 20.1667 243.1 19.5C243.793 18.82 244.593 18.2933 245.5 17.92C246.407 17.5467 247.373 17.36 248.4 17.36C249.493 17.36 250.5 17.5533 251.42 17.94C252.353 18.3267 253.133 18.8667 253.76 19.56L252.24 21.06C251.773 20.54 251.213 20.14 250.56 19.86C249.92 19.58 249.2 19.44 248.4 19.44C247.453 19.44 246.58 19.6667 245.78 20.12C244.98 20.56 244.333 21.1867 243.84 22C243.36 22.8 243.12 23.7467 243.12 24.84C243.12 25.9333 243.367 26.8867 243.86 27.7C244.353 28.5 245 29.1267 245.8 29.58C246.6 30.02 247.473 30.24 248.42 30.24C249.287 30.24 250.073 30.08 250.78 29.76C251.487 29.4267 252.053 28.96 252.48 28.36C252.92 27.76 253.187 27.04 253.28 26.2H248.38V24.26H255.34C255.42 24.62 255.46 25 255.46 25.4V25.42C255.46 26.8067 255.153 28.02 254.54 29.06C253.94 30.0867 253.107 30.8867 252.04 31.46C250.973 32.0333 249.76 32.32 248.4 32.32ZM261.9 32.32C260.847 32.32 259.92 32.08 259.12 31.6C258.32 31.12 257.693 30.4733 257.24 29.66C256.787 28.8467 256.56 27.9267 256.56 26.9C256.56 25.8867 256.787 24.9733 257.24 24.16C257.693 23.3333 258.32 22.68 259.12 22.2C259.92 21.72 260.847 21.48 261.9 21.48C262.94 21.48 263.86 21.72 264.66 22.2C265.46 22.68 266.087 23.3333 266.54 24.16C266.993 24.9733 267.22 25.8867 267.22 26.9C267.22 27.9267 266.993 28.8467 266.54 29.66C266.087 30.4733 265.46 31.12 264.66 31.6C263.86 32.08 262.94 32.32 261.9 32.32ZM261.9 30.34C262.46 30.34 262.98 30.2067 263.46 29.94C263.94 29.66 264.327 29.2667 264.62 28.76C264.927 28.24 265.08 27.62 265.08 26.9C265.08 26.18 264.927 25.5667 264.62 25.06C264.327 24.54 263.94 24.1467 263.46 23.88C262.98 23.6 262.46 23.46 261.9 23.46C261.34 23.46 260.813 23.6 260.32 23.88C259.84 24.1467 259.447 24.54 259.14 25.06C258.847 25.5667 258.7 26.18 258.7 26.9C258.7 27.62 258.847 28.24 259.14 28.76C259.447 29.2667 259.84 29.66 260.32 29.94C260.813 30.2067 261.34 30.34 261.9 30.34ZM274.009 32.32C272.956 32.32 272.029 32.08 271.229 31.6C270.429 31.12 269.803 30.4733 269.349 29.66C268.896 28.8467 268.669 27.9267 268.669 26.9C268.669 25.8867 268.896 24.9733 269.349 24.16C269.803 23.3333 270.429 22.68 271.229 22.2C272.029 21.72 272.956 21.48 274.009 21.48C275.049 21.48 275.969 21.72 276.769 22.2C277.569 22.68 278.196 23.3333 278.649 24.16C279.103 24.9733 279.329 25.8867 279.329 26.9C279.329 27.9267 279.103 28.8467 278.649 29.66C278.196 30.4733 277.569 31.12 276.769 31.6C275.969 32.08 275.049 32.32 274.009 32.32ZM274.009 30.34C274.569 30.34 275.089 30.2067 275.569 29.94C276.049 29.66 276.436 29.2667 276.729 28.76C277.036 28.24 277.189 27.62 277.189 26.9C277.189 26.18 277.036 25.5667 276.729 25.06C276.436 24.54 276.049 24.1467 275.569 23.88C275.089 23.6 274.569 23.46 274.009 23.46C273.449 23.46 272.923 23.6 272.429 23.88C271.949 24.1467 271.556 24.54 271.249 25.06C270.956 25.5667 270.809 26.18 270.809 26.9C270.809 27.62 270.956 28.24 271.249 28.76C271.556 29.2667 271.949 29.66 272.429 29.94C272.923 30.2067 273.449 30.34 274.009 30.34ZM285.919 36.64C285.025 36.64 284.252 36.4933 283.599 36.2C282.959 35.92 282.439 35.5533 282.039 35.1C281.639 34.66 281.352 34.2067 281.179 33.74L283.179 32.9C283.392 33.4333 283.732 33.8667 284.199 34.2C284.679 34.5467 285.252 34.72 285.919 34.72C286.852 34.72 287.585 34.44 288.119 33.88C288.665 33.32 288.939 32.5267 288.939 31.5V30.52H288.819C288.499 31 288.052 31.3867 287.479 31.68C286.919 31.96 286.279 32.1 285.559 32.1C284.692 32.1 283.899 31.88 283.179 31.44C282.459 31 281.879 30.3867 281.439 29.6C280.999 28.8 280.779 27.8667 280.779 26.8C280.779 25.72 280.999 24.7867 281.439 24C281.879 23.2 282.459 22.58 283.179 22.14C283.899 21.7 284.692 21.48 285.559 21.48C286.279 21.48 286.919 21.6267 287.479 21.92C288.052 22.2133 288.499 22.6 288.819 23.08H288.939V21.8H290.999V31.46C290.999 32.5667 290.779 33.5067 290.339 34.28C289.912 35.0533 289.319 35.64 288.559 36.04C287.799 36.44 286.919 36.64 285.919 36.64ZM285.939 30.14C286.472 30.14 286.965 30.0133 287.419 29.76C287.872 29.4933 288.239 29.1133 288.519 28.62C288.799 28.1133 288.939 27.5067 288.939 26.8C288.939 26.0667 288.799 25.4533 288.519 24.96C288.239 24.4533 287.872 24.0733 287.419 23.82C286.965 23.5667 286.472 23.44 285.939 23.44C285.405 23.44 284.905 23.5733 284.439 23.84C283.985 24.0933 283.619 24.4667 283.339 24.96C283.059 25.4533 282.919 26.0667 282.919 26.8C282.919 27.52 283.059 28.1333 283.339 28.64C283.619 29.1333 283.985 29.5067 284.439 29.76C284.905 30.0133 285.405 30.14 285.939 30.14ZM293.546 32V17.68H295.706V32H293.546ZM302.815 32.32C301.815 32.32 300.921 32.0867 300.135 31.62C299.348 31.1533 298.728 30.5133 298.275 29.7C297.835 28.8867 297.615 27.96 297.615 26.92C297.615 25.9467 297.828 25.0467 298.255 24.22C298.681 23.3933 299.275 22.7333 300.035 22.24C300.808 21.7333 301.695 21.48 302.695 21.48C303.748 21.48 304.641 21.7067 305.375 22.16C306.121 22.6133 306.688 23.2333 307.075 24.02C307.461 24.8067 307.655 25.6933 307.655 26.68C307.655 26.8267 307.648 26.96 307.635 27.08C307.635 27.2 307.628 27.2933 307.615 27.36H299.735C299.841 28.3733 300.195 29.1333 300.795 29.64C301.408 30.1467 302.101 30.4 302.875 30.4C303.568 30.4 304.141 30.2467 304.595 29.94C305.048 29.62 305.408 29.2267 305.675 28.76L307.455 29.62C307.015 30.42 306.415 31.0733 305.655 31.58C304.895 32.0733 303.948 32.32 302.815 32.32ZM302.715 23.32C301.995 23.32 301.381 23.54 300.875 23.98C300.368 24.42 300.028 25.0067 299.855 25.74H305.515C305.488 25.3933 305.375 25.0333 305.175 24.66C304.975 24.2867 304.668 23.9733 304.255 23.72C303.855 23.4533 303.341 23.32 302.715 23.32ZM316.446 32L312.606 17.68H315.046L317.326 26.98L317.566 28.22H317.686L317.986 26.98L320.866 17.68H323.066L325.826 26.98L326.126 28.2H326.246L326.486 26.98L328.766 17.68H331.186L327.406 32H325.086L322.346 22.5L322.026 21.16H321.906L321.566 22.5L318.706 32H316.446ZM335.202 32.32C334.469 32.32 333.816 32.18 333.242 31.9C332.669 31.6067 332.222 31.2 331.902 30.68C331.582 30.16 331.422 29.5667 331.422 28.9C331.422 28.18 331.609 27.5667 331.982 27.06C332.369 26.54 332.882 26.1467 333.522 25.88C334.162 25.6133 334.869 25.48 335.642 25.48C336.282 25.48 336.842 25.54 337.322 25.66C337.816 25.78 338.189 25.9067 338.442 26.04V25.5C338.442 24.8333 338.202 24.3 337.722 23.9C337.242 23.5 336.622 23.3 335.862 23.3C335.342 23.3 334.849 23.42 334.382 23.66C333.916 23.8867 333.542 24.2 333.262 24.6L331.782 23.46C332.222 22.8467 332.802 22.3667 333.522 22.02C334.256 21.66 335.056 21.48 335.922 21.48C337.402 21.48 338.542 21.8467 339.342 22.58C340.142 23.3 340.542 24.3133 340.542 25.62V32H338.442V30.74H338.322C338.056 31.1533 337.656 31.52 337.122 31.84C336.589 32.16 335.949 32.32 335.202 32.32ZM335.582 30.56C336.142 30.56 336.636 30.4267 337.062 30.16C337.489 29.8933 337.822 29.5467 338.062 29.12C338.316 28.68 338.442 28.2067 338.442 27.7C338.136 27.5267 337.776 27.3867 337.362 27.28C336.949 27.16 336.509 27.1 336.042 27.1C335.162 27.1 334.536 27.28 334.162 27.64C333.789 27.9867 333.602 28.4133 333.602 28.92C333.602 29.4 333.782 29.7933 334.142 30.1C334.502 30.4067 334.982 30.56 335.582 30.56ZM342.94 32V17.68H345.1V32H342.94ZM347.667 32V17.68H349.827V32H347.667ZM356.936 32.32C355.936 32.32 355.042 32.0867 354.256 31.62C353.469 31.1533 352.849 30.5133 352.396 29.7C351.956 28.8867 351.736 27.96 351.736 26.92C351.736 25.9467 351.949 25.0467 352.376 24.22C352.802 23.3933 353.396 22.7333 354.156 22.24C354.929 21.7333 355.816 21.48 356.816 21.48C357.869 21.48 358.762 21.7067 359.496 22.16C360.242 22.6133 360.809 23.2333 361.196 24.02C361.582 24.8067 361.776 25.6933 361.776 26.68C361.776 26.8267 361.769 26.96 361.756 27.08C361.756 27.2 361.749 27.2933 361.736 27.36H353.856C353.962 28.3733 354.316 29.1333 354.916 29.64C355.529 30.1467 356.222 30.4 356.996 30.4C357.689 30.4 358.262 30.2467 358.716 29.94C359.169 29.62 359.529 29.2267 359.796 28.76L361.576 29.62C361.136 30.42 360.536 31.0733 359.776 31.58C359.016 32.0733 358.069 32.32 356.936 32.32ZM356.836 23.32C356.116 23.32 355.502 23.54 354.996 23.98C354.489 24.42 354.149 25.0067 353.976 25.74H359.636C359.609 25.3933 359.496 25.0333 359.296 24.66C359.096 24.2867 358.789 23.9733 358.376 23.72C357.976 23.4533 357.462 23.32 356.836 23.32ZM364.567 29.04V23.68H362.787V21.8H364.567V18.92H366.727V21.8H369.227V23.68H366.727V28.58C366.727 29.0867 366.827 29.4733 367.027 29.74C367.24 30.0067 367.593 30.14 368.087 30.14C368.34 30.14 368.553 30.1067 368.727 30.04C368.913 29.9733 369.1 29.88 369.287 29.76V31.86C369.06 31.9533 368.82 32.0267 368.567 32.08C368.313 32.1333 368.013 32.16 367.667 32.16C366.72 32.16 365.967 31.8867 365.407 31.34C364.847 30.78 364.567 30.0133 364.567 29.04Z" fill="white"/>
<rect x="0.5" y="0.5" width="391" height="49" rx="24.5" stroke="#747775"/>
<defs>
<linearGradient id="paint0_linear_1819_24253" x1="34.5703" y1="30.7864" x2="18.7309" y2="48.9133" gradientUnits="userSpaceOnUse">
<stop stop-color="#4285F4"/>
<stop offset="1" stop-color="#1B74E8"/>
</linearGradient>
</defs>
</svg>
