<svg width="341" height="50" viewBox="0 0 341 50" fill="none" xmlns="http://www.w3.org/2000/svg">
<rect x="0.5" y="0.5" width="340" height="49" rx="24.5" fill="#1F1F1F"/>
<path d="M51 22H21V17C21 14.2857 23.2018 12 25.8165 12H46.1835C48.7982 12 51 14.2857 51 17V22Z" fill="#34A853"/>
<path d="M51 26.0537H21V21.0537C21 18.3394 23.2018 16.0537 25.8165 16.0537H46.1835C48.7982 16.0537 51 18.3394 51 21.0537V26.0537Z" fill="#FBBC04"/>
<path d="M51 30.2468H21V25.2468C21 22.5325 23.2018 20.2468 25.8165 20.2468H46.1835C48.7982 20.2468 51 22.5325 51 25.2468V30.2468Z" fill="#EA4335"/>
<path d="M21 23.2752L40.0411 27.6789C42.2329 28.2294 44.6986 27.6789 46.4795 26.3028L51 23V33.3211C51 35.9358 48.8082 38 46.2055 38H25.7945C23.1918 38 21 35.9358 21 33.3211V23.2752Z" fill="url(#paint0_linear_1819_24614)"/>
<path d="M63.3 32L68.7 17.68H71.2L76.62 32H74.2L72.88 28.32H67.04L65.72 32H63.3ZM69.36 21.9L67.78 26.28H72.14L70.56 21.9L70.02 20.26H69.9L69.36 21.9ZM82.2528 32.32C81.3328 32.32 80.4995 32.0933 79.7528 31.64C79.0195 31.1733 78.4328 30.5333 77.9928 29.72C77.5661 28.8933 77.3528 27.9533 77.3528 26.9C77.3528 25.8467 77.5661 24.9133 77.9928 24.1C78.4328 23.2867 79.0195 22.6467 79.7528 22.18C80.4995 21.7133 81.3328 21.48 82.2528 21.48C83.0395 21.48 83.7128 21.6533 84.2728 22C84.8461 22.3467 85.2661 22.74 85.5328 23.18H85.6528L85.5328 21.76V17.68H87.6728V32H85.6528V30.64H85.5328C85.2661 31.08 84.8461 31.4733 84.2728 31.82C83.7128 32.1533 83.0395 32.32 82.2528 32.32ZM82.5728 30.34C83.1061 30.34 83.6061 30.2 84.0728 29.92C84.5528 29.64 84.9328 29.2467 85.2128 28.74C85.5061 28.22 85.6528 27.6067 85.6528 26.9C85.6528 26.1933 85.5061 25.5867 85.2128 25.08C84.9328 24.56 84.5528 24.16 84.0728 23.88C83.6061 23.6 83.1061 23.46 82.5728 23.46C82.0395 23.46 81.5395 23.6 81.0728 23.88C80.6061 24.16 80.2261 24.56 79.9328 25.08C79.6395 25.5867 79.4928 26.1933 79.4928 26.9C79.4928 27.6067 79.6395 28.22 79.9328 28.74C80.2261 29.2467 80.6061 29.64 81.0728 29.92C81.5395 30.2 82.0395 30.34 82.5728 30.34ZM93.3194 32.32C92.586 32.32 91.9327 32.18 91.3594 31.9C90.786 31.6067 90.3394 31.2 90.0194 30.68C89.6994 30.16 89.5394 29.5667 89.5394 28.9C89.5394 28.18 89.726 27.5667 90.0994 27.06C90.486 26.54 90.9994 26.1467 91.6394 25.88C92.2794 25.6133 92.986 25.48 93.7594 25.48C94.3994 25.48 94.9594 25.54 95.4394 25.66C95.9327 25.78 96.306 25.9067 96.5594 26.04V25.5C96.5594 24.8333 96.3194 24.3 95.8394 23.9C95.3594 23.5 94.7394 23.3 93.9794 23.3C93.4594 23.3 92.966 23.42 92.4994 23.66C92.0327 23.8867 91.6594 24.2 91.3794 24.6L89.8994 23.46C90.3394 22.8467 90.9194 22.3667 91.6394 22.02C92.3727 21.66 93.1727 21.48 94.0394 21.48C95.5194 21.48 96.6594 21.8467 97.4594 22.58C98.2594 23.3 98.6594 24.3133 98.6594 25.62V32H96.5594V30.74H96.4394C96.1727 31.1533 95.7727 31.52 95.2394 31.84C94.706 32.16 94.066 32.32 93.3194 32.32ZM93.6994 30.56C94.2594 30.56 94.7527 30.4267 95.1794 30.16C95.606 29.8933 95.9394 29.5467 96.1794 29.12C96.4327 28.68 96.5594 28.2067 96.5594 27.7C96.2527 27.5267 95.8927 27.3867 95.4794 27.28C95.066 27.16 94.626 27.1 94.1594 27.1C93.2794 27.1 92.6527 27.28 92.2794 27.64C91.906 27.9867 91.7194 28.4133 91.7194 28.92C91.7194 29.4 91.8994 29.7933 92.2594 30.1C92.6194 30.4067 93.0994 30.56 93.6994 30.56ZM94.1394 19.88C93.6727 19.88 93.2394 19.7667 92.8394 19.54C92.4394 19.3133 92.1127 19.0067 91.8594 18.62C91.6194 18.22 91.4994 17.7733 91.4994 17.28H93.0994C93.0994 17.56 93.1927 17.8067 93.3794 18.02C93.566 18.2333 93.8194 18.34 94.1394 18.34C94.446 18.34 94.686 18.2333 94.8594 18.02C95.046 17.8067 95.1394 17.56 95.1394 17.28H96.7394C96.7394 17.7733 96.6127 18.22 96.3594 18.62C96.1194 19.0067 95.7994 19.3133 95.3994 19.54C95.0127 19.7667 94.5927 19.88 94.1394 19.88ZM104.737 32.32C103.484 32.32 102.537 31.9467 101.897 31.2C101.271 30.44 100.957 29.4133 100.957 28.12V21.8H103.117V27.82C103.117 28.6867 103.317 29.3267 103.717 29.74C104.131 30.14 104.644 30.34 105.257 30.34C105.804 30.34 106.277 30.2 106.677 29.92C107.091 29.6267 107.404 29.2533 107.617 28.8C107.844 28.3333 107.957 27.8267 107.957 27.28V21.8H110.097V32H108.077V30.62H107.957C107.664 31.1 107.224 31.5067 106.637 31.84C106.064 32.16 105.431 32.32 104.737 32.32ZM117.141 36.64C116.248 36.64 115.475 36.4933 114.821 36.2C114.181 35.92 113.661 35.5533 113.261 35.1C112.861 34.66 112.575 34.2067 112.401 33.74L114.401 32.9C114.615 33.4333 114.955 33.8667 115.421 34.2C115.901 34.5467 116.475 34.72 117.141 34.72C118.075 34.72 118.808 34.44 119.341 33.88C119.888 33.32 120.161 32.5267 120.161 31.5V30.52H120.041C119.721 31 119.275 31.3867 118.701 31.68C118.141 31.96 117.501 32.1 116.781 32.1C115.915 32.1 115.121 31.88 114.401 31.44C113.681 31 113.101 30.3867 112.661 29.6C112.221 28.8 112.001 27.8667 112.001 26.8C112.001 25.72 112.221 24.7867 112.661 24C113.101 23.2 113.681 22.58 114.401 22.14C115.121 21.7 115.915 21.48 116.781 21.48C117.501 21.48 118.141 21.6267 118.701 21.92C119.275 22.2133 119.721 22.6 120.041 23.08H120.161V21.8H122.221V31.46C122.221 32.5667 122.001 33.5067 121.561 34.28C121.135 35.0533 120.541 35.64 119.781 36.04C119.021 36.44 118.141 36.64 117.141 36.64ZM117.161 30.14C117.695 30.14 118.188 30.0133 118.641 29.76C119.095 29.4933 119.461 29.1133 119.741 28.62C120.021 28.1133 120.161 27.5067 120.161 26.8C120.161 26.0667 120.021 25.4533 119.741 24.96C119.461 24.4533 119.095 24.0733 118.641 23.82C118.188 23.5667 117.695 23.44 117.161 23.44C116.628 23.44 116.128 23.5733 115.661 23.84C115.208 24.0933 114.841 24.4667 114.561 24.96C114.281 25.4533 114.141 26.0667 114.141 26.8C114.141 27.52 114.281 28.1333 114.561 28.64C114.841 29.1333 115.208 29.5067 115.661 29.76C116.128 30.0133 116.628 30.14 117.161 30.14ZM127.851 32.32C127.117 32.32 126.464 32.18 125.891 31.9C125.317 31.6067 124.871 31.2 124.551 30.68C124.231 30.16 124.071 29.5667 124.071 28.9C124.071 28.18 124.257 27.5667 124.631 27.06C125.017 26.54 125.531 26.1467 126.171 25.88C126.811 25.6133 127.517 25.48 128.291 25.48C128.931 25.48 129.491 25.54 129.971 25.66C130.464 25.78 130.837 25.9067 131.091 26.04V25.5C131.091 24.8333 130.851 24.3 130.371 23.9C129.891 23.5 129.271 23.3 128.511 23.3C127.991 23.3 127.497 23.42 127.031 23.66C126.564 23.8867 126.191 24.2 125.911 24.6L124.431 23.46C124.871 22.8467 125.451 22.3667 126.171 22.02C126.904 21.66 127.704 21.48 128.571 21.48C130.051 21.48 131.191 21.8467 131.991 22.58C132.791 23.3 133.191 24.3133 133.191 25.62V32H131.091V30.74H130.971C130.704 31.1533 130.304 31.52 129.771 31.84C129.237 32.16 128.597 32.32 127.851 32.32ZM128.231 30.56C128.791 30.56 129.284 30.4267 129.711 30.16C130.137 29.8933 130.471 29.5467 130.711 29.12C130.964 28.68 131.091 28.2067 131.091 27.7C130.784 27.5267 130.424 27.3867 130.011 27.28C129.597 27.16 129.157 27.1 128.691 27.1C127.811 27.1 127.184 27.28 126.811 27.64C126.437 27.9867 126.251 28.4133 126.251 28.92C126.251 29.4 126.431 29.7933 126.791 30.1C127.151 30.4067 127.631 30.56 128.231 30.56ZM136.453 29.04V23.68H134.673V21.8H136.453V18.92H138.613V21.8H141.113V23.68H138.613V28.58C138.613 29.0867 138.713 29.4733 138.913 29.74C139.127 30.0067 139.48 30.14 139.973 30.14C140.227 30.14 140.44 30.1067 140.613 30.04C140.8 29.9733 140.987 29.88 141.173 29.76V31.86C140.947 31.9533 140.707 32.0267 140.453 32.08C140.2 32.1333 139.9 32.16 139.553 32.16C138.607 32.16 137.853 31.8867 137.293 31.34C136.733 30.78 136.453 30.0133 136.453 29.04ZM138.333 37.22L137.473 36.64L138.313 35.38C138.06 35.3 137.853 35.1533 137.693 34.94C137.547 34.7267 137.473 34.4867 137.473 34.22C137.473 33.9 137.593 33.6067 137.833 33.34C138.073 33.0867 138.373 32.96 138.733 32.96C139.107 32.96 139.413 33.0867 139.653 33.34C139.893 33.5933 140.013 33.9 140.013 34.26C140.013 34.58 139.893 34.9133 139.653 35.26L138.333 37.22ZM144.543 20.3C144.143 20.3 143.796 20.16 143.503 19.88C143.223 19.5867 143.083 19.24 143.083 18.84C143.083 18.44 143.223 18.1 143.503 17.82C143.796 17.54 144.143 17.4 144.543 17.4C144.943 17.4 145.283 17.54 145.563 17.82C145.856 18.1 146.003 18.44 146.003 18.84C146.003 19.24 145.856 19.5867 145.563 19.88C145.283 20.16 144.943 20.3 144.543 20.3ZM143.463 32V21.8H145.623V32H143.463ZM152.991 32V17.68H155.151V32H152.991ZM160.8 32.32C160.067 32.32 159.413 32.18 158.84 31.9C158.267 31.6067 157.82 31.2 157.5 30.68C157.18 30.16 157.02 29.5667 157.02 28.9C157.02 28.18 157.207 27.5667 157.58 27.06C157.967 26.54 158.48 26.1467 159.12 25.88C159.76 25.6133 160.467 25.48 161.24 25.48C161.88 25.48 162.44 25.54 162.92 25.66C163.413 25.78 163.787 25.9067 164.04 26.04V25.5C164.04 24.8333 163.8 24.3 163.32 23.9C162.84 23.5 162.22 23.3 161.46 23.3C160.94 23.3 160.447 23.42 159.98 23.66C159.513 23.8867 159.14 24.2 158.86 24.6L157.38 23.46C157.82 22.8467 158.4 22.3667 159.12 22.02C159.853 21.66 160.653 21.48 161.52 21.48C163 21.48 164.14 21.8467 164.94 22.58C165.74 23.3 166.14 24.3133 166.14 25.62V32H164.04V30.74H163.92C163.653 31.1533 163.253 31.52 162.72 31.84C162.187 32.16 161.547 32.32 160.8 32.32ZM161.18 30.56C161.74 30.56 162.233 30.4267 162.66 30.16C163.087 29.8933 163.42 29.5467 163.66 29.12C163.913 28.68 164.04 28.2067 164.04 27.7C163.733 27.5267 163.373 27.3867 162.96 27.28C162.547 27.16 162.107 27.1 161.64 27.1C160.76 27.1 160.133 27.28 159.76 27.64C159.387 27.9867 159.2 28.4133 159.2 28.92C159.2 29.4 159.38 29.7933 159.74 30.1C160.1 30.4067 160.58 30.56 161.18 30.56Z" fill="white"/>
<path d="M174.62 32V17.68H179.54C180.407 17.68 181.193 17.8667 181.9 18.24C182.607 18.6133 183.167 19.1267 183.58 19.78C184.007 20.4333 184.22 21.1933 184.22 22.06C184.22 22.9267 184.007 23.6933 183.58 24.36C183.167 25.0133 182.607 25.5267 181.9 25.9C181.193 26.26 180.407 26.44 179.54 26.44H176.82V32H174.62ZM179.6 19.76H176.82V24.36H179.6C180.12 24.36 180.56 24.2533 180.92 24.04C181.28 23.8133 181.553 23.5267 181.74 23.18C181.94 22.82 182.04 22.4467 182.04 22.06C182.04 21.6733 181.94 21.3067 181.74 20.96C181.553 20.6133 181.28 20.3267 180.92 20.1C180.56 19.8733 180.12 19.76 179.6 19.76ZM190.212 32.32C189.159 32.32 188.232 32.08 187.432 31.6C186.632 31.12 186.006 30.4733 185.552 29.66C185.099 28.8467 184.872 27.9267 184.872 26.9C184.872 25.8867 185.099 24.9733 185.552 24.16C186.006 23.3333 186.632 22.68 187.432 22.2C188.232 21.72 189.159 21.48 190.212 21.48C191.252 21.48 192.172 21.72 192.972 22.2C193.772 22.68 194.399 23.3333 194.852 24.16C195.306 24.9733 195.532 25.8867 195.532 26.9C195.532 27.9267 195.306 28.8467 194.852 29.66C194.399 30.4733 193.772 31.12 192.972 31.6C192.172 32.08 191.252 32.32 190.212 32.32ZM190.212 30.34C190.772 30.34 191.292 30.2067 191.772 29.94C192.252 29.66 192.639 29.2667 192.932 28.76C193.239 28.24 193.392 27.62 193.392 26.9C193.392 26.18 193.239 25.5667 192.932 25.06C192.639 24.54 192.252 24.1467 191.772 23.88C191.292 23.6 190.772 23.46 190.212 23.46C189.652 23.46 189.126 23.6 188.632 23.88C188.152 24.1467 187.759 24.54 187.452 25.06C187.159 25.5667 187.012 26.18 187.012 26.9C187.012 27.62 187.159 28.24 187.452 28.76C187.759 29.2667 188.152 29.66 188.632 29.94C189.126 30.2067 189.652 30.34 190.212 30.34ZM206.506 29.04V23.68H204.726V21.8H206.506V18.92H208.666V21.8H211.166V23.68H208.666V28.58C208.666 29.0867 208.766 29.4733 208.966 29.74C209.18 30.0067 209.533 30.14 210.026 30.14C210.28 30.14 210.493 30.1067 210.666 30.04C210.853 29.9733 211.04 29.88 211.226 29.76V31.86C211 31.9533 210.76 32.0267 210.506 32.08C210.253 32.1333 209.96 32.16 209.626 32.16C208.666 32.16 207.906 31.8867 207.346 31.34C206.786 30.78 206.506 30.0133 206.506 29.04ZM197.326 32V21.8H199.366V23.3H199.486C199.753 22.74 200.166 22.3067 200.726 22C201.286 21.68 201.893 21.52 202.546 21.52C202.92 21.52 203.2 21.5467 203.386 21.6V23.76C203.093 23.6667 202.733 23.62 202.306 23.62C201.453 23.62 200.766 23.8933 200.246 24.44C199.74 24.9867 199.486 25.7267 199.486 26.66V32H197.326ZM217.673 32.32C216.62 32.32 215.693 32.08 214.893 31.6C214.093 31.12 213.467 30.4733 213.013 29.66C212.56 28.8467 212.333 27.9267 212.333 26.9C212.333 25.8867 212.56 24.9733 213.013 24.16C213.467 23.3333 214.093 22.68 214.893 22.2C215.693 21.72 216.62 21.48 217.673 21.48C218.713 21.48 219.633 21.72 220.433 22.2C221.233 22.68 221.86 23.3333 222.313 24.16C222.767 24.9733 222.993 25.8867 222.993 26.9C222.993 27.9267 222.767 28.8467 222.313 29.66C221.86 30.4733 221.233 31.12 220.433 31.6C219.633 32.08 218.713 32.32 217.673 32.32ZM217.673 30.34C218.233 30.34 218.753 30.2067 219.233 29.94C219.713 29.66 220.1 29.2667 220.393 28.76C220.7 28.24 220.853 27.62 220.853 26.9C220.853 26.18 220.7 25.5667 220.393 25.06C220.1 24.54 219.713 24.1467 219.233 23.88C218.753 23.6 218.233 23.46 217.673 23.46C217.113 23.46 216.587 23.6 216.093 23.88C215.613 24.1467 215.22 24.54 214.913 25.06C214.62 25.5667 214.473 26.18 214.473 26.9C214.473 27.62 214.62 28.24 214.913 28.76C215.22 29.2667 215.613 29.66 216.093 29.94C216.587 30.2067 217.113 30.34 217.673 30.34ZM225.85 32V23.68H223.99V21.8H225.85V20.96C225.85 20.24 226.003 19.6267 226.31 19.12C226.616 18.6 227.03 18.2067 227.55 17.94C228.083 17.66 228.683 17.52 229.35 17.52C229.71 17.52 230.016 17.5467 230.27 17.6C230.536 17.64 230.756 17.6933 230.93 17.76V19.86C230.756 19.7933 230.556 19.7267 230.33 19.66C230.116 19.58 229.85 19.54 229.53 19.54C229.116 19.54 228.756 19.68 228.45 19.96C228.143 20.2267 227.99 20.62 227.99 21.14V21.8H230.55V23.68H227.99V32H225.85ZM236.654 32.32C235.654 32.32 234.761 32.0867 233.974 31.62C233.188 31.1533 232.568 30.5133 232.114 29.7C231.674 28.8867 231.454 27.96 231.454 26.92C231.454 25.9467 231.668 25.0467 232.094 24.22C232.521 23.3933 233.114 22.7333 233.874 22.24C234.648 21.7333 235.534 21.48 236.534 21.48C237.588 21.48 238.481 21.7067 239.214 22.16C239.961 22.6133 240.528 23.2333 240.914 24.02C241.301 24.8067 241.494 25.6933 241.494 26.68C241.494 26.8267 241.488 26.96 241.474 27.08C241.474 27.2 241.468 27.2933 241.454 27.36H233.574C233.681 28.3733 234.034 29.1333 234.634 29.64C235.248 30.1467 235.941 30.4 236.714 30.4C237.408 30.4 237.981 30.2467 238.434 29.94C238.888 29.62 239.248 29.2267 239.514 28.76L241.294 29.62C240.854 30.42 240.254 31.0733 239.494 31.58C238.734 32.0733 237.788 32.32 236.654 32.32ZM236.554 23.32C235.834 23.32 235.221 23.54 234.714 23.98C234.208 24.42 233.868 25.0067 233.694 25.74H239.354C239.328 25.3933 239.214 25.0333 239.014 24.66C238.814 24.2867 238.508 23.9733 238.094 23.72C237.694 23.4533 237.181 23.32 236.554 23.32ZM243.518 32V17.68H245.678V32H243.518ZM259.642 32.32C258.616 32.32 257.649 32.1333 256.742 31.76C255.849 31.3867 255.056 30.8667 254.362 30.2C253.669 29.52 253.122 28.7267 252.722 27.82C252.336 26.9 252.142 25.9067 252.142 24.84C252.142 23.7733 252.336 22.7867 252.722 21.88C253.122 20.96 253.662 20.1667 254.342 19.5C255.036 18.82 255.836 18.2933 256.742 17.92C257.649 17.5467 258.616 17.36 259.642 17.36C260.736 17.36 261.742 17.5533 262.662 17.94C263.596 18.3267 264.376 18.8667 265.002 19.56L263.482 21.06C263.016 20.54 262.456 20.14 261.802 19.86C261.162 19.58 260.442 19.44 259.642 19.44C258.696 19.44 257.822 19.6667 257.022 20.12C256.222 20.56 255.576 21.1867 255.082 22C254.602 22.8 254.362 23.7467 254.362 24.84C254.362 25.9333 254.609 26.8867 255.102 27.7C255.596 28.5 256.242 29.1267 257.042 29.58C257.842 30.02 258.716 30.24 259.662 30.24C260.529 30.24 261.316 30.08 262.022 29.76C262.729 29.4267 263.296 28.96 263.722 28.36C264.162 27.76 264.429 27.04 264.522 26.2H259.622V24.26H266.582C266.662 24.62 266.702 25 266.702 25.4V25.42C266.702 26.8067 266.396 28.02 265.782 29.06C265.182 30.0867 264.349 30.8867 263.282 31.46C262.216 32.0333 261.002 32.32 259.642 32.32ZM273.142 32.32C272.089 32.32 271.162 32.08 270.362 31.6C269.562 31.12 268.935 30.4733 268.482 29.66C268.029 28.8467 267.802 27.9267 267.802 26.9C267.802 25.8867 268.029 24.9733 268.482 24.16C268.935 23.3333 269.562 22.68 270.362 22.2C271.162 21.72 272.089 21.48 273.142 21.48C274.182 21.48 275.102 21.72 275.902 22.2C276.702 22.68 277.329 23.3333 277.782 24.16C278.235 24.9733 278.462 25.8867 278.462 26.9C278.462 27.9267 278.235 28.8467 277.782 29.66C277.329 30.4733 276.702 31.12 275.902 31.6C275.102 32.08 274.182 32.32 273.142 32.32ZM273.142 30.34C273.702 30.34 274.222 30.2067 274.702 29.94C275.182 29.66 275.569 29.2667 275.862 28.76C276.169 28.24 276.322 27.62 276.322 26.9C276.322 26.18 276.169 25.5667 275.862 25.06C275.569 24.54 275.182 24.1467 274.702 23.88C274.222 23.6 273.702 23.46 273.142 23.46C272.582 23.46 272.055 23.6 271.562 23.88C271.082 24.1467 270.689 24.54 270.382 25.06C270.089 25.5667 269.942 26.18 269.942 26.9C269.942 27.62 270.089 28.24 270.382 28.76C270.689 29.2667 271.082 29.66 271.562 29.94C272.055 30.2067 272.582 30.34 273.142 30.34ZM285.251 32.32C284.198 32.32 283.271 32.08 282.471 31.6C281.671 31.12 281.045 30.4733 280.591 29.66C280.138 28.8467 279.911 27.9267 279.911 26.9C279.911 25.8867 280.138 24.9733 280.591 24.16C281.045 23.3333 281.671 22.68 282.471 22.2C283.271 21.72 284.198 21.48 285.251 21.48C286.291 21.48 287.211 21.72 288.011 22.2C288.811 22.68 289.438 23.3333 289.891 24.16C290.345 24.9733 290.571 25.8867 290.571 26.9C290.571 27.9267 290.345 28.8467 289.891 29.66C289.438 30.4733 288.811 31.12 288.011 31.6C287.211 32.08 286.291 32.32 285.251 32.32ZM285.251 30.34C285.811 30.34 286.331 30.2067 286.811 29.94C287.291 29.66 287.678 29.2667 287.971 28.76C288.278 28.24 288.431 27.62 288.431 26.9C288.431 26.18 288.278 25.5667 287.971 25.06C287.678 24.54 287.291 24.1467 286.811 23.88C286.331 23.6 285.811 23.46 285.251 23.46C284.691 23.46 284.165 23.6 283.671 23.88C283.191 24.1467 282.798 24.54 282.491 25.06C282.198 25.5667 282.051 26.18 282.051 26.9C282.051 27.62 282.198 28.24 282.491 28.76C282.798 29.2667 283.191 29.66 283.671 29.94C284.165 30.2067 284.691 30.34 285.251 30.34ZM297.161 36.64C296.267 36.64 295.494 36.4933 294.841 36.2C294.201 35.92 293.681 35.5533 293.281 35.1C292.881 34.66 292.594 34.2067 292.421 33.74L294.421 32.9C294.634 33.4333 294.974 33.8667 295.441 34.2C295.921 34.5467 296.494 34.72 297.161 34.72C298.094 34.72 298.827 34.44 299.361 33.88C299.907 33.32 300.181 32.5267 300.181 31.5V30.52H300.061C299.741 31 299.294 31.3867 298.721 31.68C298.161 31.96 297.521 32.1 296.801 32.1C295.934 32.1 295.141 31.88 294.421 31.44C293.701 31 293.121 30.3867 292.681 29.6C292.241 28.8 292.021 27.8667 292.021 26.8C292.021 25.72 292.241 24.7867 292.681 24C293.121 23.2 293.701 22.58 294.421 22.14C295.141 21.7 295.934 21.48 296.801 21.48C297.521 21.48 298.161 21.6267 298.721 21.92C299.294 22.2133 299.741 22.6 300.061 23.08H300.181V21.8H302.241V31.46C302.241 32.5667 302.021 33.5067 301.581 34.28C301.154 35.0533 300.561 35.64 299.801 36.04C299.041 36.44 298.161 36.64 297.161 36.64ZM297.181 30.14C297.714 30.14 298.207 30.0133 298.661 29.76C299.114 29.4933 299.481 29.1133 299.761 28.62C300.041 28.1133 300.181 27.5067 300.181 26.8C300.181 26.0667 300.041 25.4533 299.761 24.96C299.481 24.4533 299.114 24.0733 298.661 23.82C298.207 23.5667 297.714 23.44 297.181 23.44C296.647 23.44 296.147 23.5733 295.681 23.84C295.227 24.0933 294.861 24.4667 294.581 24.96C294.301 25.4533 294.161 26.0667 294.161 26.8C294.161 27.52 294.301 28.1333 294.581 28.64C294.861 29.1333 295.227 29.5067 295.681 29.76C296.147 30.0133 296.647 30.14 297.181 30.14ZM304.788 32V17.68H306.948V32H304.788ZM314.057 32.32C313.057 32.32 312.163 32.0867 311.377 31.62C310.59 31.1533 309.97 30.5133 309.517 29.7C309.077 28.8867 308.857 27.96 308.857 26.92C308.857 25.9467 309.07 25.0467 309.497 24.22C309.923 23.3933 310.517 22.7333 311.277 22.24C312.05 21.7333 312.937 21.48 313.937 21.48C314.99 21.48 315.883 21.7067 316.617 22.16C317.363 22.6133 317.93 23.2333 318.317 24.02C318.703 24.8067 318.897 25.6933 318.897 26.68C318.897 26.8267 318.89 26.96 318.877 27.08C318.877 27.2 318.87 27.2933 318.857 27.36H310.977C311.083 28.3733 311.437 29.1333 312.037 29.64C312.65 30.1467 313.343 30.4 314.117 30.4C314.81 30.4 315.383 30.2467 315.837 29.94C316.29 29.62 316.65 29.2267 316.917 28.76L318.697 29.62C318.257 30.42 317.657 31.0733 316.897 31.58C316.137 32.0733 315.19 32.32 314.057 32.32ZM313.957 23.32C313.237 23.32 312.623 23.54 312.117 23.98C311.61 24.42 311.27 25.0067 311.097 25.74H316.757C316.73 25.3933 316.617 25.0333 316.417 24.66C316.217 24.2867 315.91 23.9733 315.497 23.72C315.097 23.4533 314.583 23.32 313.957 23.32Z" fill="white"/>
<rect x="0.5" y="0.5" width="340" height="49" rx="24.5" stroke="#747775"/>
<defs>
<linearGradient id="paint0_linear_1819_24614" x1="34.5703" y1="30.7864" x2="18.7309" y2="48.9133" gradientUnits="userSpaceOnUse">
<stop stop-color="#4285F4"/>
<stop offset="1" stop-color="#1B74E8"/>
</linearGradient>
</defs>
</svg>
