<svg width="339" height="50" viewBox="0 0 339 50" fill="none" xmlns="http://www.w3.org/2000/svg">
<rect x="0.5" y="0.5" width="338" height="49" rx="24.5" fill="#1F1F1F"/>
<path d="M51 22H21V17C21 14.2857 23.2018 12 25.8165 12H46.1835C48.7982 12 51 14.2857 51 17V22Z" fill="#34A853"/>
<path d="M51 26.0537H21V21.0537C21 18.3394 23.2018 16.0537 25.8165 16.0537H46.1835C48.7982 16.0537 51 18.3394 51 21.0537V26.0537Z" fill="#FBBC04"/>
<path d="M51 30.2468H21V25.2468C21 22.5325 23.2018 20.2468 25.8165 20.2468H46.1835C48.7982 20.2468 51 22.5325 51 25.2468V30.2468Z" fill="#EA4335"/>
<path d="M21 23.2752L40.0411 27.6789C42.2329 28.2294 44.6986 27.6789 46.4795 26.3028L51 23V33.3211C51 35.9358 48.8082 38 46.2055 38H25.7945C23.1918 38 21 35.9358 21 33.3211V23.2752Z" fill="url(#paint0_linear_1819_24785)"/>
<path d="M63.74 35.04V29.92H65C65.3067 29.4133 65.5533 28.76 65.74 27.96C65.94 27.1467 66.08 26.2533 66.16 25.28C66.2533 24.3067 66.3 23.3267 66.3 22.34V17.68H75.48V29.92H77.16V35.04H75.02V32H65.88V35.04H63.74ZM67.4 29.92H73.28V19.76H68.44V22.66C68.44 24.1133 68.3467 25.4533 68.16 26.68C67.9867 27.9067 67.7333 28.9467 67.4 29.8V29.92ZM83.7475 32.32C82.6942 32.32 81.7675 32.08 80.9675 31.6C80.1675 31.12 79.5408 30.4733 79.0875 29.66C78.6342 28.8467 78.4075 27.9267 78.4075 26.9C78.4075 25.8867 78.6342 24.9733 79.0875 24.16C79.5408 23.3333 80.1675 22.68 80.9675 22.2C81.7675 21.72 82.6942 21.48 83.7475 21.48C84.7875 21.48 85.7075 21.72 86.5075 22.2C87.3075 22.68 87.9342 23.3333 88.3875 24.16C88.8408 24.9733 89.0675 25.8867 89.0675 26.9C89.0675 27.9267 88.8408 28.8467 88.3875 29.66C87.9342 30.4733 87.3075 31.12 86.5075 31.6C85.7075 32.08 84.7875 32.32 83.7475 32.32ZM83.7475 30.34C84.3075 30.34 84.8275 30.2067 85.3075 29.94C85.7875 29.66 86.1742 29.2667 86.4675 28.76C86.7742 28.24 86.9275 27.62 86.9275 26.9C86.9275 26.18 86.7742 25.5667 86.4675 25.06C86.1742 24.54 85.7875 24.1467 85.3075 23.88C84.8275 23.6 84.3075 23.46 83.7475 23.46C83.1875 23.46 82.6608 23.6 82.1675 23.88C81.6875 24.1467 81.2942 24.54 80.9875 25.06C80.6942 25.5667 80.5475 26.18 80.5475 26.9C80.5475 27.62 80.6942 28.24 80.9875 28.76C81.2942 29.2667 81.6875 29.66 82.1675 29.94C82.6608 30.2067 83.1875 30.34 83.7475 30.34ZM89.8277 35.04V30.12H90.9477C91.161 29.8667 91.3477 29.5067 91.5077 29.04C91.681 28.56 91.8143 28.02 91.9077 27.42C92.0143 26.82 92.0677 26.2133 92.0677 25.6V21.8H99.7077V30.12H101.188V35.04H99.2077V32H91.8277V35.04H89.8277ZM93.2677 30.12H97.5677V23.68H94.1077V25.78C94.1077 26.7133 94.041 27.52 93.9077 28.2C93.7743 28.8667 93.561 29.4667 93.2677 30V30.12ZM106.308 32.32C105.574 32.32 104.921 32.18 104.348 31.9C103.774 31.6067 103.328 31.2 103.008 30.68C102.688 30.16 102.528 29.5667 102.528 28.9C102.528 28.18 102.714 27.5667 103.088 27.06C103.474 26.54 103.988 26.1467 104.628 25.88C105.268 25.6133 105.974 25.48 106.748 25.48C107.388 25.48 107.948 25.54 108.428 25.66C108.921 25.78 109.294 25.9067 109.548 26.04V25.5C109.548 24.8333 109.308 24.3 108.828 23.9C108.348 23.5 107.728 23.3 106.968 23.3C106.448 23.3 105.954 23.42 105.488 23.66C105.021 23.8867 104.648 24.2 104.368 24.6L102.888 23.46C103.328 22.8467 103.908 22.3667 104.628 22.02C105.361 21.66 106.161 21.48 107.028 21.48C108.508 21.48 109.648 21.8467 110.448 22.58C111.248 23.3 111.648 24.3133 111.648 25.62V32H109.548V30.74H109.428C109.161 31.1533 108.761 31.52 108.228 31.84C107.694 32.16 107.054 32.32 106.308 32.32ZM106.688 30.56C107.248 30.56 107.741 30.4267 108.168 30.16C108.594 29.8933 108.928 29.5467 109.168 29.12C109.421 28.68 109.548 28.2067 109.548 27.7C109.241 27.5267 108.881 27.3867 108.468 27.28C108.054 27.16 107.614 27.1 107.148 27.1C106.268 27.1 105.641 27.28 105.268 27.64C104.894 27.9867 104.708 28.4133 104.708 28.92C104.708 29.4 104.888 29.7933 105.248 30.1C105.608 30.4067 106.088 30.56 106.688 30.56ZM116.274 32V23.68H112.914V21.8H121.774V23.68H118.414V32H116.274ZM123.537 32V21.8H125.697V27.02L125.577 28.94H125.697L130.797 21.8H132.937V32H130.797V26.8L130.917 24.88H130.797L125.697 32H123.537ZM140.139 32V21.8H145.199C145.799 21.8 146.332 21.92 146.799 22.16C147.279 22.3867 147.652 22.7 147.919 23.1C148.199 23.5 148.339 23.9467 148.339 24.44C148.339 24.9733 148.219 25.4333 147.979 25.82C147.752 26.2067 147.452 26.4933 147.079 26.68V26.8C147.586 27 147.986 27.3 148.279 27.7C148.586 28.1 148.739 28.56 148.739 29.08C148.739 29.68 148.579 30.2 148.259 30.64C147.952 31.08 147.552 31.42 147.059 31.66C146.566 31.8867 146.039 32 145.479 32H140.139ZM142.299 23.56V25.96H144.939C145.299 25.96 145.599 25.8467 145.839 25.62C146.079 25.3933 146.199 25.1067 146.199 24.76C146.199 24.4 146.079 24.1133 145.839 23.9C145.599 23.6733 145.299 23.56 144.939 23.56H142.299ZM142.299 30.2H145.259C145.646 30.2 145.966 30.08 146.219 29.84C146.486 29.5867 146.619 29.2667 146.619 28.88C146.619 28.5067 146.486 28.1933 146.219 27.94C145.966 27.6867 145.646 27.56 145.259 27.56H142.299V30.2Z" fill="white"/>
<path d="M163.4 32.32C162.373 32.32 161.407 32.1333 160.5 31.76C159.607 31.3867 158.813 30.8667 158.12 30.2C157.427 29.52 156.88 28.7267 156.48 27.82C156.093 26.9 155.9 25.9067 155.9 24.84C155.9 23.7733 156.093 22.7867 156.48 21.88C156.88 20.96 157.42 20.1667 158.1 19.5C158.793 18.82 159.593 18.2933 160.5 17.92C161.407 17.5467 162.373 17.36 163.4 17.36C164.493 17.36 165.5 17.5533 166.42 17.94C167.353 18.3267 168.133 18.8667 168.76 19.56L167.24 21.06C166.773 20.54 166.213 20.14 165.56 19.86C164.92 19.58 164.2 19.44 163.4 19.44C162.453 19.44 161.58 19.6667 160.78 20.12C159.98 20.56 159.333 21.1867 158.84 22C158.36 22.8 158.12 23.7467 158.12 24.84C158.12 25.9333 158.367 26.8867 158.86 27.7C159.353 28.5 160 29.1267 160.8 29.58C161.6 30.02 162.473 30.24 163.42 30.24C164.287 30.24 165.073 30.08 165.78 29.76C166.487 29.4267 167.053 28.96 167.48 28.36C167.92 27.76 168.187 27.04 168.28 26.2H163.38V24.26H170.34C170.42 24.62 170.46 25 170.46 25.4V25.42C170.46 26.8067 170.153 28.02 169.54 29.06C168.94 30.0867 168.107 30.8867 167.04 31.46C165.973 32.0333 164.76 32.32 163.4 32.32ZM176.9 32.32C175.847 32.32 174.92 32.08 174.12 31.6C173.32 31.12 172.693 30.4733 172.24 29.66C171.787 28.8467 171.56 27.9267 171.56 26.9C171.56 25.8867 171.787 24.9733 172.24 24.16C172.693 23.3333 173.32 22.68 174.12 22.2C174.92 21.72 175.847 21.48 176.9 21.48C177.94 21.48 178.86 21.72 179.66 22.2C180.46 22.68 181.087 23.3333 181.54 24.16C181.993 24.9733 182.22 25.8867 182.22 26.9C182.22 27.9267 181.993 28.8467 181.54 29.66C181.087 30.4733 180.46 31.12 179.66 31.6C178.86 32.08 177.94 32.32 176.9 32.32ZM176.9 30.34C177.46 30.34 177.98 30.2067 178.46 29.94C178.94 29.66 179.327 29.2667 179.62 28.76C179.927 28.24 180.08 27.62 180.08 26.9C180.08 26.18 179.927 25.5667 179.62 25.06C179.327 24.54 178.94 24.1467 178.46 23.88C177.98 23.6 177.46 23.46 176.9 23.46C176.34 23.46 175.813 23.6 175.32 23.88C174.84 24.1467 174.447 24.54 174.14 25.06C173.847 25.5667 173.7 26.18 173.7 26.9C173.7 27.62 173.847 28.24 174.14 28.76C174.447 29.2667 174.84 29.66 175.32 29.94C175.813 30.2067 176.34 30.34 176.9 30.34ZM189.009 32.32C187.956 32.32 187.029 32.08 186.229 31.6C185.429 31.12 184.803 30.4733 184.349 29.66C183.896 28.8467 183.669 27.9267 183.669 26.9C183.669 25.8867 183.896 24.9733 184.349 24.16C184.803 23.3333 185.429 22.68 186.229 22.2C187.029 21.72 187.956 21.48 189.009 21.48C190.049 21.48 190.969 21.72 191.769 22.2C192.569 22.68 193.196 23.3333 193.649 24.16C194.103 24.9733 194.329 25.8867 194.329 26.9C194.329 27.9267 194.103 28.8467 193.649 29.66C193.196 30.4733 192.569 31.12 191.769 31.6C190.969 32.08 190.049 32.32 189.009 32.32ZM189.009 30.34C189.569 30.34 190.089 30.2067 190.569 29.94C191.049 29.66 191.436 29.2667 191.729 28.76C192.036 28.24 192.189 27.62 192.189 26.9C192.189 26.18 192.036 25.5667 191.729 25.06C191.436 24.54 191.049 24.1467 190.569 23.88C190.089 23.6 189.569 23.46 189.009 23.46C188.449 23.46 187.923 23.6 187.429 23.88C186.949 24.1467 186.556 24.54 186.249 25.06C185.956 25.5667 185.809 26.18 185.809 26.9C185.809 27.62 185.956 28.24 186.249 28.76C186.556 29.2667 186.949 29.66 187.429 29.94C187.923 30.2067 188.449 30.34 189.009 30.34ZM200.919 36.64C200.025 36.64 199.252 36.4933 198.599 36.2C197.959 35.92 197.439 35.5533 197.039 35.1C196.639 34.66 196.352 34.2067 196.179 33.74L198.179 32.9C198.392 33.4333 198.732 33.8667 199.199 34.2C199.679 34.5467 200.252 34.72 200.919 34.72C201.852 34.72 202.585 34.44 203.119 33.88C203.665 33.32 203.939 32.5267 203.939 31.5V30.52H203.819C203.499 31 203.052 31.3867 202.479 31.68C201.919 31.96 201.279 32.1 200.559 32.1C199.692 32.1 198.899 31.88 198.179 31.44C197.459 31 196.879 30.3867 196.439 29.6C195.999 28.8 195.779 27.8667 195.779 26.8C195.779 25.72 195.999 24.7867 196.439 24C196.879 23.2 197.459 22.58 198.179 22.14C198.899 21.7 199.692 21.48 200.559 21.48C201.279 21.48 201.919 21.6267 202.479 21.92C203.052 22.2133 203.499 22.6 203.819 23.08H203.939V21.8H205.999V31.46C205.999 32.5667 205.779 33.5067 205.339 34.28C204.912 35.0533 204.319 35.64 203.559 36.04C202.799 36.44 201.919 36.64 200.919 36.64ZM200.939 30.14C201.472 30.14 201.965 30.0133 202.419 29.76C202.872 29.4933 203.239 29.1133 203.519 28.62C203.799 28.1133 203.939 27.5067 203.939 26.8C203.939 26.0667 203.799 25.4533 203.519 24.96C203.239 24.4533 202.872 24.0733 202.419 23.82C201.965 23.5667 201.472 23.44 200.939 23.44C200.405 23.44 199.905 23.5733 199.439 23.84C198.985 24.0933 198.619 24.4667 198.339 24.96C198.059 25.4533 197.919 26.0667 197.919 26.8C197.919 27.52 198.059 28.1333 198.339 28.64C198.619 29.1333 198.985 29.5067 199.439 29.76C199.905 30.0133 200.405 30.14 200.939 30.14ZM208.546 32V17.68H210.706V32H208.546ZM217.815 32.32C216.815 32.32 215.921 32.0867 215.135 31.62C214.348 31.1533 213.728 30.5133 213.275 29.7C212.835 28.8867 212.615 27.96 212.615 26.92C212.615 25.9467 212.828 25.0467 213.255 24.22C213.681 23.3933 214.275 22.7333 215.035 22.24C215.808 21.7333 216.695 21.48 217.695 21.48C218.748 21.48 219.641 21.7067 220.375 22.16C221.121 22.6133 221.688 23.2333 222.075 24.02C222.461 24.8067 222.655 25.6933 222.655 26.68C222.655 26.8267 222.648 26.96 222.635 27.08C222.635 27.2 222.628 27.2933 222.615 27.36H214.735C214.841 28.3733 215.195 29.1333 215.795 29.64C216.408 30.1467 217.101 30.4 217.875 30.4C218.568 30.4 219.141 30.2467 219.595 29.94C220.048 29.62 220.408 29.2267 220.675 28.76L222.455 29.62C222.015 30.42 221.415 31.0733 220.655 31.58C219.895 32.0733 218.948 32.32 217.815 32.32ZM217.715 23.32C216.995 23.32 216.381 23.54 215.875 23.98C215.368 24.42 215.028 25.0067 214.855 25.74H220.515C220.488 25.3933 220.375 25.0333 220.175 24.66C219.975 24.2867 219.668 23.9733 219.255 23.72C218.855 23.4533 218.341 23.32 217.715 23.32ZM229.686 32V17.68H238.046V19.76H231.886V32H229.686ZM241.198 32.32C240.465 32.32 239.812 32.18 239.238 31.9C238.665 31.6067 238.218 31.2 237.898 30.68C237.578 30.16 237.418 29.5667 237.418 28.9C237.418 28.18 237.605 27.5667 237.978 27.06C238.365 26.54 238.878 26.1467 239.518 25.88C240.158 25.6133 240.865 25.48 241.638 25.48C242.278 25.48 242.838 25.54 243.318 25.66C243.812 25.78 244.185 25.9067 244.438 26.04V25.5C244.438 24.8333 244.198 24.3 243.718 23.9C243.238 23.5 242.618 23.3 241.858 23.3C241.338 23.3 240.845 23.42 240.378 23.66C239.912 23.8867 239.538 24.2 239.258 24.6L237.778 23.46C238.218 22.8467 238.798 22.3667 239.518 22.02C240.252 21.66 241.052 21.48 241.918 21.48C243.398 21.48 244.538 21.8467 245.338 22.58C246.138 23.3 246.538 24.3133 246.538 25.62V32H244.438V30.74H244.318C244.052 31.1533 243.652 31.52 243.118 31.84C242.585 32.16 241.945 32.32 241.198 32.32ZM241.578 30.56C242.138 30.56 242.632 30.4267 243.058 30.16C243.485 29.8933 243.818 29.5467 244.058 29.12C244.312 28.68 244.438 28.2067 244.438 27.7C244.132 27.5267 243.772 27.3867 243.358 27.28C242.945 27.16 242.505 27.1 242.038 27.1C241.158 27.1 240.532 27.28 240.158 27.64C239.785 27.9867 239.598 28.4133 239.598 28.92C239.598 29.4 239.778 29.7933 240.138 30.1C240.498 30.4067 240.978 30.56 241.578 30.56ZM248.916 32V21.8H251.476L254.616 28.04H254.716L257.876 21.8H260.376V32H258.316V27.04L258.416 25.08H258.296L255.356 30.7H253.936L250.996 25.08H250.876L250.976 27.04V32H248.916ZM266.003 32.32C265.27 32.32 264.616 32.18 264.043 31.9C263.47 31.6067 263.023 31.2 262.703 30.68C262.383 30.16 262.223 29.5667 262.223 28.9C262.223 28.18 262.41 27.5667 262.783 27.06C263.17 26.54 263.683 26.1467 264.323 25.88C264.963 25.6133 265.67 25.48 266.443 25.48C267.083 25.48 267.643 25.54 268.123 25.66C268.616 25.78 268.99 25.9067 269.243 26.04V25.5C269.243 24.8333 269.003 24.3 268.523 23.9C268.043 23.5 267.423 23.3 266.663 23.3C266.143 23.3 265.65 23.42 265.183 23.66C264.716 23.8867 264.343 24.2 264.063 24.6L262.583 23.46C263.023 22.8467 263.603 22.3667 264.323 22.02C265.056 21.66 265.856 21.48 266.723 21.48C268.203 21.48 269.343 21.8467 270.143 22.58C270.943 23.3 271.343 24.3133 271.343 25.62V32H269.243V30.74H269.123C268.856 31.1533 268.456 31.52 267.923 31.84C267.39 32.16 266.75 32.32 266.003 32.32ZM266.383 30.56C266.943 30.56 267.436 30.4267 267.863 30.16C268.29 29.8933 268.623 29.5467 268.863 29.12C269.116 28.68 269.243 28.2067 269.243 27.7C268.936 27.5267 268.576 27.3867 268.163 27.28C267.75 27.16 267.31 27.1 266.843 27.1C265.963 27.1 265.336 27.28 264.963 27.64C264.59 27.9867 264.403 28.4133 264.403 28.92C264.403 29.4 264.583 29.7933 264.943 30.1C265.303 30.4067 265.783 30.56 266.383 30.56ZM273.721 32V21.8H275.881V25.9H280.721V21.8H282.881V32H280.721V27.78H275.881V32H273.721ZM289.963 32.32C288.963 32.32 288.07 32.0867 287.283 31.62C286.496 31.1533 285.876 30.5133 285.423 29.7C284.983 28.8867 284.763 27.96 284.763 26.92C284.763 25.9467 284.976 25.0467 285.403 24.22C285.83 23.3933 286.423 22.7333 287.183 22.24C287.956 21.7333 288.843 21.48 289.843 21.48C290.896 21.48 291.79 21.7067 292.523 22.16C293.27 22.6133 293.836 23.2333 294.223 24.02C294.61 24.8067 294.803 25.6933 294.803 26.68C294.803 26.8267 294.796 26.96 294.783 27.08C294.783 27.2 294.776 27.2933 294.763 27.36H286.883C286.99 28.3733 287.343 29.1333 287.943 29.64C288.556 30.1467 289.25 30.4 290.023 30.4C290.716 30.4 291.29 30.2467 291.743 29.94C292.196 29.62 292.556 29.2267 292.823 28.76L294.603 29.62C294.163 30.42 293.563 31.0733 292.803 31.58C292.043 32.0733 291.096 32.32 289.963 32.32ZM289.863 23.32C289.143 23.32 288.53 23.54 288.023 23.98C287.516 24.42 287.176 25.0067 287.003 25.74H292.663C292.636 25.3933 292.523 25.0333 292.323 24.66C292.123 24.2867 291.816 23.9733 291.403 23.72C291.003 23.4533 290.49 23.32 289.863 23.32ZM305.067 35.04V32H296.807V21.8H298.967V30.12H303.407V21.8H305.567V30.12H307.047V35.04H305.067ZM311.135 21.8V25.2H313.475C314.168 25.2 314.788 25.3467 315.335 25.64C315.895 25.9333 316.335 26.34 316.655 26.86C316.975 27.3667 317.135 27.9467 317.135 28.6C317.135 29.2533 316.975 29.8333 316.655 30.34C316.335 30.8467 315.895 31.2533 315.335 31.56C314.788 31.8533 314.168 32 313.475 32H308.975V21.8H311.135ZM311.135 30.2H313.295C313.775 30.2 314.175 30.0467 314.495 29.74C314.815 29.4333 314.975 29.0533 314.975 28.6C314.975 28.1467 314.815 27.7667 314.495 27.46C314.175 27.14 313.775 26.98 313.295 26.98H311.135V30.2Z" fill="white"/>
<rect x="0.5" y="0.5" width="338" height="49" rx="24.5" stroke="#747775"/>
<defs>
<linearGradient id="paint0_linear_1819_24785" x1="34.5703" y1="30.7864" x2="18.7309" y2="48.9133" gradientUnits="userSpaceOnUse">
<stop stop-color="#4285F4"/>
<stop offset="1" stop-color="#1B74E8"/>
</linearGradient>
</defs>
</svg>
