<svg width="303" height="50" viewBox="0 0 303 50" fill="none" xmlns="http://www.w3.org/2000/svg">
<rect x="0.5" y="0.5" width="302" height="49" rx="24.5" fill="#1F1F1F"/>
<path d="M51 22H21V17C21 14.2857 23.2018 12 25.8165 12H46.1835C48.7982 12 51 14.2857 51 17V22Z" fill="#34A853"/>
<path d="M51 26.0537H21V21.0537C21 18.3394 23.2018 16.0537 25.8165 16.0537H46.1835C48.7982 16.0537 51 18.3394 51 21.0537V26.0537Z" fill="#FBBC04"/>
<path d="M51 30.2468H21V25.2468C21 22.5325 23.2018 20.2468 25.8165 20.2468H46.1835C48.7982 20.2468 51 22.5325 51 25.2468V30.2468Z" fill="#EA4335"/>
<path d="M21 23.2752L40.0411 27.6789C42.2329 28.2294 44.6986 27.6789 46.4795 26.3028L51 23V33.3211C51 35.9358 48.8082 38 46.2055 38H25.7945C23.1918 38 21 35.9358 21 33.3211V23.2752Z" fill="url(#paint0_linear_1819_24994)"/>
<path d="M63.74 35.04V29.92H65C65.3067 29.4133 65.5533 28.76 65.74 27.96C65.94 27.1467 66.08 26.2533 66.16 25.28C66.2533 24.3067 66.3 23.3267 66.3 22.34V17.68H75.48V29.92H77.16V35.04H75.02V32H65.88V35.04H63.74ZM67.4 29.92H73.28V19.76H68.44V22.66C68.44 24.1133 68.3467 25.4533 68.16 26.68C67.9867 27.9067 67.7333 28.9467 67.4 29.8V29.92ZM83.7475 32.32C82.6942 32.32 81.7675 32.08 80.9675 31.6C80.1675 31.12 79.5408 30.4733 79.0875 29.66C78.6342 28.8467 78.4075 27.9267 78.4075 26.9C78.4075 25.8867 78.6342 24.9733 79.0875 24.16C79.5408 23.3333 80.1675 22.68 80.9675 22.2C81.7675 21.72 82.6942 21.48 83.7475 21.48C84.7875 21.48 85.7075 21.72 86.5075 22.2C87.3075 22.68 87.9342 23.3333 88.3875 24.16C88.8408 24.9733 89.0675 25.8867 89.0675 26.9C89.0675 27.9267 88.8408 28.8467 88.3875 29.66C87.9342 30.4733 87.3075 31.12 86.5075 31.6C85.7075 32.08 84.7875 32.32 83.7475 32.32ZM83.7475 30.34C84.3075 30.34 84.8275 30.2067 85.3075 29.94C85.7875 29.66 86.1742 29.2667 86.4675 28.76C86.7742 28.24 86.9275 27.62 86.9275 26.9C86.9275 26.18 86.7742 25.5667 86.4675 25.06C86.1742 24.54 85.7875 24.1467 85.3075 23.88C84.8275 23.6 84.3075 23.46 83.7475 23.46C83.1875 23.46 82.6608 23.6 82.1675 23.88C81.6875 24.1467 81.2942 24.54 80.9875 25.06C80.6942 25.5667 80.5475 26.18 80.5475 26.9C80.5475 27.62 80.6942 28.24 80.9875 28.76C81.2942 29.2667 81.6875 29.66 82.1675 29.94C82.6608 30.2067 83.1875 30.34 83.7475 30.34ZM89.8277 35.04V30.12H90.9477C91.161 29.8667 91.3477 29.5067 91.5077 29.04C91.681 28.56 91.8143 28.02 91.9077 27.42C92.0143 26.82 92.0677 26.2133 92.0677 25.6V21.8H99.7077V30.12H101.188V35.04H99.2077V32H91.8277V35.04H89.8277ZM93.2677 30.12H97.5677V23.68H94.1077V25.78C94.1077 26.7133 94.041 27.52 93.9077 28.2C93.7743 28.8667 93.561 29.4667 93.2677 30V30.12ZM106.308 32.32C105.574 32.32 104.921 32.18 104.348 31.9C103.774 31.6067 103.328 31.2 103.008 30.68C102.688 30.16 102.528 29.5667 102.528 28.9C102.528 28.18 102.714 27.5667 103.088 27.06C103.474 26.54 103.988 26.1467 104.628 25.88C105.268 25.6133 105.974 25.48 106.748 25.48C107.388 25.48 107.948 25.54 108.428 25.66C108.921 25.78 109.294 25.9067 109.548 26.04V25.5C109.548 24.8333 109.308 24.3 108.828 23.9C108.348 23.5 107.728 23.3 106.968 23.3C106.448 23.3 105.954 23.42 105.488 23.66C105.021 23.8867 104.648 24.2 104.368 24.6L102.888 23.46C103.328 22.8467 103.908 22.3667 104.628 22.02C105.361 21.66 106.161 21.48 107.028 21.48C108.508 21.48 109.648 21.8467 110.448 22.58C111.248 23.3 111.648 24.3133 111.648 25.62V32H109.548V30.74H109.428C109.161 31.1533 108.761 31.52 108.228 31.84C107.694 32.16 107.054 32.32 106.308 32.32ZM106.688 30.56C107.248 30.56 107.741 30.4267 108.168 30.16C108.594 29.8933 108.928 29.5467 109.168 29.12C109.421 28.68 109.548 28.2067 109.548 27.7C109.241 27.5267 108.881 27.3867 108.468 27.28C108.054 27.16 107.614 27.1 107.148 27.1C106.268 27.1 105.641 27.28 105.268 27.64C104.894 27.9867 104.708 28.4133 104.708 28.92C104.708 29.4 104.888 29.7933 105.248 30.1C105.608 30.4067 106.088 30.56 106.688 30.56ZM115.266 20.3C114.866 20.3 114.519 20.16 114.226 19.88C113.946 19.5867 113.806 19.24 113.806 18.84C113.806 18.44 113.946 18.1 114.226 17.82C114.519 17.54 114.866 17.4 115.266 17.4C115.666 17.4 116.006 17.54 116.286 17.82C116.579 18.1 116.726 18.44 116.726 18.84C116.726 19.24 116.579 19.5867 116.286 19.88C116.006 20.16 115.666 20.3 115.266 20.3ZM113.326 36.52C112.912 36.52 112.539 36.4733 112.206 36.38V34.3C112.339 34.38 112.492 34.44 112.666 34.48C112.826 34.5333 112.986 34.56 113.146 34.56C113.532 34.56 113.799 34.44 113.946 34.2C114.106 33.9733 114.186 33.64 114.186 33.2V21.8H116.346V33.22C116.346 34.3933 116.059 35.2333 115.486 35.74C114.912 36.26 114.192 36.52 113.326 36.52ZM123.694 32V21.8H128.754C129.354 21.8 129.887 21.92 130.354 22.16C130.834 22.3867 131.207 22.7 131.474 23.1C131.754 23.5 131.894 23.9467 131.894 24.44C131.894 24.9733 131.774 25.4333 131.534 25.82C131.307 26.2067 131.007 26.4933 130.634 26.68V26.8C131.14 27 131.54 27.3 131.834 27.7C132.14 28.1 132.294 28.56 132.294 29.08C132.294 29.68 132.134 30.2 131.814 30.64C131.507 31.08 131.107 31.42 130.614 31.66C130.12 31.8867 129.594 32 129.034 32H123.694ZM125.854 23.56V25.96H128.494C128.854 25.96 129.154 25.8467 129.394 25.62C129.634 25.3933 129.754 25.1067 129.754 24.76C129.754 24.4 129.634 24.1133 129.394 23.9C129.154 23.6733 128.854 23.56 128.494 23.56H125.854ZM125.854 30.2H128.814C129.2 30.2 129.52 30.08 129.774 29.84C130.04 29.5867 130.174 29.2667 130.174 28.88C130.174 28.5067 130.04 28.1933 129.774 27.94C129.52 27.6867 129.2 27.56 128.814 27.56H125.854V30.2ZM139.099 32.32C138.046 32.32 137.119 32.08 136.319 31.6C135.519 31.12 134.892 30.4733 134.439 29.66C133.986 28.8467 133.759 27.9267 133.759 26.9C133.759 25.8867 133.986 24.9733 134.439 24.16C134.892 23.3333 135.519 22.68 136.319 22.2C137.119 21.72 138.046 21.48 139.099 21.48C140.139 21.48 141.059 21.72 141.859 22.2C142.659 22.68 143.286 23.3333 143.739 24.16C144.192 24.9733 144.419 25.8867 144.419 26.9C144.419 27.9267 144.192 28.8467 143.739 29.66C143.286 30.4733 142.659 31.12 141.859 31.6C141.059 32.08 140.139 32.32 139.099 32.32ZM139.099 30.34C139.659 30.34 140.179 30.2067 140.659 29.94C141.139 29.66 141.526 29.2667 141.819 28.76C142.126 28.24 142.279 27.62 142.279 26.9C142.279 26.18 142.126 25.5667 141.819 25.06C141.526 24.54 141.139 24.1467 140.659 23.88C140.179 23.6 139.659 23.46 139.099 23.46C138.539 23.46 138.012 23.6 137.519 23.88C137.039 24.1467 136.646 24.54 136.339 25.06C136.046 25.5667 135.899 26.18 135.899 26.9C135.899 27.62 136.046 28.24 136.339 28.76C136.646 29.2667 137.039 29.66 137.519 29.94C138.012 30.2067 138.539 30.34 139.099 30.34Z" fill="white"/>
<path d="M159.4 32.32C158.373 32.32 157.407 32.1333 156.5 31.76C155.607 31.3867 154.813 30.8667 154.12 30.2C153.427 29.52 152.88 28.7267 152.48 27.82C152.093 26.9 151.9 25.9067 151.9 24.84C151.9 23.7733 152.093 22.7867 152.48 21.88C152.88 20.96 153.42 20.1667 154.1 19.5C154.793 18.82 155.593 18.2933 156.5 17.92C157.407 17.5467 158.373 17.36 159.4 17.36C160.493 17.36 161.5 17.5533 162.42 17.94C163.353 18.3267 164.133 18.8667 164.76 19.56L163.24 21.06C162.773 20.54 162.213 20.14 161.56 19.86C160.92 19.58 160.2 19.44 159.4 19.44C158.453 19.44 157.58 19.6667 156.78 20.12C155.98 20.56 155.333 21.1867 154.84 22C154.36 22.8 154.12 23.7467 154.12 24.84C154.12 25.9333 154.367 26.8867 154.86 27.7C155.353 28.5 156 29.1267 156.8 29.58C157.6 30.02 158.473 30.24 159.42 30.24C160.287 30.24 161.073 30.08 161.78 29.76C162.487 29.4267 163.053 28.96 163.48 28.36C163.92 27.76 164.187 27.04 164.28 26.2H159.38V24.26H166.34C166.42 24.62 166.46 25 166.46 25.4V25.42C166.46 26.8067 166.153 28.02 165.54 29.06C164.94 30.0867 164.107 30.8867 163.04 31.46C161.973 32.0333 160.76 32.32 159.4 32.32ZM172.9 32.32C171.847 32.32 170.92 32.08 170.12 31.6C169.32 31.12 168.693 30.4733 168.24 29.66C167.787 28.8467 167.56 27.9267 167.56 26.9C167.56 25.8867 167.787 24.9733 168.24 24.16C168.693 23.3333 169.32 22.68 170.12 22.2C170.92 21.72 171.847 21.48 172.9 21.48C173.94 21.48 174.86 21.72 175.66 22.2C176.46 22.68 177.087 23.3333 177.54 24.16C177.993 24.9733 178.22 25.8867 178.22 26.9C178.22 27.9267 177.993 28.8467 177.54 29.66C177.087 30.4733 176.46 31.12 175.66 31.6C174.86 32.08 173.94 32.32 172.9 32.32ZM172.9 30.34C173.46 30.34 173.98 30.2067 174.46 29.94C174.94 29.66 175.327 29.2667 175.62 28.76C175.927 28.24 176.08 27.62 176.08 26.9C176.08 26.18 175.927 25.5667 175.62 25.06C175.327 24.54 174.94 24.1467 174.46 23.88C173.98 23.6 173.46 23.46 172.9 23.46C172.34 23.46 171.813 23.6 171.32 23.88C170.84 24.1467 170.447 24.54 170.14 25.06C169.847 25.5667 169.7 26.18 169.7 26.9C169.7 27.62 169.847 28.24 170.14 28.76C170.447 29.2667 170.84 29.66 171.32 29.94C171.813 30.2067 172.34 30.34 172.9 30.34ZM185.009 32.32C183.956 32.32 183.029 32.08 182.229 31.6C181.429 31.12 180.803 30.4733 180.349 29.66C179.896 28.8467 179.669 27.9267 179.669 26.9C179.669 25.8867 179.896 24.9733 180.349 24.16C180.803 23.3333 181.429 22.68 182.229 22.2C183.029 21.72 183.956 21.48 185.009 21.48C186.049 21.48 186.969 21.72 187.769 22.2C188.569 22.68 189.196 23.3333 189.649 24.16C190.103 24.9733 190.329 25.8867 190.329 26.9C190.329 27.9267 190.103 28.8467 189.649 29.66C189.196 30.4733 188.569 31.12 187.769 31.6C186.969 32.08 186.049 32.32 185.009 32.32ZM185.009 30.34C185.569 30.34 186.089 30.2067 186.569 29.94C187.049 29.66 187.436 29.2667 187.729 28.76C188.036 28.24 188.189 27.62 188.189 26.9C188.189 26.18 188.036 25.5667 187.729 25.06C187.436 24.54 187.049 24.1467 186.569 23.88C186.089 23.6 185.569 23.46 185.009 23.46C184.449 23.46 183.923 23.6 183.429 23.88C182.949 24.1467 182.556 24.54 182.249 25.06C181.956 25.5667 181.809 26.18 181.809 26.9C181.809 27.62 181.956 28.24 182.249 28.76C182.556 29.2667 182.949 29.66 183.429 29.94C183.923 30.2067 184.449 30.34 185.009 30.34ZM196.919 36.64C196.025 36.64 195.252 36.4933 194.599 36.2C193.959 35.92 193.439 35.5533 193.039 35.1C192.639 34.66 192.352 34.2067 192.179 33.74L194.179 32.9C194.392 33.4333 194.732 33.8667 195.199 34.2C195.679 34.5467 196.252 34.72 196.919 34.72C197.852 34.72 198.585 34.44 199.119 33.88C199.665 33.32 199.939 32.5267 199.939 31.5V30.52H199.819C199.499 31 199.052 31.3867 198.479 31.68C197.919 31.96 197.279 32.1 196.559 32.1C195.692 32.1 194.899 31.88 194.179 31.44C193.459 31 192.879 30.3867 192.439 29.6C191.999 28.8 191.779 27.8667 191.779 26.8C191.779 25.72 191.999 24.7867 192.439 24C192.879 23.2 193.459 22.58 194.179 22.14C194.899 21.7 195.692 21.48 196.559 21.48C197.279 21.48 197.919 21.6267 198.479 21.92C199.052 22.2133 199.499 22.6 199.819 23.08H199.939V21.8H201.999V31.46C201.999 32.5667 201.779 33.5067 201.339 34.28C200.912 35.0533 200.319 35.64 199.559 36.04C198.799 36.44 197.919 36.64 196.919 36.64ZM196.939 30.14C197.472 30.14 197.965 30.0133 198.419 29.76C198.872 29.4933 199.239 29.1133 199.519 28.62C199.799 28.1133 199.939 27.5067 199.939 26.8C199.939 26.0667 199.799 25.4533 199.519 24.96C199.239 24.4533 198.872 24.0733 198.419 23.82C197.965 23.5667 197.472 23.44 196.939 23.44C196.405 23.44 195.905 23.5733 195.439 23.84C194.985 24.0933 194.619 24.4667 194.339 24.96C194.059 25.4533 193.919 26.0667 193.919 26.8C193.919 27.52 194.059 28.1333 194.339 28.64C194.619 29.1333 194.985 29.5067 195.439 29.76C195.905 30.0133 196.405 30.14 196.939 30.14ZM204.546 32V17.68H206.706V32H204.546ZM213.815 32.32C212.815 32.32 211.921 32.0867 211.135 31.62C210.348 31.1533 209.728 30.5133 209.275 29.7C208.835 28.8867 208.615 27.96 208.615 26.92C208.615 25.9467 208.828 25.0467 209.255 24.22C209.681 23.3933 210.275 22.7333 211.035 22.24C211.808 21.7333 212.695 21.48 213.695 21.48C214.748 21.48 215.641 21.7067 216.375 22.16C217.121 22.6133 217.688 23.2333 218.075 24.02C218.461 24.8067 218.655 25.6933 218.655 26.68C218.655 26.8267 218.648 26.96 218.635 27.08C218.635 27.2 218.628 27.2933 218.615 27.36H210.735C210.841 28.3733 211.195 29.1333 211.795 29.64C212.408 30.1467 213.101 30.4 213.875 30.4C214.568 30.4 215.141 30.2467 215.595 29.94C216.048 29.62 216.408 29.2267 216.675 28.76L218.455 29.62C218.015 30.42 217.415 31.0733 216.655 31.58C215.895 32.0733 214.948 32.32 213.815 32.32ZM213.715 23.32C212.995 23.32 212.381 23.54 211.875 23.98C211.368 24.42 211.028 25.0067 210.855 25.74H216.515C216.488 25.3933 216.375 25.0333 216.175 24.66C215.975 24.2867 215.668 23.9733 215.255 23.72C214.855 23.4533 214.341 23.32 213.715 23.32ZM227.446 32L223.606 17.68H226.046L228.326 26.98L228.566 28.22H228.686L228.986 26.98L231.866 17.68H234.066L236.826 26.98L237.126 28.2H237.246L237.486 26.98L239.766 17.68H242.186L238.406 32H236.086L233.346 22.5L233.026 21.16H232.906L232.566 22.5L229.706 32H227.446ZM246.202 32.32C245.469 32.32 244.816 32.18 244.242 31.9C243.669 31.6067 243.222 31.2 242.902 30.68C242.582 30.16 242.422 29.5667 242.422 28.9C242.422 28.18 242.609 27.5667 242.982 27.06C243.369 26.54 243.882 26.1467 244.522 25.88C245.162 25.6133 245.869 25.48 246.642 25.48C247.282 25.48 247.842 25.54 248.322 25.66C248.816 25.78 249.189 25.9067 249.442 26.04V25.5C249.442 24.8333 249.202 24.3 248.722 23.9C248.242 23.5 247.622 23.3 246.862 23.3C246.342 23.3 245.849 23.42 245.382 23.66C244.916 23.8867 244.542 24.2 244.262 24.6L242.782 23.46C243.222 22.8467 243.802 22.3667 244.522 22.02C245.256 21.66 246.056 21.48 246.922 21.48C248.402 21.48 249.542 21.8467 250.342 22.58C251.142 23.3 251.542 24.3133 251.542 25.62V32H249.442V30.74H249.322C249.056 31.1533 248.656 31.52 248.122 31.84C247.589 32.16 246.949 32.32 246.202 32.32ZM246.582 30.56C247.142 30.56 247.636 30.4267 248.062 30.16C248.489 29.8933 248.822 29.5467 249.062 29.12C249.316 28.68 249.442 28.2067 249.442 27.7C249.136 27.5267 248.776 27.3867 248.362 27.28C247.949 27.16 247.509 27.1 247.042 27.1C246.162 27.1 245.536 27.28 245.162 27.64C244.789 27.9867 244.602 28.4133 244.602 28.92C244.602 29.4 244.782 29.7933 245.142 30.1C245.502 30.4067 245.982 30.56 246.582 30.56ZM253.94 32V17.68H256.1V32H253.94ZM258.667 32V17.68H260.827V32H258.667ZM267.936 32.32C266.936 32.32 266.042 32.0867 265.256 31.62C264.469 31.1533 263.849 30.5133 263.396 29.7C262.956 28.8867 262.736 27.96 262.736 26.92C262.736 25.9467 262.949 25.0467 263.376 24.22C263.802 23.3933 264.396 22.7333 265.156 22.24C265.929 21.7333 266.816 21.48 267.816 21.48C268.869 21.48 269.762 21.7067 270.496 22.16C271.242 22.6133 271.809 23.2333 272.196 24.02C272.582 24.8067 272.776 25.6933 272.776 26.68C272.776 26.8267 272.769 26.96 272.756 27.08C272.756 27.2 272.749 27.2933 272.736 27.36H264.856C264.962 28.3733 265.316 29.1333 265.916 29.64C266.529 30.1467 267.222 30.4 267.996 30.4C268.689 30.4 269.262 30.2467 269.716 29.94C270.169 29.62 270.529 29.2267 270.796 28.76L272.576 29.62C272.136 30.42 271.536 31.0733 270.776 31.58C270.016 32.0733 269.069 32.32 267.936 32.32ZM267.836 23.32C267.116 23.32 266.502 23.54 265.996 23.98C265.489 24.42 265.149 25.0067 264.976 25.74H270.636C270.609 25.3933 270.496 25.0333 270.296 24.66C270.096 24.2867 269.789 23.9733 269.376 23.72C268.976 23.4533 268.462 23.32 267.836 23.32ZM275.567 29.04V23.68H273.787V21.8H275.567V18.92H277.727V21.8H280.227V23.68H277.727V28.58C277.727 29.0867 277.827 29.4733 278.027 29.74C278.24 30.0067 278.593 30.14 279.087 30.14C279.34 30.14 279.553 30.1067 279.727 30.04C279.913 29.9733 280.1 29.88 280.287 29.76V31.86C280.06 31.9533 279.82 32.0267 279.567 32.08C279.313 32.1333 279.013 32.16 278.667 32.16C277.72 32.16 276.967 31.8867 276.407 31.34C275.847 30.78 275.567 30.0133 275.567 29.04Z" fill="white"/>
<rect x="0.5" y="0.5" width="302" height="49" rx="24.5" stroke="#747775"/>
<defs>
<linearGradient id="paint0_linear_1819_24994" x1="34.5703" y1="30.7864" x2="18.7309" y2="48.9133" gradientUnits="userSpaceOnUse">
<stop stop-color="#4285F4"/>
<stop offset="1" stop-color="#1B74E8"/>
</linearGradient>
</defs>
</svg>
