<svg width="388" height="50" viewBox="0 0 388 50" fill="none" xmlns="http://www.w3.org/2000/svg">
<rect x="0.5" y="0.5" width="387" height="49" rx="24.5" fill="#1F1F1F"/>
<path d="M51 22H21V17C21 14.2857 23.2018 12 25.8165 12H46.1835C48.7982 12 51 14.2857 51 17V22Z" fill="#34A853"/>
<path d="M51 26.0537H21V21.0537C21 18.3394 23.2018 16.0537 25.8165 16.0537H46.1835C48.7982 16.0537 51 18.3394 51 21.0537V26.0537Z" fill="#FBBC04"/>
<path d="M51 30.2468H21V25.2468C21 22.5325 23.2018 20.2468 25.8165 20.2468H46.1835C48.7982 20.2468 51 22.5325 51 25.2468V30.2468Z" fill="#EA4335"/>
<path d="M21 23.2752L40.0411 27.6789C42.2329 28.2294 44.6986 27.6789 46.4795 26.3028L51 23V33.3211C51 35.9358 48.8082 38 46.2055 38H25.7945C23.1918 38 21 35.9358 21 33.3211V23.2752Z" fill="url(#paint0_linear_1819_24481)"/>
<path d="M64.62 32V17.68H69.54C70.4067 17.68 71.1933 17.8667 71.9 18.24C72.6067 18.6133 73.1667 19.1267 73.58 19.78C74.0067 20.4333 74.22 21.1933 74.22 22.06C74.22 22.9267 74.0067 23.6933 73.58 24.36C73.1667 25.0133 72.6067 25.5267 71.9 25.9C71.1933 26.26 70.4067 26.44 69.54 26.44H66.82V32H64.62ZM69.6 19.76H66.82V24.36H69.6C70.12 24.36 70.56 24.2533 70.92 24.04C71.28 23.8133 71.5533 23.5267 71.74 23.18C71.94 22.82 72.04 22.4467 72.04 22.06C72.04 21.6733 71.94 21.3067 71.74 20.96C71.5533 20.6133 71.28 20.3267 70.92 20.1C70.56 19.8733 70.12 19.76 69.6 19.76ZM77.3555 20.3C76.9555 20.3 76.6088 20.16 76.3155 19.88C76.0355 19.5867 75.8955 19.24 75.8955 18.84C75.8955 18.44 76.0355 18.1 76.3155 17.82C76.6088 17.54 76.9555 17.4 77.3555 17.4C77.7555 17.4 78.0955 17.54 78.3755 17.82C78.6688 18.1 78.8155 18.44 78.8155 18.84C78.8155 19.24 78.6688 19.5867 78.3755 19.88C78.0955 20.16 77.7555 20.3 77.3555 20.3ZM76.2755 32V21.8H78.4355V32H76.2755ZM85.6778 32.32C84.6778 32.32 83.7845 32.0867 82.9978 31.62C82.2111 31.1533 81.5911 30.5133 81.1378 29.7C80.6978 28.8867 80.4778 27.96 80.4778 26.92C80.4778 25.9467 80.6911 25.0467 81.1178 24.22C81.5445 23.3933 82.1378 22.7333 82.8978 22.24C83.6711 21.7333 84.5578 21.48 85.5578 21.48C86.6111 21.48 87.5045 21.7067 88.2378 22.16C88.9845 22.6133 89.5511 23.2333 89.9378 24.02C90.3245 24.8067 90.5178 25.6933 90.5178 26.68C90.5178 26.8267 90.5111 26.96 90.4978 27.08C90.4978 27.2 90.4911 27.2933 90.4778 27.36H82.5978C82.7045 28.3733 83.0578 29.1333 83.6578 29.64C84.2711 30.1467 84.9645 30.4 85.7378 30.4C86.4311 30.4 87.0045 30.2467 87.4578 29.94C87.9111 29.62 88.2711 29.2267 88.5378 28.76L90.3178 29.62C89.8778 30.42 89.2778 31.0733 88.5178 31.58C87.7578 32.0733 86.8111 32.32 85.6778 32.32ZM85.5778 23.32C84.8578 23.32 84.2445 23.54 83.7378 23.98C83.2311 24.42 82.8911 25.0067 82.7178 25.74H88.3778C88.3511 25.3933 88.2378 25.0333 88.0378 24.66C87.8378 24.2867 87.5311 23.9733 87.1178 23.72C86.7178 23.4533 86.2045 23.32 85.5778 23.32ZM95.4264 32L91.2064 21.8H93.6064L96.4664 29.22H96.5664L99.4864 21.8H101.846L97.5864 32H95.4264ZM104.484 20.3C104.084 20.3 103.738 20.16 103.444 19.88C103.164 19.5867 103.024 19.24 103.024 18.84C103.024 18.44 103.164 18.1 103.444 17.82C103.738 17.54 104.084 17.4 104.484 17.4C104.884 17.4 105.224 17.54 105.504 17.82C105.798 18.1 105.944 18.44 105.944 18.84C105.944 19.24 105.798 19.5867 105.504 19.88C105.224 20.16 104.884 20.3 104.484 20.3ZM103.404 32V21.8H105.564V32H103.404ZM112.807 32.32C111.807 32.32 110.913 32.0867 110.127 31.62C109.34 31.1533 108.72 30.5133 108.267 29.7C107.827 28.8867 107.607 27.96 107.607 26.92C107.607 25.9467 107.82 25.0467 108.247 24.22C108.673 23.3933 109.267 22.7333 110.027 22.24C110.8 21.7333 111.687 21.48 112.687 21.48C113.74 21.48 114.633 21.7067 115.367 22.16C116.113 22.6133 116.68 23.2333 117.067 24.02C117.453 24.8067 117.647 25.6933 117.647 26.68C117.647 26.8267 117.64 26.96 117.627 27.08C117.627 27.2 117.62 27.2933 117.607 27.36H109.727C109.833 28.3733 110.187 29.1333 110.787 29.64C111.4 30.1467 112.093 30.4 112.867 30.4C113.56 30.4 114.133 30.2467 114.587 29.94C115.04 29.62 115.4 29.2267 115.667 28.76L117.447 29.62C117.007 30.42 116.407 31.0733 115.647 31.58C114.887 32.0733 113.94 32.32 112.807 32.32ZM112.707 23.32C111.987 23.32 111.373 23.54 110.867 23.98C110.36 24.42 110.02 25.0067 109.847 25.74H115.507C115.48 25.3933 115.367 25.0333 115.167 24.66C114.967 24.2867 114.66 23.9733 114.247 23.72C113.847 23.4533 113.333 23.32 112.707 23.32ZM119.651 32V21.8H121.691V23.2H121.811C122.104 22.7067 122.537 22.3 123.111 21.98C123.697 21.6467 124.337 21.48 125.031 21.48C126.284 21.48 127.224 21.8533 127.851 22.6C128.477 23.3467 128.791 24.3333 128.791 25.56V32H126.651V25.84C126.651 25.0133 126.444 24.4133 126.031 24.04C125.617 23.6533 125.077 23.46 124.411 23.46C123.891 23.46 123.437 23.6067 123.051 23.9C122.664 24.18 122.357 24.5533 122.131 25.02C121.917 25.4867 121.811 25.9867 121.811 26.52V32H119.651ZM136.052 32.32C134.999 32.32 134.072 32.08 133.272 31.6C132.472 31.12 131.846 30.4733 131.392 29.66C130.939 28.8467 130.712 27.9267 130.712 26.9C130.712 25.8867 130.939 24.9733 131.392 24.16C131.846 23.3333 132.472 22.68 133.272 22.2C134.072 21.72 134.999 21.48 136.052 21.48C137.092 21.48 138.012 21.72 138.812 22.2C139.612 22.68 140.239 23.3333 140.692 24.16C141.146 24.9733 141.372 25.8867 141.372 26.9C141.372 27.9267 141.146 28.8467 140.692 29.66C140.239 30.4733 139.612 31.12 138.812 31.6C138.012 32.08 137.092 32.32 136.052 32.32ZM136.052 30.34C136.612 30.34 137.132 30.2067 137.612 29.94C138.092 29.66 138.479 29.2667 138.772 28.76C139.079 28.24 139.232 27.62 139.232 26.9C139.232 26.18 139.079 25.5667 138.772 25.06C138.479 24.54 138.092 24.1467 137.612 23.88C137.132 23.6 136.612 23.46 136.052 23.46C135.492 23.46 134.966 23.6 134.472 23.88C133.992 24.1467 133.599 24.54 133.292 25.06C132.999 25.5667 132.852 26.18 132.852 26.9C132.852 27.62 132.999 28.24 133.292 28.76C133.599 29.2667 133.992 29.66 134.472 29.94C134.966 30.2067 135.492 30.34 136.052 30.34ZM144.149 29.04V23.68H142.369V21.8H144.149V18.92H146.309V21.8H148.809V23.68H146.309V28.58C146.309 29.0867 146.409 29.4733 146.609 29.74C146.822 30.0067 147.175 30.14 147.669 30.14C147.922 30.14 148.135 30.1067 148.309 30.04C148.495 29.9733 148.682 29.88 148.869 29.76V31.86C148.642 31.9533 148.402 32.0267 148.149 32.08C147.895 32.1333 147.595 32.16 147.249 32.16C146.302 32.16 145.549 31.8867 144.989 31.34C144.429 30.78 144.149 30.0133 144.149 29.04ZM155.569 32V17.68H157.729V32H155.569ZM161.516 20.3C161.116 20.3 160.769 20.16 160.476 19.88C160.196 19.5867 160.056 19.24 160.056 18.84C160.056 18.44 160.196 18.1 160.476 17.82C160.769 17.54 161.116 17.4 161.516 17.4C161.916 17.4 162.256 17.54 162.536 17.82C162.829 18.1 162.976 18.44 162.976 18.84C162.976 19.24 162.829 19.5867 162.536 19.88C162.256 20.16 161.916 20.3 161.516 20.3ZM160.436 32V21.8H162.596V32H160.436ZM169.838 32.32C168.838 32.32 167.945 32.0867 167.158 31.62C166.371 31.1533 165.751 30.5133 165.298 29.7C164.858 28.8867 164.638 27.96 164.638 26.92C164.638 25.9467 164.851 25.0467 165.278 24.22C165.705 23.3933 166.298 22.7333 167.058 22.24C167.831 21.7333 168.718 21.48 169.718 21.48C170.771 21.48 171.665 21.7067 172.398 22.16C173.145 22.6133 173.711 23.2333 174.098 24.02C174.485 24.8067 174.678 25.6933 174.678 26.68C174.678 26.8267 174.671 26.96 174.658 27.08C174.658 27.2 174.651 27.2933 174.638 27.36H166.758C166.865 28.3733 167.218 29.1333 167.818 29.64C168.431 30.1467 169.125 30.4 169.898 30.4C170.591 30.4 171.165 30.2467 171.618 29.94C172.071 29.62 172.431 29.2267 172.698 28.76L174.478 29.62C174.038 30.42 173.438 31.0733 172.678 31.58C171.918 32.0733 170.971 32.32 169.838 32.32ZM169.738 23.32C169.018 23.32 168.405 23.54 167.898 23.98C167.391 24.42 167.051 25.0067 166.878 25.74H172.538C172.511 25.3933 172.398 25.0333 172.198 24.66C171.998 24.2867 171.691 23.9733 171.278 23.72C170.878 23.4533 170.365 23.32 169.738 23.32ZM177.469 29.04V23.68H175.689V21.8H177.469V18.92H179.629V21.8H182.129V23.68H179.629V28.58C179.629 29.0867 179.729 29.4733 179.929 29.74C180.142 30.0067 180.496 30.14 180.989 30.14C181.242 30.14 181.456 30.1067 181.629 30.04C181.816 29.9733 182.002 29.88 182.189 29.76V31.86C181.962 31.9533 181.722 32.0267 181.469 32.08C181.216 32.1333 180.916 32.16 180.569 32.16C179.622 32.16 178.869 31.8867 178.309 31.34C177.749 30.78 177.469 30.0133 177.469 29.04ZM188.611 32.32C187.557 32.32 186.631 32.08 185.831 31.6C185.031 31.12 184.404 30.4733 183.951 29.66C183.497 28.8467 183.271 27.9267 183.271 26.9C183.271 25.8867 183.497 24.9733 183.951 24.16C184.404 23.3333 185.031 22.68 185.831 22.2C186.631 21.72 187.557 21.48 188.611 21.48C189.651 21.48 190.571 21.72 191.371 22.2C192.171 22.68 192.797 23.3333 193.251 24.16C193.704 24.9733 193.931 25.8867 193.931 26.9C193.931 27.9267 193.704 28.8467 193.251 29.66C192.797 30.4733 192.171 31.12 191.371 31.6C190.571 32.08 189.651 32.32 188.611 32.32ZM188.611 30.34C189.171 30.34 189.691 30.2067 190.171 29.94C190.651 29.66 191.037 29.2667 191.331 28.76C191.637 28.24 191.791 27.62 191.791 26.9C191.791 26.18 191.637 25.5667 191.331 25.06C191.037 24.54 190.651 24.1467 190.171 23.88C189.691 23.6 189.171 23.46 188.611 23.46C188.051 23.46 187.524 23.6 187.031 23.88C186.551 24.1467 186.157 24.54 185.851 25.06C185.557 25.5667 185.411 26.18 185.411 26.9C185.411 27.62 185.557 28.24 185.851 28.76C186.157 29.2667 186.551 29.66 187.031 29.94C187.524 30.2067 188.051 30.34 188.611 30.34ZM196.707 29.04V23.68H194.927V21.8H196.707V18.92H198.867V21.8H201.367V23.68H198.867V28.58C198.867 29.0867 198.967 29.4733 199.167 29.74C199.381 30.0067 199.734 30.14 200.227 30.14C200.481 30.14 200.694 30.1067 200.867 30.04C201.054 29.9733 201.241 29.88 201.427 29.76V31.86C201.201 31.9533 200.961 32.0267 200.707 32.08C200.454 32.1333 200.154 32.16 199.807 32.16C198.861 32.16 198.107 31.8867 197.547 31.34C196.987 30.78 196.707 30.0133 196.707 29.04ZM203.537 32V21.8H205.577V23.2H205.697C205.991 22.7067 206.424 22.3 206.997 21.98C207.584 21.6467 208.224 21.48 208.917 21.48C210.171 21.48 211.111 21.8533 211.737 22.6C212.364 23.3467 212.677 24.3333 212.677 25.56V32H210.537V25.84C210.537 25.0133 210.331 24.4133 209.917 24.04C209.504 23.6533 208.964 23.46 208.297 23.46C207.777 23.46 207.324 23.6067 206.937 23.9C206.551 24.18 206.244 24.5533 206.017 25.02C205.804 25.4867 205.697 25.9867 205.697 26.52V32H203.537ZM219.799 32.32C218.799 32.32 217.906 32.0867 217.119 31.62C216.332 31.1533 215.712 30.5133 215.259 29.7C214.819 28.8867 214.599 27.96 214.599 26.92C214.599 25.9467 214.812 25.0467 215.239 24.22C215.666 23.3933 216.259 22.7333 217.019 22.24C217.792 21.7333 218.679 21.48 219.679 21.48C220.732 21.48 221.626 21.7067 222.359 22.16C223.106 22.6133 223.672 23.2333 224.059 24.02C224.446 24.8067 224.639 25.6933 224.639 26.68C224.639 26.8267 224.632 26.96 224.619 27.08C224.619 27.2 224.612 27.2933 224.599 27.36H216.719C216.826 28.3733 217.179 29.1333 217.779 29.64C218.392 30.1467 219.086 30.4 219.859 30.4C220.552 30.4 221.126 30.2467 221.579 29.94C222.032 29.62 222.392 29.2267 222.659 28.76L224.439 29.62C223.999 30.42 223.399 31.0733 222.639 31.58C221.879 32.0733 220.932 32.32 219.799 32.32ZM219.699 23.32C218.979 23.32 218.366 23.54 217.859 23.98C217.352 24.42 217.012 25.0067 216.839 25.74H222.499C222.472 25.3933 222.359 25.0333 222.159 24.66C221.959 24.2867 221.652 23.9733 221.239 23.72C220.839 23.4533 220.326 23.32 219.699 23.32ZM227.883 20.3C227.483 20.3 227.136 20.16 226.843 19.88C226.563 19.5867 226.423 19.24 226.423 18.84C226.423 18.44 226.563 18.1 226.843 17.82C227.136 17.54 227.483 17.4 227.883 17.4C228.283 17.4 228.623 17.54 228.903 17.82C229.196 18.1 229.343 18.44 229.343 18.84C229.343 19.24 229.196 19.5867 228.903 19.88C228.623 20.16 228.283 20.3 227.883 20.3ZM226.803 32V21.8H228.963V32H226.803Z" fill="white"/>
<path d="M244.4 32.32C243.373 32.32 242.407 32.1333 241.5 31.76C240.607 31.3867 239.813 30.8667 239.12 30.2C238.427 29.52 237.88 28.7267 237.48 27.82C237.093 26.9 236.9 25.9067 236.9 24.84C236.9 23.7733 237.093 22.7867 237.48 21.88C237.88 20.96 238.42 20.1667 239.1 19.5C239.793 18.82 240.593 18.2933 241.5 17.92C242.407 17.5467 243.373 17.36 244.4 17.36C245.493 17.36 246.5 17.5533 247.42 17.94C248.353 18.3267 249.133 18.8667 249.76 19.56L248.24 21.06C247.773 20.54 247.213 20.14 246.56 19.86C245.92 19.58 245.2 19.44 244.4 19.44C243.453 19.44 242.58 19.6667 241.78 20.12C240.98 20.56 240.333 21.1867 239.84 22C239.36 22.8 239.12 23.7467 239.12 24.84C239.12 25.9333 239.367 26.8867 239.86 27.7C240.353 28.5 241 29.1267 241.8 29.58C242.6 30.02 243.473 30.24 244.42 30.24C245.287 30.24 246.073 30.08 246.78 29.76C247.487 29.4267 248.053 28.96 248.48 28.36C248.92 27.76 249.187 27.04 249.28 26.2H244.38V24.26H251.34C251.42 24.62 251.46 25 251.46 25.4V25.42C251.46 26.8067 251.153 28.02 250.54 29.06C249.94 30.0867 249.107 30.8867 248.04 31.46C246.973 32.0333 245.76 32.32 244.4 32.32ZM257.9 32.32C256.847 32.32 255.92 32.08 255.12 31.6C254.32 31.12 253.693 30.4733 253.24 29.66C252.787 28.8467 252.56 27.9267 252.56 26.9C252.56 25.8867 252.787 24.9733 253.24 24.16C253.693 23.3333 254.32 22.68 255.12 22.2C255.92 21.72 256.847 21.48 257.9 21.48C258.94 21.48 259.86 21.72 260.66 22.2C261.46 22.68 262.087 23.3333 262.54 24.16C262.993 24.9733 263.22 25.8867 263.22 26.9C263.22 27.9267 262.993 28.8467 262.54 29.66C262.087 30.4733 261.46 31.12 260.66 31.6C259.86 32.08 258.94 32.32 257.9 32.32ZM257.9 30.34C258.46 30.34 258.98 30.2067 259.46 29.94C259.94 29.66 260.327 29.2667 260.62 28.76C260.927 28.24 261.08 27.62 261.08 26.9C261.08 26.18 260.927 25.5667 260.62 25.06C260.327 24.54 259.94 24.1467 259.46 23.88C258.98 23.6 258.46 23.46 257.9 23.46C257.34 23.46 256.813 23.6 256.32 23.88C255.84 24.1467 255.447 24.54 255.14 25.06C254.847 25.5667 254.7 26.18 254.7 26.9C254.7 27.62 254.847 28.24 255.14 28.76C255.447 29.2667 255.84 29.66 256.32 29.94C256.813 30.2067 257.34 30.34 257.9 30.34ZM270.009 32.32C268.956 32.32 268.029 32.08 267.229 31.6C266.429 31.12 265.803 30.4733 265.349 29.66C264.896 28.8467 264.669 27.9267 264.669 26.9C264.669 25.8867 264.896 24.9733 265.349 24.16C265.803 23.3333 266.429 22.68 267.229 22.2C268.029 21.72 268.956 21.48 270.009 21.48C271.049 21.48 271.969 21.72 272.769 22.2C273.569 22.68 274.196 23.3333 274.649 24.16C275.103 24.9733 275.329 25.8867 275.329 26.9C275.329 27.9267 275.103 28.8467 274.649 29.66C274.196 30.4733 273.569 31.12 272.769 31.6C271.969 32.08 271.049 32.32 270.009 32.32ZM270.009 30.34C270.569 30.34 271.089 30.2067 271.569 29.94C272.049 29.66 272.436 29.2667 272.729 28.76C273.036 28.24 273.189 27.62 273.189 26.9C273.189 26.18 273.036 25.5667 272.729 25.06C272.436 24.54 272.049 24.1467 271.569 23.88C271.089 23.6 270.569 23.46 270.009 23.46C269.449 23.46 268.923 23.6 268.429 23.88C267.949 24.1467 267.556 24.54 267.249 25.06C266.956 25.5667 266.809 26.18 266.809 26.9C266.809 27.62 266.956 28.24 267.249 28.76C267.556 29.2667 267.949 29.66 268.429 29.94C268.923 30.2067 269.449 30.34 270.009 30.34ZM281.919 36.64C281.025 36.64 280.252 36.4933 279.599 36.2C278.959 35.92 278.439 35.5533 278.039 35.1C277.639 34.66 277.352 34.2067 277.179 33.74L279.179 32.9C279.392 33.4333 279.732 33.8667 280.199 34.2C280.679 34.5467 281.252 34.72 281.919 34.72C282.852 34.72 283.585 34.44 284.119 33.88C284.665 33.32 284.939 32.5267 284.939 31.5V30.52H284.819C284.499 31 284.052 31.3867 283.479 31.68C282.919 31.96 282.279 32.1 281.559 32.1C280.692 32.1 279.899 31.88 279.179 31.44C278.459 31 277.879 30.3867 277.439 29.6C276.999 28.8 276.779 27.8667 276.779 26.8C276.779 25.72 276.999 24.7867 277.439 24C277.879 23.2 278.459 22.58 279.179 22.14C279.899 21.7 280.692 21.48 281.559 21.48C282.279 21.48 282.919 21.6267 283.479 21.92C284.052 22.2133 284.499 22.6 284.819 23.08H284.939V21.8H286.999V31.46C286.999 32.5667 286.779 33.5067 286.339 34.28C285.912 35.0533 285.319 35.64 284.559 36.04C283.799 36.44 282.919 36.64 281.919 36.64ZM281.939 30.14C282.472 30.14 282.965 30.0133 283.419 29.76C283.872 29.4933 284.239 29.1133 284.519 28.62C284.799 28.1133 284.939 27.5067 284.939 26.8C284.939 26.0667 284.799 25.4533 284.519 24.96C284.239 24.4533 283.872 24.0733 283.419 23.82C282.965 23.5667 282.472 23.44 281.939 23.44C281.405 23.44 280.905 23.5733 280.439 23.84C279.985 24.0933 279.619 24.4667 279.339 24.96C279.059 25.4533 278.919 26.0667 278.919 26.8C278.919 27.52 279.059 28.1333 279.339 28.64C279.619 29.1333 279.985 29.5067 280.439 29.76C280.905 30.0133 281.405 30.14 281.939 30.14ZM289.546 32V17.68H291.706V32H289.546ZM298.815 32.32C297.815 32.32 296.921 32.0867 296.135 31.62C295.348 31.1533 294.728 30.5133 294.275 29.7C293.835 28.8867 293.615 27.96 293.615 26.92C293.615 25.9467 293.828 25.0467 294.255 24.22C294.681 23.3933 295.275 22.7333 296.035 22.24C296.808 21.7333 297.695 21.48 298.695 21.48C299.748 21.48 300.641 21.7067 301.375 22.16C302.121 22.6133 302.688 23.2333 303.075 24.02C303.461 24.8067 303.655 25.6933 303.655 26.68C303.655 26.8267 303.648 26.96 303.635 27.08C303.635 27.2 303.628 27.2933 303.615 27.36H295.735C295.841 28.3733 296.195 29.1333 296.795 29.64C297.408 30.1467 298.101 30.4 298.875 30.4C299.568 30.4 300.141 30.2467 300.595 29.94C301.048 29.62 301.408 29.2267 301.675 28.76L303.455 29.62C303.015 30.42 302.415 31.0733 301.655 31.58C300.895 32.0733 299.948 32.32 298.815 32.32ZM298.715 23.32C297.995 23.32 297.381 23.54 296.875 23.98C296.368 24.42 296.028 25.0067 295.855 25.74H301.515C301.488 25.3933 301.375 25.0333 301.175 24.66C300.975 24.2867 300.668 23.9733 300.255 23.72C299.855 23.4533 299.341 23.32 298.715 23.32ZM312.446 32L308.606 17.68H311.046L313.326 26.98L313.566 28.22H313.686L313.986 26.98L316.866 17.68H319.066L321.826 26.98L322.126 28.2H322.246L322.486 26.98L324.766 17.68H327.186L323.406 32H321.086L318.346 22.5L318.026 21.16H317.906L317.566 22.5L314.706 32H312.446ZM331.202 32.32C330.469 32.32 329.816 32.18 329.242 31.9C328.669 31.6067 328.222 31.2 327.902 30.68C327.582 30.16 327.422 29.5667 327.422 28.9C327.422 28.18 327.609 27.5667 327.982 27.06C328.369 26.54 328.882 26.1467 329.522 25.88C330.162 25.6133 330.869 25.48 331.642 25.48C332.282 25.48 332.842 25.54 333.322 25.66C333.816 25.78 334.189 25.9067 334.442 26.04V25.5C334.442 24.8333 334.202 24.3 333.722 23.9C333.242 23.5 332.622 23.3 331.862 23.3C331.342 23.3 330.849 23.42 330.382 23.66C329.916 23.8867 329.542 24.2 329.262 24.6L327.782 23.46C328.222 22.8467 328.802 22.3667 329.522 22.02C330.256 21.66 331.056 21.48 331.922 21.48C333.402 21.48 334.542 21.8467 335.342 22.58C336.142 23.3 336.542 24.3133 336.542 25.62V32H334.442V30.74H334.322C334.056 31.1533 333.656 31.52 333.122 31.84C332.589 32.16 331.949 32.32 331.202 32.32ZM331.582 30.56C332.142 30.56 332.636 30.4267 333.062 30.16C333.489 29.8933 333.822 29.5467 334.062 29.12C334.316 28.68 334.442 28.2067 334.442 27.7C334.136 27.5267 333.776 27.3867 333.362 27.28C332.949 27.16 332.509 27.1 332.042 27.1C331.162 27.1 330.536 27.28 330.162 27.64C329.789 27.9867 329.602 28.4133 329.602 28.92C329.602 29.4 329.782 29.7933 330.142 30.1C330.502 30.4067 330.982 30.56 331.582 30.56ZM338.94 32V17.68H341.1V32H338.94ZM343.667 32V17.68H345.827V32H343.667ZM352.936 32.32C351.936 32.32 351.042 32.0867 350.256 31.62C349.469 31.1533 348.849 30.5133 348.396 29.7C347.956 28.8867 347.736 27.96 347.736 26.92C347.736 25.9467 347.949 25.0467 348.376 24.22C348.802 23.3933 349.396 22.7333 350.156 22.24C350.929 21.7333 351.816 21.48 352.816 21.48C353.869 21.48 354.762 21.7067 355.496 22.16C356.242 22.6133 356.809 23.2333 357.196 24.02C357.582 24.8067 357.776 25.6933 357.776 26.68C357.776 26.8267 357.769 26.96 357.756 27.08C357.756 27.2 357.749 27.2933 357.736 27.36H349.856C349.962 28.3733 350.316 29.1333 350.916 29.64C351.529 30.1467 352.222 30.4 352.996 30.4C353.689 30.4 354.262 30.2467 354.716 29.94C355.169 29.62 355.529 29.2267 355.796 28.76L357.576 29.62C357.136 30.42 356.536 31.0733 355.776 31.58C355.016 32.0733 354.069 32.32 352.936 32.32ZM352.836 23.32C352.116 23.32 351.502 23.54 350.996 23.98C350.489 24.42 350.149 25.0067 349.976 25.74H355.636C355.609 25.3933 355.496 25.0333 355.296 24.66C355.096 24.2867 354.789 23.9733 354.376 23.72C353.976 23.4533 353.462 23.32 352.836 23.32ZM360.567 29.04V23.68H358.787V21.8H360.567V18.92H362.727V21.8H365.227V23.68H362.727V28.58C362.727 29.0867 362.827 29.4733 363.027 29.74C363.24 30.0067 363.593 30.14 364.087 30.14C364.34 30.14 364.553 30.1067 364.727 30.04C364.913 29.9733 365.1 29.88 365.287 29.76V31.86C365.06 31.9533 364.82 32.0267 364.567 32.08C364.313 32.1333 364.013 32.16 363.667 32.16C362.72 32.16 361.967 31.8867 361.407 31.34C360.847 30.78 360.567 30.0133 360.567 29.04Z" fill="white"/>
<rect x="0.5" y="0.5" width="387" height="49" rx="24.5" stroke="#747775"/>
<defs>
<linearGradient id="paint0_linear_1819_24481" x1="34.5703" y1="30.7864" x2="18.7309" y2="48.9133" gradientUnits="userSpaceOnUse">
<stop stop-color="#4285F4"/>
<stop offset="1" stop-color="#1B74E8"/>
</linearGradient>
</defs>
</svg>
