<svg xmlns="http://www.w3.org/2000/svg" width="72" height="72" viewBox="0 0 72 72" fill="none">
  <path d="M4.08671 25.2161C3.74128 25.9942 3.58739 27.2219 4.25084 28.3883C4.91917 29.5629 6.35044 30.5606 8.93716 31.0186C11.5636 31.4836 14.1146 30.9091 16.2177 30.0233C18.32 29.1379 20.012 27.9269 20.9399 27.0661L20.9393 27.0649C21.5571 26.5399 22.981 25.1016 24.0255 23.29L24.2679 22.8691L23.8554 22.6147C20 20.2352 16.7808 19.1641 14.3055 18.8033C11.8469 18.4449 10.086 18.7831 9.18117 19.2792C8.71482 19.535 8.1678 20.0542 7.63738 20.629C7.09401 21.2179 6.5231 21.9164 6.00624 22.5811C5.48849 23.247 5.01968 23.8848 4.68118 24.3561C4.51189 24.5919 4.37539 24.7867 4.2804 24.9224C4.2329 24.9903 4.19553 25.0439 4.17034 25.0803C4.15783 25.0983 4.14798 25.1124 4.14146 25.1219C4.13846 25.1262 4.1362 25.1297 4.13454 25.1321C4.13369 25.1333 4.133 25.1349 4.13254 25.1356L4.13134 25.1363L4.10539 25.1746L4.08671 25.2161Z" fill="#686E7D" stroke="#131416"/>
  <path d="M8.95592 21.2724C8.82037 21.8139 8.85063 22.4694 9.13321 23.1108C9.68507 24.3633 11.2771 25.6954 14.842 25.8162C16.0137 25.8559 17.7272 25.2928 19.4055 24.5648C20.6155 24.0399 21.7571 23.4508 22.5849 23.0084C19.1735 21.0164 16.3483 20.1152 14.1928 19.7997C11.865 19.4591 10.3532 19.8048 9.71036 20.156C9.38837 20.332 9.09368 20.7225 8.95592 21.2724Z" fill="#131416" stroke="#686E7D"/>
  <path d="M21.9348 4.81736C22.6906 4.42542 23.9067 4.19744 25.1112 4.789C26.3241 5.38494 27.4067 6.75314 28.0206 9.30735C28.6438 11.9008 28.2249 14.482 27.4682 16.6348C26.7118 18.7869 25.6056 20.5492 24.8025 21.5276L24.8013 21.5269C24.3147 22.1755 22.9653 23.6839 21.2203 24.8362L20.8148 25.1037L20.5359 24.7073C17.9272 21.0032 16.6631 17.8548 16.1529 15.4059C15.6462 12.9735 15.8771 11.1954 16.3175 10.2621C16.5446 9.78116 17.0297 9.20369 17.5713 8.63942C18.1262 8.06137 18.7888 7.44919 19.421 6.89301C20.0543 6.33587 20.6625 5.82928 21.1125 5.46284C21.3376 5.27957 21.5238 5.13152 21.6535 5.02849C21.7183 4.97696 21.7695 4.93641 21.8043 4.90906C21.8216 4.89548 21.8351 4.8848 21.8441 4.87772C21.8483 4.87446 21.8516 4.872 21.8539 4.87019C21.8551 4.86927 21.8567 4.86848 21.8573 4.86799L21.8579 4.86675L21.8946 4.83852L21.9348 4.81736Z" fill="#686E7D" stroke="#131416"/>
  <path d="M18.2937 9.9162C18.826 9.74808 19.4821 9.73858 20.1394 9.98179C21.4231 10.4567 22.8492 11.9652 23.1858 15.5162C23.2963 16.6834 22.8381 18.4278 22.2131 20.1471C21.7625 21.3867 21.2436 22.5619 20.8522 23.415C18.6572 20.1306 17.5865 17.3652 17.141 15.2327C16.6599 12.9298 16.9135 11.3999 17.2251 10.7369C17.3812 10.4048 17.7531 10.087 18.2937 9.9162Z" fill="#131416" stroke="#686E7D"/>
  <path d="M37.7091 11.425C38.2693 11.2547 38.6575 11.2583 38.8917 11.3167C39.1011 11.3689 39.1951 11.463 39.2511 11.5706C39.2952 11.6553 39.3518 11.7331 39.4181 11.802L42.3722 14.8723L38.6603 20.6028L38.63 20.6536L33.1642 30.2883C33.1492 30.3147 33.1356 30.3418 33.1232 30.3694L33.09 30.4543C32.7685 31.3816 32.0666 32.4017 31.1534 33.2805C30.2407 34.1589 29.1947 34.8209 28.256 35.1067C28.1929 35.1259 28.1314 35.1507 28.0734 35.1819L17.0265 41.1194L17.004 41.1321L12.337 43.7961L9.37415 40.717C9.34081 40.6824 9.30556 40.6498 9.2677 40.6204L9.14856 40.5413L9.07336 40.4875C9.00183 40.4249 8.94341 40.3305 8.91028 40.1721C8.86083 39.9355 8.8718 39.547 9.0636 38.9934L15.1359 21.4739C15.4576 20.5464 16.1591 19.5257 17.0714 18.6477C17.9841 17.7694 19.0306 17.1073 19.9698 16.8215L37.7091 11.425Z" fill="#131416" stroke="#686E7D" stroke-width="2" stroke-linejoin="round"/>
  <path d="M37.7087 11.4253C38.269 11.255 38.6579 11.2585 38.8923 11.3169C39.1018 11.3691 39.1959 11.4627 39.2517 11.5698C39.2958 11.6545 39.3516 11.7325 39.4177 11.8013L42.365 14.8628L39.3074 19.4448L39.2683 19.5073L33.1638 30.2896C33.1489 30.3159 33.1353 30.343 33.1228 30.3706L33.0896 30.4546C32.7681 31.3817 32.0668 32.4022 31.1541 33.2808C30.2411 34.1594 29.1945 34.8212 28.2556 35.1069C28.2271 35.1156 28.1983 35.125 28.1707 35.1362L28.0886 35.1743L16.5427 41.1108C16.5169 41.1241 16.4911 41.1383 16.4666 41.1538L12.3132 43.77L9.37476 40.7163C9.34158 40.6818 9.30597 40.6499 9.26831 40.6206L9.14917 40.5405L9.073 40.4878C9.00118 40.4251 8.94308 40.3298 8.90991 40.1714C8.86048 39.9351 8.87148 39.547 9.06323 38.9937L15.1355 21.4741C15.4571 20.5466 16.1577 19.5261 17.0701 18.6479C17.9826 17.7698 19.0302 17.1087 19.9695 16.8228L37.7087 11.4253Z" fill="#858B9A" fill-opacity="0.2" stroke="#686E7D" stroke-width="2" stroke-linejoin="round"/>
  <mask id="path-7-inside-1_2727_1970" fill="white">
    <path d="M39.6009 20.95L31.0562 12.405L24.6891 14.3418L36.5985 26.2519L39.6009 20.95ZM12.2875 26.6362L10.1512 32.8029L18.5509 41.2028L24.0349 38.3836L12.2875 26.6362Z"/>
  </mask>
  <path d="M39.6009 20.95L31.0562 12.405L24.6891 14.3418L36.5985 26.2519L39.6009 20.95ZM12.2875 26.6362L10.1512 32.8029L18.5509 41.2028L24.0349 38.3836L12.2875 26.6362Z" fill="#686E7D"/>
  <path d="M39.6009 20.95L41.0151 19.5358C41.6508 20.1715 41.7842 21.1532 41.3413 21.9355L39.6009 20.95ZM31.0562 12.405L30.4741 10.4916C31.1807 10.2767 31.9482 10.4686 32.4704 10.9908L31.0562 12.405ZM24.6891 14.3418L23.2749 15.756C22.7781 15.2592 22.5784 14.5382 22.7489 13.8566C22.9193 13.175 23.4349 12.6329 24.1071 12.4284L24.6891 14.3418ZM36.5985 26.2519L38.3388 27.2375C38.031 27.7811 37.4868 28.1496 36.8678 28.2337C36.2488 28.3179 35.626 28.1079 35.1843 27.6661L36.5985 26.2519ZM12.2875 26.6362L10.3977 25.9815C10.6232 25.3305 11.1679 24.8414 11.8394 24.687C12.5109 24.5327 13.2145 24.7348 13.7017 25.222L12.2875 26.6362ZM10.1512 32.8029L8.73695 34.2171C8.19531 33.6754 8.01062 32.872 8.26136 32.1482L10.1512 32.8029ZM18.5509 41.2028L19.4653 42.9815C18.6923 43.3789 17.7512 43.2315 17.1367 42.617L18.5509 41.2028ZM24.0349 38.3836L25.4491 36.9694C25.9009 37.4212 26.1097 38.0617 26.0109 38.693C25.912 39.3242 25.5176 39.8702 24.9493 40.1624L24.0349 38.3836ZM39.6009 20.95L38.1867 22.3642L29.6419 13.8192L31.0562 12.405L32.4704 10.9908L41.0151 19.5358L39.6009 20.95ZM31.0562 12.405L31.6382 14.3184L25.2712 16.2553L24.6891 14.3418L24.1071 12.4284L30.4741 10.4916L31.0562 12.405ZM24.6891 14.3418L26.1034 12.9277L38.0128 24.8378L36.5985 26.2519L35.1843 27.6661L23.2749 15.756L24.6891 14.3418ZM36.5985 26.2519L34.8582 25.2664L37.8606 19.9645L39.6009 20.95L41.3413 21.9355L38.3388 27.2375L36.5985 26.2519ZM12.2875 26.6362L14.1773 27.2909L12.041 33.4576L10.1512 32.8029L8.26136 32.1482L10.3977 25.9815L12.2875 26.6362ZM10.1512 32.8029L11.5654 31.3887L19.9651 39.7886L18.5509 41.2028L17.1367 42.617L8.73695 34.2171L10.1512 32.8029ZM18.5509 41.2028L17.6365 39.424L23.1205 36.6049L24.0349 38.3836L24.9493 40.1624L19.4653 42.9815L18.5509 41.2028ZM24.0349 38.3836L22.6207 39.7978L10.8733 28.0504L12.2875 26.6362L13.7017 25.222L25.4491 36.9694L24.0349 38.3836Z" fill="#686E7D" mask="url(#path-7-inside-1_2727_1970)"/>
  <path d="M41.4966 15.3618C42.4659 15.067 42.8584 15.2902 42.9653 15.4009C43.0717 15.5114 43.2819 15.9131 42.9497 16.8716L36.8774 34.3901C36.556 35.3175 35.8548 36.3377 34.9419 37.2163C34.029 38.0949 32.9825 38.7568 32.0435 39.0425L14.3042 44.439C13.3338 44.7341 12.9408 44.5094 12.8345 44.3989C12.7281 44.2883 12.5191 43.8871 12.8511 42.9292L18.9233 25.4097C19.2448 24.4823 19.9459 23.4621 20.8589 22.5835C21.7719 21.7048 22.8183 21.043 23.7573 20.7573L41.4966 15.3618Z" fill="#131416" stroke="#686E7D" stroke-width="2"/>
  <path d="M40.7398 42.0732V64.6678C39.3931 64.6678 38.0458 64.4066 37.0183 63.8835L21.3939 55.9289C20.4773 55.4622 19.9706 54.8658 19.8718 54.2558L19.8623 54.2513V54.1857C19.8511 54.0846 19.8511 53.9835 19.8623 53.8824V32.6532C19.8623 32.2834 20.2499 32.0415 20.5821 32.2042L40.7398 42.0732Z" fill="#131416" stroke="#686E7D" stroke-width="2" stroke-linejoin="round"/>
  <path d="M40.7398 42.0732V64.6678C39.3931 64.6678 38.0458 64.4066 37.0183 63.8835L21.3939 55.9289C20.4773 55.4622 19.9706 54.8658 19.8718 54.2558L19.8623 54.2513V54.1857C19.8511 54.0846 19.8511 53.9835 19.8623 53.8824V32.6532C19.8623 32.2834 20.2499 32.0415 20.5821 32.2042L40.7398 42.0732Z" fill="#858B9A" fill-opacity="0.2" stroke="#686E7D" stroke-width="2" stroke-linejoin="round"/>
  <path d="M40.7395 41.8112V64.2109L40.7401 64.6677C42.0868 64.6677 43.4341 64.4065 44.4616 63.8834L60.086 55.9288C61.1916 55.3659 61.7012 54.6147 61.617 53.8779V32.3913C61.617 32.0214 61.2294 31.7796 60.8972 31.9422L40.7395 41.8112Z" fill="#858B9A" fill-opacity="0.2" stroke="#686E7D" stroke-width="2" stroke-linejoin="round"/>
  <mask id="path-13-inside-2_2727_1970" fill="white">
    <path d="M55.0928 59.5925L49.2207 62.5818V36.5447L55.0928 33.6697V59.5925Z"/>
  </mask>
  <path d="M55.0928 59.5925L49.2207 62.5818V36.5447L55.0928 33.6697V59.5925Z" fill="#686E7D"/>
  <path d="M55.0928 59.5925L56.0001 61.3749C56.6706 61.0336 57.0928 60.3449 57.0928 59.5925H55.0928ZM49.2207 62.5818H47.2207C47.2207 63.2775 47.5823 63.9233 48.1754 64.2869C48.7685 64.6505 49.508 64.6798 50.128 64.3641L49.2207 62.5818ZM49.2207 36.5447L48.3412 34.7484C47.6555 35.0842 47.2207 35.7811 47.2207 36.5447H49.2207ZM55.0928 33.6697H57.0928C57.0928 32.9795 56.7369 32.3381 56.1513 31.9728C55.5657 31.6075 54.8332 31.5699 54.2133 31.8734L55.0928 33.6697ZM55.0928 59.5925L54.1854 57.8102L48.3134 60.7994L49.2207 62.5818L50.128 64.3641L56.0001 61.3749L55.0928 59.5925ZM49.2207 62.5818H51.2207V36.5447H49.2207H47.2207V62.5818H49.2207ZM49.2207 36.5447L50.1002 38.3409L55.9722 35.4659L55.0928 33.6697L54.2133 31.8734L48.3412 34.7484L49.2207 36.5447ZM55.0928 33.6697H53.0928V59.5925H55.0928H57.0928V33.6697H55.0928Z" fill="#686E7D" mask="url(#path-13-inside-2_2727_1970)"/>
  <mask id="path-15-inside-3_2727_1970" fill="white">
    <path d="M26.3856 59.5916L32.2577 62.5818V36.5447L26.3856 33.6697V59.5916Z"/>
  </mask>
  <path d="M26.3856 59.5916L32.2577 62.5818V36.5447L26.3856 33.6697V59.5916Z" fill="#686E7D"/>
  <path d="M26.3856 59.5916L25.4781 61.3738C24.8077 61.0324 24.3856 60.3438 24.3856 59.5916H26.3856ZM32.2577 62.5818H34.2577C34.2577 63.2776 33.8961 63.9233 33.3029 64.2869C32.7097 64.6506 31.9701 64.6797 31.3501 64.364L32.2577 62.5818ZM32.2577 36.5447L33.1371 34.7484C33.8229 35.0842 34.2577 35.7811 34.2577 36.5447H32.2577ZM26.3856 33.6697H24.3856C24.3856 32.9795 24.7415 32.3381 25.3271 31.9728C25.9127 31.6075 26.6452 31.5699 27.2651 31.8734L26.3856 33.6697ZM26.3856 59.5916L27.2932 57.8093L33.1653 60.7996L32.2577 62.5818L31.3501 64.364L25.4781 61.3738L26.3856 59.5916ZM32.2577 62.5818H30.2577V36.5447H32.2577H34.2577V62.5818H32.2577ZM32.2577 36.5447L31.3782 38.3409L25.5062 35.4659L26.3856 33.6697L27.2651 31.8734L33.1371 34.7484L32.2577 36.5447ZM26.3856 33.6697H28.3856V59.5916H26.3856H24.3856V33.6697H26.3856Z" fill="#686E7D" mask="url(#path-15-inside-3_2727_1970)"/>
  <path d="M40.9691 21.887C41.2934 21.8969 41.6142 21.9268 41.9222 21.9778C42.731 22.1116 43.4405 22.4619 45.2152 23.3655L58.7045 30.2327C59.5808 30.6788 60.1904 30.9904 60.6254 31.2512C61.079 31.5233 61.1989 31.6605 61.2269 31.7043C61.2794 31.7865 61.2836 31.8336 61.2836 31.8518C61.2836 31.8701 61.2793 31.9172 61.2269 31.9993C61.1989 32.0432 61.0788 32.1804 60.6254 32.4524C60.1904 32.7132 59.5807 33.0248 58.7045 33.4709L45.2152 40.3381C43.4406 41.2416 42.7309 41.5911 41.9222 41.7249C41.6141 41.7758 41.2934 41.8067 40.9691 41.8167C40.4907 41.8312 40.0106 41.8 39.556 41.7249C38.7473 41.5911 38.037 41.2418 36.2621 40.3381L22.7738 33.4709C21.8974 33.0248 21.2869 32.7132 20.8519 32.4524C20.399 32.1807 20.2795 32.0433 20.2513 31.9993C20.199 31.9172 20.1947 31.8701 20.1947 31.8518C20.1947 31.8336 20.1989 31.7866 20.2513 31.7043C20.2793 31.6605 20.3987 31.5231 20.8519 31.2512C21.2869 30.9904 21.8974 30.6789 22.7738 30.2327L36.2621 23.3655C38.037 22.4618 38.7473 22.1116 39.556 21.9778C40.0106 21.9026 40.4907 21.8724 40.9691 21.887Z" fill="#131416" stroke="#686E7D" stroke-width="2" stroke-linecap="round"/>
</svg>
