<svg xmlns="http://www.w3.org/2000/svg" width="90" height="26" viewBox="0 0 90 26" fill="none">
  <g clip-path="url(#clip0_2695_5311)">
    <path d="M15.482 10.6755C15.0635 10.581 14.6636 10.4581 14.2916 10.3068C13.8452 10.1083 13.4267 9.85306 13.0454 9.56945C12.6641 9.25748 12.3107 8.89823 12.0038 8.51063C11.6504 8.02848 11.3435 7.48962 11.0924 6.91294C11.018 6.71441 10.9436 6.51588 10.8785 6.3268L10.6646 5.66504L10.5437 6.34571C10.3949 7.15874 10.1717 7.92449 9.87411 8.62407L9.83691 8.70916L9.88341 8.78479C10.1252 9.1913 10.4042 9.59781 10.7111 9.97596C11.297 10.685 12.0224 11.2995 12.8222 11.7438L12.9431 11.81L13.0175 11.7722C13.5662 11.5264 14.0312 11.3562 14.4776 11.2333C14.7938 11.1482 15.1286 11.0726 15.4727 11.0159L16.3841 10.8646L15.482 10.6755Z" fill="#AB82F9"/>
    <path d="M1.59712 14.0598C1.87612 14.0882 2.16442 14.0787 2.44342 14.0598C3.22462 14.022 4.00582 13.9085 4.75912 13.7005C5.26132 13.5587 5.74492 13.3697 6.22852 13.1617C6.65632 12.9726 7.05622 12.7457 7.43752 12.481C8.46982 11.7531 9.33472 10.8171 9.92992 9.68269C10.6925 8.23626 11.018 6.61966 11.0924 4.99361C11.1017 4.77618 11.111 4.55874 11.111 4.3413C11.111 4.03878 10.9808 3.7079 10.7669 3.49046C10.5623 3.28248 10.2275 3.12177 9.92992 3.14067C9.62302 3.15013 9.30682 3.25412 9.09292 3.49046C8.87902 3.72681 8.74882 4.01042 8.74882 4.3413C8.74882 4.91798 8.71162 5.49466 8.63722 6.07135C8.65582 5.96735 8.66512 5.86336 8.68372 5.74992C8.57212 6.56294 8.37682 7.37597 8.06992 8.13227C8.10712 8.03773 8.15362 7.94319 8.19082 7.84866C7.95832 8.41588 7.66072 8.9453 7.28872 9.42744C7.35382 9.34235 7.40962 9.26672 7.47472 9.18164C7.13062 9.62597 6.74002 10.0325 6.29362 10.3823C6.37732 10.3161 6.45172 10.2594 6.53542 10.1932C6.04252 10.5808 5.50312 10.8928 4.93582 11.1291C5.02882 11.0913 5.12182 11.044 5.21482 11.0062C4.62892 11.252 4.02442 11.4316 3.40132 11.5451C3.25252 11.5734 3.09442 11.6018 2.94562 11.6207C3.04792 11.6018 3.15022 11.5924 3.26182 11.5734C2.74102 11.6396 2.22022 11.6774 1.69942 11.6491C1.67152 11.6491 1.63432 11.6491 1.60642 11.6396C1.31812 11.6113 0.964716 11.7909 0.769416 11.9894C0.564816 12.1974 0.406716 12.5377 0.425316 12.8403C0.434616 13.1522 0.536916 13.4737 0.769416 13.6911C0.853116 13.7573 0.927516 13.814 1.01122 13.8802C1.18792 14.0031 1.38322 14.0598 1.59712 14.0598Z" fill="#A063FC"/>
    <path d="M9.90165 16.4896C9.69705 16.1682 9.47385 15.8468 9.22275 15.5443C8.63685 14.8352 7.91145 14.2207 7.11165 13.7764C7.05585 13.748 6.99075 13.7102 6.93495 13.6819L6.86055 13.644L6.73965 13.7008C6.72105 13.7102 6.71175 13.7102 6.69315 13.7197C6.12585 13.9749 5.65155 14.1451 5.20515 14.268C4.91685 14.3436 4.61925 14.4098 4.30305 14.4665L3.37305 14.6367L4.30305 14.8163C4.76805 14.9109 5.21445 15.0432 5.63295 15.2134C6.07935 15.4119 6.49785 15.6672 6.87915 15.9508C7.26045 16.2627 7.61385 16.622 7.92075 17.0096C8.27415 17.4917 8.58105 18.0306 8.83215 18.6073C8.85075 18.6545 8.86935 18.7018 8.88795 18.7585L9.09255 19.3069L9.21345 18.7396C9.37155 18.0022 9.60405 17.3027 9.90165 16.6693L9.93885 16.5842L9.90165 16.4896Z" fill="#8C69E0"/>
    <path d="M18.1418 11.4979C17.8628 11.4695 17.5745 11.479 17.2955 11.4979C16.5143 11.5357 15.7331 11.6491 14.9798 11.8571C14.4776 11.9989 13.994 12.188 13.5104 12.396C13.0826 12.5851 12.6827 12.812 12.3014 13.0767C11.2691 13.8046 10.4042 14.7405 9.80903 15.875C9.04643 17.3214 8.72093 18.938 8.64653 20.5641C8.63723 20.7815 8.62793 20.9989 8.62793 21.2164C8.62793 21.5189 8.75813 21.8498 8.97203 22.0672C9.17663 22.2752 9.51143 22.4359 9.80903 22.417C10.1159 22.4075 10.4321 22.3036 10.646 22.0672C10.8599 21.8309 10.9901 21.5473 10.9901 21.2164C10.9901 20.6397 11.0273 20.063 11.1017 19.4863C11.0831 19.5903 11.0738 19.6943 11.0552 19.8078C11.1668 18.9947 11.3621 18.1817 11.669 17.4254C11.6318 17.5199 11.5853 17.6145 11.5481 17.709C11.7806 17.1418 12.0782 16.6124 12.4502 16.1302C12.3851 16.2153 12.3293 16.2909 12.2642 16.376C12.6083 15.9317 12.9989 15.5252 13.4453 15.1754C13.3616 15.2416 13.2872 15.2983 13.2035 15.3645C13.6964 14.9769 14.2358 14.6649 14.8031 14.4286C14.7101 14.4664 14.6171 14.5136 14.5241 14.5515C15.11 14.3057 15.7145 14.126 16.3376 14.0126C16.4864 13.9842 16.6445 13.9559 16.7933 13.937C16.691 13.9559 16.5887 13.9653 16.4771 13.9842C16.9979 13.918 17.5187 13.8802 18.0395 13.9086C18.0674 13.9086 18.1046 13.9086 18.1325 13.918C18.4208 13.9464 18.7742 13.7668 18.9695 13.5683C19.1741 13.3603 19.3322 13.0199 19.3136 12.7174C19.3043 12.4054 19.202 12.084 18.9695 11.8666C18.8858 11.8004 18.8114 11.7437 18.7277 11.6775C18.551 11.5546 18.3557 11.4979 18.1418 11.4979Z" fill="#723BDE"/>
    <path d="M27.3115 17.86C26.8 17.86 26.3629 17.775 25.9909 17.6142C25.6189 17.4535 25.3306 17.1794 25.126 16.8107C24.9214 16.4325 24.8191 15.9315 24.8191 15.2886V11.7151H23.5171V10.193H24.8191L25.0237 8.16992H26.6047V10.193H28.6321V11.7151H26.6047V15.2886C26.6047 15.6762 26.6884 15.9409 26.8465 16.0827C27.0046 16.234 27.2836 16.3002 27.6835 16.3002H28.6135V17.8506H27.3115V17.86Z" fill="currentColor"/>
    <path d="M29.1528 17.8602V6.93164H30.9477V11.3938C31.1895 10.9779 31.5243 10.647 31.9521 10.4012C32.3799 10.1554 32.8728 10.0325 33.4122 10.0325C34.0167 10.0325 34.5375 10.1648 34.9653 10.4201C35.3931 10.6753 35.7186 11.0629 35.9418 11.564C36.165 12.0745 36.2766 12.689 36.2766 13.4358V17.8697H34.5003V13.606C34.5003 12.9442 34.3701 12.4432 34.1004 12.0934C33.8307 11.7436 33.4215 11.5734 32.8635 11.5734C32.5008 11.5734 32.1753 11.668 31.887 11.8476C31.5894 12.0272 31.3662 12.2919 31.1988 12.6228C31.0314 12.9537 30.9477 13.3602 30.9477 13.8234V17.8791H29.1528V17.8602Z" fill="currentColor"/>
    <path d="M40.5082 18.0493C39.7642 18.0493 39.1039 17.8791 38.5366 17.5482C37.9693 17.2173 37.5229 16.7447 37.2067 16.1491C36.8905 15.5535 36.7324 14.8634 36.7324 14.0881C36.7324 13.2846 36.8905 12.585 37.2067 11.98C37.5229 11.3749 37.96 10.8928 38.5366 10.5524C39.1132 10.2121 39.7735 10.0325 40.5268 10.0325C41.2615 10.0325 41.9032 10.2026 42.4426 10.5335C42.982 10.8644 43.4098 11.3087 43.7167 11.8665C44.0236 12.4243 44.1724 13.0577 44.1724 13.7667C44.1724 13.8707 44.1724 13.9747 44.1724 14.0976C44.1724 14.211 44.1631 14.3434 44.1445 14.4852H38.0158V13.3129H42.3682C42.3496 12.7646 42.1636 12.3297 41.8195 12.0083C41.4661 11.6869 41.0383 11.5262 40.5175 11.5262C40.1455 11.5262 39.8107 11.6113 39.5038 11.7814C39.1969 11.9516 38.9551 12.2068 38.7691 12.5472C38.5924 12.8875 38.4994 13.3129 38.4994 13.8329V14.2772C38.4994 14.7499 38.5831 15.1564 38.7598 15.4968C38.9365 15.8371 39.169 16.0923 39.4666 16.2814C39.7642 16.461 40.1083 16.5556 40.4989 16.5556C40.9174 16.5556 41.2615 16.461 41.5405 16.2814C41.8102 16.1018 42.0148 15.8655 42.1264 15.5629H43.9492C43.8283 16.0262 43.6051 16.4516 43.2889 16.8297C42.9634 17.2079 42.5728 17.5104 42.0985 17.7278C41.6242 17.9358 41.0941 18.0493 40.5082 18.0493Z" fill="currentColor"/>
    <path d="M44.6465 17.8602V10.2027H46.2275L46.3484 11.2331C46.5902 10.855 46.9064 10.5619 47.3156 10.3445C47.7155 10.127 48.1619 10.0136 48.6548 10.0136C49.0454 10.0136 49.3895 10.0609 49.6964 10.1649C50.0033 10.2689 50.273 10.4201 50.5055 10.6186C50.738 10.8172 50.9333 11.0724 51.0821 11.3749C51.3518 10.9495 51.7052 10.6186 52.1609 10.3728C52.6073 10.127 53.1002 10.0042 53.6396 10.0042C54.2627 10.0042 54.8021 10.1365 55.2392 10.3918C55.6763 10.647 56.0111 11.0252 56.2343 11.5262C56.4575 12.0273 56.5691 12.6418 56.5691 13.3697V17.8319H54.7928V13.5304C54.7928 12.8781 54.6626 12.3865 54.4022 12.0462C54.1418 11.7058 53.7605 11.5262 53.2676 11.5262C52.9142 11.5262 52.6166 11.6113 52.3562 11.7909C52.0958 11.9705 51.8912 12.2258 51.7424 12.5472C51.5936 12.8781 51.5192 13.2752 51.5192 13.7573V17.8319H49.7243V13.5304C49.7243 12.8781 49.5941 12.3865 49.3337 12.0462C49.0733 11.7058 48.6827 11.5262 48.1526 11.5262C47.8271 11.5262 47.5295 11.6113 47.2691 11.7909C47.0087 11.9705 46.8041 12.2258 46.6646 12.5472C46.5158 12.8781 46.4507 13.2752 46.4507 13.7573V17.8319H44.6465V17.8602Z" fill="currentColor"/>
    <path d="M58.2435 8.99251C57.918 8.99251 57.639 8.88852 57.4251 8.68054C57.2112 8.47255 57.0996 8.2173 57.0996 7.91478C57.0996 7.60281 57.2019 7.34755 57.4251 7.14902C57.639 6.95049 57.9087 6.85596 58.2435 6.85596C58.5783 6.85596 58.848 6.95049 59.0619 7.14902C59.2758 7.34755 59.3874 7.60281 59.3874 7.91478C59.3874 8.2173 59.2758 8.47255 59.0619 8.68054C58.8387 8.88852 58.569 8.99251 58.2435 8.99251ZM57.3414 17.8602V10.2026H59.1363V17.8602H57.3414Z" fill="currentColor"/>
    <path d="M60.0381 17.8601V10.2025H61.6377L61.7865 11.63C61.9725 11.2991 62.1957 11.0061 62.4561 10.7697C62.7165 10.5334 63.0327 10.3443 63.3954 10.212C63.7674 10.0796 64.1766 10.0134 64.623 10.0134V11.9231H63.9813C63.6837 11.9231 63.3954 11.9609 63.1257 12.0365C62.856 12.1122 62.6235 12.2351 62.4282 12.4052C62.2329 12.5754 62.0841 12.8117 61.9818 13.1048C61.8795 13.3979 61.8237 13.7571 61.8237 14.1825V17.8412H60.0381V17.8601Z" fill="currentColor"/>
    <path d="M67.2645 18.0493C66.66 18.0493 66.1485 17.9453 65.73 17.7278C65.3208 17.5199 65.0139 17.2363 64.8093 16.877C64.614 16.5272 64.5117 16.1302 64.5117 15.7047C64.5117 15.2321 64.6326 14.8161 64.8744 14.4568C65.1162 14.1071 65.4789 13.8234 65.9532 13.6249C66.4275 13.4264 67.0227 13.3318 67.7295 13.3318H69.6453C69.6453 12.9253 69.5895 12.5944 69.4779 12.3203C69.3663 12.0556 69.1896 11.8476 68.9664 11.7152C68.7339 11.5829 68.4363 11.5073 68.0736 11.5073C67.6644 11.5073 67.3203 11.6018 67.032 11.8003C66.7437 11.9894 66.567 12.2825 66.4926 12.6701H64.7256C64.7814 12.1218 64.9674 11.6491 65.2743 11.2615C65.5812 10.8644 65.9811 10.5619 66.474 10.3539C66.9669 10.1459 67.5063 10.0325 68.0829 10.0325C68.799 10.0325 69.4128 10.1554 69.915 10.4012C70.4172 10.647 70.7985 10.9968 71.0682 11.46C71.3286 11.9138 71.4681 12.4715 71.4681 13.1333V17.8697H69.9336L69.7569 16.6501C69.6546 16.8486 69.5337 17.0377 69.3756 17.2079C69.2175 17.3781 69.0408 17.5199 68.8362 17.6522C68.6316 17.7751 68.4084 17.8791 68.1573 17.9453C67.869 18.0115 67.5807 18.0493 67.2645 18.0493ZM67.6644 16.6028C67.9527 16.6028 68.2131 16.5461 68.4456 16.4421C68.6781 16.3381 68.8734 16.1869 69.0315 15.9884C69.1896 15.7898 69.3198 15.5724 69.4128 15.3171C69.5058 15.0713 69.5616 14.8066 69.5802 14.5325V14.5041H67.9341C67.5714 14.5041 67.2831 14.5514 67.0599 14.6365C66.8367 14.731 66.6693 14.8539 66.5577 15.0052C66.4461 15.1659 66.3903 15.3455 66.3903 15.5629C66.3903 15.7898 66.4461 15.9694 66.5484 16.1207C66.6507 16.272 66.7995 16.3854 66.9948 16.4705C67.1994 16.565 67.4226 16.6028 67.6644 16.6028Z" fill="currentColor"/>
    <path d="M75.7085 18.0493C74.9645 18.0493 74.2949 17.8791 73.7183 17.5388C73.1417 17.1984 72.686 16.7257 72.3698 16.1302C72.0443 15.5251 71.8862 14.8444 71.8862 14.0692C71.8862 13.2657 72.0443 12.5661 72.3698 11.961C72.6953 11.356 73.1417 10.8833 73.7183 10.543C74.2949 10.2026 74.9552 10.0325 75.7085 10.0325C76.6571 10.0325 77.4476 10.2877 78.0893 10.7888C78.731 11.2898 79.1402 11.9799 79.3076 12.8497H77.429C77.3267 12.4526 77.1221 12.1501 76.8059 11.9327C76.4897 11.7152 76.1177 11.6018 75.6899 11.6018C75.3179 11.6018 74.9831 11.6963 74.6855 11.8854C74.3786 12.0745 74.1461 12.3486 73.9694 12.7173C73.7927 13.086 73.709 13.5304 73.709 14.0503C73.709 14.4379 73.7555 14.7783 73.8578 15.0902C73.9601 15.4022 74.0996 15.6575 74.2856 15.8655C74.4716 16.0734 74.6855 16.2342 74.918 16.3476C75.1598 16.461 75.4202 16.5178 75.6992 16.5178C75.9782 16.5178 76.2386 16.4705 76.4804 16.3665C76.7222 16.2625 76.9268 16.1207 77.0942 15.9316C77.2616 15.7426 77.3825 15.5157 77.4383 15.2604H79.3169C79.1402 16.1113 78.731 16.7919 78.08 17.3024C77.429 17.794 76.6385 18.0493 75.7085 18.0493Z" fill="currentColor"/>
    <path d="M79.8564 17.8602V6.93164H81.6513V17.8697H79.8564V17.8602Z" fill="currentColor"/>
    <path d="M85.9667 18.0493C85.2227 18.0493 84.5624 17.8791 83.9951 17.5482C83.4278 17.2173 82.9814 16.7447 82.6652 16.1491C82.349 15.5535 82.1909 14.8634 82.1909 14.0881C82.1909 13.2846 82.349 12.585 82.6652 11.98C82.9814 11.3749 83.4185 10.8928 83.9951 10.5524C84.5717 10.2121 85.232 10.0325 85.9853 10.0325C86.72 10.0325 87.3617 10.2026 87.9011 10.5335C88.4405 10.8644 88.8683 11.3087 89.1752 11.8665C89.4821 12.4243 89.6309 13.0577 89.6309 13.7667C89.6309 13.8707 89.6309 13.9747 89.6309 14.0976C89.6309 14.211 89.6216 14.3434 89.603 14.4852H83.4743V13.3129H87.8267C87.8081 12.7646 87.6221 12.3297 87.278 12.0083C86.9246 11.6869 86.4968 11.5262 85.976 11.5262C85.604 11.5262 85.2692 11.6113 84.9623 11.7814C84.6554 11.9516 84.4136 12.2068 84.2276 12.5472C84.0509 12.8875 83.9579 13.3129 83.9579 13.8329V14.2772C83.9579 14.7499 84.0416 15.1564 84.2183 15.4968C84.395 15.8371 84.6275 16.0923 84.9251 16.2814C85.2227 16.461 85.5668 16.5556 85.9574 16.5556C86.3759 16.5556 86.72 16.461 86.999 16.2814C87.2687 16.1018 87.4733 15.8655 87.5849 15.5629H89.4077C89.2868 16.0262 89.0636 16.4516 88.7474 16.8297C88.4219 17.2079 88.0313 17.5104 87.557 17.7278C87.0827 17.9358 86.5619 18.0493 85.9667 18.0493Z" fill="currentColor"/>
  </g>
  <defs>
    <clipPath id="clip0_2695_5311">
      <rect width="90" height="26" fill="currentColor"/>
    </clipPath>
  </defs>
</svg>
