<svg id="Ebene_1" xmlns="http://www.w3.org/2000/svg" version="1.1" viewBox="0 0 1000 285.6">
  <g>
    <path fill="#cabbfe" d="M182.2,123.6c-4.5-1-8.8-2.3-12.8-3.9-4.8-2.1-9.3-4.7-13.4-7.8-4.1-3.3-7.8-7.1-11.2-11.2-3.8-5.1-7.1-10.8-9.8-16.9-.8-2.1-1.6-4.2-2.3-6.2l-2.3-7-1.4,7.2c-1.6,8.6-4,16.7-7.3,24.1l-.4.9.5.8c2.6,4.3,5.6,8.6,8.9,12.6,6.3,7.5,14.1,14,22.7,18.7h0l1.3.7.8-.4c5.9-2.6,10.9-4.4,15.7-5.7,3.4-.9,7-1.7,10.7-2.3l9.8-1.6-9.6-2Z"/>
    <path fill="#aa9fed" d="M33,159.3c3,.2,6.1.2,9,0,8.4-.4,16.8-1.6,24.9-3.8,5.4-1.5,10.6-3.5,15.8-5.7,4.5-2,8.9-4.4,13-7.3,11.1-7.7,20.4-17.7,26.8-29.6,8.1-15.3,11.7-32.4,12.5-49.6.1-2.3.2-4.6.2-6.9,0-3.3-1.4-6.7-3.7-9-2.2-2.2-5.8-3.9-9-3.7-3.3.2-6.7,1.2-9,3.7-2.3,2.5-3.7,5.5-3.7,9,0,6.1-.4,12.2-1.2,18.3.2-1.1.3-2.2.4-3.4-1.2,8.6-3.3,17.1-6.6,25.2.4-1,.8-2,1.3-3-2.5,6-5.7,11.6-9.7,16.7.7-.8,1.3-1.7,2-2.6-3.7,4.7-7.9,9-12.7,12.7.8-.7,1.7-1.3,2.6-2-5.3,4.1-11.1,7.4-17.2,9.9,1-.4,2-.8,3-1.3-6.3,2.6-12.8,4.5-19.5,5.7-1.6.3-3.3.6-4.9.8,1.1-.2,2.2-.3,3.4-.4-5.6.8-11.2,1.1-16.9.8-.3,0-.7,0-1,0-3.1-.3-6.9,1.6-9,3.7-2.2,2.2-3.9,5.8-3.7,9,.2,3.3,1.2,6.7,3.7,9,.8.7,1.7,1.3,2.6,2,2,1.2,4.1,1.7,6.4,1.8h0Z"/>
    <path fill="#aba0e4" d="M122.3,185.1c-2.2-3.4-4.7-6.8-7.3-10-6.3-7.5-14.1-14-22.7-18.7-.6-.4-1.2-.7-1.9-1l-.8-.4-1.3.6c-.2,0-.3.2-.5.2-6.1,2.7-11.2,4.5-16,5.8-3.1.8-6.3,1.6-9.7,2.1l-10,1.8,10,2c5,1,9.8,2.4,14.3,4.2,4.8,2.1,9.3,4.7,13.4,7.8,4.1,3.3,7.8,7.1,11.2,11.2,3.8,5.1,7.1,10.8,9.8,16.9.2.5.4,1,.6,1.6l2.2,5.7,1.4-6c1.8-7.8,4.2-15.1,7.4-21.9l.4-.9-.5-.9Z"/>
    <path fill="#887cd4" d="M210.9,132.2c-3-.2-6.1-.2-9,0-8.4.4-16.8,1.6-24.9,3.8-5.4,1.5-10.6,3.5-15.8,5.7-4.5,2-8.9,4.4-13,7.3-11.1,7.7-20.4,17.7-26.8,29.6-8.2,15.3-11.7,32.4-12.5,49.6-.1,2.3-.2,4.6-.2,6.9,0,3.3,1.4,6.7,3.7,9,2.2,2.2,5.8,3.9,9,3.7,3.3-.2,6.7-1.2,9-3.7,2.3-2.5,3.7-5.5,3.7-9,0-6.1.4-12.2,1.2-18.3-.2,1.1-.3,2.2-.4,3.4,1.2-8.6,3.3-17.1,6.6-25.2-.4,1-.8,2-1.3,3,2.5-6,5.7-11.6,9.7-16.7-.7.8-1.3,1.7-2,2.6,3.7-4.7,7.9-9,12.7-12.7-.8.7-1.7,1.3-2.6,2,5.3-4.1,11.1-7.4,17.2-9.9-1,.4-2,.8-3,1.3,6.3-2.6,12.8-4.5,19.5-5.7,1.6-.3,3.3-.6,4.9-.8-1.1.2-2.2.3-3.4.4,5.6-.8,11.2-1.1,16.9-.8.3,0,.7,0,1,0,3.1.3,6.9-1.6,9-3.7,2.2-2.2,3.9-5.8,3.7-9-.2-3.3-1.2-6.7-3.7-9-.8-.7-1.7-1.3-2.6-2-2-1.1-4.1-1.7-6.4-1.7h0Z"/>
  </g>
  <g fill="currentColor">
    <path d="M309.8,199.5c-5.5,0-10.2-.9-14.2-2.6-4-1.7-7.1-4.6-9.3-8.5-2.2-4-3.3-9.3-3.3-16.1v-37.8h-14v-16.1h14l2.2-21.4h17v21.4h21.8v16.1h-21.8v37.8c0,4.1.9,6.9,2.6,8.4,1.7,1.6,4.7,2.3,9,2.3h10v16.4h-14Z"/>
    <path d="M329.6,199.5v-115.6h19.3v47.2c2.6-4.4,6.2-7.9,10.8-10.5,4.6-2.6,9.9-3.9,15.7-3.9s12.1,1.4,16.7,4.1,8.1,6.8,10.5,12.1c2.4,5.4,3.6,11.9,3.6,19.8v46.9h-19.1v-45.1c0-7-1.4-12.3-4.3-16s-7.3-5.5-13.3-5.5-7.4,1-10.5,2.9c-3.2,1.9-5.6,4.7-7.4,8.2s-2.7,7.8-2.7,12.7v42.9h-19.3v-.2Z"/>
    <path d="M451.7,201.5c-8,0-15.1-1.8-21.2-5.3s-10.9-8.5-14.3-14.8-5.1-13.6-5.1-21.8,1.7-15.9,5.1-22.3c3.4-6.4,8.1-11.5,14.3-15.1,6.2-3.6,13.3-5.5,21.4-5.5s14.8,1.8,20.6,5.3c5.8,3.5,10.4,8.2,13.7,14.1,3.3,5.9,4.9,12.6,4.9,20.1v3.5c0,1.2-.1,2.6-.3,4.1h-65.9v-12.4h46.8c-.2-5.8-2.2-10.4-5.9-13.8-3.8-3.4-8.4-5.1-14-5.1s-7.6.9-10.9,2.7-5.9,4.5-7.9,8.1c-1.9,3.6-2.9,8.1-2.9,13.6v4.7c0,5,.9,9.3,2.8,12.9,1.9,3.6,4.4,6.3,7.6,8.3,3.2,1.9,6.9,2.9,11.1,2.9s8.2-1,11.2-2.9c2.9-1.9,5.1-4.4,6.3-7.6h19.6c-1.3,4.9-3.7,9.4-7.1,13.4-3.5,4-7.7,7.2-12.8,9.5-5.1,2.2-10.8,3.4-17.1,3.4Z"/>
    <path d="M496.2,199.5v-81h17l1.3,10.9c2.6-4,6-7.1,10.4-9.4,4.3-2.3,9.1-3.5,14.4-3.5s7.9.5,11.2,1.6,6.2,2.7,8.7,4.8c2.5,2.1,4.6,4.8,6.2,8,2.9-4.5,6.7-8,11.6-10.6,4.8-2.6,10.1-3.9,15.9-3.9s12.5,1.4,17.2,4.1,8.3,6.7,10.7,12c2.4,5.3,3.6,11.8,3.6,19.5v47.2h-19.1v-45.5c0-6.9-1.4-12.1-4.2-15.7-2.8-3.6-6.9-5.5-12.2-5.5s-7,.9-9.8,2.8c-2.8,1.9-5,4.6-6.6,8-1.6,3.5-2.4,7.7-2.4,12.8v43.1h-19.3v-45.5c0-6.9-1.4-12.1-4.2-15.7-2.8-3.6-7-5.5-12.7-5.5s-6.7.9-9.5,2.8c-2.8,1.9-5,4.6-6.5,8-1.6,3.5-2.3,7.7-2.3,12.8v43.1h-19.4v.3Z"/>
    <path d="M642.4,105.7c-3.5,0-6.5-1.1-8.8-3.3-2.3-2.2-3.5-4.9-3.5-8.1s1.1-6,3.5-8.1c2.3-2.1,5.2-3.1,8.8-3.1s6.5,1,8.8,3.1,3.5,4.8,3.5,8.1-1.2,5.9-3.5,8.1c-2.4,2.2-5.3,3.3-8.8,3.3ZM632.7,199.5v-81h19.3v81h-19.3Z"/>
    <path d="M661.7,199.5v-81h17.2l1.6,15.1c2-3.5,4.4-6.6,7.2-9.1s6.2-4.5,10.1-5.9c4-1.4,8.4-2.1,13.2-2.1v20.2h-6.9c-3.2,0-6.3.4-9.2,1.2s-5.4,2.1-7.5,3.9c-2.1,1.8-3.7,4.3-4.8,7.4-1.1,3.1-1.7,6.9-1.7,11.4v38.7h-19.2v.2Z"/>
    <path d="M739.4,201.5c-6.5,0-12-1.1-16.5-3.4-4.4-2.2-7.7-5.2-9.9-9-2.1-3.7-3.2-7.9-3.2-12.4s1.3-9.4,3.9-13.2c2.6-3.7,6.5-6.7,11.6-8.8s11.5-3.1,19.1-3.1h20.6c0-4.3-.6-7.8-1.8-10.7-1.2-2.8-3.1-5-5.5-6.4-2.5-1.4-5.7-2.2-9.6-2.2s-8.1,1-11.2,3.1c-3.1,2-5,5.1-5.8,9.2h-19c.6-5.8,2.6-10.8,5.9-14.9,3.3-4.2,7.6-7.4,12.9-9.6,5.3-2.2,11.1-3.4,17.3-3.4s14.3,1.3,19.7,3.9,9.5,6.3,12.4,11.2c2.8,4.8,4.3,10.7,4.3,17.7v50.1h-16.5l-1.9-12.9c-1.1,2.1-2.4,4.1-4.1,5.9-1.7,1.8-3.6,3.3-5.8,4.7-2.2,1.3-4.6,2.4-7.3,3.1-3.1.7-6.2,1.1-9.6,1.1ZM743.7,186.2c3.1,0,5.9-.6,8.4-1.7,2.5-1.1,4.6-2.7,6.3-4.8s3.1-4.4,4.1-7.1c1-2.6,1.6-5.4,1.8-8.3v-.3h-17.7c-3.9,0-7,.5-9.4,1.4-2.4,1-4.2,2.3-5.4,3.9-1.2,1.7-1.8,3.6-1.8,5.9s.6,4.3,1.7,5.9c1.1,1.6,2.7,2.8,4.8,3.7,2.2,1,4.6,1.4,7.2,1.4Z"/>
    <path d="M830.2,201.5c-8,0-15.2-1.8-21.4-5.4-6.2-3.6-11.1-8.6-14.5-14.9-3.5-6.4-5.2-13.6-5.2-21.8s1.7-15.9,5.2-22.3c3.5-6.4,8.3-11.4,14.5-15s13.3-5.4,21.4-5.4,18.7,2.7,25.6,8c6.9,5.3,11.3,12.6,13.1,21.8h-20.2c-1.1-4.2-3.3-7.4-6.7-9.7s-7.4-3.5-12-3.5-7.6,1-10.8,3c-3.3,2-5.8,4.9-7.7,8.8-1.9,3.9-2.8,8.6-2.8,14.1s.5,7.7,1.6,11,2.6,6,4.6,8.2,4.3,3.9,6.8,5.1c2.6,1.2,5.4,1.8,8.4,1.8s5.8-.5,8.4-1.6c2.6-1.1,4.8-2.6,6.6-4.6s3.1-4.4,3.7-7.1h20.2c-1.9,9-6.3,16.2-13.3,21.6-7,5.2-15.5,7.9-25.5,7.9Z"/>
    <path d="M874.8,199.5v-115.6h19.3v115.7h-19.3Z"/>
    <path d="M940.5,201.5c-8,0-15.1-1.8-21.2-5.3-6.1-3.5-10.9-8.5-14.3-14.8-3.4-6.3-5.1-13.6-5.1-21.8s1.7-15.9,5.1-22.3c3.4-6.4,8.1-11.5,14.3-15.1s13.3-5.5,21.4-5.5,14.8,1.8,20.6,5.3,10.4,8.2,13.7,14.1,4.9,12.6,4.9,20.1v3.5c0,1.2,0,2.6-.3,4.1h-65.9v-12.4h46.8c-.2-5.8-2.2-10.4-5.9-13.8-3.8-3.4-8.4-5.1-14-5.1s-7.6.9-10.9,2.7c-3.3,1.8-5.9,4.5-7.9,8.1-1.9,3.6-2.9,8.1-2.9,13.6v4.7c0,5,.9,9.3,2.8,12.9,1.9,3.6,4.4,6.3,7.6,8.3,3.2,1.9,6.9,2.9,11.1,2.9s8.2-1,11.2-2.9c2.9-1.9,5.1-4.4,6.3-7.6h19.6c-1.3,4.9-3.7,9.4-7.1,13.4-3.5,4-7.7,7.2-12.8,9.5-5.1,2.2-10.7,3.4-17.1,3.4Z"/>
  </g>
</svg>
