<svg width="338" height="196" viewBox="0 0 338 196" fill="none" xmlns="http://www.w3.org/2000/svg">
  <g clip-path="url(#clip0_5010_5917)">
    <rect y="0.856445" width="338" height="194.688" rx="11.465" fill="#FF5C16" />
    <path d="M135.057 112.189H185.349V36.16H135.057L135.057 112.189Z" fill="#FFA680" />
    <path d="M185.349 255.942H268.331V-4.91211H185.349V255.942Z" fill="#FFA680" />
    <path d="M268.331 255.924H323.652V153.244H268.331V255.924Z" fill="#FFA680" />
    <path d="M323.652 214.87H366.081V153.262H323.652L323.652 214.87Z" fill="#FFA680" />
    <path d="M268.331 153.262H365.885V71.1174L268.331 44.7775V153.262Z" fill="#FFA680" />
    <path d="M135.057 36.16L185.349 -4.91211V36.16H135.057Z" fill="#FFA680" />
    <path d="M366.081 153.262L365.885 71.1174V153.262H366.081Z" fill="#FFA680" />
    <path d="M351.313 214.87L323.652 255.942V214.87H351.313Z" fill="#FFA680" />
    <path d="M135.057 112.189L185.349 153.262V112.189H135.057Z" fill="#FFA680" />
    <path d="M270.37 147.223H252.709V178.957H270.37V147.223Z" fill="#FF5F00" />
    <path
      d="M253.83 163.089C253.83 156.922 256.69 151.035 261.512 147.222C252.765 140.326 240.038 141.84 233.141 150.642C226.301 159.389 227.815 172.06 236.618 178.956C243.962 184.731 254.223 184.731 261.568 178.956C256.69 175.144 253.83 169.257 253.83 163.089Z"
      fill="#EB001B" />
    <path
      d="M294.199 163.089C294.199 174.247 285.172 183.274 274.015 183.274C269.473 183.274 265.1 181.76 261.568 178.956C270.314 172.06 271.828 159.389 264.932 150.586C263.922 149.353 262.801 148.175 261.568 147.222C270.314 140.326 283.041 141.84 289.882 150.642C292.685 154.175 294.199 158.548 294.199 163.089Z"
      fill="#F79E1B" />
    <path
      d="M265.213 125.619L240.673 118.327L222.166 129.367L209.254 129.361L190.737 118.327L166.207 125.619L158.746 100.484L166.207 72.587L158.746 49.0012L166.207 19.7695L204.537 42.6208H226.884L265.213 19.7695L272.675 49.0012L265.213 72.587L272.675 100.484L265.213 125.619Z"
      fill="#FF5C16" />
    <path d="M166.213 19.7695L204.542 42.6369L203.017 58.3304L166.213 19.7695Z" fill="#FF5C16" />
    <path d="M190.742 100.494L207.607 113.314L190.742 118.327V100.494Z" fill="#FF5C16" />
    <path
      d="M206.259 79.2995L203.017 58.3408L182.27 72.592L182.259 72.5867V72.5974L182.323 87.2668L190.737 79.2995H190.742H206.259Z"
      fill="#FF5C16" />
    <path d="M265.213 19.7695L226.884 42.6369L228.403 58.3304L265.213 19.7695Z" fill="#FF5C16" />
    <path d="M240.684 100.494L223.819 113.314L240.684 118.327V100.494Z" fill="#FF5C16" />
    <path
      d="M249.161 72.5974H249.167H249.161V72.5867L249.156 72.592L228.408 58.3408L225.167 79.2995H240.684L249.102 87.2668L249.161 72.5974Z"
      fill="#FF5C16" />
    <path d="M190.737 118.327L166.207 125.619L158.746 100.494H190.737V118.327Z" fill="#E34807" />
    <path d="M206.254 79.2949L210.939 109.594L204.446 92.7473L182.312 87.2677L190.731 79.2949H206.248H206.254Z"
      fill="#E34807" />
    <path d="M240.684 118.327L265.213 125.619L272.675 100.494H240.684V118.327Z" fill="#E34807" />
    <path d="M225.167 79.2949L220.481 109.594L226.975 92.7473L249.108 87.2677L240.684 79.2949H225.167Z"
      fill="#E34807" />
    <path
      d="M158.746 100.483L166.207 72.5869H182.254L182.312 87.2617L204.446 92.7413L210.939 109.588L207.601 113.298L190.737 100.478H158.746V100.483Z"
      fill="#FF8D5D" />
    <path
      d="M272.675 100.483L265.213 72.5869H249.167L249.108 87.2617L226.975 92.7413L220.481 109.588L223.819 113.298L240.684 100.478H272.675V100.483Z"
      fill="#FF8D5D" />
    <path d="M226.884 42.6211H215.71H204.537L203.018 58.3146L210.939 109.572H220.481L228.408 58.3146L226.884 42.6211Z"
      fill="#FF8D5D" />
    <path d="M166.207 19.7695L158.746 49.0012L166.207 72.587H182.254L203.012 58.3304L166.207 19.7695Z" fill="#661800" />
    <path d="M201.616 85.3794H194.347L190.389 89.2505L204.451 92.7302L201.616 85.374V85.3794Z" fill="#661800" />
    <path d="M265.213 19.7695L272.675 49.0012L265.213 72.587H249.167L228.408 58.3304L265.213 19.7695Z" fill="#661800" />
    <path d="M229.815 85.3794H237.095L241.053 89.2558L226.975 92.7409L229.815 85.374V85.3794Z" fill="#661800" />
    <path d="M222.161 119.368L223.819 113.309L220.481 109.599H210.934L207.596 113.309L209.254 119.368" fill="#661800" />
    <path d="M222.161 119.367V129.372H209.254V119.367H222.161Z" fill="#C0C4CD" />
    <path d="M190.742 118.317L209.265 129.367V119.362L207.607 113.304L190.742 118.317Z" fill="#E7EBF6" />
    <path d="M240.684 118.317L222.161 129.367V119.362L223.819 113.304L240.684 118.317Z" fill="#E7EBF6" />
    <path
      d="M47.4064 34.1894V41.2374H43.7439V36.3544L39.5701 36.8367C38.6534 36.9417 38.2501 37.2396 38.2501 37.7884C38.2501 38.5922 39.0158 38.9309 40.6572 38.9309C41.6581 38.9309 42.7667 38.783 43.746 38.5279L41.85 41.1945C41.0843 41.3638 40.338 41.4474 39.5507 41.4474C36.229 41.4474 34.333 40.1356 34.333 37.8077C34.333 35.7542 35.8235 34.676 39.2099 34.2944L43.6835 33.7778C43.4419 32.4853 42.4605 31.9236 40.5084 31.9236C38.6771 31.9236 36.6539 32.3888 34.8442 33.2569L35.4201 30.1038C37.1026 29.405 39.0201 29.0449 40.9571 29.0449C45.2171 29.0449 47.4107 30.8026 47.4107 34.1872L47.4064 34.1894ZM14.4588 25.3644L10.4555 41.2374H14.4588L16.4454 33.2612L19.89 37.364H24.0637L27.5084 33.2612L29.495 41.2374H33.4983L29.495 25.3622L21.9758 34.2365L14.4566 25.3622L14.4588 25.3644ZM29.495 9.48926L21.9758 18.3636L14.4588 9.48926L10.4555 25.3644H14.4588L16.4454 17.3882L19.89 21.491H24.0637L27.5084 17.3882L29.495 25.3644H33.4983L29.495 9.48926ZM57.0329 34.0415L53.7953 33.5763C52.9864 33.4499 52.6672 33.1948 52.6672 32.7511C52.6672 32.0308 53.4545 31.7136 55.0744 31.7136C56.9488 31.7136 58.6312 32.0951 60.3999 32.9204L59.9534 29.8101C58.5255 29.3021 56.8862 29.0491 55.1822 29.0491C51.2005 29.0491 49.0262 30.4253 49.0262 32.9011C49.0262 34.8282 50.219 35.9064 52.7535 36.2879L56.0342 36.7745C56.8646 36.901 57.2054 37.2182 57.2054 37.7262C57.2054 38.4465 56.4397 38.7851 54.8845 38.7851C52.8398 38.7851 50.6246 38.2986 48.8149 37.4304L49.1772 40.5407C50.7324 41.113 52.7556 41.4517 54.6516 41.4517C58.7412 41.4517 60.8701 40.0327 60.8701 37.514C60.8701 35.5034 59.6773 34.423 57.0372 34.0436L57.0329 34.0415ZM62.2937 26.7813V41.2374H65.9562V26.7813H62.2937ZM70.2356 34.7403L75.3282 29.2571H70.7706L65.9562 34.9289L71.0898 41.2352H75.7122L70.2356 34.7381V34.7403ZM61.7825 21.9347C61.7825 24.2626 63.6785 25.5745 67.0002 25.5745C67.7875 25.5745 68.5338 25.4887 69.2995 25.3215L71.1955 22.6549C70.2162 22.9079 69.1075 23.0579 68.1067 23.0579C66.4674 23.0579 65.6996 22.7192 65.6996 21.9154C65.6996 21.3645 66.1051 21.0687 67.0196 20.9637L71.1933 20.4814V25.3644H74.8559V18.3164C74.8559 14.9296 72.6622 13.174 68.4022 13.174C66.4631 13.174 64.5477 13.5341 62.8653 14.2329L62.2894 17.3861C64.0991 16.518 66.1223 16.0528 67.9536 16.0528C69.9056 16.0528 70.887 16.6144 71.1286 17.907L66.6551 18.4236C63.2687 18.8051 61.7782 19.8833 61.7782 21.9368L61.7825 21.9347ZM51.5391 21.1737C51.5391 24.0954 53.2431 25.5766 56.608 25.5766C57.9496 25.5766 59.0583 25.3644 60.1217 24.8778L60.5897 21.6818C59.5673 22.2948 58.5233 22.6121 57.4794 22.6121C55.9026 22.6121 55.1995 21.9776 55.1995 20.5585V16.325H60.758V13.3841H55.1995V10.8869L48.2346 14.548V16.325H51.5348V21.1716L51.5391 21.1737ZM47.9391 19.8405V20.5607H38.0408C38.4873 22.0269 39.8139 22.6978 42.1693 22.6978C44.0437 22.6978 45.7908 22.3163 47.3438 21.5767L46.8973 24.6677C45.4694 25.2593 43.6597 25.5787 41.8069 25.5787C36.8869 25.5787 34.2036 23.4202 34.2036 19.4203C34.2036 15.4205 36.93 13.1762 41.1469 13.1762C45.3637 13.1762 47.9413 15.6112 47.9413 19.8426L47.9391 19.8405ZM37.9934 18.1042H44.2529C43.9229 16.7002 42.8379 15.9671 41.1037 15.9671C39.3695 15.9671 38.3407 16.6809 37.9934 18.1042Z"
      fill="#661800" />
  </g>
  <defs>
    <clipPath id="clip0_5010_5917">
      <rect y="0.856445" width="338" height="194.688" rx="11.465" fill="white" />
    </clipPath>
  </defs>
</svg>