<svg width="308" height="195" viewBox="0 0 308 195" fill="none" xmlns="http://www.w3.org/2000/svg">
<g clip-path="url(#clip0_4386_16890)">
<rect x="0.64679" y="0.311523" width="306.706" height="194.688" rx="11.465" fill="#FF5C16"/>
<path d="M123.2 111.645H168.836V35.6151H123.2L123.2 111.645Z" fill="#FFA680"/>
<path d="M168.836 255.397H244.135V-5.45703H168.836V255.397Z" fill="#FFA680"/>
<path d="M244.135 255.379H294.334V152.699H244.135V255.379Z" fill="#FFA680"/>
<path d="M294.334 214.325H332.835V152.717H294.334L294.334 214.325Z" fill="#FFA680"/>
<path d="M244.135 152.717H332.656V70.5725L244.135 44.2326V152.717Z" fill="#FFA680"/>
<path d="M123.2 35.6151L168.836 -5.45703V35.6151H123.2Z" fill="#FFA680"/>
<path d="M332.835 152.717L332.656 70.5725V152.717H332.835Z" fill="#FFA680"/>
<path d="M319.433 214.325L294.334 255.397V214.325H319.433Z" fill="#FFA680"/>
<path d="M123.2 111.645L168.836 152.717V111.645H123.2Z" fill="#FFA680"/>
<path d="M271.017 146.678H253.356V178.412H271.017V146.678Z" fill="#FF5F00"/>
<path d="M254.477 162.544C254.477 156.377 257.336 150.49 262.158 146.677C253.412 139.781 240.684 141.295 233.788 150.097C226.948 158.844 228.462 171.515 237.264 178.411C244.609 184.186 254.87 184.186 262.214 178.411C257.336 174.599 254.477 168.712 254.477 162.544Z" fill="#EB001B"/>
<path d="M294.846 162.544C294.846 173.702 285.819 182.729 274.661 182.729C270.12 182.729 265.747 181.215 262.214 178.411C270.961 171.515 272.475 158.844 265.578 150.041C264.569 148.808 263.448 147.63 262.214 146.677C270.961 139.781 283.688 141.295 290.528 150.097C293.332 153.63 294.846 158.003 294.846 162.544Z" fill="#F79E1B"/>
<path d="M238.735 123.6L214.195 116.309L195.688 127.348L182.776 127.343L164.259 116.309L139.729 123.6L132.268 98.465L139.729 70.5684L132.268 46.9826L139.729 17.751L178.059 40.6023H200.406L238.735 17.751L246.197 46.9826L238.735 70.5684L246.197 98.465L238.735 123.6Z" fill="#FF5C16"/>
<path d="M139.735 17.751L178.064 40.6184L176.54 56.3119L139.735 17.751Z" fill="#FF5C16"/>
<path d="M164.264 98.4756L181.129 111.295L164.264 116.308V98.4756Z" fill="#FF5C16"/>
<path d="M179.781 77.2809L176.54 56.3223L155.792 70.5735L155.781 70.5681V70.5789L155.845 85.2483L164.259 77.2809H164.264H179.781Z" fill="#FF5C16"/>
<path d="M238.735 17.751L200.406 40.6184L201.925 56.3119L238.735 17.751Z" fill="#FF5C16"/>
<path d="M214.206 98.4756L197.341 111.295L214.206 116.308V98.4756Z" fill="#FF5C16"/>
<path d="M222.684 70.5789H222.689H222.684V70.5681L222.678 70.5735L201.93 56.3223L198.689 77.2809H214.206L222.625 85.2483L222.684 70.5789Z" fill="#FF5C16"/>
<path d="M164.259 116.308L139.729 123.6L132.268 98.4756H164.259V116.308Z" fill="#E34807"/>
<path d="M179.776 77.2764L184.461 107.575L177.968 90.7287L155.835 85.2491L164.254 77.2764H179.77H179.776Z" fill="#E34807"/>
<path d="M214.206 116.308L238.735 123.6L246.197 98.4756H214.206V116.308Z" fill="#E34807"/>
<path d="M198.689 77.2764L194.003 107.575L200.497 90.7287L222.63 85.2491L214.206 77.2764H198.689Z" fill="#E34807"/>
<path d="M132.268 98.4649L139.729 70.5684H155.776L155.835 85.2432L177.968 90.7227L184.461 107.569L181.124 111.279L164.259 98.4596H132.268V98.4649Z" fill="#FF8D5D"/>
<path d="M246.197 98.4649L238.735 70.5684H222.689L222.63 85.2432L200.497 90.7227L194.003 107.569L197.341 111.279L214.206 98.4596H246.197V98.4649Z" fill="#FF8D5D"/>
<path d="M200.406 40.6025H189.232H178.059L176.54 56.296L184.461 107.553H194.003L201.93 56.296L200.406 40.6025Z" fill="#FF8D5D"/>
<path d="M139.729 17.751L132.268 46.9826L139.729 70.5684H155.776L176.534 56.3119L139.729 17.751Z" fill="#661800"/>
<path d="M175.138 83.3608H167.869L163.911 87.2319L177.973 90.7116L175.138 83.3555V83.3608Z" fill="#661800"/>
<path d="M238.735 17.751L246.197 46.9826L238.735 70.5684H222.689L201.93 56.3119L238.735 17.751Z" fill="#661800"/>
<path d="M203.337 83.3608H210.617L214.575 87.2373L200.497 90.7224L203.337 83.3555V83.3608Z" fill="#661800"/>
<path d="M195.683 117.349L197.341 111.29L194.003 107.58H184.456L181.118 111.29L182.776 117.349" fill="#661800"/>
<path d="M195.683 117.349V127.353H182.776V117.349H195.683Z" fill="#C0C4CD"/>
<path d="M164.264 116.298L182.787 127.349V117.344L181.129 111.285L164.264 116.298Z" fill="#E7EBF6"/>
<path d="M214.206 116.298L195.683 127.349V117.344L197.341 111.285L214.206 116.298Z" fill="#E7EBF6"/>
<path d="M48.0532 33.6445V40.6924H44.3906V35.8094L40.2169 36.2917C39.3002 36.3968 38.8969 36.6947 38.8969 37.2435C38.8969 38.0473 39.6626 38.386 41.304 38.386C42.3049 38.386 43.4135 38.2381 44.3928 37.983L42.4968 40.6496C41.7311 40.8189 40.9848 40.9025 40.1975 40.9025C36.8758 40.9025 34.9798 39.5907 34.9798 37.2628C34.9798 35.2092 36.4703 34.131 39.8567 33.7495L44.3302 33.2329C44.0887 31.9403 43.1072 31.3787 41.1552 31.3787C39.3239 31.3787 37.3007 31.8439 35.491 32.712L36.0669 29.5588C37.7494 28.8601 39.6669 28.4999 41.6038 28.4999C45.8638 28.4999 48.0575 30.2576 48.0575 33.6423L48.0532 33.6445ZM15.1056 24.8195L11.1023 40.6924H15.1056L17.0921 32.7163L20.5368 36.819H24.7105L28.1552 32.7163L30.1418 40.6924H34.1451L30.1418 24.8173L22.6226 33.6916L15.1034 24.8173L15.1056 24.8195ZM30.1418 8.94434L22.6226 17.8186L15.1056 8.94434L11.1023 24.8195H15.1056L17.0921 16.8433L20.5368 20.9461H24.7105L28.1552 16.8433L30.1418 24.8195H34.1451L30.1418 8.94434ZM57.6797 33.4965L54.4421 33.0314C53.6332 32.9049 53.314 32.6498 53.314 32.2061C53.314 31.4859 54.1013 31.1687 55.7212 31.1687C57.5956 31.1687 59.278 31.5502 61.0467 32.3755L60.6002 29.2652C59.1723 28.7572 57.533 28.5042 55.829 28.5042C51.8473 28.5042 49.673 29.8804 49.673 32.3562C49.673 34.2832 50.8658 35.3614 53.4003 35.743L56.681 36.2296C57.5114 36.356 57.8522 36.6733 57.8522 37.1813C57.8522 37.9015 57.0865 38.2402 55.5313 38.2402C53.4865 38.2402 51.2713 37.7536 49.4617 36.8855L49.824 39.9958C51.3792 40.5681 53.4024 40.9068 55.2984 40.9068C59.388 40.9068 61.5169 39.4878 61.5169 36.9691C61.5169 34.9585 60.3241 33.8781 57.684 33.4987L57.6797 33.4965ZM62.9405 26.2363V40.6924H66.603V26.2363H62.9405ZM70.8824 34.1953L75.975 28.7121H71.4174L66.603 34.384L71.7366 40.6903H76.359L70.8824 34.1932V34.1953ZM62.4293 21.3898C62.4293 23.7177 64.3253 25.0295 67.647 25.0295C68.4343 25.0295 69.1806 24.9438 69.9463 24.7766L71.8423 22.11C70.863 22.363 69.7543 22.513 68.7535 22.513C67.1142 22.513 66.3463 22.1743 66.3463 21.3705C66.3463 20.8196 66.7518 20.5238 67.6664 20.4188L71.8401 19.9365V24.8195H75.5026V17.7715C75.5026 14.3847 73.309 12.6291 69.049 12.6291C67.1099 12.6291 65.1945 12.9892 63.5121 13.688L62.9362 16.8412C64.7459 15.973 66.7691 15.5079 68.6004 15.5079C70.5524 15.5079 71.5338 16.0695 71.7754 17.3621L67.3019 17.8786C63.9154 18.2602 62.425 19.3384 62.425 21.3919L62.4293 21.3898ZM52.1859 20.6288C52.1859 23.5505 53.8899 25.0317 57.2548 25.0317C58.5964 25.0317 59.7051 24.8195 60.7684 24.3329L61.2365 21.1368C60.2141 21.7499 59.1701 22.0671 58.1262 22.0671C56.5494 22.0671 55.8463 21.4327 55.8463 20.0136V15.7801H61.4047V12.8392H55.8463V10.3419L48.8814 14.0031V15.7801H52.1816V20.6267L52.1859 20.6288ZM48.5859 19.2955V20.0158H38.6876C39.1341 21.482 40.4607 22.1529 42.8161 22.1529C44.6905 22.1529 46.4376 21.7713 47.9906 21.0318L47.5441 24.1228C46.1162 24.7144 44.3065 25.0338 42.4537 25.0338C37.5337 25.0338 34.8504 22.8753 34.8504 18.8754C34.8504 14.8755 37.5768 12.6312 41.7937 12.6312C46.0105 12.6312 48.5881 15.0663 48.5881 19.2977L48.5859 19.2955ZM38.6402 17.5593H44.8997C44.5697 16.1552 43.4847 15.4221 41.7505 15.4221C40.0163 15.4221 38.9875 16.1359 38.6402 17.5593Z" fill="#661800"/>
</g>
<defs>
<clipPath id="clip0_4386_16890">
<rect x="0.64679" y="0.311523" width="306.706" height="194.688" rx="11.465" fill="white"/>
</clipPath>
</defs>
</svg>
