<svg aria-roledescription="sequence" role="graphics-document document" viewBox="-143 -10 991 3268" style="max-width: 991px;" xmlns:xlink="http://www.w3.org/1999/xlink" xmlns="http://www.w3.org/2000/svg" width="100%" id="_r_1j_"><g><rect class="actor actor-bottom" ry="3" rx="3" name="API" height="65" width="150" stroke="#666" fill="#eaeaea" y="3182" x="648"></rect><text style="text-anchor: middle; font-size: 16px; font-weight: 400; font-family: inherit;" class="actor actor-box" alignment-baseline="central" dominant-baseline="central" y="3214.5" x="723"><tspan dy="0" x="723">Backend/API</tspan></text></g><g><rect class="actor actor-bottom" ry="3" rx="3" name="Client" height="65" width="150" stroke="#666" fill="#eaeaea" y="3182" x="0"></rect><text style="text-anchor: middle; font-size: 16px; font-weight: 400; font-family: inherit;" class="actor actor-box" alignment-baseline="central" dominant-baseline="central" y="3214.5" x="75"><tspan dy="0" x="75">Frontend/Client</tspan></text></g><g><line name="API" stroke="#999" stroke-width="0.5px" class="actor-line 200" y2="3182" x2="723" y1="65" x1="723" id="actor8"></line><g id="root-8"><rect class="actor actor-top" ry="3" rx="3" name="API" height="65" width="150" stroke="#666" fill="#eaeaea" y="0" x="648"></rect><text style="text-anchor: middle; font-size: 16px; font-weight: 400; font-family: inherit;" class="actor actor-box" alignment-baseline="central" dominant-baseline="central" y="32.5" x="723"><tspan dy="0" x="723">Backend/API</tspan></text></g></g><g><line name="Client" stroke="#999" stroke-width="0.5px" class="actor-line 200" y2="3182" x2="75" y1="65" x1="75" id="actor7"></line><g id="root-7"><rect class="actor actor-top" ry="3" rx="3" name="Client" height="65" width="150" stroke="#666" fill="#eaeaea" y="0" x="0"></rect><text style="text-anchor: middle; font-size: 16px; font-weight: 400; font-family: inherit;" class="actor actor-box" alignment-baseline="central" dominant-baseline="central" y="32.5" x="75"><tspan dy="0" x="75">Frontend/Client</tspan></text></g></g><style>#_r_1j_{font-family:inherit;font-size:16px;fill:#ccc;}#_r_1j_ .error-icon{fill:#a44141;}#_r_1j_ .error-text{fill:#ddd;stroke:#ddd;}#_r_1j_ .edge-thickness-normal{stroke-width:1px;}#_r_1j_ .edge-thickness-thick{stroke-width:3.5px;}#_r_1j_ .edge-pattern-solid{stroke-dasharray:0;}#_r_1j_ .edge-thickness-invisible{stroke-width:0;fill:none;}#_r_1j_ .edge-pattern-dashed{stroke-dasharray:3;}#_r_1j_ .edge-pattern-dotted{stroke-dasharray:2;}#_r_1j_ .marker{fill:lightgrey;stroke:lightgrey;}#_r_1j_ .marker.cross{stroke:lightgrey;}#_r_1j_ svg{font-family:inherit;font-size:16px;}#_r_1j_ p{margin:0;}#_r_1j_ .actor{stroke:#ccc;fill:#1f2020;}#_r_1j_ text.actor&gt;tspan{fill:lightgrey;stroke:none;}#_r_1j_ .actor-line{stroke:#ccc;}#_r_1j_ .messageLine0{stroke-width:1.5;stroke-dasharray:none;stroke:lightgrey;}#_r_1j_ .messageLine1{stroke-width:1.5;stroke-dasharray:2,2;stroke:lightgrey;}#_r_1j_ #arrowhead path{fill:lightgrey;stroke:lightgrey;}#_r_1j_ .sequenceNumber{fill:black;}#_r_1j_ #sequencenumber{fill:lightgrey;}#_r_1j_ #crosshead path{fill:lightgrey;stroke:lightgrey;}#_r_1j_ .messageText{fill:lightgrey;stroke:none;}#_r_1j_ .labelBox{stroke:#ccc;fill:#1f2020;}#_r_1j_ .labelText,#_r_1j_ .labelText&gt;tspan{fill:lightgrey;stroke:none;}#_r_1j_ .loopText,#_r_1j_ .loopText&gt;tspan{fill:lightgrey;stroke:none;}#_r_1j_ .loopLine{stroke-width:2px;stroke-dasharray:2,2;stroke:#ccc;fill:#ccc;}#_r_1j_ .note{stroke:hsl(180, 0%, 18.3529411765%);fill:hsl(180, 1.5873015873%, 28.3529411765%);}#_r_1j_ .noteText,#_r_1j_ .noteText&gt;tspan{fill:rgb(183.8476190475, 181.5523809523, 181.5523809523);stroke:none;}#_r_1j_ .activation0{fill:hsl(180, 1.5873015873%, 28.3529411765%);stroke:#ccc;}#_r_1j_ .activation1{fill:hsl(180, 1.5873015873%, 28.3529411765%);stroke:#ccc;}#_r_1j_ .activation2{fill:hsl(180, 1.5873015873%, 28.3529411765%);stroke:#ccc;}#_r_1j_ .actorPopupMenu{position:absolute;}#_r_1j_ .actorPopupMenuPanel{position:absolute;fill:#1f2020;box-shadow:0px 8px 16px 0px rgba(0,0,0,0.2);filter:drop-shadow(3px 5px 2px rgb(0 0 0 / 0.4));}#_r_1j_ .actor-man line{stroke:#ccc;fill:#1f2020;}#_r_1j_ .actor-man circle,#_r_1j_ line{stroke:#ccc;fill:#1f2020;stroke-width:2px;}#_r_1j_ :root{--mermaid-font-family:inherit;}</style><g></g><defs><symbol height="24" width="24" id="computer"><path d="M2 2v13h20v-13h-20zm18 11h-16v-9h16v9zm-10.228 6l.466-1h3.524l.467 1h-4.457zm14.228 3h-24l2-6h2.104l-1.33 4h18.45l-1.297-4h2.073l2 6zm-5-10h-14v-7h14v7z" transform="scale(.5)"></path></symbol></defs><defs><symbol clip-rule="evenodd" fill-rule="evenodd" id="database"><path d="M12.258.001l.256.004.255.005.253.008.251.01.249.012.247.015.246.016.242.019.241.02.239.023.236.024.233.027.231.028.229.031.225.032.223.034.22.036.217.038.214.04.211.041.208.043.205.045.201.046.198.048.194.05.191.051.187.053.183.054.18.056.175.057.172.059.168.06.163.061.16.063.155.064.15.066.074.033.073.033.071.034.07.034.069.035.068.035.067.035.066.035.064.036.064.036.062.036.06.036.06.037.058.037.058.037.055.038.055.038.053.038.052.038.051.039.05.039.048.039.047.039.045.04.044.04.043.04.041.04.04.041.039.041.037.041.036.041.034.041.033.042.032.042.03.042.029.042.027.042.026.043.024.043.023.043.021.043.02.043.018.044.017.043.015.044.013.044.012.044.011.045.009.044.007.045.006.045.004.045.002.045.001.045v17l-.001.045-.002.045-.004.045-.006.045-.007.045-.009.044-.011.045-.012.044-.013.044-.015.044-.017.043-.018.044-.02.043-.021.043-.023.043-.024.043-.026.043-.027.042-.029.042-.03.042-.032.042-.033.042-.034.041-.036.041-.037.041-.039.041-.04.041-.041.04-.043.04-.044.04-.045.04-.047.039-.048.039-.05.039-.051.039-.052.038-.053.038-.055.038-.055.038-.058.037-.058.037-.06.037-.06.036-.062.036-.064.036-.064.036-.066.035-.067.035-.068.035-.069.035-.07.034-.071.034-.073.033-.074.033-.15.066-.155.064-.16.063-.163.061-.168.06-.172.059-.175.057-.18.056-.183.054-.187.053-.191.051-.194.05-.198.048-.201.046-.205.045-.208.043-.211.041-.214.04-.217.038-.22.036-.223.034-.225.032-.229.031-.231.028-.233.027-.236.024-.239.023-.241.02-.242.019-.246.016-.247.015-.249.012-.251.01-.253.008-.255.005-.256.004-.258.001-.258-.001-.256-.004-.255-.005-.253-.008-.251-.01-.249-.012-.247-.015-.245-.016-.243-.019-.241-.02-.238-.023-.236-.024-.234-.027-.231-.028-.228-.031-.226-.032-.223-.034-.22-.036-.217-.038-.214-.04-.211-.041-.208-.043-.204-.045-.201-.046-.198-.048-.195-.05-.19-.051-.187-.053-.184-.054-.179-.056-.176-.057-.172-.059-.167-.06-.164-.061-.159-.063-.155-.064-.151-.066-.074-.033-.072-.033-.072-.034-.07-.034-.069-.035-.068-.035-.067-.035-.066-.035-.064-.036-.063-.036-.062-.036-.061-.036-.06-.037-.058-.037-.057-.037-.056-.038-.055-.038-.053-.038-.052-.038-.051-.039-.049-.039-.049-.039-.046-.039-.046-.04-.044-.04-.043-.04-.041-.04-.04-.041-.039-.041-.037-.041-.036-.041-.034-.041-.033-.042-.032-.042-.03-.042-.029-.042-.027-.042-.026-.043-.024-.043-.023-.043-.021-.043-.02-.043-.018-.044-.017-.043-.015-.044-.013-.044-.012-.044-.011-.045-.009-.044-.007-.045-.006-.045-.004-.045-.002-.045-.001-.045v-17l.001-.045.002-.045.004-.045.006-.045.007-.045.009-.044.011-.045.012-.044.013-.044.015-.044.017-.043.018-.044.02-.043.021-.043.023-.043.024-.043.026-.043.027-.042.029-.042.03-.042.032-.042.033-.042.034-.041.036-.041.037-.041.039-.041.04-.041.041-.04.043-.04.044-.04.046-.04.046-.039.049-.039.049-.039.051-.039.052-.038.053-.038.055-.038.056-.038.057-.037.058-.037.06-.037.061-.036.062-.036.063-.036.064-.036.066-.035.067-.035.068-.035.069-.035.07-.034.072-.034.072-.033.074-.033.151-.066.155-.064.159-.063.164-.061.167-.06.172-.059.176-.057.179-.056.184-.054.187-.053.19-.051.195-.05.198-.048.201-.046.204-.045.208-.043.211-.041.214-.04.217-.038.22-.036.223-.034.226-.032.228-.031.231-.028.234-.027.236-.024.238-.023.241-.02.243-.019.245-.016.247-.015.249-.012.251-.01.253-.008.255-.005.256-.004.258-.001.258.001zm-9.258 20.499v.01l.001.021.003.021.004.022.005.021.006.022.007.022.009.023.01.022.011.023.012.023.013.023.015.023.016.024.017.023.018.024.019.024.021.024.022.025.023.024.024.025.052.049.056.05.061.051.066.051.07.051.075.051.079.052.084.052.088.052.092.052.097.052.102.051.105.052.11.052.114.051.119.051.123.051.127.05.131.05.135.05.139.048.144.049.147.047.152.047.155.047.16.045.163.045.167.043.171.043.176.041.178.041.183.039.187.039.19.037.194.035.197.035.202.033.204.031.209.03.212.029.216.027.219.025.222.024.226.021.23.02.233.018.236.016.24.015.243.012.246.01.249.008.253.005.256.004.259.001.26-.001.257-.004.254-.005.25-.008.247-.011.244-.012.241-.014.237-.016.233-.018.231-.021.226-.021.224-.024.22-.026.216-.027.212-.028.21-.031.205-.031.202-.034.198-.034.194-.036.191-.037.187-.039.183-.04.179-.04.175-.042.172-.043.168-.044.163-.045.16-.046.155-.046.152-.047.148-.048.143-.049.139-.049.136-.05.131-.05.126-.05.123-.051.118-.052.114-.051.11-.052.106-.052.101-.052.096-.052.092-.052.088-.053.083-.051.079-.052.074-.052.07-.051.065-.051.06-.051.056-.05.051-.05.023-.024.023-.025.021-.024.02-.024.019-.024.018-.024.017-.024.015-.023.014-.024.013-.023.012-.023.01-.023.01-.022.008-.022.006-.022.006-.022.004-.022.004-.021.001-.021.001-.021v-4.127l-.077.055-.08.053-.083.054-.085.053-.087.052-.09.052-.093.051-.095.05-.097.05-.1.049-.102.049-.105.048-.106.047-.109.047-.111.046-.114.045-.115.045-.118.044-.12.043-.122.042-.124.042-.126.041-.128.04-.13.04-.132.038-.134.038-.135.037-.138.037-.139.035-.142.035-.143.034-.144.033-.147.032-.148.031-.15.03-.151.03-.153.029-.154.027-.156.027-.158.026-.159.025-.161.024-.162.023-.163.022-.165.021-.166.02-.167.019-.169.018-.169.017-.171.016-.173.015-.173.014-.175.013-.175.012-.177.011-.178.01-.179.008-.179.008-.181.006-.182.005-.182.004-.184.003-.184.002h-.37l-.184-.002-.184-.003-.182-.004-.182-.005-.181-.006-.179-.008-.179-.008-.178-.01-.176-.011-.176-.012-.175-.013-.173-.014-.172-.015-.171-.016-.17-.017-.169-.018-.167-.019-.166-.02-.165-.021-.163-.022-.162-.023-.161-.024-.159-.025-.157-.026-.156-.027-.155-.027-.153-.029-.151-.03-.15-.03-.148-.031-.146-.032-.145-.033-.143-.034-.141-.035-.14-.035-.137-.037-.136-.037-.134-.038-.132-.038-.13-.04-.128-.04-.126-.041-.124-.042-.122-.042-.12-.044-.117-.043-.116-.045-.113-.045-.112-.046-.109-.047-.106-.047-.105-.048-.102-.049-.1-.049-.097-.05-.095-.05-.093-.052-.09-.051-.087-.052-.085-.053-.083-.054-.08-.054-.077-.054v4.127zm0-5.654v.011l.001.021.003.021.004.021.005.022.006.022.007.022.009.022.01.022.011.023.012.023.013.023.015.024.016.023.017.024.018.024.019.024.021.024.022.024.023.025.024.024.052.05.056.05.061.05.066.051.07.051.075.052.079.051.084.052.088.052.092.052.097.052.102.052.105.052.11.051.114.051.119.052.123.05.127.051.131.05.135.049.139.049.144.048.147.048.152.047.155.046.16.045.163.045.167.044.171.042.176.042.178.04.183.04.187.038.19.037.194.036.197.034.202.033.204.032.209.03.212.028.216.027.219.025.222.024.226.022.23.02.233.018.236.016.24.014.243.012.246.01.249.008.253.006.256.003.259.001.26-.001.257-.003.254-.006.25-.008.247-.01.244-.012.241-.015.237-.016.233-.018.231-.02.226-.022.224-.024.22-.025.216-.027.212-.029.21-.03.205-.032.202-.033.198-.035.194-.036.191-.037.187-.039.183-.039.179-.041.175-.042.172-.043.168-.044.163-.045.16-.045.155-.047.152-.047.148-.048.143-.048.139-.05.136-.049.131-.05.126-.051.123-.051.118-.051.114-.052.11-.052.106-.052.101-.052.096-.052.092-.052.088-.052.083-.052.079-.052.074-.051.07-.052.065-.051.06-.05.056-.051.051-.049.023-.025.023-.024.021-.025.02-.024.019-.024.018-.024.017-.024.015-.023.014-.023.013-.024.012-.022.01-.023.01-.023.008-.022.006-.022.006-.022.004-.021.004-.022.001-.021.001-.021v-4.139l-.077.054-.08.054-.083.054-.085.052-.087.053-.09.051-.093.051-.095.051-.097.05-.1.049-.102.049-.105.048-.106.047-.109.047-.111.046-.114.045-.115.044-.118.044-.12.044-.122.042-.124.042-.126.041-.128.04-.13.039-.132.039-.134.038-.135.037-.138.036-.139.036-.142.035-.143.033-.144.033-.147.033-.148.031-.15.03-.151.03-.153.028-.154.028-.156.027-.158.026-.159.025-.161.024-.162.023-.163.022-.165.021-.166.02-.167.019-.169.018-.169.017-.171.016-.173.015-.173.014-.175.013-.175.012-.177.011-.178.009-.179.009-.179.007-.181.007-.182.005-.182.004-.184.003-.184.002h-.37l-.184-.002-.184-.003-.182-.004-.182-.005-.181-.007-.179-.007-.179-.009-.178-.009-.176-.011-.176-.012-.175-.013-.173-.014-.172-.015-.171-.016-.17-.017-.169-.018-.167-.019-.166-.02-.165-.021-.163-.022-.162-.023-.161-.024-.159-.025-.157-.026-.156-.027-.155-.028-.153-.028-.151-.03-.15-.03-.148-.031-.146-.033-.145-.033-.143-.033-.141-.035-.14-.036-.137-.036-.136-.037-.134-.038-.132-.039-.13-.039-.128-.04-.126-.041-.124-.042-.122-.043-.12-.043-.117-.044-.116-.044-.113-.046-.112-.046-.109-.046-.106-.047-.105-.048-.102-.049-.1-.049-.097-.05-.095-.051-.093-.051-.09-.051-.087-.053-.085-.052-.083-.054-.08-.054-.077-.054v4.139zm0-5.666v.011l.001.02.003.022.004.021.005.022.006.021.007.022.009.023.01.022.011.023.012.023.013.023.015.023.016.024.017.024.018.023.019.024.021.025.022.024.023.024.024.025.052.05.056.05.061.05.066.051.07.051.075.052.079.051.084.052.088.052.092.052.097.052.102.052.105.051.11.052.114.051.119.051.123.051.127.05.131.05.135.05.139.049.144.048.147.048.152.047.155.046.16.045.163.045.167.043.171.043.176.042.178.04.183.04.187.038.19.037.194.036.197.034.202.033.204.032.209.03.212.028.216.027.219.025.222.024.226.021.23.02.233.018.236.017.24.014.243.012.246.01.249.008.253.006.256.003.259.001.26-.001.257-.003.254-.006.25-.008.247-.01.244-.013.241-.014.237-.016.233-.018.231-.02.226-.022.224-.024.22-.025.216-.027.212-.029.21-.03.205-.032.202-.033.198-.035.194-.036.191-.037.187-.039.183-.039.179-.041.175-.042.172-.043.168-.044.163-.045.16-.045.155-.047.152-.047.148-.048.143-.049.139-.049.136-.049.131-.051.126-.05.123-.051.118-.052.114-.051.11-.052.106-.052.101-.052.096-.052.092-.052.088-.052.083-.052.079-.052.074-.052.07-.051.065-.051.06-.051.056-.05.051-.049.023-.025.023-.025.021-.024.02-.024.019-.024.018-.024.017-.024.015-.023.014-.024.013-.023.012-.023.01-.022.01-.023.008-.022.006-.022.006-.022.004-.022.004-.021.001-.021.001-.021v-4.153l-.077.054-.08.054-.083.053-.085.053-.087.053-.09.051-.093.051-.095.051-.097.05-.1.049-.102.048-.105.048-.106.048-.109.046-.111.046-.114.046-.115.044-.118.044-.12.043-.122.043-.124.042-.126.041-.128.04-.13.039-.132.039-.134.038-.135.037-.138.036-.139.036-.142.034-.143.034-.144.033-.147.032-.148.032-.15.03-.151.03-.153.028-.154.028-.156.027-.158.026-.159.024-.161.024-.162.023-.163.023-.165.021-.166.02-.167.019-.169.018-.169.017-.171.016-.173.015-.173.014-.175.013-.175.012-.177.01-.178.01-.179.009-.179.007-.181.006-.182.006-.182.004-.184.003-.184.001-.185.001-.185-.001-.184-.001-.184-.003-.182-.004-.182-.006-.181-.006-.179-.007-.179-.009-.178-.01-.176-.01-.176-.012-.175-.013-.173-.014-.172-.015-.171-.016-.17-.017-.169-.018-.167-.019-.166-.02-.165-.021-.163-.023-.162-.023-.161-.024-.159-.024-.157-.026-.156-.027-.155-.028-.153-.028-.151-.03-.15-.03-.148-.032-.146-.032-.145-.033-.143-.034-.141-.034-.14-.036-.137-.036-.136-.037-.134-.038-.132-.039-.13-.039-.128-.041-.126-.041-.124-.041-.122-.043-.12-.043-.117-.044-.116-.044-.113-.046-.112-.046-.109-.046-.106-.048-.105-.048-.102-.048-.1-.05-.097-.049-.095-.051-.093-.051-.09-.052-.087-.052-.085-.053-.083-.053-.08-.054-.077-.054v4.153zm8.74-8.179l-.257.004-.254.005-.25.008-.247.011-.244.012-.241.014-.237.016-.233.018-.231.021-.226.022-.224.023-.22.026-.216.027-.212.028-.21.031-.205.032-.202.033-.198.034-.194.036-.191.038-.187.038-.183.04-.179.041-.175.042-.172.043-.168.043-.163.045-.16.046-.155.046-.152.048-.148.048-.143.048-.139.049-.136.05-.131.05-.126.051-.123.051-.118.051-.114.052-.11.052-.106.052-.101.052-.096.052-.092.052-.088.052-.083.052-.079.052-.074.051-.07.052-.065.051-.06.05-.056.05-.051.05-.023.025-.023.024-.021.024-.02.025-.019.024-.018.024-.017.023-.015.024-.014.023-.013.023-.012.023-.01.023-.01.022-.008.022-.006.023-.006.021-.004.022-.004.021-.001.021-.001.021.001.021.001.021.004.021.004.022.006.021.006.023.008.022.01.022.01.023.012.023.013.023.014.023.015.024.017.023.018.024.019.024.02.025.021.024.023.024.023.025.051.05.056.05.06.05.065.051.07.052.074.051.079.052.083.052.088.052.092.052.096.052.101.052.106.052.11.052.114.052.118.051.123.051.126.051.131.05.136.05.139.049.143.048.148.048.152.048.155.046.16.046.163.045.168.043.172.043.175.042.179.041.183.04.187.038.191.038.194.036.198.034.202.033.205.032.21.031.212.028.216.027.22.026.224.023.226.022.231.021.233.018.237.016.241.014.244.012.247.011.25.008.254.005.257.004.26.001.26-.001.257-.004.254-.005.25-.008.247-.011.244-.012.241-.014.237-.016.233-.018.231-.021.226-.022.224-.023.22-.026.216-.027.212-.028.21-.031.205-.032.202-.033.198-.034.194-.036.191-.038.187-.038.183-.04.179-.041.175-.042.172-.043.168-.043.163-.045.16-.046.155-.046.152-.048.148-.048.143-.048.139-.049.136-.05.131-.05.126-.051.123-.051.118-.051.114-.052.11-.052.106-.052.101-.052.096-.052.092-.052.088-.052.083-.052.079-.052.074-.051.07-.052.065-.051.06-.05.056-.05.051-.05.023-.025.023-.024.021-.024.02-.025.019-.024.018-.024.017-.023.015-.024.014-.023.013-.023.012-.023.01-.023.01-.022.008-.022.006-.023.006-.021.004-.022.004-.021.001-.021.001-.021-.001-.021-.001-.021-.004-.021-.004-.022-.006-.021-.006-.023-.008-.022-.01-.022-.01-.023-.012-.023-.013-.023-.014-.023-.015-.024-.017-.023-.018-.024-.019-.024-.02-.025-.021-.024-.023-.024-.023-.025-.051-.05-.056-.05-.06-.05-.065-.051-.07-.052-.074-.051-.079-.052-.083-.052-.088-.052-.092-.052-.096-.052-.101-.052-.106-.052-.11-.052-.114-.052-.118-.051-.123-.051-.126-.051-.131-.05-.136-.05-.139-.049-.143-.048-.148-.048-.152-.048-.155-.046-.16-.046-.163-.045-.168-.043-.172-.043-.175-.042-.179-.041-.183-.04-.187-.038-.191-.038-.194-.036-.198-.034-.202-.033-.205-.032-.21-.031-.212-.028-.216-.027-.22-.026-.224-.023-.226-.022-.231-.021-.233-.018-.237-.016-.241-.014-.244-.012-.247-.011-.25-.008-.254-.005-.257-.004-.26-.001-.26.001z" transform="scale(.5)"></path></symbol></defs><defs><symbol height="24" width="24" id="clock"><path d="M12 2c5.514 0 10 4.486 10 10s-4.486 10-10 10-10-4.486-10-10 4.486-10 10-10zm0-2c-6.627 0-12 5.373-12 12s5.373 12 12 12 12-5.373 12-12-5.373-12-12-12zm5.848 12.459c.202.038.202.333.001.372-1.907.361-6.045 1.111-6.547 1.111-.719 0-1.301-.582-1.301-1.301 0-.512.77-5.447 1.125-7.445.034-.192.312-.181.343.014l.985 6.238 5.394 1.011z" transform="scale(.5)"></path></symbol></defs><defs><marker orient="auto-start-reverse" markerHeight="12" markerWidth="12" markerUnits="userSpaceOnUse" refY="5" refX="7.9" id="arrowhead"><path d="M -1 0 L 10 5 L 0 10 z"></path></marker></defs><defs><marker refY="4.5" refX="4" orient="auto" markerHeight="8" markerWidth="15" id="crosshead"><path style="stroke-dasharray: 0, 0;" d="M 1,2 L 6,7 M 6,2 L 1,7" stroke-width="1pt" stroke="#000000" fill="none"></path></marker></defs><defs><marker orient="auto" markerHeight="28" markerWidth="20" refY="7" refX="15.5" id="filled-head"><path d="M 18,7 L9,13 L14,7 L9,1 Z"></path></marker></defs><defs><marker orient="auto" markerHeight="40" markerWidth="60" refY="15" refX="15" id="sequencenumber"><circle r="6" cy="15" cx="15"></circle></marker></defs><g><rect class="note" height="40" width="698" stroke="#666" fill="#EDF2AE" y="75" x="50"></rect><text style="font-family: inherit; font-size: 16px; font-weight: 400;" dy="1em" class="noteText" alignment-baseline="middle" dominant-baseline="middle" text-anchor="middle" y="80" x="399"><tspan x="399">Step 1: Email Verification - Send Code</tspan></text></g><g><rect class="note" height="40" width="221" stroke="#666" fill="#EDF2AE" y="265" x="-35.5"></rect><text style="font-family: inherit; font-size: 16px; font-weight: 400;" dy="1em" class="noteText" alignment-baseline="middle" dominant-baseline="middle" text-anchor="middle" y="270" x="75"><tspan x="75">Store contactVerificationId</tspan></text></g><g><rect class="note" height="40" width="698" stroke="#666" fill="#EDF2AE" y="315" x="50"></rect><text style="font-family: inherit; font-size: 16px; font-weight: 400;" dy="1em" class="noteText" alignment-baseline="middle" dominant-baseline="middle" text-anchor="middle" y="320" x="399"><tspan x="399">Step 2: Email Verification - Verify</tspan></text></g><g><rect class="note" height="40" width="336" stroke="#666" fill="#EDF2AE" y="505" x="-93"></rect><text style="font-family: inherit; font-size: 16px; font-weight: 400;" dy="1em" class="noteText" alignment-baseline="middle" dominant-baseline="middle" text-anchor="middle" y="510" x="75"><tspan x="75">Store onboardingId for all remaining steps</tspan></text></g><g><rect class="note" height="40" width="698" stroke="#666" fill="#EDF2AE" y="555" x="50"></rect><text style="font-family: inherit; font-size: 16px; font-weight: 400;" dy="1em" class="noteText" alignment-baseline="middle" dominant-baseline="middle" text-anchor="middle" y="560" x="399"><tspan x="399">Step 3: Phone Verification - Send Code</tspan></text></g><g><rect class="note" height="40" width="698" stroke="#666" fill="#EDF2AE" y="725" x="50"></rect><text style="font-family: inherit; font-size: 16px; font-weight: 400;" dy="1em" class="noteText" alignment-baseline="middle" dominant-baseline="middle" text-anchor="middle" y="730" x="399"><tspan x="399">Step 4: Phone Verification - Verify</tspan></text></g><g><rect class="note" height="40" width="698" stroke="#666" fill="#EDF2AE" y="895" x="50"></rect><text style="font-family: inherit; font-size: 16px; font-weight: 400;" dy="1em" class="noteText" alignment-baseline="middle" dominant-baseline="middle" text-anchor="middle" y="900" x="399"><tspan x="399">Step 5: KYC Verification (Veriff)</tspan></text></g><g><rect class="note" height="40" width="269" stroke="#666" fill="#EDF2AE" y="1085" x="-59.5"></rect><text style="font-family: inherit; font-size: 16px; font-weight: 400;" dy="1em" class="noteText" alignment-baseline="middle" dominant-baseline="middle" text-anchor="middle" y="1090" x="75"><tspan x="75">Redirect user to Veriff sessionUrl</tspan></text></g><g><rect class="note" height="40" width="248" stroke="#666" fill="#EDF2AE" y="1135" x="-49"></rect><text style="font-family: inherit; font-size: 16px; font-weight: 400;" dy="1em" class="noteText" alignment-baseline="middle" dominant-baseline="middle" text-anchor="middle" y="1140" x="75"><tspan x="75">User completes ID verification</tspan></text></g><g><rect class="note" height="40" width="187" stroke="#666" fill="#EDF2AE" y="1185" x="-18.5"></rect><text style="font-family: inherit; font-size: 16px; font-weight: 400;" dy="1em" class="noteText" alignment-baseline="middle" dominant-baseline="middle" text-anchor="middle" y="1190" x="75"><tspan x="75">Poll verification status</tspan></text></g><g><rect class="note" height="40" width="698" stroke="#666" fill="#EDF2AE" y="1235" x="50"></rect><text style="font-family: inherit; font-size: 16px; font-weight: 400;" dy="1em" class="noteText" alignment-baseline="middle" dominant-baseline="middle" text-anchor="middle" y="1240" x="399"><tspan x="399">Step 6: Personal Details</tspan></text></g><g><line class="loopLine" y2="1285" x2="734" y1="1285" x1="64"></line><line class="loopLine" y2="1615" x2="734" y1="1285" x1="734"></line><line class="loopLine" y2="1615" x2="734" y1="1615" x1="64"></line><line class="loopLine" y2="1615" x2="64" y1="1285" x1="64"></line><line style="stroke-dasharray: 3, 3;" class="loopLine" y2="1455" x2="734" y1="1455" x1="64"></line><polygon class="labelBox" points="64,1285 114,1285 114,1298 105.6,1305 64,1305"></polygon><text style="font-family: inherit; font-size: 16px; font-weight: 400;" class="labelText" alignment-baseline="middle" dominant-baseline="middle" text-anchor="middle" y="1298" x="89">alt</text><text style="font-family: inherit; font-size: 16px; font-weight: 400;" class="loopText" text-anchor="middle" y="1303" x="424"><tspan x="424">[US User]</tspan></text><text style="font-family: inherit; font-size: 16px; font-weight: 400;" class="loopText" text-anchor="middle" y="1473" x="399">[Non-US User]</text></g><g><rect class="note" height="59" width="698" stroke="#666" fill="#EDF2AE" y="1625" x="50"></rect><text style="font-family: inherit; font-size: 16px; font-weight: 400;" dy="1em" class="noteText" alignment-baseline="middle" dominant-baseline="middle" text-anchor="middle" y="1630" x="399"><tspan x="399">Step 7: Create Formal Consent Record</tspan></text><text style="font-family: inherit; font-size: 16px; font-weight: 400;" dy="1em" class="noteText" alignment-baseline="middle" dominant-baseline="middle" text-anchor="middle" y="1650" x="399"><tspan x="399">(Required BEFORE address submission)</tspan></text></g><g><rect class="note" height="40" width="250" stroke="#666" fill="#EDF2AE" y="1834" x="-50"></rect><text style="font-family: inherit; font-size: 16px; font-weight: 400;" dy="1em" class="noteText" alignment-baseline="middle" dominant-baseline="middle" text-anchor="middle" y="1839" x="75"><tspan x="75">Store consentSetId for Step 10</tspan></text></g><g><rect class="note" height="40" width="698" stroke="#666" fill="#EDF2AE" y="1884" x="50"></rect><text style="font-family: inherit; font-size: 16px; font-weight: 400;" dy="1em" class="noteText" alignment-baseline="middle" dominant-baseline="middle" text-anchor="middle" y="1889" x="399"><tspan x="399">Step 8: Physical Address (Finalizes Registration)</tspan></text></g><g><rect class="note" height="40" width="186" stroke="#666" fill="#EDF2AE" y="2164" x="-18"></rect><text style="font-family: inherit; font-size: 16px; font-weight: 400;" dy="1em" class="noteText" alignment-baseline="middle" dominant-baseline="middle" text-anchor="middle" y="2169" x="75"><tspan x="75">Registration Finalized!</tspan></text></g><g><rect class="note" height="40" width="156" stroke="#666" fill="#EDF2AE" y="2329" x="-3"></rect><text style="font-family: inherit; font-size: 16px; font-weight: 400;" dy="1em" class="noteText" alignment-baseline="middle" dominant-baseline="middle" text-anchor="middle" y="2334" x="75"><tspan x="75">Proceed to Step 9</tspan></text></g><g><line class="loopLine" y2="2049" x2="734" y1="2049" x1="-28"></line><line class="loopLine" y2="2379" x2="734" y1="2049" x1="734"></line><line class="loopLine" y2="2379" x2="734" y1="2379" x1="-28"></line><line class="loopLine" y2="2379" x2="-28" y1="2049" x1="-28"></line><line style="stroke-dasharray: 3, 3;" class="loopLine" y2="2219" x2="734" y1="2219" x1="-28"></line><polygon class="labelBox" points="-28,2049 22,2049 22,2062 13.6,2069 -28,2069"></polygon><text style="font-family: inherit; font-size: 16px; font-weight: 400;" class="labelText" alignment-baseline="middle" dominant-baseline="middle" text-anchor="middle" y="2062" x="-3">alt</text><text style="font-family: inherit; font-size: 16px; font-weight: 400;" class="loopText" text-anchor="middle" y="2067" x="378"><tspan x="378">[isSameMailingAddress = true]</tspan></text><text style="font-family: inherit; font-size: 16px; font-weight: 400;" class="loopText" text-anchor="middle" y="2237" x="353">[isSameMailingAddress = false]</text></g><g><rect class="note" height="40" width="186" stroke="#666" fill="#EDF2AE" y="2574" x="-18"></rect><text style="font-family: inherit; font-size: 16px; font-weight: 400;" dy="1em" class="noteText" alignment-baseline="middle" dominant-baseline="middle" text-anchor="middle" y="2579" x="75"><tspan x="75">Registration Finalized!</tspan></text></g><g><line class="loopLine" y2="1934" x2="744" y1="1934" x1="-38"></line><line class="loopLine" y2="2624" x2="744" y1="1934" x1="744"></line><line class="loopLine" y2="2624" x2="744" y1="2624" x1="-38"></line><line class="loopLine" y2="2624" x2="-38" y1="1934" x1="-38"></line><line style="stroke-dasharray: 3, 3;" class="loopLine" y2="2394" x2="744" y1="2394" x1="-38"></line><polygon class="labelBox" points="-38,1934 12,1934 12,1947 3.5999999999999996,1954 -38,1954"></polygon><text style="font-family: inherit; font-size: 16px; font-weight: 400;" class="labelText" alignment-baseline="middle" dominant-baseline="middle" text-anchor="middle" y="1947" x="-13">alt</text><text style="font-family: inherit; font-size: 16px; font-weight: 400;" class="loopText" text-anchor="middle" y="1952" x="378"><tspan x="378">[US User]</tspan></text><text style="font-family: inherit; font-size: 16px; font-weight: 400;" class="loopText" text-anchor="middle" y="2412" x="353">[Non-US User]</text></g><g><rect class="note" height="40" width="698" stroke="#666" fill="#EDF2AE" y="2634" x="50"></rect><text style="font-family: inherit; font-size: 16px; font-weight: 400;" dy="1em" class="noteText" alignment-baseline="middle" dominant-baseline="middle" text-anchor="middle" y="2639" x="399"><tspan x="399">Step 9: Mailing Address (US only, if needed)</tspan></text></g><g><rect class="note" height="40" width="186" stroke="#666" fill="#EDF2AE" y="2824" x="-18"></rect><text style="font-family: inherit; font-size: 16px; font-weight: 400;" dy="1em" class="noteText" alignment-baseline="middle" dominant-baseline="middle" text-anchor="middle" y="2829" x="75"><tspan x="75">Registration Finalized!</tspan></text></g><g><rect class="note" height="59" width="698" stroke="#666" fill="#EDF2AE" y="2874" x="50"></rect><text style="font-family: inherit; font-size: 16px; font-weight: 400;" dy="1em" class="noteText" alignment-baseline="middle" dominant-baseline="middle" text-anchor="middle" y="2879" x="399"><tspan x="399">Step 10: Link Consent to User</tspan></text><text style="font-family: inherit; font-size: 16px; font-weight: 400;" dy="1em" class="noteText" alignment-baseline="middle" dominant-baseline="middle" text-anchor="middle" y="2899" x="399"><tspan x="399">(Complete audit trail)</tspan></text></g><g><rect class="note" height="79" width="249" stroke="#666" fill="#EDF2AE" y="3083" x="-49.5"></rect><text style="font-family: inherit; font-size: 16px; font-weight: 400;" dy="1em" class="noteText" alignment-baseline="middle" dominant-baseline="middle" text-anchor="middle" y="3088" x="75"><tspan x="75">Full Registration Complete!</tspan></text><text style="font-family: inherit; font-size: 16px; font-weight: 400;" dy="1em" class="noteText" alignment-baseline="middle" dominant-baseline="middle" text-anchor="middle" y="3108" x="75"><tspan x="75">Access token valid for 6 hours</tspan></text><text style="font-family: inherit; font-size: 16px; font-weight: 400;" dy="1em" class="noteText" alignment-baseline="middle" dominant-baseline="middle" text-anchor="middle" y="3127" x="75"><tspan x="75">Consent audit trail established</tspan></text></g><text style="font-family: inherit; font-size: 16px; font-weight: 400;" dy="1em" class="messageText" alignment-baseline="middle" dominant-baseline="middle" text-anchor="middle" y="130" x="398">POST /v1/auth/register/email/send</text><text style="font-family: inherit; font-size: 16px; font-weight: 400;" dy="1em" class="messageText" alignment-baseline="middle" dominant-baseline="middle" text-anchor="middle" y="150" x="398">{email}</text><line style="fill: none;" marker-end="url(#arrowhead)" stroke="none" stroke-width="2" class="messageLine0" y2="185" x2="719" y1="185" x1="76"></line><text style="font-family: inherit; font-size: 16px; font-weight: 400;" dy="1em" class="messageText" alignment-baseline="middle" dominant-baseline="middle" text-anchor="middle" y="200" x="401">200 OK</text><text style="font-family: inherit; font-size: 16px; font-weight: 400;" dy="1em" class="messageText" alignment-baseline="middle" dominant-baseline="middle" text-anchor="middle" y="220" x="401">{contactVerificationId}</text><line style="stroke-dasharray: 3, 3; fill: none;" marker-end="url(#arrowhead)" stroke="none" stroke-width="2" class="messageLine1" y2="255" x2="79" y1="255" x1="722"></line><text style="font-family: inherit; font-size: 16px; font-weight: 400;" dy="1em" class="messageText" alignment-baseline="middle" dominant-baseline="middle" text-anchor="middle" y="370" x="398">POST /v1/auth/register/email/verify</text><text style="font-family: inherit; font-size: 16px; font-weight: 400;" dy="1em" class="messageText" alignment-baseline="middle" dominant-baseline="middle" text-anchor="middle" y="390" x="398">{email, password, code, contactVerificationId}</text><line style="fill: none;" marker-end="url(#arrowhead)" stroke="none" stroke-width="2" class="messageLine0" y2="425" x2="719" y1="425" x1="76"></line><text style="font-family: inherit; font-size: 16px; font-weight: 400;" dy="1em" class="messageText" alignment-baseline="middle" dominant-baseline="middle" text-anchor="middle" y="440" x="401">200 OK</text><text style="font-family: inherit; font-size: 16px; font-weight: 400;" dy="1em" class="messageText" alignment-baseline="middle" dominant-baseline="middle" text-anchor="middle" y="460" x="401">{onboardingId, user}</text><line style="stroke-dasharray: 3, 3; fill: none;" marker-end="url(#arrowhead)" stroke="none" stroke-width="2" class="messageLine1" y2="495" x2="79" y1="495" x1="722"></line><text style="font-family: inherit; font-size: 16px; font-weight: 400;" dy="1em" class="messageText" alignment-baseline="middle" dominant-baseline="middle" text-anchor="middle" y="610" x="398">POST /v1/auth/register/phone/send</text><text style="font-family: inherit; font-size: 16px; font-weight: 400;" dy="1em" class="messageText" alignment-baseline="middle" dominant-baseline="middle" text-anchor="middle" y="630" x="398">{phoneCountryCode, phoneNumber, contactVerificationId}</text><line style="fill: none;" marker-end="url(#arrowhead)" stroke="none" stroke-width="2" class="messageLine0" y2="665" x2="719" y1="665" x1="76"></line><text style="font-family: inherit; font-size: 16px; font-weight: 400;" dy="1em" class="messageText" alignment-baseline="middle" dominant-baseline="middle" text-anchor="middle" y="680" x="401">200 OK (SMS sent)</text><line style="stroke-dasharray: 3, 3; fill: none;" marker-end="url(#arrowhead)" stroke="none" stroke-width="2" class="messageLine1" y2="715" x2="79" y1="715" x1="722"></line><text style="font-family: inherit; font-size: 16px; font-weight: 400;" dy="1em" class="messageText" alignment-baseline="middle" dominant-baseline="middle" text-anchor="middle" y="780" x="398">POST /v1/auth/register/phone/verify</text><text style="font-family: inherit; font-size: 16px; font-weight: 400;" dy="1em" class="messageText" alignment-baseline="middle" dominant-baseline="middle" text-anchor="middle" y="800" x="398">{phoneCountryCode, phoneNumber, code, onboardingId}</text><line style="fill: none;" marker-end="url(#arrowhead)" stroke="none" stroke-width="2" class="messageLine0" y2="835" x2="719" y1="835" x1="76"></line><text style="font-family: inherit; font-size: 16px; font-weight: 400;" dy="1em" class="messageText" alignment-baseline="middle" dominant-baseline="middle" text-anchor="middle" y="850" x="401">200 OK</text><line style="stroke-dasharray: 3, 3; fill: none;" marker-end="url(#arrowhead)" stroke="none" stroke-width="2" class="messageLine1" y2="885" x2="79" y1="885" x1="722"></line><text style="font-family: inherit; font-size: 16px; font-weight: 400;" dy="1em" class="messageText" alignment-baseline="middle" dominant-baseline="middle" text-anchor="middle" y="950" x="398">POST /v1/auth/register/verification</text><text style="font-family: inherit; font-size: 16px; font-weight: 400;" dy="1em" class="messageText" alignment-baseline="middle" dominant-baseline="middle" text-anchor="middle" y="970" x="398">{onboardingId}</text><line style="fill: none;" marker-end="url(#arrowhead)" stroke="none" stroke-width="2" class="messageLine0" y2="1005" x2="719" y1="1005" x1="76"></line><text style="font-family: inherit; font-size: 16px; font-weight: 400;" dy="1em" class="messageText" alignment-baseline="middle" dominant-baseline="middle" text-anchor="middle" y="1020" x="401">200 OK</text><text style="font-family: inherit; font-size: 16px; font-weight: 400;" dy="1em" class="messageText" alignment-baseline="middle" dominant-baseline="middle" text-anchor="middle" y="1040" x="401">{sessionUrl}</text><line style="stroke-dasharray: 3, 3; fill: none;" marker-end="url(#arrowhead)" stroke="none" stroke-width="2" class="messageLine1" y2="1075" x2="79" y1="1075" x1="722"></line><text style="font-family: inherit; font-size: 16px; font-weight: 400;" dy="1em" class="messageText" alignment-baseline="middle" dominant-baseline="middle" text-anchor="middle" y="1335" x="398">POST /v1/auth/register/personal-details</text><text style="font-family: inherit; font-size: 16px; font-weight: 400;" dy="1em" class="messageText" alignment-baseline="middle" dominant-baseline="middle" text-anchor="middle" y="1355" x="398">{onboardingId, firstName, lastName, DOB, nationality, SSN}</text><line style="fill: none;" marker-end="url(#arrowhead)" stroke="none" stroke-width="2" class="messageLine0" y2="1390" x2="719" y1="1390" x1="76"></line><text style="font-family: inherit; font-size: 16px; font-weight: 400;" dy="1em" class="messageText" alignment-baseline="middle" dominant-baseline="middle" text-anchor="middle" y="1405" x="401">200 OK</text><line style="stroke-dasharray: 3, 3; fill: none;" marker-end="url(#arrowhead)" stroke="none" stroke-width="2" class="messageLine1" y2="1440" x2="79" y1="1440" x1="722"></line><text style="font-family: inherit; font-size: 16px; font-weight: 400;" dy="1em" class="messageText" alignment-baseline="middle" dominant-baseline="middle" text-anchor="middle" y="1500" x="398">POST /v1/auth/register/personal-details</text><text style="font-family: inherit; font-size: 16px; font-weight: 400;" dy="1em" class="messageText" alignment-baseline="middle" dominant-baseline="middle" text-anchor="middle" y="1520" x="398">{onboardingId, firstName, lastName, DOB, nationality}</text><line style="fill: none;" marker-end="url(#arrowhead)" stroke="none" stroke-width="2" class="messageLine0" y2="1555" x2="719" y1="1555" x1="76"></line><text style="font-family: inherit; font-size: 16px; font-weight: 400;" dy="1em" class="messageText" alignment-baseline="middle" dominant-baseline="middle" text-anchor="middle" y="1570" x="401">200 OK</text><line style="stroke-dasharray: 3, 3; fill: none;" marker-end="url(#arrowhead)" stroke="none" stroke-width="2" class="messageLine1" y2="1605" x2="79" y1="1605" x1="722"></line><text style="font-family: inherit; font-size: 16px; font-weight: 400;" dy="1em" class="messageText" alignment-baseline="middle" dominant-baseline="middle" text-anchor="middle" y="1699" x="398">POST /v2/consent/onboarding</text><text style="font-family: inherit; font-size: 16px; font-weight: 400;" dy="1em" class="messageText" alignment-baseline="middle" dominant-baseline="middle" text-anchor="middle" y="1719" x="398">{onboardingId, policy, consents, metadata}</text><line style="fill: none;" marker-end="url(#arrowhead)" stroke="none" stroke-width="2" class="messageLine0" y2="1754" x2="719" y1="1754" x1="76"></line><text style="font-family: inherit; font-size: 16px; font-weight: 400;" dy="1em" class="messageText" alignment-baseline="middle" dominant-baseline="middle" text-anchor="middle" y="1769" x="401">200 OK</text><text style="font-family: inherit; font-size: 16px; font-weight: 400;" dy="1em" class="messageText" alignment-baseline="middle" dominant-baseline="middle" text-anchor="middle" y="1789" x="401">{consentSetId}</text><line style="stroke-dasharray: 3, 3; fill: none;" marker-end="url(#arrowhead)" stroke="none" stroke-width="2" class="messageLine1" y2="1824" x2="79" y1="1824" x1="722"></line><text style="font-family: inherit; font-size: 16px; font-weight: 400;" dy="1em" class="messageText" alignment-baseline="middle" dominant-baseline="middle" text-anchor="middle" y="1984" x="398">POST /v1/auth/register/address</text><text style="font-family: inherit; font-size: 16px; font-weight: 400;" dy="1em" class="messageText" alignment-baseline="middle" dominant-baseline="middle" text-anchor="middle" y="2004" x="398">{onboardingId, addressLine1, city, zip, usState, isSameMailingAddress}</text><line style="fill: none;" marker-end="url(#arrowhead)" stroke="none" stroke-width="2" class="messageLine0" y2="2039" x2="719" y1="2039" x1="76"></line><text style="font-family: inherit; font-size: 16px; font-weight: 400;" dy="1em" class="messageText" alignment-baseline="middle" dominant-baseline="middle" text-anchor="middle" y="2099" x="401">200 OK</text><text style="font-family: inherit; font-size: 16px; font-weight: 400;" dy="1em" class="messageText" alignment-baseline="middle" dominant-baseline="middle" text-anchor="middle" y="2119" x="401">{accessToken, userId, user}</text><line style="stroke-dasharray: 3, 3; fill: none;" marker-end="url(#arrowhead)" stroke="none" stroke-width="2" class="messageLine1" y2="2154" x2="79" y1="2154" x1="722"></line><text style="font-family: inherit; font-size: 16px; font-weight: 400;" dy="1em" class="messageText" alignment-baseline="middle" dominant-baseline="middle" text-anchor="middle" y="2264" x="401">200 OK</text><text style="font-family: inherit; font-size: 16px; font-weight: 400;" dy="1em" class="messageText" alignment-baseline="middle" dominant-baseline="middle" text-anchor="middle" y="2284" x="401">{accessToken: null, user}</text><line style="stroke-dasharray: 3, 3; fill: none;" marker-end="url(#arrowhead)" stroke="none" stroke-width="2" class="messageLine1" y2="2319" x2="79" y1="2319" x1="722"></line><text style="font-family: inherit; font-size: 16px; font-weight: 400;" dy="1em" class="messageText" alignment-baseline="middle" dominant-baseline="middle" text-anchor="middle" y="2439" x="398">POST /v1/auth/register/address</text><text style="font-family: inherit; font-size: 16px; font-weight: 400;" dy="1em" class="messageText" alignment-baseline="middle" dominant-baseline="middle" text-anchor="middle" y="2459" x="398">{onboardingId, addressLine1, city, zip, isSameMailingAddress: true}</text><line style="fill: none;" marker-end="url(#arrowhead)" stroke="none" stroke-width="2" class="messageLine0" y2="2494" x2="719" y1="2494" x1="76"></line><text style="font-family: inherit; font-size: 16px; font-weight: 400;" dy="1em" class="messageText" alignment-baseline="middle" dominant-baseline="middle" text-anchor="middle" y="2509" x="401">200 OK</text><text style="font-family: inherit; font-size: 16px; font-weight: 400;" dy="1em" class="messageText" alignment-baseline="middle" dominant-baseline="middle" text-anchor="middle" y="2529" x="401">{accessToken, userId, user}</text><line style="stroke-dasharray: 3, 3; fill: none;" marker-end="url(#arrowhead)" stroke="none" stroke-width="2" class="messageLine1" y2="2564" x2="79" y1="2564" x1="722"></line><text style="font-family: inherit; font-size: 16px; font-weight: 400;" dy="1em" class="messageText" alignment-baseline="middle" dominant-baseline="middle" text-anchor="middle" y="2689" x="398">POST /v1/auth/register/mailing-address</text><text style="font-family: inherit; font-size: 16px; font-weight: 400;" dy="1em" class="messageText" alignment-baseline="middle" dominant-baseline="middle" text-anchor="middle" y="2709" x="398">{onboardingId, mailingAddressLine1, mailingCity, mailingZip, mailingUsState}</text><line style="fill: none;" marker-end="url(#arrowhead)" stroke="none" stroke-width="2" class="messageLine0" y2="2744" x2="719" y1="2744" x1="76"></line><text style="font-family: inherit; font-size: 16px; font-weight: 400;" dy="1em" class="messageText" alignment-baseline="middle" dominant-baseline="middle" text-anchor="middle" y="2759" x="401">200 OK</text><text style="font-family: inherit; font-size: 16px; font-weight: 400;" dy="1em" class="messageText" alignment-baseline="middle" dominant-baseline="middle" text-anchor="middle" y="2779" x="401">{accessToken, userId, user}</text><line style="stroke-dasharray: 3, 3; fill: none;" marker-end="url(#arrowhead)" stroke="none" stroke-width="2" class="messageLine1" y2="2814" x2="79" y1="2814" x1="722"></line><text style="font-family: inherit; font-size: 16px; font-weight: 400;" dy="1em" class="messageText" alignment-baseline="middle" dominant-baseline="middle" text-anchor="middle" y="2948" x="398">PATCH /v2/consent/onboarding/{consentSetId}</text><text style="font-family: inherit; font-size: 16px; font-weight: 400;" dy="1em" class="messageText" alignment-baseline="middle" dominant-baseline="middle" text-anchor="middle" y="2968" x="398">{userId}</text><line style="fill: none;" marker-end="url(#arrowhead)" stroke="none" stroke-width="2" class="messageLine0" y2="3003" x2="719" y1="3003" x1="76"></line><text style="font-family: inherit; font-size: 16px; font-weight: 400;" dy="1em" class="messageText" alignment-baseline="middle" dominant-baseline="middle" text-anchor="middle" y="3018" x="401">200 OK</text><text style="font-family: inherit; font-size: 16px; font-weight: 400;" dy="1em" class="messageText" alignment-baseline="middle" dominant-baseline="middle" text-anchor="middle" y="3038" x="401">{linked consent set}</text><line style="stroke-dasharray: 3, 3; fill: none;" marker-end="url(#arrowhead)" stroke="none" stroke-width="2" class="messageLine1" y2="3073" x2="79" y1="3073" x1="722"></line></svg>