<svg width="25" height="24" viewBox="0 0 25 24" fill="none" xmlns="http://www.w3.org/2000/svg">
<path d="M12.2808 15.7V15.81C12.2808 16.09 12.0608 16.31 11.7808 16.31H2.78076C2.50076 16.31 2.28076 16.09 2.28076 15.81V15.7C2.28076 13.94 2.72076 13.5 4.50076 13.5H10.0608C11.8408 13.5 12.2808 13.94 12.2808 15.7Z" fill="currentColor"/>
<path d="M2.78076 17.3101C2.50076 17.3101 2.28076 17.5301 2.28076 17.8101V18.8101V19.8001C2.28076 21.5601 2.72076 22.0001 4.50076 22.0001H10.0608C11.8408 22.0001 12.2808 21.5601 12.2808 19.8001V18.8101V17.8101C12.2808 17.5301 12.0608 17.3101 11.7808 17.3101H2.78076V17.3101Z" fill="currentColor"/>
<path d="M22.2808 15C22.2808 18.87 19.1508 22 15.2808 22L16.3308 20.25" stroke="currentColor" stroke-width="1.5" stroke-linecap="round" stroke-linejoin="round"/>
<path d="M2.28076 9C2.28076 5.13 5.41076 2 9.28076 2L8.23076 3.75" stroke="currentColor" stroke-width="1.5" stroke-linecap="round" stroke-linejoin="round"/>
<path d="M12.8808 6.06675L16.0608 4.65341C16.2008 4.59341 16.3608 4.59341 16.4942 4.65341L19.6742 6.06675C19.9542 6.19341 20.2141 5.85341 20.0208 5.61341L16.6875 1.54008C16.4608 1.26008 16.0875 1.26008 15.8608 1.54008L12.5275 5.61341C12.3408 5.85341 12.6008 6.19341 12.8808 6.06675Z" fill="currentColor"/>
<path d="M12.8808 9.93333L16.0674 11.3467C16.2074 11.4067 16.3674 11.4067 16.5008 11.3467L19.6874 9.93333C19.9674 9.80667 20.2274 10.1467 20.0341 10.3867L16.7008 14.46C16.4741 14.74 16.1008 14.74 15.8741 14.46L12.5408 10.3867C12.3408 10.1467 12.5941 9.80667 12.8808 9.93333Z" fill="currentColor"/>
<path d="M16.1341 6.32667L13.3808 7.7C13.1341 7.82 13.1341 8.17333 13.3808 8.29333L16.1341 9.66667C16.2274 9.71333 16.3407 9.71333 16.4341 9.66667L19.1874 8.29333C19.4341 8.17333 19.4341 7.82 19.1874 7.7L16.4341 6.32667C16.3341 6.28 16.2274 6.28 16.1341 6.32667Z" fill="currentColor"/>
</svg>
