<svg width="24" height="24" viewBox="0 0 24 24" fill="none" xmlns="http://www.w3.org/2000/svg">
<path fill-rule="evenodd" clip-rule="evenodd" d="M12.2808 22C17.8036 22 22.2808 17.5228 22.2808 12C22.2808 6.47717 17.8036 2 12.2808 2C6.75792 2 2.28076 6.47717 2.28076 12C2.28076 17.5228 6.75792 22 12.2808 22ZM16.265 5.07483C17.0982 4.86487 17.9595 5.10291 18.5687 5.71191C19.1779 6.31409 19.416 7.17517 19.2059 8.0083L17.4904 14.8763C17.2033 16.0315 16.307 16.9207 15.1586 17.2078L8.28954 18.923C8.09348 18.979 7.89041 19 7.69435 19C7.06416 19 6.45497 18.7479 5.99283 18.2928C5.38364 17.6838 5.14557 16.8226 5.35564 15.9895L7.07117 9.12146C7.35825 7.97327 8.24753 7.07715 9.40288 6.79016L16.265 5.07483ZM9.56393 11.9989C9.56393 13.4972 10.7823 14.7153 12.2808 14.7153C13.7792 14.7153 14.9976 13.4972 14.9976 11.9989C14.9976 10.5007 13.7792 9.28247 12.2808 9.28247C10.7823 9.28247 9.56393 10.5007 9.56393 11.9989Z" fill="currentColor"/>
</svg>
