<svg width="25" height="24" viewBox="0 0 25 24" fill="none" xmlns="http://www.w3.org/2000/svg">
<path d="M12.2808 2C10.303 2 8.36955 2.58649 6.72506 3.6853C5.08057 4.78412 3.79885 6.3459 3.04197 8.17316C2.28509 10.0004 2.08706 12.0111 2.47291 13.9509C2.85877 15.8907 3.81117 17.6725 5.2097 19.0711C6.60822 20.4696 8.39005 21.422 10.3299 21.8078C12.2697 22.1937 14.2803 21.9957 16.1076 21.2388C17.9349 20.4819 19.4966 19.2002 20.5955 17.5557C21.6943 15.9112 22.2808 13.9778 22.2808 12C22.2757 9.3494 21.2205 6.80881 19.3462 4.93455C17.472 3.06028 14.9314 2.00508 12.2808 2ZM12.0885 6.61538C12.3167 6.61538 12.5397 6.68306 12.7295 6.80984C12.9192 6.93663 13.0671 7.11683 13.1545 7.32767C13.2418 7.53851 13.2647 7.77051 13.2201 7.99433C13.1756 8.21816 13.0657 8.42375 12.9043 8.58512C12.743 8.74649 12.5374 8.85638 12.3136 8.9009C12.0897 8.94543 11.8577 8.92258 11.6469 8.83524C11.4361 8.74791 11.2559 8.60002 11.1291 8.41027C11.0023 8.22052 10.9346 7.99744 10.9346 7.76923C10.9346 7.46321 11.0562 7.16973 11.2726 6.95334C11.489 6.73695 11.7824 6.61538 12.0885 6.61538ZM13.05 17.3846H12.2808C12.0768 17.3846 11.8811 17.3036 11.7368 17.1593C11.5926 17.0151 11.5115 16.8194 11.5115 16.6154V12C11.3075 12 11.1119 11.919 10.9676 11.7747C10.8233 11.6304 10.7423 11.4348 10.7423 11.2308C10.7423 11.0268 10.8233 10.8311 10.9676 10.6868C11.1119 10.5426 11.3075 10.4615 11.5115 10.4615H12.2808C12.4848 10.4615 12.6804 10.5426 12.8247 10.6868C12.969 10.8311 13.05 11.0268 13.05 11.2308V15.8462C13.254 15.8462 13.4497 15.9272 13.5939 16.0715C13.7382 16.2157 13.8192 16.4114 13.8192 16.6154C13.8192 16.8194 13.7382 17.0151 13.5939 17.1593C13.4497 17.3036 13.254 17.3846 13.05 17.3846Z" fill="currentColor"/>
</svg>
