<svg width="24" height="24" viewBox="0 0 24 24" fill="none" xmlns="http://www.w3.org/2000/svg">
<path d="M15.5618 20.3806C15.7632 20.8949 16.3462 21.153 16.8378 20.9013C18.0748 20.268 19.1696 19.3821 20.0492 18.2969C21.1393 16.952 21.8616 15.3471 22.1454 13.6393C22.4292 11.9315 22.2648 10.1793 21.6682 8.55406C21.0717 6.92887 20.0634 5.48639 18.7421 4.36778C17.4208 3.24917 15.8317 2.49276 14.1303 2.17254C12.429 1.85233 10.6736 1.9793 9.03606 2.54102C7.3985 3.10274 5.93482 4.07998 4.78824 5.37709C3.86306 6.42374 3.16993 7.64974 2.74946 8.97423C2.58235 9.50062 2.93312 10.0331 3.47357 10.1468C4.01402 10.2605 4.53838 9.91158 4.7186 9.38953C5.05929 8.40262 5.591 7.48876 6.28673 6.70167C7.204 5.66398 8.37494 4.8822 9.68499 4.43282C10.995 3.98344 12.3993 3.88187 13.7604 4.13804C15.1215 4.3942 16.3928 4.99934 17.4498 5.89423C18.5069 6.78911 19.3135 7.94309 19.7907 9.24325C20.268 10.5434 20.3995 11.9452 20.1725 13.3114C19.9454 14.6777 19.3676 15.9616 18.4955 17.0375C17.834 17.8536 17.0204 18.5288 16.1033 19.0277C15.6181 19.2916 15.3605 19.8663 15.5618 20.3806Z" fill="currentColor"/>
</svg>
