<svg width="25" height="24" viewBox="0 0 25 24" fill="none" xmlns="http://www.w3.org/2000/svg">
<path d="M5.28076 10C4.18076 10 3.28076 10.9 3.28076 12C3.28076 13.1 4.18076 14 5.28076 14C6.38076 14 7.28076 13.1 7.28076 12C7.28076 10.9 6.38076 10 5.28076 10Z" fill="currentColor"/>
<path d="M19.2808 10C18.1808 10 17.2808 10.9 17.2808 12C17.2808 13.1 18.1808 14 19.2808 14C20.3808 14 21.2808 13.1 21.2808 12C21.2808 10.9 20.3808 10 19.2808 10Z" fill="currentColor"/>
<path d="M12.2808 10C11.1808 10 10.2808 10.9 10.2808 12C10.2808 13.1 11.1808 14 12.2808 14C13.3808 14 14.2808 13.1 14.2808 12C14.2808 10.9 13.3808 10 12.2808 10Z" fill="currentColor"/>
<path d="M5.28076 10C4.18076 10 3.28076 10.9 3.28076 12C3.28076 13.1 4.18076 14 5.28076 14C6.38076 14 7.28076 13.1 7.28076 12C7.28076 10.9 6.38076 10 5.28076 10Z" stroke="currentColor" stroke-width="1.5"/>
<path d="M19.2808 10C18.1808 10 17.2808 10.9 17.2808 12C17.2808 13.1 18.1808 14 19.2808 14C20.3808 14 21.2808 13.1 21.2808 12C21.2808 10.9 20.3808 10 19.2808 10Z" stroke="currentColor" stroke-width="1.5"/>
<path d="M12.2808 10C11.1808 10 10.2808 10.9 10.2808 12C10.2808 13.1 11.1808 14 12.2808 14C13.3808 14 14.2808 13.1 14.2808 12C14.2808 10.9 13.3808 10 12.2808 10Z" stroke="currentColor" stroke-width="1.5"/>
</svg>
