<svg width="25" height="24" viewBox="0 0 25 24" fill="none" xmlns="http://www.w3.org/2000/svg">
<path d="M20.7808 22.75H3.78076C3.37076 22.75 3.03076 22.41 3.03076 22C3.03076 21.59 3.37076 21.25 3.78076 21.25H20.7808C21.1908 21.25 21.5308 21.59 21.5308 22C21.5308 22.41 21.1908 22.75 20.7808 22.75Z" fill="currentColor"/>
<path d="M19.2802 18.2499C19.0902 18.2499 18.9002 18.1799 18.7502 18.0299L4.75021 4.02994C4.46021 3.73994 4.46021 3.25994 4.75021 2.96994C5.04021 2.67994 5.52021 2.67994 5.81021 2.96994L19.8102 16.9699C20.1002 17.2599 20.1002 17.7399 19.8102 18.0299C19.6602 18.1799 19.4702 18.2499 19.2802 18.2499Z" fill="currentColor"/>
<path d="M5.28076 14.52C4.87076 14.52 4.53076 14.18 4.53076 13.77V3.5C4.53076 3.09 4.87076 2.75 5.28076 2.75H15.5508C15.9608 2.75 16.3008 3.09 16.3008 3.5C16.3008 3.91 15.9608 4.25 15.5508 4.25H6.03076V13.77C6.03076 14.18 5.69076 14.52 5.28076 14.52Z" fill="currentColor"/>
</svg>
