<svg width="24" height="24" viewBox="0 0 24 24" fill="none" xmlns="http://www.w3.org/2000/svg">
<path d="M3.25 15C2.55964 15 2.01014 14.4386 2.1497 13.7625C2.5123 12.0058 3.75323 9 8 9C12 9 12.5 12.5 15.5 12.5C17.9108 12.5 18.8686 11.2286 19.2492 10.2184C19.4925 9.57232 20.0596 9 20.75 9C21.4404 9 21.9899 9.56141 21.8503 10.2375C21.4877 11.9942 20.2468 15 16 15C12 15 10.5 11.5 8.5 11.5C6.08917 11.5 5.13136 12.7714 4.75084 13.7816C4.50749 14.4277 3.94036 15 3.25 15Z" fill="currentColor"/>
</svg>
