<svg width="25" height="24" viewBox="0 0 25 24" fill="none" xmlns="http://www.w3.org/2000/svg">
<path fill-rule="evenodd" clip-rule="evenodd" d="M16.2812 7C16.2812 9.76142 14.0427 12 11.2812 12C8.51983 12 6.28125 9.76142 6.28125 7C6.28125 4.23858 8.51983 2 11.2812 2C14.0427 2 16.2812 4.23858 16.2812 7ZM2.28125 21.5C2.28125 17.36 6.36125 14 11.3713 14C12.7936 14 14.1411 14.2708 15.3414 14.7535C14.8318 15.4544 14.5312 16.3171 14.5312 17.25C14.5312 19.5972 16.434 21.5 18.7812 21.5C19.3744 21.5 19.9391 21.3785 20.452 21.159C20.4581 21.272 20.4613 21.3857 20.4613 21.5C20.4613 21.78 20.2413 22 19.9613 22H2.78125C2.50125 22 2.28125 21.78 2.28125 21.5Z" fill="currentColor"/>
<path fill-rule="evenodd" clip-rule="evenodd" d="M22.7812 17.25C22.7812 19.4591 20.9904 21.25 18.7812 21.25C16.5721 21.25 14.7812 19.4591 14.7812 17.25C14.7812 15.0409 16.5721 13.25 18.7812 13.25C20.9904 13.25 22.7812 15.0409 22.7812 17.25ZM18.6181 16.1175L17.074 17.6617C16.9919 17.7438 16.9156 17.8963 16.898 18.0077L16.7866 18.7994C16.7456 19.0868 16.945 19.2862 17.2323 19.2451L18.024 19.1337C18.1355 19.1161 18.2938 19.0399 18.3701 18.9578L19.9112 17.4167C19.9648 17.4362 20.0194 17.4538 20.075 17.4692C20.2311 17.5126 20.3927 17.4212 20.436 17.2652C20.4662 17.1567 20.4312 17.0455 20.3546 16.9732L20.4462 16.8817C20.8039 16.5239 20.974 16.1075 20.4462 15.5797C19.9242 15.0577 19.5078 15.2278 19.1501 15.5856L19.0586 15.677C18.9863 15.6051 18.8784 15.573 18.7731 15.6022C18.617 15.6456 18.5257 15.8072 18.569 15.9632C18.5835 16.0155 18.5999 16.067 18.6181 16.1175Z" fill="currentColor"/>
</svg>
