<svg width="100%" viewBox="0 0 680 470" role="img" xmlns="http://www.w3.org/2000/svg" font-family="-apple-system, BlinkMacSystemFont, Segoe UI, sans-serif">
  <title>Four-layer test strategy: which layer exercises which part of the stack</title>
  <desc>Six-row architecture stack on the left (external controller, messenger, engine, selectors, component, native runtime) crossed with four test-type columns on the right (unit, cv, integration, e2e). Cells are filled where each test type runs real code at that layer.</desc>

  <text x="340" y="22" text-anchor="middle" font-size="14" font-weight="500" fill="#111827">Where each test type runs real code</text>

  <text x="305" y="58" text-anchor="middle" font-size="14" font-weight="500" fill="#111827">Unit</text>
  <text x="305" y="74" text-anchor="middle" font-size="12" fill="#6b7280">pure logic</text>
  <text x="403" y="58" text-anchor="middle" font-size="14" font-weight="500" fill="#111827">CV</text>
  <text x="403" y="74" text-anchor="middle" font-size="12" fill="#6b7280">UI variants</text>
  <text x="501" y="58" text-anchor="middle" font-size="14" font-weight="500" fill="#111827">Integration</text>
  <text x="501" y="74" text-anchor="middle" font-size="12" fill="#6b7280">wiring bugs</text>
  <text x="599" y="58" text-anchor="middle" font-size="14" font-weight="500" fill="#111827">E2E</text>
  <text x="599" y="74" text-anchor="middle" font-size="12" fill="#6b7280">native bugs</text>

  <rect x="20" y="90" width="220" height="50" rx="6" fill="#f3f4f6" stroke="#d1d5db"/>
  <text x="34" y="113" font-size="14" font-weight="500" fill="#111827">External controller pkg</text>
  <text x="34" y="130" font-size="12" fill="#6b7280">@metamask/foo-controller</text>
  <rect x="260" y="90" width="90" height="50" rx="4" fill="#ffffff" stroke="#e5e7eb"/>
  <rect x="358" y="90" width="90" height="50" rx="4" fill="#ffffff" stroke="#e5e7eb"/>
  <rect x="456" y="90" width="90" height="50" rx="4" fill="#dbeafe" stroke="#3b82f6"/>
  <rect x="554" y="90" width="90" height="50" rx="4" fill="#dbeafe" stroke="#3b82f6"/>

  <rect x="20" y="146" width="220" height="50" rx="6" fill="#f3f4f6" stroke="#d1d5db"/>
  <text x="34" y="169" font-size="14" font-weight="500" fill="#111827">Messenger / app glue</text>
  <text x="34" y="186" font-size="12" fill="#6b7280">construction, subscriptions</text>
  <rect x="260" y="146" width="90" height="50" rx="4" fill="#ffffff" stroke="#e5e7eb"/>
  <rect x="358" y="146" width="90" height="50" rx="4" fill="#ffffff" stroke="#e5e7eb"/>
  <rect x="456" y="146" width="90" height="50" rx="4" fill="#dbeafe" stroke="#3b82f6"/>
  <rect x="554" y="146" width="90" height="50" rx="4" fill="#dbeafe" stroke="#3b82f6"/>

  <rect x="20" y="202" width="220" height="50" rx="6" fill="#f3f4f6" stroke="#d1d5db"/>
  <text x="34" y="225" font-size="14" font-weight="500" fill="#111827">Engine state + reducers</text>
  <text x="34" y="242" font-size="12" fill="#6b7280">controller.state shape</text>
  <rect x="260" y="202" width="90" height="50" rx="4" fill="#ffffff" stroke="#e5e7eb"/>
  <rect x="358" y="202" width="90" height="50" rx="4" fill="#ffffff" stroke="#e5e7eb"/>
  <rect x="456" y="202" width="90" height="50" rx="4" fill="#dbeafe" stroke="#3b82f6"/>
  <rect x="554" y="202" width="90" height="50" rx="4" fill="#dbeafe" stroke="#3b82f6"/>

  <rect x="20" y="258" width="220" height="50" rx="6" fill="#f3f4f6" stroke="#d1d5db"/>
  <text x="34" y="281" font-size="14" font-weight="500" fill="#111827">Selectors</text>
  <text x="34" y="298" font-size="12" fill="#6b7280">read state, derive UI props</text>
  <rect x="260" y="258" width="90" height="50" rx="4" fill="#dbeafe" stroke="#3b82f6"/>
  <rect x="358" y="258" width="90" height="50" rx="4" fill="#dbeafe" stroke="#3b82f6"/>
  <rect x="456" y="258" width="90" height="50" rx="4" fill="#dbeafe" stroke="#3b82f6"/>
  <rect x="554" y="258" width="90" height="50" rx="4" fill="#dbeafe" stroke="#3b82f6"/>

  <rect x="20" y="314" width="220" height="50" rx="6" fill="#f3f4f6" stroke="#d1d5db"/>
  <text x="34" y="337" font-size="14" font-weight="500" fill="#111827">Component (UI)</text>
  <text x="34" y="354" font-size="12" fill="#6b7280">React render + interactions</text>
  <rect x="260" y="314" width="90" height="50" rx="4" fill="#ffffff" stroke="#e5e7eb"/>
  <rect x="358" y="314" width="90" height="50" rx="4" fill="#dbeafe" stroke="#3b82f6"/>
  <rect x="456" y="314" width="90" height="50" rx="4" fill="#ffffff" stroke="#e5e7eb"/>
  <rect x="554" y="314" width="90" height="50" rx="4" fill="#dbeafe" stroke="#3b82f6"/>

  <rect x="20" y="370" width="220" height="50" rx="6" fill="#f3f4f6" stroke="#d1d5db"/>
  <text x="34" y="393" font-size="14" font-weight="500" fill="#111827">Native runtime</text>
  <text x="34" y="410" font-size="12" fill="#6b7280">RN modules, simulator, JSI</text>
  <rect x="260" y="370" width="90" height="50" rx="4" fill="#ffffff" stroke="#e5e7eb"/>
  <rect x="358" y="370" width="90" height="50" rx="4" fill="#ffffff" stroke="#e5e7eb"/>
  <rect x="456" y="370" width="90" height="50" rx="4" fill="#ffffff" stroke="#e5e7eb"/>
  <rect x="554" y="370" width="90" height="50" rx="4" fill="#dbeafe" stroke="#3b82f6"/>

  <text x="305" y="445" text-anchor="middle" font-size="12" fill="#6b7280">~1ms</text>
  <text x="403" y="445" text-anchor="middle" font-size="12" fill="#6b7280">~20ms</text>
  <text x="501" y="445" text-anchor="middle" font-size="12" fill="#6b7280">~50ms</text>
  <text x="599" y="445" text-anchor="middle" font-size="12" fill="#6b7280">seconds–minutes</text>
</svg>
