<svg viewBox="0 0 24 24" xmlns="http://www.w3.org/2000/svg"><path d="m11.9873 3.9873c-2.23105.00294-4.12144.77965-5.67089 2.32911-1.5524 1.55239-2.32911 3.44701-2.32911 5.68359 0 2.2366.77671 4.1312 2.32911 5.6836 1.54945 1.5494 3.43984 2.3252 5.67089 2.3281v1.9746c-1.377-.0016-2.6715-.2624-3.88281-.7851-1.21513-.5244-2.27214-1.236-3.1709-2.1348-.89875-.8987-1.61038-1.9558-2.13476-3.1709-.5243-1.215-.78613-2.5138-.78613-3.8955s.26183-2.68047.78613-3.89551c.52438-1.21513 1.23601-2.27214 2.13476-3.1709.89876-.89875 1.95577-1.61038 3.1709-2.13476 1.21131-.52269 2.50581-.78453 3.88281-.78613zm3.2627 15.0254c.3468 0 .6396.1191.8789.3584s.3584.5321.3584.8789-.1191.6396-.3584.8789-.5321.3584-.8789.3584-.6396-.1191-.8789-.3584-.3584-.5321-.3584-.8789.1191-.6396.3584-.8789.5321-.3584.8789-.3584zm4-3.5c.3468 0 .6396.1191.8789.3584s.3584.5321.3584.8789-.1191.6396-.3584.8789-.5321.3584-.8789.3584-.6396-.1191-.8789-.3584-.3584-.5321-.3584-.8789.1191-.6396.3584-.8789.5321-.3584.8789-.3584zm-6.2627-8.5v4.5869h-.0049l3.7002 3.7002-1.3828 1.3828-4.2871-4.2871v-5.3828zm7.7627 3.75c.3468 0 .6396.1191.8789.3584s.3584.5321.3584.8789-.1191.6396-.3584.8789-.5321.3584-.8789.3584-.6396-.1191-.8789-.3584-.3584-.5321-.3584-.8789.1191-.6396.3584-.8789.5321-.3584.8789-.3584zm-1.5-4.75c.3468 0 .6396.11913.8789.35839s.3584.53214.3584.87891-.1191.63965-.3584.87891-.5321.35839-.8789.35839-.6396-.11913-.8789-.35839-.3584-.53214-.3584-.87891.1191-.63965.3584-.87891.5321-.35839.8789-.35839zm-4-3.5c.3468 0 .6396.11913.8789.35839s.3584.53214.3584.87891-.1191.63965-.3584.87891-.5321.35839-.8789.35839-.6396-.11913-.8789-.35839-.3584-.53214-.3584-.87891.1191-.63965.3584-.87891.5321-.35839.8789-.35839z" stroke-width=".025"/></svg>