<svg viewBox="0 0 24 24" xmlns="http://www.w3.org/2000/svg"><g><path d="m14.9345 5.20388c.6891-.86299 1.1567-2.02174 1.0333-3.20583-1.0087.05022-2.2396.66633-2.9522 1.53-.6399.7396-1.2062 1.94686-1.0586 3.08133 1.1323.09834 2.2636-.56672 2.9775-1.4055z"/><path d="m15.955 6.83084c-1.6444-.09808-3.0425.93448-3.8278.93448-.7857 0-1.9883-.88506-3.28887-.86121-1.69284.0249-3.2636.98329-4.12265 2.50759-1.76691 3.0493-.46628 7.5726 1.25194 10.0561.83441 1.2287 1.84001 2.5815 3.16505 2.5329 1.25193-.0492 1.74263-.8117 3.26443-.8117 1.5207 0 1.9627.8117 3.288.7871 1.3743-.0246 2.2335-1.2292 3.0679-2.4591.9572-1.4006 1.349-2.7531 1.3737-2.8273-.0247-.0246-2.6501-1.0331-2.6744-4.0571-.0248-2.532 2.0612-3.73639 2.1594-3.81108-1.178-1.74455-3.0186-1.94126-3.6567-1.99068z"/></g></svg>