<svg fill="none" height="24" viewBox="0 0 24 24" width="24" xmlns="http://www.w3.org/2000/svg"><g fill="currentColor"><path d="m12.0989 21c-.3297 0-.5494-.1011-.7692-.3034-.4396-.4045-.4396-1.0112 0-1.4157l7.1428-6.573c.2198-.2023.3297-.4045.3297-.7079s-.1099-.5056-.3297-.7079l-7.1428-6.573c-.4396-.40449-.4396-1.01123 0-1.41573.4395-.40449 1.0989-.40449 1.5384 0l7.1429 6.57303c.6593.6067.989 1.3146.989 2.1236s-.3297 1.618-.989 2.1236l-7.1429 6.573c-.2197.2023-.4395.3034-.7692.3034z"/><path d="m4.0989 21c-.32967 0-.54945-.1011-.76923-.3034-.43956-.4045-.43956-1.0112 0-1.4157l7.14283-6.573c.2198-.2023.3297-.4045.3297-.7079s-.1099-.5056-.3297-.7079l-7.14283-6.573c-.43956-.40449-.43956-1.01123 0-1.41573.43956-.40449 1.0989-.40449 1.53846 0l7.14287 6.57303c.6593.6067.989 1.3146.989 2.1236s-.3297 1.618-.989 2.1236l-7.14287 6.573c-.21978.2023-.43956.3034-.76923.3034z"/></g></svg>