<svg fill="none" height="24" viewBox="0 0 24 24" width="24" xmlns="http://www.w3.org/2000/svg"><path d="m14.2737 19c-.2842 0-.4737-.0986-.6632-.2958-.3789-.3943-.3789-.9859 0-1.3803l4.1684-4.338h-13.83153c-.56842 0-.94737-.3944-.94737-.9859s.37895-.9859.94737-.9859h13.83153l-4.1684-4.33804c-.3789-.39437-.3789-.98592 0-1.38029.379-.39436.9474-.39436 1.3263 0l5.779 6.01413c.1895.1971.2842.3943.2842.6901s-.0947.493-.2842.6901l-5.779 6.0141c-.1894.1972-.3789.2958-.6631.2958z" fill="currentColor"/></svg>