<svg xmlns="http://www.w3.org/2000/svg" fill="none" height="24" viewBox="0 0 24 24" width="24"><g fill="currentColor"><path d="M12.099 21c-.33 0-.55-.101-.77-.303-.439-.405-.439-1.012 0-1.416l7.144-6.573c.22-.202.33-.405.33-.708s-.11-.506-.33-.708L11.33 4.72c-.44-.404-.44-1.011 0-1.416a1.127 1.127 0 0 1 1.538 0l7.143 6.573c.66.607.989 1.315.989 2.124s-.33 1.618-.989 2.124l-7.143 6.573a1.04 1.04 0 0 1-.77.303z"/><path d="M4.099 21c-.33 0-.55-.101-.77-.303-.439-.405-.439-1.012 0-1.416l7.144-6.573c.22-.202.33-.405.33-.708s-.11-.506-.33-.708L3.33 4.72c-.44-.404-.44-1.011 0-1.416a1.127 1.127 0 0 1 1.538 0l7.143 6.573c.66.607.989 1.315.989 2.124s-.33 1.618-.989 2.124l-7.143 6.573a1.04 1.04 0 0 1-.77.303z"/></g></svg>