<svg fill="none" height="24" viewBox="0 0 24 24" width="24" xmlns="http://www.w3.org/2000/svg"><g fill="#24272a"><path d="m11.9011 3c.3297 0 .5495.10112.7692.30337.4396.4045.4396 1.01124 0 1.41573l-7.14283 6.573c-.21978.2023-.32967.4045-.32967.7079s.10989.5056.32967.7079l7.14283 6.573c.4396.4045.4396 1.0112 0 1.4157-.4395.4045-1.0989.4045-1.5384 0l-7.14289-6.573c-.65934-.6067-.98901-1.3146-.98901-2.1236s.32967-1.618.98901-2.1236l7.14289-6.57303c.2198-.20225.4395-.30337.7692-.30337z"/><path d="m19.9011 3c.3297 0 .5495.10112.7692.30337.4396.4045.4396 1.01124 0 1.41573l-7.1428 6.573c-.2198.2023-.3297.4045-.3297.7079s.1099.5056.3297.7079l7.1428 6.573c.4396.4045.4396 1.0112 0 1.4157-.4395.4045-1.0989.4045-1.5384 0l-7.1429-6.573c-.6593-.6067-.989-1.3146-.989-2.1236s.3297-1.618.989-2.1236l7.1429-6.57303c.2198-.20225.4395-.30337.7692-.30337z"/></g></svg>