<svg xmlns="http://www.w3.org/2000/svg" fill="none" height="24" viewBox="0 0 24 24" width="24"><g fill="currentColor"><path d="M11.901 3c.33 0 .55.101.77.303.439.405.439 1.012 0 1.416l-7.144 6.573c-.22.202-.33.405-.33.708s.11.506.33.708l7.143 6.573c.44.404.44 1.011 0 1.416a1.127 1.127 0 0 1-1.538 0l-7.143-6.573C3.329 13.517 3 12.809 3 12s.33-1.618.989-2.124l7.143-6.573c.22-.202.44-.303.77-.303z"/><path d="M19.901 3c.33 0 .55.101.77.303.439.405.439 1.012 0 1.416l-7.143 6.573c-.22.202-.33.405-.33.708s.11.506.33.708l7.142 6.573c.44.404.44 1.011 0 1.416a1.127 1.127 0 0 1-1.538 0l-7.143-6.573C11.329 13.517 11 12.809 11 12s.33-1.618.989-2.124l7.143-6.573c.22-.202.44-.303.77-.303z"/></g></svg>