<svg xmlns="http://www.w3.org/2000/svg" width="24" height="24" viewBox="0 0 24 24" fill="none"><path d="M22.28 15c0 3.87-3.13 7-7 7l1.05-1.75M2.28 9c0-3.87 3.13-7 7-7L8.23 3.75" stroke="currentColor" stroke-width="1.5" stroke-linecap="round" stroke-linejoin="round"/><path d="M11.282 21.724h-10v-1.5c0-.275.225-.5.5-.5h9c.275 0 .5.225.5.5v1.5z" fill="currentColor"/><path fill-rule="evenodd" clip-rule="evenodd" d="m10.967 13.6-4.5-1.8a.585.585 0 0 0-.37 0l-4.5 1.8a.541.541 0 0 0-.315.465v1.66c0 .274.225.5.5.5h9c.275 0 .5-.226.5-.5v-1.66a.541.541 0 0 0-.315-.465zm-3.685.397a1 1 0 1 1-2 0 1 1 0 0 1 2 0z" fill="currentColor"/><path d="M11.282 21.724v.375a.375.375 0 0 0 .375-.375h-.375zm-10 0H.907c0 .207.168.375.375.375v-.375zm.623-2a.375.375 0 0 0 .75 0h-.75zm.75-3.5a.375.375 0 0 0-.75 0h.75zm1.252 3.5a.375.375 0 0 0 .75 0h-.75zm.75-3.5a.375.375 0 0 0-.75 0h.75zm1.249 3.5a.375.375 0 0 0 .75 0h-.75zm.75-3.5a.375.375 0 0 0-.75 0h.75zm1.249 3.5a.375.375 0 0 0 .75 0h-.75zm.75-3.5a.375.375 0 0 0-.75 0h.75zm1.252 3.5a.375.375 0 1 0 .75 0h-.75zm.75-3.5a.375.375 0 0 0-.75 0h.75zM.78 21.35a.375.375 0 0 0 0 .75v-.75zm11 .75a.375.375 0 0 0 0-.75v.75zM6.467 11.8l-.14.348.14-.348zm4.5 1.8.139-.349-.14.349zm-4.87-1.8.139.348-.14-.348zm-4.5 1.8-.14-.349.14.349zm9.685 7.75h-10v.75h10v-.75zm-9.625.374v-1.5h-.75v1.5h.75zm0-1.5c0-.068.057-.125.125-.125v-.75a.876.876 0 0 0-.875.875h.75zm.125-.125h9v-.75h-9v.75zm9 0c.068 0 .125.057.125.125h.75a.876.876 0 0 0-.875-.875v.75zm.125.125v1.5h.75v-1.5h-.75zm-8.252-.5v-3.5h-.75v3.5h.75zm2.002 0v-3.5h-.75v3.5h.75zm1.999 0v-3.5h-.75v3.5h.75zm1.999 0v-3.5h-.75v3.5h.75zm2.002 0v-3.5h-.75v3.5h.75zM.78 22.1h11v-.75h-11v.75zm5.547-9.952 4.5 1.8.279-.697-4.5-1.8-.279.697zm-.091 0c-.007.003-.006.001.005 0a.261.261 0 0 1 .081 0c.012.001.013.003.005 0l.279-.697a.891.891 0 0 0-.324-.056.891.891 0 0 0-.325.056l.279.697zm-4.5 1.8 4.5-1.8-.279-.697-4.5 1.8.279.697zm-.08.117s0-.007.006-.021a.196.196 0 0 1 .07-.094l.004-.002-.279-.697a.881.881 0 0 0-.394.328.882.882 0 0 0-.156.486h.75zm0 1.66v-1.66h-.75v1.66h.75zm.126.125a.126.126 0 0 1-.125-.125h-.75c0 .482.393.874.875.874v-.75zm9 0h-9v.75h9v-.75zm.125-.125a.126.126 0 0 1-.125.125v.75a.876.876 0 0 0 .875-.876h-.75zm0-1.66v1.66h.75v-1.66h-.75zm-.08-.117.005.002a.196.196 0 0 1 .07.094c.005.014.005.02.005.02h.75a.881.881 0 0 0-.156-.485.881.881 0 0 0-.395-.328l-.278.697zm-4.545 1.424c.76 0 1.375-.615 1.375-1.375h-.75c0 .345-.28.625-.625.625v.75zm-1.375-1.375c0 .76.615 1.375 1.375 1.375v-.75a.625.625 0 0 1-.625-.625h-.75zm1.375-1.375c-.76 0-1.375.616-1.375 1.375h.75c0-.345.28-.625.625-.625v-.75zm1.375 1.375c0-.76-.616-1.375-1.375-1.375v.75c.345 0 .625.28.625.625h.75zM12.881 6.067l3.2-1.4c.133-.067.267-.067.467 0l3.2 1.4c.266.133.533-.2.333-.467l-3.333-4.067a.5.5 0 0 0-.8 0L12.614 5.6c-.266.267 0 .6.267.467zM12.881 9.933l3.2 1.4c.133.067.267.067.467 0l3.2-1.4c.266-.133.533.2.333.467l-3.333 4.067a.5.5 0 0 1-.8 0L12.614 10.4c-.266-.267 0-.6.267-.467zM16.28 6.267 12.815 8l3.467 1.733L19.747 8l-3.466-1.733z" fill="currentColor"/></svg>