<svg xmlns="http://www.w3.org/2000/svg" width="24" height="24" viewBox="0 0 24 24" fill="none"><path d="M22.28 19v3h-20v-3c0-.55.45-1 1-1h18c.55 0 1 .45 1 1zM7.28 11h-2v7h2v-7zM11.28 11h-2v7h2v-7zM15.28 11h-2v7h2v-7zM19.28 11h-2v7h2v-7z" fill="currentColor"/><path d="M23.28 22.75h-22c-.41 0-.75-.34-.75-.75s.34-.75.75-.75h22c.41 0 .75.34.75.75s-.34.75-.75.75zM21.65 5.75l-9-3.6c-.2-.08-.54-.08-.74 0l-9 3.6c-.35.14-.63.55-.63.93V10c0 .55.45 1 1 1h18c.55 0 1-.45 1-1V6.68c0-.38-.28-.79-.63-.93zM12.28 8.5c-.83 0-1.5-.67-1.5-1.5s.67-1.5 1.5-1.5 1.5.67 1.5 1.5-.67 1.5-1.5 1.5z" fill="currentColor"/></svg>