<svg width="24" height="24" viewBox="0 0 24 24" fill="none" xmlns="http://www.w3.org/2000/svg">
<path d="M19.6316 14.49L18.5915 12.83C18.3731 12.46 18.1755 11.76 18.1755 11.35V8.82C18.1755 6.47 16.7402 4.44 14.6704 3.49C14.1296 2.57 13.1311 2 11.9871 2C10.8534 2 9.83414 2.59 9.2933 3.52C7.26518 4.49 5.86109 6.5 5.86109 8.82V11.35C5.86109 11.76 5.66348 12.46 5.44506 12.82L4.3946 14.49C3.97857 15.16 3.88496 15.9 4.14498 16.58C4.3946 17.25 4.98743 17.77 5.75708 18.02C7.77481 18.68 9.89654 19 12.0183 19C14.14 19 16.2617 18.68 18.2795 18.03C19.0075 17.8 19.5691 17.27 19.8396 16.58C20.11 15.89 20.0372 15.13 19.6316 14.49Z" fill="currentColor"/>
<path d="M14.9405 20.01C14.5037 21.17 13.3492 22 11.9971 22C11.1755 22 10.3642 21.68 9.79221 21.11C9.45939 20.81 9.20977 20.41 9.06416 20C9.19937 20.02 9.33458 20.03 9.48019 20.05C9.71941 20.08 9.96902 20.11 10.2186 20.13C10.8115 20.18 11.4147 20.21 12.018 20.21C12.6108 20.21 13.2036 20.18 13.7861 20.13C14.0045 20.11 14.2229 20.1 14.4309 20.07C14.5973 20.05 14.7637 20.03 14.9405 20.01Z" fill="currentColor"/>
</svg>
