<svg xmlns="http://www.w3.org/2000/svg" fill="none" height="24" viewBox="0 0 24 24" width="24"><path clip-rule="evenodd" d="M2 15.276c0-1.014.684-1.874 1.63-2.17C4.4 9.31 7.855 6.445 12 6.445c2.982 0 5.607 1.483 7.131 3.728a5.388 5.388 0 0 0-1.805.494A6.833 6.833 0 0 0 12 8.154c-3.215 0-5.906 2.172-6.594 5.084.77.374 1.3 1.146 1.3 2.038 0 1.259-1.054 2.28-2.353 2.28S2 16.534 2 15.275zm17.647 2.28c1.3 0 2.353-1.021 2.353-2.28 0-1.22-.989-2.215-2.232-2.276a2.406 2.406 0 0 0-1.174.237c-.771.375-1.3 1.147-1.3 2.04 0 1.258 1.053 2.278 2.353 2.278z" fill="currentColor" fill-rule="evenodd"/></svg>