<svg width="20" height="20" viewBox="0 0 20 20" fill="none" xmlns="http://www.w3.org/2000/svg">
<path fill-rule="evenodd" clip-rule="evenodd" d="M1.6665 12.7303C1.6665 11.8847 2.23688 11.1683 3.02525 10.9222C3.66626 7.75772 6.54528 5.37036 9.99992 5.37036C12.4849 5.37036 14.672 6.60561 15.9427 8.47683C15.4074 8.52691 14.9002 8.66966 14.4383 8.88833C13.4063 7.61377 11.8018 6.79486 9.99992 6.79486C7.32103 6.79486 5.07855 8.60491 4.50486 11.0313C5.14717 11.3432 5.58807 11.9869 5.58807 12.7303C5.58807 13.7792 4.7102 14.6296 3.62729 14.6296C2.54438 14.6296 1.6665 13.7792 1.6665 12.7303ZM16.3723 14.6296C17.4552 14.6296 18.333 13.7792 18.333 12.7303C18.333 11.7141 17.5093 10.8843 16.4732 10.8334C16.4398 10.8318 16.4062 10.831 16.3723 10.831C16.0568 10.831 15.7586 10.9032 15.4947 11.0313C14.8523 11.3432 14.4114 11.9869 14.4114 12.7303C14.4114 13.7792 15.2893 14.6296 16.3723 14.6296Z" fill="currentColor"/>
</svg>
