<svg xmlns="http://www.w3.org/2000/svg" viewBox="0 0 24 24" fill="currentColor"><g transform="scale(0.09375)"><path fill-rule="evenodd" clip-rule="evenodd" d="M56,56H96A16,16,0,0,1,112,72V184A16,16,0,0,1,96,200H56A16,16,0,0,1,40,184V72A16,16,0,0,1,56,56ZM56,72H96V184H56ZM68,40A8,8,0,0,1,84,40V56H68ZM68,200H84V216A8,8,0,0,1,68,216ZM160,100H200A16,16,0,0,1,216,116V148A16,16,0,0,1,200,164H160A16,16,0,0,1,144,148V116A16,16,0,0,1,160,100ZM160,116H200V148H160ZM172,40A8,8,0,0,1,188,40V100H172ZM172,164H188V216A8,8,0,0,1,172,216Z"/></g></svg>
