<svg xmlns="http://www.w3.org/2000/svg" width="24" height="24" viewBox="0 0 24 24" fill="none"><path d="M12.28 15.7v.11c0 .28-.22.5-.5.5h-9c-.28 0-.5-.22-.5-.5v-.11c0-1.76.44-2.2 2.22-2.2h5.56c1.78 0 2.22.44 2.22 2.2zM2.78 17.31c-.28 0-.5.22-.5.5v1.99c0 1.76.44 2.2 2.22 2.2h5.56c1.78 0 2.22-.44 2.22-2.2v-1.99c0-.28-.22-.5-.5-.5h-9z" fill="currentColor"/><path d="M22.28 15c0 3.87-3.13 7-7 7l1.05-1.75M2.28 9c0-3.87 3.13-7 7-7L8.23 3.75" stroke="currentColor" stroke-width="1.5" stroke-linecap="round" stroke-linejoin="round"/><path d="m12.88 6.067 3.18-1.414c.14-.06.3-.06.434 0l3.18 1.414c.28.126.54-.214.347-.454L16.687 1.54a.512.512 0 0 0-.826 0l-3.334 4.073c-.186.24.074.58.354.454zM12.88 9.933l3.187 1.414c.14.06.3.06.434 0l3.186-1.414c.28-.126.54.214.347.454l-3.333 4.073c-.227.28-.6.28-.827 0l-3.333-4.073c-.2-.24.053-.58.34-.454zM16.134 6.327 13.381 7.7a.33.33 0 0 0 0 .593l2.753 1.374a.339.339 0 0 0 .3 0l2.753-1.374a.33.33 0 0 0 0-.593l-2.753-1.373a.339.339 0 0 0-.3 0z" fill="currentColor"/></svg>