<svg xmlns="http://www.w3.org/2000/svg" width="24" height="24" viewBox="0 0 24 24" fill="none"><path d="M22.28 21.25c0 .41-.34.75-.75.75H3.03c-.41 0-.75-.34-.75-.75s.34-.75.75-.75h18.5c.41 0 .75.34.75.75zM15.671 4.52 4.931 15.26c-.41.41-1.07.41-1.47 0h-.01a3.58 3.58 0 0 1 0-5.05l7.15-7.15c1.4-1.4 3.66-1.4 5.06 0 .41.39.41 1.06.01 1.46z" fill="currentColor"/><path d="m21.101 8.49-3.05-3.05c-.41-.41-1.07-.41-1.47 0L5.841 16.18c-.41.4-.41 1.06 0 1.47l3.05 3.06a3.591 3.591 0 0 0 5.06 0l7.14-7.15c1.42-1.4 1.42-3.67.01-5.07zm-8.06 9.03-1.21 1.22c-.25.25-.66.25-.92 0a.658.658 0 0 1 0-.92l1.22-1.22c.24-.24.66-.24.91 0 .25.25.25.68 0 .92zm3.97-3.97L14.571 16c-.25.24-.66.24-.92 0a.658.658 0 0 1 0-.92l2.45-2.45c.24-.24.66-.24.91 0 .25.26.25.67 0 .92z" fill="currentColor"/></svg>