<svg xmlns="http://www.w3.org/2000/svg" width="24" height="24" viewBox="0 0 24 24" fill="none"><path d="M22.28 7.55c0 .66-.54 1.2-1.2 1.2H3.48c-.66 0-1.2-.54-1.2-1.2v-.01c0-2.29 1.85-4.14 4.14-4.14h11.71c2.29 0 4.15 1.86 4.15 4.15zM2.28 11.45v5.01c0 2.29 1.85 4.14 4.14 4.14h11.71c2.29 0 4.15-1.86 4.15-4.15v-5c0-.66-.54-1.2-1.2-1.2H3.48c-.66 0-1.2.54-1.2 1.2zm6 5.8h-2c-.41 0-.75-.34-.75-.75s.34-.75.75-.75h2c.41 0 .75.34.75.75s-.34.75-.75.75zm6.5 0h-4c-.41 0-.75-.34-.75-.75s.34-.75.75-.75h4c.41 0 .75.34.75.75s-.34.75-.75.75z" fill="currentColor"/></svg>