<svg xmlns="http://www.w3.org/2000/svg" width="24" height="24" viewBox="0 0 24 24" fill="none"><path d="M7.521 2h-1.9c-2.19 0-3.34 1.15-3.34 3.33v1.9c0 2.18 1.15 3.33 3.33 3.33h1.9c2.18 0 3.33-1.15 3.33-3.33v-1.9C10.851 3.15 9.701 2 7.521 2zM18.951 2h-1.9c-2.18 0-3.33 1.15-3.33 3.33v1.9c0 2.18 1.15 3.33 3.33 3.33h1.9c2.18 0 3.33-1.15 3.33-3.33v-1.9c0-2.18-1.15-3.33-3.33-3.33zM18.951 13.43h-1.9c-2.18 0-3.33 1.15-3.33 3.33v1.9c0 2.18 1.15 3.33 3.33 3.33h1.9c2.18 0 3.33-1.15 3.33-3.33v-1.9c0-2.18-1.15-3.33-3.33-3.33zM7.521 13.43h-1.9c-2.19 0-3.34 1.15-3.34 3.33v1.9c0 2.19 1.15 3.34 3.33 3.34h1.9c2.18 0 3.33-1.15 3.33-3.33v-1.9c.01-2.19-1.14-3.34-3.32-3.34z" fill="currentColor"/></svg>