<svg width="25" height="24" viewBox="0 0 25 24" fill="none" xmlns="http://www.w3.org/2000/svg">
<path d="M7.52125 2H5.62125C3.43125 2 2.28125 3.15 2.28125 5.33V7.23C2.28125 9.41 3.43125 10.56 5.61125 10.56H7.51125C9.69125 10.56 10.8413 9.41 10.8413 7.23V5.33C10.8513 3.15 9.70125 2 7.52125 2Z" fill="currentColor"/>
<path d="M18.9513 2H17.0513C14.8713 2 13.7212 3.15 13.7212 5.33V7.23C13.7212 9.41 14.8713 10.56 17.0513 10.56H18.9513C21.1313 10.56 22.2812 9.41 22.2812 7.23V5.33C22.2812 3.15 21.1313 2 18.9513 2Z" fill="currentColor"/>
<path d="M18.9512 13.4302H17.0512C14.8712 13.4302 13.7212 14.5802 13.7212 16.7602V18.6602C13.7212 20.8402 14.8712 21.9902 17.0512 21.9902H18.9512C21.1312 21.9902 22.2812 20.8402 22.2812 18.6602V16.7602C22.2812 14.5802 21.1312 13.4302 18.9512 13.4302Z" fill="currentColor"/>
<path d="M7.52125 13.4302H5.62125C3.43125 13.4302 2.28125 14.5802 2.28125 16.7602V18.6602C2.28125 20.8502 3.43125 22.0002 5.61125 22.0002H7.51125C9.69125 22.0002 10.8413 20.8502 10.8413 18.6702V16.7702C10.8513 14.5802 9.70125 13.4302 7.52125 13.4302Z" fill="currentColor"/>
</svg>
