<svg xmlns="http://www.w3.org/2000/svg" width="24" height="24" viewBox="0 0 24 24" fill="none"><path d="M21.281 22.75h-18c-.41 0-.75-.34-.75-.75s.34-.75.75-.75h18c.41 0 .75.34.75.75s-.34.75-.75.75zM5.881 8.38h-1.6c-.55 0-1 .45-1 1V18c0 .55.45 1 1 1h1.6c.55 0 1-.45 1-1V9.38c0-.56-.45-1-1-1zM13.081 5.19h-1.6c-.55 0-1 .45-1 1V18c0 .55.45 1 1 1h1.6c.55 0 1-.45 1-1V6.19c0-.55-.45-1-1-1zM20.281 2h-1.6c-.55 0-1 .45-1 1v15c0 .55.45 1 1 1h1.6c.55 0 1-.45 1-1V3c0-.55-.45-1-1-1z" fill="currentColor"/></svg>