<svg width="24" height="24" viewBox="0 0 41 41" fill="none" xmlns="http://www.w3.org/2000/svg">
<path d="M20.5001 0.501953C9.48012 0.501953 0.500122 9.48195 0.500122 20.502C0.500122 31.522 9.48012 40.502 20.5001 40.502C31.5201 40.502 40.5001 31.522 40.5001 20.502C40.5001 9.48195 31.5201 0.501953 20.5001 0.501953ZM30.0601 15.902L18.7201 27.242C18.4401 27.522 18.0601 27.682 17.6601 27.682C17.2601 27.682 16.8801 27.522 16.6001 27.242L10.9401 21.582C10.3601 21.002 10.3601 20.042 10.9401 19.462C11.5201 18.882 12.4801 18.882 13.0601 19.462L17.6601 24.062L27.9401 13.782C28.5201 13.202 29.4801 13.202 30.0601 13.782C30.6401 14.362 30.6401 15.302 30.0601 15.902Z" fill="currentColor"/>
</svg>
