<svg width="14" height="14" viewBox="0 0 14 14" fill="none" xmlns="http://www.w3.org/2000/svg">
<path d="M6.99089 2.32486C5.68981 2.32696 4.58701 2.77953 3.68327 3.68326C2.77751 4.58902 2.32495 5.69476 2.32487 6.99966C2.32487 8.30471 2.77743 9.41121 3.68327 10.317C4.58697 11.2207 5.68989 11.6724 6.99089 11.6745V12.8239C6.18849 12.8227 5.4341 12.6705 4.7282 12.3659C4.01962 12.0601 3.40365 11.6448 2.87956 11.1208C2.35538 10.5966 1.94028 9.9799 1.63445 9.27115C1.32874 8.56262 1.17546 7.8054 1.17546 6.99966C1.1755 6.19398 1.32873 5.43666 1.63445 4.72818C1.94026 4.01958 2.35547 3.40364 2.87956 2.87955C3.40366 2.35545 4.0196 1.94025 4.7282 1.63443C5.4341 1.32983 6.18849 1.17659 6.99089 1.17545V2.32486ZM8.89616 11.0924C9.09793 11.0925 9.26769 11.1622 9.40691 11.3014C9.54612 11.4406 9.61582 11.6104 9.61589 11.8122C9.61589 12.0141 9.54619 12.1846 9.40691 12.3239C9.26772 12.463 9.09785 12.5328 8.89616 12.5329C8.69426 12.5329 8.52373 12.4632 8.38445 12.3239C8.24516 12.1846 8.17546 12.0141 8.17546 11.8122C8.17554 11.6105 8.24534 11.4406 8.38445 11.3014C8.52373 11.1621 8.69426 11.0924 8.89616 11.0924ZM11.2292 9.05045C11.4311 9.05045 11.6016 9.12014 11.7409 9.25943C11.8801 9.39869 11.9499 9.56932 11.9499 9.77115C11.9498 9.97276 11.8799 10.1427 11.7409 10.2819C11.6016 10.4212 11.4311 10.4909 11.2292 10.4909C11.0273 10.4909 10.8567 10.4212 10.7175 10.2819C10.5785 10.1427 10.5085 9.97276 10.5085 9.77115C10.5085 9.56932 10.5783 9.39869 10.7175 9.25943C10.8567 9.12014 11.0273 9.05045 11.2292 9.05045ZM7.57487 4.09244V6.76627H7.57097L7.57683 6.7731L9.7282 8.92447L8.92448 9.72818L6.42546 7.22916V4.09244H7.57487ZM12.1042 6.27994C12.3061 6.27994 12.4766 6.34963 12.6159 6.48892C12.7549 6.62807 12.8248 6.79806 12.8249 6.99966C12.8249 7.20149 12.7551 7.37213 12.6159 7.51138C12.4766 7.65067 12.3061 7.72037 12.1042 7.72037C11.9023 7.72037 11.7317 7.65067 11.5925 7.51138C11.4533 7.37213 11.3835 7.20149 11.3835 6.99966C11.3835 6.79806 11.4535 6.62807 11.5925 6.48892C11.7317 6.34963 11.9023 6.27994 12.1042 6.27994ZM11.2292 3.50845C11.4311 3.50845 11.6016 3.57815 11.7409 3.71744C11.8802 3.85673 11.9499 4.02725 11.9499 4.22916C11.9499 4.43107 11.8802 4.60159 11.7409 4.74088C11.6016 4.88016 11.4311 4.94986 11.2292 4.94986C11.0273 4.94986 10.8567 4.88016 10.7175 4.74088C10.5782 4.60159 10.5085 4.43107 10.5085 4.22916C10.5085 4.02725 10.5782 3.85673 10.7175 3.71744C10.8567 3.57815 11.0273 3.50845 11.2292 3.50845ZM8.89616 1.46744C9.09793 1.46751 9.26769 1.53721 9.40691 1.67642C9.54612 1.81563 9.61582 1.9854 9.61589 2.18716C9.61589 2.38907 9.54619 2.5596 9.40691 2.69888C9.26772 2.83799 9.09785 2.90779 8.89616 2.90787C8.69426 2.90787 8.52373 2.83817 8.38445 2.69888C8.24516 2.5596 8.17546 2.38907 8.17546 2.18716C8.17554 1.98548 8.24534 1.8156 8.38445 1.67642C8.52373 1.53713 8.69426 1.46744 8.89616 1.46744Z" fill="#9B9B9B" stroke="#9B9B9B" stroke-width="0.0175"/>
</svg>
