<svg xmlns="http://www.w3.org/2000/svg" width="24" height="24" fill="none" viewBox="0 0 24 24">
    <g fill="#141618">
        <path fill="currentColor"
            d="M4.889 20a.807.807 0 0 1-.622-.267.86.86 0 0 1 0-1.244L18.489 4.267a.86.86 0 0 1 1.244 0 .86.86 0 0 1 0 1.244L5.511 19.733A.807.807 0 0 1 4.89 20z" />
        <path fill="currentColor"
            d="M19.111 20a.807.807 0 0 1-.622-.267L4.267 5.511a.86.86 0 0 1 0-1.244.86.86 0 0 1 1.244 0l14.222 14.222a.86.86 0 0 1 0 1.244.807.807 0 0 1-.622.267z" />
    </g>
</svg>
