<svg xmlns="http://www.w3.org/2000/svg" width="24" height="24" viewBox="0 0 24 24" fill="none"><path fill-rule="evenodd" clip-rule="evenodd" d="M4.419 4.138a.47.47 0 0 1 .665 0l15.059 15.059a.47.47 0 1 1-.666.665L4.42 4.803a.47.47 0 0 1 0-.665z" fill="currentColor"/><path fill-rule="evenodd" clip-rule="evenodd" d="M20.143 4.138a.47.47 0 0 1 0 .665L5.084 19.863a.47.47 0 0 1-.665-.666l15.058-15.06a.47.47 0 0 1 .666 0z" fill="currentColor"/><path d="m5.084 4.138-.177.177.177-.177zm-.665 0 .176.177-.176-.177zm15.724 15.059-.177.176.177-.176zm-.666.665.177-.177-.177.177zM4.42 4.803l.176-.176-.176.176zm15.724 0 .177.177-.177-.177zm0-.665-.177.177.177-.177zM5.084 19.862l-.177-.177.177.177zm-.665-.665-.177-.177.177.177zm15.058-15.06.177.178-.177-.177zM5.261 3.962a.72.72 0 0 0-1.02 0l.354.354a.22.22 0 0 1 .312 0l.354-.354zM20.32 19.02 5.26 3.96l-.353.354 15.06 15.058.353-.353zm0 1.019a.72.72 0 0 0 0-1.02l-.354.354a.22.22 0 0 1 0 .312l.354.354zm-1.02 0a.72.72 0 0 0 1.02 0l-.354-.354a.22.22 0 0 1-.312 0l-.353.354zM4.243 4.98 19.3 20.04l.353-.354L4.595 4.627l-.353.353zm0-1.019a.72.72 0 0 0 0 1.02l.353-.354a.22.22 0 0 1 0-.312l-.353-.354zm16.078 1.02a.72.72 0 0 0 0-1.02l-.354.354a.22.22 0 0 1 0 .312l.354.353zM5.26 20.038 20.32 4.98l-.354-.353L4.907 19.685l.354.354zm-1.018 0a.72.72 0 0 0 1.019 0l-.354-.354a.22.22 0 0 1-.312 0l-.353.354zm0-1.02a.72.72 0 0 0 0 1.02l.353-.354a.22.22 0 0 1 0-.312l-.353-.353zM19.3 3.962 4.24 19.02l.354.353 15.06-15.058-.354-.354zm1.019 0a.72.72 0 0 0-1.02 0l.354.354a.22.22 0 0 1 .312 0l.354-.354z" fill="currentColor"/></svg>