<svg xmlns="http://www.w3.org/2000/svg" width="24" height="24" viewBox="0 0 24 24" fill="none"><path fill-rule="evenodd" clip-rule="evenodd" d="M1.25 12C1.25 6.086 6.086 1.25 12 1.25S22.75 6.086 22.75 12 17.914 22.75 12 22.75 1.25 17.914 1.25 12zM12 2.75c-5.086 0-9.25 4.164-9.25 9.25s4.164 9.25 9.25 9.25 9.25-4.164 9.25-9.25S17.086 2.75 12 2.75z" fill="currentColor"/><path fill-rule="evenodd" clip-rule="evenodd" d="M22 12c0 5.5-4.5 10-10 10S2 17.5 2 12 6.5 2 12 2s10 4.5 10 10zm-5.22-2.3a.75.75 0 0 0-1.06-1.06l-5.14 5.13-2.3-2.3a.75.75 0 0 0-1.06 1.06l2.83 2.83a.75.75 0 0 0 1.06 0l5.67-5.66z" fill="currentColor"/></svg>