<svg width="20" height="20" viewBox="0 0 20 20" fill="none" xmlns="http://www.w3.org/2000/svg">
<path d="M17.5 6.85737V13.1424C17.5 15.5499 15.55 17.4999 13.1425 17.4999H6.8575C4.45 17.4999 2.5 15.5499 2.5 13.1424V6.85737C2.5 4.98987 3.265 3.63237 4.6225 2.97237C5.1175 2.73237 5.6875 3.10737 5.6875 3.65487V10.3149C5.6875 11.2074 6.0325 11.9199 6.655 12.2799C7.285 12.6324 8.08 12.5574 8.89 12.0699L9.865 11.4849C9.925 11.4549 10.075 11.4549 10.12 11.4774L11.11 12.0699C11.65 12.3924 12.115 12.4974 12.49 12.4974C12.88 12.4974 13.18 12.3774 13.36 12.2724C13.9675 11.9199 14.3125 11.2074 14.3125 10.3149V3.65487C14.3125 3.10737 14.89 2.73237 15.3775 2.97237C16.735 3.63237 17.5 4.98987 17.5 6.85737Z" fill="currentColor"/>
<path d="M12.4375 2.5C12.85 2.5 13.1875 2.8375 13.1875 3.25V10.315C13.1875 10.795 13.045 11.155 12.7975 11.2975C12.5425 11.4475 12.1375 11.3725 11.6875 11.1025L10.6975 10.51C10.315 10.2775 9.685 10.2775 9.3025 10.51L8.3125 11.1025C7.8625 11.3725 7.4575 11.44 7.2025 11.2975C6.955 11.155 6.8125 10.795 6.8125 10.315V3.25C6.8125 2.8375 7.15 2.5 7.5625 2.5H12.4375Z" fill="currentColor"/>
</svg>
