<svg xmlns="http://www.w3.org/2000/svg" width="24" height="24" viewBox="0 0 24 24" fill="none"><path d="M17.38 2h-4.2c-3.082 0-4.528 1.094-4.83 3.739-.063.553.396 1.011.953 1.011h2.078c4.2 0 6.15 1.95 6.15 6.15v2.078c0 .557.457 1.015 1.01.952 2.646-.301 3.74-1.747 3.74-4.83V6.9c0-3.5-1.4-4.9-4.9-4.9z" fill="currentColor"/><path d="M11.38 8h-4.2c-3.5 0-4.9 1.4-4.9 4.9v4.2c0 3.5 1.4 4.9 4.9 4.9h4.2c3.5 0 4.9-1.4 4.9-4.9v-4.2c0-3.5-1.4-4.9-4.9-4.9zm1.19 5.65-3.71 3.71a.71.71 0 0 1-.51.21.71.71 0 0 1-.51-.21L5.98 15.5a.712.712 0 0 1 0-1.01c.28-.28.73-.28 1.01 0l1.35 1.35 3.21-3.21c.28-.28.73-.28 1.01 0s.29.74.01 1.02z" fill="currentColor"/></svg>