<svg fill="none" height="24" viewBox="0 0 24 24" width="24" xmlns="http://www.w3.org/2000/svg"><g fill="currentColor"><path d="m21.2995 7.58018h-5.58c-.39 0-.7-.31-.7-.7s.31-.7.7-.7h5.58c.39 0 .7.31.7.7s-.31.7-.7.7z"/><path d="m6.42 7.58018h-3.72c-.39 0-.7-.31-.7-.7s.31-.7.7-.7h3.72c.39 0 .7.31.7.7s-.32.7-.7.7z"/><path d="m10.1404 10.8302c2.1816 0 3.95-1.7685 3.95-3.95002 0-2.18153-1.7684-3.95-3.95-3.95-2.18149 0-3.94997 1.76847-3.94997 3.95 0 2.18152 1.76848 3.95002 3.94997 3.95002z"/><path d="m21.2999 17.8102h-3.72c-.39 0-.7-.31-.7-.7s.31-.7.7-.7h3.72c.39 0 .7.31.7.7s-.31.7-.7.7z"/><path d="m8.28 17.8102h-5.58c-.39 0-.7-.31-.7-.7s.31-.7.7-.7h5.58c.39 0 .7.31.7.7s-.32.7-.7.7z"/><path d="m13.8602 21.0699c2.1815 0 3.95-1.7685 3.95-3.95s-1.7685-3.95-3.95-3.95c-2.1816 0-3.95004 1.7685-3.95004 3.95s1.76844 3.95 3.95004 3.95z"/></g></svg>