<svg xmlns="http://www.w3.org/2000/svg" fill="none" height="24" viewBox="0 0 24 24" width="24"><g fill="currentColor"><path d="M21.3 7.58h-5.58c-.39 0-.7-.31-.7-.7s.31-.7.7-.7h5.58c.39 0 .7.31.7.7s-.31.7-.7.7zM6.42 7.58H2.7c-.39 0-.7-.31-.7-.7s.31-.7.7-.7h3.72c.39 0 .7.31.7.7s-.32.7-.7.7z"/><path d="M10.14 10.83a3.95 3.95 0 1 0 0-7.9 3.95 3.95 0 0 0 0 7.9zM21.3 17.81h-3.72c-.39 0-.7-.31-.7-.7s.31-.7.7-.7h3.72c.39 0 .7.31.7.7s-.31.7-.7.7zM8.28 17.81H2.7c-.39 0-.7-.31-.7-.7s.31-.7.7-.7h5.58c.39 0 .7.31.7.7s-.32.7-.7.7z"/><path d="M13.86 21.07a3.95 3.95 0 1 0 0-7.9 3.95 3.95 0 0 0 0 7.9z"/></g></svg>