<svg fill="none" height="56" viewBox="0 0 56 56" width="56" xmlns="http://www.w3.org/2000/svg"><g fill="#24272a"><path d="m37.2995 23.5802h-5.58c-.39 0-.7-.31-.7-.7s.31-.7.7-.7h5.58c.39 0 .7.31.7.7s-.31.7-.7.7z"/><path d="m22.42 23.5802h-3.72c-.39 0-.7-.31-.7-.7s.31-.7.7-.7h3.72c.39 0 .7.31.7.7s-.32.7-.7.7z"/><path d="m26.1404 26.8302c2.1816 0 3.95-1.7685 3.95-3.95s-1.7684-3.95-3.95-3.95c-2.1815 0-3.95 1.7685-3.95 3.95s1.7685 3.95 3.95 3.95z"/><path d="m37.2999 33.8102h-3.72c-.39 0-.7-.31-.7-.7s.31-.7.7-.7h3.72c.39 0 .7.31.7.7s-.31.7-.7.7z"/><path d="m24.28 33.8102h-5.58c-.39 0-.7-.31-.7-.7s.31-.7.7-.7h5.58c.39 0 .7.31.7.7s-.32.7-.7.7z"/><path d="m29.8602 37.0699c2.1815 0 3.95-1.7685 3.95-3.95s-1.7685-3.95-3.95-3.95c-2.1816 0-3.95 1.7685-3.95 3.95s1.7684 3.95 3.95 3.95z"/></g><rect height="55" rx="4.5" stroke="#7b61ff" stroke-dasharray="10 5" width="55" x=".5" y=".5"/></svg>