<svg width="25" height="24" viewBox="0 0 25 24" fill="none" xmlns="http://www.w3.org/2000/svg">
<g id="danger">
<path id="Vector" fill-rule="evenodd" clip-rule="evenodd" d="M16.735 3.03296L24.0364 15.6795C25.9186 18.9395 23.5659 23.0145 19.8015 23.0145H5.1986C1.43426 23.0145 -0.918473 18.9395 0.963704 15.6795L8.26517 3.03297C10.1473 -0.227044 14.8528 -0.227063 16.735 3.03296Z" fill="white"/>
<path id="Polygon 3" d="M10.3773 4.25248C11.3207 2.61848 13.6791 2.61848 14.6225 4.25247L21.924 16.899C22.8674 18.533 21.6881 20.5755 19.8014 20.5755H5.19843C3.31165 20.5755 2.13241 18.533 3.0758 16.899L10.3773 4.25248Z" fill="#CA3542"/>
<g id="Vector_2">
<path d="M12.4995 8.45929C12.1205 8.45929 11.8063 8.79356 11.8063 9.19665V14.1124C11.8063 14.5155 12.1205 14.8497 12.4995 14.8497C12.8785 14.8497 13.1927 14.5155 13.1927 14.1124V9.19665C13.1927 8.79356 12.8785 8.45929 12.4995 8.45929Z" fill="white"/>
<path d="M13.0171 17.8778L13.1557 17.7599C13.3221 17.5731 13.4238 17.3174 13.4238 17.0618C13.4238 16.8062 13.3221 16.5506 13.1557 16.3638L13.0171 16.2458C12.9616 16.2065 12.9062 16.177 12.8507 16.1573C12.7953 16.1278 12.7398 16.1082 12.6751 16.0983C12.5642 16.0688 12.4348 16.0688 12.3146 16.0983C12.2592 16.1082 12.2037 16.1278 12.1483 16.1573C12.0928 16.177 12.0373 16.2065 11.9819 16.2458L11.8432 16.3638C11.6769 16.5506 11.5752 16.8062 11.5752 17.0618C11.5752 17.3174 11.6769 17.5731 11.8432 17.7599L11.9819 17.8778C12.0373 17.9172 12.0928 17.9467 12.1483 17.9663C12.2037 17.9958 12.2592 18.0155 12.3146 18.0253C12.3793 18.0351 12.444 18.045 12.4995 18.045C12.5549 18.045 12.6197 18.0351 12.6751 18.0253C12.7398 18.0155 12.7953 17.9958 12.8507 17.9663C12.9062 17.9467 12.9616 17.9172 13.0171 17.8778Z" fill="white"/>
</g>
</g>
</svg>
