<svg xmlns="http://www.w3.org/2000/svg" width="24" height="24" viewBox="0 0 24 24" fill="none"><path d="M21.63 16.182 15.5 4.445C14.674 2.866 13.535 2 12.28 2c-1.254 0-2.394.866-3.218 2.445l-6.13 11.737c-.776 1.498-.862 2.935-.24 4.066C3.316 21.378 4.543 22 6.15 22h12.261c1.61 0 2.835-.622 3.458-1.752.623-1.131.536-2.578-.24-4.066zm-10.068-7.05c0-.418.326-.764.719-.764.393 0 .718.346.718.764v5.094c0 .418-.325.764-.718.764-.393 0-.719-.346-.719-.764V9.132zm1.399 8.874-.144.122a.712.712 0 0 1-.172.092.555.555 0 0 1-.182.061c-.058.01-.125.02-.182.02-.058 0-.125-.01-.192-.02a.585.585 0 0 1-.172-.06.71.71 0 0 1-.173-.093l-.143-.122a1.108 1.108 0 0 1-.278-.723c0-.265.105-.53.278-.724l.143-.122a.706.706 0 0 1 .173-.092.58.58 0 0 1 .172-.06.771.771 0 0 1 .374 0 .55.55 0 0 1 .182.06c.057.02.115.051.172.092l.144.122c.172.194.278.459.278.724 0 .265-.106.53-.278.723z" fill="currentColor"/></svg>