<svg width="16" height="16" viewBox="0 0 16 16" fill="none" xmlns="http://www.w3.org/2000/svg">
<path d="M5.55718 12.5191L5.89167 12.1475L5.55719 12.5191C5.78365 12.723 6.06511 12.8125 6.33333 12.8125C6.60155 12.8125 6.88302 12.723 7.10948 12.5191C7.57184 12.103 7.57184 11.397 7.10948 10.9809L6.29742 10.25L7.10948 9.51915C7.57184 9.10302 7.57184 8.39698 7.10948 7.98085C6.67766 7.59222 5.989 7.59222 5.55718 7.98085L3.89052 9.48085C3.42816 9.89698 3.42816 10.603 3.89052 11.0191L5.55718 12.5191ZM4.66667 1H11.3333C12.7107 1 13.6087 1.35357 14.1624 1.89028C14.7141 2.42498 15 3.21516 15 4.25V11.75C15 12.7848 14.7141 13.575 14.1624 14.1097C13.6087 14.6464 12.7107 15 11.3333 15H4.66667C3.28932 15 2.39133 14.6464 1.83757 14.1097C1.2859 13.575 1 12.7848 1 11.75V4.25C1 3.21516 1.2859 2.42498 1.83757 1.89028C2.39133 1.35357 3.28932 1 4.66667 1ZM10.4428 12.5191L12.1095 11.0191C12.5718 10.603 12.5718 9.89698 12.1095 9.48085L10.4428 7.98085C10.011 7.59222 9.32234 7.59222 8.89052 7.98085C8.42816 8.39698 8.42816 9.10302 8.89052 9.51915L9.70258 10.25L8.89052 10.9809C8.42816 11.397 8.42816 12.103 8.89052 12.5191C9.11698 12.723 9.39845 12.8125 9.66667 12.8125C9.93489 12.8125 10.2163 12.723 10.4428 12.5191ZM11.75 6.4375H13.4167C13.9836 6.4375 14.5417 6.00689 14.5417 5.375C14.5417 4.74311 13.9836 4.3125 13.4167 4.3125H11.75C11.4003 4.3125 11.2083 4.06811 11.2083 3.875V2.375C11.2083 1.74311 10.6503 1.3125 10.0833 1.3125C9.51638 1.3125 8.95833 1.74311 8.95833 2.375V3.875C8.95833 5.33939 10.258 6.4375 11.75 6.4375Z" fill="currentColor" stroke="currentColor"/>
</svg>
