<svg width="24" height="24" viewBox="0 0 24 24" fill="none" xmlns="http://www.w3.org/2000/svg">
<path d="m8.335 18.78 0.503 -0.558 -0.503 0.557a1.731 1.731 0 0 0 1.164 0.44c0.404 0 0.825 -0.134 1.164 -0.44a1.539 1.539 0 0 0 0 -2.307l-1.218 -1.096 1.218 -1.095a1.539 1.539 0 0 0 0 -2.31 1.77 1.77 0 0 0 -2.328 0l-2.499 2.25a1.539 1.539 0 0 0 0 2.31l2.499 2.25ZM7.001 1.5h9.999c2.067 0 3.414 0.531 4.245 1.335C22.071 3.637 22.5 4.823 22.5 6.375v11.25c0 1.552 -0.429 2.737 -1.257 3.54 -0.829 0.804 -2.177 1.335 -4.244 1.335H7.001c-2.067 0 -3.414 -0.531 -4.245 -1.335 -0.826 -0.803 -1.257 -1.988 -1.257 -3.54v-11.25c0 -1.552 0.429 -2.737 1.257 -3.54 0.829 -0.804 2.177 -1.335 4.245 -1.335Zm8.664 17.28 2.501 -2.25a1.539 1.539 0 0 0 0 -2.31l-2.501 -2.25a1.77 1.77 0 0 0 -2.328 0 1.539 1.539 0 0 0 0 2.31l1.218 1.095 -1.218 1.095a1.539 1.539 0 0 0 0 2.31 1.734 1.734 0 0 0 1.164 0.44c0.402 0 0.825 -0.135 1.164 -0.441Zm1.961 -9.123h2.501c0.851 0 1.688 -0.647 1.688 -1.594 0 -0.948 -0.837 -1.594 -1.688 -1.594h-2.501c-0.525 0 -0.813 -0.366 -0.813 -0.656v-2.25c0 -0.948 -0.837 -1.594 -1.688 -1.594s-1.688 0.647 -1.688 1.594v2.25c0 2.196 1.95 3.844 4.188 3.844Z" fill="currentColor" stroke="currentColor" stroke-width="1.5"/>
</svg>