<svg width="24" height="24" viewBox="0 0 24 24" fill="none" xmlns="http://www.w3.org/2000/svg">
<path fill-rule="evenodd" clip-rule="evenodd" d="M12 2C17.5228 2 21.9999 6.47726 22 12C22 17.5228 17.5228 22 12 22C6.47715 22 2 17.5228 2 12C2.00013 6.47726 6.47723 2 12 2ZM11.0156 5.85742V7.66895H9.40039L9.11035 7.94922L7.88379 9.13184V11.6885L8.2334 11.9873L9.15332 12.7764L9.43457 13.0166H13.7959L14.1172 13.3359V13.998L13.7871 14.3359H8.3418V16.3359H11.0156V18.1426H13.0156V16.3359H14.6289L16.1172 14.8145V12.5059L15.8223 12.2119L14.6201 11.0166H10.1738L9.88379 10.7676V9.98047L10.208 9.66895H15.6895V7.66895H13.0156V5.85742H11.0156Z" fill="currentColor"/>
</svg>
