<svg width="24" height="24" viewBox="0 0 24 24" fill="none" xmlns="http://www.w3.org/2000/svg">
<path fill-rule="evenodd" clip-rule="evenodd" d="M3 12A9 9 0 1 0 21 12A9 9 0 1 0 3 12ZM13.0151 7.66895H15.689V9.66895H10.2075L9.8833 9.98047V10.7676L10.1733 11.0166H14.6196L15.8218 12.2119L16.1167 12.5059V14.8145L14.6284 16.3359H13.0151V18.1426H11.0151V16.3359H8.34131V14.3359H13.7866L14.1167 13.998V13.3359L13.7954 13.0166H9.43408L9.15283 12.7764L8.23291 11.9873L7.8833 11.6885V9.13184L9.10986 7.94922L9.3999 7.66895H11.0151V5.85742H13.0151V7.66895Z" fill="currentColor"/>
</svg>
