<svg width="24" height="24" viewBox="0 0 24 24" fill="none" xmlns="http://www.w3.org/2000/svg">
<path d="M12.7656 7.91699H15.6895V9.41699H10.1074L9.63379 9.87402V10.8809L10.0811 11.2646H14.5176L14.7363 11.4834L15.6465 12.3877L15.8672 12.6074V14.71L14.5234 16.084H12.7656V17.5225H11.2656V16.084H8.3418V14.584H13.8926L14.3672 14.0977V13.2314L13.8975 12.7646H9.52637L9.31641 12.584L8.13379 11.5713V9.23633L9.50098 7.91699H11.2656V6.47754H12.7656V7.91699Z" fill="currentColor"/>
<path fill-rule="evenodd" clip-rule="evenodd" d="M12 2C17.5228 2 22 6.47715 22 12C22 17.5228 17.5228 22 12 22C6.47715 22 2 17.5228 2 12C2 6.47715 6.47715 2 12 2ZM12 4C7.58172 4 4 7.58172 4 12C4 16.4183 7.58172 20 12 20C16.4183 20 20 16.4183 20 12C20 7.58172 16.4183 4 12 4Z" fill="currentColor"/>
</svg>
