<svg xmlns="http://www.w3.org/2000/svg" width="10" height="24" viewBox="0 0 10 24">
  <g clip-path="url(#clip0_4983_14255)">
    <path d="M1.93311 19.4336C1.38311 19.4336 0.912272 19.2378 0.520605 18.8461C0.128939 18.4544 -0.0668945 17.9836 -0.0668945 17.4336C-0.0668945 16.8836 0.128939 16.4128 0.520605 16.0211C0.912272 15.6294 1.38311 15.4336 1.93311 15.4336C2.48311 15.4336 2.95394 15.6294 3.34561 16.0211C3.73727 16.4128 3.93311 16.8836 3.93311 17.4336C3.93311 17.9836 3.73727 18.4544 3.34561 18.8461C2.95394 19.2378 2.48311 19.4336 1.93311 19.4336ZM7.93311 19.4336C7.38311 19.4336 6.91227 19.2378 6.52061 18.8461C6.12894 18.4544 5.93311 17.9836 5.93311 17.4336C5.93311 16.8836 6.12894 16.4128 6.52061 16.0211C6.91227 15.6294 7.38311 15.4336 7.93311 15.4336C8.48311 15.4336 8.95394 15.6294 9.34561 16.0211C9.73727 16.4128 9.93311 16.8836 9.93311 17.4336C9.93311 17.9836 9.73727 18.4544 9.34561 18.8461C8.95394 19.2378 8.48311 19.4336 7.93311 19.4336ZM1.93311 13.4336C1.38311 13.4336 0.912272 13.2378 0.520605 12.8461C0.128939 12.4544 -0.0668945 11.9836 -0.0668945 11.4336C-0.0668945 10.8836 0.128939 10.4128 0.520605 10.0211C0.912272 9.62943 1.38311 9.43359 1.93311 9.43359C2.48311 9.43359 2.95394 9.62943 3.34561 10.0211C3.73727 10.4128 3.93311 10.8836 3.93311 11.4336C3.93311 11.9836 3.73727 12.4544 3.34561 12.8461C2.95394 13.2378 2.48311 13.4336 1.93311 13.4336ZM7.93311 13.4336C7.38311 13.4336 6.91227 13.2378 6.52061 12.8461C6.12894 12.4544 5.93311 11.9836 5.93311 11.4336C5.93311 10.8836 6.12894 10.4128 6.52061 10.0211C6.91227 9.62943 7.38311 9.43359 7.93311 9.43359C8.48311 9.43359 8.95394 9.62943 9.34561 10.0211C9.73727 10.4128 9.93311 10.8836 9.93311 11.4336C9.93311 11.9836 9.73727 12.4544 9.34561 12.8461C8.95394 13.2378 8.48311 13.4336 7.93311 13.4336ZM1.93311 7.43359C1.38311 7.43359 0.912272 7.23776 0.520605 6.84609C0.128939 6.45443 -0.0668945 5.98359 -0.0668945 5.43359C-0.0668945 4.88359 0.128939 4.41276 0.520605 4.02109C0.912272 3.62943 1.38311 3.43359 1.93311 3.43359C2.48311 3.43359 2.95394 3.62943 3.34561 4.02109C3.73727 4.41276 3.93311 4.88359 3.93311 5.43359C3.93311 5.98359 3.73727 6.45443 3.34561 6.84609C2.95394 7.23776 2.48311 7.43359 1.93311 7.43359ZM7.93311 7.43359C7.38311 7.43359 6.91227 7.23776 6.52061 6.84609C6.12894 6.45443 5.93311 5.98359 5.93311 5.43359C5.93311 4.88359 6.12894 4.41276 6.52061 4.02109C6.91227 3.62943 7.38311 3.43359 7.93311 3.43359C8.48311 3.43359 8.95394 3.62943 9.34561 4.02109C9.73727 4.41276 9.93311 4.88359 9.93311 5.43359C9.93311 5.98359 9.73727 6.45443 9.34561 6.84609C8.95394 7.23776 8.48311 7.43359 7.93311 7.43359Z"/>
  </g>
  <defs>
    <clipPath id="clip0_4983_14255">
      <rect width="10" height="24" fill="white"/>
    </clipPath>
  </defs>
</svg>
