<svg xmlns="http://www.w3.org/2000/svg" width="24" height="24" viewBox="0 0 24 24" fill="none"><path d="M10.06 12c0 1.07.87 1.94 1.94 1.94 1.07 0 1.94-.87 1.94-1.94 0-1.07-.87-1.941-1.94-1.941-1.07 0-1.94.87-1.94 1.94z" fill="currentColor"/><path fill-rule="evenodd" clip-rule="evenodd" d="M12 22c5.523 0 10-4.477 10-10S17.523 2 12 2 2 6.477 2 12s4.477 10 10 10zm2.846-14.947c.595-.15 1.21.02 1.645.456.436.43.606 1.045.456 1.64l-1.226 4.906a2.28 2.28 0 0 1-1.665 1.665l-4.907 1.225c-.14.04-.285.055-.425.055-.45 0-.885-.18-1.215-.505a1.715 1.715 0 0 1-.456-1.645L8.28 9.944a2.28 2.28 0 0 1 1.665-1.665l4.902-1.226z" fill="currentColor"/></svg>