<svg width="18" height="18" viewBox="0 0 18 18" fill="none" xmlns="http://www.w3.org/2000/svg">
<path d="M12.0161 17.5H7.98387C4.19355 17.5 2.5 15.8065 2.5 12.0161V7.98387C2.5 4.19355 4.19355 2.5 7.98387 2.5H9.35484C9.83871 2.5 10.1613 2.82258 10.1613 3.30645C10.1613 3.79032 9.83871 4.1129 9.35484 4.1129H7.98387C5.08065 4.1129 4.1129 5.08065 4.1129 7.98387V12.0161C4.1129 14.9194 5.08065 15.8871 7.98387 15.8871H12.0161C14.9194 15.8871 15.8871 14.9194 15.8871 12.0161V10.6452C15.8871 10.1613 16.2097 9.83871 16.6935 9.83871C17.1774 9.83871 17.5 10.1613 17.5 10.6452V12.0161C17.5 15.8065 15.8065 17.5 12.0161 17.5ZM10.6452 10.1613C10.4032 10.1613 10.2419 10.0806 10.0806 9.91936C9.75807 9.59678 9.75807 9.1129 10.0806 8.79032L14.7581 4.1129H13.4677C12.9839 4.1129 12.6613 3.79032 12.6613 3.30645C12.6613 2.82258 12.9839 2.5 13.4677 2.5H16.6935C17.1774 2.5 17.5 2.82258 17.5 3.30645V6.53226C17.5 7.01613 17.1774 7.33871 16.6935 7.33871C16.2097 7.33871 15.8871 7.01613 15.8871 6.53226V5.24194L11.2097 9.91936C11.0484 10.0806 10.8871 10.1613 10.6452 10.1613Z" fill="currentColor"/>
</svg>
