<svg fill="none" height="24" viewBox="0 0 24 24" width="24" xmlns="http://www.w3.org/2000/svg"><path d="m14.4194 21h-4.83875c-4.54839 0-6.58065-2.0323-6.58065-6.5806v-4.83875c0-4.54839 2.03226-6.58065 6.58065-6.58065h1.64515c.5807 0 .9677.3871.9677.96774 0 .58065-.387.96774-.9677.96774h-1.64515c-3.48388 0-4.64517 1.16129-4.64517 4.64517v4.83875c0 3.4838 1.16129 4.6451 4.64517 4.6451h4.83875c3.4838 0 4.6451-1.1613 4.6451-4.6451v-1.6452c0-.5807.3871-.9677.9678-.9677.5806 0 .9677.387.9677.9677v1.6452c0 4.5483-2.0323 6.5806-6.5806 6.5806zm-1.6452-8.8065c-.2903 0-.4839-.0967-.6774-.2903-.3871-.3871-.3871-.9677 0-1.3548l5.6129-5.61292h-1.5484c-.5807 0-.9677-.38709-.9677-.96774 0-.58064.387-.96774.9677-.96774h3.871c.5806 0 .9677.3871.9677.96774v3.87097c0 .58065-.3871.96774-.9677.96774-.5807 0-.9678-.38709-.9678-.96774v-1.54839l-5.6129 5.61288c-.1935.1936-.3871.2903-.6774.2903z" fill="currentColor"/></svg>