<svg width="24" height="25" viewBox="0 0 24 25" fill="none" xmlns="http://www.w3.org/2000/svg">
<g id="eye">
<g id="Vector">
<path d="M21.25 9.67659C18.94 6.07414 15.56 4 12 4C10.22 4 8.49 4.51605 6.91 5.47869C5.33 6.45126 3.91 7.8704 2.75 9.67659C1.75 11.2347 1.75 13.7653 2.75 15.3234C5.06 18.9358 8.44 21 12 21C13.78 21 15.51 20.4839 17.09 19.5213C18.67 18.5487 20.09 17.1296 21.25 15.3234C22.25 13.7752 22.25 11.2347 21.25 9.67659ZM12 16.5143C9.76 16.5143 7.96 14.718 7.96 12.505C7.96 10.2919 9.76 8.49562 12 8.49562C14.24 8.49562 16.04 10.2919 16.04 12.505C16.04 14.718 14.24 16.5143 12 16.5143Z" fill="#686E7D"/>
<path d="M11.9999 9.66663C10.4299 9.66663 9.1499 10.9369 9.1499 12.5049C9.1499 14.063 10.4299 15.3333 11.9999 15.3333C13.5699 15.3333 14.8599 14.063 14.8599 12.5049C14.8599 10.9468 13.5699 9.66663 11.9999 9.66663Z" fill="#686E7D"/>
</g>
</g>
</svg>
