<svg width="24" height="25" viewBox="0 0 24 25" fill="none" xmlns="http://www.w3.org/2000/svg">
<g id="eye-slash">
<g id="Vector">
<path d="M21.2623 9.67981C20.9724 9.21981 20.6625 8.78981 20.3427 8.38981C19.9728 7.91981 19.2731 7.87981 18.8533 8.29981L15.8544 11.2998C16.0744 11.9598 16.1143 12.7198 15.9144 13.5098C15.5646 14.9198 14.425 16.0598 13.0156 16.4098C12.2259 16.6098 11.4662 16.5698 10.8065 16.3498C10.8065 16.3498 9.37702 17.7798 8.34743 18.8098C7.84763 19.3098 8.00756 20.1898 8.6773 20.4498C9.74687 20.8598 10.8564 21.0698 11.996 21.0698C13.7753 21.0698 15.5046 20.5498 17.084 19.5798C18.6933 18.5798 20.1427 17.1098 21.3123 15.2398C22.2619 13.7298 22.2119 11.1898 21.2623 9.67981Z" fill="#686E7D"/>
<path d="M14.0154 10.4801L9.97697 14.5201C9.46717 14.0001 9.1373 13.2801 9.1373 12.5001C9.1373 10.9301 10.4168 9.64014 11.9962 9.64014C12.7759 9.64014 13.4956 9.97014 14.0154 10.4801Z" fill="#686E7D"/>
<path d="M18.2435 6.25018L14.8549 9.64018C14.1252 8.90018 13.1156 8.46018 11.996 8.46018C9.75692 8.46018 7.95763 10.2702 7.95763 12.5002C7.95763 13.6202 8.40746 14.6302 9.13717 15.3602L5.75851 18.7502H5.74851C4.63895 17.8502 3.61936 16.7002 2.7497 15.3402C1.7501 13.7702 1.7501 11.2202 2.7497 9.65018C3.90924 7.83017 5.32868 6.40018 6.90805 5.42018C8.48742 4.46018 10.2167 3.93018 11.996 3.93018C14.2251 3.93018 16.3843 4.75018 18.2435 6.25018Z" fill="#686E7D"/>
<path d="M14.8549 12.5C14.8549 14.07 13.5754 15.36 11.996 15.36C11.9361 15.36 11.8861 15.36 11.8261 15.34L14.8349 12.33C14.8549 12.39 14.8549 12.44 14.8549 12.5Z" fill="#686E7D"/>
<path d="M21.762 2.72988C21.4622 2.42988 20.9723 2.42988 20.6725 2.72988L2.22979 21.1899C1.92991 21.4899 1.92991 21.9799 2.22979 22.2799C2.37973 22.4199 2.56966 22.4999 2.76958 22.4999C2.9695 22.4999 3.15942 22.4199 3.30936 22.2699L21.762 3.80988C22.0719 3.50988 22.0719 3.02988 21.762 2.72988Z" fill="#686E7D"/>
</g>
</g>
</svg>
