<svg xmlns="http://www.w3.org/2000/svg" fill="none" height="24" viewBox="0 0 24 24" width="24"><path clip-rule="evenodd" d="M6.505 2a2.674 2.674 0 0 0-2.674 2.674v14.652A2.674 2.674 0 0 0 6.505 22h10.989a2.674 2.674 0 0 0 2.674-2.674V9.253a.844.844 0 0 0-.247-.596l-6.41-6.41A.842.842 0 0 0 12.915 2zm5.567 1.686H6.505a.989.989 0 0 0-.988.988v14.652a.988.988 0 0 0 .988.988h10.989a.988.988 0 0 0 .988-.988v-9.23h-5.567a.843.843 0 0 1-.843-.843zM17.29 8.41l-3.532-3.532V8.41z" fill="currentColor" fill-rule="evenodd"/></svg>