<svg width="25" height="24" viewBox="0 0 25 24" fill="none" xmlns="http://www.w3.org/2000/svg">
<path d="M21.2812 7.75H3.28125C2.87125 7.75 2.53125 7.41 2.53125 7C2.53125 6.59 2.87125 6.25 3.28125 6.25H21.2812C21.6912 6.25 22.0312 6.59 22.0312 7C22.0312 7.41 21.6912 7.75 21.2812 7.75Z" fill="currentColor"/>
<path d="M18.2812 12.75H6.28125C5.87125 12.75 5.53125 12.41 5.53125 12C5.53125 11.59 5.87125 11.25 6.28125 11.25H18.2812C18.6912 11.25 19.0312 11.59 19.0312 12C19.0312 12.41 18.6912 12.75 18.2812 12.75Z" fill="currentColor"/>
<path d="M14.2812 17.75H10.2812C9.87125 17.75 9.53125 17.41 9.53125 17C9.53125 16.59 9.87125 16.25 10.2812 16.25H14.2812C14.6912 16.25 15.0312 16.59 15.0312 17C15.0312 17.41 14.6912 17.75 14.2812 17.75Z" fill="currentColor"/>
</svg>
