<svg xmlns="http://www.w3.org/2000/svg" width="24" height="24" viewBox="0 0 24 24" fill="none"><path d="m22.62 9.33-2-1c-.37-.18-.83-.04-1.01.33-.19.38-.04.83.33 1.01l1.59.79v4.79l-3.75.01V5c0-2-1.34-3-3-3h-8c-1.66 0-3 1-3 3v16.25h-1.5c-.41 0-.75.34-.75.75s.34.75.75.75h17c.41 0 .75-.34.75-.75s-.34-.75-.75-.75h-1.5v-4.49l4.5-.01c.42 0 .75-.34.75-.75v-6a.76.76 0 0 0-.41-.67zM6.28 6.89C6.28 5.5 7.13 5 8.17 5h5.23c1.03 0 1.88.5 1.88 1.89v1.23c0 1.38-.85 1.88-1.89 1.88H8.17c-1.04 0-1.89-.5-1.89-1.89V6.89zm.5 5.36h3c.41 0 .75.34.75.75s-.34.75-.75.75h-3c-.41 0-.75-.34-.75-.75s.34-.75.75-.75z" fill="currentColor"/></svg>