<svg xmlns="http://www.w3.org/2000/svg" width="24" height="24" viewBox="0 0 24 24" fill="none"><path d="m22.082 20.82-.686-.686a3.406 3.406 0 0 0-2.848-5.276 3.406 3.406 0 0 0-3.41 3.41 3.406 3.406 0 0 0 5.277 2.847l.686.686a.693.693 0 0 0 .98-.98zM3.262 14.982c0 .028-.02.066-.02.095A9.042 9.042 0 0 0 7.3 19.134c.028 0 .067-.019.095-.019a27.337 27.337 0 0 1-.752-3.371 28.955 28.955 0 0 1-3.381-.762zM19.491 7.172a9.048 9.048 0 0 0-4.276-4.277c.343 1.134.629 2.296.819 3.458 1.162.19 2.324.466 3.457.819zM3.167 7.172a27.73 27.73 0 0 1 3.466-.82c.19-1.133.429-2.257.753-3.361-.029 0-.067-.02-.095-.02-1.791.886-3.248 2.382-4.124 4.2zM14.491 6.153c-.229-1.239-.514-2.477-.924-3.677-.019-.066-.019-.124-.028-.2A9.36 9.36 0 0 0 11.329 2c-.772 0-1.505.105-2.22.286-.009.066 0 .124-.018.2-.4 1.2-.696 2.428-.924 3.667a29.248 29.248 0 0 1 6.324 0zM6.433 7.886a27.316 27.316 0 0 0-3.676.924c-.067.02-.124.02-.19.029a8.893 8.893 0 0 0-.286 2.21c0 .77.105 1.504.285 2.219.067.009.124 0 .2.018 1.2.4 2.43.696 3.677.924a28.654 28.654 0 0 1-.01-6.324zM20.091 8.839a.779.779 0 0 1-.2-.029c-1.2-.4-2.438-.695-3.676-.924.238 2.105.238 4.22 0 6.315 1.238-.229 2.476-.514 3.676-.924.067-.019.124-.01.2-.019a9.44 9.44 0 0 0 .286-2.22c0-.752-.105-1.485-.286-2.2zM8.167 15.944c.228 1.247.514 2.476.923 3.676.02.067.01.124.02.2a9.442 9.442 0 0 0 2.219.276c.762 0 1.505-.105 2.21-.285.009-.067.009-.124.028-.2.4-1.2.695-2.43.924-3.677-1.048.114-2.105.2-3.162.2-1.058 0-2.115-.076-3.162-.19zM7.948 7.667a26.856 26.856 0 0 0 0 6.772 26.85 26.85 0 0 0 6.772 0 26.859 26.859 0 0 0 0-6.772 26.856 26.856 0 0 0-6.772 0z" fill="currentColor"/></svg>