<svg xmlns="http://www.w3.org/2000/svg" width="24" height="24" viewBox="0 0 24 24" fill="none"><path d="M7.93 20.91c-.03 0-.07.02-.1.02-1.94-.96-3.52-2.55-4.49-4.49 0-.03.02-.07.02-.1 1.22.36 2.48.63 3.73.84.22 1.26.48 2.51.84 3.73zM21.22 16.45c-.99 1.99-2.64 3.6-4.65 4.57.38-1.27.7-2.55.91-3.84 1.26-.21 2.5-.48 3.72-.84-.01.04.02.08.02.11zM21.3 7.71c-1.26-.38-2.53-.69-3.82-.91-.21-1.29-.52-2.57-.91-3.82 2.07.99 3.74 2.66 4.73 4.73zM7.93 3.09c-.36 1.22-.62 2.46-.83 3.72-1.29.2-2.57.52-3.84.9.97-2.01 2.58-3.66 4.57-4.65.03 0 .07.03.1.03zM15.77 6.59c-2.32-.26-4.66-.26-6.98 0 .25-1.37.57-2.74 1.02-4.06.02-.08.01-.14.02-.22.79-.19 1.6-.31 2.45-.31.84 0 1.66.12 2.44.31.01.08.01.14.03.22.45 1.33.77 2.69 1.02 4.06zM6.87 15.49c-1.38-.25-2.74-.57-4.06-1.02-.08-.02-.14-.01-.22-.02-.19-.79-.31-1.6-.31-2.45 0-.84.12-1.66.31-2.44.08-.01.14-.01.22-.03 1.33-.44 2.68-.77 4.06-1.02-.25 2.32-.25 4.66 0 6.98zM22.28 12c0 .85-.12 1.66-.31 2.45-.08.01-.14 0-.22.02-1.33.44-2.69.77-4.06 1.02.26-2.32.26-4.66 0-6.98 1.37.25 2.74.57 4.06 1.02.08.02.14.03.22.03.19.79.31 1.6.31 2.44zM15.77 17.41c-.25 1.38-.57 2.74-1.02 4.06-.02.08-.02.14-.03.22-.78.19-1.6.31-2.44.31-.85 0-1.66-.12-2.45-.31-.01-.08 0-.14-.02-.22a29.77 29.77 0 0 1-1.02-4.06c1.16.13 2.32.22 3.49.22 1.17 0 2.34-.09 3.49-.22zM16.044 15.763a30.035 30.035 0 0 1-7.527 0 30.039 30.039 0 0 1 0-7.526 30.04 30.04 0 0 1 7.527 0 30.035 30.035 0 0 1 0 7.526z" fill="currentColor"/></svg>