<svg viewBox="0 0 24 24" xmlns="http://www.w3.org/2000/svg"><path d="m40-160v-112q0-34 17.5-62.5t46.5-43.5q62-31 126-46.5t130-15.5q66 0 130 15.5t126 46.5q29 15 46.5 43.5t17.5 62.5v112zm720 0v-120q0-44-24.5-84.5t-69.5-69.5q51 6 96 20.5t84 35.5q36 20 55 44.5t19 53.5v120zm-513-367q-47-47-47-113t47-113q47-47 113-47t113 47q47 47 47 113t-47 113q-47 47-113 47t-113-47zm466 0q-47 47-113 47-11 0-28-2.5t-28-5.5q27-32 41.5-71t14.5-81q0-42-14.5-81t-41.5-71q14-5 28-6.5t28-1.5q66 0 113 47t47 113q0 66-47 113zm-593 287h480v-32q0-11-5.5-20t-14.5-14q-54-27-109-40.5t-111-13.5q-56 0-111 13.5t-109 40.5q-9 5-14.5 14t-5.5 20zm296.5-343.5q23.5-23.5 23.5-56.5t-23.5-56.5q-23.5-23.5-56.5-23.5t-56.5 23.5q-23.5 23.5-23.5 56.5t23.5 56.5q23.5 23.5 56.5 23.5t56.5-23.5z" transform="matrix(.025 0 0 .025 0 24)"/></svg>