<svg fill="none" height="24" viewBox="0 0 24 24" width="24" xmlns="http://www.w3.org/2000/svg"><g fill="currentColor"><path d="m8.4 16.5v2.7c0 .99-.81 1.8-1.8 1.8h-1.8c-.99 0-1.8-.81-1.8-1.8v-2.7c0-.99.81-1.8 1.8-1.8h1.8c.99 0 1.8.81 1.8 1.8z"/><path d="m7.5 4.08v3.24c0 .594-.486 1.08-1.08 1.08h-1.44c-.594 0-1.08-.486-1.08-1.08v-3.24c0-.594.486-1.08 1.08-1.08h1.44c.594 0 1.08.486 1.08 1.08z"/><path d="m14.25 4.08v3.24c0 .594-.486 1.08-1.08 1.08h-1.44c-.594 0-1.08-.486-1.08-1.08v-3.24c0-.594.486-1.08 1.08-1.08h1.44c.594 0 1.08.486 1.08 1.08z"/><path d="m13.125 8.4c0-.369-.306-.675-.675-.675s-.675.306-.675.675v2.475h-5.4v-2.475c0-.369-.306-.675-.675-.675s-.675.306-.675.675v6.3c0 .369.306.675.675.675s.675-.306.675-.675v-2.475h11.025c1.368 0 2.475-1.107 2.475-2.475v-1.35c0-.369-.306-.675-.675-.675s-.675.306-.675.675v1.35c0 .621-.504 1.125-1.125 1.125h-4.275z"/><path d="m21 4.08v3.24c0 .594-.486 1.08-1.08 1.08h-1.44c-.594 0-1.08-.486-1.08-1.08v-3.24c0-.594.486-1.08 1.08-1.08h1.44c.594 0 1.08.486 1.08 1.08z"/></g></svg>