<svg xmlns="http://www.w3.org/2000/svg" fill="none" height="24" viewBox="0 0 24 24" width="24"><g fill="currentColor"><path d="M8.4 16.5v2.7c0 .99-.81 1.8-1.8 1.8H4.8c-.99 0-1.8-.81-1.8-1.8v-2.7c0-.99.81-1.8 1.8-1.8h1.8c.99 0 1.8.81 1.8 1.8zM7.5 4.08v3.24c0 .594-.486 1.08-1.08 1.08H4.98c-.594 0-1.08-.486-1.08-1.08V4.08C3.9 3.486 4.386 3 4.98 3h1.44c.594 0 1.08.486 1.08 1.08zM14.25 4.08v3.24c0 .594-.486 1.08-1.08 1.08h-1.44c-.594 0-1.08-.486-1.08-1.08V4.08c0-.594.486-1.08 1.08-1.08h1.44c.594 0 1.08.486 1.08 1.08z"/><path d="M13.125 8.4c0-.369-.306-.675-.675-.675s-.675.306-.675.675v2.475h-5.4V8.4c0-.369-.306-.675-.675-.675s-.675.306-.675.675v6.3c0 .369.306.675.675.675s.675-.306.675-.675v-2.475H17.4a2.474 2.474 0 0 0 2.475-2.475V8.4c0-.369-.306-.675-.675-.675s-.675.306-.675.675v1.35c0 .621-.504 1.125-1.125 1.125h-4.275z"/><path d="M21 4.08v3.24c0 .594-.486 1.08-1.08 1.08h-1.44c-.594 0-1.08-.486-1.08-1.08V4.08c0-.594.486-1.08 1.08-1.08h1.44c.594 0 1.08.486 1.08 1.08z"/></g></svg>