<svg fill="none" height="64" viewBox="0 0 64 64" width="64" xmlns="http://www.w3.org/2000/svg"><g fill="#24272a"><path d="m28.4 36.5v2.7c0 .99-.81 1.8-1.8 1.8h-1.8c-.99 0-1.8-.81-1.8-1.8v-2.7c0-.99.81-1.8 1.8-1.8h1.8c.99 0 1.8.81 1.8 1.8z"/><path d="m27.5 24.08v3.24c0 .594-.486 1.08-1.08 1.08h-1.44c-.594 0-1.08-.486-1.08-1.08v-3.24c0-.594.486-1.08 1.08-1.08h1.44c.594 0 1.08.486 1.08 1.08z"/><path d="m34.25 24.08v3.24c0 .594-.486 1.08-1.08 1.08h-1.44c-.594 0-1.08-.486-1.08-1.08v-3.24c0-.594.486-1.08 1.08-1.08h1.44c.594 0 1.08.486 1.08 1.08z"/><path d="m33.125 28.4c0-.369-.306-.675-.675-.675s-.675.306-.675.675v2.475h-5.4v-2.475c0-.369-.306-.675-.675-.675s-.675.306-.675.675v6.3c0 .369.306.675.675.675s.675-.306.675-.675v-2.475h11.025c1.368 0 2.475-1.107 2.475-2.475v-1.35c0-.369-.306-.675-.675-.675s-.675.306-.675.675v1.35c0 .621-.504 1.125-1.125 1.125h-4.275z"/><path d="m41 24.08v3.24c0 .594-.486 1.08-1.08 1.08h-1.44c-.594 0-1.08-.486-1.08-1.08v-3.24c0-.594.486-1.08 1.08-1.08h1.44c.594 0 1.08.486 1.08 1.08z"/></g><rect height="63" rx="4.5" stroke="#9747ff" stroke-dasharray="10 5" width="63" x=".5" y=".5"/></svg>