<svg fill="none" height="24" width="24" viewBox="0 0 24 24" xmlns="http://www.w3.org/2000/svg"><g fill="currentColor"><path clip-rule="evenodd" d="M11.625 4.59 5.38 9.524a1 1 0 0 0-.38.784V17.5a1 1 0 0 0 1 1h12a1 1 0 0 0 1-1v-7.254a1 1 0 0 0-.354-.763l-5.755-4.871a1 1 0 0 0-1.266-.022zM4.14 7.954l6.245-4.933a3 3 0 0 1 3.798.064l5.755 4.871A3 3 0 0 1 21 10.246V17.5a3 3 0 0 1-3 3H6a3 3 0 0 1-3-3v-7.192a3 3 0 0 1 1.14-2.354z" fill-rule="evenodd"/><rect height="4.091" rx=".878" width="1.756" x="11.122" y="12.136"/></g></svg>