<svg xmlns="http://www.w3.org/2000/svg" fill="none" height="24" viewBox="0 0 24 24" width="24"><path clip-rule="evenodd" d="M12.004 3c.473 0 .856.375.856.837v9.7l1.406-1.376a.87.87 0 0 1 1.21 0 .824.824 0 0 1 0 1.184L12.61 16.15a.87.87 0 0 1-1.21 0l-2.867-2.805a.824.824 0 0 1 0-1.184.87.87 0 0 1 1.21 0l1.406 1.376v-9.7c0-.462.383-.837.856-.837zm2.948 6.542a.85.85 0 0 1 .926-.762c1.668.14 3.016.646 3.917 1.732C20.675 11.575 21 13.04 21 14.813v.109c0 1.954-.395 3.54-1.495 4.616S16.784 21 14.786 21H9.214c-1.998 0-3.619-.386-4.719-1.462S3 16.876 3 14.922v-.109c0-1.76.32-3.216 1.187-4.277.887-1.084 2.215-1.597 3.86-1.747a.85.85 0 0 1 .932.756.843.843 0 0 1-.773.91c-1.384.127-2.191.527-2.682 1.127-.511.625-.812 1.625-.812 3.231v.109c0 1.788.371 2.823.993 3.432s1.68.972 3.509.972h5.572c1.828 0 2.886-.364 3.509-.972.622-.609.993-1.644.993-3.432v-.109c0-1.619-.305-2.622-.823-3.246-.499-.601-1.321-1-2.734-1.119a.843.843 0 0 1-.78-.906z" fill="currentColor" fill-rule="evenodd"/></svg>