<svg width="28" height="28" viewBox="0 0 28 28" fill="none" xmlns="http://www.w3.org/2000/svg">
<path d="M13.1667 18.1667H14.8334V13.1667H13.1667V18.1667ZM14 11.5C14.2361 11.5 14.434 11.4201 14.5938 11.2604C14.7535 11.1007 14.8334 10.9028 14.8334 10.6667C14.8334 10.4305 14.7535 10.2326 14.5938 10.0729C14.434 9.91318 14.2361 9.83332 14 9.83332C13.7639 9.83332 13.566 9.91318 13.4063 10.0729C13.2465 10.2326 13.1667 10.4305 13.1667 10.6667C13.1667 10.9028 13.2465 11.1007 13.4063 11.2604C13.566 11.4201 13.7639 11.5 14 11.5ZM14 22.3333C12.8472 22.3333 11.7639 22.1146 10.75 21.6771C9.73613 21.2396 8.85419 20.6458 8.10419 19.8958C7.35419 19.1458 6.76044 18.2639 6.32294 17.25C5.88544 16.2361 5.66669 15.1528 5.66669 14C5.66669 12.8472 5.88544 11.7639 6.32294 10.75C6.76044 9.7361 7.35419 8.85416 8.10419 8.10416C8.85419 7.35416 9.73613 6.76041 10.75 6.32291C11.7639 5.88541 12.8472 5.66666 14 5.66666C15.1528 5.66666 16.2361 5.88541 17.25 6.32291C18.2639 6.76041 19.1459 7.35416 19.8959 8.10416C20.6459 8.85416 21.2396 9.7361 21.6771 10.75C22.1146 11.7639 22.3334 12.8472 22.3334 14C22.3334 15.1528 22.1146 16.2361 21.6771 17.25C21.2396 18.2639 20.6459 19.1458 19.8959 19.8958C19.1459 20.6458 18.2639 21.2396 17.25 21.6771C16.2361 22.1146 15.1528 22.3333 14 22.3333ZM14 20.6667C15.8611 20.6667 17.4375 20.0208 18.7292 18.7292C20.0209 17.4375 20.6667 15.8611 20.6667 14C20.6667 12.1389 20.0209 10.5625 18.7292 9.27082C17.4375 7.97916 15.8611 7.33332 14 7.33332C12.1389 7.33332 10.5625 7.97916 9.27085 9.27082C7.97919 10.5625 7.33335 12.1389 7.33335 14C7.33335 15.8611 7.97919 17.4375 9.27085 18.7292C10.5625 20.0208 12.1389 20.6667 14 20.6667Z" fill="#121314"/>
</svg>
