<svg width="24" height="24" viewBox="0 0 24 24" fill="none" xmlns="http://www.w3.org/2000/svg">
<path d="M11.1667 16.167H12.8334V11.167H11.1667V16.167ZM12 9.50033C12.2361 9.50033 12.434 9.42047 12.5938 9.26074C12.7535 9.10102 12.8334 8.9031 12.8334 8.66699C12.8334 8.43088 12.7535 8.23296 12.5938 8.07324C12.434 7.91352 12.2361 7.83366 12 7.83366C11.7639 7.83366 11.566 7.91352 11.4063 8.07324C11.2465 8.23296 11.1667 8.43088 11.1667 8.66699C11.1667 8.9031 11.2465 9.10102 11.4063 9.26074C11.566 9.42047 11.7639 9.50033 12 9.50033ZM12 20.3337C10.8472 20.3337 9.76391 20.1149 8.75002 19.6774C7.73613 19.2399 6.85419 18.6462 6.10419 17.8962C5.35419 17.1462 4.76044 16.2642 4.32294 15.2503C3.88544 14.2364 3.66669 13.1531 3.66669 12.0003C3.66669 10.8475 3.88544 9.76422 4.32294 8.75033C4.76044 7.73644 5.35419 6.85449 6.10419 6.10449C6.85419 5.35449 7.73613 4.76074 8.75002 4.32324C9.76391 3.88574 10.8472 3.66699 12 3.66699C13.1528 3.66699 14.2361 3.88574 15.25 4.32324C16.2639 4.76074 17.1459 5.35449 17.8959 6.10449C18.6459 6.85449 19.2396 7.73644 19.6771 8.75033C20.1146 9.76422 20.3334 10.8475 20.3334 12.0003C20.3334 13.1531 20.1146 14.2364 19.6771 15.2503C19.2396 16.2642 18.6459 17.1462 17.8959 17.8962C17.1459 18.6462 16.2639 19.2399 15.25 19.6774C14.2361 20.1149 13.1528 20.3337 12 20.3337ZM12 18.667C13.8611 18.667 15.4375 18.0212 16.7292 16.7295C18.0209 15.4378 18.6667 13.8614 18.6667 12.0003C18.6667 10.1392 18.0209 8.56283 16.7292 7.27116C15.4375 5.97949 13.8611 5.33366 12 5.33366C10.1389 5.33366 8.56252 5.97949 7.27085 7.27116C5.97919 8.56283 5.33335 10.1392 5.33335 12.0003C5.33335 13.8614 5.97919 15.4378 7.27085 16.7295C8.56252 18.0212 10.1389 18.667 12 18.667Z" fill="#121314"/>
</svg>
