<svg xmlns="http://www.w3.org/2000/svg" width="24" height="24" viewBox="0 0 24 24" fill="none"><path d="M9.27 21.5c-1.66 0-3.33-.63-4.6-1.9-2.53-2.54-2.53-6.66 0-9.19.29-.29.77-.29 1.06 0 .29.29.29.77 0 1.06a5.003 5.003 0 0 0 0 7.07 5.003 5.003 0 0 0 7.07 0c.94-.94 1.46-2.2 1.46-3.54 0-1.33-.52-2.59-1.46-3.54a.754.754 0 0 1 0-1.06c.29-.29.77-.29 1.06 0a6.45 6.45 0 0 1 1.9 4.6c0 1.74-.68 3.37-1.9 4.6a6.432 6.432 0 0 1-4.59 1.9z" fill="currentColor"/><path d="M19.35 14.16c-.19 0-.38-.07-.53-.22a.754.754 0 0 1 0-1.06c2.05-2.05 2.05-5.38 0-7.42-2.05-2.05-5.38-2.05-7.42 0a5.22 5.22 0 0 0-1.54 3.71c0 1.4.55 2.72 1.54 3.71.29.29.29.77 0 1.06-.29.29-.77.29-1.06 0a6.719 6.719 0 0 1-1.98-4.77c0-1.8.7-3.5 1.98-4.77 2.63-2.63 6.91-2.63 9.55 0 2.63 2.63 2.63 6.92 0 9.55-.15.14-.35.21-.54.21z" fill="currentColor"/></svg>