<svg xmlns="http://www.w3.org/2000/svg" width="24" height="24" viewBox="0 0 24 24" fill="none"><path d="M12.28 17.35a1.63 1.63 0 1 0 .001-3.26 1.63 1.63 0 0 0 0 3.26z" fill="currentColor"/><path d="M18.56 9.53V8.28c0-2.7-.65-6.28-6.28-6.28S6 5.58 6 8.28v1.25c-2.8.35-3.72 1.77-3.72 5.26v1.86c0 4.1 1.25 5.35 5.35 5.35h9.3c4.1 0 5.35-1.25 5.35-5.35v-1.86c0-3.49-.92-4.91-3.72-5.26zm-6.28 9.21c-1.67 0-3.02-1.36-3.02-3.02 0-1.67 1.36-3.02 3.02-3.02a3.03 3.03 0 0 1 3.02 3.02c0 1.67-1.35 3.02-3.02 3.02zm-4.65-9.3H7.4V8.28c0-2.93.83-4.88 4.88-4.88s4.88 1.95 4.88 4.88v1.17H7.63v-.01z" fill="currentColor"/></svg>