<svg xmlns="http://www.w3.org/2000/svg" width="24" height="24" viewBox="0 0 24 24" fill="none"><path d="M13.91 15.72c0 .9-.73 1.63-1.63 1.63-.64 0-1.19-.37-1.45-.9l2.18-2.18c.53.26.9.81.9 1.45zM22.05 2.23c-.3-.3-.79-.3-1.09 0l-2.81 2.81C17.38 3.02 15.41 2 12.28 2 6.65 2 6 5.58 6 8.28v1.25h.03c-2.83.34-3.75 1.75-3.75 5.26v1.86c0 1.6.19 2.76.67 3.59l-.45.45c-.3.3-.3.79 0 1.09.16.14.35.22.55.22.2 0 .39-.08.54-.23L22.05 3.31c.31-.3.31-.78 0-1.08zM7.63 9.44H7.4V8.28c0-2.93.83-4.88 4.88-4.88 3.4 0 4.47 1.3 4.77 2.75l-3.29 3.29H7.63z" fill="currentColor"/><path d="M22.28 14.79v1.86c0 4.1-1.25 5.35-5.35 5.35H7.69c-.89 0-1.33-1.08-.7-1.71l2.82-2.82c.07.1.15.19.23.28.7.76 1.74 1.16 2.89.92.09-.02.18-.04.27-.08.09-.02.17-.05.25-.09.2-.07.39-.18.57-.31.07-.04.13-.09.18-.14.15-.12.29-.26.41-.41.05-.05.1-.11.14-.18.13-.18.24-.37.31-.57.04-.08.07-.16.09-.25.04-.09.06-.18.08-.27.24-1.15-.16-2.19-.92-2.89-.08-.08-.18-.16-.28-.23l3.12-3.12c.05-.05.09-.09.14-.13.4-.33.91-.49 1.42-.45.09.01.19.02.28.04a6.178 6.178 0 0 1 .96.25c.29.11.54.24.77.39.23.15.42.33.6.54.09.11.18.23.25.36.07.11.13.23.19.36.06.13.11.27.16.41.06.17.11.36.15.56.04.14.06.29.09.45.02.15.04.31.06.48.04.42.06.89.06 1.4z" fill="currentColor"/></svg>