<svg viewBox="0 0 24 24" xmlns="http://www.w3.org/2000/svg"><path d="m21.9956 8.43993-1.3524 3.61547 1.3568 4.5347-.1069.287-1.6403 4.3851-4.0482-1.0159-3.0589 1.7537h-2.2896l-3.05979-1.7537-4.04735 1.0159-1.74278-4.6597 1.35059-4.967-1.23222-2.88292-.12455-.29051 1.7578-6.46207 6.6902 4.12825h3.1058l6.6902-4.12825zm-7.9295-.49777h-4.1304l-5.06846-3.12829-.95663 3.51535 1.35765 3.17438-1.36295 5.0095.97076 2.5969 3.18788-.7989 3.27265 1.875h1.3285l3.2727-1.875 3.187.7989.9664-2.5845-1.3559-4.5339.1069-.287 1.2534-3.35413-.962-3.5366z"/></svg>