<svg viewBox="0 0 24 24" xmlns="http://www.w3.org/2000/svg"><path d="m12.7656 7.91699h2.9239v1.5h-5.5821l-.47361.45703v1.00688l.44731.3837h4.4365l.2187.2188.9102.9043.2207.2197v2.1026l-1.3438 1.374h-1.7578v1.4385h-1.5v-1.4385h-2.9238v-1.5h5.5508l.4746-.4863v-.8663l-.4697-.4668h-4.37113l-.20996-.1806-1.18262-1.0127v-2.33497l1.36719-1.31934h1.76462v-1.43945h1.5z" fill="currentColor"/><path clip-rule="evenodd" d="m12 2c5.5228 0 10 4.47715 10 10 0 5.5228-4.4772 10-10 10-5.52285 0-10-4.4772-10-10 0-5.52285 4.47715-10 10-10zm0 2c-4.41828 0-8 3.58172-8 8 0 4.4183 3.58172 8 8 8 4.4183 0 8-3.5817 8-8 0-4.41828-3.5817-8-8-8z" fill-rule="evenodd" fill="currentColor"/></svg>
