<svg viewBox="0 0 24 24" xmlns="http://www.w3.org/2000/svg"><path clip-rule="evenodd" d="m12 2c5.5228 0 9.9999 4.47726 10 10 0 5.5228-4.4772 10-10 10-5.52285 0-10-4.4772-10-10 .00013-5.52274 4.47723-10 10-10zm-.9844 3.85742v1.81153h-1.61521l-.29004.28027-1.22656 1.18262v2.55666l.34961.2988.91992.7891.28125.2402h4.36133l.3213.3193v.6621l-.3301.3379h-5.4453v2h2.6738v1.8067h2v-1.8067h1.6133l1.4883-1.5214v-2.3086l-.2949-.294-1.2022-1.1953h-4.4463l-.29001-.249v-.78713l.32421-.31152h5.4815v-2h-2.6739v-1.81153z" fill-rule="evenodd"/></svg>
