<svg width="20" height="20" viewBox="0 0 20 20" fill="none" xmlns="http://www.w3.org/2000/svg">
<path d="M4.75 7C5.99264 7 7 5.99264 7 4.75C7 3.50736 5.99264 2.5 4.75 2.5C3.50736 2.5 2.5 3.50736 2.5 4.75C2.5 5.99264 3.50736 7 4.75 7Z" fill="currentColor"/>
<path d="M15.25 12.25C16.4926 12.25 17.5 11.2426 17.5 10C17.5 8.75736 16.4926 7.75 15.25 7.75C14.0074 7.75 13 8.75736 13 10C13 11.2426 14.0074 12.25 15.25 12.25Z" fill="currentColor"/>
<path d="M4.75 17.5C5.99264 17.5 7 16.4926 7 15.25C7 14.0074 5.99264 13 4.75 13C3.50736 13 2.5 14.0074 2.5 15.25C2.5 16.4926 3.50736 17.5 4.75 17.5Z" fill="currentColor"/>
<path d="M4.75 13.5625C4.4425 13.5625 4.1875 13.3075 4.1875 13V7C4.1875 6.6925 4.4425 6.4375 4.75 6.4375C5.0575 6.4375 5.3125 6.6925 5.3125 7C5.3125 8.6425 6.1075 9.4375 7.75 9.4375H13C13.3075 9.4375 13.5625 9.6925 13.5625 10C13.5625 10.3075 13.3075 10.5625 13 10.5625H7.75C6.73 10.5625 5.9125 10.3 5.3125 9.805V13C5.3125 13.3075 5.0575 13.5625 4.75 13.5625Z" fill="currentColor"/>
</svg>
