<svg viewBox="0 0 24 24" xmlns="http://www.w3.org/2000/svg"><path d="m22.0002 19.1248-2-2v-10.12509h-4.05l-1.825-2h-4.24991l-.95 1.05-1.425-1.425 1.5-1.625h5.99991l1.85 2h3.15c.55 0 1.0209.19583 1.4125.5875.3917.39167.5875.8625.5875 1.4125zm-17.99991 1.875c-.55 0-1.02083-.1959-1.4125-.5875-.39167-.3917-.5875-.8625-.5875-1.4125v-12.00009c0-.55.19583-1.02083.5875-1.4125s.8625-.5875 1.4125-.5875h1.025l2 2h-3.025v12.00009h15.02491l2 2zm11.64991-5.375c-.4166.5666-.9375 1.0208-1.5625 1.3625-.625.3416-1.3208.5125-2.0875.5125-1.25 0-2.31241-.4375-3.18741-1.3125s-1.3125-1.9375-1.3125-3.1875c0-.7667.17083-1.4625.5125-2.0875s.79583-1.14592 1.3625-1.56259l1.44991 1.45009c-.4.2166-.7208.5166-.96241.9-.24167.3833-.3625.8166-.3625 1.3 0 .7.24167 1.2916.72491 1.775.4834.4833 1.075.725 1.775.725.4834 0 .9167-.1209 1.3-.3625.3834-.2417.6834-.5625.9-.9625zm-.45-5.82509c.4167.40009.7375.87509.9625 1.42509s.3375 1.1416.3375 1.775v.3c0 .1-.0083.2-.025.3l-5.075-5.07509c.1-.01667.2-.025.3-.025h.3c.6334 0 1.225.1125 1.775.3375s1.025.54583 1.425.9625zm5.275 13.50009-19.799907-19.80009 1.424997-1.425 19.79991 19.80009z"/></svg>