<svg width="20" height="20" viewBox="0 0 20 20" fill="none" xmlns="http://www.w3.org/2000/svg">
<path fill-rule="evenodd" clip-rule="evenodd" d="M8.54171 6.66667C8.54171 6.32149 8.82153 6.04167 9.16671 6.04167H13.3334C13.6786 6.04167 13.9584 6.32149 13.9584 6.66667C13.9584 7.01185 13.6786 7.29167 13.3334 7.29167H9.16671C8.82153 7.29167 8.54171 7.01185 8.54171 6.66667Z" fill="currentColor"/>
<path fill-rule="evenodd" clip-rule="evenodd" d="M8.54171 13.3333C8.54171 12.9882 8.82153 12.7083 9.16671 12.7083H13.3334C13.6786 12.7083 13.9584 12.9882 13.9584 13.3333C13.9584 13.6785 13.6786 13.9583 13.3334 13.9583H9.16671C8.82153 13.9583 8.54171 13.6785 8.54171 13.3333Z" fill="currentColor"/>
<path fill-rule="evenodd" clip-rule="evenodd" d="M8.54171 10C8.54171 9.65483 8.82153 9.37501 9.16671 9.37501H13.3334C13.6786 9.37501 13.9584 9.65483 13.9584 10C13.9584 10.3452 13.6786 10.625 13.3334 10.625H9.16671C8.82153 10.625 8.54171 10.3452 8.54171 10Z" fill="currentColor"/>
<path fill-rule="evenodd" clip-rule="evenodd" d="M5.00004 2.29167C4.42474 2.29167 3.95837 2.75804 3.95837 3.33334V16.6667C3.95837 17.242 4.42474 17.7083 5.00004 17.7083H15C15.5753 17.7083 16.0417 17.242 16.0417 16.6667V3.33334C16.0417 2.75804 15.5753 2.29167 15 2.29167H5.00004ZM2.70837 3.33334C2.70837 2.06769 3.73439 1.04167 5.00004 1.04167H15C16.2657 1.04167 17.2917 2.06769 17.2917 3.33334V16.6667C17.2917 17.9323 16.2657 18.9583 15 18.9583H5.00004C3.73439 18.9583 2.70837 17.9323 2.70837 16.6667V3.33334Z" fill="currentColor"/>
<path d="M7.50004 6.66667C7.50004 7.12691 7.12694 7.50001 6.66671 7.50001C6.20647 7.50001 5.83337 7.12691 5.83337 6.66667C5.83337 6.20643 6.20647 5.83334 6.66671 5.83334C7.12694 5.83334 7.50004 6.20643 7.50004 6.66667Z" fill="currentColor"/>
<path d="M7.50004 13.3333C7.50004 13.7936 7.12694 14.1667 6.66671 14.1667C6.20647 14.1667 5.83337 13.7936 5.83337 13.3333C5.83337 12.8731 6.20647 12.5 6.66671 12.5C7.12694 12.5 7.50004 12.8731 7.50004 13.3333Z" fill="currentColor"/>
<path d="M7.50004 10C7.50004 10.4602 7.12694 10.8333 6.66671 10.8333C6.20647 10.8333 5.83337 10.4602 5.83337 10C5.83337 9.53977 6.20647 9.16667 6.66671 9.16667C7.12694 9.16667 7.50004 9.53977 7.50004 10Z" fill="currentColor"/>
</svg>
