<svg xmlns="http://www.w3.org/2000/svg" width="24" height="24" viewBox="0 0 24 24" fill="none"><path d="M17.811 7.77a.74.74 0 0 0-.21 0 2.874 2.874 0 0 1-2.78-2.88c0-1.59 1.29-2.89 2.89-2.89 1.59 0 2.89 1.29 2.89 2.89a2.89 2.89 0 0 1-2.79 2.88zM21.07 14.7c-1.12.75-2.69 1.03-4.14.84.38-.82.58-1.73.59-2.69 0-1-.22-1.95-.64-2.78 1.48-.2 3.05.08 4.18.83 1.58 1.04 1.58 2.75.01 3.8zM6.721 7.77c.07-.01.14-.01.21 0a2.874 2.874 0 0 0 2.78-2.88 2.885 2.885 0 1 0-5.77 0c0 1.56 1.23 2.83 2.78 2.88zM6.831 12.85c0 .97.21 1.89.59 2.72-1.41.15-2.88-.15-3.96-.86-1.58-1.05-1.58-2.76 0-3.81 1.07-.72 2.58-1.01 4-.85-.41.84-.63 1.79-.63 2.8zM12.401 15.87a1.13 1.13 0 0 0-.26 0 3.425 3.425 0 0 1-3.31-3.43c.01-1.9 1.54-3.44 3.45-3.44 1.9 0 3.44 1.54 3.44 3.44a3.434 3.434 0 0 1-3.32 3.43zM9.151 17.94c-1.51 1.01-1.51 2.67 0 3.67 1.72 1.15 4.54 1.15 6.26 0 1.51-1.01 1.51-2.67 0-3.67-1.71-1.15-4.53-1.15-6.26 0z" fill="currentColor"/></svg>