<svg width="25" height="24" viewBox="0 0 25 24" fill="none" xmlns="http://www.w3.org/2000/svg">
<path d="M17.8113 7.77C17.7413 7.76 17.6712 7.76 17.6012 7.77C16.0512 7.72 14.8212 6.45 14.8212 4.89C14.8212 3.3 16.1113 2 17.7113 2C19.3013 2 20.6012 3.29 20.6012 4.89C20.5912 6.45 19.3613 7.72 17.8113 7.77Z" fill="currentColor"/>
<path d="M21.0709 14.6999C19.9509 15.4499 18.3809 15.7299 16.9309 15.5399C17.3109 14.7199 17.5109 13.8099 17.5209 12.8499C17.5209 11.8499 17.3009 10.8999 16.8809 10.0699C18.3609 9.86991 19.9309 10.1499 21.0609 10.8999C22.6409 11.9399 22.6409 13.6499 21.0709 14.6999Z" fill="currentColor"/>
<path d="M6.72141 7.77C6.79141 7.76 6.86141 7.76 6.93141 7.77C8.48141 7.72 9.71141 6.45 9.71141 4.89C9.71141 3.29 8.42141 2 6.82141 2C5.23141 2 3.94141 3.29 3.94141 4.89C3.94141 6.45 5.17141 7.72 6.72141 7.77Z" fill="currentColor"/>
<path d="M6.83137 12.8501C6.83137 13.8201 7.04137 14.7401 7.42137 15.5701C6.01137 15.7201 4.54137 15.4201 3.46137 14.7101C1.88137 13.6601 1.88137 11.9501 3.46137 10.9001C4.53137 10.1801 6.04137 9.8901 7.46137 10.0501C7.05137 10.8901 6.83137 11.8401 6.83137 12.8501Z" fill="currentColor"/>
<path d="M12.4011 15.87C12.3211 15.86 12.2311 15.86 12.1411 15.87C10.3011 15.81 8.83105 14.3 8.83105 12.44C8.84105 10.54 10.3711 9 12.2811 9C14.1811 9 15.7211 10.54 15.7211 12.44C15.7111 14.3 14.2511 15.81 12.4011 15.87Z" fill="currentColor"/>
<path d="M9.15105 17.9401C7.64105 18.9501 7.64105 20.6101 9.15105 21.6101C10.8711 22.7601 13.6911 22.7601 15.4111 21.6101C16.9211 20.6001 16.9211 18.9401 15.4111 17.9401C13.7011 16.7901 10.8811 16.7901 9.15105 17.9401Z" fill="currentColor"/>
</svg>
