<svg width="20" height="20" viewBox="0 0 20 20" fill="none" xmlns="http://www.w3.org/2000/svg">
<path d="M13.0303 15.8334C12.5757 15.8334 12.2727 15.5 12.2727 15C12.2727 14.5 12.5757 14.1667 13.0303 14.1667C15.1515 14.1667 16.8181 12.3334 16.8181 10C16.8181 7.66669 15.1515 5.83335 13.0303 5.83335C10.9091 5.83335 9.24238 7.66669 9.24238 10C9.24238 10.5 8.93935 10.8334 8.48481 10.8334C8.03026 10.8334 7.72723 10.5 7.72723 10C7.72723 6.75002 10.0757 4.16669 13.0303 4.16669C15.9848 4.16669 18.3333 6.75002 18.3333 10C18.3333 13.25 15.9848 15.8334 13.0303 15.8334ZM6.81814 15.6667C3.93935 15.6667 1.66663 13.0834 1.66663 10C1.66663 6.91669 3.93935 4.33335 6.81814 4.33335C7.27269 4.33335 7.57572 4.66669 7.57572 5.16669C7.57572 5.66669 7.27269 6.00002 6.81814 6.00002C4.77269 6.00002 3.18178 7.83335 3.18178 10C3.18178 12.1667 4.77269 14 6.81814 14C8.8636 14 10.4545 12.25 10.4545 10C10.4545 9.50002 10.7575 9.16669 11.2121 9.16669C11.6666 9.16669 11.9697 9.50002 11.9697 10C11.8939 13.0834 9.62117 15.6667 6.81814 15.6667Z" fill="currentColor"/>
</svg>
