<svg fill="none" height="24" width="24" viewBox="0 0 24 24" xmlns="http://www.w3.org/2000/svg"><path clip-rule="evenodd" d="M21.992 3.034c-.028-.556-.483-1-1.055-1.026-.749-.034-4.08-.063-6.473 2.265C13.275 5.43 12.617 6.88 12.249 8.1c-.24.798-.366 1.524-.432 2.055h-.011c-.571-1.104-1.486-2.431-2.874-3.372C6.454 5.105 3.642 5.44 2.92 5.56c-.612.1-1.016.665-.902 1.258.136.7.788 3.382 3.265 5.06 2.37 1.604 5.345 1.56 6.232 1.509v4.83c-2.684.24-4.938 1.28-6.165 2.131-.421.293-.519.862-.218 1.271s.886.505 1.307.212c2.016-1.4 7.238-3.326 12.026 0 .421.293 1.007.198 1.307-.212s.203-.978-.218-1.27c-2.064-1.435-4.186-2.045-6.165-2.163v-6.257c.556-.055 1.4-.176 2.338-.444 1.255-.358 2.746-.998 3.935-2.155 2.393-2.328 2.364-5.567 2.329-6.295zM15.789 5.56c1.379-1.341 3.238-1.662 4.323-1.725-.064 1.055-.394 2.862-1.774 4.205-.887.863-2.052 1.385-3.138 1.695a11.42 11.42 0 0 1-1.478.315c.063-.407.164-.904.325-1.437.318-1.056.855-2.19 1.742-3.053zM4.076 7.276c.302.887.95 2.206 2.279 3.105 1.32.894 2.954 1.14 4.06 1.189-.431-.991-1.234-2.397-2.554-3.291-1.329-.9-2.825-1.035-3.785-1.003z" fill="currentColor" fill-rule="evenodd"/></svg>