<svg width="24" height="24" viewBox="0 0 24 24" fill="none" xmlns="http://www.w3.org/2000/svg">
<path d="M15.5 9C15.5 9 15.2645 10.173 14.7188 10.7188C14.173 11.2645 13 11.5 13 11.5C13 11.5 14.173 11.7355 14.7188 12.2812C15.2645 12.827 15.5 14 15.5 14C15.5 14 15.7355 12.827 16.2812 12.2812C16.827 11.7355 18 11.5 18 11.5C18 11.5 16.827 11.2645 16.2812 10.7188C15.7355 10.173 15.5 9 15.5 9Z" fill="currentColor"/>
<path d="M13 6C13 6 12.8116 6.93838 12.375 7.375C11.9384 7.81162 11 8 11 8C11 8 11.9384 8.18838 12.375 8.625C12.8116 9.06162 13 10 13 10C13 10 13.1884 9.06162 13.625 8.625C14.0616 8.18838 15 8 15 8C15 8 14.0616 7.81162 13.625 7.375C13.1884 6.93838 13 6 13 6Z" fill="currentColor"/>
<path d="M6.98553 18.5C4.72683 16.9348 3.25 14.3409 3.25 11.4057C3.25 6.62531 7.16751 2.75 12 2.75C16.8325 2.75 20.75 6.62531 20.75 11.4057C20.75 14.3409 19.2732 16.9348 17.0145 18.5M6.75 18.75L5.75 21.25H18.25L17.25 18.75H6.75Z" fill="none" stroke="currentColor" stroke-width="1.5" stroke-linecap="square"/>
</svg>
