<svg viewBox="0 0 24 24" xmlns="http://www.w3.org/2000/svg"><path d="m12 1.75c5.3744 0 9.7498 4.31261 9.75 9.6553 0 2.944-1.3319 5.5763-3.4229 7.3447l.8516 2.1289.5479 1.3711h-15.45316l.54785-1.3711.85059-2.1289c-2.09058-1.7684-3.42188-4.4009-3.42188-7.3447.00023-5.34269 4.37561-9.6553 9.75-9.6553zm-4.77246 18.5h9.54496l-.1993-.5h-9.14644zm4.77246-16.5c-4.2903 0-7.74977 3.43755-7.75 7.6553 0 2.5903 1.30183 4.8843 3.30469 6.2724l.10449.0723h8.68162l.1045-.0723c2.0029-1.3881 3.3047-3.682 3.3047-6.2724-.0002-4.21775-3.4597-7.6553-7.75-7.6553zm3.5 5.25s.2355 1.173.7812 1.7188c.5458.5456 1.7187.7812 1.7188.7812-.0001 0-1.173.2356-1.7188.7812-.5456.5458-.7812 1.7187-.7812 1.7188 0-.0001-.2356-1.173-.7812-1.7188-.5458-.5457-1.7188-.7812-1.7188-.7812s1.173-.2356 1.7188-.7812c.5456-.5458.7812-1.71877.7812-1.7188zm-2.5-3s.1884.93838.625 1.375c.4365.43655 1.3747.62494 1.375.625-.0003.00005-.9385.18844-1.375.625s-.6249 1.37474-.625 1.375c-.0001-.00029-.1885-.93845-.625-1.375-.4366-.43662-1.375-.625-1.375-.625.0001-.00002.9384-.1884 1.375-.625s.625-1.37491.625-1.375z"/></svg>