<svg width="21" height="20" viewBox="0 0 21 20" fill="none" xmlns="http://www.w3.org/2000/svg">
<path d="M20.3 10C20.3 4.49 15.81 0 10.3 0C4.79005 0 0.300049 4.49 0.300049 10C0.300049 12.9 1.55005 15.51 3.53005 17.34C3.53005 17.35 3.53005 17.35 3.52005 17.36C3.62005 17.46 3.74005 17.54 3.84005 17.63C3.90005 17.68 3.95005 17.73 4.01005 17.77C4.19005 17.92 4.39005 18.06 4.58005 18.2C4.65005 18.25 4.71005 18.29 4.78005 18.34C4.97005 18.47 5.17005 18.59 5.38005 18.7C5.45005 18.74 5.53005 18.79 5.60005 18.83C5.80005 18.94 6.01005 19.04 6.23005 19.13C6.31005 19.17 6.39005 19.21 6.47005 19.24C6.69005 19.33 6.91005 19.41 7.13005 19.48C7.21005 19.51 7.29005 19.54 7.37005 19.56C7.61005 19.63 7.85005 19.69 8.09005 19.75C8.16005 19.77 8.23005 19.79 8.31005 19.8C8.59005 19.86 8.87005 19.9 9.16005 19.93C9.20005 19.93 9.24005 19.94 9.28005 19.95C9.62005 19.98 9.96005 20 10.3 20C10.64 20 10.98 19.98 11.31 19.95C11.35 19.95 11.39 19.94 11.43 19.93C11.72 19.9 12 19.86 12.28 19.8C12.35 19.79 12.42 19.76 12.5 19.75C12.74 19.69 12.99 19.64 13.22 19.56C13.3 19.53 13.38 19.5 13.46 19.48C13.68 19.4 13.91 19.33 14.12 19.24C14.2 19.21 14.28 19.17 14.36 19.13C14.57 19.04 14.78 18.94 14.99 18.83C15.07 18.79 15.14 18.74 15.21 18.7C15.41 18.58 15.61 18.47 15.81 18.34C15.88 18.3 15.94 18.25 16.01 18.2C16.21 18.06 16.4 17.92 16.58 17.77C16.64 17.72 16.6901 17.67 16.75 17.63C16.8601 17.54 16.97 17.45 17.07 17.36C17.07 17.35 17.07 17.35 17.06 17.34C19.05 15.51 20.3 12.9 20.3 10ZM15.24 14.97C12.53 13.15 8.09005 13.15 5.36005 14.97C4.92005 15.26 4.56005 15.6 4.26005 15.97C2.74005 14.43 1.80005 12.32 1.80005 10C1.80005 5.31 5.61005 1.5 10.3 1.5C14.99 1.5 18.8 5.31 18.8 10C18.8 12.32 17.8601 14.43 16.34 15.97C16.05 15.6 15.68 15.26 15.24 14.97Z" fill="currentColor"/>
<path d="M10.3 4.93018C8.23005 4.93018 6.55005 6.61018 6.55005 8.68018C6.55005 10.7102 8.14005 12.3602 10.25 12.4202C10.28 12.4202 10.32 12.4202 10.34 12.4202C10.36 12.4202 10.39 12.4202 10.41 12.4202C10.42 12.4202 10.43 12.4202 10.43 12.4202C12.45 12.3502 14.04 10.7102 14.05 8.68018C14.05 6.61018 12.37 4.93018 10.3 4.93018Z" fill="currentColor"/>
</svg>
