<svg xmlns="http://www.w3.org/2000/svg" width="24" height="24" viewBox="0 0 24 24" fill="none"><path d="M20.011 16.1c0-.03.02-.06.02-.1V6.5c0-1.52-1.23-2.75-2.75-2.75h-3.93l1.41-1.17c.32-.27.36-.74.1-1.06a.758.758 0 0 0-1.06-.1l-3 2.5c-.17.14-.27.35-.27.58 0 .23.1.43.27.58l3 2.5c.14.12.31.17.48.17a.75.75 0 0 0 .48-1.33l-1.41-1.17h3.93c.69 0 1.25.56 1.25 1.25V16c0 .04.02.07.02.1-1.3.33-2.27 1.5-2.27 2.9 0 1.66 1.34 3 3 3s3-1.34 3-3c0-1.4-.97-2.57-2.27-2.9zM13.761 18.92l-3-2.5a.75.75 0 0 0-1.06.1.75.75 0 0 0 .1 1.06l1.41 1.17h-3.93c-.69 0-1.25-.56-1.25-1.25V8c0-.04-.02-.07-.02-.1 1.3-.33 2.27-1.5 2.27-2.9 0-1.66-1.34-3-3-3s-3 1.34-3 3c0 1.4.97 2.57 2.27 2.9 0 .03-.02.06-.02.1v9.5c0 1.52 1.23 2.75 2.75 2.75h3.93l-1.41 1.17c-.32.27-.36.74-.1 1.06.15.18.36.27.58.27.17 0 .34-.06.48-.17l3-2.5a.761.761 0 0 0 0-1.16z" fill="currentColor"/></svg>