<svg xmlns="http://www.w3.org/2000/svg" width="24" height="24" viewBox="0 0 24 24" fill="none"><path fill-rule="evenodd" clip-rule="evenodd" d="M22.28 12c0 5.523-4.476 10-10 10-5.522 0-10-4.477-10-10s4.478-10 10-10c5.524 0 10 4.477 10 10zm-10-5.278c-1.605 0-3.055 1.182-3.055 2.83a.833.833 0 1 0 1.667 0c0-.564.531-1.163 1.389-1.163.857 0 1.389.599 1.389 1.163 0 .314-.174.53-.7.854l-.004.002c-.575.357-1.519 1.007-1.519 2.308v.252a.833.833 0 0 0 1.667 0v-.252c0-.335.181-.551.729-.891.571-.35 1.493-1 1.493-2.273 0-1.648-1.45-2.83-3.055-2.83zm-.005 8.288a.833.833 0 0 0 0 1.666h.012a.833.833 0 0 0 0-1.666h-.012z" fill="currentColor"/></svg>