<svg width="24" height="24" viewBox="0 0 24 24" fill="none" xmlns="http://www.w3.org/2000/svg">
<path d="M21.119 2.616 6.552 16.116h9.355c0.71 0 1.183 0.439 1.183 1.098 0 0.658 -0.473 1.097 -1.183 1.097H3.71c-0.119 0 -0.355 0 -0.474 -0.109a1.38 1.38 0 0 1 -0.592 -0.55c-0.119 -0.109 -0.119 -0.329 -0.119 -0.439v-11.304c0 -0.659 0.474 -1.098 1.184 -1.098s1.184 0.439 1.184 1.098v8.67L19.46 1.08A1.208 1.208 0 0 1 21.12 1.08c0.473 0.439 0.473 1.098 0 1.536Zm2.131 19.536c0 -0.658 -0.474 -1.097 -1.184 -1.097H1.934c-0.71 0 -1.184 0.439 -1.184 1.097 0 0.66 0.474 1.098 1.184 1.098h20.131c0.71 0 1.184 -0.439 1.184 -1.098Z" fill="currentColor"/>
</svg>