<svg fill="none" height="24" viewBox="0 0 24 24" width="24" xmlns="http://www.w3.org/2000/svg"><path d="m19.2947 4.49268-11.65259 10.80002h7.48419c.5684 0 .9474.3512.9474.878 0 .5269-.379.8781-.9474.8781h-9.75788c-.09474 0-.28421 0-.37895-.0878-.18947-.0878-.37894-.2634-.47368-.439-.09474-.0879-.09474-.2635-.09474-.3513v-9.04387c0-.52683.37895-.87805.94737-.87805s.94737.35122.94737.87805v6.93657l11.65261-10.79999c.379-.35121.9474-.35121 1.3263 0 .379.35122.379.87805 0 1.22927zm1.7053 15.62932c0-.5269-.3789-.8781-.9474-.8781h-16.10523c-.56842 0-.94737.3512-.94737.8781 0 .5268.37895.878.94737.878h16.10523c.5685 0 .9474-.3512.9474-.878z" fill="currentColor"/></svg>