<svg width="20" height="20" viewBox="0 0 20 20" fill="none" xmlns="http://www.w3.org/2000/svg">
<path d="M17.5987 2.17988L5.46053 13.4299H13.2566C13.8487 13.4299 14.2434 13.7957 14.2434 14.3445C14.2434 14.8933 13.8487 15.2591 13.2566 15.2591H3.09211C2.99342 15.2591 2.79605 15.2591 2.69737 15.1677C2.5 15.0762 2.30263 14.8933 2.20395 14.7104C2.10526 14.6189 2.10526 14.436 2.10526 14.3445V4.92378C2.10526 4.375 2.5 4.00915 3.09211 4.00915C3.68421 4.00915 4.07895 4.375 4.07895 4.92378V12.1494L16.2171 0.89939C16.6118 0.533537 17.2039 0.533537 17.5987 0.89939C17.9934 1.26524 17.9934 1.81402 17.5987 2.17988ZM19.375 18.4604C19.375 17.9116 18.9803 17.5457 18.3882 17.5457H1.61184C1.01974 17.5457 0.625 17.9116 0.625 18.4604C0.625 19.0091 1.01974 19.375 1.61184 19.375H18.3882C18.9803 19.375 19.375 19.0091 19.375 18.4604Z" fill="currentColor"/>
</svg>
