<svg width="20" height="20" viewBox="0 0 20 20" fill="none" xmlns="http://www.w3.org/2000/svg">
<path d="M16.0789 3.7439L6.36842 12.7439H12.6053C13.0789 12.7439 13.3947 13.0366 13.3947 13.4756C13.3947 13.9146 13.0789 14.2073 12.6053 14.2073H4.47368C4.39474 14.2073 4.23684 14.2073 4.15789 14.1341C4 14.061 3.84211 13.9146 3.76316 13.7683C3.68421 13.6951 3.68421 13.5488 3.68421 13.4756V5.93902C3.68421 5.5 4 5.20732 4.47368 5.20732C4.94737 5.20732 5.26316 5.5 5.26316 5.93902V11.7195L14.9737 2.71951C15.2895 2.42683 15.7632 2.42683 16.0789 2.71951C16.3947 3.0122 16.3947 3.45122 16.0789 3.7439ZM17.5 16.7683C17.5 16.3293 17.1842 16.0366 16.7105 16.0366H3.28947C2.81579 16.0366 2.5 16.3293 2.5 16.7683C2.5 17.2073 2.81579 17.5 3.28947 17.5H16.7105C17.1842 17.5 17.5 17.2073 17.5 16.7683Z" fill="currentColor"/>
</svg>
