<svg width="16" height="16" viewBox="0 0 16 16" fill="none" xmlns="http://www.w3.org/2000/svg"><g transform="translate(8,8) scale(0.8) translate(-8,-8)"><path d="m15.997 5.152 -1.654 2.892L16 11.672l-0.086 0.23 -1.312 3.508 -3.238 -1.386L8.916 16h-1.832l-2.446 -1.977 -3.238 1.386 -1.394 -3.728L1.656 7.709 0.1 5.402 0 5.17 1.406 0l5.352 3.302h2.484L14.595 0zm-6.376 -0.516h-3.24L2.224 2.072l-0.794 2.918 1.734 2.567 -1.726 4.15 0.72 1.926L4.85 12.48l2.706 2.186h0.89l2.705 -2.186 2.692 1.152 0.715 -1.91 -1.712 -3.746 0.34 -0.593 1.379 -2.414 -0.788 -2.898z" fill="#9CA1AF"/></g></svg>