<svg width="33" height="33" viewBox="0 0 33 33" fill="none" xmlns="http://www.w3.org/2000/svg">
<g id="rich-danger">
<path id="Vector" d="M1.84766 28.5058L16.5143 3.17252L31.181 28.5058H1.84766ZM6.44766 25.8392H26.581L16.5143 8.50585L6.44766 25.8392ZM16.5143 24.5058C16.8921 24.5058 17.2088 24.3781 17.4643 24.1225C17.7199 23.867 17.8477 23.5503 17.8477 23.1725C17.8477 22.7947 17.7199 22.4781 17.4643 22.2225C17.2088 21.967 16.8921 21.8392 16.5143 21.8392C16.1365 21.8392 15.8199 21.967 15.5643 22.2225C15.3088 22.4781 15.181 22.7947 15.181 23.1725C15.181 23.5503 15.3088 23.867 15.5643 24.1225C15.8199 24.3781 16.1365 24.5058 16.5143 24.5058ZM15.181 20.5058H17.8477V13.8392H15.181V20.5058Z" fill="#CA3542"/>
</g>
</svg>
