<svg xmlns="http://www.w3.org/2000/svg" width="24" height="24" viewBox="0 0 24 24" fill="none"><path fill="currentColor" d="M2.281 9.75c-.41 0-.75-.34-.75-.75V6.5c0-2.9 2.36-5.25 5.25-5.25h2.5c.41 0 .75.34.75.75s-.34.75-.75.75h-2.5c-2.07 0-3.75 1.68-3.75 3.75V9c0 .41-.34.75-.75.75ZM22.281 9.75c-.41 0-.75-.34-.75-.75V6.5c0-2.07-1.68-3.75-3.75-3.75h-2.5c-.41 0-.75-.34-.75-.75s.34-.75.75-.75h2.5c2.89 0 5.25 2.35 5.25 5.25V9c0 .41-.34.75-.75.75ZM17.781 22.75h-1.5c-.41 0-.75-.34-.75-.75s.34-.75.75-.75h1.5c2.07 0 3.75-1.68 3.75-3.75V16c0-.41.34-.75.75-.75s.75.34.75.75v1.5c0 2.9-2.36 5.25-5.25 5.25ZM9.281 22.75h-2.5c-2.89 0-5.25-2.35-5.25-5.25V15c0-.41.34-.75.75-.75s.75.34.75.75v2.5c0 2.07 1.68 3.75 3.75 3.75h2.5c.41 0 .75.34.75.75s-.34.75-.75.75Z"/><path fill="currentColor" d="M9.281 5.25h-2c-1.14 0-1.75.6-1.75 1.75v2c0 1.15.61 1.75 1.75 1.75h2c1.14 0 1.75-.6 1.75-1.75V7c0-1.15-.61-1.75-1.75-1.75ZM17.281 5.25h-2c-1.14 0-1.75.6-1.75 1.75v2c0 1.15.61 1.75 1.75 1.75h2c1.14 0 1.75-.6 1.75-1.75V7c0-1.15-.61-1.75-1.75-1.75ZM9.281 13.25h-2c-1.14 0-1.75.6-1.75 1.75v2c0 1.15.61 1.75 1.75 1.75h2c1.14 0 1.75-.6 1.75-1.75v-2c0-1.15-.61-1.75-1.75-1.75ZM17.281 13.25h-2c-1.14 0-1.75.6-1.75 1.75v2c0 1.15.61 1.75 1.75 1.75h2c1.14 0 1.75-.6 1.75-1.75v-2c0-1.15-.61-1.75-1.75-1.75Z"/></svg>