<svg xmlns="http://www.w3.org/2000/svg" width="24" height="24" viewBox="0 0 24 24" fill="none"><path fill="currentColor" d="M16.471 2h-8.38c-3.64 0-5.81 2.17-5.81 5.81v8.37c0 3.65 2.17 5.82 5.81 5.82h8.37c3.64 0 5.81-2.17 5.81-5.81V7.81c.01-3.64-2.16-5.81-5.8-5.81Zm-6.06 12.5c.29.29.29.77 0 1.06-.15.15-.34.22-.53.22s-.38-.07-.53-.22l-2.49-2.49c-.59-.59-.59-1.54 0-2.13l2.49-2.49c.29-.29.77-.29 1.06 0 .29.29.29.77 0 1.06L7.921 12l2.49 2.5Zm7.29-1.44-2.49 2.49c-.15.15-.34.22-.53.22s-.38-.07-.53-.22a.754.754 0 0 1 0-1.06l2.49-2.49-2.49-2.5a.754.754 0 0 1 0-1.06c.29-.29.77-.29 1.06 0l2.49 2.49c.59.59.59 1.55 0 2.13Z"/></svg>