<svg width="25" height="24" viewBox="0 0 25 24" fill="none" xmlns="http://www.w3.org/2000/svg">
<path d="M11.7812 21C17.028 21 21.2812 16.7467 21.2812 11.5C21.2812 6.25329 17.028 2 11.7812 2C6.53454 2 2.28125 6.25329 2.28125 11.5C2.28125 16.7467 6.53454 21 11.7812 21Z" fill="currentColor"/>
<path d="M21.5808 22.0001C21.4008 22.0001 21.2208 21.9301 21.0908 21.8001L19.2308 19.9401C18.9608 19.6701 18.9608 19.2301 19.2308 18.9501C19.5008 18.6801 19.9408 18.6801 20.2208 18.9501L22.0808 20.8101C22.3508 21.0801 22.3508 21.5201 22.0808 21.8001C21.9408 21.9301 21.7608 22.0001 21.5808 22.0001Z" fill="currentColor"/>
</svg>
