<svg xmlns="http://www.w3.org/2000/svg" width="24" height="24" viewBox="0 0 24 24" fill="none"><path fill="currentColor" d="M21.09 22a.826.826 0 0 1-.636-.273l-1.818-1.818a.879.879 0 0 1 0-1.273.879.879 0 0 1 1.273 0l1.818 1.819a.879.879 0 0 1 0 1.272.825.825 0 0 1-.636.273Zm-9.544-.91A9.544 9.544 0 0 1 2 11.547 9.544 9.544 0 0 1 11.546 2a9.544 9.544 0 0 1 9.545 9.546 9.544 9.544 0 0 1-9.546 9.545Zm0-17.272a7.72 7.72 0 0 0-7.728 7.728 7.72 7.72 0 0 0 7.728 7.727 7.72 7.72 0 0 0 7.727-7.727 7.72 7.72 0 0 0-7.727-7.728Z"/></svg>