<svg fill="none" height="56" viewBox="0 0 56 56" width="56" xmlns="http://www.w3.org/2000/svg"><path d="m37.0909 38c-.2727 0-.4545-.0909-.6364-.2727l-1.8181-1.8182c-.3637-.3636-.3637-.9091 0-1.2727.3636-.3637.9091-.3637 1.2727 0l1.8182 1.8181c.3636.3637.3636.9091 0 1.2728-.1818.1818-.3637.2727-.6364.2727zm-9.5454-.9091c-5.2728 0-9.5455-4.2727-9.5455-9.5454 0-5.2728 4.2727-9.5455 9.5455-9.5455 5.2727 0 9.5454 4.2727 9.5454 9.5455 0 5.2727-4.2727 9.5454-9.5454 9.5454zm0-17.2727c-4.2728 0-7.7273 3.4545-7.7273 7.7273 0 4.2727 3.4545 7.7272 7.7273 7.7272 4.2727 0 7.7272-3.4545 7.7272-7.7272 0-4.2728-3.4545-7.7273-7.7272-7.7273z" fill="#24272a"/><rect height="55" rx="4.5" stroke="#7b61ff" stroke-dasharray="10 5" width="55" x=".5" y=".5"/></svg>