<svg width="32" height="32" viewBox="0 0 32 32" fill="none" xmlns="http://www.w3.org/2000/svg">
<path fill-rule="evenodd" clip-rule="evenodd" d="M3 7.40393C3 6.38154 3.56215 5.44008 4.46596 4.95059C7.10788 3.51964 12.6082 0.632085 14.9303 0.116943C15.6355 -0.0389811 16.3665 -0.0389811 17.0717 0.116943C19.3918 0.632085 24.8921 3.51964 27.534 4.95059C28.4378 5.44008 29 6.38154 29 7.40393V15.3304C29 20.0654 26.8368 24.5438 23.1203 27.5043L18.635 31.0768C17.0955 32.3025 14.9045 32.3025 13.365 31.0768L8.87975 27.5043C5.16319 24.5418 3 20.0654 3 15.3304V7.40393ZM13.5478 26.4163C14.27 26.99 15.133 27.2782 15.998 27.2788C15.997 27.2788 15.996 27.2788 15.9951 27.2788H16.001C16 27.2788 15.999 27.2788 15.998 27.2788C16.8631 27.2782 17.728 26.99 18.4483 26.4163L21.2491 24.186C23.891 22.082 25.4046 18.9477 25.4046 15.5845V10.6344C25.4046 9.52518 24.7948 8.50674 23.8155 7.97581C21.5093 6.72447 18.4443 5.16325 16.9465 4.83166C16.3168 4.69153 15.6772 4.69153 15.0475 4.83166C13.5518 5.16325 10.4868 6.72447 8.17857 7.97581C7.19927 8.50674 6.59143 9.52518 6.59143 10.6344V15.5845C6.59143 18.9477 8.10705 22.082 10.747 24.186L13.5478 26.4163ZM9.17574 10.6344C9.17574 10.4647 9.2691 10.3087 9.41808 10.2278H9.42007C12.3877 8.61924 14.7039 7.53764 15.6156 7.33632C15.8719 7.27908 16.1341 7.27908 16.3903 7.33632C17.3021 7.53764 19.6182 8.61924 22.5859 10.2278C22.7349 10.3087 22.8283 10.4647 22.8283 10.6344V15.5845C22.8283 18.1661 21.6662 20.5701 19.6401 22.1847L16.8393 24.415C16.3466 24.8077 15.6574 24.8077 15.1647 24.415L12.3639 22.1847C10.3378 20.5701 9.17574 18.1642 9.17574 15.5845V10.6344Z" fill="currentColor"/>
</svg>
