<svg xmlns="http://www.w3.org/2000/svg" width="24" height="24" viewBox="0 0 24 24" fill="none"><path fill="currentColor" d="M19.64 4.64 6.11 18.17l-1.1-.82c-.65-.49-1.18-1.55-1.18-2.37V6.89c0-1.13.86-2.37 1.91-2.77l5.5-2.06c.57-.21 1.51-.21 2.08 0l5.5 2.06c.29.11.57.29.82.52ZM20.73 14.98c0 .82-.53 1.88-1.18 2.37l-5.5 4.11c-.98.72-2.56.72-3.54 0l-1.76-1.31c-.49-.36-.54-1.08-.11-1.51L19.02 8.26c.63-.63 1.71-.18 1.71.71v6.01Z"/><path fill="currentColor" d="M22.05 2.23c-.3-.3-.79-.3-1.09 0L2.51 20.69c-.3.3-.3.79 0 1.09a.758.758 0 0 0 1.08-.01L22.05 3.31c.31-.3.31-.78 0-1.08Z"/></svg>