<svg xmlns="http://www.w3.org/2000/svg" width="24" height="24" viewBox="0 0 24 24" fill="none"><path fill="currentColor" d="m18.78 4.11-4.99-1.87c-.83-.31-2.19-.31-3.02 0L5.78 4.11c-1.15.43-2.09 1.79-2.09 3.01v7.43c0 1.18.78 2.73 1.73 3.44l4.3 3.21c1.41 1.06 3.73 1.06 5.14 0l4.3-3.21c.95-.71 1.73-2.26 1.73-3.44V7.12c-.02-1.22-.96-2.58-2.11-3.01Zm-6.57 2.92c1.18 0 2.14.96 2.14 2.14 0 1.16-.91 2.09-2.06 2.13h-.1c-1.2-.04-2.1-.97-2.1-2.13-.01-1.18.95-2.14 2.12-2.14Zm2.26 9.33c-.61.4-1.4.61-2.19.61s-1.59-.2-2.19-.61c-.57-.38-.88-.9-.89-1.47 0-.56.32-1.1.89-1.48 1.21-.8 3.18-.8 4.39 0 .57.38.89.9.89 1.47-.01.56-.33 1.1-.9 1.48Z"/></svg>