<svg xmlns="http://www.w3.org/2000/svg" width="24" height="24" viewBox="0 0 24 24" fill="none"><g fill="currentColor"><path d="M11.293 1.793a1 1 0 0 1 1.415 0l3.35 3.35a1 1 0 0 1-1.415 1.414L13 4.914V15a1 1 0 1 1-2 0V4.915L9.358 6.557a1 1 0 0 1-1.415-1.414z"/><path d="M16.526 7.904a1 1 0 1 0-.171 1.992c1.65.142 2.611.619 3.194 1.337.605.745.961 1.944.961 3.877v.13c0 2.136-.433 3.372-1.16 4.1s-1.963 1.16-4.1 1.16H8.74c-2.136 0-3.372-.434-4.099-1.16-.727-.728-1.16-1.964-1.16-4.1v-.13c0-1.919.351-3.113.948-3.86.574-.716 1.517-1.194 3.134-1.344a1 1 0 1 0-.185-1.992c-1.923.18-3.475.792-4.51 2.088-1.014 1.266-1.388 3.007-1.388 5.108v.13c0 2.334.462 4.228 1.747 5.513C4.513 22.04 6.407 22.5 8.74 22.5h6.51c2.334 0 4.228-.461 5.514-1.747 1.285-1.285 1.746-3.18 1.746-5.513v-.13c0-2.117-.378-3.868-1.408-5.138-1.052-1.297-2.627-1.9-4.576-2.068z"/></g></svg>