<svg xmlns="http://www.w3.org/2000/svg" width="24" height="24" viewBox="0 0 24 24" fill="none"><path fill="currentColor" d="m19.81 5.53-14 14c-.02.02-.03.03-.05.04-.38-.32-.73-.67-1.05-1.05A9.903 9.903 0 0 1 2.28 12c0-5.52 4.48-10 10-10 2.49 0 4.77.91 6.52 2.43.38.32.73.67 1.05 1.05-.01.02-.02.03-.04.05ZM22.28 12c0 5.49-4.51 10-10 10-1.5 0-2.92-.33-4.2-.93-.62-.29-.74-1.12-.26-1.61L19.74 7.54c.48-.48 1.32-.36 1.61.26.6 1.27.93 2.7.93 4.2Z"/><path fill="currentColor" d="M22.05 2.23c-.3-.3-.79-.3-1.09 0L2.51 20.69c-.3.3-.3.79 0 1.09a.758.758 0 0 0 1.08-.01L22.05 3.31c.31-.3.31-.78 0-1.08Z"/></svg>