<svg xmlns="http://www.w3.org/2000/svg" width="24" height="24" viewBox="0 0 24 24" fill="none"><path fill="currentColor" d="M16.478 2H8.094C4.452 2 2.281 4.18 2.281 7.82v8.37c0 3.64 2.171 5.81 5.813 5.81h8.374c3.642 0 5.813-2.17 5.813-5.81V7.82c.01-3.64-2.16-5.82-5.803-5.82Zm-4.622 14.79c0 .3-.15.57-.41.73-.14.09-.29.13-.45.13-.13 0-.26-.03-.39-.09l-3.502-1.75c-.5-.26-.82-.77-.82-1.34v-3.31a.868.868 0 0 1 1.25-.77l3.502 1.75c.51.26.83.77.83 1.34v3.31h-.01Zm-.21-5.35L7.884 9.41a.87.87 0 0 1-.44-.77c0-.32.17-.62.44-.77l3.762-2.03c.4-.21.87-.21 1.27 0l3.762 2.03c.27.15.44.44.44.77s-.17.62-.44.77l-3.762 2.03c-.2.11-.42.16-.64.16-.22 0-.43-.05-.63-.16Zm6.643 3.03c0 .57-.32 1.09-.83 1.34l-3.502 1.75c-.12.06-.25.09-.39.09-.16 0-.31-.04-.45-.13a.847.847 0 0 1-.41-.73v-3.31c0-.57.32-1.09.83-1.34l3.502-1.75a.868.868 0 0 1 1.25.77v3.31Z"/></svg>