<svg fill="none" height="24" width="24" viewBox="0 0 24 24" xmlns="http://www.w3.org/2000/svg"><path clip-rule="evenodd" d="M12 3a9 9 0 1 0 0 18 9 9 0 0 0 0-18zm3.924 5.664-3.357-1.772a1.208 1.208 0 0 0-1.135 0L8.076 8.664a.748.748 0 0 0-.396.67c0 .284.15.54.396.672l3.356 1.772a1.213 1.213 0 0 0 1.136 0l3.356-1.772a.748.748 0 0 0 .396-.671c0-.289-.15-.54-.396-.671zm-4.932 3.583-3.05-1.62c-.242-.116-.602-.026-.827.111a.749.749 0 0 0-.365.644v2.906c0 .5.284.985.74 1.212l3.126 1.67a.778.778 0 0 0 .746-.032c.23-.138.365-.54.365-.804v-2.906a1.292 1.292 0 0 0-.735-1.181zm5.065-1.62c.236-.121.598-.024.828.113.23.143.365.38.365.644v2.905c0 .506-.284.984-.74 1.211l-3.127 1.67a.779.779 0 0 1-.745-.03c-.23-.138-.365-.542-.365-.805v-2.906c0-.506.285-.954.74-1.18z" fill="currentColor" fill-rule="evenodd"/></svg>