<svg xmlns="http://www.w3.org/2000/svg" width="24" height="24" viewBox="0 0 24 24" fill="none"><path fill="currentColor" d="M19.756 5.645 13.362 2.27a2.302 2.302 0 0 0-2.162 0L4.807 5.645c-.47.25-.755.729-.755 1.278 0 .54.286 1.029.755 1.278l6.393 3.375a2.309 2.309 0 0 0 2.162 0l6.394-3.375c.469-.25.754-.729.754-1.278 0-.55-.285-1.028-.754-1.278ZM10.36 12.47 4.55 9.385c-.46-.221-1.145-.05-1.574.212-.44.271-.695.723-.695 1.226v5.535c0 .954.542 1.877 1.41 2.309l5.955 3.18a1.491 1.491 0 0 0 1.42-.06c.439-.262.694-1.029.694-1.531V14.72a2.46 2.46 0 0 0-1.4-2.25ZM21.587 9.6c-.44-.26-1.13-.446-1.579-.215l-5.796 3.088a2.498 2.498 0 0 0-1.41 2.25v5.533c0 .502.255 1.272.695 1.533a1.491 1.491 0 0 0 1.42.06l5.955-3.182c.868-.432 1.41-1.343 1.41-2.307v-5.534c0-.502-.256-.954-.695-1.225Z"/></svg>