<svg xmlns="http://www.w3.org/2000/svg" width="24" height="24" viewBox="0 0 24 24" fill="none"><path fill="currentColor" d="m17.138 5.128-5.38-2.9a1.921 1.921 0 0 0-1.82 0l-5.371 2.9a1.26 1.26 0 0 0-.638 1.097c0 .467.238.887.638 1.097l5.38 2.9a1.903 1.903 0 0 0 1.81 0l5.381-2.9c.39-.21.638-.63.638-1.097a1.26 1.26 0 0 0-.638-1.097ZM9.062 11.232l-5-2.499a1.223 1.223 0 0 0-1.78 1.097v4.73c0 .821.456 1.555 1.19 1.927l5 2.5c.171.085.362.133.552.133.22 0 .448-.067.648-.181.362-.23.58-.62.58-1.05v-4.73a2.186 2.186 0 0 0-1.19-1.927ZM19.424 9.83v2.346a5.112 5.112 0 0 0-1.428-.19 5.724 5.724 0 0 0-3.562 1.25c-1.372 1.077-2.153 2.708-2.153 4.472 0 .468.057.935.181 1.383a1.035 1.035 0 0 1-.419-.162 1.208 1.208 0 0 1-.58-1.04v-4.73c0-.82.456-1.555 1.18-1.927l5-2.499a1.223 1.223 0 0 1 1.781 1.097Z"/><path fill="currentColor" d="M21.329 15.038c0-.01-.01-.02-.02-.029a1.096 1.096 0 0 0-.133-.162c-.009-.01-.019-.029-.028-.038a4.231 4.231 0 0 0-3.152-1.393 4.277 4.277 0 0 0-4.286 4.292c0 .801.228 1.564.619 2.213.21.353.476.677.78.944.02.01.03.02.039.029.047.047.095.086.152.133h.01c.01.01.019.02.028.02.715.6 1.639.953 2.658.953 1.561 0 2.923-.84 3.666-2.08a4.5 4.5 0 0 0 .495-1.21c.086-.325.124-.659.124-1.002a4.175 4.175 0 0 0-.952-2.67Zm-1.733 3.366h-.886v.925a.72.72 0 0 1-.715.716.72.72 0 0 1-.714-.716v-.925h-.886a.72.72 0 0 1-.714-.715.72.72 0 0 1 .714-.715h.886v-.85a.72.72 0 0 1 .715-.714.72.72 0 0 1 .714.715v.849h.886a.72.72 0 0 1 .714.715.714.714 0 0 1-.714.715Z"/></svg>