<svg fill="none" height="24" width="24" viewBox="0 0 24 24" xmlns="http://www.w3.org/2000/svg"><g fill="currentColor"><path d="M8.158 14.455c.068-.252.427-.252.495 0l.583 2.166a.256.256 0 0 0 .18.18l2.166.584c.253.068.253.426 0 .494l-2.166.583a.256.256 0 0 0-.18.181l-.583 2.166c-.068.252-.427.252-.495 0l-.583-2.166a.256.256 0 0 0-.18-.18l-2.166-.584c-.253-.068-.253-.426 0-.494l2.166-.583a.256.256 0 0 0 .18-.18zM14.292 4.217c.068-.253.426-.253.494 0l1.452 5.392a.256.256 0 0 0 .18.18l5.393 1.452c.252.068.252.426 0 .494l-5.392 1.452a.256.256 0 0 0-.18.18l-1.453 5.393c-.068.252-.426.252-.494 0l-1.452-5.392a.256.256 0 0 0-.18-.18l-5.392-1.453c-.253-.068-.253-.426 0-.494L12.66 9.79a.256.256 0 0 0 .18-.18zM6.119 3.191c.068-.252.426-.252.494 0l.583 2.166a.256.256 0 0 0 .181.18l2.166.584c.252.068.252.426 0 .494l-2.166.583a.256.256 0 0 0-.18.181l-.584 2.166c-.068.252-.426.252-.494 0l-.583-2.166a.256.256 0 0 0-.18-.18l-2.167-.584c-.252-.068-.252-.426 0-.494l2.166-.583a.256.256 0 0 0 .18-.18z"/></g></svg>