<svg xmlns="http://www.w3.org/2000/svg" width="24" height="24" viewBox="0 0 24 24" fill="none"><path fill="currentColor" fill-rule="evenodd" d="M2.78 15.546v2.19c0 .202.078.397.215.54a.715.715 0 0 0 .517.224H21.05c.194 0 .38-.08.517-.224a.783.783 0 0 0 .214-.54V15.44c0-1.309-.247-2.604-.727-3.813a9.982 9.982 0 0 0-2.069-3.23 9.481 9.481 0 0 0-3.094-2.152 9.134 9.134 0 0 0-3.647-.746c-5.243.02-9.463 4.55-9.463 10.046Zm15.5-1.046a1 1 0 1 0 0-2 1 1 0 0 0 0 2Zm-11.5-1a1 1 0 1 1-2 0 1 1 0 0 1 2 0Zm4.851-4a1 1 0 1 0 0-2 1 1 0 0 0 0 2Zm5.68.47a.75.75 0 0 1 0 1.06l-3.703 3.704a1.5 1.5 0 1 1-.974-1.148L16.25 9.97a.75.75 0 0 1 1.061 0Z" clip-rule="evenodd"/></svg>