<svg width="33" height="33" viewBox="0 0 33 33" fill="none" xmlns="http://www.w3.org/2000/svg">
<rect x="0.499512" y="0.401855" width="32" height="32" rx="16" fill="#0376C9"/>
<path fill-rule="evenodd" clip-rule="evenodd" d="M24.8257 8.92986C24.8031 8.46644 24.4234 8.09713 23.9468 8.07512C23.3229 8.0463 20.5462 8.0229 18.5525 9.96268C17.5622 10.9262 17.014 12.1344 16.7068 13.1518C16.5061 13.8164 16.4016 14.4218 16.3471 14.8645H16.3375C15.8617 13.9442 15.0998 12.8381 13.9424 12.0543C11.8775 10.6559 9.53494 10.9345 8.93326 11.0339C8.42367 11.1181 8.08673 11.5886 8.18219 12.0826C8.2949 12.6659 8.83826 14.9008 10.9027 16.2989C12.8771 17.636 15.3568 17.599 16.0963 17.5567V21.5809C13.8593 21.7816 11.9807 22.6477 10.9584 23.3579C10.6076 23.6016 10.5263 24.0758 10.7769 24.417C11.0275 24.7582 11.5151 24.8373 11.866 24.5935C13.5461 23.4264 17.8981 21.8218 21.8881 24.5935C22.2389 24.8373 22.7265 24.7582 22.9771 24.417C23.2277 24.0758 23.1464 23.6016 22.7956 23.3579C21.0753 22.1628 19.307 21.6541 17.6577 21.5561V16.3413C18.1207 16.2958 18.8236 16.1951 19.6061 15.9717C20.6523 15.673 21.8946 15.1397 22.8851 14.176C24.8794 12.2357 24.8554 9.53679 24.8257 8.92986ZM19.6568 11.0362C20.8059 9.91817 22.3554 9.65064 23.2597 9.59818C23.2058 10.4774 22.9306 11.9838 21.7809 13.1025C21.042 13.8214 20.0709 14.2563 19.1662 14.5146C18.7094 14.6451 18.2832 14.7266 17.9346 14.7774C17.9869 14.4384 18.0707 14.024 18.2049 13.5797C18.4705 12.6999 18.9178 11.7553 19.6568 11.0362ZM9.89643 12.4652C10.1478 13.2039 10.6882 14.3032 11.7949 15.0527C12.8953 15.7979 14.2571 16.0017 15.1781 16.0433C14.819 15.2174 14.1506 14.0457 13.0502 13.3005C11.9429 12.5506 10.6957 12.4385 9.89643 12.4652Z" fill="white"/>
</svg>
