<svg width="25" height="25" viewBox="0 0 25 25" fill="none" xmlns="http://www.w3.org/2000/svg">
<g id="success">
<path id="Vector" fill-rule="evenodd" clip-rule="evenodd" d="M1.5 12.8013C1.5 6.73701 6.43574 1.80127 12.5 1.80127C18.5643 1.80127 23.5 6.73701 23.5 12.8013C23.5 18.8655 18.5643 23.8013 12.5 23.8013C6.43574 23.8013 1.5 18.8655 1.5 12.8013Z" fill="white"/>
<path id="Vector_2" d="M12.5001 3.80127C7.54112 3.80127 3.50012 7.84227 3.50012 12.8013C3.50012 17.7603 7.54112 21.8013 12.5001 21.8013C17.4591 21.8013 21.5001 17.7603 21.5001 12.8013C21.5001 7.84227 17.4591 3.80127 12.5001 3.80127Z" fill="#1C7E33"/>
<path id="Vector_3" d="M11.6696 16.5642L16.9616 11.2722C17.2323 10.9922 17.2323 10.5535 16.9616 10.2828C16.6909 10.0122 16.2429 10.0122 15.9723 10.2828L11.1749 15.0802L9.02827 12.9335C8.7576 12.6628 8.3096 12.6628 8.03894 12.9335C7.76827 13.2042 7.76827 13.6522 8.03894 13.9228L10.6803 16.5642C10.8109 16.6948 10.9883 16.7695 11.1749 16.7695C11.3616 16.7695 11.5389 16.6948 11.6696 16.5642Z" fill="white"/>
</g>
</svg>
