<svg width="20" height="20" viewBox="0 0 20 20" fill="none" xmlns="http://www.w3.org/2000/svg">
<path d="M17.425 6.26884C17.425 6.34422 17.35 6.4196 17.275 6.49498L14.5 9.3593C14.35 9.51005 14.125 9.58543 13.975 9.58543C13.825 9.58543 13.6 9.51005 13.45 9.3593C13.15 9.05779 13.15 8.60553 13.45 8.30402L14.95 6.79648H3.25C2.8 6.79648 2.5 6.49498 2.5 6.04271C2.5 5.59045 2.8 5.28894 3.25 5.28894H14.95L13.45 3.78141C13.15 3.4799 13.15 3.02764 13.45 2.72613C13.75 2.42462 14.2 2.42462 14.5 2.72613L17.275 5.4397C17.35 5.51508 17.425 5.59045 17.425 5.66583C17.5 5.81658 17.5 5.89196 17.5 5.96734C17.5 6.11809 17.5 6.19347 17.425 6.26884ZM16.75 13.2035H5.05L6.55 11.696C6.85 11.3945 6.85 10.9422 6.55 10.6407C6.25 10.3392 5.8 10.3392 5.5 10.6407L2.725 13.4296C2.65 13.505 2.575 13.5804 2.575 13.6558C2.5 13.8065 2.5 14.0327 2.575 14.2588C2.65 14.3342 2.65 14.4095 2.725 14.4849L5.5 17.2739C5.65 17.4246 5.875 17.5 6.025 17.5C6.175 17.5 6.4 17.4246 6.55 17.2739C6.85 16.9724 6.85 16.5201 6.55 16.2186L5.05 14.7111H16.75C17.2 14.7111 17.5 14.4095 17.5 13.9573C17.5 13.505 17.2 13.2035 16.75 13.2035Z" fill="currentColor"/>
</svg>
