<svg fill="none" height="24" viewBox="0 0 24 24" width="24" xmlns="http://www.w3.org/2000/svg"><path d="m20.91 7.52261c0 .09046-.09.18091-.18.27136l-3.33 3.43723c-.18.1809-.45.2713-.63.2713s-.45-.0904-.63-.2713c-.36-.3619-.36-.9046 0-1.26638l1.8-1.80904h-14.04c-.54 0-.9-.36181-.9-.90452 0-.54272.36-.90453.9-.90453h14.04l-1.8-1.80904c-.36-.36181-.36-.90452 0-1.26633s.9-.36181 1.26 0l3.33 3.25628c.09.09045.18.1809.18.27136.09.1809.09.27135.09.3618 0 .18091 0 .27136-.09.36181zm-.81 8.32159h-14.04l1.8-1.809c.36-.3618.36-.9045 0-1.2664-.36-.3618-.9-.3618-1.26 0l-3.33 3.3468c-.09.0904-.18.1809-.18.2713-.09.1809-.09.4523 0 .7237.09.0904.09.1809.18.2713l3.33 3.3467c.18.1809.45.2714.63.2714s.45-.0905.63-.2714c.36-.3618.36-.9045 0-1.2663l-1.8-1.809h14.04c.54 0 .9-.3618.9-.9046 0-.5427-.36-.9045-.9-.9045z" fill="currentColor"/></svg>