<svg xmlns="http://www.w3.org/2000/svg" width="24" height="24" viewBox="0 0 24 24" fill="none"><path fill="currentColor" d="M17.56 11.2c-.19 0-.38-.07-.53-.22a.754.754 0 0 1 0-1.06l3.19-3.19-3.19-3.19a.754.754 0 0 1 0-1.06c.29-.29.77-.29 1.06 0l3.72 3.72a.75.75 0 0 1 0 1.06l-3.72 3.72c-.15.14-.34.22-.53.22Z"/><path fill="currentColor" d="M21.28 7.48h-18c-.41 0-.75-.34-.75-.75s.34-.75.75-.75h18c.41 0 .75.34.75.75s-.34.75-.75.75ZM7 21.75c-.19 0-.38-.07-.53-.22l-3.72-3.72a.75.75 0 0 1 0-1.06l3.72-3.72c.29-.29.77-.29 1.06 0 .29.29.29.77 0 1.06l-3.19 3.19 3.19 3.19c.29.29.29.77 0 1.06a.71.71 0 0 1-.53.22Z"/><path fill="currentColor" d="M21.28 18.02h-18c-.41 0-.75-.34-.75-.75s.34-.75.75-.75h18c.41 0 .75.34.75.75s-.34.75-.75.75Z"/></svg>