<svg xmlns="http://www.w3.org/2000/svg" width="24" height="24" viewBox="0 0 24 24" fill="none"><path fill="currentColor" d="M10.731 7.47c-.19 0-.38-.07-.53-.22l-3.19-3.19-3.19 3.19c-.29.29-.77.29-1.06 0a.754.754 0 0 1 0-1.06l3.72-3.72a.75.75 0 0 1 1.06 0l3.72 3.72c.29.29.29.77 0 1.06-.15.15-.34.22-.53.22Z"/><path fill="currentColor" d="M7.011 21.75c-.41 0-.75-.34-.75-.75V3c0-.41.34-.75.75-.75s.75.34.75.75v18c0 .41-.34.75-.75.75ZM17.56 21.75a.75.75 0 0 1-.53-.22l-3.72-3.72a.754.754 0 0 1 0-1.06c.29-.29.77-.29 1.06 0l3.19 3.19 3.19-3.19c.29-.29.77-.29 1.06 0 .29.29.29.77 0 1.06l-3.72 3.72c-.14.14-.34.22-.53.22Z"/><path fill="currentColor" d="M17.55 21.75c-.41 0-.75-.34-.75-.75V3c0-.41.34-.75.75-.75s.75.34.75.75v18c0 .41-.33.75-.75.75Z"/></svg>