<svg width="21" height="20" viewBox="0 0 21 20" fill="none" xmlns="http://www.w3.org/2000/svg">
<path d="M8.99875 5C6.00905 5 3.58203 7.42699 3.58203 10.4167C3.58203 13.4063 6.00905 15.8333 8.99875 15.8333C11.9885 15.8333 14.4155 13.4063 14.4155 10.4167C14.4087 7.42699 11.9885 5 8.99875 5Z" fill="currentColor"/>
<path fill-rule="evenodd" clip-rule="evenodd" d="M10.8594 4.34773C11.5899 3.71618 12.5418 3.33398 13.5823 3.33398C15.8821 3.33398 17.7438 5.2009 17.749 7.50065C17.749 9.27158 16.642 10.7858 15.0827 11.3886C15.1915 10.9437 15.2491 10.4789 15.2491 10.0007C15.243 7.27936 13.38 4.99096 10.8594 4.34773Z" fill="currentColor"/>
<path d="M13.086 20C12.8069 20 12.6209 19.9074 12.4349 19.6296C12.3418 19.4444 12.3418 19.1667 12.4349 18.8889L13.365 17.2222C13.551 16.8519 14.0161 16.7593 14.2951 16.9444C14.6672 17.1296 14.7602 17.5926 14.5742 17.8704L14.2951 18.3333C16.8995 17.7778 18.7598 15.463 18.7598 12.6852C18.7598 12.3148 19.0389 11.9444 19.5039 11.9444C19.969 11.9444 20.2481 12.2222 20.2481 12.6852C20.3411 16.7593 17.0856 20 13.086 20ZM0.994114 7.96296C0.622057 7.96296 0.25 7.59259 0.25 7.22222C0.25 3.24074 3.5055 0 7.50511 0C7.78415 0 7.97018 0.0925926 8.15621 0.37037C8.24922 0.555556 8.24922 0.833333 8.15621 1.11111L7.22606 2.77778C7.04004 3.14815 6.57497 3.24074 6.29592 3.05556C5.92387 2.87037 5.83085 2.40741 6.01688 2.12963L6.29592 1.66667C3.59851 2.22222 1.73823 4.44445 1.73823 7.22222C1.73823 7.59259 1.36617 7.96296 0.994114 7.96296Z" fill="currentColor"/>
</svg>
