<svg fill="none" height="24" viewBox="0 0 24 24" width="24" xmlns="http://www.w3.org/2000/svg"><path d="m11.28 7.86c-.36.36-.9.36-1.26 0l-1.8-1.8v14.04c0 .54-.36.9-.9.9s-.9-.36-.9-.9v-14.04l-1.8 1.8c-.27.18-.45.27-.72.27s-.45-.09-.63-.27c-.36-.36-.36-.9 0-1.26l3.33-3.33c.09-.09.18-.18.27-.18.18-.09.27-.09.36-.09.18 0 .27 0 .36.09.09 0 .18.09.27.18l3.42 3.33c.27.36.27.9 0 1.26zm9.45 8.28c-.36-.36-.9-.36-1.26 0l-1.8 1.8v-14.04c0-.54-.36-.9-.9-.9s-.9.36-.9.9v14.04l-1.8-1.8c-.36-.36-.9-.36-1.26 0s-.36.9 0 1.26l3.33 3.33c.09.09.18.18.27.18.09.09.18.09.36.09s.27 0 .36-.09.18-.09.27-.18l3.33-3.33c.36-.36.36-.9 0-1.26z" fill="currentColor"/></svg>