<svg viewBox="0 0 24 24" xmlns="http://www.w3.org/2000/svg"><path d="m20.7097 3.6545s1.9426-.7575 1.7807 1.08214c-.0539.75751-.5396 3.40876-.9174 6.27646l-1.295 8.4948s-.108 1.2445-1.0793 1.4609c-.9714.2164-2.4283-.7575-2.6982-.9739-.2158-.1623-4.0471-2.5972-5.3962-3.7875-.3778-.3247-.8095-.9739.0539-1.7314l5.6662-5.41075c.6475-.6493 1.295-2.1643-1.4031-.32465l-7.55475 5.1402s-.8634.5411-2.48225.0541l-3.50759-1.0822s-1.295105-.8116.91737-1.6232c5.39627-2.54305 12.03372-5.1402 17.91562-7.575z"/></svg>