<svg viewBox="0 0 24 24" xmlns="http://www.w3.org/2000/svg"><path d="M20.2949 3.81315C20.2949 3.81315 22.145 3.09173 21.9908 4.84377C21.9395 5.5652 21.4769 8.0902 21.1172 10.8213L19.8837 18.9117C19.8837 18.9117 19.781 20.0969 18.8559 20.303C17.9308 20.5091 16.5432 19.5816 16.2862 19.3754C16.0807 19.2209 12.4318 16.902 11.1469 15.7683C10.7872 15.4591 10.376 14.8407 11.1983 14.1193L16.5946 8.96625C17.2113 8.34787 17.828 6.90501 15.2584 8.65706L8.06338 13.5525C8.06338 13.5525 7.24109 14.0678 5.69933 13.604L2.35877 12.5734C2.35877 12.5734 1.12534 11.8004 3.23245 11.0274C8.37176 8.60549 14.6931 6.13201 20.2949 3.81315Z"/></svg>
