<svg xmlns="http://www.w3.org/2000/svg" width="24" height="24" viewBox="0 0 24 24" fill="none"><path fill="currentColor" d="M17.672 15.67 13.632 12h-2.71l-4.04 3.67a3.602 3.602 0 0 0-.95 4.01 3.63 3.63 0 0 0 3.4 2.32h5.89c1.52 0 2.85-.91 3.4-2.32.55-1.42.18-2.99-.95-4.01Zm-3.57 2.47h-3.64a.68.68 0 0 1-.68-.68c0-.37.31-.68.68-.68h3.64c.38 0 .68.31.68.68 0 .37-.31.68-.68.68ZM18.632 4.32a3.63 3.63 0 0 0-3.4-2.32h-5.9a3.63 3.63 0 0 0-2.44 6.33l4.04 3.67h2.71l4.04-3.67a3.635 3.635 0 0 0 .95-4.01Zm-4.53 2.91h-3.64a.68.68 0 0 1-.68-.68c0-.37.31-.68.68-.68h3.64c.38 0 .68.31.68.68 0 .37-.31.68-.68.68Z"/></svg>