<svg xmlns="http://www.w3.org/2000/svg" width="24" height="24" viewBox="0 0 24 24" fill="none"><path fill="currentColor" d="M16.471 2h-8.38c-3.64 0-5.81 2.17-5.81 5.81v8.37c0 3.65 2.17 5.82 5.81 5.82h8.37c3.64 0 5.81-2.17 5.81-5.81V7.81c.01-3.64-2.16-5.81-5.8-5.81Zm.69 12.33c0 .09-.02.18-.05.27-.07.17-.21.31-.38.38-.09.04-.18.05-.27.05h-1.86c-.39 0-.7-.31-.7-.7 0-.39.31-.7.7-.7h.18l-2.11-2.11-1.02 1.52c-.12.17-.3.29-.51.31a.687.687 0 0 1-.56-.2l-2.98-2.98a.706.706 0 0 1 0-.99c.27-.28.71-.27.99 0l2.38 2.38 1.02-1.52c.12-.17.3-.29.51-.31.22-.02.41.05.56.2l2.72 2.72v-.18c0-.39.31-.7.7-.7.39 0 .7.31.7.7v1.86h-.02Z"/></svg>