<svg xmlns="http://www.w3.org/2000/svg" width="24" height="24" viewBox="0 0 24 24" fill="none"><path fill="currentColor" fill-rule="evenodd" d="M14.002 3.966a4.665 4.665 0 0 1 4.69.808 7.917 7.917 0 0 0 1.732-.924 1 1 0 0 1 1.548 1.054 7.316 7.316 0 0 1-1.621 3.108c.008.11.012.222.013.334v.003c0 5.055-2.437 8.78-5.95 10.65-3.49 1.857-7.941 1.833-11.9-.366a1 1 0 0 1 .526-1.874 8.524 8.524 0 0 0 3.597-.64c-1.104-.733-1.918-1.586-2.5-2.505-.842-1.329-1.158-2.735-1.215-3.992-.057-1.253.142-2.38.35-3.185a10.888 10.888 0 0 1 .403-1.243l.032-.079.01-.023.003-.008.002-.002V5.08s0 0 .914.406l-.913-.407a1 1 0 0 1 1.732-.168c.732 1.042 2.847 2.46 2.847 2.46s1.763.691 2.7.785a4.666 4.666 0 0 1 3-4.19z" clip-rule="evenodd"/></svg>