<svg xmlns="http://www.w3.org/2000/svg" width="24" height="24" viewBox="0 0 24 24" fill="none"><path fill="currentColor" fill-rule="evenodd" d="M12.338 3.059c.135.048.261.126.37.234l4.444 4.444a1 1 0 0 1-1.415 1.415L13 6.414v8.253a1 1 0 1 1-2 0V6.414L8.263 9.152a1 1 0 1 1-1.414-1.415l4.435-4.435A1.005 1.005 0 0 1 12 3m.015 0a.998.998 0 0 1 .323.059zM4 13.666a1 1 0 0 1 1 1v3.556a.778.778 0 0 0 .778.778h12.444a.778.778 0 0 0 .778-.778v-3.556a1 1 0 1 1 2 0v3.556A2.778 2.778 0 0 1 18.222 21H5.778A2.778 2.778 0 0 1 3 18.222v-3.556a1 1 0 0 1 1-1z" clip-rule="evenodd"/></svg>