<svg xmlns="http://www.w3.org/2000/svg" width="24" height="24" viewBox="0 0 24 24" fill="none"><path fill="currentColor" d="M22 11.998c0 .097-.053.19-.14.234L19.082 13.9a.276.276 0 0 1-.28.01.28.28 0 0 1-.141-.244v-1.11h-7.442c.789 1.235 1.263 3.333 2.17 3.333h.832v-.835c0-.156.122-.278.278-.278h2.778c.156 0 .277.122.277.278v2.777a.274.274 0 0 1-.277.278h-2.778a.274.274 0 0 1-.278-.278V17h-.832c-2.35 0-2.528-4.443-3.888-4.443H6.374a2.236 2.236 0 0 1-2.151 1.668A2.23 2.23 0 0 1 2 11.998c0-1.225.998-2.223 2.223-2.223a2.23 2.23 0 0 1 2.151 1.668c1.22 0 1.369.296 2.326-1.883C9.95 6.782 10.51 7 12.095 7a1.668 1.668 0 1 1 0 1.116h-.929c-.907 0-1.381 2.102-2.17 3.334h9.668v-1.11c0-.103.053-.19.14-.244s.2-.043.278.01l2.778 1.668c.087.034.14.128.14.224z"/></svg>