<svg xmlns="http://www.w3.org/2000/svg" width="24" height="24" viewBox="0 0 24 24" fill="none"><path fill="currentColor" fill-rule="evenodd" d="M16.281 7a5 5 0 1 1-10 0 5 5 0 0 1 10 0Zm-14 14.5c0-4.14 4.08-7.5 9.09-7.5 1.423 0 2.77.27 3.97.754a4.25 4.25 0 0 0 5.11 6.405c.007.113.01.227.01.341 0 .28-.22.5-.5.5H2.781c-.28 0-.5-.22-.5-.5Z" clip-rule="evenodd"/><path fill="currentColor" fill-rule="evenodd" d="M18.781 21.25a4 4 0 1 0 0-8 4 4 0 0 0 0 8Zm1.9-4.618a.5.5 0 0 0-.68-.734l-1.776 1.643-.65-.65a.5.5 0 0 0-.707.708l.99.99a.5.5 0 0 0 .693.013l2.13-1.97Z" clip-rule="evenodd"/></svg>