<svg xmlns="http://www.w3.org/2000/svg" width="24" height="24" viewBox="0 0 24 24" fill="none"><path fill="currentColor" fill-rule="evenodd" d="M16.281 7a5 5 0 1 1-10 0 5 5 0 0 1 10 0Zm-14 14.5c0-4.14 4.08-7.5 9.09-7.5 1.423 0 2.77.27 3.97.754a4.25 4.25 0 0 0 5.11 6.405c.007.113.01.227.01.341 0 .28-.22.5-.5.5H2.781c-.28 0-.5-.22-.5-.5Z" clip-rule="evenodd"/><path fill="currentColor" fill-rule="evenodd" d="M22.781 17.25a4 4 0 1 1-8 0 4 4 0 0 1 8 0Zm-2.796 1.204a.318.318 0 0 1 .45 0l.571.571a.318.318 0 0 1-.45.45l-.571-.571a.318.318 0 0 1 0-.45Zm.453-1.376a1.828 1.828 0 1 1-3.657 0 1.828 1.828 0 0 1 3.657 0Z" clip-rule="evenodd"/></svg>