<svg xmlns="http://www.w3.org/2000/svg" width="24" height="24" viewBox="0 0 24 24" fill="none"><path fill="currentColor" d="M21.3 3.267A3.756 3.756 0 0 0 18.472 2a3.805 3.805 0 0 0-3.81 3.81c0 .714.2 1.39.553 1.961.19.324.438.62.723.867a3.734 3.734 0 0 0 3.724.781 3.713 3.713 0 0 0 2.067-1.648c.2-.323.352-.695.438-1.076.076-.285.114-.58.114-.885 0-.972-.371-1.867-.98-2.543Zm-1.41 3.238h-.704v.743a.72.72 0 0 1-.714.714.72.72 0 0 1-.715-.714v-.743h-.704a.72.72 0 0 1-.715-.715.72.72 0 0 1 .715-.714h.704V4.4a.72.72 0 0 1 .715-.714.72.72 0 0 1 .714.714v.676h.705a.713.713 0 1 1 0 1.429Z"/><path fill="currentColor" d="M21.329 12.476a9.353 9.353 0 0 0-.686-3.543 3.63 3.63 0 0 1-.98.486c-.106.038-.21.067-.325.095a8.076 8.076 0 0 1-1.781 8.648 4.404 4.404 0 0 0-1.047-.953c-2.581-1.733-6.81-1.733-9.41 0-.419.277-.762.6-1.047.953a8.076 8.076 0 0 1-2.343-5.686c0-4.466 3.628-8.095 8.095-8.095 1.038 0 2.038.2 2.952.562.029-.114.058-.22.096-.333.114-.353.276-.677.495-.972a9.352 9.352 0 0 0-3.543-.686c-5.248 0-9.524 4.277-9.524 9.524 0 2.762 1.19 5.248 3.076 6.99 0 .01 0 .01-.01.02.096.095.21.171.306.257.057.048.104.095.162.133.171.143.361.276.542.41.067.047.124.085.19.133.182.124.372.238.572.343.067.038.143.086.21.124.19.105.39.2.6.285.076.038.152.077.228.105.21.086.42.162.629.229.076.028.152.057.229.076.228.067.457.124.685.18.067.02.134.039.21.049.267.057.533.095.81.123.037 0 .075.01.114.02.323.028.647.047.971.047.324 0 .648-.019.962-.048.038 0 .076-.01.114-.019.276-.028.543-.066.81-.123.066-.01.133-.039.21-.048.228-.057.466-.105.685-.181.076-.029.152-.057.229-.076.21-.076.428-.143.628-.229.076-.028.152-.067.229-.105.2-.085.4-.18.6-.285.076-.038.143-.086.21-.124.19-.114.38-.22.57-.343.067-.038.125-.086.191-.133.19-.134.372-.267.543-.41.057-.047.105-.095.162-.133.105-.086.21-.172.305-.257 0-.01 0-.01-.01-.02 1.895-1.742 3.086-4.228 3.086-6.99Z"/><path fill="currentColor" d="M11.805 7.648a3.573 3.573 0 0 0-3.571 3.571c0 1.934 1.514 3.505 3.523 3.562h.172a3.565 3.565 0 0 0 3.447-3.562c0-1.971-1.6-3.571-3.57-3.571Z"/></svg>