<svg xmlns="http://www.w3.org/2000/svg" width="24" height="24" viewBox="0 0 24 24" fill="none"><path fill="currentColor" d="M22.281 12c0-5.51-4.49-10-10-10s-10 4.49-10 10c0 2.9 1.25 5.51 3.23 7.34 0 .01 0 .01-.01.02.1.1.22.18.32.27.06.05.11.1.17.14.18.15.38.29.57.43l.2.14c.19.13.39.25.6.36.07.04.15.09.22.13.2.11.41.21.63.3.08.04.16.08.24.11.22.09.44.17.66.24.08.03.16.06.24.08.24.07.48.13.72.19.07.02.14.04.22.05.28.06.56.1.85.13.04 0 .08.01.12.02.34.03.68.05 1.02.05.34 0 .68-.02 1.01-.05.04 0 .08-.01.12-.02.29-.03.57-.07.85-.13.07-.01.14-.04.22-.05.24-.06.49-.11.72-.19.08-.03.16-.06.24-.08.22-.08.45-.15.66-.24.08-.03.16-.07.24-.11.21-.09.42-.19.63-.3.08-.04.15-.09.22-.13.2-.12.4-.23.6-.36.07-.04.13-.09.2-.14.2-.14.39-.28.57-.43.06-.05.11-.1.17-.14.11-.09.22-.18.32-.27 0-.01 0-.01-.01-.02 1.99-1.83 3.24-4.44 3.24-7.34Zm-5.06 4.97c-2.71-1.82-7.15-1.82-9.88 0-.44.29-.8.63-1.1 1A8.48 8.48 0 0 1 3.781 12c0-4.69 3.81-8.5 8.5-8.5 4.69 0 8.5 3.81 8.5 8.5 0 2.32-.94 4.43-2.46 5.97-.29-.37-.66-.71-1.1-1Z"/><path fill="currentColor" d="M12.281 6.93c-2.07 0-3.75 1.68-3.75 3.75 0 2.03 1.59 3.68 3.7 3.74h.18a3.743 3.743 0 0 0 3.62-3.74c0-2.07-1.68-3.75-3.75-3.75Z"/></svg>