<svg xmlns="http://www.w3.org/2000/svg" width="24" height="24" viewBox="0 0 24 24" fill="none"><path fill="currentColor" fill-rule="evenodd" d="M13.068 7.902c0 2.156-1.759 3.903-3.928 3.903s-3.927-1.747-3.927-3.903S6.97 4 9.14 4c2.17 0 3.928 1.747 3.928 3.902zM2 19.61c0-3.231 3.205-5.854 7.14-5.854 3.936 0 7.14 2.622 7.14 5.854 0 .218-.172.39-.392.39H2.393A.388.388 0 0 1 2 19.61zm19.71-9.403a1.006 1.006 0 0 0 0-1.414.986.986 0 0 0-1.403 0l-2.605 2.626-.951-.96a.986.986 0 0 0-1.403 0 1.006 1.006 0 0 0 0 1.415l1.653 1.666a.986.986 0 0 0 1.402 0z" clip-rule="evenodd"/></svg>