<svg xmlns="http://www.w3.org/2000/svg" width="24" height="24" viewBox="0 0 24 24" fill="none"><path fill="currentColor" fill-rule="evenodd" d="M16.281 7a5 5 0 1 1-10 0 5 5 0 0 1 10 0Zm-14 14.5c0-4.14 4.08-7.5 9.09-7.5 1.347 0 2.626.243 3.777.678a4.25 4.25 0 0 0 5.297 6.366c.01.15.016.303.016.456 0 .28-.22.5-.5.5H2.781c-.28 0-.5-.22-.5-.5Z" clip-rule="evenodd"/><path fill="currentColor" fill-rule="evenodd" d="M18.53 21.242a4 4 0 1 0 0-8 4 4 0 0 0 0 8Zm.5-5.495a.5.5 0 1 0-1 0v.96h-.99a.5.5 0 1 0 0 1h.99v1.03a.5.5 0 0 0 1 0v-1.03h.99a.5.5 0 0 0 0-1h-.99v-.96Z" clip-rule="evenodd"/></svg>