<svg xmlns="http://www.w3.org/2000/svg" width="24" height="24" viewBox="0 0 24 24" fill="none"><path fill="currentColor" fill-rule="evenodd" d="M21.243 9.924h-2.075a2.049 2.049 0 0 0-1.477.685 2.065 2.065 0 0 0-.518 1.548c.063.518.313.994.703 1.34.39.345.892.534 1.412.533h1.995a.995.995 0 0 0 .997-1.002v-2.082a1.003 1.003 0 0 0-1.037-1.022Zm-.529 5.608h-1.426a3.633 3.633 0 0 1-2.469-.912 3.66 3.66 0 0 1-1.213-2.343A3.539 3.539 0 0 1 17.795 8.7a3.42 3.42 0 0 1 1.343-.248h1.546a.487.487 0 0 0 .5-.53 4.615 4.615 0 0 0-1.263-2.995 4.582 4.582 0 0 0-2.918-1.412c-.249-.02-.5-.02-.748 0H7.276c-.27 0-.54.02-.808.06a4.633 4.633 0 0 0-3.07 1.605 4.667 4.667 0 0 0-1.11 3.292v7.01c0 1.328.526 2.601 1.461 3.54a4.979 4.979 0 0 0 3.527 1.467h8.979a4.653 4.653 0 0 0 3.418-1.164 4.686 4.686 0 0 0 1.57-3.262.492.492 0 0 0-.529-.531Zm-9.198.71a3.87 3.87 0 0 1-1.284 2.655 3.842 3.842 0 0 1-2.776.97 3.852 3.852 0 0 1-2.78-.97 3.881 3.881 0 0 1-1.29-2.654v-4.506a2.452 2.452 0 0 1 0-.27 3.395 3.395 0 0 1 1.247-2.574 4.038 4.038 0 0 1 1.436-.871c.448-.146.916-.22 1.387-.22a4.33 4.33 0 0 1 2.853 1 3.403 3.403 0 0 1 1.207 2.654v4.787ZM4.383 13.77v.451c0 1.392 1.327 2.433 3.073 2.433s3.062-1.001 3.062-2.433v-.46a4.44 4.44 0 0 1-3.072 1.151 4.49 4.49 0 0 1-3.063-1.142ZM6.29 9.023c-.53.156-1 .474-1.341.91a2.67 2.67 0 0 0-.565 1.523v.23c.031.313.134.615.3.882a3.205 3.205 0 0 0 2.763 1.342 3.182 3.182 0 0 0 2.763-1.342c.204-.331.31-.713.31-1.102a2.33 2.33 0 0 0-.898-1.812 3.585 3.585 0 0 0-3.332-.631Zm-1.886 7.52c.158.685.55 1.292 1.108 1.716.557.425 1.246.64 1.945.607.7.042 1.392-.169 1.95-.595a2.945 2.945 0 0 0 1.093-1.728 4.39 4.39 0 0 1-3.043 1.112 4.43 4.43 0 0 1-3.053-1.112Z" clip-rule="evenodd"/></svg>