<svg width="24" height="24" viewBox="0 0 37 37" fill="none" xmlns="http://www.w3.org/2000/svg">
<path d="M35.3277 26.0283L24.2931 4.90143C22.8104 2.05884 20.7586 0.5 18.5 0.5C16.2414 0.5 14.1896 2.05884 12.7069 4.90143L1.67228 26.0283C0.275721 28.7241 0.120547 31.31 1.24125 33.3456C2.36194 35.3813 4.56886 36.5 7.46543 36.5H29.5346C32.4311 36.5 34.6381 35.3813 35.7588 33.3456C36.8795 31.31 36.7243 28.7058 35.3277 26.0283ZM17.2069 13.3375C17.2069 12.5856 17.7931 11.962 18.5 11.962C19.2069 11.962 19.7931 12.5856 19.7931 13.3375V22.5071C19.7931 23.259 19.2069 23.8826 18.5 23.8826C17.7931 23.8826 17.2069 23.259 17.2069 22.5071V13.3375ZM19.7241 29.311C19.6379 29.3844 19.5517 29.4577 19.4655 29.5311C19.3621 29.6044 19.2586 29.6595 19.1552 29.6961C19.0517 29.7511 18.9483 29.7878 18.8276 29.8062C18.7241 29.8245 18.6034 29.8428 18.5 29.8428C18.3965 29.8428 18.2759 29.8245 18.1552 29.8062C18.0517 29.7878 17.9483 29.7511 17.8448 29.6961C17.7414 29.6595 17.6379 29.6044 17.5345 29.5311C17.4483 29.4577 17.3621 29.3844 17.2759 29.311C16.9655 28.9626 16.7758 28.4857 16.7758 28.0089C16.7758 27.5321 16.9655 27.0553 17.2759 26.7068C17.3621 26.6335 17.4483 26.5601 17.5345 26.4868C17.6379 26.4134 17.7414 26.3584 17.8448 26.3217C17.9483 26.2667 18.0517 26.23 18.1552 26.2117C18.3793 26.1567 18.6207 26.1567 18.8276 26.2117C18.9483 26.23 19.0517 26.2667 19.1552 26.3217C19.2586 26.3584 19.3621 26.4134 19.4655 26.4868C19.5517 26.5601 19.6379 26.6335 19.7241 26.7068C20.0345 27.0553 20.2241 27.5321 20.2241 28.0089C20.2241 28.4857 20.0345 28.9626 19.7241 29.311Z" fill="currentColor"/>
</svg>
