<svg xmlns="http://www.w3.org/2000/svg" width="24" height="24" viewBox="0 0 24 24" fill="none"><g fill="currentColor"><path d="M3.661 9.772a12.61 12.61 0 0 1 16.677 0 1 1 0 1 0 1.323-1.5 14.61 14.61 0 0 0-19.322 0 1 1 0 0 0 1.322 1.5z"/><path d="M6.686 12.81a8.357 8.357 0 0 1 10.697 0 1 1 0 1 0 1.28-1.537 10.357 10.357 0 0 0-13.257 0 1 1 0 1 0 1.28 1.536z"/><path d="M12.004 15.127c-.852 0-1.682.264-2.377.758a1 1 0 1 1-1.158-1.63 6.104 6.104 0 0 1 7.07 0 1 1 0 1 1-1.158 1.63 4.104 4.104 0 0 0-2.377-.758zM11.999 17.378a1 1 0 1 0 0 2h.008a1 1 0 0 0 0-2z"/></g></svg>