<svg width="392" height="131" viewBox="0 0 1920 1080" fill="none" xmlns="http://www.w3.org/2000/svg">
  <defs>
    <path id="star" d="M20.5 0 C22.8 8.8 24.8 16.2 27.1 17.3 C29.6 18.4 37.2 18.5 41 20.5 C37.2 22.5 29.6 22.6 27.1 23.7 C24.8 24.8 22.8 32.2 20.5 41 C18.2 32.2 16.2 24.8 13.9 23.7 C11.4 22.6 3.8 22.5 0 20.5 C3.8 18.5 11.4 18.4 13.9 17.3 C16.2 16.2 18.2 8.8 20.5 0Z" fill="#AAA"/>
  </defs>
  <use href="#star" x="-28" y="2" width="41" height="41"/>
  <use href="#star" x="17" y="2" width="41" height="41"/>
  <use href="#star" x="737" y="2" width="41" height="41"/>
  <use href="#star" x="782" y="2" width="41" height="41"/>
  <use href="#star" x="827" y="2" width="41" height="41"/>
  <use href="#star" x="872" y="2" width="41" height="41"/>
  <use href="#star" x="917" y="2" width="41" height="41"/>
  <use href="#star" x="962" y="2" width="41" height="41"/>
  <use href="#star" x="1007" y="2" width="41" height="41"/>
  <use href="#star" x="1052" y="2" width="41" height="41"/>
  <use href="#star" x="1097" y="2" width="41" height="41"/>
  <use href="#star" x="-28" y="47" width="41" height="41"/>
  <use href="#star" x="17" y="47" width="41" height="41"/>
  <use href="#star" x="62" y="47" width="41" height="41"/>
  <use href="#star" x="737" y="47" width="41" height="41"/>
  <use href="#star" x="782" y="47" width="41" height="41"/>
  <use href="#star" x="827" y="47" width="41" height="41"/>
  <use href="#star" x="872" y="47" width="41" height="41"/>
  <use href="#star" x="917" y="47" width="41" height="41"/>
  <use href="#star" x="962" y="47" width="41" height="41"/>
  <use href="#star" x="1007" y="47" width="41" height="41"/>
  <use href="#star" x="1052" y="47" width="41" height="41"/>
  <use href="#star" x="1097" y="47" width="41" height="41"/>
  <use href="#star" x="-28" y="92" width="41" height="41"/>
  <use href="#star" x="17" y="92" width="41" height="41"/>
  <use href="#star" x="62" y="92" width="41" height="41"/>
  <use href="#star" x="107" y="92" width="41" height="41"/>
  <use href="#star" x="737" y="92" width="41" height="41"/>
  <use href="#star" x="782" y="92" width="41" height="41"/>
  <use href="#star" x="827" y="92" width="41" height="41"/>
  <use href="#star" x="872" y="92" width="41" height="41"/>
  <use href="#star" x="917" y="92" width="41" height="41"/>
  <use href="#star" x="962" y="92" width="41" height="41"/>
  <use href="#star" x="1007" y="92" width="41" height="41"/>
  <use href="#star" x="1052" y="92" width="41" height="41"/>
  <use href="#star" x="1097" y="92" width="41" height="41"/>
  <use href="#star" x="-28" y="137" width="41" height="41"/>
  <use href="#star" x="17" y="137" width="41" height="41"/>
  <use href="#star" x="62" y="137" width="41" height="41"/>
  <use href="#star" x="107" y="137" width="41" height="41"/>
  <use href="#star" x="152" y="137" width="41" height="41"/>
  <use href="#star" x="737" y="137" width="41" height="41"/>
  <use href="#star" x="782" y="137" width="41" height="41"/>
  <use href="#star" x="827" y="137" width="41" height="41"/>
  <use href="#star" x="872" y="137" width="41" height="41"/>
  <use href="#star" x="917" y="137" width="41" height="41"/>
  <use href="#star" x="962" y="137" width="41" height="41"/>
  <use href="#star" x="1007" y="137" width="41" height="41"/>
  <use href="#star" x="1052" y="137" width="41" height="41"/>
  <use href="#star" x="1097" y="137" width="41" height="41"/>
  <use href="#star" x="-28" y="182" width="41" height="41"/>
  <use href="#star" x="17" y="182" width="41" height="41"/>
  <use href="#star" x="62" y="182" width="41" height="41"/>
  <use href="#star" x="107" y="182" width="41" height="41"/>
  <use href="#star" x="152" y="182" width="41" height="41"/>
  <use href="#star" x="197" y="182" width="41" height="41"/>
  <use href="#star" x="737" y="182" width="41" height="41"/>
  <use href="#star" x="782" y="182" width="41" height="41"/>
  <use href="#star" x="827" y="182" width="41" height="41"/>
  <use href="#star" x="872" y="182" width="41" height="41"/>
  <use href="#star" x="917" y="182" width="41" height="41"/>
  <use href="#star" x="962" y="182" width="41" height="41"/>
  <use href="#star" x="1007" y="182" width="41" height="41"/>
  <use href="#star" x="1052" y="182" width="41" height="41"/>
  <use href="#star" x="1097" y="182" width="41" height="41"/>
  <use href="#star" x="-28" y="227" width="41" height="41"/>
  <use href="#star" x="17" y="227" width="41" height="41"/>
  <use href="#star" x="62" y="227" width="41" height="41"/>
  <use href="#star" x="107" y="227" width="41" height="41"/>
  <use href="#star" x="152" y="227" width="41" height="41"/>
  <use href="#star" x="197" y="227" width="41" height="41"/>
  <use href="#star" x="242" y="227" width="41" height="41"/>
  <use href="#star" x="737" y="227" width="41" height="41"/>
  <use href="#star" x="782" y="227" width="41" height="41"/>
  <use href="#star" x="827" y="227" width="41" height="41"/>
  <use href="#star" x="872" y="227" width="41" height="41"/>
  <use href="#star" x="917" y="227" width="41" height="41"/>
  <use href="#star" x="962" y="227" width="41" height="41"/>
  <use href="#star" x="1007" y="227" width="41" height="41"/>
  <use href="#star" x="1052" y="227" width="41" height="41"/>
  <use href="#star" x="1097" y="227" width="41" height="41"/>
  <use href="#star" x="-28" y="272" width="41" height="41"/>
  <use href="#star" x="17" y="272" width="41" height="41"/>
  <use href="#star" x="62" y="272" width="41" height="41"/>
  <use href="#star" x="107" y="272" width="41" height="41"/>
  <use href="#star" x="152" y="272" width="41" height="41"/>
  <use href="#star" x="197" y="272" width="41" height="41"/>
  <use href="#star" x="242" y="272" width="41" height="41"/>
  <use href="#star" x="287" y="272" width="41" height="41"/>
  <use href="#star" x="737" y="272" width="41" height="41"/>
  <use href="#star" x="782" y="272" width="41" height="41"/>
  <use href="#star" x="827" y="272" width="41" height="41"/>
  <use href="#star" x="872" y="272" width="41" height="41"/>
  <use href="#star" x="917" y="272" width="41" height="41"/>
  <use href="#star" x="962" y="272" width="41" height="41"/>
  <use href="#star" x="1007" y="272" width="41" height="41"/>
  <use href="#star" x="1052" y="272" width="41" height="41"/>
  <use href="#star" x="1097" y="272" width="41" height="41"/>
  <use href="#star" x="-28" y="317" width="41" height="41"/>
  <use href="#star" x="17" y="317" width="41" height="41"/>
  <use href="#star" x="62" y="317" width="41" height="41"/>
  <use href="#star" x="107" y="317" width="41" height="41"/>
  <use href="#star" x="152" y="317" width="41" height="41"/>
  <use href="#star" x="197" y="317" width="41" height="41"/>
  <use href="#star" x="242" y="317" width="41" height="41"/>
  <use href="#star" x="287" y="317" width="41" height="41"/>
  <use href="#star" x="332" y="317" width="41" height="41"/>
  <use href="#star" x="737" y="317" width="41" height="41"/>
  <use href="#star" x="782" y="317" width="41" height="41"/>
  <use href="#star" x="827" y="317" width="41" height="41"/>
  <use href="#star" x="872" y="317" width="41" height="41"/>
  <use href="#star" x="917" y="317" width="41" height="41"/>
  <use href="#star" x="962" y="317" width="41" height="41"/>
  <use href="#star" x="1007" y="317" width="41" height="41"/>
  <use href="#star" x="1052" y="317" width="41" height="41"/>
  <use href="#star" x="1097" y="317" width="41" height="41"/>
  <use href="#star" x="17" y="362" width="41" height="41"/>
  <use href="#star" x="62" y="362" width="41" height="41"/>
  <use href="#star" x="107" y="362" width="41" height="41"/>
  <use href="#star" x="152" y="362" width="41" height="41"/>
  <use href="#star" x="197" y="362" width="41" height="41"/>
  <use href="#star" x="242" y="362" width="41" height="41"/>
  <use href="#star" x="287" y="362" width="41" height="41"/>
  <use href="#star" x="332" y="362" width="41" height="41"/>
  <use href="#star" x="377" y="362" width="41" height="41"/>
  <use href="#star" x="422" y="362" width="41" height="41"/>
  <use href="#star" x="467" y="362" width="41" height="41"/>
  <use href="#star" x="512" y="362" width="41" height="41"/>
  <use href="#star" x="557" y="362" width="41" height="41"/>
  <use href="#star" x="602" y="362" width="41" height="41"/>
  <use href="#star" x="647" y="362" width="41" height="41"/>
  <use href="#star" x="692" y="362" width="41" height="41"/>
  <use href="#star" x="1187" y="362" width="41" height="41"/>
  <use href="#star" x="1232" y="362" width="41" height="41"/>
  <use href="#star" x="1277" y="362" width="41" height="41"/>
  <use href="#star" x="1322" y="362" width="41" height="41"/>
  <use href="#star" x="1367" y="362" width="41" height="41"/>
  <use href="#star" x="1412" y="362" width="41" height="41"/>
  <use href="#star" x="1457" y="362" width="41" height="41"/>
  <use href="#star" x="1502" y="362" width="41" height="41"/>
  <use href="#star" x="1547" y="362" width="41" height="41"/>
  <use href="#star" x="1592" y="362" width="41" height="41"/>
  <use href="#star" x="1637" y="362" width="41" height="41"/>
  <use href="#star" x="1682" y="362" width="41" height="41"/>
  <use href="#star" x="1727" y="362" width="41" height="41"/>
  <use href="#star" x="1772" y="362" width="41" height="41"/>
  <use href="#star" x="1817" y="362" width="41" height="41"/>
  <use href="#star" x="1862" y="362" width="41" height="41"/>
  <use href="#star" x="1907" y="362" width="41" height="41"/>
  <use href="#star" x="62" y="407" width="41" height="41"/>
  <use href="#star" x="107" y="407" width="41" height="41"/>
  <use href="#star" x="152" y="407" width="41" height="41"/>
  <use href="#star" x="197" y="407" width="41" height="41"/>
  <use href="#star" x="242" y="407" width="41" height="41"/>
  <use href="#star" x="287" y="407" width="41" height="41"/>
  <use href="#star" x="332" y="407" width="41" height="41"/>
  <use href="#star" x="377" y="407" width="41" height="41"/>
  <use href="#star" x="422" y="407" width="41" height="41"/>
  <use href="#star" x="467" y="407" width="41" height="41"/>
  <use href="#star" x="512" y="407" width="41" height="41"/>
  <use href="#star" x="557" y="407" width="41" height="41"/>
  <use href="#star" x="602" y="407" width="41" height="41"/>
  <use href="#star" x="647" y="407" width="41" height="41"/>
  <use href="#star" x="692" y="407" width="41" height="41"/>
  <use href="#star" x="1232" y="407" width="41" height="41"/>
  <use href="#star" x="1277" y="407" width="41" height="41"/>
  <use href="#star" x="1322" y="407" width="41" height="41"/>
  <use href="#star" x="1367" y="407" width="41" height="41"/>
  <use href="#star" x="1412" y="407" width="41" height="41"/>
  <use href="#star" x="1457" y="407" width="41" height="41"/>
  <use href="#star" x="1502" y="407" width="41" height="41"/>
  <use href="#star" x="1547" y="407" width="41" height="41"/>
  <use href="#star" x="1592" y="407" width="41" height="41"/>
  <use href="#star" x="1637" y="407" width="41" height="41"/>
  <use href="#star" x="1682" y="407" width="41" height="41"/>
  <use href="#star" x="1727" y="407" width="41" height="41"/>
  <use href="#star" x="1772" y="407" width="41" height="41"/>
  <use href="#star" x="1817" y="407" width="41" height="41"/>
  <use href="#star" x="1862" y="407" width="41" height="41"/>
  <use href="#star" x="1907" y="407" width="41" height="41"/>
  <use href="#star" x="107" y="452" width="41" height="41"/>
  <use href="#star" x="152" y="452" width="41" height="41"/>
  <use href="#star" x="197" y="452" width="41" height="41"/>
  <use href="#star" x="242" y="452" width="41" height="41"/>
  <use href="#star" x="287" y="452" width="41" height="41"/>
  <use href="#star" x="332" y="452" width="41" height="41"/>
  <use href="#star" x="377" y="452" width="41" height="41"/>
  <use href="#star" x="422" y="452" width="41" height="41"/>
  <use href="#star" x="467" y="452" width="41" height="41"/>
  <use href="#star" x="512" y="452" width="41" height="41"/>
  <use href="#star" x="557" y="452" width="41" height="41"/>
  <use href="#star" x="602" y="452" width="41" height="41"/>
  <use href="#star" x="647" y="452" width="41" height="41"/>
  <use href="#star" x="692" y="452" width="41" height="41"/>
  <use href="#star" x="1232" y="452" width="41" height="41"/>
  <use href="#star" x="1277" y="452" width="41" height="41"/>
  <use href="#star" x="1322" y="452" width="41" height="41"/>
  <use href="#star" x="1367" y="452" width="41" height="41"/>
  <use href="#star" x="1412" y="452" width="41" height="41"/>
  <use href="#star" x="1457" y="452" width="41" height="41"/>
  <use href="#star" x="1502" y="452" width="41" height="41"/>
  <use href="#star" x="1547" y="452" width="41" height="41"/>
  <use href="#star" x="1592" y="452" width="41" height="41"/>
  <use href="#star" x="1637" y="452" width="41" height="41"/>
  <use href="#star" x="1682" y="452" width="41" height="41"/>
  <use href="#star" x="1727" y="452" width="41" height="41"/>
  <use href="#star" x="1772" y="452" width="41" height="41"/>
  <use href="#star" x="1817" y="452" width="41" height="41"/>
  <use href="#star" x="1862" y="452" width="41" height="41"/>
  <use href="#star" x="1907" y="452" width="41" height="41"/>
  <use href="#star" x="152" y="497" width="41" height="41"/>
  <use href="#star" x="197" y="497" width="41" height="41"/>
  <use href="#star" x="242" y="497" width="41" height="41"/>
  <use href="#star" x="287" y="497" width="41" height="41"/>
  <use href="#star" x="332" y="497" width="41" height="41"/>
  <use href="#star" x="377" y="497" width="41" height="41"/>
  <use href="#star" x="422" y="497" width="41" height="41"/>
  <use href="#star" x="467" y="497" width="41" height="41"/>
  <use href="#star" x="512" y="497" width="41" height="41"/>
  <use href="#star" x="557" y="497" width="41" height="41"/>
  <use href="#star" x="602" y="497" width="41" height="41"/>
  <use href="#star" x="647" y="497" width="41" height="41"/>
  <use href="#star" x="692" y="497" width="41" height="41"/>
  <use href="#star" x="1277" y="497" width="41" height="41"/>
  <use href="#star" x="1322" y="497" width="41" height="41"/>
  <use href="#star" x="1367" y="497" width="41" height="41"/>
  <use href="#star" x="1412" y="497" width="41" height="41"/>
  <use href="#star" x="1457" y="497" width="41" height="41"/>
  <use href="#star" x="1502" y="497" width="41" height="41"/>
  <use href="#star" x="1547" y="497" width="41" height="41"/>
  <use href="#star" x="1592" y="497" width="41" height="41"/>
  <use href="#star" x="1637" y="497" width="41" height="41"/>
  <use href="#star" x="1682" y="497" width="41" height="41"/>
  <use href="#star" x="1727" y="497" width="41" height="41"/>
  <use href="#star" x="1772" y="497" width="41" height="41"/>
  <use href="#star" x="1817" y="497" width="41" height="41"/>
  <use href="#star" x="1862" y="497" width="41" height="41"/>
  <use href="#star" x="1907" y="497" width="41" height="41"/>
  <use href="#star" x="197" y="542" width="41" height="41"/>
  <use href="#star" x="242" y="542" width="41" height="41"/>
  <use href="#star" x="287" y="542" width="41" height="41"/>
  <use href="#star" x="332" y="542" width="41" height="41"/>
  <use href="#star" x="377" y="542" width="41" height="41"/>
  <use href="#star" x="422" y="542" width="41" height="41"/>
  <use href="#star" x="467" y="542" width="41" height="41"/>
  <use href="#star" x="512" y="542" width="41" height="41"/>
  <use href="#star" x="557" y="542" width="41" height="41"/>
  <use href="#star" x="602" y="542" width="41" height="41"/>
  <use href="#star" x="647" y="542" width="41" height="41"/>
  <use href="#star" x="692" y="542" width="41" height="41"/>
  <use href="#star" x="1367" y="542" width="41" height="41"/>
  <use href="#star" x="1412" y="542" width="41" height="41"/>
  <use href="#star" x="1457" y="542" width="41" height="41"/>
  <use href="#star" x="1502" y="542" width="41" height="41"/>
  <use href="#star" x="1547" y="542" width="41" height="41"/>
  <use href="#star" x="1592" y="542" width="41" height="41"/>
  <use href="#star" x="1637" y="542" width="41" height="41"/>
  <use href="#star" x="1682" y="542" width="41" height="41"/>
  <use href="#star" x="1727" y="542" width="41" height="41"/>
  <use href="#star" x="1772" y="542" width="41" height="41"/>
  <use href="#star" x="1817" y="542" width="41" height="41"/>
  <use href="#star" x="1862" y="542" width="41" height="41"/>
  <use href="#star" x="1907" y="542" width="41" height="41"/>
  <use href="#star" x="242" y="587" width="41" height="41"/>
  <use href="#star" x="287" y="587" width="41" height="41"/>
  <use href="#star" x="332" y="587" width="41" height="41"/>
  <use href="#star" x="377" y="587" width="41" height="41"/>
  <use href="#star" x="422" y="587" width="41" height="41"/>
  <use href="#star" x="467" y="587" width="41" height="41"/>
  <use href="#star" x="512" y="587" width="41" height="41"/>
  <use href="#star" x="557" y="587" width="41" height="41"/>
  <use href="#star" x="602" y="587" width="41" height="41"/>
  <use href="#star" x="647" y="587" width="41" height="41"/>
  <use href="#star" x="692" y="587" width="41" height="41"/>
  <use href="#star" x="1412" y="587" width="41" height="41"/>
  <use href="#star" x="1457" y="587" width="41" height="41"/>
  <use href="#star" x="1502" y="587" width="41" height="41"/>
  <use href="#star" x="1547" y="587" width="41" height="41"/>
  <use href="#star" x="1592" y="587" width="41" height="41"/>
  <use href="#star" x="1637" y="587" width="41" height="41"/>
  <use href="#star" x="1682" y="587" width="41" height="41"/>
  <use href="#star" x="1727" y="587" width="41" height="41"/>
  <use href="#star" x="1772" y="587" width="41" height="41"/>
  <use href="#star" x="1817" y="587" width="41" height="41"/>
  <use href="#star" x="1862" y="587" width="41" height="41"/>
  <use href="#star" x="1907" y="587" width="41" height="41"/>
  <use href="#star" x="287" y="632" width="41" height="41"/>
  <use href="#star" x="332" y="632" width="41" height="41"/>
  <use href="#star" x="377" y="632" width="41" height="41"/>
  <use href="#star" x="422" y="632" width="41" height="41"/>
  <use href="#star" x="467" y="632" width="41" height="41"/>
  <use href="#star" x="512" y="632" width="41" height="41"/>
  <use href="#star" x="557" y="632" width="41" height="41"/>
  <use href="#star" x="602" y="632" width="41" height="41"/>
  <use href="#star" x="647" y="632" width="41" height="41"/>
  <use href="#star" x="692" y="632" width="41" height="41"/>
  <use href="#star" x="1457" y="632" width="41" height="41"/>
  <use href="#star" x="1502" y="632" width="41" height="41"/>
  <use href="#star" x="1547" y="632" width="41" height="41"/>
  <use href="#star" x="1592" y="632" width="41" height="41"/>
  <use href="#star" x="1637" y="632" width="41" height="41"/>
  <use href="#star" x="1682" y="632" width="41" height="41"/>
  <use href="#star" x="1727" y="632" width="41" height="41"/>
  <use href="#star" x="1772" y="632" width="41" height="41"/>
  <use href="#star" x="1817" y="632" width="41" height="41"/>
  <use href="#star" x="1862" y="632" width="41" height="41"/>
  <use href="#star" x="1907" y="632" width="41" height="41"/>
  <use href="#star" x="332" y="677" width="41" height="41"/>
  <use href="#star" x="377" y="677" width="41" height="41"/>
  <use href="#star" x="422" y="677" width="41" height="41"/>
  <use href="#star" x="467" y="677" width="41" height="41"/>
  <use href="#star" x="512" y="677" width="41" height="41"/>
  <use href="#star" x="557" y="677" width="41" height="41"/>
  <use href="#star" x="602" y="677" width="41" height="41"/>
  <use href="#star" x="647" y="677" width="41" height="41"/>
  <use href="#star" x="692" y="677" width="41" height="41"/>
  <use href="#star" x="1457" y="677" width="41" height="41"/>
  <use href="#star" x="1502" y="677" width="41" height="41"/>
  <use href="#star" x="1547" y="677" width="41" height="41"/>
  <use href="#star" x="1592" y="677" width="41" height="41"/>
  <use href="#star" x="1637" y="677" width="41" height="41"/>
  <use href="#star" x="1682" y="677" width="41" height="41"/>
  <use href="#star" x="1727" y="677" width="41" height="41"/>
  <use href="#star" x="1772" y="677" width="41" height="41"/>
  <use href="#star" x="1817" y="677" width="41" height="41"/>
  <use href="#star" x="1862" y="677" width="41" height="41"/>
  <use href="#star" x="1907" y="677" width="41" height="41"/>
  <use href="#star" x="-28" y="722" width="41" height="41"/>
  <use href="#star" x="17" y="722" width="41" height="41"/>
  <use href="#star" x="62" y="722" width="41" height="41"/>
  <use href="#star" x="107" y="722" width="41" height="41"/>
  <use href="#star" x="152" y="722" width="41" height="41"/>
  <use href="#star" x="197" y="722" width="41" height="41"/>
  <use href="#star" x="242" y="722" width="41" height="41"/>
  <use href="#star" x="287" y="722" width="41" height="41"/>
  <use href="#star" x="332" y="722" width="41" height="41"/>
  <use href="#star" x="1142" y="722" width="41" height="41"/>
  <use href="#star" x="1187" y="722" width="41" height="41"/>
  <use href="#star" x="1232" y="722" width="41" height="41"/>
  <use href="#star" x="1277" y="722" width="41" height="41"/>
  <use href="#star" x="1322" y="722" width="41" height="41"/>
  <use href="#star" x="1367" y="722" width="41" height="41"/>
  <use href="#star" x="1412" y="722" width="41" height="41"/>
  <use href="#star" x="1457" y="722" width="41" height="41"/>
  <use href="#star" x="1907" y="722" width="41" height="41"/>
  <use href="#star" x="-28" y="767" width="41" height="41"/>
  <use href="#star" x="17" y="767" width="41" height="41"/>
  <use href="#star" x="62" y="767" width="41" height="41"/>
  <use href="#star" x="107" y="767" width="41" height="41"/>
  <use href="#star" x="152" y="767" width="41" height="41"/>
  <use href="#star" x="197" y="767" width="41" height="41"/>
  <use href="#star" x="242" y="767" width="41" height="41"/>
  <use href="#star" x="287" y="767" width="41" height="41"/>
  <use href="#star" x="332" y="767" width="41" height="41"/>
  <use href="#star" x="1142" y="767" width="41" height="41"/>
  <use href="#star" x="1187" y="767" width="41" height="41"/>
  <use href="#star" x="1232" y="767" width="41" height="41"/>
  <use href="#star" x="1277" y="767" width="41" height="41"/>
  <use href="#star" x="1322" y="767" width="41" height="41"/>
  <use href="#star" x="1367" y="767" width="41" height="41"/>
  <use href="#star" x="1412" y="767" width="41" height="41"/>
  <use href="#star" x="1907" y="767" width="41" height="41"/>
  <use href="#star" x="-28" y="812" width="41" height="41"/>
  <use href="#star" x="17" y="812" width="41" height="41"/>
  <use href="#star" x="62" y="812" width="41" height="41"/>
  <use href="#star" x="107" y="812" width="41" height="41"/>
  <use href="#star" x="152" y="812" width="41" height="41"/>
  <use href="#star" x="197" y="812" width="41" height="41"/>
  <use href="#star" x="242" y="812" width="41" height="41"/>
  <use href="#star" x="287" y="812" width="41" height="41"/>
  <use href="#star" x="332" y="812" width="41" height="41"/>
  <use href="#star" x="1142" y="812" width="41" height="41"/>
  <use href="#star" x="1187" y="812" width="41" height="41"/>
  <use href="#star" x="1232" y="812" width="41" height="41"/>
  <use href="#star" x="1277" y="812" width="41" height="41"/>
  <use href="#star" x="1322" y="812" width="41" height="41"/>
  <use href="#star" x="1367" y="812" width="41" height="41"/>
  <use href="#star" x="1907" y="812" width="41" height="41"/>
  <use href="#star" x="-28" y="857" width="41" height="41"/>
  <use href="#star" x="17" y="857" width="41" height="41"/>
  <use href="#star" x="62" y="857" width="41" height="41"/>
  <use href="#star" x="107" y="857" width="41" height="41"/>
  <use href="#star" x="152" y="857" width="41" height="41"/>
  <use href="#star" x="197" y="857" width="41" height="41"/>
  <use href="#star" x="242" y="857" width="41" height="41"/>
  <use href="#star" x="287" y="857" width="41" height="41"/>
  <use href="#star" x="332" y="857" width="41" height="41"/>
  <use href="#star" x="1142" y="857" width="41" height="41"/>
  <use href="#star" x="1187" y="857" width="41" height="41"/>
  <use href="#star" x="1232" y="857" width="41" height="41"/>
  <use href="#star" x="1277" y="857" width="41" height="41"/>
  <use href="#star" x="1322" y="857" width="41" height="41"/>
  <use href="#star" x="1907" y="857" width="41" height="41"/>
  <use href="#star" x="-28" y="902" width="41" height="41"/>
  <use href="#star" x="17" y="902" width="41" height="41"/>
  <use href="#star" x="62" y="902" width="41" height="41"/>
  <use href="#star" x="107" y="902" width="41" height="41"/>
  <use href="#star" x="152" y="902" width="41" height="41"/>
  <use href="#star" x="197" y="902" width="41" height="41"/>
  <use href="#star" x="242" y="902" width="41" height="41"/>
  <use href="#star" x="287" y="902" width="41" height="41"/>
  <use href="#star" x="332" y="902" width="41" height="41"/>
  <use href="#star" x="1142" y="902" width="41" height="41"/>
  <use href="#star" x="1187" y="902" width="41" height="41"/>
  <use href="#star" x="1232" y="902" width="41" height="41"/>
  <use href="#star" x="1277" y="902" width="41" height="41"/>
  <use href="#star" x="1907" y="902" width="41" height="41"/>
  <use href="#star" x="-28" y="947" width="41" height="41"/>
  <use href="#star" x="17" y="947" width="41" height="41"/>
  <use href="#star" x="62" y="947" width="41" height="41"/>
  <use href="#star" x="107" y="947" width="41" height="41"/>
  <use href="#star" x="152" y="947" width="41" height="41"/>
  <use href="#star" x="197" y="947" width="41" height="41"/>
  <use href="#star" x="242" y="947" width="41" height="41"/>
  <use href="#star" x="287" y="947" width="41" height="41"/>
  <use href="#star" x="332" y="947" width="41" height="41"/>
  <use href="#star" x="1142" y="947" width="41" height="41"/>
  <use href="#star" x="1187" y="947" width="41" height="41"/>
  <use href="#star" x="1232" y="947" width="41" height="41"/>
  <use href="#star" x="1907" y="947" width="41" height="41"/>
  <use href="#star" x="-28" y="992" width="41" height="41"/>
  <use href="#star" x="17" y="992" width="41" height="41"/>
  <use href="#star" x="62" y="992" width="41" height="41"/>
  <use href="#star" x="107" y="992" width="41" height="41"/>
  <use href="#star" x="152" y="992" width="41" height="41"/>
  <use href="#star" x="197" y="992" width="41" height="41"/>
  <use href="#star" x="242" y="992" width="41" height="41"/>
  <use href="#star" x="287" y="992" width="41" height="41"/>
  <use href="#star" x="332" y="992" width="41" height="41"/>
  <use href="#star" x="1142" y="992" width="41" height="41"/>
  <use href="#star" x="1187" y="992" width="41" height="41"/>
  <use href="#star" x="1907" y="992" width="41" height="41"/>
  <use href="#star" x="-28" y="1037" width="41" height="41"/>
  <use href="#star" x="17" y="1037" width="41" height="41"/>
  <use href="#star" x="62" y="1037" width="41" height="41"/>
  <use href="#star" x="107" y="1037" width="41" height="41"/>
  <use href="#star" x="152" y="1037" width="41" height="41"/>
  <use href="#star" x="197" y="1037" width="41" height="41"/>
  <use href="#star" x="242" y="1037" width="41" height="41"/>
  <use href="#star" x="287" y="1037" width="41" height="41"/>
  <use href="#star" x="332" y="1037" width="41" height="41"/>
  <use href="#star" x="1142" y="1037" width="41" height="41"/>
  <use href="#star" x="1907" y="1037" width="41" height="41"/>
</svg>
