<svg width="117" height="105" viewBox="0 0 117 105" fill="none" xmlns="http://www.w3.org/2000/svg">
<g id="Frame 427322929">
<g id="Group 2147255906">
<g id="Group 2147255905">
<g id="Group 427322967">
<g id="Ex-Union-103:4498">
<path id="Union" d="M34.3474 67.4822L27.8253 71.5268L26.155 68.0722L22.894 70.0945L21.2236 66.6399L17.9626 68.6622L14.6219 61.7531L11.3609 63.7754L3.48647 47.4896L6.74751 45.4673L3.40684 38.5582L6.66788 36.5359L4.99755 33.0814L8.25859 31.0591L6.58826 27.6045L13.1103 23.56L11.44 20.1054L26.8135 10.5718L28.4838 14.0263L35.0059 9.98178L36.6762 13.4363L39.9372 11.4141L41.6076 14.8686L44.8686 12.8463L48.2093 19.7555L51.4703 17.7332L59.3447 34.019L56.0837 36.0412L59.4244 42.9504L56.1633 44.9726L57.8337 48.4272L54.5726 50.4495L56.243 53.904L49.7209 57.9486L51.3912 61.4032L36.0178 70.9368L34.3474 67.4822Z" fill="#1C1D1F"/>
<path id="28 29" d="M62.7244 45.4542L65.9854 43.4319L59.425 42.9506L56.164 44.9729L62.7244 45.4542Z" fill="#1C1D1F"/>
<path id="27 28" d="M65.9848 43.4314L62.6441 36.5223L56.0837 36.041L59.4244 42.9501L65.9848 43.4314Z" fill="#1C1D1F"/>
<path id="29 30" d="M64.3946 48.9085L62.7242 45.4539L56.1638 44.9727L57.8342 48.4272L64.3946 48.9085Z" fill="#1C1D1F"/>
<path id="26 27" d="M62.6444 36.5223L65.9055 34.5L59.3451 34.0187L56.084 36.041L62.6444 36.5223Z" fill="#1C1D1F"/>
<path id="30 31" d="M61.1337 50.9307L64.3947 48.9084L57.8343 48.4272L54.5733 50.4495L61.1337 50.9307Z" fill="#1C1D1F"/>
<path id="31 32" d="M62.8037 54.385L61.1334 50.9305L54.573 50.4492L56.2433 53.9038L62.8037 54.385Z" fill="#1C1D1F"/>
<path id="25 26" d="M65.9055 34.5004L58.0311 18.2146L51.4707 17.7334L59.3451 34.0192L65.9055 34.5004Z" fill="#1C1D1F"/>
<path id="32 33" d="M56.2822 58.4303L62.8042 54.3857L56.2438 53.9044L49.7218 57.949L56.2822 58.4303Z" fill="#1C1D1F"/>
<path id="33 34" d="M57.9527 61.8845L56.2823 58.43L49.7219 57.9487L51.3923 61.4033L57.9527 61.8845Z" fill="#1C1D1F"/>
<path id="24 25" d="M58.0311 18.2146L54.77 20.2369L48.2096 19.7556L51.4707 17.7333L58.0311 18.2146Z" fill="#1C1D1F"/>
<path id="34 35" d="M42.5785 71.4182L57.9519 61.8846L51.3915 61.4033L36.018 70.9369L42.5785 71.4182Z" fill="#1C1D1F"/>
<path id="23 24" d="M54.7698 20.2366L51.4292 13.3274L44.8688 12.8462L48.2094 19.7553L54.7698 20.2366Z" fill="#1C1D1F"/>
<path id="22 23" d="M51.4298 13.3274L48.1687 15.3497L41.6083 14.8684L44.8694 12.8461L51.4298 13.3274Z" fill="#1C1D1F"/>
<path id="21 22" d="M48.169 15.3499L46.4986 11.8953L39.9382 11.4141L41.6086 14.8686L48.169 15.3499Z" fill="#1C1D1F"/>
<path id="35 0" d="M40.9085 67.9634L42.5789 71.418L36.0185 70.9367L34.3481 67.4822L40.9085 67.9634Z" fill="#1C1D1F"/>
<path id="20 21" d="M46.4985 11.8953L43.2374 13.9175L36.677 13.4363L39.9381 11.414L46.4985 11.8953Z" fill="#1C1D1F"/>
<path id="19 20" d="M43.237 13.9177L41.5666 10.4632L35.0062 9.98193L36.6766 13.4365L43.237 13.9177Z" fill="#1C1D1F"/>
<path id="0 1" d="M34.3864 72.0084L40.9085 67.9638L34.3481 67.4826L27.826 71.5271L34.3864 72.0084Z" fill="#1C1D1F"/>
<path id="18 19" d="M41.5666 10.4636L35.0445 14.5081L28.4841 14.0269L35.0062 9.98232L41.5666 10.4636Z" fill="#1C1D1F"/>
<path id="1 2" d="M32.7153 68.5533L34.3856 72.0078L27.8252 71.5266L26.1549 68.072L32.7153 68.5533Z" fill="#1C1D1F"/>
<path id="2 3" d="M29.4544 70.5758L32.7154 68.5535L26.155 68.0722L22.894 70.0945L29.4544 70.5758Z" fill="#1C1D1F"/>
<path id="17 18" d="M35.0451 14.5076L33.3747 11.053L26.8143 10.5718L28.4847 14.0263L35.0451 14.5076Z" fill="#1C1D1F"/>
<path id="3 4" d="M27.7848 67.1214L29.4551 70.5759L22.8947 70.0947L21.2244 66.6401L27.7848 67.1214Z" fill="#1C1D1F"/>
<path id="4 5" d="M24.5232 69.1434L27.7842 67.1211L21.2238 66.6398L17.9628 68.6621L24.5232 69.1434Z" fill="#1C1D1F"/>
<path id="5 6" d="M21.1836 62.2342L24.5242 69.1433L17.9638 68.662L14.6232 61.7529L21.1836 62.2342Z" fill="#1C1D1F"/>
<path id="16 17" d="M33.3738 11.0533L18.0003 20.5869L11.4399 20.1056L26.8134 10.572L33.3738 11.0533Z" fill="#1C1D1F"/>
<path id="6 7" d="M17.9219 64.2569L21.1829 62.2346L14.6225 61.7534L11.3615 63.7756L17.9219 64.2569Z" fill="#1C1D1F"/>
<path id="15 16" d="M18.0011 20.5867L19.6714 24.0413L13.111 23.56L11.4407 20.1055L18.0011 20.5867Z" fill="#1C1D1F"/>
<path id="14 15" d="M19.6711 24.0415L13.149 28.086L6.58857 27.6048L13.1106 23.5602L19.6711 24.0415Z" fill="#1C1D1F"/>
<path id="7 8" d="M10.0466 47.9708L17.921 64.2565L11.3606 63.7753L3.48621 47.4895L10.0466 47.9708Z" fill="#1C1D1F"/>
<path id="13 14" d="M13.1493 28.086L14.8196 31.5405L8.2592 31.0593L6.58887 27.6047L13.1493 28.086Z" fill="#1C1D1F"/>
<path id="12 13" d="M14.8192 31.54L11.5581 33.5623L4.99772 33.0811L8.25876 31.0588L14.8192 31.54Z" fill="#1C1D1F"/>
<path id="8 9" d="M13.3085 45.9487L10.0475 47.971L3.4871 47.4898L6.74814 45.4675L13.3085 45.9487Z" fill="#1C1D1F"/>
<path id="11 12" d="M11.558 33.5623L13.2283 37.0169L6.66789 36.5356L4.99756 33.0811L11.558 33.5623Z" fill="#1C1D1F"/>
<path id="9 10" d="M9.96726 39.0396L13.3079 45.9487L6.74753 45.4675L3.40686 38.5583L9.96726 39.0396Z" fill="#1C1D1F"/>
<path id="10 11" d="M13.2292 37.0171L9.96816 39.0394L3.40775 38.5581L6.66879 36.5358L13.2292 37.0171Z" fill="#1C1D1F"/>
</g>
<g id="Group 427322965">
<path id="Union_2" d="M19.6717 24.0422L35.0454 14.5085L36.7156 17.9628L36.7164 17.9623L35.0458 14.5071L41.5674 10.4628L43.238 13.918L46.4988 11.8959L48.169 15.3502L51.4298 13.328L54.6164 19.9184L61.3206 15.7609L71.1038 35.9944L67.8422 38.0171L71.1826 44.9257L67.9226 46.9474L69.5933 50.4025L66.3325 52.4247L68.0027 55.879L57.7538 62.2347L57.6692 62.0597L42.5786 71.418L40.9083 67.9636L34.3876 72.0074L31.0476 65.0996L59.1806 47.6534L59.1802 47.6525L31.0463 65.0993L32.7165 68.5536L29.4557 70.5757L27.7855 67.1214L24.5247 69.1436L21.1838 62.2341L17.9222 64.2567L10.0477 47.9707L13.3093 45.948L13.3097 45.9489L16.5705 43.9268L16.5701 43.9259L13.3093 45.948L9.96887 39.0394L13.2297 37.0173L11.5595 33.563L14.8203 31.5408L13.1496 28.0856L19.6712 24.0413L19.6717 24.0422ZM51.5099 22.2597L51.5095 22.2588L51.5099 22.2597ZM35.0458 14.5071L19.6721 24.0408L18.0019 20.5865L33.3755 11.0528L35.0458 14.5071Z" fill="#1C1D1F"/>
<path id="Union_3" d="M13.3081 45.9491L16.5698 43.9265L13.2289 37.017L16.4897 34.9948L14.8195 31.5405L21.3411 27.4962L19.6709 24.0419L35.0446 14.5082L36.7148 17.9625L43.2372 13.9177L44.9075 17.372L48.1683 15.3499L51.5091 22.2594L48.4583 24.1513L56.3328 40.4373L50.2444 44.2129L53.5853 51.1224L54.5215 50.5419L56.1917 53.9962L54.6115 54.9761L56.2817 58.4305L40.908 67.9642L39.2378 64.5099L32.7162 68.5542L31.046 65.0999L27.7852 67.122L24.4443 60.2125L21.1827 62.2351L13.3081 45.9491Z" fill="black"/>
</g>
</g>
</g>
<g id="Group 2147255872">
<g id="Ex-Union-191:13610">
<path id="Vector" fill-rule="evenodd" clip-rule="evenodd" d="M67.9135 16.6219L73.0382 13.4436L75.663 18.8722L80.7874 15.6946L94.6273 44.3181L89.5029 47.4957L92.1277 52.9243L87.003 56.1026L89.6278 61.5312L82.174 66.1532L92.6732 87.8676L81.0266 95.0901L70.5274 73.3757L62.6081 78.287L59.9833 72.8584L54.8583 76.0363L52.2335 70.6077L47.1093 73.7858L33.2694 45.1623L38.3936 41.9842L35.7688 36.5556L40.8938 33.3778L38.2689 27.9492L65.2887 11.1933L67.9135 16.6219ZM50.7562 36.2422L53.381 41.6708L48.2568 44.8489L55.4153 59.6541L60.5395 56.476L63.1643 61.9046L77.1404 53.2377L74.5156 47.8091L79.64 44.6315L72.4815 29.8262L67.357 33.0038L64.7322 27.5753L50.7562 36.2422Z" fill="#1C1D1F"/>
<path id="4 5_2" d="M94.4077 48.0279L99.5322 44.8503L94.6275 44.3179L89.503 47.4955L94.4077 48.0279Z" fill="#1C1D1F"/>
<path id="10 11_2" d="M85.9314 95.6222L97.578 88.3996L92.6733 87.8672L81.0267 95.0897L85.9314 95.6222Z" fill="#1C1D1F"/>
<path id="5 6_2" d="M97.0326 53.4566L94.4078 48.028L89.5031 47.4956L92.1279 52.9242L97.0326 53.4566Z" fill="#1C1D1F"/>
<path id="9 10_2" d="M97.5776 88.3994L87.0784 66.685L82.1737 66.1526L92.6729 87.867L97.5776 88.3994Z" fill="#1C1D1F"/>
<path id="6 7_2" d="M91.9079 56.6348L97.0325 53.4565L92.1278 52.9241L87.0031 56.1024L91.9079 56.6348Z" fill="#1C1D1F"/>
<path id="7 8_2" d="M94.5326 62.0631L91.9078 56.6345L87.0031 56.1021L89.6279 61.5306L94.5326 62.0631Z" fill="#1C1D1F"/>
<path id="8 9_2" d="M87.0793 66.6849L94.5331 62.0629L89.6284 61.5305L82.1746 66.1525L87.0793 66.6849Z" fill="#1C1D1F"/>
<path id="3 4_2" d="M99.5321 44.8505L85.6922 16.227L80.7875 15.6946L94.6274 44.3181L99.5321 44.8505Z" fill="#1C1D1F"/>
<path id="11 12_2" d="M75.431 73.9077L85.9302 95.6221L81.0255 95.0896L70.5262 73.3752L75.431 73.9077Z" fill="#1C1D1F"/>
<path id="31 32_2" d="M84.5446 45.1638L79.4202 48.3414L74.5155 47.8089L79.6399 44.6313L84.5446 45.1638Z" fill="#1C1D1F"/>
<path id="30 31_2" d="M79.4203 48.3413L82.0451 53.7699L77.1404 53.2374L74.5156 47.8088L79.4203 48.3413Z" fill="#1C1D1F"/>
<path id="32 33_2" d="M77.3858 30.3586L84.5444 45.1639L79.6396 44.6314L72.4811 29.8262L77.3858 30.3586Z" fill="#1C1D1F"/>
<path id="2 3_2" d="M85.6915 16.227L80.567 19.4046L75.6623 18.8722L80.7868 15.6946L85.6915 16.227Z" fill="#1C1D1F"/>
<path id="29 30_2" d="M82.0445 53.7702L68.0685 62.4371L63.1638 61.9047L77.1398 53.2378L82.0445 53.7702Z" fill="#1C1D1F"/>
<path id="1 2_2" d="M80.5676 19.4046L77.9428 13.976L73.0381 13.4436L75.6629 18.8722L80.5676 19.4046Z" fill="#1C1D1F"/>
<path id="12 13_2" d="M67.5125 78.8192L75.4318 73.908L70.5271 73.3755L62.6078 78.2868L67.5125 78.8192Z" fill="#1C1D1F"/>
<path id="33 34_2" d="M72.2614 33.5364L77.3858 30.3588L72.4811 29.8264L67.3567 33.004L72.2614 33.5364Z" fill="#1C1D1F"/>
<path id="0 1_2" d="M77.942 13.976L72.8173 17.1544L67.9126 16.6219L73.0373 13.4436L77.942 13.976Z" fill="#1C1D1F"/>
<path id="13 14_2" d="M64.8877 73.3903L67.5126 78.8189L62.6078 78.2865L59.983 72.8579L64.8877 73.3903Z" fill="#1C1D1F"/>
<path id="34 35_2" d="M69.6365 28.1074L72.2613 33.536L67.3566 33.0035L64.7318 27.575L69.6365 28.1074Z" fill="#1C1D1F"/>
<path id="28 29_2" d="M68.0688 62.4369L65.444 57.0083L60.5393 56.4758L63.1641 61.9044L68.0688 62.4369Z" fill="#1C1D1F"/>
<path id="23 0" d="M72.8188 17.1544L70.194 11.7258L65.2893 11.1934L67.9141 16.622L72.8188 17.1544Z" fill="#1C1D1F"/>
<path id="14 15_2" d="M59.7627 76.5684L64.8876 73.3906L59.9829 72.8582L54.858 76.036L59.7627 76.5684Z" fill="#1C1D1F"/>
<path id="27 28_2" d="M65.444 57.0083L60.3198 60.1863L55.4151 59.6539L60.5393 56.4758L65.444 57.0083Z" fill="#1C1D1F"/>
<path id="15 16_2" d="M57.1385 71.1403L59.7633 76.5689L54.8586 76.0365L52.2338 70.6079L57.1385 71.1403Z" fill="#1C1D1F"/>
<path id="35 24" d="M55.661 36.7743L69.6371 28.1073L64.7323 27.5749L50.7563 36.2419L55.661 36.7743Z" fill="#1C1D1F"/>
<path id="16 17_2" d="M52.0142 74.3179L57.1384 71.1398L52.2337 70.6074L47.1095 73.7855L52.0142 74.3179Z" fill="#1C1D1F"/>
<path id="26 27_2" d="M60.3202 60.1863L53.1617 45.3811L48.257 44.8486L55.4155 59.6539L60.3202 60.1863Z" fill="#1C1D1F"/>
<path id="24 25_2" d="M58.2851 42.2027L55.6603 36.7741L50.7556 36.2417L53.3804 41.6703L58.2851 42.2027Z" fill="#1C1D1F"/>
<path id="25 26_2" d="M53.1616 45.3814L58.2858 42.2033L53.3811 41.6709L48.2569 44.849L53.1616 45.3814Z" fill="#1C1D1F"/>
<path id="22 23_2" d="M70.1935 11.7255L43.1737 28.4814L38.269 27.9489L65.2888 11.1931L70.1935 11.7255Z" fill="#1C1D1F"/>
<path id="17 18_2" d="M38.1741 45.6948L52.014 74.3183L47.1093 73.7858L33.2694 45.1624L38.1741 45.6948Z" fill="#1C1D1F"/>
<path id="21 22_2" d="M43.1739 28.4814L45.7987 33.91L40.894 33.3776L38.2692 27.949L43.1739 28.4814Z" fill="#1C1D1F"/>
<path id="20 21_2" d="M45.7989 33.9104L40.674 37.0882L35.7693 36.5558L40.8942 33.3779L45.7989 33.9104Z" fill="#1C1D1F"/>
<path id="19 20_2" d="M40.6734 37.0879L43.2982 42.5164L38.3935 41.984L35.7687 36.5554L40.6734 37.0879Z" fill="#1C1D1F"/>
<path id="18 19_2" d="M43.2984 42.5163L38.1742 45.6944L33.2695 45.162L38.3937 41.9839L43.2984 42.5163Z" fill="#1C1D1F"/>
</g>
<g id="Group 2147255871">
<g id="Group 2147255866">
<path id="Union_4" d="M72.8194 17.155L77.9439 13.9765L80.5689 19.4054L85.6933 16.227L99.5333 44.8506L94.4088 48.0291L97.0334 53.4571L91.9089 56.6356L94.5335 62.0637L87.0798 66.6862L97.5789 88.4003L85.9326 95.6228L75.4335 73.9087L67.5139 78.8194L64.8893 73.3913L59.7644 76.569L57.1399 71.1409L52.015 74.3185L38.175 45.6949L43.2999 42.5173L40.6749 37.0883L45.7998 33.9107L43.1748 28.4817L70.1944 11.726L72.8194 17.155ZM55.662 36.7754L58.287 42.2043L53.1621 45.3819L60.3208 60.1874L65.4453 57.0089L68.0703 62.4379L82.0467 53.771L79.4217 48.342L84.5457 45.1648L77.387 30.3593L72.263 33.5365L69.6384 28.1084L55.662 36.7754Z" fill="#1C1D1F"/>
<path id="Union_5" d="M89.6025 60.6313L82.1487 65.2537L92.6479 86.968L87.5234 90.1459L77.0242 68.4315L69.1045 73.3428L66.4797 67.9142L86.9776 55.2027L89.6025 60.6313ZM66.4797 67.9142L61.3552 71.0921L58.7304 65.6635L63.8549 62.4856L66.4797 67.9142ZM92.1021 52.0248L86.9776 55.2027L84.3528 49.7741L89.4773 46.5962L92.1021 52.0248ZM58.7304 65.6635L53.6059 68.8413L43.1067 47.127L48.2312 43.9491L58.7304 65.6635ZM94.6018 43.4184L89.4773 46.5962L78.9781 24.8819L84.1026 21.704L94.6018 43.4184ZM53.3556 40.7712L48.2312 43.9491L45.6064 38.5205L50.7308 35.3426L53.3556 40.7712ZM78.9781 24.8819L73.8536 28.0597L71.2288 22.6311L76.3533 19.4533L78.9781 24.8819ZM71.2288 22.6311L50.7308 35.3426L48.106 29.914L68.604 17.2025L71.2288 22.6311Z" fill="black"/>
</g>
</g>
</g>
</g>
</g>
</svg>
