<svg xmlns="http://www.w3.org/2000/svg" width="72" height="78" viewBox="0 0 72 78" fill="none">
  <g filter="url(#filter0_f_1759_32899)">
    <path d="M58.9088 69.3698C58.9088 71.1064 49.0546 72.5141 36.8987 72.5141C24.7429 72.5141 14.8887 71.1064 14.8887 69.3698C14.8887 67.6333 24.7429 66.2255 36.8987 66.2255C49.0546 66.2255 58.9088 67.6333 58.9088 69.3698Z" fill="#858B9A" fill-opacity="0.2"/>
  </g>
  <path d="M43.9236 51.7829L28.2788 49.5886L38.5628 19.6319C38.7925 18.9632 39.4578 18.546 40.1599 18.6302L58.3923 20.8166C58.9728 20.8862 59.5105 21.1569 59.912 21.582L60.2358 21.9242C60.5999 22.3097 60.7338 22.8592 60.5874 23.3689L54.3736 44.9977C53.0667 49.5467 48.6107 52.4401 43.9236 51.7829Z" fill="#686E7D" stroke="#686E7D"/>
  <path d="M45.0434 50.2386L27.6492 47.799L35.9207 19.1842C36.1265 18.4729 36.8207 18.0184 37.555 18.1137L58.4104 20.8208C59.3208 20.939 59.9127 21.8403 59.6593 22.7227L53.2932 44.8824C52.2614 48.4735 48.7437 50.7574 45.0434 50.2386Z" fill="#131416" stroke="#686E7D"/>
  <path d="M35.5585 34.1008C39.4362 34.6447 42.3506 37.916 42.4452 41.8305L42.5081 44.4328L42.5294 44.4358C42.774 47.4053 44.7618 49.853 47.4829 50.2347L42.632 49.5544L42.6522 50.4082L20.6961 47.0694L20.6992 46.4782L18.4923 46.1686L19.1943 41.1629L20.7243 41.3775L20.7716 32.0269L35.5585 34.1008ZM47.6918 50.264L47.4829 50.2347C47.5528 50.2445 47.623 50.2513 47.6926 50.2582L47.6918 50.264Z" fill="#686E7D"/>
  <path d="M37.8672 35.4022C37.8596 35.457 37.8169 35.5001 37.7624 35.5098C36.294 35.7691 35.0129 36.6703 34.2693 37.9503C34.1095 38.2253 34.0061 38.5281 33.9202 38.8343L28.5912 57.8188C28.5097 58.1093 28.2259 58.2947 27.9271 58.2528C27.6474 58.2136 26.8074 57.3832 26.741 57.1087C26.6077 56.5584 26.9524 56.6891 26.5176 56.387C25.4819 55.6675 23.9774 56.1498 23.0318 57.4541C22.987 57.5158 22.9122 57.5495 22.8366 57.5389C22.7435 57.5258 22.106 56.9754 22.0939 56.8822C21.7938 55.9895 22.265 56.0768 21.749 55.7182C20.7133 54.9986 19.2079 55.4809 18.2621 56.7854C18.2175 56.847 18.1429 56.8805 18.0676 56.87C17.9748 56.857 17.5174 56.3316 17.5054 56.2387C17.1468 55.763 17.496 55.408 16.9796 55.0492C15.944 54.3297 14.4394 54.812 13.4938 56.1163C13.449 56.1781 13.3742 56.2117 13.2986 56.2011C13.2056 56.188 12.5703 55.2126 12.5582 55.1195C12.4694 54.4339 12.7271 54.7391 12.2111 54.3804C11.2168 53.6896 9.78985 54.1063 8.84054 55.2948C8.71958 55.4462 8.53113 55.5324 8.3392 55.5055C8.03933 55.4634 7.06127 54.6525 7.13531 54.3589L12.0493 38.487C12.9888 34.7624 16.5631 32.3348 20.3638 32.822L20.3648 32.8212L20.3657 32.8205L37.7602 35.2602C37.829 35.2699 37.8769 35.3334 37.8672 35.4022Z" fill="#686E7D"/>
  <mask id="path-6-inside-1_1759_32899" fill="white">
    <path fill-rule="evenodd" clip-rule="evenodd" d="M35.1862 34.0486C35.9811 34.1602 35.7942 35.1465 35.163 35.6423C34.5559 36.1191 33.9867 36.7234 33.4904 37.4173C33.3067 37.6742 33.1793 37.966 33.094 38.2701L27.875 56.8667C27.7934 57.1573 27.5095 57.3429 27.2106 57.301C26.9307 57.2617 26.7227 57.0312 26.656 56.7566C26.5225 56.2067 26.2349 55.7377 25.8005 55.4356C24.7656 54.7169 23.2646 55.1994 22.3189 56.5014C22.2735 56.5639 22.1978 56.5979 22.1213 56.5872C22.027 56.5739 21.9553 56.4968 21.943 56.4025C21.8536 55.718 21.5462 55.1249 21.0307 54.7667C19.9958 54.0482 18.4945 54.5307 17.5489 55.8327C17.5037 55.895 17.4282 55.9289 17.352 55.9182C17.258 55.9051 17.1866 55.8282 17.1743 55.7342C17.085 55.0495 16.7776 54.4561 16.262 54.0978C15.227 53.3791 13.7258 53.8617 12.7802 55.1639C12.7349 55.2262 12.6595 55.2601 12.5832 55.2494C12.4893 55.2362 12.4178 55.1594 12.4056 55.0653C12.3163 54.3806 12.0088 53.7873 11.4932 53.429C10.4997 52.739 9.07653 53.1561 8.12761 54.3426C8.00616 54.4944 7.8171 54.5809 7.62454 54.5539C7.32355 54.5117 7.12573 54.2176 7.20006 53.9229L11.0218 38.7702C12.1413 34.3324 16.4108 31.445 20.9413 32.0516C20.9415 32.0517 20.9418 32.0515 20.9418 32.0512C20.9418 32.051 20.9421 32.0508 20.9424 32.0508L35.1862 34.0486Z"/>
  </mask>
  <path fill-rule="evenodd" clip-rule="evenodd" d="M35.1862 34.0486C35.9811 34.1602 35.7942 35.1465 35.163 35.6423C34.5559 36.1191 33.9867 36.7234 33.4904 37.4173C33.3067 37.6742 33.1793 37.966 33.094 38.2701L27.875 56.8667C27.7934 57.1573 27.5095 57.3429 27.2106 57.301C26.9307 57.2617 26.7227 57.0312 26.656 56.7566C26.5225 56.2067 26.2349 55.7377 25.8005 55.4356C24.7656 54.7169 23.2646 55.1994 22.3189 56.5014C22.2735 56.5639 22.1978 56.5979 22.1213 56.5872C22.027 56.5739 21.9553 56.4968 21.943 56.4025C21.8536 55.718 21.5462 55.1249 21.0307 54.7667C19.9958 54.0482 18.4945 54.5307 17.5489 55.8327C17.5037 55.895 17.4282 55.9289 17.352 55.9182C17.258 55.9051 17.1866 55.8282 17.1743 55.7342C17.085 55.0495 16.7776 54.4561 16.262 54.0978C15.227 53.3791 13.7258 53.8617 12.7802 55.1639C12.7349 55.2262 12.6595 55.2601 12.5832 55.2494C12.4893 55.2362 12.4178 55.1594 12.4056 55.0653C12.3163 54.3806 12.0088 53.7873 11.4932 53.429C10.4997 52.739 9.07653 53.1561 8.12761 54.3426C8.00616 54.4944 7.8171 54.5809 7.62454 54.5539C7.32355 54.5117 7.12573 54.2176 7.20006 53.9229L11.0218 38.7702C12.1413 34.3324 16.4108 31.445 20.9413 32.0516C20.9415 32.0517 20.9418 32.0515 20.9418 32.0512C20.9418 32.051 20.9421 32.0508 20.9424 32.0508L35.1862 34.0486Z" fill="#131416"/>
  <path d="M35.1862 34.0486L35.3253 33.0583L35.3251 33.0583L35.1862 34.0486ZM25.8005 55.4356L26.3713 54.6146L26.3709 54.6143L25.8005 55.4356ZM21.0307 54.7667L21.6014 53.9455L21.601 53.9452L21.0307 54.7667ZM16.262 54.0978L16.8327 53.2766L16.8324 53.2764L16.262 54.0978ZM11.4932 53.429L12.0639 52.6078L12.0637 52.6076L11.4932 53.429ZM11.0218 38.7702L10.0522 38.5256L10.0521 38.5257L11.0218 38.7702ZM20.9413 32.0516L20.8085 33.0428L20.9413 32.0516ZM7.62454 54.5539L7.76344 53.5636L7.62454 54.5539ZM7.20006 53.9229L6.23042 53.6784L7.20006 53.9229ZM17.1743 55.7342L16.1827 55.8635L17.1743 55.7342ZM17.5489 55.8327L16.7398 55.2451L17.5489 55.8327ZM21.943 56.4025L20.9514 56.532L21.943 56.4025ZM8.12761 54.3426L7.34665 53.718L8.12761 54.3426ZM26.656 56.7566L25.6843 56.9925L26.656 56.7566ZM27.875 56.8667L28.8378 57.1369L27.875 56.8667ZM12.4056 55.0653L13.3972 54.936L12.4056 55.0653ZM33.4904 37.4173L32.6771 36.8355L33.4904 37.4173ZM33.094 38.2701L32.1312 37.9999L33.094 38.2701ZM22.3189 56.5014L21.5098 55.9137L22.3189 56.5014ZM12.7802 55.1639L13.5893 55.7515L12.7802 55.1639ZM35.163 35.6423L34.5453 34.8559C33.8562 35.3972 33.2226 36.0727 32.6771 36.8355L33.4904 37.4173L34.3038 37.999C34.7507 37.3742 35.2557 36.8411 35.7807 36.4287L35.163 35.6423ZM33.094 38.2701L32.1312 37.9999L26.9122 56.5965L27.875 56.8667L28.8378 57.1369L34.0568 38.5403L33.094 38.2701ZM26.656 56.7566L27.6278 56.5207C27.448 55.78 27.0426 55.0813 26.3713 54.6146L25.8005 55.4356L25.2296 56.2567C25.4272 56.3941 25.5971 56.6334 25.6843 56.9925L26.656 56.7566ZM25.8005 55.4356L26.3709 54.6143C24.6992 53.4533 22.6193 54.3862 21.5098 55.9137L22.3189 56.5014L23.128 57.089C23.9098 56.0126 24.832 55.9806 25.23 56.257L25.8005 55.4356ZM21.943 56.4025L22.9346 56.273C22.8178 55.3788 22.4006 54.5009 21.6014 53.9455L21.0307 54.7667L20.4601 55.5878C20.6918 55.7489 20.8894 56.0572 20.9514 56.532L21.943 56.4025ZM21.0307 54.7667L21.601 53.9452C19.9293 52.7847 17.8493 53.7173 16.7398 55.2451L17.5489 55.8327L18.3581 56.4203C19.1397 55.344 20.0623 55.3117 20.4605 55.5881L21.0307 54.7667ZM17.1743 55.7342L18.1659 55.6049C18.0493 54.7104 17.632 53.8322 16.8327 53.2766L16.262 54.0978L15.6913 54.919C15.9231 55.0801 16.1208 55.3885 16.1827 55.8635L17.1743 55.7342ZM16.262 54.0978L16.8324 53.2764C15.1605 52.1155 13.0805 53.0485 11.971 54.5763L12.7802 55.1639L13.5893 55.7515C14.3711 54.6749 15.2935 54.6428 15.6916 54.9192L16.262 54.0978ZM12.4056 55.0653L13.3972 54.936C13.2805 54.0416 12.8632 53.1633 12.0639 52.6078L11.4932 53.429L10.9225 54.2501C11.1543 54.4112 11.352 54.7197 11.414 55.1947L12.4056 55.0653ZM11.4932 53.429L12.0637 52.6076C10.4618 51.4951 8.47065 52.3126 7.34665 53.718L8.12761 54.3426L8.90856 54.9672C9.68241 53.9996 10.5376 53.9828 10.9228 54.2503L11.4932 53.429ZM7.20006 53.9229L8.16969 54.1675L11.9914 39.0148L11.0218 38.7702L10.0521 38.5257L6.23042 53.6784L7.20006 53.9229ZM11.0218 38.7702L11.9914 39.0148C12.9865 35.0701 16.7816 32.5036 20.8085 33.0428L20.9413 32.0516L21.074 31.0605C16.0401 30.3865 11.296 33.5947 10.0522 38.5256L11.0218 38.7702ZM20.9424 32.0508L20.8035 33.0411L35.0473 35.0389L35.1862 34.0486L35.3251 33.0583L21.0813 31.0605L20.9424 32.0508ZM20.9418 32.0512L21.9321 32.1901C21.8554 32.7368 21.3501 33.1178 20.8035 33.0411L20.9424 32.0508L21.0813 31.0605C20.5341 30.9838 20.0282 31.3651 19.9515 31.9123L20.9418 32.0512ZM20.9413 32.0516L20.8085 33.0428C21.3485 33.1151 21.855 32.7402 21.9321 32.1901L20.9418 32.0512L19.9515 31.9123C20.0286 31.3628 20.5346 30.9883 21.074 31.0605L20.9413 32.0516ZM7.62454 54.5539L7.76344 53.5636C8.05151 53.604 8.24083 53.8854 8.16969 54.1675L7.20006 53.9229L6.23042 53.6784C6.01062 54.5499 6.59558 55.4194 7.48565 55.5442L7.62454 54.5539ZM17.352 55.9182L17.4909 54.9279C17.8724 54.9814 18.124 55.2834 18.1659 55.6049L17.1743 55.7342L16.1827 55.8635C16.2492 56.3731 16.6437 56.8287 17.2131 56.9085L17.352 55.9182ZM17.5489 55.8327L16.7398 55.2451C16.9013 55.0227 17.1836 54.8848 17.4909 54.9279L17.352 55.9182L17.2131 56.9085C17.6729 56.973 18.1061 56.7673 18.3581 56.4203L17.5489 55.8327ZM22.1213 56.5872L22.2602 55.5968C22.6414 55.6503 22.8927 55.952 22.9346 56.273L21.943 56.4025L20.9514 56.532C21.018 57.0417 21.4127 57.4976 21.9824 57.5775L22.1213 56.5872ZM8.12761 54.3426L7.34665 53.718C7.41839 53.6283 7.565 53.5358 7.76344 53.5636L7.62454 54.5539L7.48565 55.5442C8.06919 55.626 8.59394 55.3606 8.90856 54.9672L8.12761 54.3426ZM27.2106 57.301L27.3495 56.3106C27.4501 56.3248 27.5241 56.3729 27.5661 56.4156C27.605 56.4551 27.621 56.4927 27.6278 56.5207L26.656 56.7566L25.6843 56.9925C25.8249 57.5718 26.298 58.1828 27.0717 58.2913L27.2106 57.301ZM27.875 56.8667L26.9122 56.5965C26.9659 56.4052 27.1527 56.2831 27.3495 56.3106L27.2106 57.301L27.0717 58.2913C27.8663 58.4027 28.621 57.9095 28.8378 57.1369L27.875 56.8667ZM12.5832 55.2494L12.7221 54.2591C13.1036 54.3126 13.3552 54.6145 13.3972 54.936L12.4056 55.0653L11.414 55.1947C11.4804 55.7042 11.875 56.1598 12.4443 56.2397L12.5832 55.2494ZM33.4904 37.4173L32.6771 36.8355C32.4123 37.2056 32.2409 37.6088 32.1312 37.9999L33.094 38.2701L34.0568 38.5403C34.1177 38.3232 34.201 38.1427 34.3038 37.999L33.4904 37.4173ZM22.3189 56.5014L21.5098 55.9137C21.6711 55.6916 21.9531 55.5538 22.2602 55.5968L22.1213 56.5872L21.9824 57.5775C22.4425 57.642 22.8759 57.4362 23.128 57.089L22.3189 56.5014ZM12.7802 55.1639L11.971 54.5763C12.1325 54.3539 12.4148 54.216 12.7221 54.2591L12.5832 55.2494L12.4443 56.2397C12.9041 56.3042 13.3373 56.0985 13.5893 55.7515L12.7802 55.1639ZM35.1862 34.0486L35.0472 35.0389C35.0293 35.0364 34.9017 35.0057 34.7983 34.8636C34.7063 34.7372 34.7119 34.6297 34.7127 34.6202C34.7135 34.6102 34.7113 34.6428 34.6769 34.7029C34.6443 34.7599 34.5977 34.8147 34.5453 34.8559L35.163 35.6423L35.7807 36.4287C36.2836 36.0337 36.6541 35.4205 36.7061 34.7826C36.7331 34.4506 36.6759 34.0445 36.4151 33.6864C36.1429 33.3125 35.7406 33.1166 35.3253 33.0583L35.1862 34.0486Z" fill="#686E7D" mask="url(#path-6-inside-1_1759_32899)"/>
  <path d="M46.7891 16.3251C50.2668 10.6158 57.8428 8.88512 63.7107 12.4594C69.5785 16.0337 71.5161 23.5595 68.0384 29.2688C67.2469 30.5682 66.2424 31.6606 65.0947 32.5322L69.2679 40.1693C69.7552 41.0611 69.4277 42.1788 68.5359 42.6661C67.6441 43.1535 66.5258 42.8256 66.0385 41.9338L61.8566 34.2807C58.4508 35.4925 54.4999 35.1951 51.1168 33.1344C45.249 29.5601 43.3114 22.0343 46.7891 16.3251Z" fill="#686E7D"/>
  <rect x="60.7104" y="32.1833" width="3.68032" height="12.9515" rx="1.84016" transform="rotate(-28.653 60.7104 32.1833)" fill="#686E7D"/>
  <path d="M61.9828 33.057C61.6803 32.5034 61.8838 31.8094 62.4374 31.5069C62.991 31.2044 63.685 31.408 63.9875 31.9616L68.6415 40.4789C68.944 41.0325 68.7405 41.7265 68.1869 42.029C67.6333 42.3315 66.9393 42.1279 66.6368 41.5743L61.9828 33.057Z" fill="#686E7D"/>
  <path opacity="0.5" d="M63.6485 34.5479C63.4856 34.2498 63.5952 33.876 63.8934 33.7131C64.1915 33.5502 64.5653 33.6598 64.7282 33.958L67.9096 39.7802C68.0725 40.0783 67.9628 40.4521 67.6647 40.615C67.3665 40.7779 66.9928 40.6683 66.8299 40.3702L63.6485 34.5479Z" fill="#131416"/>
  <ellipse cx="57.4139" cy="22.7969" rx="12.1043" ry="12.4406" transform="rotate(-1.76248 57.4139 22.7969)" fill="#686E7D"/>
  <circle cx="57.4036" cy="22.4609" r="11.4319" transform="rotate(-1.76248 57.4036 22.4609)" fill="#686E7D"/>
  <circle cx="56.7781" cy="23.0749" r="11.4319" transform="rotate(-1.76248 56.7781 23.0749)" fill="#131416"/>
  <mask id="mask0_1759_32899" style="mask-type:alpha" maskUnits="userSpaceOnUse" x="45" y="10" width="24" height="25">
    <circle cx="57.4039" cy="22.4605" r="11.0626" transform="rotate(-1.76248 57.4039 22.4605)" fill="#131416" stroke="#858B9A" stroke-opacity="0.2"/>
  </mask>
  <g mask="url(#mask0_1759_32899)">
    <g opacity="0.6" filter="url(#filter1_f_1759_32899)">
      <path d="M42.6661 66.0359L13.8466 61.9938L29.9663 15.0374C30.196 14.3686 30.8614 13.9504 31.5635 14.0346L60.8865 17.5517C61.467 17.6214 62.0048 17.8921 62.4063 18.3171L63.7123 19.6994C64.0764 20.0849 64.2103 20.6345 64.0639 21.1441L53.116 59.2507C51.8092 63.7998 47.3533 66.6933 42.6661 66.0359Z" fill="#686E7D" stroke="#686E7D"/>
      <path d="M43.4681 63.5447L12.8991 59.2572L25.8943 14.3012C26.1 13.5898 26.7943 13.1344 27.5287 13.2298L61.569 17.6491C62.4795 17.7673 63.0714 18.6686 62.818 19.551L51.7188 58.1886C50.687 61.7798 47.1684 64.0637 43.4681 63.5447Z" fill="#131416" stroke="#686E7D"/>
    </g>
  </g>
  <defs>
    <filter id="filter0_f_1759_32899" x="9.88867" y="61.2255" width="54.02" height="16.2886" filterUnits="userSpaceOnUse" color-interpolation-filters="sRGB">
      <feFlood flood-opacity="0" result="BackgroundImageFix"/>
      <feBlend mode="normal" in="SourceGraphic" in2="BackgroundImageFix" result="shape"/>
      <feGaussianBlur stdDeviation="2.5" result="effect1_foregroundBlur_1759_32899"/>
    </filter>
    <filter id="filter1_f_1759_32899" x="-19.1597" y="11.7175" width="84.7817" height="64.3259" filterUnits="userSpaceOnUse" color-interpolation-filters="sRGB">
      <feFlood flood-opacity="0" result="BackgroundImageFix"/>
      <feBlend mode="normal" in="SourceGraphic" in2="BackgroundImageFix" result="shape"/>
      <feGaussianBlur stdDeviation="0.5" result="effect1_foregroundBlur_1759_32899"/>
    </filter>
  </defs>
</svg>
