<svg width="25" height="25" viewBox="0 0 25 25" fill="none" xmlns="http://www.w3.org/2000/svg">
<g id="simple-icons:apple" clip-path="url(#clip0_183_30321)">
<path id="Vector" d="M12.6765 7.396C11.7285 7.396 10.2615 6.318 8.71653 6.356C6.67653 6.383 4.80652 7.539 3.75552 9.37C1.63852 13.045 3.20952 18.473 5.27452 21.46C6.28752 22.914 7.48252 24.55 9.06652 24.499C10.5865 24.434 11.1565 23.512 13.0015 23.512C14.8325 23.512 15.3515 24.499 16.9615 24.46C18.5985 24.434 19.6375 22.98 20.6375 21.512C21.7935 19.824 22.2735 18.187 22.2995 18.097C22.2605 18.084 19.1175 16.876 19.0795 13.24C19.0535 10.2 21.5595 8.746 21.6765 8.681C20.2475 6.591 18.0535 6.357 17.2865 6.305C15.2865 6.149 13.6115 7.396 12.6765 7.396ZM16.0545 4.33C16.8975 3.318 17.4545 1.903 17.2995 0.5C16.0925 0.552 14.6375 1.305 13.7675 2.318C12.9875 3.214 12.3135 4.656 12.4945 6.032C13.8325 6.136 15.2095 5.344 16.0535 4.331" fill="#121314"/>
</g>
<defs>
<clipPath id="clip0_183_30321">
<rect width="24" height="24" fill="white" transform="translate(0.524414 0.5)"/>
</clipPath>
</defs>
</svg>
