<svg width="24" height="25" viewBox="0 0 24 25" fill="none" xmlns="http://www.w3.org/2000/svg">
<path d="M10.6 16.9013L17.65 9.85127L16.25 8.45127L10.6 14.1013L7.75 11.2513L6.35 12.6513L10.6 16.9013ZM12 22.3013C10.6167 22.3013 9.31667 22.0388 8.1 21.5138C6.88333 20.9888 5.825 20.2763 4.925 19.3763C4.025 18.4763 3.3125 17.4179 2.7875 16.2013C2.2625 14.9846 2 13.6846 2 12.3013C2 10.9179 2.2625 9.61794 2.7875 8.40127C3.3125 7.1846 4.025 6.12627 4.925 5.22627C5.825 4.32627 6.88333 3.61377 8.1 3.08877C9.31667 2.56377 10.6167 2.30127 12 2.30127C13.3833 2.30127 14.6833 2.56377 15.9 3.08877C17.1167 3.61377 18.175 4.32627 19.075 5.22627C19.975 6.12627 20.6875 7.1846 21.2125 8.40127C21.7375 9.61794 22 10.9179 22 12.3013C22 13.6846 21.7375 14.9846 21.2125 16.2013C20.6875 17.4179 19.975 18.4763 19.075 19.3763C18.175 20.2763 17.1167 20.9888 15.9 21.5138C14.6833 22.0388 13.3833 22.3013 12 22.3013ZM12 20.3013C14.2333 20.3013 16.125 19.5263 17.675 17.9763C19.225 16.4263 20 14.5346 20 12.3013C20 10.0679 19.225 8.17627 17.675 6.62627C16.125 5.07627 14.2333 4.30127 12 4.30127C9.76667 4.30127 7.875 5.07627 6.325 6.62627C4.775 8.17627 4 10.0679 4 12.3013C4 14.5346 4.775 16.4263 6.325 17.9763C7.875 19.5263 9.76667 20.3013 12 20.3013Z" fill="#1C7E33"/>
</svg>
