<svg width="77" height="69" viewBox="0 0 77 69" fill="none" xmlns="http://www.w3.org/2000/svg">
<path d="M72.5516 -0.000106812L43.0725 21.5627L48.5666 8.8613L72.5516 -0.000106812Z" fill="#E27726"/>
<path d="M4.61401 -0.000106812L33.7977 21.799L28.599 8.8613L4.61401 -0.000106812Z" fill="#E27726"/>
<path d="M61.9773 49.9788L54.1201 61.8531L70.8978 66.4019L75.742 50.2742L61.9773 49.9788Z" fill="#E27726"/>
<path d="M1.48291 50.2742L6.26809 66.4019L22.9867 61.8531L15.1886 49.9788L1.48291 50.2742Z" fill="#E27726"/>
<path d="M22.1009 30.01L17.4338 36.9809L34.0343 37.6899L33.5026 20.0261L22.1009 30.01Z" fill="#E27726"/>
<path d="M55.065 30.0108L43.486 19.7907L43.0725 37.6907L59.732 36.9818L55.065 30.0108Z" fill="#E27726"/>
<path d="M22.9871 61.8523L33.0891 57.0671L24.4049 50.3915L22.9871 61.8523Z" fill="#E27726"/>
<path d="M44.0769 57.0671L54.1199 61.8523L52.7611 50.3915L44.0769 57.0671Z" fill="#E27726"/>
<path d="M54.1199 61.8527L44.0769 57.0675L44.904 63.5068L44.7858 66.2243L54.1199 61.8527Z" fill="#D6C0B3"/>
<path d="M22.9871 61.8527L32.3211 66.2243L32.262 63.5068L33.0891 57.0675L22.9871 61.8527Z" fill="#D6C0B3"/>
<path d="M32.4982 46.1373L24.1685 43.7152L30.0761 41.0568L32.4982 46.1373Z" fill="#2F353C"/>
<path d="M44.6682 46.1373L47.0903 41.0568L52.998 43.7152L44.6682 46.1373Z" fill="#2F353C"/>
<path d="M22.9868 61.8531L24.4637 49.9788L15.1887 50.2742L22.9868 61.8531Z" fill="#CC6329"/>
<path d="M52.7024 49.9788L54.1202 61.8531L61.9774 50.2742L52.7024 49.9788Z" fill="#CC6329"/>
<path d="M59.732 36.9809L43.0725 37.6898L44.6676 46.1377L47.0897 41.0571L52.9973 43.7156L59.732 36.9809Z" fill="#CC6329"/>
<path d="M24.1685 43.7156L30.0762 41.0571L32.4983 46.1377L34.0343 37.6898L17.4338 36.9809L24.1685 43.7156Z" fill="#CC6329"/>
<path d="M17.4338 36.9809L24.4048 50.3912L24.1685 43.7156L17.4338 36.9809Z" fill="#E27726"/>
<path d="M52.9975 43.7156L52.7612 50.3912L59.7322 36.9809L52.9975 43.7156Z" fill="#E27726"/>
<path d="M34.0338 37.6914L32.4978 46.1392L34.4473 56.064L34.9199 42.9491L34.0338 37.6914Z" fill="#E27726"/>
<path d="M43.0727 37.6914L42.3047 42.9491L42.6591 56.064L44.6677 46.1392L43.0727 37.6914Z" fill="#E27726"/>
<path d="M44.6675 46.1376L42.6589 56.0624L44.0768 57.0667L52.761 50.3911L52.9973 43.7155L44.6675 46.1376Z" fill="#F6851F"/>
<path d="M24.1685 43.7155L24.4048 50.3911L33.089 57.0667L34.4477 56.0624L32.4982 46.1376L24.1685 43.7155Z" fill="#F6851F"/>
<path d="M44.7862 66.2234L44.9044 63.5059L44.1364 62.8561H33.03L32.262 63.5059L32.3211 66.2234L22.9871 61.8518L26.2953 64.5102L32.9119 69H44.2545L50.8711 64.5102L54.1203 61.8518L44.7862 66.2234Z" fill="#C1AE9E"/>
<path d="M44.0772 57.0674L42.6594 56.0631H34.4478L33.089 57.0674L32.262 63.5067L33.03 62.8568H44.1363L44.9043 63.5067L44.0772 57.0674Z" fill="#2F353C"/>
<path d="M73.7923 22.9805L76.2735 11.1062L72.5517 -0.000106812L44.0769 20.8537L55.0651 30.0105L70.5431 34.4412L73.9104 30.5422L72.4335 29.4789L74.7966 27.293L73.0243 25.9343L75.3873 24.162L73.7923 22.9805Z" fill="#773F1B"/>
<path d="M0.833252 11.1063L3.37353 22.9806L1.77847 24.1621L4.14152 25.9344L2.36924 27.3522L4.73229 29.479L3.1963 30.5423L6.62273 34.4414L22.1007 30.0106L33.0889 20.8539L4.61413 0L0.833252 11.1063Z" fill="#773F1B"/>
<path d="M70.5432 34.4418L55.0652 30.0111L59.7322 36.9821L52.7612 50.3924L61.9771 50.2742H75.7419L70.5432 34.4418Z" fill="#F6851F"/>
<path d="M22.1005 30.0111L6.62255 34.4418L1.48291 50.2742H15.1886L24.4045 50.3924L17.4335 36.9821L22.1005 30.0111Z" fill="#F6851F"/>
<path d="M43.0731 37.6908L44.0774 20.8541L48.5671 8.86169H28.5994L33.0892 20.8541L34.0344 37.6908L34.4479 43.0077V56.0635H42.6595L42.7186 43.0077L43.0731 37.6908Z" fill="#F6851F"/>
</svg>
