<svg width="100%" height="100%" viewBox="0 0 363 149" fill="none" xmlns="http://www.w3.org/2000/svg">
    <rect y="0.575928" width="363" height="148" rx="8" fill="black" />
    <path
        d="M170.743 48.2361L181.058 42.2793C181.352 42.1099 181.716 42.1099 182.01 42.2793L209.195 57.9749C209.489 58.1444 209.67 58.4579 209.673 58.7969L209.709 69.592C209.709 69.9338 209.529 70.2501 209.232 70.4196L198.931 76.3679C198.298 76.7351 197.505 76.2775 197.502 75.546L197.468 65.8581C197.468 65.5191 197.284 65.2056 196.991 65.0361L170.743 49.8856C170.107 49.5185 170.107 48.6033 170.743 48.2361Z"
        fill="#B4F9BA" />
    <path
        d="M164.08 97.1333L153.768 91.1793C153.471 91.0098 153.29 90.6963 153.29 90.3546V58.9633C153.29 58.6244 153.471 58.3109 153.765 58.1386L163.097 52.7071C163.394 52.5348 163.758 52.5348 164.052 52.7071L174.353 58.6554C174.985 59.0226 174.988 59.9349 174.355 60.3049L165.984 65.1772C165.69 65.3466 165.509 65.6602 165.509 66.0019V96.3114C165.509 97.0457 164.715 97.5033 164.08 97.1361V97.1333Z"
        fill="#B4F9BA" />
    <path
        d="M209.71 78.4441V90.3521C209.71 90.6938 209.529 91.0073 209.232 91.1768L182.047 106.872C181.753 107.042 181.391 107.042 181.098 106.872L171.729 101.506C171.432 101.336 171.249 101.02 171.249 100.678V88.7845C171.249 88.0529 172.039 87.5954 172.675 87.9569L181.081 92.7726C181.374 92.9421 181.736 92.9393 182.03 92.7726L208.277 77.6165C208.913 77.2493 209.707 77.7069 209.707 78.4412L209.71 78.4441Z"
        fill="#B4F9BA" />
</svg>