<svg width="25" height="25" viewBox="0 0 25 25" fill="none" xmlns="http://www.w3.org/2000/svg">
<g id="logos:google-icon" clip-path="url(#clip0_183_30309)">
<path id="Vector" d="M24.0129 12.7297C24.0129 11.7234 23.9313 10.9891 23.7546 10.2275H12.2634V14.7695H19.0085C18.8725 15.8983 18.1382 17.5982 16.5063 18.7404L16.4834 18.8925L20.1167 21.7071L20.3684 21.7323C22.6802 19.5972 24.0129 16.4558 24.0129 12.7297Z" fill="#4285F4"/>
<path id="Vector_2" d="M12.2634 24.6973C15.5679 24.6973 18.3421 23.6094 20.3684 21.7328L16.5063 18.7409C15.4728 19.4617 14.0856 19.9648 12.2634 19.9648C9.0269 19.9648 6.27993 17.8299 5.30071 14.8789L5.15718 14.8911L1.37924 17.8149L1.32983 17.9522C3.34246 21.9503 7.47655 24.6973 12.2634 24.6973Z" fill="#34A853"/>
<path id="Vector_3" d="M5.30076 14.8785C5.04238 14.117 4.89285 13.301 4.89285 12.4579C4.89285 11.6147 5.04238 10.7988 5.28716 10.0372L5.28032 9.87505L1.45504 6.9043L1.32988 6.96383C0.500383 8.62292 0.0244141 10.486 0.0244141 12.4579C0.0244141 14.4297 0.500383 16.2927 1.32988 17.9518L5.30076 14.8785Z" fill="#FBBC05"/>
<path id="Vector_4" d="M12.2634 4.95116C14.5616 4.95116 16.1119 5.94387 16.9958 6.77347L20.45 3.40091C18.3286 1.42906 15.5679 0.21875 12.2634 0.21875C7.47655 0.21875 3.34246 2.96572 1.32983 6.96378L5.28712 10.0372C6.27993 7.08622 9.0269 4.95116 12.2634 4.95116Z" fill="#EB4335"/>
</g>
<defs>
<clipPath id="clip0_183_30309">
<rect width="24" height="24.5625" fill="white" transform="translate(0.0244141 0.21875)"/>
</clipPath>
</defs>
</svg>
