<svg width="24" height="24" viewBox="0 0 24 24" fill="none" xmlns="http://www.w3.org/2000/svg">
<g clip-path="url(#clip0)">
<path d="M2.60004 18.9C2.30004 18.9 2.10004 18.8 1.90004 18.6C1.60004 18.2 1.50004 17.7 1.80004 17.3L10.2 6.50004C10.4 6.20004 10.7 6.00004 11 6.00004C11.3 6.00004 11.6 6.10004 11.8 6.40004L14.1 9.40003L20.6 4.80004C21 4.50004 21.6 4.60004 21.9 4.90004C22.2 5.30004 22.3 5.80003 22 6.20003L13.4 17.7C13.2 18 12.9 18.1 12.6 18.1C12.3 18.1 12 17.9 11.8 17.7L9.30004 14.3L3.30004 18.6C3.00004 18.8 2.80004 18.9 2.60004 18.9ZM9.50004 12C9.80004 12 10.1 12.1 10.3 12.4L12.6 15.5L16.7 10L14.5 11.5C14.1 11.8 13.5 11.7 13.1 11.3L11 8.70004L7.60004 13.1L8.90003 12.2C9.10003 12 9.30004 12 9.50004 12Z" fill="#848c96"/>
<path d="M2.00005 12C2.00005 6.49998 6.50005 1.99998 12 1.99998C14.1 1.99998 16 2.59998 17.6 3.69998C17.9 3.89998 18.4001 3.99998 18.7001 3.69998C19.3001 3.29998 19.3001 2.49998 18.7001 2.09998C16.4001 0.49998 13.6 -0.30002 10.6 0.0999805C5.00005 0.699981 0.500049 5.29998 4.88311e-05 11C-0.0999512 11.8 -0.0999512 12.7 4.88311e-05 13.5C0.100049 14.4 1.20005 14.7 1.80005 14C2.00005 13.8 2.00005 13.5 2.00005 13.2C2.00005 12.8 2.00005 12.4 2.00005 12Z" fill="#848c96"/>
<path d="M21.9001 10.2999C22.2001 11.8999 22.1001 13.5999 21.4001 15.2999C20.2001 18.5999 17.4001 21.0999 13.9001 21.6999C11.0001 22.3999 8.20012 21.5999 6.00012 19.9999C5.70012 19.6999 5.20012 19.6999 4.90012 19.8999C4.30012 20.2999 4.30012 21.0999 4.80012 21.4999C7.20012 23.2999 10.2001 24.2999 13.6001 23.8999C18.4001 23.2999 22.5001 19.6999 23.7001 14.9999C24.2001 13.2999 24.2001 11.5999 23.9001 9.99989C23.8001 9.09989 22.6001 8.89989 22.1001 9.59989C21.9001 9.79989 21.8001 10.0999 21.9001 10.2999Z" fill="#848c96"/>
</g>
<defs>
<clipPath id="clip0">
<rect width="24" height="24" fill="white"/>
</clipPath>
</defs>
</svg>
