<svg width="72" height="76" viewBox="0 0 72 76" fill="none" xmlns="http://www.w3.org/2000/svg">
<path d="M50.7441 58.7614C50.4033 58.4266 49.8805 58.4295 49.4129 58.5276C42.2367 60.0326 34.0899 61.4932 26.9226 60.4128C26.3396 60.3249 25.6716 60.3796 25.3754 60.8895C24.8219 61.8424 25.323 63.2225 26.5894 63.4174L29.6854 63.8942C35.5094 64.7909 41.462 64.3252 47.0757 62.5336L50.0598 61.5811C51.3467 61.1704 51.5885 59.5908 50.7441 58.7614Z" fill="#686E7D"/>
<path d="M50.7441 58.7614C50.4033 58.4266 49.8805 58.4295 49.4129 58.5276C42.2367 60.0326 34.0899 61.4932 26.9226 60.4128C26.3396 60.3249 25.6716 60.3796 25.3754 60.8895C24.8219 61.8424 25.323 63.2225 26.5894 63.4174L29.6854 63.8942C35.5094 64.7909 41.462 64.3252 47.0757 62.5336L50.0598 61.5811C51.3467 61.1704 51.5885 59.5908 50.7441 58.7614Z" fill="#858B9A"/>
<path d="M50.42 57.5821C52.6917 58.416 52.6225 61.6522 50.317 62.388L47.3334 63.3404C41.5951 65.1718 35.5099 65.6479 29.5566 64.7312L26.4602 64.2545C24.0687 63.8859 23.4966 60.6991 25.611 59.5222L31.7442 56.1086L34.8765 56.3043L26.4351 61.0034C25.7307 61.3958 25.9213 62.4579 26.7181 62.5809L29.8145 63.0566C35.509 63.9334 41.3295 63.479 46.8183 61.7272L49.8028 60.7738C50.5707 60.5281 50.5933 59.4494 49.8361 59.1716L40.7959 55.8539L43.8142 55.1574L50.42 57.5821Z" fill="#858B9A"/>
<path d="M49.7874 10.6834C56.102 14.8287 60.5001 21.7462 61.135 29.8594C62.2241 43.7814 51.821 55.9503 37.8991 57.0398C27.9817 57.8157 18.9553 52.759 14.1882 44.7538C18.7096 47.7219 24.2127 49.2698 30.022 48.8153C43.944 47.7258 54.347 35.5569 53.2579 21.6349C52.9445 17.6296 51.7128 13.9164 49.7874 10.6834Z" fill="#B7BBC8" fill-opacity="0.4"/>
<path opacity="0.5" d="M53.9114 14.061C57.9662 18.1609 60.649 23.661 61.134 29.8599C62.223 43.7819 51.8201 55.9509 37.8981 57.0403C28.1063 57.8064 19.1814 52.8875 14.3686 45.0579C19.4209 50.1669 26.604 53.1016 34.3282 52.4972C48.2502 51.4077 58.6532 39.2388 57.5641 25.3168C57.2409 21.1856 55.9421 17.3642 53.9114 14.061Z" fill="#858B9A"/>
<path d="M62.1226 14.1358C62.5655 13.9853 63.0469 14.2219 63.1975 14.6648C63.348 15.1077 63.1106 15.5891 62.6677 15.7396L58.7219 17.0805C58.279 17.2307 57.7983 16.9935 57.6478 16.5507C57.4973 16.1078 57.734 15.6264 58.1768 15.4758L62.1226 14.1358ZM62.2801 8.53744C62.6262 8.22286 63.162 8.24826 63.4768 8.59413C63.7914 8.94016 63.766 9.47596 63.4201 9.79073L57.6497 15.0383C57.3037 15.3527 56.7686 15.3273 56.4539 14.9815C56.1392 14.6354 56.1645 14.0997 56.5106 13.7849L62.2801 8.53744ZM64.9513 13.1745C65.3942 13.0241 65.8748 13.2614 66.0253 13.7043C66.1756 14.147 65.939 14.6277 65.4964 14.7783L64.9752 14.9553C64.5323 15.1058 64.0509 14.8692 63.9003 14.4264C63.7498 13.9834 63.9871 13.502 64.4301 13.3515L64.9513 13.1745ZM55.8074 9.56225C56.1025 9.1995 56.636 9.14458 56.9989 9.43949C57.3618 9.73475 57.4169 10.269 57.1217 10.6319L55.5573 12.5537C55.262 12.9166 54.7286 12.9717 54.3657 12.6765C54.0029 12.3813 53.948 11.8478 54.243 11.485L55.8074 9.56225ZM53.4222 4.47052C53.5664 4.02551 54.0448 3.78141 54.4898 3.92569C54.9346 4.07007 55.178 4.54769 55.0338 4.99257L53.2699 10.4345C53.1255 10.8793 52.6479 11.1226 52.203 10.9785C51.758 10.8342 51.5139 10.3566 51.6582 9.91163L53.4222 4.47052Z" fill="#858B9A"/>
<path d="M59.4459 29.9919C58.4297 17.0025 47.076 7.2959 34.0866 8.31197C21.097 9.32826 11.3904 20.6826 12.4067 33.6722C13.4232 46.6616 24.7774 56.3675 37.7669 55.3512C50.7561 54.3347 60.462 42.9812 59.4459 29.9919ZM61.1349 29.8597C62.2239 43.7818 51.821 55.9507 37.899 57.0402C23.9768 58.1294 11.8072 47.7265 10.7177 33.8043C9.62848 19.882 20.0321 7.71228 33.9544 6.62302C47.8766 5.53396 60.0456 15.9375 61.1349 29.8597Z" fill="#858B9A"/>
<path d="M2.78602 0.150301L21.4213 2.86767C22.2534 2.9892 22.8704 3.7027 22.8706 4.54359V8.06248C22.8706 8.36857 22.7048 8.64995 22.4409 8.80488C17.5923 11.6505 13.7226 15.9829 11.4578 21.1768C11.3309 21.4677 11.0569 21.6693 10.7406 21.6956L2.68179 22.3674C1.69411 22.4497 0.847046 21.6702 0.847046 20.6791V1.82622C0.847138 0.793352 1.76394 0.00124936 2.78602 0.150301Z" fill="#B7BBC8" fill-opacity="0.4"/>
<path d="M4.34742 2.64965L4.2171 4.71519L3.88849 4.69392L3.01633 3.22478L2.9994 3.22368L2.91063 4.63063L2.5412 4.60672L2.67152 2.54118L3.00212 2.56257L3.87322 4.03266L3.89115 4.03382L3.97998 2.62586L4.34742 2.64965Z" fill="#858B9A"/>
<path d="M4.60815 4.7405L4.73103 2.79299L5.98162 2.87393L5.96296 3.16967L5.06069 3.11127L5.02733 3.63999L5.86482 3.69419L5.84616 3.98993L5.00867 3.93573L4.97514 4.4673L5.88491 4.52619L5.86625 4.82193L4.60815 4.7405Z" fill="#858B9A"/>
<path d="M6.60076 4.86946L6.19368 2.94691L6.55694 2.97042L6.80533 4.37995L6.82263 4.38107L7.2689 3.0165L7.59938 3.03789L7.87139 4.44988L7.88777 4.45094L8.31134 3.08397L8.6746 3.10748L8.02922 4.96192L7.696 4.94035L7.40633 3.59111L7.39176 3.59017L6.93397 4.89103L6.60076 4.86946Z" fill="#858B9A"/>
<path d="M9.84925 3.74775C9.84594 3.6692 9.81508 3.60621 9.75667 3.55878C9.69885 3.51139 9.62144 3.48455 9.52442 3.47827C9.45621 3.47386 9.39705 3.48049 9.34693 3.49818C9.29681 3.51586 9.25769 3.54173 9.22957 3.57579C9.20144 3.60985 9.18564 3.64978 9.18216 3.6956C9.17975 3.73372 9.18619 3.76732 9.20148 3.79641C9.21735 3.82555 9.23966 3.85091 9.26841 3.8725C9.29719 3.8935 9.3294 3.91173 9.36503 3.92719C9.40066 3.94265 9.43671 3.95605 9.47319 3.96738L9.63983 4.02122C9.70702 4.04171 9.77121 4.06769 9.83239 4.09916C9.89417 4.13066 9.94873 4.16888 9.99608 4.2138C10.044 4.25876 10.0808 4.31167 10.1065 4.37253C10.1322 4.43339 10.1425 4.50342 10.1375 4.58263C10.1308 4.68983 10.0978 4.78247 10.0385 4.86055C9.97931 4.93805 9.89711 4.99641 9.7919 5.03564C9.68733 5.07432 9.56272 5.08898 9.41807 5.07962C9.27754 5.07052 9.15693 5.04059 9.05622 4.98982C8.9561 4.93909 8.87961 4.86956 8.82673 4.78123C8.77445 4.69293 8.74978 4.58789 8.75274 4.46609L9.07467 4.48693C9.07535 4.55096 9.09141 4.60522 9.12284 4.64971C9.15428 4.6942 9.19668 4.72863 9.25005 4.75301C9.304 4.77744 9.36509 4.79185 9.43329 4.79627C9.50444 4.80087 9.56744 4.79419 9.6223 4.77621C9.67779 4.75768 9.72204 4.73005 9.75505 4.69331C9.78811 4.65599 9.80658 4.61114 9.81048 4.55877C9.8129 4.51109 9.80156 4.47089 9.77647 4.43817C9.75141 4.40486 9.71514 4.3762 9.66765 4.3522C9.62079 4.32764 9.56554 4.30493 9.50192 4.28407L9.2998 4.21717C9.15348 4.16883 9.03958 4.10256 8.95811 4.01835C8.87726 3.93359 8.84097 3.8257 8.84924 3.69468C8.85604 3.58689 8.8908 3.49437 8.95354 3.4171C9.01686 3.33988 9.0999 3.28217 9.20268 3.24397C9.30549 3.20518 9.42011 3.18988 9.54653 3.19806C9.67471 3.20635 9.78558 3.23625 9.87916 3.28776C9.97336 3.3387 10.0456 3.40586 10.0958 3.48924C10.1461 3.57202 10.1689 3.66499 10.1641 3.76813L9.84925 3.74775Z" fill="#858B9A"/>
<path d="M19.2706 6.77647L19.2656 6.85836C19.2412 7.04643 19.1332 7.21536 18.9695 7.31664C18.821 7.40839 18.6435 7.43261 18.4782 7.39026L16.6558 10.3401C16.5645 10.4878 16.4163 10.5913 16.2463 10.6271C16.0763 10.663 15.8991 10.6278 15.7558 10.5295L14.1593 9.43346L11.2641 14.4025C11.1768 14.5521 11.0322 14.6598 10.8637 14.7003C10.6952 14.7408 10.5173 14.7105 10.3715 14.6167L8.02392 13.1063L4.76887 18.1332C4.57823 18.4275 4.18483 18.5122 3.89037 18.3218C3.59601 18.1312 3.5114 17.7377 3.70177 17.4433L7.30177 11.8845L7.33982 11.8315C7.54078 11.5807 7.90333 11.5174 8.17944 11.695L10.5006 13.1881L13.4066 8.2034L13.4421 8.14881C13.5324 8.0251 13.6652 7.93787 13.816 7.90395C13.9884 7.86527 14.1692 7.89997 14.3148 7.99991L15.9246 9.10423L17.3449 6.80708C17.2243 6.68938 17.153 6.52677 17.153 6.35294C17.153 6.11231 17.2893 5.89226 17.5045 5.78465L18.3516 5.36112C18.5485 5.26283 18.7823 5.27356 18.9695 5.38925C19.1567 5.50503 19.2706 5.70933 19.2706 5.92941V6.77647Z" fill="#858B9A"/>
<path d="M20.8306 23.8859C20.8955 23.5376 21.3795 23.4998 21.4978 23.8337L21.6658 24.308C22.4823 26.6134 24.244 28.4607 26.5082 29.3856C26.7413 29.4808 26.7664 29.801 26.5509 29.9314C24.4581 31.1971 23.0051 33.2959 22.5571 35.7003L22.4649 36.1949C22.4 36.5432 21.916 36.5811 21.7977 36.2471L21.6297 35.7728C20.8132 33.4674 19.0514 31.6201 16.7873 30.6953C16.5541 30.6 16.5291 30.2798 16.7446 30.1495C18.8373 28.8837 20.2903 26.7849 20.7384 24.3806L20.8306 23.8859Z" fill="#858B9A"/>
<path d="M29.0701 35.6781C29.0997 35.5236 29.3186 35.5064 29.3719 35.6545L29.4475 35.8648C29.8152 36.887 30.6107 37.7053 31.634 38.1141C31.7393 38.1562 31.7504 38.2982 31.6529 38.3562C30.7057 38.9191 30.0471 39.8512 29.8429 40.9181L29.8009 41.1376C29.7713 41.2921 29.5524 41.3093 29.4991 41.1612L29.4235 40.9509C29.0558 39.9287 28.2603 39.1104 27.237 38.7017C27.1317 38.6596 27.1206 38.5175 27.2181 38.4596C28.1654 37.8966 28.8239 36.9646 29.0281 35.8976L29.0701 35.6781Z" fill="#858B9A"/>
<g filter="url(#filter0_f_1018_1758)">
<path d="M57.1765 67.7647C57.1765 69.4021 47.8851 70.7294 36.4235 70.7294C24.962 70.7294 15.6706 69.4021 15.6706 67.7647C15.6706 66.1273 24.962 64.8 36.4235 64.8C47.8851 64.8 57.1765 66.1273 57.1765 67.7647Z" fill="#B7BBC8" fill-opacity="0.4"/>
</g>
<path d="M48.1657 34.5271C51.6456 29.024 58.292 27.7213 63.5114 29.8973C66.8246 31.2787 69.5818 34.0668 70.6101 38.0828C70.8646 39.0771 70.9997 40.1199 70.9997 41.1932C70.9996 43.1003 70.5731 44.9087 69.8093 46.5252C68.8788 48.4942 67.4489 50.1785 65.6843 51.4129C63.6813 52.8139 61.2457 53.6355 58.6208 53.6355C57.546 53.6355 56.5026 53.4972 55.5075 53.2381L55.0837 53.1199L54.5896 52.9607C52.1437 52.1144 50.0451 50.5195 48.5642 48.45C47.7659 47.3343 47.1742 46.1044 46.7907 44.8201C45.7726 41.4101 46.2184 37.607 48.1657 34.5271Z" fill="white"/>
<path d="M49.6167 35.779C52.5706 31.1074 58.2127 30.0015 62.6434 31.8487C65.4559 33.0214 67.7964 35.3882 68.6692 38.7974C68.8853 39.6415 69 40.5266 69 41.4377C68.9999 43.0567 68.6379 44.5918 67.9895 45.9641C67.1996 47.6356 65.9858 49.0654 64.4878 50.1132C62.7875 51.3025 60.72 52 58.4918 52C57.5794 52 56.6937 51.8826 55.849 51.6626L55.4892 51.5623L55.0698 51.4272C52.9935 50.7087 51.212 49.3548 49.9549 47.598C49.2773 46.6509 48.775 45.6068 48.4495 44.5166C47.5852 41.6219 47.9636 38.3935 49.6167 35.779Z" fill="#B7BBC8" fill-opacity="0.4"/>
<path d="M49.2923 35.2275C52.4039 30.3324 58.3357 29.1915 62.9697 31.1135C65.9214 32.3379 68.3859 34.8148 69.304 38.382C69.5312 39.2646 69.6519 40.1893 69.6519 41.141C69.6519 42.8325 69.2713 44.4376 68.5897 45.8724C67.7597 47.6195 66.4846 49.113 64.9115 50.2076C63.1253 51.4504 60.9532 52.1792 58.6136 52.1792C57.6559 52.1792 56.7258 52.0568 55.8383 51.8269L55.4606 51.7219L55.0204 51.5804C52.8389 50.8296 50.968 49.4158 49.6476 47.5804C48.9345 46.5891 48.4068 45.4968 48.0648 44.3573C47.1576 41.3351 47.5534 37.9631 49.2923 35.2275ZM53.4971 44.9383C53.4266 45.8772 53.7535 47.049 54.2904 48.1309C54.5946 48.7437 54.9438 49.2829 55.2692 49.6772C55.432 49.8745 55.5801 50.0247 55.7034 50.1279C55.8269 50.2311 55.8912 50.2577 55.8956 50.2597C56.7559 50.5157 57.668 50.6537 58.6136 50.6537C59.3042 50.6537 59.9771 50.578 60.6255 50.4385C58.2675 49.8507 56.1692 48.1808 54.4692 46.1756C54.1326 45.7786 53.8086 45.3644 53.4971 44.9383ZM56.5235 42.8862C55.4498 42.8839 54.7636 43.0975 54.3329 43.3793C54.317 43.3897 54.3021 43.4014 54.2867 43.4121C54.7083 44.0316 55.1578 44.6292 55.6327 45.1894C58.107 48.1079 61.0537 49.8011 64.1361 48.8854C65.2377 48.0984 66.164 47.0831 66.846 45.9082C61.8619 43.6946 58.5903 42.8907 56.5235 42.8862ZM51.7824 42.2538C50.9737 43.5259 50.6276 45.0421 50.9795 46.8132C51.5215 47.5415 52.1646 48.189 52.8886 48.7357C52.2269 47.3775 51.7169 45.6218 52.0841 44.1249C52.1547 43.8375 52.2582 43.5596 52.3977 43.2981C52.1847 42.9531 51.9785 42.605 51.7824 42.2538ZM65.2311 38.0461C63.4447 37.4639 61.0552 37.438 58.7045 37.9775C56.4342 38.4986 54.2928 39.5274 52.8238 40.9764C53.0272 41.3609 53.2423 41.7438 53.4673 42.1227C53.4774 42.116 53.4877 42.1093 53.4979 42.1026C54.2561 41.6065 55.2653 41.358 56.5265 41.3607C58.9192 41.3659 62.4382 42.2777 67.5037 44.5309C67.903 43.4844 68.1232 42.3492 68.1256 41.1611C68.0334 39.6746 66.999 38.6222 65.2311 38.0461ZM50.7009 40.1071C50.446 40.5251 50.2283 40.9335 50.0499 41.3242C49.5339 42.4541 49.4023 43.3103 49.4987 43.8069C49.7578 42.6627 50.2809 41.6343 50.9936 40.7328C50.8928 40.5238 50.7952 40.3152 50.7009 40.1071ZM49.7452 37.7079C49.5143 38.3126 49.3473 38.9382 49.2439 39.573C49.4681 39.1877 49.7195 38.7974 49.9962 38.4066C49.908 38.1709 49.8237 37.938 49.7452 37.7079ZM62.5428 32.5906C58.5 32.84 55.0432 35.0149 52.6785 37.5336C52.3362 37.8982 52.0189 38.2683 51.7273 38.6382C51.851 38.9382 51.9816 39.2417 52.1206 39.5462C53.813 38.0361 56.0725 37.0165 58.3634 36.4908C60.9092 35.9065 63.5905 35.907 65.7041 36.5958C66.2912 36.7872 66.8454 37.0371 67.3428 37.3481C66.3692 35.0989 64.6117 33.4911 62.5428 32.5906ZM58.8475 31.7586C55.7872 31.656 52.6925 32.9462 50.7582 35.7772C50.8581 36.1649 50.9768 36.5703 51.1143 36.9883C51.2605 36.8209 51.4114 36.6544 51.5664 36.4893C53.4058 34.5301 55.8973 32.7194 58.8475 31.7586Z" fill="#858B9A"/>
<defs>
<filter id="filter0_f_1018_1758" x="10.6706" y="59.8" width="51.5059" height="15.9294" filterUnits="userSpaceOnUse" color-interpolation-filters="sRGB">
<feFlood flood-opacity="0" result="BackgroundImageFix"/>
<feBlend mode="normal" in="SourceGraphic" in2="BackgroundImageFix" result="shape"/>
<feGaussianBlur stdDeviation="2.5" result="effect1_foregroundBlur_1018_1758"/>
</filter>
</defs>
</svg>
