<svg width="72" height="78" viewBox="0 0 72 78" fill="none" xmlns="http://www.w3.org/2000/svg">
<g filter="url(#filter0_f_6364_73419)">
<path d="M58.9088 69.3699C58.9088 71.1064 49.0546 72.5142 36.8987 72.5142C24.7429 72.5142 14.8887 71.1064 14.8887 69.3699C14.8887 67.6333 24.7429 66.2256 36.8987 66.2256C49.0546 66.2256 58.9088 67.6333 58.9088 69.3699Z" fill="#858B9A" fill-opacity="0.2"/>
</g>
<path d="M43.9236 51.7828L28.2788 49.5886L38.5628 19.6319C38.7925 18.9632 39.4578 18.546 40.1599 18.6301L58.3923 20.8165C58.9728 20.8861 59.5105 21.1569 59.912 21.5819L60.2358 21.9241C60.5999 22.3096 60.7338 22.8592 60.5874 23.3688L54.3736 44.9976C53.0667 49.5467 48.6107 52.4401 43.9236 51.7828Z" fill="#686E7D" stroke="#686E7D"/>
<path d="M45.0434 50.2385L27.6492 47.7988L35.9207 19.184C36.1265 18.4728 36.8207 18.0182 37.555 18.1135L58.4104 20.8207C59.3208 20.9389 59.9127 21.8402 59.6593 22.7226L53.2932 44.8822C52.2614 48.4733 48.7437 50.7573 45.0434 50.2385Z" fill="#131416" stroke="#686E7D"/>
<path d="M35.5582 34.1007C39.436 34.6446 42.3503 37.9159 42.4449 41.8304L42.5079 44.4328L42.5292 44.4357C42.7737 47.4052 44.7616 49.8529 47.4827 50.2347L42.6317 49.5543L42.652 50.4082L20.6959 47.0693L20.6989 46.4781L18.492 46.1686L19.1941 41.1629L20.724 41.3774L20.7713 32.0268L35.5582 34.1007ZM47.6916 50.264L47.4827 50.2347C47.5526 50.2445 47.6227 50.2512 47.6924 50.2582L47.6916 50.264Z" fill="#686E7D"/>
<path d="M37.867 35.4021C37.8593 35.4568 37.8166 35.5 37.7621 35.5096C36.2938 35.769 35.0127 36.6702 34.2691 37.9502C34.1093 38.2252 34.0059 38.528 33.9199 38.8342L28.5909 57.8187C28.5094 58.1092 28.2257 58.2946 27.9269 58.2527C27.6471 58.2135 26.8072 57.3831 26.7407 57.1085C26.6074 56.5583 26.9521 56.689 26.5174 56.3869C25.4817 55.6674 23.9772 56.1497 23.0315 57.4539C22.9867 57.5157 22.9119 57.5493 22.8364 57.5387C22.7433 57.5257 22.1058 56.9753 22.0937 56.8821C21.7935 55.9893 22.2648 56.0767 21.7488 55.718C20.713 54.9984 19.2076 55.4807 18.2619 56.7853C18.2172 56.8469 18.1427 56.8804 18.0673 56.8698C17.9745 56.8568 17.5172 56.3315 17.5051 56.2385C17.1465 55.7629 17.4957 55.4079 16.9794 55.0491C15.9437 54.3296 14.4392 54.8118 13.4935 56.1162C13.4487 56.1779 13.374 56.2116 13.2984 56.201C13.2053 56.1879 12.5701 55.2125 12.558 55.1193C12.4691 54.4338 12.7268 54.739 12.2108 54.3803C11.2166 53.6895 9.7896 54.1062 8.84029 55.2946C8.71933 55.4461 8.53088 55.5323 8.33895 55.5054C8.03909 55.4633 7.06102 54.6523 7.13506 54.3587L12.0491 38.4869C12.9886 34.7623 16.5629 32.3347 20.3636 32.8218L20.3645 32.8211L20.3654 32.8204L37.76 35.2601C37.8287 35.2698 37.8766 35.3333 37.867 35.4021Z" fill="#686E7D"/>
<mask id="path-6-inside-1_6364_73419" fill="white">
<path d="M35.1858 34.0484C35.9807 34.16 35.7937 35.1463 35.1625 35.6421C34.5555 36.1189 33.9862 36.7232 33.49 37.417C33.3063 37.6739 33.1789 37.9658 33.0935 38.2699L27.8745 56.8665C27.793 57.1571 27.5091 57.3427 27.2101 57.3007C26.9303 57.2615 26.7223 57.031 26.6556 56.7563C26.5221 56.2064 26.2345 55.7374 25.8 55.4354C24.7652 54.7167 23.2641 55.1992 22.3185 56.5011C22.2731 56.5636 22.1974 56.5977 22.1209 56.5869C22.0266 56.5737 21.9549 56.4966 21.9426 56.4022C21.8532 55.7178 21.5458 55.1246 21.0303 54.7664C19.9954 54.048 18.4941 54.5304 17.5485 55.8325C17.5033 55.8948 17.4278 55.9287 17.3516 55.918C17.2576 55.9048 17.1862 55.828 17.1739 55.7339C17.0846 55.0492 16.7772 54.4559 16.2616 54.0976C15.2266 53.3789 13.7254 53.8615 12.7797 55.1637C12.7345 55.226 12.659 55.2598 12.5828 55.2492C12.4889 55.236 12.4174 55.1592 12.4051 55.0651C12.3158 54.3804 12.0084 53.7871 11.4928 53.4287C10.4993 52.7388 9.0761 53.1559 8.12718 54.3424C8.00574 54.4942 7.81667 54.5807 7.62412 54.5537C7.32312 54.5115 7.1253 54.2174 7.19963 53.9227L11.0214 38.77C12.1408 34.3322 16.4104 31.4448 20.9408 32.0514C20.9411 32.0514 20.9413 32.0513 20.9414 32.051C20.9414 32.0507 20.9417 32.0505 20.9419 32.0506L35.1858 34.0484Z"/>
</mask>
<path d="M35.1858 34.0484C35.9807 34.16 35.7937 35.1463 35.1625 35.6421C34.5555 36.1189 33.9862 36.7232 33.49 37.417C33.3063 37.6739 33.1789 37.9658 33.0935 38.2699L27.8745 56.8665C27.793 57.1571 27.5091 57.3427 27.2101 57.3007C26.9303 57.2615 26.7223 57.031 26.6556 56.7563C26.5221 56.2064 26.2345 55.7374 25.8 55.4354C24.7652 54.7167 23.2641 55.1992 22.3185 56.5011C22.2731 56.5636 22.1974 56.5977 22.1209 56.5869C22.0266 56.5737 21.9549 56.4966 21.9426 56.4022C21.8532 55.7178 21.5458 55.1246 21.0303 54.7664C19.9954 54.048 18.4941 54.5304 17.5485 55.8325C17.5033 55.8948 17.4278 55.9287 17.3516 55.918C17.2576 55.9048 17.1862 55.828 17.1739 55.7339C17.0846 55.0492 16.7772 54.4559 16.2616 54.0976C15.2266 53.3789 13.7254 53.8615 12.7797 55.1637C12.7345 55.226 12.659 55.2598 12.5828 55.2492C12.4889 55.236 12.4174 55.1592 12.4051 55.0651C12.3158 54.3804 12.0084 53.7871 11.4928 53.4287C10.4993 52.7388 9.0761 53.1559 8.12718 54.3424C8.00574 54.4942 7.81667 54.5807 7.62412 54.5537C7.32312 54.5115 7.1253 54.2174 7.19963 53.9227L11.0214 38.77C12.1408 34.3322 16.4104 31.4448 20.9408 32.0514C20.9411 32.0514 20.9413 32.0513 20.9414 32.051C20.9414 32.0507 20.9417 32.0505 20.9419 32.0506L35.1858 34.0484Z" fill="#131416"/>
<path d="M35.1858 34.0484L35.3249 33.0581L35.3247 33.0581L35.1858 34.0484ZM25.8 55.4354L26.3708 54.6143L26.3705 54.6141L25.8 55.4354ZM21.0303 54.7664L21.601 53.9453L21.6006 53.945L21.0303 54.7664ZM16.2616 54.0976L16.8322 53.2764L16.8319 53.2762L16.2616 54.0976ZM11.4928 53.4287L12.0635 52.6076L12.0632 52.6074L11.4928 53.4287ZM11.0214 38.77L10.0517 38.5254L10.0517 38.5254L11.0214 38.77ZM20.9408 32.0514L21.0735 31.0603L20.9408 32.0514ZM17.1739 55.7339L16.1823 55.8632L17.1739 55.7339ZM17.5485 55.8325L16.7394 55.2449L17.5485 55.8325ZM21.9426 56.4022L20.951 56.5317L21.9426 56.4022ZM8.12718 54.3424L8.90814 54.9669L8.12718 54.3424ZM26.6556 56.7563L25.6838 56.9922L26.6556 56.7563ZM27.8745 56.8665L26.9117 56.5963L27.8745 56.8665ZM12.4051 55.0651L13.3967 54.9358L12.4051 55.0651ZM33.0935 38.2699L34.0563 38.5401L33.0935 38.2699ZM22.3185 56.5011L23.1276 57.0888L22.3185 56.5011ZM12.7797 55.1637L13.5889 55.7513L12.7797 55.1637ZM35.1625 35.6421L34.5448 34.8557C33.8557 35.397 33.2222 36.0725 32.6766 36.8353L33.49 37.417L34.3034 37.9988C34.7502 37.374 35.2553 36.8408 35.7802 36.4285L35.1625 35.6421ZM33.0935 38.2699L32.1307 37.9997L26.9117 56.5963L27.8745 56.8665L28.8373 57.1367L34.0563 38.5401L33.0935 38.2699ZM26.6556 56.7563L27.6274 56.5204C27.4476 55.7797 27.0422 55.0811 26.3708 54.6143L25.8 55.4354L25.2292 56.2565C25.4267 56.3938 25.5967 56.6331 25.6838 56.9922L26.6556 56.7563ZM25.8 55.4354L26.3705 54.6141C24.6987 53.4531 22.6189 54.3859 21.5094 55.9135L22.3185 56.5011L23.1276 57.0888C23.9094 56.0124 24.8316 55.9804 25.2296 56.2568L25.8 55.4354ZM21.9426 56.4022L22.9341 56.2728C22.8174 55.3786 22.4001 54.5006 21.601 53.9453L21.0303 54.7664L20.4596 55.5876C20.6914 55.7487 20.889 56.057 20.951 56.5317L21.9426 56.4022ZM21.0303 54.7664L21.6006 53.945C19.9289 52.7844 17.8489 53.7171 16.7394 55.2449L17.5485 55.8325L18.3576 56.4201C19.1393 55.3438 20.0619 55.3115 20.46 55.5879L21.0303 54.7664ZM17.1739 55.7339L18.1655 55.6046C18.0489 54.7102 17.6316 53.8319 16.8322 53.2764L16.2616 54.0976L15.6909 54.9188C15.9227 55.0799 16.1204 55.3883 16.1823 55.8632L17.1739 55.7339ZM16.2616 54.0976L16.8319 53.2762C15.1601 52.1153 13.0801 53.0483 11.9706 54.5761L12.7797 55.1637L13.5889 55.7513C14.3707 54.6747 15.2931 54.6426 15.6912 54.919L16.2616 54.0976ZM12.4051 55.0651L13.3967 54.9358C13.2801 54.0413 12.8628 53.1631 12.0635 52.6076L11.4928 53.4287L10.9221 54.2499C11.1539 54.411 11.3516 54.7195 11.4135 55.1944L12.4051 55.0651ZM11.4928 53.4287L12.0632 52.6074C10.4614 51.4949 8.47022 52.3124 7.34622 53.7178L8.12718 54.3424L8.90814 54.9669C9.68198 53.9994 10.5372 53.9826 10.9224 54.2501L11.4928 53.4287ZM7.19963 53.9227L8.16927 54.1672L11.991 39.0146L11.0214 38.77L10.0517 38.5254L6.23 53.6781L7.19963 53.9227ZM11.0214 38.77L11.991 39.0146C12.9861 35.0699 16.7812 32.5034 20.8081 33.0426L20.9408 32.0514L21.0735 31.0603C16.0396 30.3862 11.2956 33.5944 10.0517 38.5254L11.0214 38.77ZM20.9419 32.0506L20.803 33.0409L35.0469 35.0387L35.1858 34.0484L35.3247 33.0581L21.0808 31.0603L20.9419 32.0506ZM20.9414 32.051L21.9317 32.1899C21.855 32.7366 21.3497 33.1176 20.803 33.0409L20.9419 32.0506L21.0808 31.0603C20.5336 30.9835 20.0278 31.3649 19.9511 31.9121L20.9414 32.051ZM20.9408 32.0514L20.8081 33.0426C21.348 33.1149 21.8545 32.74 21.9317 32.1899L20.9414 32.051L19.9511 31.9121C20.0282 31.3625 20.5341 30.988 21.0735 31.0603L20.9408 32.0514ZM7.62412 54.5537L7.76302 53.5634C8.05109 53.6038 8.24041 53.8852 8.16927 54.1672L7.19963 53.9227L6.23 53.6781C6.0102 54.5496 6.59516 55.4191 7.48522 55.544L7.62412 54.5537ZM17.3516 55.918L17.4905 54.9277C17.8719 54.9812 18.1236 55.2832 18.1655 55.6046L17.1739 55.7339L16.1823 55.8632C16.2487 56.3728 16.6433 56.8285 17.2127 56.9083L17.3516 55.918ZM17.5485 55.8325L16.7394 55.2449C16.9009 55.0225 17.1831 54.8846 17.4905 54.9277L17.3516 55.918L17.2127 56.9083C17.6725 56.9728 18.1057 56.7671 18.3576 56.4201L17.5485 55.8325ZM22.1209 56.5869L22.2597 55.5966C22.641 55.6501 22.8922 55.9518 22.9341 56.2728L21.9426 56.4022L20.951 56.5317C21.0175 57.0414 21.4122 57.4973 21.982 57.5772L22.1209 56.5869ZM8.12718 54.3424L7.34622 53.7178C7.41797 53.6281 7.56458 53.5355 7.76302 53.5634L7.62412 54.5537L7.48522 55.544C8.06876 55.6258 8.59351 55.3603 8.90814 54.9669L8.12718 54.3424ZM27.2101 57.3007L27.349 56.3104C27.4497 56.3245 27.5236 56.3727 27.5657 56.4154C27.6045 56.4549 27.6206 56.4924 27.6274 56.5204L26.6556 56.7563L25.6838 56.9922C25.8245 57.5716 26.2976 58.1825 27.0712 58.291L27.2101 57.3007ZM27.8745 56.8665L26.9117 56.5963C26.9654 56.405 27.1523 56.2828 27.349 56.3104L27.2101 57.3007L27.0712 58.291C27.8659 58.4025 28.6205 57.9092 28.8373 57.1367L27.8745 56.8665ZM12.5828 55.2492L12.7217 54.2588C13.1032 54.3124 13.3548 54.6143 13.3967 54.9358L12.4051 55.0651L11.4135 55.1944C11.48 55.704 11.8746 56.1596 12.4439 56.2395L12.5828 55.2492ZM33.49 37.417L32.6766 36.8353C32.4119 37.2054 32.2405 37.6085 32.1307 37.9997L33.0935 38.2699L34.0563 38.5401C34.1173 38.323 34.2006 38.1425 34.3034 37.9988L33.49 37.417ZM22.3185 56.5011L21.5094 55.9135C21.6707 55.6914 21.9527 55.5535 22.2597 55.5966L22.1209 56.5869L21.982 57.5772C22.442 57.6418 22.8754 57.4359 23.1276 57.0888L22.3185 56.5011ZM12.7797 55.1637L11.9706 54.5761C12.1321 54.3537 12.4144 54.2157 12.7217 54.2588L12.5828 55.2492L12.4439 56.2395C12.9037 56.304 13.3369 56.0982 13.5889 55.7513L12.7797 55.1637ZM35.1858 34.0484L35.0468 35.0387C35.0289 35.0361 34.9013 35.0054 34.7978 34.8633C34.7059 34.737 34.7115 34.6295 34.7123 34.62C34.7131 34.61 34.7109 34.6426 34.6764 34.7027C34.6438 34.7596 34.5972 34.8145 34.5448 34.8557L35.1625 35.6421L35.7802 36.4285C36.2832 36.0335 36.6537 35.4203 36.7056 34.7824C36.7327 34.4504 36.6755 34.0443 36.4147 33.6862C36.1425 33.3123 35.7401 33.1164 35.3249 33.0581L35.1858 34.0484Z" fill="#686E7D" mask="url(#path-6-inside-1_6364_73419)"/>
<path d="M46.7891 16.3251C50.2668 10.6158 57.8428 8.88513 63.7107 12.4594C69.5785 16.0337 71.5161 23.5595 68.0384 29.2688C67.2469 30.5682 66.2424 31.6606 65.0947 32.5322L69.2679 40.1693C69.7552 41.0611 69.4277 42.1788 68.5359 42.6662C67.6441 43.1535 66.5258 42.8257 66.0385 41.9338L61.8566 34.2807C58.4508 35.4925 54.4999 35.1952 51.1168 33.1344C45.249 29.5601 43.3114 22.0343 46.7891 16.3251Z" fill="#686E7D"/>
<rect x="60.7104" y="32.1833" width="3.68032" height="12.9515" rx="1.84016" transform="rotate(-28.653 60.7104 32.1833)" fill="#686E7D"/>
<path d="M61.9828 33.0571C61.6803 32.5035 61.8838 31.8095 62.4374 31.507C62.991 31.2045 63.685 31.408 63.9875 31.9616L68.6415 40.4789C68.944 41.0325 68.7405 41.7265 68.1869 42.029C67.6333 42.3315 66.9393 42.1279 66.6368 41.5743L61.9828 33.0571Z" fill="#686E7D"/>
<path opacity="0.5" d="M63.6483 34.5481C63.4853 34.25 63.595 33.8762 63.8931 33.7133C64.1913 33.5504 64.565 33.66 64.7279 33.9582L67.9093 39.7804C68.0722 40.0786 67.9626 40.4523 67.6644 40.6152C67.3663 40.7781 66.9925 40.6685 66.8296 40.3704L63.6483 34.5481Z" fill="#131416"/>
<ellipse cx="57.4139" cy="22.797" rx="12.1043" ry="12.4406" transform="rotate(-1.76248 57.4139 22.797)" fill="#686E7D"/>
<circle cx="57.4036" cy="22.4609" r="11.4319" transform="rotate(-1.76248 57.4036 22.4609)" fill="#686E7D"/>
<circle cx="57.4036" cy="22.4609" r="11.4319" transform="rotate(-1.76248 57.4036 22.4609)" fill="#131416"/>
<mask id="mask0_6364_73419" style="mask-type:alpha" maskUnits="userSpaceOnUse" x="45" y="10" width="24" height="25">
<circle cx="57.4042" cy="22.4607" r="11.0626" transform="rotate(-1.76248 57.4042 22.4607)" fill="#131416" stroke="#858B9A" stroke-opacity="0.2"/>
</mask>
<g mask="url(#mask0_6364_73419)">
<g opacity="0.6" filter="url(#filter1_f_6364_73419)">
<path d="M42.6663 66.036L13.8468 61.9939L29.9666 15.0375C30.1962 14.3687 30.8616 13.9505 31.5637 14.0347L60.8868 17.5519C61.4673 17.6215 62.005 17.8922 62.4065 18.3172L63.7125 19.6995C64.0766 20.085 64.2105 20.6346 64.0641 21.1442L53.1163 59.2508C51.8095 63.7999 47.3535 66.6934 42.6663 66.036Z" fill="#686E7D" stroke="#686E7D"/>
<path d="M43.4683 63.5449L12.8994 59.2574L25.8946 14.3014C26.1002 13.59 26.7946 13.1346 27.5289 13.2299L61.5693 17.6493C62.4797 17.7675 63.0716 18.6688 62.8182 19.5512L51.719 58.1887C50.6872 61.78 47.1687 64.0639 43.4683 63.5449Z" fill="#131416" stroke="#686E7D"/>
</g>
</g>
<defs>
<filter id="filter0_f_6364_73419" x="9.88867" y="61.2256" width="54.0203" height="16.2886" filterUnits="userSpaceOnUse" color-interpolation-filters="sRGB">
<feFlood flood-opacity="0" result="BackgroundImageFix"/>
<feBlend mode="normal" in="SourceGraphic" in2="BackgroundImageFix" result="shape"/>
<feGaussianBlur stdDeviation="2.5" result="effect1_foregroundBlur_6364_73419"/>
</filter>
<filter id="filter1_f_6364_73419" x="-19.1599" y="11.7178" width="84.782" height="64.3257" filterUnits="userSpaceOnUse" color-interpolation-filters="sRGB">
<feFlood flood-opacity="0" result="BackgroundImageFix"/>
<feBlend mode="normal" in="SourceGraphic" in2="BackgroundImageFix" result="shape"/>
<feGaussianBlur stdDeviation="0.5" result="effect1_foregroundBlur_6364_73419"/>
</filter>
</defs>
</svg>
