<svg width="72" height="76" viewBox="0 0 72 76" fill="none" xmlns="http://www.w3.org/2000/svg">
<path d="M50.7442 58.7614C50.4033 58.4266 49.8805 58.4295 49.4129 58.5276C42.2367 60.0326 34.0899 61.4932 26.9226 60.4128C26.3396 60.3249 25.6716 60.3796 25.3754 60.8895C24.8219 61.8424 25.323 63.2225 26.5894 63.4174L29.6854 63.8942C35.5094 64.7909 41.462 64.3252 47.0757 62.5336L50.0599 61.5811C51.3468 61.1704 51.5885 59.5908 50.7442 58.7614Z" fill="#9B9B9B"/>
<path d="M50.7442 58.7614C50.4033 58.4266 49.8805 58.4295 49.4129 58.5276C42.2367 60.0326 34.0899 61.4932 26.9226 60.4128C26.3396 60.3249 25.6716 60.3796 25.3754 60.8895C24.8219 61.8424 25.323 63.2225 26.5894 63.4174L29.6854 63.8942C35.5094 64.7909 41.462 64.3252 47.0757 62.5336L50.0599 61.5811C51.3468 61.1704 51.5885 59.5908 50.7442 58.7614Z" fill="#686E7D"/>
<path d="M50.42 57.582C52.6917 58.4158 52.6225 61.6521 50.317 62.3879L47.3334 63.3403C41.5951 65.1717 35.51 65.6477 29.5567 64.7311L26.4603 64.2544C24.0687 63.8858 23.4966 60.6989 25.611 59.522L31.7443 56.1084L34.8765 56.3042L26.4351 61.0033C25.7307 61.3957 25.9213 62.4577 26.7182 62.5807L29.8145 63.0565C35.509 63.9332 41.3295 63.4789 46.8183 61.7271L49.8028 60.7736C50.5708 60.528 50.5933 59.4493 49.8362 59.1714L40.7959 55.8538L43.8143 55.1572L50.42 57.582Z" fill="#686E7D"/>
<path d="M49.7874 10.6833C56.102 14.8286 60.5001 21.7462 61.135 29.8593C62.2241 43.7813 51.821 55.9502 37.8991 57.0397C27.9817 57.8157 18.9553 52.7589 14.1882 44.7537C18.7096 47.7218 24.2127 49.2697 30.022 48.8152C43.944 47.7258 54.347 35.5569 53.2579 21.6348C52.9445 17.6296 51.7128 13.9163 49.7874 10.6833Z" fill="#858B9A" fill-opacity="0.2"/>
<path opacity="0.5" d="M53.9113 14.061C57.9662 18.1609 60.649 23.6611 61.134 29.86C62.2229 43.782 51.82 55.9509 37.898 57.0404C28.1062 57.8064 19.1813 52.8876 14.3686 45.0579C19.4208 50.1669 26.604 53.1016 34.3282 52.4973C48.2501 51.4077 58.6532 39.2388 57.5641 25.3168C57.2409 21.1856 55.9421 17.3643 53.9113 14.061Z" fill="#686E7D"/>
<path d="M62.1226 14.1359C62.5655 13.9854 63.0469 14.222 63.1974 14.6649C63.348 15.1078 63.1106 15.5892 62.6677 15.7398L58.7218 17.0806C58.279 17.2308 57.7983 16.9936 57.6478 16.5508C57.4973 16.1079 57.7339 15.6265 58.1767 15.4759L62.1226 14.1359ZM62.2801 8.53754C62.6262 8.22296 63.162 8.24837 63.4767 8.59423C63.7914 8.94027 63.766 9.47607 63.4201 9.79084L57.6497 15.0384C57.3037 15.3528 56.7686 15.3274 56.4539 14.9817C56.1392 14.6355 56.1645 14.0998 56.5106 13.785L62.2801 8.53754ZM64.9512 13.1746C65.3941 13.0242 65.8748 13.2615 66.0253 13.7044C66.1756 14.1471 65.939 14.6278 65.4963 14.7784L64.9752 14.9554C64.5323 15.1059 64.0509 14.8693 63.9003 14.4265C63.7498 13.9835 63.9871 13.5021 64.4301 13.3516L64.9512 13.1746ZM55.8074 9.56235C56.1025 9.19961 56.636 9.14468 56.9989 9.4396C57.3618 9.73486 57.4169 10.2691 57.1217 10.632L55.5572 12.5539C55.262 12.9167 54.7286 12.9718 54.3657 12.6766C54.0029 12.3814 53.948 11.8479 54.243 11.4851L55.8074 9.56235ZM53.4221 4.47063C53.5664 4.02561 54.0448 3.78151 54.4898 3.92579C54.9346 4.07017 55.178 4.5478 55.0338 4.99267L53.2699 10.4346C53.1255 10.8794 52.6479 11.1228 52.203 10.9786C51.758 10.8343 51.5139 10.3567 51.6582 9.91174L53.4221 4.47063Z" fill="#686E7D"/>
<path d="M59.4459 29.9918C58.4297 17.0023 47.076 7.29578 34.0866 8.31185C21.097 9.32814 11.3904 20.6825 12.4067 33.6721C13.4232 46.6614 24.7774 56.3674 37.7669 55.3511C50.7561 54.3346 60.462 42.981 59.4459 29.9918ZM61.1349 29.8596C62.2239 43.7817 51.821 55.9506 37.899 57.04C23.9768 58.1293 11.8072 47.7264 10.7177 33.8042C9.62848 19.8819 20.0321 7.71216 33.9544 6.62289C47.8766 5.53384 60.0456 15.9374 61.1349 29.8596Z" fill="#686E7D"/>
<path d="M2.78603 0.150392L21.4213 2.86776C22.2534 2.9893 22.8704 3.70279 22.8706 4.54368V8.06257C22.8706 8.36867 22.7049 8.65004 22.4409 8.80497C17.5923 11.6506 13.7226 15.983 11.4578 21.1769C11.3309 21.4678 11.0569 21.6694 10.7406 21.6957L2.6818 22.3675C1.69413 22.4498 0.847061 21.6703 0.847061 20.6792V1.82631C0.847153 0.793443 1.76395 0.00134091 2.78603 0.150392Z" fill="#858B9A" fill-opacity="0.2"/>
<path d="M4.34741 2.64973L4.21709 4.71527L3.88848 4.694L3.01632 3.22486L2.99939 3.22376L2.91062 4.63071L2.54118 4.6068L2.6715 2.54126L3.0021 2.56266L3.87321 4.03274L3.89113 4.0339L3.97996 2.62595L4.34741 2.64973Z" fill="#686E7D"/>
<path d="M4.60814 4.74058L4.73101 2.79307L5.9816 2.87401L5.96294 3.16975L5.06068 3.11136L5.02732 3.64007L5.8648 3.69428L5.84614 3.99002L5.00866 3.93581L4.97512 4.46739L5.8849 4.52627L5.86624 4.82201L4.60814 4.74058Z" fill="#686E7D"/>
<path d="M6.60074 4.86955L6.19366 2.94699L6.55693 2.97051L6.80531 4.38004L6.82261 4.38115L7.26888 3.01659L7.59937 3.03798L7.87137 4.44996L7.88776 4.45102L8.31132 3.08406L8.67459 3.10757L8.02921 4.962L7.69599 4.94044L7.40632 3.59119L7.39175 3.59025L6.93396 4.89112L6.60074 4.86955Z" fill="#686E7D"/>
<path d="M9.84924 3.74783C9.84593 3.66928 9.81507 3.6063 9.75666 3.55886C9.69884 3.51147 9.62142 3.48463 9.5244 3.47835C9.4562 3.47394 9.39703 3.48057 9.34692 3.49826C9.2968 3.51594 9.25768 3.54182 9.22955 3.57587C9.20143 3.60993 9.18562 3.64987 9.18214 3.69569C9.17974 3.7338 9.18618 3.7674 9.20146 3.7965C9.21734 3.82563 9.23965 3.85099 9.26839 3.87259C9.29718 3.89358 9.32938 3.91181 9.36501 3.92728C9.40064 3.94274 9.4367 3.95613 9.47318 3.96746L9.63981 4.0213C9.707 4.0418 9.77119 4.06778 9.83238 4.09924C9.89415 4.13075 9.94871 4.16896 9.99606 4.21388C10.044 4.25884 10.0808 4.31175 10.1065 4.37261C10.1322 4.43347 10.1425 4.50351 10.1375 4.58271C10.1307 4.68991 10.0977 4.78255 10.0385 4.86064C9.9793 4.93813 9.89709 4.99649 9.79189 5.03573C9.68731 5.0744 9.5627 5.08906 9.41806 5.0797C9.27753 5.0706 9.15691 5.04067 9.05621 4.98991C8.95609 4.93918 8.87959 4.86964 8.82672 4.78131C8.77443 4.69302 8.74977 4.58797 8.75273 4.46618L9.07465 4.48701C9.07533 4.55104 9.09139 4.6053 9.12283 4.64979C9.15426 4.69428 9.19667 4.72872 9.25003 4.7531C9.30399 4.77752 9.36507 4.79194 9.43328 4.79635C9.50442 4.80096 9.56743 4.79427 9.62229 4.77629C9.67777 4.75776 9.72202 4.73013 9.75504 4.6934C9.78809 4.65607 9.80657 4.61122 9.81046 4.55886C9.81288 4.51117 9.80154 4.47098 9.77645 4.43826C9.75139 4.40494 9.71512 4.37628 9.66763 4.35228C9.62077 4.32772 9.56553 4.30501 9.5019 4.28415L9.29978 4.21725C9.15346 4.16891 9.03957 4.10264 8.95809 4.01844C8.87724 3.93368 8.84095 3.82579 8.84922 3.69477C8.85602 3.58698 8.89079 3.49445 8.95352 3.41719C9.01684 3.33996 9.09989 3.28225 9.20266 3.24406C9.30548 3.20526 9.42009 3.18996 9.54651 3.19814C9.67469 3.20644 9.78557 3.23634 9.87914 3.28784C9.97334 3.33878 10.0456 3.40595 10.0958 3.48932C10.1461 3.57211 10.1688 3.66507 10.1641 3.76821L9.84924 3.74783Z" fill="#686E7D"/>
<path d="M19.2706 6.77638L19.2656 6.85827C19.2412 7.04633 19.1332 7.21527 18.9695 7.31655C18.821 7.4083 18.6435 7.43252 18.4781 7.39017L16.6558 10.34C16.5644 10.4877 16.4163 10.5912 16.2463 10.627C16.0763 10.6629 15.899 10.6277 15.7558 10.5294L14.1593 9.43337L11.2641 14.4024C11.1768 14.552 11.0322 14.6597 10.8637 14.7002C10.6951 14.7407 10.5173 14.7104 10.3715 14.6166L8.02389 13.1062L4.76884 18.1331C4.5782 18.4275 4.1848 18.5121 3.89034 18.3217C3.59598 18.1311 3.51137 17.7377 3.70174 17.4432L7.30174 11.8844L7.33979 11.8314C7.54075 11.5806 7.9033 11.5173 8.17941 11.6949L10.5005 13.1881L13.4065 8.20331L13.4421 8.14871C13.5324 8.02501 13.6651 7.93778 13.816 7.90386C13.9883 7.86518 14.1692 7.89988 14.3148 7.99982L15.9245 9.10414L17.3448 6.80699C17.2243 6.68929 17.1529 6.52668 17.1529 6.35285C17.1529 6.11222 17.2893 5.89217 17.5045 5.78456L18.3516 5.36103C18.5484 5.26274 18.7823 5.27347 18.9695 5.38916C19.1566 5.50494 19.2706 5.70924 19.2706 5.92932V6.77638Z" fill="#686E7D"/>
<path d="M20.8306 23.8859C20.8955 23.5376 21.3795 23.4997 21.4978 23.8337L21.6658 24.3079C22.4823 26.6134 24.244 28.4606 26.5082 29.3855C26.7413 29.4808 26.7664 29.801 26.5509 29.9313C24.4581 31.1971 23.0051 33.2959 22.5571 35.7002L22.4649 36.1949C22.4 36.5432 21.916 36.581 21.7977 36.2471L21.6297 35.7728C20.8132 33.4674 19.0514 31.6201 16.7873 30.6952C16.5541 30.6 16.5291 30.2797 16.7446 30.1494C18.8373 28.8837 20.2903 26.7849 20.7384 24.3805L20.8306 23.8859Z" fill="#686E7D"/>
<path d="M29.0701 35.6781C29.0997 35.5235 29.3186 35.5064 29.3719 35.6545L29.4475 35.8647C29.8152 36.8869 30.6107 37.7052 31.634 38.114C31.7393 38.1561 31.7504 38.2981 31.6529 38.3561C30.7057 38.919 30.0471 39.8511 29.8429 40.918L29.8009 41.1375C29.7713 41.2921 29.5524 41.3092 29.4991 41.1611L29.4235 40.9509C29.0558 39.9287 28.2603 39.1104 27.237 38.7016C27.1317 38.6595 27.1206 38.5175 27.2181 38.4595C28.1654 37.8966 28.8239 36.9645 29.0281 35.8976L29.0701 35.6781Z" fill="#686E7D"/>
<g filter="url(#filter0_f_8497_8572)">
<path d="M57.1765 67.7648C57.1765 69.4021 47.8851 70.7295 36.4235 70.7295C24.962 70.7295 15.6706 69.4021 15.6706 67.7648C15.6706 66.1274 24.962 64.8 36.4235 64.8C47.8851 64.8 57.1765 66.1274 57.1765 67.7648Z" fill="#858B9A" fill-opacity="0.2"/>
</g>
<path d="M48.1657 34.5271C51.6455 29.024 58.292 27.7212 63.5114 29.8972C66.8246 31.2787 69.5818 34.0668 70.61 38.0828C70.8646 39.0771 70.9997 40.1199 70.9997 41.1931C70.9996 43.1003 70.5731 44.9087 69.8093 46.5252C68.8787 48.4942 67.4488 50.1785 65.6843 51.4129C63.6812 52.8139 61.2456 53.6355 58.6208 53.6355C57.5459 53.6355 56.5026 53.4972 55.5075 53.238L55.0837 53.1199L54.5895 52.9607C52.1437 52.1144 50.0451 50.5195 48.5641 48.45C47.7659 47.3343 47.1742 46.1043 46.7907 44.8201C45.7726 41.4101 46.2184 37.607 48.1657 34.5271Z" fill="#131416"/>
<path d="M49.6167 35.779C52.5706 31.1074 58.2127 30.0015 62.6434 31.8487C65.4559 33.0214 67.7964 35.3882 68.6692 38.7974C68.8853 39.6415 69 40.5266 69 41.4377C68.9999 43.0567 68.6379 44.5918 67.9895 45.9641C67.1996 47.6356 65.9858 49.0654 64.4878 50.1132C62.7875 51.3025 60.72 52 58.4918 52C57.5794 52 56.6937 51.8826 55.849 51.6626L55.4892 51.5623L55.0698 51.4272C52.9935 50.7087 51.212 49.3548 49.9549 47.598C49.2773 46.6509 48.775 45.6068 48.4495 44.5166C47.5852 41.6219 47.9636 38.3935 49.6167 35.779Z" fill="#858B9A" fill-opacity="0.2"/>
<path d="M49.2923 35.2275C52.4039 30.3324 58.3357 29.1915 62.9697 31.1135C65.9214 32.3379 68.3859 34.8148 69.304 38.382C69.5312 39.2646 69.6519 40.1893 69.6519 41.141C69.6519 42.8325 69.2713 44.4376 68.5897 45.8724C67.7597 47.6195 66.4846 49.113 64.9115 50.2076C63.1253 51.4504 60.9532 52.1792 58.6137 52.1792C57.656 52.1792 56.7258 52.0568 55.8383 51.8269L55.4606 51.7219L55.0204 51.5804C52.839 50.8296 50.968 49.4158 49.6476 47.5804C48.9345 46.5891 48.4068 45.4968 48.0648 44.3573C47.1576 41.3351 47.5535 37.9631 49.2923 35.2275ZM53.4971 44.9383C53.4266 45.8772 53.7535 47.049 54.2904 48.1309C54.5946 48.7437 54.9439 49.2829 55.2692 49.6772C55.432 49.8745 55.5801 50.0247 55.7034 50.1279C55.8269 50.2311 55.8912 50.2577 55.8956 50.2597C56.7559 50.5157 57.668 50.6537 58.6137 50.6537C59.3042 50.6537 59.9771 50.578 60.6256 50.4385C58.2676 49.8507 56.1692 48.1808 54.4692 46.1756C54.1326 45.7786 53.8086 45.3644 53.4971 44.9383ZM56.5236 42.8862C55.4499 42.8839 54.7636 43.0975 54.3329 43.3793C54.317 43.3897 54.3021 43.4014 54.2867 43.4121C54.7083 44.0316 55.1578 44.6292 55.6327 45.1894C58.107 48.1079 61.0537 49.8011 64.1361 48.8854C65.2377 48.0984 66.164 47.0831 66.846 45.9082C61.8619 43.6946 58.5903 42.8907 56.5236 42.8862ZM51.7824 42.2538C50.9737 43.5259 50.6277 45.0421 50.9795 46.8132C51.5215 47.5415 52.1646 48.189 52.8886 48.7357C52.2269 47.3775 51.7169 45.6218 52.0841 44.1249C52.1547 43.8375 52.2582 43.5596 52.3977 43.2981C52.1847 42.9531 51.9785 42.605 51.7824 42.2538ZM65.2311 38.0461C63.4447 37.4639 61.0552 37.438 58.7045 37.9775C56.4342 38.4986 54.2928 39.5274 52.8238 40.9764C53.0272 41.3609 53.2423 41.7438 53.4673 42.1227C53.4774 42.116 53.4877 42.1093 53.4979 42.1026C54.2561 41.6065 55.2653 41.358 56.5265 41.3607C58.9193 41.3659 62.4383 42.2777 67.5037 44.5309C67.903 43.4844 68.1232 42.3492 68.1257 41.1611C68.0334 39.6746 66.999 38.6222 65.2311 38.0461ZM50.7009 40.1071C50.446 40.5251 50.2283 40.9335 50.0499 41.3242C49.5339 42.4541 49.4023 43.3103 49.4987 43.8069C49.7579 42.6627 50.2809 41.6343 50.9936 40.7328C50.8928 40.5238 50.7952 40.3152 50.7009 40.1071ZM49.7452 37.7079C49.5143 38.3126 49.3473 38.9382 49.2439 39.573C49.4681 39.1877 49.7195 38.7974 49.9962 38.4066C49.908 38.1709 49.8237 37.938 49.7452 37.7079ZM62.5429 32.5906C58.5001 32.84 55.0432 35.0149 52.6785 37.5336C52.3362 37.8982 52.0189 38.2683 51.7273 38.6382C51.851 38.9382 51.9816 39.2417 52.1206 39.5462C53.8131 38.0361 56.0725 37.0165 58.3634 36.4908C60.9092 35.9065 63.5905 35.907 65.7041 36.5958C66.2912 36.7872 66.8454 37.0371 67.3428 37.3481C66.3692 35.0989 64.6117 33.4911 62.5429 32.5906ZM58.8475 31.7586C55.7872 31.656 52.6925 32.9462 50.7583 35.7772C50.8581 36.1649 50.9768 36.5703 51.1143 36.9883C51.2606 36.8209 51.4114 36.6544 51.5664 36.4893C53.4059 34.5301 55.8973 32.7194 58.8475 31.7586Z" fill="#686E7D"/>
<defs>
<filter id="filter0_f_8497_8572" x="10.6706" y="59.8" width="51.5059" height="15.9294" filterUnits="userSpaceOnUse" color-interpolation-filters="sRGB">
<feFlood flood-opacity="0" result="BackgroundImageFix"/>
<feBlend mode="normal" in="SourceGraphic" in2="BackgroundImageFix" result="shape"/>
<feGaussianBlur stdDeviation="2.5" result="effect1_foregroundBlur_8497_8572"/>
</filter>
</defs>
</svg>
