<svg width="210" height="55" viewBox="0 0 192 56" fill="none" xmlns="http://www.w3.org/2000/svg">
<path d="M66.3667 36.2697C65.005 35.6918 63.872 34.6817 63.1434 33.3956L65.7699 31.141C66.1872 32.138 66.9503 32.9514 67.9193 33.4321C68.8921 33.9179 70.057 34.1608 71.414 34.1608C72.6534 34.1608 73.6125 33.9606 74.2915 33.5603C74.9705 33.16 75.311 32.6324 75.313 31.9775C75.313 31.3946 74.9973 30.9277 74.3659 30.5769C73.7346 30.2262 72.6422 29.8929 71.0886 29.5771C68.394 29.068 66.5005 28.3879 65.408 27.5367C64.3156 26.6856 63.7674 25.4861 63.7635 23.9384C63.7655 22.9382 64.0842 21.9644 64.674 21.1561C65.2811 20.2962 66.1614 19.6054 67.3152 19.0837C68.4689 18.5619 69.8342 18.301 71.4111 18.301C73.4267 18.301 75.0416 18.6343 76.2556 19.3008C77.4696 19.9673 78.4045 21.0041 79.0602 22.411L76.2877 24.4514C75.8499 23.3826 75.2371 22.6004 74.4491 22.1049C73.6612 21.6094 72.6592 21.3607 71.4432 21.3587C70.3517 21.3587 69.4475 21.5832 68.7306 22.032C68.0136 22.4809 67.6566 22.9954 67.6595 23.5755C67.6595 24.2303 67.981 24.7516 68.6241 25.1393C69.2671 25.527 70.4388 25.8787 72.1392 26.1945C74.7123 26.655 76.5328 27.3099 77.601 28.1591C78.6691 29.0083 79.2041 30.1961 79.2061 31.7225C79.2061 33.347 78.5023 34.6689 77.0946 35.6881C75.687 36.7074 73.7448 37.2165 71.2681 37.2155C69.4208 37.2155 67.787 36.9002 66.3667 36.2697Z" fill="#141A39"/>
<path d="M101.018 34.1608L100.763 36.7841C100.049 37.0871 99.2801 37.2361 98.5052 37.2214C97.4604 37.2214 96.6287 37.0154 96.01 36.6034C95.3913 36.1914 94.9847 35.5001 94.7901 34.5295C94.2308 35.3787 93.4039 36.0394 92.3095 36.5116C91.1455 36.9991 89.893 37.2408 88.6309 37.2214C86.8575 37.2214 85.4251 36.8089 84.3336 35.984C83.2421 35.1591 82.6959 33.983 82.6949 32.4556C82.6949 31.0253 83.2898 29.8191 84.4795 28.8368C85.6692 27.8545 87.4431 27.1549 89.8012 26.7381L94.4253 25.938V24.9556C94.4253 23.8412 94.098 22.9624 93.4433 22.3192C92.7886 21.6759 91.8781 21.3543 90.7117 21.3543C88.3089 21.3543 86.7427 22.446 86.0131 24.6292L82.9912 23.026C83.4279 21.5686 84.32 20.4167 85.6673 19.5705C87.0146 18.7242 88.6718 18.2996 90.6387 18.2967C92.9929 18.2967 94.8621 18.8422 96.2464 19.9334C97.6307 21.0245 98.3228 22.6247 98.3228 24.7341V32.9555C98.3228 33.416 98.425 33.7556 98.6322 33.9757C98.8394 34.1957 99.1837 34.3021 99.6696 34.3021C100.123 34.3121 100.576 34.2646 101.018 34.1608ZM92.9326 33.3242C93.9277 32.6926 94.4253 31.8556 94.4253 30.8131V28.6269L90.4563 29.427C89.1917 29.6699 88.2569 30.01 87.6518 30.4472C87.3645 30.6382 87.1303 30.8988 86.971 31.2046C86.8118 31.5104 86.7328 31.8515 86.7413 32.1961C86.7413 32.8763 86.9781 33.3917 87.4519 33.7425C87.9256 34.0932 88.5993 34.2686 89.4729 34.2686C90.6932 34.2938 91.8947 33.9658 92.9326 33.3242Z" fill="#141A39"/>
<path d="M116.094 18.6655L115.476 22.2304C114.916 21.9137 114.151 21.7558 113.18 21.7567C112.403 21.7567 111.641 21.9705 110.977 22.3747C110.249 22.8268 109.657 23.4681 109.265 24.23C108.816 25.0549 108.592 26.0493 108.593 27.2133V36.8513H104.695V18.6655H108.009L108.337 21.9389C109.357 19.5099 111.275 18.2953 114.091 18.2953C114.942 18.2992 115.61 18.4226 116.094 18.6655Z" fill="#141A39"/>
<path d="M136.161 10.4804V36.8511H132.738L132.519 33.6142C131.986 34.7065 131.144 35.6187 130.097 36.2375C128.98 36.902 127.7 37.2422 126.4 37.2198C123.899 37.2198 121.927 36.3891 120.482 34.7276C119.037 33.0662 118.315 30.7566 118.315 27.799C118.315 24.8404 119.037 22.5188 120.482 20.834C121.927 19.1492 123.899 18.3063 126.4 18.3053C127.637 18.2803 128.857 18.5878 129.933 19.1958C130.928 19.7618 131.738 20.6016 132.268 21.6151V10.4804H136.161ZM130.917 32.4497C131.814 31.3595 132.262 29.8686 132.263 27.9768V27.5396C132.263 25.6479 131.815 24.1627 130.917 23.0842C130.019 22.0057 128.803 21.466 127.269 21.465C125.69 21.465 124.458 22.0169 123.573 23.1207C122.687 24.2244 122.244 25.7703 122.243 27.7582C122.243 29.7461 122.686 31.3007 123.573 32.422C124.459 33.5432 125.691 34.1009 127.269 34.0951C128.805 34.0902 130.021 33.5418 130.917 32.4497Z" fill="#141A39"/>
<path d="M142.242 14.9724C141.78 14.5478 141.55 13.9478 141.55 13.1724C141.55 12.3971 141.78 11.8029 142.242 11.39C142.703 10.9771 143.346 10.7711 144.172 10.7721C144.998 10.773 145.635 10.979 146.084 11.39C146.533 11.802 146.758 12.3961 146.758 13.1724C146.758 13.9488 146.533 14.5487 146.084 14.9724C145.634 15.3979 144.997 15.6102 144.172 15.6093C143.347 15.6083 142.704 15.396 142.242 14.9724ZM146.103 36.8513H142.205V18.6655H146.103V36.8513Z" fill="#141A39"/>
<path d="M166.915 20.0473C168.189 21.2132 168.826 22.8863 168.826 25.0667V36.8514H164.93V26.3011C164.93 23.0948 163.631 21.494 161.033 21.4989C160.385 21.4878 159.742 21.6059 159.14 21.8465C158.539 22.087 157.992 22.445 157.531 22.8995C156.558 23.8342 156.071 25.2712 156.071 27.2105V36.8485H152.19V18.6656H155.648L155.831 21.684C156.386 20.597 157.263 19.7078 158.343 19.1378C159.473 18.5657 160.725 18.2785 161.991 18.3013C163.999 18.3013 165.64 18.8833 166.915 20.0473Z" fill="#141A39"/>
<path d="M190.859 29.2157H177.53C177.749 30.816 178.32 32.0344 179.242 32.8709C180.164 33.7075 181.354 34.1263 182.81 34.1272C184 34.1272 184.989 33.9149 185.779 33.4903C186.533 33.1049 187.112 32.448 187.399 31.6525L190.64 32.9992C189.278 35.812 186.668 37.2209 182.81 37.2257C179.946 37.2257 177.709 36.3892 176.098 34.716C174.487 33.0429 173.677 30.7237 173.669 27.7583C173.669 24.7764 174.448 22.4547 176.004 20.7932C177.561 19.1318 179.746 18.301 182.559 18.301C185.229 18.301 187.305 19.1133 188.787 20.7378C190.268 22.3624 191.008 24.5208 191.005 27.2132C191.007 27.8834 190.958 28.5529 190.859 29.2157ZM179.15 22.6325C178.287 23.4574 177.747 24.6578 177.53 26.2338H187.357C187.162 24.7064 186.647 23.5181 185.81 22.6689C184.973 21.8197 183.887 21.3952 182.55 21.3952C181.146 21.3932 180.013 21.8047 179.15 22.6296V22.6325Z" fill="#141A39"/>
<path d="M43.85 48.8094C40.9435 50.93 37.6247 52.4193 34.1071 53.1816C33.3045 53.3532 32.4922 53.4754 31.6746 53.5475H31.6016C31.5798 53.5475 29.8813 53.7267 28.2572 53.753C28.5563 53.1248 28.8409 52.4806 29.0918 51.8262C29.3209 51.236 29.5398 50.6137 29.7339 49.9957C34.8363 49.4069 39.6146 47.1975 43.3655 43.6927C47.1164 40.188 49.6416 35.5731 50.5696 30.5274C50.5904 30.4139 50.5886 30.2974 50.5643 30.1846C50.54 30.0718 50.4937 29.9649 50.4281 29.87C50.3625 29.775 50.2787 29.6939 50.1817 29.6313C50.0847 29.5687 49.9762 29.5258 49.8626 29.505C49.749 29.4842 49.6324 29.486 49.5194 29.5103C49.4065 29.5345 49.2994 29.5808 49.2044 29.6463C49.1093 29.7119 49.0281 29.7955 48.9655 29.8924C48.9028 29.9893 48.8598 30.0976 48.839 30.2111C47.9619 34.9795 45.546 39.3299 41.9604 42.5978C38.3748 45.8656 33.8167 47.8712 28.9824 48.308C28.8064 48.3234 28.6391 48.3917 28.5027 48.5038C28.3662 48.6159 28.2669 48.7666 28.2178 48.9362C27.9989 49.6853 27.7348 50.4635 27.4532 51.1879C27.0528 52.2143 26.5894 53.215 26.0655 54.1843C25.994 54.3138 25.9564 54.4592 25.9565 54.6071C25.9565 54.7549 25.994 54.9003 26.0656 55.0298C26.1371 55.1592 26.2404 55.2683 26.3657 55.3471C26.491 55.4258 26.6342 55.4716 26.782 55.48C27.1278 55.5019 27.4984 55.5106 27.8778 55.5106C29.693 55.5106 31.6834 55.3037 31.7753 55.2935H31.8366C32.7257 55.2157 33.6092 55.0833 34.4821 54.897C38.238 54.0849 41.782 52.4962 44.8861 50.2333C45.0743 50.096 45.2003 49.8898 45.2363 49.6598C45.2723 49.4298 45.2153 49.1949 45.0779 49.0069C44.9406 48.8188 44.734 48.693 44.5037 48.657C44.2735 48.6211 44.0383 48.678 43.85 48.8152V48.8094Z" fill="#141A39"/>
<path d="M52.6182 13.8299C52.5607 13.7301 52.4841 13.6425 52.3927 13.5723C52.3014 13.5021 52.1971 13.4505 52.0858 13.4205C51.9745 13.3905 51.8583 13.3827 51.744 13.3976C51.6297 13.4124 51.5194 13.4496 51.4195 13.5071C51.3196 13.5645 51.2319 13.641 51.1616 13.7322C51.0913 13.8235 51.0396 13.9277 51.0096 14.0388C50.9796 14.15 50.9718 14.266 50.9867 14.3802C51.0015 14.4944 51.0388 14.6045 51.0963 14.7043C53.9646 19.6715 55.1131 25.4447 54.3639 31.1298C53.6147 36.8148 51.0096 42.0946 46.9522 46.1512C46.7873 46.3159 46.6947 46.5392 46.6947 46.7721C46.6947 47.005 46.7873 47.2283 46.9522 47.393C47.117 47.5576 47.3406 47.6501 47.5738 47.6501C47.8069 47.6501 48.0305 47.5576 48.1954 47.393C52.5254 43.063 55.3053 37.428 56.1049 31.3605C56.9044 25.293 55.679 19.1315 52.6182 13.8299Z" fill="#141A39"/>
<path d="M48.9454 11.5283C49.0156 11.6198 49.1032 11.6966 49.2031 11.7543C49.3031 11.8119 49.4134 11.8494 49.5278 11.8645C49.6423 11.8796 49.7585 11.872 49.87 11.8422C49.9815 11.8124 50.0861 11.761 50.1777 11.6908C50.2693 11.6207 50.3461 11.5332 50.4039 11.4334C50.4616 11.3336 50.4991 11.2234 50.5142 11.1091C50.5293 10.9948 50.5218 10.8786 50.4919 10.7673C50.4621 10.6559 50.4106 10.5515 50.3404 10.46C49.6863 9.61532 48.9698 8.82074 48.1968 8.08296C48.1152 8.00142 48.0183 7.93675 47.9116 7.89262C47.805 7.8485 47.6907 7.82579 47.5752 7.82579C47.4598 7.82579 47.3455 7.8485 47.2388 7.89262C47.1321 7.93675 47.0352 8.00142 46.9536 8.08296C46.872 8.16449 46.8072 8.26129 46.763 8.36782C46.7189 8.47434 46.6961 8.58852 46.6961 8.70382C46.6961 8.81913 46.7189 8.9333 46.763 9.03983C46.8072 9.14636 46.872 9.24316 46.9536 9.32469C47.6721 10.0081 48.3379 10.7447 48.9454 11.5283Z" fill="#141A39"/>
<path d="M30.1863 1.75509C35.1171 2.06335 39.8573 3.7708 43.8501 6.67682C44.0386 6.81404 44.2739 6.87086 44.5043 6.83478C44.7348 6.7987 44.9414 6.67269 45.0788 6.48444C45.2162 6.2962 45.273 6.06116 45.2369 5.83102C45.2008 5.60088 45.0746 5.3945 44.8862 5.25728C40.6222 2.15385 35.56 0.330595 30.2943 0.00179846C30.1793 -0.00557015 30.064 0.00975155 29.955 0.0468894C29.8459 0.0840273 29.7453 0.142252 29.6588 0.218242C29.5723 0.294233 29.5016 0.386501 29.4508 0.489775C29.3999 0.593049 29.37 0.705307 29.3626 0.820143C29.3552 0.934978 29.3706 1.05015 29.4078 1.15906C29.4449 1.26797 29.5032 1.3685 29.5793 1.45491C29.6554 1.54132 29.7478 1.61192 29.8512 1.66267C29.9546 1.71343 30.067 1.74334 30.1819 1.75071L30.1863 1.75509Z" fill="#141A39"/>
<path d="M2.04 30.1924C3.0071 29.6712 4.00509 29.2093 5.02841 28.8093C5.76676 28.5178 6.52845 28.2657 7.29161 28.0441C7.46141 27.9954 7.61249 27.8966 7.72499 27.7605C7.8375 27.6245 7.90617 27.4576 7.92198 27.2819C8.30277 23.0338 9.90225 18.9855 12.5286 15.6225C12.672 15.4389 12.7365 15.2059 12.7079 14.9748C12.6793 14.7437 12.56 14.5334 12.3761 14.3902C12.1923 14.247 11.9591 14.1826 11.7277 14.2111C11.4963 14.2397 11.2858 14.3589 11.1424 14.5425C8.4342 18.0091 6.73524 22.1543 6.23224 26.5226C5.61063 26.7179 4.99339 26.9336 4.39075 27.1667C3.75016 27.4174 3.11542 27.6914 2.4938 27.9887C2.50256 27.4145 2.52445 26.7936 2.56093 26.1334C2.64283 24.5088 2.87584 22.8953 3.25696 21.3137C3.31075 21.0868 3.2721 20.8479 3.14951 20.6494C3.02691 20.451 2.83041 20.3094 2.60324 20.2556C2.37607 20.2019 2.13684 20.2405 1.93817 20.363C1.7395 20.4854 1.59767 20.6817 1.54388 20.9086C1.13706 22.5962 0.888408 24.3181 0.801152 26.0518C0.731111 27.3402 0.710681 28.4857 0.739865 29.4549C0.743551 29.605 0.785873 29.7516 0.862752 29.8807C0.93963 30.0097 1.04848 30.1168 1.17881 30.1916C1.30914 30.2664 1.45657 30.3065 1.60689 30.3079C1.75721 30.3093 1.90537 30.272 2.03708 30.1997L2.04 30.1924Z" fill="#141A39"/>
<path d="M3.10805 18.7065C3.21035 18.7465 3.3192 18.7673 3.42907 18.7677C3.60601 18.7681 3.77895 18.7151 3.92508 18.6154C4.07121 18.5158 4.18368 18.3742 4.24768 18.2095C5.9212 13.9688 8.67862 10.2404 12.2449 7.39626C15.8112 4.55208 20.0618 2.69146 24.5727 1.99997C24.8031 1.96499 25.0102 1.84 25.1484 1.6525C25.2866 1.465 25.3446 1.23035 25.3096 1.00017C25.2745 0.769992 25.1494 0.563128 24.9617 0.425101C24.7739 0.287074 24.539 0.229184 24.3086 0.264165C19.4929 1.00197 14.955 2.98808 11.1477 6.02436C7.34045 9.06063 4.39681 13.0409 2.61047 17.5682C2.5678 17.6755 2.54683 17.7902 2.54877 17.9057C2.55071 18.0211 2.57553 18.1351 2.62179 18.2409C2.66805 18.3467 2.73484 18.4423 2.8183 18.5223C2.90176 18.6022 3.00024 18.6648 3.10805 18.7065Z" fill="#141A39"/>
<path d="M20.9497 40.0093C26.5589 40.276 31.6164 38.4396 35.2789 34.7814C39.7353 30.3305 41.479 23.8114 40.0636 16.8944C40.0296 16.7255 39.9464 16.5703 39.8244 16.4484C39.7023 16.3265 39.547 16.2434 39.3778 16.2094C32.4554 14.7957 25.9285 16.5374 21.4707 20.9883C17.8067 24.648 15.9681 29.6979 16.2337 35.2988C15.0562 35.2427 13.8761 35.2836 12.7053 35.4213C11.1018 35.6056 9.52806 35.9915 8.02136 36.5697C6.51038 37.1494 5.08647 37.9341 3.78972 38.9016C3.60338 39.0413 3.48025 39.2493 3.44742 39.4797C3.41458 39.7101 3.47472 39.9441 3.61463 40.1302C3.75453 40.3163 3.96272 40.4393 4.19341 40.4721C4.42409 40.5049 4.65838 40.4448 4.84472 40.3051C6.01309 39.4335 7.2961 38.7268 8.65757 38.205C10.0271 37.6793 11.4578 37.3292 12.9155 37.1629C14.3058 36.9991 15.7097 36.9834 17.1033 37.1162C17.2321 37.1289 17.362 37.1129 17.4838 37.0695C17.6056 37.026 17.7162 36.9561 17.8077 36.8648C17.8993 36.7735 17.9694 36.6631 18.0131 36.5415C18.0568 36.42 18.073 36.2902 18.0606 36.1616C17.5528 30.6817 19.2075 25.7337 22.7168 22.2272C23.4385 21.507 24.2288 20.8588 25.0763 20.2917C25.9314 22.8222 27.361 25.1209 29.2531 27.008C31.1453 28.8952 33.4489 30.3196 35.9837 31.1699C35.4145 32.0206 34.763 32.8133 34.0386 33.5368C30.5366 37.0346 25.5754 38.6932 20.0874 38.186C19.9586 38.1734 19.8287 38.1893 19.7069 38.2328C19.5851 38.2763 19.4745 38.3462 19.383 38.4374C19.2914 38.5287 19.2213 38.6391 19.1776 38.7607C19.1339 38.8823 19.1177 39.012 19.1301 39.1406C19.2624 40.5341 19.2467 41.9376 19.0834 43.3278C18.9165 44.7824 18.567 46.2102 18.0431 47.5777C17.5209 48.938 16.8128 50.2196 15.9389 51.3859C15.8696 51.4782 15.8192 51.5832 15.7906 51.6949C15.7619 51.8066 15.7556 51.9228 15.7719 52.037C15.7882 52.1511 15.8269 52.261 15.8857 52.3602C15.9446 52.4594 16.0224 52.5461 16.1147 52.6153C16.2071 52.6845 16.3122 52.7348 16.424 52.7634C16.5359 52.792 16.6523 52.7984 16.7666 52.7821C16.8809 52.7658 16.9908 52.7271 17.0902 52.6684C17.1895 52.6096 17.2763 52.5319 17.3456 52.4396C18.3146 51.1447 19.1002 49.7224 19.6803 48.2131C20.2574 46.7083 20.6427 45.1371 20.8272 43.5362C20.9649 42.3659 21.0059 41.1863 20.9497 40.0093ZM30.4841 25.76C28.6964 23.98 27.3715 21.7905 26.6245 19.3823C30.0405 17.6188 34.1437 17.0504 38.4439 17.8214C39.2085 22.1179 38.6453 26.2132 36.8855 29.6265C34.4677 28.8788 32.2699 27.5513 30.4841 25.76Z" fill="#141A39"/>
<path d="M7.45211 33.2731L7.47984 33.2629C9.05443 32.7127 10.6834 32.3321 12.3389 32.1275C12.4539 32.1134 12.565 32.0767 12.6658 32.0197C12.7665 31.9627 12.8551 31.8864 12.9264 31.7952C12.9977 31.7039 13.0502 31.5996 13.0811 31.4881C13.112 31.3766 13.1206 31.2601 13.1065 31.1452C13.0923 31.0304 13.0556 30.9195 12.9985 30.8188C12.9414 30.7181 12.865 30.6297 12.7737 30.5585C12.6824 30.4873 12.5779 30.4348 12.4662 30.4039C12.3546 30.3731 12.2379 30.3645 12.123 30.3786C10.3293 30.6004 8.56473 31.0143 6.85969 31.6131L6.82321 31.6277C6.62038 31.7005 6.41901 31.7734 6.21618 31.8535C4.74419 32.4262 3.3346 33.1475 2.00935 34.0062C1.91258 34.069 1.82916 34.1503 1.76385 34.2454C1.69853 34.3405 1.65261 34.4475 1.62869 34.5603C1.60478 34.6731 1.60334 34.7895 1.62446 34.9028C1.64559 35.0162 1.68886 35.1243 1.75181 35.2209C1.81475 35.3176 1.89615 35.4009 1.99134 35.4661C2.08653 35.5314 2.19365 35.5773 2.30658 35.6011C2.41952 35.625 2.53606 35.6265 2.64956 35.6054C2.76305 35.5843 2.87127 35.541 2.96804 35.4782C4.19316 34.6875 5.49562 34.0234 6.85531 33.4961C7.04938 33.4203 7.24929 33.346 7.45211 33.2731Z" fill="#141A39"/>
<path d="M12.476 27.9432C12.5351 27.9548 12.5952 27.9606 12.6554 27.9607C12.8575 27.961 13.0535 27.8916 13.2102 27.7641C13.3668 27.6366 13.4745 27.4589 13.5149 27.2611C14.1313 24.2568 15.4814 21.4511 17.4451 19.0936C19.4089 16.7361 21.9254 14.8997 24.7711 13.7478C24.9872 13.6603 25.1597 13.4905 25.2505 13.276C25.3414 13.0614 25.3432 12.8196 25.2555 12.6037C25.1678 12.3879 24.9979 12.2156 24.7831 12.1249C24.5683 12.0341 24.3262 12.0323 24.11 12.1199C20.997 13.3807 18.2438 15.3899 16.0951 17.969C13.9464 20.5481 12.4686 23.6173 11.7931 26.904C11.769 27.0171 11.7676 27.1338 11.7889 27.2474C11.8103 27.361 11.854 27.4692 11.9175 27.5659C11.981 27.6625 12.063 27.7456 12.1589 27.8104C12.2548 27.8751 12.3625 27.9203 12.476 27.9432Z" fill="#141A39"/>
<path d="M39.9336 37.3685C40.0234 37.4412 40.1268 37.4953 40.2377 37.5278C40.3486 37.5603 40.4649 37.5706 40.5798 37.558C40.6947 37.5454 40.806 37.5102 40.9072 37.4544C41.0084 37.3986 41.0975 37.3234 41.1695 37.233C43.6162 34.1763 45.1375 30.485 45.5543 26.5938C45.9774 22.7247 45.3414 18.8134 43.7143 15.2769C43.1608 14.0741 42.1936 13.1096 40.9885 12.5588C36.965 10.7267 32.4768 10.1673 28.1258 10.9556C27.8965 10.9981 27.6935 11.1299 27.5615 11.3219C27.4295 11.5139 27.3792 11.7504 27.4218 11.9794C27.4643 12.2085 27.5963 12.4112 27.7885 12.5431C27.9807 12.675 28.2175 12.7252 28.4468 12.6826C32.442 11.9606 36.5627 12.4763 40.256 14.1605C41.0787 14.5356 41.739 15.1935 42.1165 16.0143C45.1808 22.6762 44.2673 30.5769 39.7979 36.1385C39.7258 36.2281 39.6722 36.331 39.64 36.4414C39.6079 36.5518 39.5978 36.6674 39.6104 36.7816C39.623 36.8959 39.658 37.0065 39.7135 37.1072C39.7689 37.2079 39.8437 37.2967 39.9336 37.3685Z" fill="#141A39"/>
<path d="M37.9972 39.2822C37.926 39.1913 37.8375 39.1153 37.7368 39.0588C37.6361 39.0022 37.5251 38.9661 37.4104 38.9525C37.2956 38.939 37.1793 38.9483 37.0681 38.9798C36.957 39.0114 36.8532 39.0646 36.7627 39.1364C33.4091 41.7361 29.2819 43.1422 25.0367 43.1313H24.9973C24.7818 43.1298 24.5733 43.2078 24.4117 43.3503C24.2502 43.4928 24.1469 43.6899 24.1218 43.9037C23.9701 45.1601 23.7138 46.4018 23.3557 47.6158C23.3227 47.7264 23.3118 47.8424 23.3239 47.9573C23.336 48.0721 23.3707 48.1834 23.426 48.2847C23.4814 48.3861 23.5563 48.4755 23.6464 48.5478C23.7365 48.62 23.8401 48.6738 23.9511 48.7059C24.0316 48.73 24.1151 48.7423 24.1991 48.7423C24.3891 48.743 24.5741 48.6819 24.7262 48.5683C24.8783 48.4548 24.9894 48.2949 25.0426 48.1127C25.3549 47.051 25.5957 45.9696 25.7634 44.8758C30.1504 44.7338 34.3798 43.2083 37.8455 40.5181C37.9373 40.4474 38.0142 40.3591 38.0717 40.2585C38.1291 40.1579 38.166 40.0468 38.1801 39.9318C38.1942 39.8168 38.1853 39.7002 38.1539 39.5887C38.1225 39.4772 38.0693 39.373 37.9972 39.2822Z" fill="#141A39"/>
<path d="M23.4009 50.1795C23.2962 50.1306 23.1828 50.1028 23.0673 50.0979C22.9517 50.093 22.8364 50.1109 22.7278 50.1508C22.6193 50.1906 22.5197 50.2515 22.4349 50.33C22.3501 50.4085 22.2816 50.503 22.2336 50.608C21.8085 51.5261 21.3179 52.4126 20.7656 53.2605C20.7021 53.3571 20.6584 53.4653 20.637 53.5788C20.6157 53.6924 20.617 53.809 20.641 53.9221C20.665 54.0351 20.7112 54.1422 20.777 54.2373C20.8427 54.3324 20.9266 54.4135 21.0239 54.476C21.1205 54.5392 21.2288 54.5827 21.3423 54.6039C21.4558 54.6252 21.5724 54.6238 21.6854 54.5998C21.7984 54.5758 21.9055 54.5297 22.0006 54.4642C22.0957 54.3987 22.1768 54.3151 22.2394 54.2181C22.838 53.2997 23.3691 52.3392 23.8285 51.344C23.8773 51.2396 23.905 51.1265 23.9099 51.0114C23.9148 50.8962 23.8969 50.7812 23.8572 50.673C23.8174 50.5647 23.7567 50.4654 23.6784 50.3808C23.6001 50.2961 23.5058 50.2277 23.4009 50.1795Z" fill="#141A39"/>
<path d="M30.6883 5.3258C26.2837 5.21781 21.9337 6.31661 18.1101 8.50299C18.01 8.56041 17.9222 8.63696 17.8517 8.72828C17.7812 8.81959 17.7294 8.92388 17.6992 9.03519C17.6691 9.14651 17.6612 9.26267 17.676 9.37703C17.6907 9.49139 17.7279 9.60172 17.7854 9.70172C17.8429 9.80172 17.9196 9.88944 18.011 9.95986C18.1024 10.0303 18.2068 10.082 18.3183 10.1121C18.4297 10.1422 18.546 10.1501 18.6605 10.1354C18.775 10.1206 18.8855 10.0834 18.9856 10.026C26.1269 5.92918 35.2409 6.14924 42.2056 10.5871C43.627 11.4924 44.8299 12.7009 45.7281 14.1257C47.7877 17.3839 48.9736 21.1165 49.1718 24.9646C49.1827 25.1891 49.2797 25.4009 49.4427 25.5558C49.6057 25.7108 49.8222 25.7971 50.0473 25.7968H50.094C50.2094 25.7912 50.3226 25.7629 50.4269 25.7134C50.5313 25.6639 50.6249 25.5943 50.7022 25.5085C50.7795 25.4228 50.8391 25.3226 50.8774 25.2137C50.9158 25.1049 50.9322 24.9895 50.9257 24.8743C50.7121 20.7242 49.4338 16.6987 47.2136 13.1842C46.1776 11.5412 44.7902 10.1476 43.1512 9.10345C39.4196 6.7325 35.1098 5.42615 30.6883 5.3258Z" fill="#141A39"/>
<path d="M14.7568 13.1752C15.3199 12.6414 15.9102 12.1369 16.5253 11.6638C16.6168 11.5936 16.6936 11.506 16.7512 11.4062C16.8088 11.3063 16.8462 11.1961 16.8612 11.0818C16.8761 10.9675 16.8684 10.8514 16.8385 10.7401C16.8085 10.6288 16.7569 10.5244 16.6866 10.433C16.6163 10.3417 16.5286 10.265 16.4286 10.2074C16.3286 10.1499 16.2183 10.1126 16.1038 10.0976C15.9894 10.0827 15.8731 10.0904 15.7617 10.1203C15.6503 10.1502 15.5458 10.2018 15.4543 10.272C14.7903 10.7812 14.1537 11.3251 13.5471 11.9014C13.4634 11.9807 13.3961 12.0758 13.3492 12.1811C13.3022 12.2864 13.2764 12.3999 13.2734 12.5151C13.2672 12.7478 13.3539 12.9735 13.5143 13.1424C13.6747 13.3113 13.8957 13.4097 14.1288 13.4158C14.3618 13.422 14.5877 13.3354 14.7568 13.1752Z" fill="#141A39"/>
<path d="M32.8083 20.9755C32.562 21.2195 32.3938 21.5311 32.325 21.8708C32.2563 22.2104 32.2901 22.5628 32.4222 22.8832C32.5543 23.2036 32.7787 23.4776 33.067 23.6705C33.3553 23.8633 33.6944 23.9662 34.0413 23.9662C34.3883 23.9662 34.7274 23.8633 35.0156 23.6705C35.3039 23.4776 35.5283 23.2036 35.6604 22.8832C35.7925 22.5628 35.8264 22.2104 35.7576 21.8708C35.6889 21.5311 35.5207 21.2195 35.2743 20.9755C35.1125 20.8136 34.9203 20.6852 34.7087 20.5975C34.4972 20.5099 34.2704 20.4648 34.0413 20.4648C33.8123 20.4648 33.5855 20.5099 33.3739 20.5975C33.1623 20.6852 32.9701 20.8136 32.8083 20.9755Z" fill="#141A39"/>
</svg>
