<?xml version="1.0" encoding="UTF-8"?>
<svg width="100%" height="100%" id="_图层_1" data-name="图层 1" xmlns="http://www.w3.org/2000/svg" viewBox="0 0 300 300">
  <defs>
    <style>
      .cls-1 {
        fill: #ffeeda;
      }

      .cls-2 {
        fill: #ebc28e;
      }

      .cls-3 {
        fill: #190602;
      }
    </style>
  </defs>
  <path class="cls-1"
    d="M252.91,194.23l.03-139.16c-.22-11.65-9.44-21.02-21.12-21.02H86.57c-31.33,.52-56.57,26.11-56.57,57.6,0,10.63,2.84,19.7,7.22,27.64,3.65,6.62,9.43,12.86,15.19,17.56,1.57,1.28,.83,.8,5.75,3.83,6.8,4.17,14.6,6.25,14.6,6.25l-.06,83.22c.16,3.94,.6,7.72,1.58,11.24,3.25,11.71,11.35,20.74,22.43,25.1,4.62,1.82,9.87,3.06,15.41,3.09l116,.42c23.14,0,41.89-18.78,41.89-41.95,0-13.87-6.73-26.17-17.09-33.81Z" />
  <path class="cls-2"
    d="M255.72,228.94c-.48,14.86-12.66,26.76-27.61,26.76l-79.86-.31c6.38-7.36,10.22-16.94,10.22-27.35,0-16.4-9.77-27.66-9.77-27.66h79.41c15.26,0,27.62,12.39,27.62,27.66v.91Z" />
  <path class="cls-3"
    d="M59.92,125c-9.17-8.68-15.65-19.94-15.65-33.35l.02-1.42c.73-22.8,19.51-41.15,42.28-41.87l145.24-.02c3.81,.14,6.86,2.88,6.86,6.73v122.87c3.36,.61,4.96,1.02,8.18,2.19,2.51,.91,6.09,2.94,6.09,2.94V55.06c-.22-11.65-9.44-21.02-21.13-21.02H86.57c-31.33,.52-56.57,26.11-56.57,57.6,0,18.29,8.32,33.87,21.98,44.85,.91,.73,1.82,1.69,4.26,1.68,4.28-.02,7.28-3.37,7.1-7.1-.15-3.07-1.44-4.2-3.43-6.08Z" />
  <path class="cls-3"
    d="M228.11,186.08H114.18c-7.65,.06-13.83,6.28-13.83,13.95v16.33c.22,7.57,6.67,14.06,14.29,14.06h8.47v-14.06h-8.47v-15.99h4.62c14.37,0,24.95,13.39,24.95,27.66,0,12.65-11.51,28.87-30.86,27.57-17.18-1.15-26.39-16.41-26.39-27.57V89.19c0-6.27-5.09-11.36-11.36-11.36h-11.35v14.16h8.45s0,136.04,0,136.04c-.43,27.66,19.71,41.61,40.67,41.61l114.75,.34c23.14,0,41.89-18.78,41.89-41.95s-18.76-41.95-41.89-41.95Zm27.61,42.86c-.48,14.86-12.66,26.76-27.61,26.76l-79.86-.31c6.38-7.36,10.22-16.94,10.22-27.35,0-16.4-9.77-27.66-9.77-27.66h79.41c15.26,0,27.62,12.39,27.62,27.66v.91Z" />
  <path class="cls-3" d="M197.45,80.38H111.57v14.16h85.88c3.91,0,7.08-3.17,7.08-7.08s-3.17-7.08-7.08-7.08Z" />
  <path class="cls-3" d="M197.45,147.25H111.57v14.16h85.88c3.91,0,7.08-3.17,7.08-7.08s-3.17-7.08-7.08-7.08Z" />
  <path class="cls-3" d="M212.56,113.82H111.57v14.16h100.99c3.91,0,7.08-3.17,7.08-7.08s-3.17-7.08-7.08-7.08Z" />
</svg>