<svg fill="none" height="88" viewBox="0 0 101 88" width="101" xmlns="http://www.w3.org/2000/svg" xmlns:xlink="http://www.w3.org/1999/xlink"><linearGradient id="a" gradientUnits="userSpaceOnUse" x1="8.52558" x2="88.9933" y1="90.0973" y2="-3.01622"><stop offset=".08" stop-color="#9945ff"/><stop offset=".3" stop-color="#8752f3"/><stop offset=".5" stop-color="#5497d5"/><stop offset=".6" stop-color="#43b4ca"/><stop offset=".72" stop-color="#28e0b9"/><stop offset=".97" stop-color="#19fb9b"/></linearGradient><path d="m100.48 69.3817-16.6732 17.4198c-.3624.3784-.801.6801-1.2883.8863s-1.013.3125-1.5442.3122h-79.03867c-.37714 0-.74606-.1074-1.061428-.3088-.315373-.2015-.563462-.4883-.713786-.8253-.1503237-.3369-.1963341-.7093-.1323778-1.0714.0639562-.3621.2350928-.6981.4923838-.9667l16.685678-17.4198c.3615-.3774.7986-.6785 1.2843-.8846.4858-.2062 1.0098-.313 1.5397-.3139h79.0343c.3771 0 .746.1074 1.0616.3088.315.2015.563.4884.714.8253.15.337.196.7093.132 1.0714s-.235.6981-.492.9667zm-16.6732-35.0785c-.3624-.3784-.801-.6801-1.2883-.8863-.4873-.2061-1.013-.3124-1.5442-.3121h-79.03867c-.37714 0-.74606.1073-1.061428.3088-.315373.2015-.563462.4883-.713786.8252-.1503237.337-.1963341.7094-.1323778 1.0715.0639562.362.2350928.698.4923838.9667l16.685678 17.4198c.3615.3774.7986.6784 1.2843.8846.4858.2061 1.0098.313 1.5397.3138h79.0343c.3771 0 .746-.1073 1.0616-.3088.315-.2015.563-.4883.714-.8252.15-.337.196-.7094.132-1.0715-.064-.362-.235-.698-.492-.9667zm-81.87117-12.5127h79.03867c.5312.0002 1.0569-.106 1.5442-.3122s.9259-.5079 1.2883-.8863l16.6732-17.41981c.257-.26862.428-.60461.492-.96669s.018-.73447-.132-1.07142c-.151-.33695-.399-.623784-.714-.825257-.3156-.201474-.6845-.30881059-1.0616-.308823h-79.0343c-.5299.0008784-1.0539.107699-1.5397.313848-.4857.20615-.9228.507239-1.2843.884632l-16.681377 17.41982c-.257042.2683-.4281032.604-.4922045.9656-.0641014.3617-.0184561.7338.1313375 1.0706.149794.3368.397225.6236.711948.8254.314726.2018.683056.3097 1.059826.3106z" fill="url(#a)"/></svg>