<svg fill="none" height="54" viewBox="0 0 817 54" width="817" xmlns="http://www.w3.org/2000/svg" xmlns:xlink="http://www.w3.org/1999/xlink"><linearGradient id="a"><stop offset="0" stop-color="#75c3fc"/><stop offset="1" stop-color="#75c3fc"/></linearGradient><linearGradient id="b" gradientUnits="userSpaceOnUse" x1="308.177" x2="304.124" xlink:href="#a" y1="30.0684" y2="30.0684"/><linearGradient id="c" gradientUnits="userSpaceOnUse" x1="90.1014" x2="86.0481" xlink:href="#a" y1="2.27182" y2="2.27182"/><linearGradient id="d" gradientUnits="userSpaceOnUse" x1="125.31" x2="121.257" xlink:href="#a" y1="45.8958" y2="45.8958"/><linearGradient id="e" gradientUnits="userSpaceOnUse" x1="24.3728" x2="17.7968" xlink:href="#a" y1="26.8017" y2="26.5677"/><g opacity=".75"><path d="m720.209 36.4667c.053-.7327-.489-1.3783-1.222-1.448-2.952-.2268-4.629 1.0817-5.956 2.1285-1.223.9595-2.201 1.7097-4.105 1.5702-1.904-.1571-2.742-1.0468-3.808-2.1809-1.17-1.2387-2.602-2.7914-5.554-3.0357-2.952-.2268-4.628 1.0817-5.956 2.1285-1.222.9596-2.2 1.7098-4.104 1.5702-1.904-.157-2.742-1.0468-3.808-2.1808-1.17-1.2388-2.602-2.7915-5.554-3.0358-2.952-.2268-4.611 1.0817-5.956 2.1285-1.223.9596-2.201 1.7098-4.105 1.5702-.733-.0523-1.38.4885-1.449 1.2213-.07.7328.489 1.3783 1.222 1.4481 2.952.2268 4.611-1.0817 5.956-2.1285 1.223-.9596 2.201-1.7098 4.105-1.5702 1.904.157 2.742 1.0468 3.807 2.1808 1.171 1.2387 2.603 2.7915 5.555 3.0357 2.951.2269 4.611-1.0816 5.956-2.1285 1.222-.9595 2.2-1.7097 4.104-1.5702 1.904.1571 2.742 1.0468 3.808 2.1809 1.17 1.2387 2.602 2.7915 5.554 3.0357 2.952.2268 4.629-1.0817 5.956-2.1285 1.223-.9596 2.201-1.7098 4.105-1.5702.733.0698 1.379-.4711 1.449-1.2213z" fill="#fbc49d" opacity=".6"/><path d="m488.556 23.1411c.186 0 .372-.0496.534-.1488l14.302-8.4701c.348-.2108.546-.6076.509-1.0045-.05-.4092-.323-.7441-.708-.8681l-20.621-6.70908c-.385-.12401-.807-.0124-1.08.28523-.273.29764-.348.73168-.199 1.10372l6.319 15.17923c.112.2728.348.496.634.5828.099.0248.198.0496.31.0496zm11.807-9.2389-11.298 6.6967-4.991-11.9921z" fill="#75c4fd" opacity=".6"/><g fill="#86e29b"><path d="m599.843 19.6242c.227 0 .472-.0174.699-.0523 2.934-.3839 4.995-3.0706 4.628-6.0017-.192-1.4132-.908-2.6868-2.043-3.5591-1.135-.87236-2.55-1.25619-3.965-1.06427-1.415.19191-2.69.90723-3.563 2.04127-.873 1.134-1.258 2.5472-1.065 3.9604.366 2.7217 2.672 4.6757 5.309 4.6757zm.018-9.0548c.821 0 1.607.2617 2.253.7676.786.6107 1.292 1.483 1.415 2.46.262 2.0238-1.171 3.8906-3.197 4.1698-2.026.2617-3.895-1.169-4.174-3.1928-.122-.977.14-1.954.733-2.7391.612-.7851 1.485-1.2911 2.463-1.4132.175-.0523.35-.0523.507-.0523z" opacity=".6"/><path d="m789.426 33.0604h.14c5.467-.0698 9.869-4.5885 9.799-10.0493s-4.576-9.8574-10.061-9.7876c-5.467.0698-9.868 4.5885-9.798 10.0493.07 5.4259 4.506 9.7876 9.92 9.7876zm0-17.2548c4 0 7.301 3.2276 7.354 7.2404.052 4.0476-3.197 7.3799-7.249 7.4323-4.052.0698-7.388-3.1928-7.44-7.2404-.053-4.0477 3.196-7.38 7.248-7.4323z" opacity=".6"/></g></g><g opacity=".75"><path d="m169.843 29.6242c.228 0 .472-.0174.699-.0523 2.934-.3839 4.995-3.0706 4.629-6.0017-.192-1.4132-.909-2.6868-2.044-3.5591-1.135-.8724-2.55-1.2562-3.965-1.0643-1.414.1919-2.689.9073-3.563 2.0413-.873 1.134-1.257 2.5472-1.065 3.9604.367 2.7217 2.672 4.6757 5.309 4.6757zm.018-9.0548c.821 0 1.607.2617 2.253.7676.786.6107 1.293 1.483 1.415 2.46.262 2.0238-1.17 3.8906-3.196 4.1698-2.027.2617-3.895-1.169-4.175-3.1928-.122-.977.14-1.954.734-2.7391.611-.7851 1.484-1.2911 2.462-1.4132.175-.0523.35-.0523.507-.0523z" fill="#86e29b" opacity=".6"/><path d="m306.157 32.0974c-1.119 0-2.026-.9061-2.026-2.0238s.907-2.0238 2.026-2.0238 2.026.9061 2.026 2.0238-.907 2.0238-2.026 2.0238z" fill="url(#b)" opacity=".6"/><path d="m88.0759 4.28984c-1.119 0-2.0261-.9061-2.0261-2.02383 0-1.11772.9071-2.023822 2.0261-2.023822 1.1189 0 2.0261.906102 2.0261 2.023822 0 1.11773-.9072 2.02383-2.0261 2.02383z" fill="url(#c)" opacity=".6"/><path d="m123.285 47.9139c-1.119 0-2.026-.9061-2.026-2.0239 0-1.1177.907-2.0238 2.026-2.0238s2.026.9061 2.026 2.0238c0 1.1178-.907 2.0239-2.026 2.0239z" fill="url(#d)" opacity=".6"/><path d="m21.0915 29.9623c-1.8135 0-3.2836-1.4685-3.2836-3.28s1.4701-3.28 3.2836-3.28 3.2837 1.4685 3.2837 3.28-1.4702 3.28-3.2837 3.28z" fill="url(#e)" opacity=".75"/><path d="m379.426 53.0594h.14c5.467-.0698 9.869-4.5885 9.799-10.0493s-4.576-9.8574-10.061-9.7876c-5.467.0698-9.868 4.5885-9.798 10.0493.069 5.4259 4.506 9.7876 9.92 9.7876zm0-17.2548c4 0 7.301 3.2277 7.354 7.2404.052 4.0476-3.197 7.3799-7.249 7.4323-4.052.0698-7.388-3.1928-7.44-7.2404-.053-4.0476 3.196-7.3799 7.248-7.4323z" fill="#86e29b" opacity=".6"/></g></svg>