<svg fill="none" height="62" viewBox="0 0 800 62" width="800" xmlns="http://www.w3.org/2000/svg" xmlns:xlink="http://www.w3.org/1999/xlink"><linearGradient id="a"><stop offset="0" stop-color="#75c3fc"/><stop offset="1" stop-color="#75c3fc"/></linearGradient><linearGradient id="b" gradientUnits="userSpaceOnUse" x1="542.049" x2="537.996" xlink:href="#a" y1="27.9529" y2="27.9529"/><linearGradient id="c" gradientUnits="userSpaceOnUse" x1="724.971" x2="720.918" xlink:href="#a" y1="16.7328" y2="16.7328"/><linearGradient id="d"><stop offset="0" stop-color="#ffe466"/><stop offset="1" stop-color="#ffafea"/></linearGradient><linearGradient id="e" gradientUnits="userSpaceOnUse" x1="645.028" x2="623.903" xlink:href="#d" y1="29.4641" y2="29.4641"/><linearGradient id="f" gradientUnits="userSpaceOnUse" x1="132.05" x2="127.996" xlink:href="#a" y1="27.9529" y2="27.9529"/><linearGradient id="g" gradientUnits="userSpaceOnUse" x1="324.971" x2="320.918" xlink:href="#a" y1="2.73276" y2="2.73276"/><linearGradient id="h" gradientUnits="userSpaceOnUse" x1="195.028" x2="173.904" xlink:href="#d" y1="52.4641" y2="52.4641"/><path d="m771.428 58.4105h.262c1.589-.0698 3.056-.7502 4.139-1.9191 2.218-2.4077 2.061-6.1936-.349-8.4093-2.411-2.2158-6.201-2.0587-8.419.3489-1.083 1.1689-1.642 2.6868-1.572 4.2744.07 1.5877.751 3.0532 1.921 4.1349 1.101 1.0294 2.515 1.5702 4.018 1.5702zm.017-10.2412c1.048 0 2.078.3664 2.917 1.134 1.746 1.6051 1.851 4.3268.244 6.0715-.786.8374-1.834 1.3434-2.986 1.3783-1.153.0523-2.236-.3489-3.092-1.134-.838-.7851-1.345-1.832-1.38-2.9834-.052-1.1515.35-2.2332 1.136-3.0881.838-.9072 1.991-1.3783 3.161-1.3783z" fill="#ffb0eb" opacity=".6"/><path d="m540.023 29.9695c-1.119 0-2.026-.9061-2.026-2.0238s.907-2.0238 2.026-2.0238 2.027.9061 2.027 2.0238-.908 2.0238-2.027 2.0238z" fill="url(#b)" opacity=".6"/><path d="m722.945 18.7508c-1.119 0-2.026-.9061-2.026-2.0238 0-1.1178.907-2.0239 2.026-2.0239s2.026.9061 2.026 2.0239c0 1.1177-.907 2.0238-2.026 2.0238z" fill="url(#c)" opacity=".6"/><path d="m629.995 38.9795c.315 0 .629-.1047.891-.2966l13.554-10.2936c.437-.3315.664-.8898.559-1.4306-.105-.5409-.489-.9945-1.013-1.1515l-18.165-5.7923c-.524-.157-1.083-.0349-1.485.3489-.384.3838-.541.9421-.384 1.4655l4.611 16.0859c.14.4711.489.8375.961.9945.157.0523.314.0698.471.0698zm10.393-11.2183-9.572 7.2753-3.248-11.3578z" fill="url(#e)" opacity=".6"/><path d="m474.407 30.6766h.14c5.467-.0698 9.868-4.5885 9.799-10.0493-.07-5.4608-4.577-9.8574-10.061-9.7876-5.467.0698-9.868 4.5885-9.798 10.0493.069 5.4259 4.506 9.7876 9.92 9.7876zm0-17.2548c4 0 7.301 3.2276 7.354 7.2404.052 4.0476-3.197 7.3799-7.249 7.4323-4.052.0698-7.388-3.1928-7.44-7.2404-.053-4.0476 3.196-7.38 7.248-7.4323z" fill="#86e29b" opacity=".6"/><path d="m295.91 44.6648c.039-.7328-.531-1.3749-1.265-1.4131-2.955-.1654-4.602 1.179-5.923 2.2554-1.2.9897-2.148 1.7677-4.061 1.6481-1.908-.1029-2.762-.994-3.852-2.0927-1.193-1.2155-2.667-2.7351-5.623-2.9004-2.955-.1654-4.602 1.179-5.923 2.2554-1.2.9897-2.149 1.7677-4.061 1.6481-1.908-.1029-2.762-.994-3.852-2.0927-1.194-1.2155-2.668-2.7351-5.623-2.9004-2.956-.1654-4.603 1.179-5.923 2.2554-1.2.9897-2.149 1.7677-4.061 1.6481-.734-.0383-1.377.5314-1.416 1.2642-.038.7329.532 1.3749 1.265 1.4132 2.956.1653 4.603-1.1791 5.923-2.2555 1.2-.9897 2.149-1.7677 4.061-1.648 1.908.1028 2.762.994 3.852 2.0927 1.194 1.2154 2.668 2.735 5.623 2.9004 2.956.1653 4.603-1.1791 5.924-2.2555 1.199-.9897 2.148-1.7677 4.061-1.648 1.908.1028 2.761.9939 3.851 2.0926 1.194 1.2155 2.668 2.7351 5.623 2.9005 2.956.1653 4.603-1.1791 5.924-2.2555 1.199-.9897 2.148-1.7677 4.061-1.648.733.0382 1.376-.5314 1.415-1.2643z" fill="#ffb0eb" opacity=".6"/><path d="m361.428 58.4105h.262c1.589-.0698 3.057-.7502 4.14-1.9191 2.218-2.4077 2.061-6.1936-.35-8.4093-2.41-2.2158-6.2-2.0587-8.419.3489-1.082 1.1689-1.641 2.6868-1.571 4.2744.069 1.5877.751 3.0532 1.921 4.1349 1.1 1.0294 2.515 1.5702 4.017 1.5702zm.017-10.2412c1.048 0 2.079.3664 2.917 1.134 1.747 1.6051 1.852 4.3268.245 6.0715-.786.8374-1.834 1.3434-2.987 1.3783-1.153.0523-2.235-.3489-3.091-1.134-.839-.7851-1.345-1.832-1.38-2.9834-.053-1.1515.349-2.2332 1.135-3.0881.839-.9072 1.991-1.3783 3.161-1.3783z" fill="#ffb0eb" opacity=".6"/><path d="m130.024 29.9695c-1.119 0-2.026-.9061-2.026-2.0238s.907-2.0238 2.026-2.0238 2.026.9061 2.026 2.0238-.907 2.0238-2.026 2.0238z" fill="url(#f)" opacity=".6"/><path d="m322.946 4.75077c-1.119 0-2.026-.90609-2.026-2.02382s.907-2.023825 2.026-2.023825 2.026.906095 2.026 2.023825-.907 2.02382-2.026 2.02382z" fill="url(#g)" opacity=".6"/><path d="m179.996 61.9795c.314 0 .629-.1047.891-.2966l13.553-10.2936c.437-.3315.664-.8898.559-1.4306-.104-.5409-.489-.9945-1.013-1.1515l-18.165-5.7923c-.524-.157-1.082-.0349-1.484.3489-.384.3838-.542.9421-.384 1.4655l4.611 16.0859c.139.4711.489.8375.96.9945.157.0523.315.0698.472.0698zm10.392-11.2183-9.571 7.2753-3.249-11.3578z" fill="url(#h)" opacity=".6"/><path d="m34.4077 30.6766h.1397c5.467-.0698 9.8685-4.5885 9.7986-10.0493s-4.5762-9.8574-10.0606-9.7876c-5.4669.0698-9.8684 4.5885-9.7985 10.0493.0699 5.4259 4.5063 9.7876 9.9208 9.7876zm0-17.2548c3.9998 0 7.3009 3.2276 7.3533 7.2404.0524 4.0476-3.1963 7.3799-7.2485 7.4323-4.0521.0698-7.3882-3.1928-7.4406-7.2404s3.1963-7.38 7.2485-7.4323z" fill="#86e29b" opacity=".6"/></svg>