<svg xmlns="http://www.w3.org/2000/svg" width="72" height="78" viewBox="0 0 72 78" fill="none">
  <g filter="url(#filter0_f_4940_4734)">
    <path d="M58.9087 69.3698C58.9087 71.1064 49.0545 72.5141 36.8986 72.5141C24.7428 72.5141 14.8885 71.1064 14.8885 69.3698C14.8885 67.6333 24.7428 66.2255 36.8986 66.2255C49.0545 66.2255 58.9087 67.6333 58.9087 69.3698Z" fill="#858B9A" fill-opacity="0.2"/>
  </g>
  <path d="M59.5693 12.5C60.0666 12.5037 60.559 12.8863 60.9727 13.4463C61.1694 13.7127 61.3246 13.989 61.4297 14.2119C61.4822 14.3234 61.5198 14.4171 61.543 14.4844C61.5481 14.4993 61.5517 14.5116 61.5547 14.5215C61.5473 14.5291 61.5364 14.5358 61.5225 14.5371C57.8571 14.8722 54.7836 17.5484 53.9932 21.2041L48.9375 44.585C48.1911 48.0364 45.1377 50.5 41.6064 50.5H12.5615C12.3341 50.4998 11.9981 50.3764 11.6279 50.1201C11.2686 49.8713 10.9403 49.5403 10.7285 49.2227C10.6229 49.0642 10.5561 48.9235 10.5234 48.8105C10.4902 48.6954 10.5013 48.6408 10.5059 48.627C10.5076 48.6218 10.5088 48.6185 10.5127 48.6143C10.5173 48.6092 10.5324 48.5952 10.5674 48.5781C10.6427 48.5415 10.7935 48.5 11.0625 48.5C12.9854 48.5 15.2413 48.3785 17.1348 47.752C19.0386 47.122 20.666 45.9457 21.1309 43.7959L26.1865 20.415C26.9329 16.9637 29.9856 14.5002 33.5166 14.5H33.5361L33.5557 14.498L59.5693 12.5Z" fill="#686E7D" stroke="#686E7D"/>
  <mask id="path-3-inside-1_4940_4734" fill="white">
    <path d="M59.4902 12C59.7717 12.0001 59.9999 12.2283 60 12.5098C60 12.7854 59.7804 13.01 59.5059 13.0352C56.0562 13.3505 53.1638 15.8691 52.4199 19.3096L52.0615 20.9697L47.3643 42.6904C46.5682 46.3721 43.3117 49 39.5449 49H10.5C10.2239 49 10 48.7761 10 48.5C10 48.2239 10.2239 48 10.5 48H10.7607C14.5275 48 17.784 45.3721 18.5801 41.6904L18.9453 40H18.9463L23.6357 18.3096C24.4318 14.6279 27.6883 12 31.4551 12H59.4902Z"/>
  </mask>
  <path d="M59.4902 12C59.7717 12.0001 59.9999 12.2283 60 12.5098C60 12.7854 59.7804 13.01 59.5059 13.0352C56.0562 13.3505 53.1638 15.8691 52.4199 19.3096L52.0615 20.9697L47.3643 42.6904C46.5682 46.3721 43.3117 49 39.5449 49H10.5C10.2239 49 10 48.7761 10 48.5C10 48.2239 10.2239 48 10.5 48H10.7607C14.5275 48 17.784 45.3721 18.5801 41.6904L18.9453 40H18.9463L23.6357 18.3096C24.4318 14.6279 27.6883 12 31.4551 12H59.4902Z" fill="#131416"/>
  <path d="M59.4902 12L59.4904 11H59.4902V12ZM60 12.5098H61V12.5096L60 12.5098ZM59.5059 13.0352L59.5969 14.031L59.5972 14.031L59.5059 13.0352ZM52.4199 19.3096L51.4425 19.0982L51.4424 19.0985L52.4199 19.3096ZM52.0615 20.9697L53.0389 21.1811L53.039 21.1807L52.0615 20.9697ZM47.3643 42.6904L46.3869 42.4791L46.3868 42.4791L47.3643 42.6904ZM39.5449 49V50H39.5449L39.5449 49ZM10.5 49L10.5 50H10.5V49ZM10.5 48V47H10.5L10.5 48ZM18.5801 41.6904L19.5575 41.9018L19.5575 41.9016L18.5801 41.6904ZM18.9453 40V39H18.1383L17.9679 39.7888L18.9453 40ZM18.9463 40V41H19.7532L19.9237 40.2113L18.9463 40ZM23.6357 18.3096L22.6583 18.0982L22.6583 18.0983L23.6357 18.3096ZM31.4551 12V11H31.4551L31.4551 12ZM59.4902 12L59.49 13C59.2194 12.9999 59.0001 12.7806 59 12.51L60 12.5098L61 12.5096C60.9998 11.6759 60.3241 11.0002 59.4904 11L59.4902 12ZM60 12.5098H59C59 12.231 59.2125 12.0579 59.4145 12.0393L59.5059 13.0352L59.5972 14.031C60.3482 13.9621 61 13.3399 61 12.5098H60ZM59.5059 13.0352L59.4148 12.0393C55.5337 12.3941 52.2795 15.2272 51.4425 19.0982L52.4199 19.3096L53.3973 19.5209C54.0481 16.511 56.5788 14.3069 59.5969 14.031L59.5059 13.0352ZM52.4199 19.3096L51.4424 19.0985L51.084 20.7587L52.0615 20.9697L53.039 21.1807L53.3974 19.5206L52.4199 19.3096ZM52.0615 20.9697L51.0841 20.7584L46.3869 42.4791L47.3643 42.6904L48.3417 42.9018L53.0389 21.1811L52.0615 20.9697ZM47.3643 42.6904L46.3868 42.4791C45.6903 45.7006 42.8408 48 39.5449 48L39.5449 49L39.5449 50C43.7825 50 47.4461 47.0436 48.3417 42.9018L47.3643 42.6904ZM39.5449 49V48H10.5V49V50H39.5449V49ZM10.5 49L10.5 48C10.7761 48 11 48.2239 11 48.5H10H9C9 49.3284 9.67157 50 10.5 50L10.5 49ZM10 48.5H11C11 48.7761 10.7761 49 10.5 49V48L10.5 47C9.67157 47 9 47.6716 9 48.5H10ZM10.5 48V49H10.7607V48V47H10.5V48ZM10.7607 48V49C14.9984 49 18.662 46.0436 19.5575 41.9018L18.5801 41.6904L17.6027 41.4791C16.9061 44.7006 14.0566 47 10.7607 47V48ZM18.5801 41.6904L19.5575 41.9016L19.9228 40.2112L18.9453 40L17.9679 39.7888L17.6026 41.4792L18.5801 41.6904ZM18.9453 40V41H18.9463V40V39H18.9453V40ZM18.9463 40L19.9237 40.2113L24.6132 18.5209L23.6357 18.3096L22.6583 18.0983L17.9689 39.7887L18.9463 40ZM23.6357 18.3096L24.6132 18.5209C25.3097 15.2994 28.1592 13 31.4551 13L31.4551 12L31.4551 11C27.2175 11 23.5539 13.9564 22.6583 18.0982L23.6357 18.3096ZM31.4551 12V13H59.4902V12V11H31.4551V12Z" fill="#686E7D" mask="url(#path-3-inside-1_4940_4734)"/>
  <path d="M28.5 18.5061L28.556 18.5047M47 18.5061L31.5 18.5061" stroke="#686E7D" stroke-width="2" stroke-linecap="round" stroke-linejoin="round"/>
  <path d="M27.5 23.0122L27.556 23.0108M46 23.0122L30.5 23.0122" stroke="#686E7D" stroke-width="2" stroke-linecap="round" stroke-linejoin="round"/>
  <path d="M26.5 27.5178L26.556 27.5164M45 27.5178L29.5 27.5178" stroke="#686E7D" stroke-width="2" stroke-linecap="round" stroke-linejoin="round"/>
  <path d="M25.5 32.0237L25.556 32.0223M44 32.0237L28.5 32.0237" stroke="#686E7D" stroke-width="2" stroke-linecap="round" stroke-linejoin="round"/>
  <path d="M43.7695 36L45.8545 36.5215L49.4238 43.9512L55.915 44.8242L55.8896 44.8477L56.0186 44.8613L58 45.3447L51.8301 51.2324L53.3613 59.6221L51.5889 59.1943L51.2539 58.9834L51.2764 59.1016L45.2949 55.875L38.3486 59.6221L36.4727 59.1943L36.5869 58.9268L36.2637 59.1016L37.7949 50.7119L31.625 44.8242L40.0771 43.6875L43.7686 36.0029L43.7695 36Z" fill="#131416"/>
  <path d="M43.7695 36L44.4975 33.0897C42.9766 32.7093 41.4192 33.564 40.9235 35.0513L43.7695 36ZM45.8545 36.5215L48.5586 35.2224C48.1723 34.4182 47.448 33.8276 46.5824 33.6111L45.8545 36.5215ZM49.4238 43.9512L46.7197 45.2503C47.157 46.1606 48.023 46.7898 49.0239 46.9244L49.4238 43.9512ZM55.915 44.8242L57.9499 47.0286C58.804 46.2402 59.1258 45.0293 58.7758 43.9209C58.4258 42.8124 57.467 42.0059 56.3149 41.851L55.915 44.8242ZM55.8896 44.8477L53.8548 42.6432C52.9895 43.442 52.6715 44.6731 53.0418 45.791C53.4121 46.9089 54.4022 47.7067 55.5732 47.8309L55.8896 44.8477ZM56.0186 44.8613L56.7296 41.9468C56.5997 41.9151 56.4679 41.8922 56.335 41.8781L56.0186 44.8613ZM58 45.3447L60.0711 47.5151C60.8643 46.7582 61.1814 45.6288 60.8981 44.5696C60.6148 43.5104 59.7762 42.6901 58.711 42.4302L58 45.3447ZM51.8301 51.2324L49.759 49.062C49.0283 49.7593 48.6975 50.7775 48.8788 51.7711L51.8301 51.2324ZM53.3613 59.6221L52.6576 62.5384C53.6443 62.7765 54.6845 62.4995 55.4221 61.8022C56.1598 61.105 56.4948 60.082 56.3126 59.0834L53.3613 59.6221ZM51.5889 59.1943L49.9902 61.7329C50.266 61.9066 50.5683 62.0342 50.8851 62.1106L51.5889 59.1943ZM51.2539 58.9834L52.8525 56.4448C51.8422 55.8086 50.5507 55.832 49.5641 56.5045C48.5776 57.1771 48.0837 58.3706 48.3067 59.5436L51.2539 58.9834ZM51.2764 59.1016L49.8521 61.7419C50.8708 62.2914 52.1147 62.2059 53.0486 61.5222C53.9825 60.8384 54.4397 59.6784 54.2236 58.5413L51.2764 59.1016ZM45.2949 55.875L46.7192 53.2347C45.8302 52.7551 44.7596 52.7551 43.8706 53.2347L45.2949 55.875ZM38.3486 59.6221L37.6817 62.547C38.3903 62.7086 39.1333 62.6074 39.7729 62.2624L38.3486 59.6221ZM36.4727 59.1943L33.7137 58.0162C33.3644 58.8341 33.3961 59.7648 33.8 60.5571C34.204 61.3494 34.9387 61.9216 35.8058 62.1193L36.4727 59.1943ZM36.5869 58.9268L39.3459 60.1049C39.8469 58.9315 39.551 57.5696 38.6083 56.71C37.6655 55.8503 36.2821 55.681 35.1599 56.2879L36.5869 58.9268ZM36.2637 59.1016L33.3124 58.5629C33.1052 59.6982 33.5676 60.8517 34.5016 61.5295C35.4356 62.2074 36.6756 62.2894 37.6907 61.7404L36.2637 59.1016ZM37.7949 50.7119L40.7462 51.2506C40.9275 50.257 40.5967 49.2388 39.866 48.5415L37.7949 50.7119ZM31.625 44.8242L31.2251 41.851C30.082 42.0047 29.1282 42.8002 28.7718 43.8972C28.4154 44.9941 28.7194 46.1983 29.5539 46.9946L31.625 44.8242ZM40.0771 43.6875L40.477 46.6607C41.478 46.5261 42.344 45.8969 42.7813 44.9865L40.0771 43.6875ZM43.7686 36.0029L46.4727 37.3019C46.5273 37.1883 46.5747 37.0713 46.6146 36.9516L43.7686 36.0029ZM43.7695 36L43.0416 38.9103L45.1266 39.4318L45.8545 36.5215L46.5824 33.6111L44.4975 33.0897L43.7695 36ZM45.8545 36.5215L43.1504 37.8206L46.7197 45.2503L49.4238 43.9512L52.128 42.6521L48.5586 35.2224L45.8545 36.5215ZM49.4238 43.9512L49.0239 46.9244L55.5152 47.7974L55.915 44.8242L56.3149 41.851L49.8237 40.9779L49.4238 43.9512ZM55.915 44.8242L53.8802 42.6198L53.8548 42.6432L55.8896 44.8477L57.9245 47.0521L57.9499 47.0286L55.915 44.8242ZM55.8896 44.8477L55.5732 47.8309L55.7021 47.8446L56.0186 44.8613L56.335 41.8781L56.2061 41.8644L55.8896 44.8477ZM56.0186 44.8613L55.3075 47.7758L57.289 48.2592L58 45.3447L58.711 42.4302L56.7296 41.9468L56.0186 44.8613ZM58 45.3447L55.9289 43.1743L49.759 49.062L51.8301 51.2324L53.9012 53.4028L60.0711 47.5151L58 45.3447ZM51.8301 51.2324L48.8788 51.7711L50.4101 60.1607L53.3613 59.6221L56.3126 59.0834L54.7813 50.6938L51.8301 51.2324ZM53.3613 59.6221L54.0651 56.7058L52.2926 56.2781L51.5889 59.1943L50.8851 62.1106L52.6576 62.5384L53.3613 59.6221ZM51.5889 59.1943L53.1875 56.6558L52.8525 56.4448L51.2539 58.9834L49.6553 61.522L49.9902 61.7329L51.5889 59.1943ZM51.2539 58.9834L48.3067 59.5436L48.3291 59.6618L51.2764 59.1016L54.2236 58.5413L54.2011 58.4232L51.2539 58.9834ZM51.2764 59.1016L52.7006 56.4612L46.7192 53.2347L45.2949 55.875L43.8706 58.5153L49.8521 61.7419L51.2764 59.1016ZM45.2949 55.875L43.8706 53.2347L36.9243 56.9817L38.3486 59.6221L39.7729 62.2624L46.7192 58.5153L45.2949 55.875ZM38.3486 59.6221L39.0155 56.6971L37.1396 56.2694L36.4727 59.1943L35.8058 62.1193L37.6817 62.547L38.3486 59.6221ZM36.4727 59.1943L39.2317 60.3724L39.3459 60.1049L36.5869 58.9268L33.8279 57.7486L33.7137 58.0162L36.4727 59.1943ZM36.5869 58.9268L35.1599 56.2879L34.8366 56.4627L36.2637 59.1016L37.6907 61.7404L38.014 61.5656L36.5869 58.9268ZM36.2637 59.1016L39.2149 59.6402L40.7462 51.2506L37.7949 50.7119L34.8437 50.1733L33.3124 58.5629L36.2637 59.1016ZM37.7949 50.7119L39.866 48.5415L33.6961 42.6538L31.625 44.8242L29.5539 46.9946L35.7238 52.8823L37.7949 50.7119ZM31.625 44.8242L32.0249 47.7975L40.477 46.6607L40.0771 43.6875L39.6773 40.7143L31.2251 41.851L31.625 44.8242ZM40.0771 43.6875L42.7813 44.9865L46.4727 37.3019L43.7686 36.0029L41.0644 34.7039L37.373 42.3885L40.0771 43.6875ZM43.7686 36.0029L46.6146 36.9516L46.6156 36.9487L43.7695 36L40.9235 35.0513L40.9225 35.0542L43.7686 36.0029Z" fill="#131416"/>
  <path d="M45.8549 36.5212L49.5479 44.2083L56.0188 44.8609L58 45.3451L51.8303 51.2328L53.361 59.6225L51.5884 59.1946L51.2539 58.9834L51.2764 59.1016L45.2949 55.875L38.3488 59.6225L36.4728 59.1946L36.5869 58.9268L36.2637 59.1016L37.7949 50.7119L31.625 44.8242L40.0771 43.6875L43.7686 36.0029L43.77 36L45.8549 36.5212Z" fill="#686E7D" stroke="#686E7D" stroke-width="2" stroke-linejoin="round"/>
  <path d="M43.7701 36.0002L47.4631 43.6873L55.9151 44.8241L49.7454 50.7118L51.2761 59.1015L43.7701 55.0531L36.264 59.1015L37.7947 50.7118L31.625 44.8241L40.0771 43.6873L43.7701 36.0002Z" fill="#131416" stroke="#686E7D" stroke-width="2" stroke-linejoin="round"/>
  <defs>
    <filter id="filter0_f_4940_4734" x="9.88855" y="61.2255" width="54.0201" height="16.2886" filterUnits="userSpaceOnUse" color-interpolation-filters="sRGB">
      <feFlood flood-opacity="0" result="BackgroundImageFix"/>
      <feBlend mode="normal" in="SourceGraphic" in2="BackgroundImageFix" result="shape"/>
      <feGaussianBlur stdDeviation="2.5" result="effect1_foregroundBlur_4940_4734"/>
    </filter>
  </defs>
</svg>
