<svg xmlns="http://www.w3.org/2000/svg" width="100" height="100"><path d="M50 100c27.613 0 50-22.387 50-50S77.613 0 50 0 0 22.387 0 50s22.387 50 50 50m0 0" style="stroke:none;fill-rule:nonzero;fill:#000;fill-opacity:1"/><path d="m72.281 29.04-7.5 3.823L28.54 51.32a21.56 21.56 0 0 1 1.719-11.644 21.56 21.56 0 0 1 7.578-9.012 21.55 21.55 0 0 1 11.176-3.7 21.6 21.6 0 0 1 11.457 2.716l4.293-2.188.64-.328a26.4 26.4 0 0 0-13.93-4.98 26.38 26.38 0 0 0-24.796 13.855 26.4 26.4 0 0 0-3.059 14.477 4.78 4.78 0 0 1-.601 2.714 4.8 4.8 0 0 1-2.004 1.922l-2.266 1.157v5.386l6.668-3.398 2.16-1.102 2.13-1.086L67.91 36.641l4.293-2.184 8.875-4.523V24.55Zm8.801 6.284L31.879 60.375l-4.293 2.188-8.836 4.507v5.387l8.773-4.469 7.504-3.824L71.31 45.676a21.6 21.6 0 0 1-1.707 11.668 21.64 21.64 0 0 1-7.586 9.031 21.6 21.6 0 0 1-22.672.957l-.266.14-4.656 2.376a26.37 26.37 0 0 0 28.36 1.676 26.34 26.34 0 0 0 10.374-10.555 26.4 26.4 0 0 0 3.055-14.48 4.76 4.76 0 0 1 .602-2.712 4.8 4.8 0 0 1 2-1.925l2.269-1.157Zm0 0" style="stroke:none;fill-rule:nonzero;fill:#fff;fill-opacity:1"/></svg>