<svg width="25" height="24" viewBox="0 0 25 24" fill="none" xmlns="http://www.w3.org/2000/svg">
<path d="M16.2808 12.9V17.1C16.2808 20.6 14.8808 22 11.3808 22H7.18076C3.68076 22 2.28076 20.6 2.28076 17.1V12.9C2.28076 9.4 3.68076 8 7.18076 8H11.3808C14.8808 8 16.2808 9.4 16.2808 12.9Z" fill="currentColor"/>
<path d="M17.3808 2H13.1808C10.0977 2 8.65174 3.09409 8.3505 5.73901C8.28748 6.29235 8.74575 6.75 9.30267 6.75H11.3808C15.5808 6.75 17.5308 8.7 17.5308 12.9V14.9781C17.5308 15.535 17.9884 15.9933 18.5417 15.9303C21.1867 15.629 22.2808 14.1831 22.2808 11.1V6.9C22.2808 3.4 20.8808 2 17.3808 2Z" fill="currentColor"/>
</svg>
