<svg width="25" height="24" viewBox="0 0 25 24" fill="none" xmlns="http://www.w3.org/2000/svg">
<path d="M19.8108 5.53L5.81076 19.53C5.79076 19.55 5.78076 19.56 5.76076 19.57C5.38076 19.25 5.03076 18.9 4.71076 18.52C3.19076 16.77 2.28076 14.49 2.28076 12C2.28076 6.48 6.76076 2 12.2808 2C14.7708 2 17.0508 2.91 18.8008 4.43C19.1808 4.75 19.5308 5.1 19.8508 5.48C19.8408 5.5 19.8308 5.51 19.8108 5.53Z" fill="currentColor"/>
<path d="M22.2806 11.9999C22.2806 17.4899 17.7706 21.9999 12.2806 21.9999C10.7806 21.9999 9.36062 21.6699 8.08062 21.0699C7.46062 20.7799 7.34062 19.9499 7.82062 19.4599L19.7406 7.53986C20.2206 7.05986 21.0606 7.17986 21.3506 7.79986C21.9506 9.06986 22.2806 10.4999 22.2806 11.9999Z" fill="currentColor"/>
<path d="M22.0506 2.22988C21.7506 1.92988 21.2606 1.92988 20.9606 2.22988L2.51064 20.6899C2.21064 20.9899 2.21064 21.4799 2.51064 21.7799C2.66064 21.9199 2.85064 21.9999 3.05064 21.9999C3.25064 21.9999 3.44064 21.9199 3.59064 21.7699L22.0506 3.30988C22.3606 3.00988 22.3606 2.52988 22.0506 2.22988Z" fill="currentColor"/>
</svg>
