<svg viewBox="0 0 150 24" xmlns="http://www.w3.org/2000/svg">
  <path
    d="M87.8298 0.81543C94.0571 0.81543 99.1062 5.86466 99.1062 12.0918C99.106 18.3188 94.0569 23.3672 87.8298 23.3672C81.6031 23.3669 76.5547 18.3192 76.5544 12.0918C76.5544 5.86429 81.6029 0.815692 87.8298 0.81543ZM118.135 9.63477C118.713 9.63481 119.226 9.72428 119.674 9.90234C120.115 10.0733 120.476 10.4008 120.691 10.8223C120.815 11.047 120.893 11.2938 120.921 11.5488C120.947 11.8183 120.959 12.0887 120.958 12.3594V16.3623H119.517V15.5557C119.288 15.8374 119.007 16.0733 118.689 16.25C118.32 16.4458 117.854 16.5439 117.288 16.5439C116.82 16.5443 116.423 16.4542 116.098 16.2744C115.787 16.1087 115.531 15.8576 115.359 15.5508C115.19 15.2462 115.104 14.9028 115.108 14.5547C115.105 14.2723 115.152 13.9915 115.247 13.7256C115.342 13.4715 115.497 13.2434 115.698 13.0615C115.943 12.8475 116.228 12.6834 116.537 12.5781C116.819 12.4787 117.109 12.3994 117.403 12.3418C117.738 12.2731 118.119 12.2073 118.542 12.1445C118.789 12.1084 119.054 12.0691 119.332 12.0273C119.3 11.7592 119.213 11.5521 119.068 11.4102C118.883 11.2284 118.572 11.1368 118.135 11.1367C117.874 11.1411 117.616 11.2011 117.379 11.3125C117.116 11.429 116.933 11.6375 116.827 11.9365L115.339 11.4639C115.496 10.9336 115.823 10.4694 116.27 10.1436C116.726 9.80404 117.349 9.63477 118.135 9.63477ZM139.525 9.63477C140.102 9.63479 140.615 9.72426 141.063 9.90234C141.503 10.0734 141.865 10.4008 142.08 10.8223C142.204 11.047 142.283 11.2938 142.31 11.5488C142.337 11.8182 142.347 12.0887 142.346 12.3594V16.3604H140.906V15.5537C140.676 15.8355 140.395 16.0713 140.078 16.248C139.71 16.4438 139.242 16.542 138.677 16.542C138.209 16.5423 137.812 16.4523 137.487 16.2725C137.176 16.107 136.92 15.8556 136.749 15.5488C136.58 15.2443 136.493 14.9008 136.497 14.5527C136.494 14.2701 136.54 13.9886 136.636 13.7227C136.732 13.4688 136.886 13.2414 137.087 13.0596C137.295 12.8685 137.575 12.7081 137.927 12.5781C138.209 12.4787 138.498 12.3993 138.792 12.3418C139.127 12.2731 139.507 12.2073 139.93 12.1445C140.178 12.1084 140.442 12.0691 140.72 12.0273C140.689 11.7592 140.602 11.5521 140.457 11.4102C140.272 11.2284 139.961 11.1368 139.525 11.1367C139.263 11.1411 139.004 11.201 138.767 11.3125C138.506 11.429 138.321 11.6375 138.216 11.9365L136.726 11.4639C136.885 10.9336 137.212 10.4695 137.66 10.1436C138.116 9.80429 138.738 9.63477 139.525 9.63477ZM132.694 9.63281C133.159 9.62448 133.622 9.70461 134.056 9.86914C134.428 10.0092 134.758 10.2403 135.016 10.541C135.262 10.8344 135.419 11.1921 135.469 11.5713L133.785 11.874C133.774 11.7616 133.741 11.6527 133.687 11.5537C133.632 11.4547 133.558 11.3678 133.469 11.2988C133.288 11.1575 133.041 11.075 132.73 11.0508C132.429 11.0307 132.184 11.0691 132.001 11.1709C131.817 11.2728 131.724 11.4176 131.724 11.6074C131.723 11.6604 131.735 11.7128 131.755 11.7617C131.775 11.8108 131.805 11.855 131.844 11.8916C131.923 11.968 132.085 12.0471 132.334 12.1279C132.581 12.2089 132.961 12.3142 133.469 12.4434C133.965 12.5731 134.364 12.723 134.665 12.8936C134.966 13.0665 135.185 13.273 135.324 13.5127C135.468 13.7792 135.539 14.0791 135.531 14.3818C135.529 15.0535 135.285 15.5812 134.802 15.9648C134.317 16.3485 133.647 16.541 132.791 16.541C131.967 16.5414 131.302 16.354 130.796 15.9805C130.289 15.6067 129.981 15.0788 129.872 14.3965L131.558 14.1357C131.614 14.4257 131.778 14.6839 132.014 14.8594C132.251 15.033 132.551 15.1201 132.915 15.1201C133.211 15.1201 133.441 15.0629 133.604 14.9482C133.681 14.895 133.745 14.8224 133.787 14.7383C133.829 14.6542 133.85 14.5608 133.846 14.4668C133.852 14.3548 133.816 14.2444 133.749 14.1553C133.684 14.0763 133.538 13.9987 133.316 13.9219C133.092 13.8455 132.743 13.7446 132.271 13.6191C131.737 13.4815 131.31 13.3283 130.991 13.1592C130.673 12.99 130.442 12.7865 130.301 12.5498C130.153 12.2889 130.08 11.9928 130.089 11.6934C130.08 11.3047 130.192 10.9228 130.409 10.6006C130.637 10.2804 130.952 10.032 131.316 9.88477C131.707 9.71704 132.165 9.63281 132.694 9.63281ZM110.238 9.17871H107.489V16.3613H105.842V9.17871H103.092V7.64062H110.238V9.17871ZM145.594 12.9697L147.809 9.82031H149.844L147.483 13.0908L150.002 16.3613H147.858L145.594 13.2119V16.3613H143.91L143.922 7.64062H145.594V12.9697ZM114.443 9.81934V11.3545C114.238 11.2967 114.023 11.2778 113.81 11.2988C113.585 11.3135 113.364 11.3701 113.16 11.4658C112.974 11.548 112.806 11.6687 112.67 11.8193C112.533 11.9699 112.429 12.1478 112.366 12.3408C112.295 12.559 112.262 12.7874 112.266 13.0166V16.3594H110.604V9.81934H112.057V10.873C112.111 10.7763 112.171 10.683 112.239 10.5947C112.381 10.4085 112.558 10.2518 112.76 10.1338C112.921 10.0361 113.093 9.95976 113.274 9.90723C113.461 9.8523 113.656 9.81724 113.85 9.80371C114.048 9.7893 114.247 9.79493 114.443 9.81934ZM126.106 9.62207C126.618 9.62207 127.036 9.70855 127.359 9.88184C127.661 10.037 127.919 10.2639 128.113 10.542C128.287 10.7968 128.417 11.0791 128.498 11.377C128.569 11.6352 128.615 11.8999 128.636 12.167C128.652 12.4054 128.659 12.5762 128.659 12.6875V16.3584H126.99V13.2695C126.991 13.12 126.982 12.9292 126.967 12.6973C126.949 12.4583 126.898 12.2229 126.815 11.998C126.733 11.7679 126.59 11.5641 126.399 11.4102C126.208 11.2526 125.936 11.1738 125.586 11.1738C125.431 11.1756 125.279 11.1977 125.131 11.2402C124.961 11.2892 124.806 11.3777 124.677 11.498C124.534 11.6253 124.416 11.8126 124.326 12.0586C124.235 12.3046 124.19 12.632 124.19 13.04V16.3584H122.52V9.81738H123.986V10.4932C124.141 10.32 124.317 10.1669 124.51 10.0391C124.932 9.76087 125.464 9.62207 126.106 9.62207ZM84.6306 7.95312C84.3986 7.95312 84.1756 8.04493 84.0115 8.20898C83.8475 8.37302 83.7556 8.59614 83.7556 8.82812V13.2412L81.947 11.4326C81.7819 11.2752 81.5619 11.1888 81.3337 11.1914C81.1053 11.1941 80.8869 11.2858 80.7253 11.4473C80.5639 11.6088 80.4712 11.8272 80.4685 12.0557C80.4659 12.2838 80.5533 12.5038 80.7107 12.6689L84.0125 15.9619C84.0331 15.9828 84.0549 16.0031 84.0779 16.0215C84.0998 16.0414 84.1232 16.0575 84.1462 16.0732C84.2644 16.1514 84.3997 16.2006 84.5408 16.2148H84.5486C84.5768 16.2189 84.6052 16.2188 84.6335 16.2188H84.6462C84.6696 16.2188 84.6937 16.2179 84.7175 16.2158H84.7351C84.7576 16.2133 84.7805 16.2098 84.8025 16.2051H84.8123C84.8368 16.1998 84.8614 16.1948 84.8855 16.1875H84.8904C84.9155 16.1797 84.9419 16.1696 84.9675 16.1592C85.0038 16.1443 85.0393 16.1264 85.073 16.1064L85.0925 16.0947C85.1254 16.0747 85.1574 16.0528 85.1873 16.0283L85.196 16.0205C85.2123 16.0047 85.2309 15.9886 85.2488 15.9707L90.2664 10.9531V15.3545C90.2664 15.5864 90.3592 15.8087 90.5232 15.9727C90.6872 16.1367 90.9094 16.2295 91.1414 16.2295C91.3733 16.2295 91.5955 16.1368 91.7595 15.9727C91.9235 15.8087 92.0164 15.5864 92.0164 15.3545V10.9414L93.7136 12.6396C93.8776 12.8034 94.1 12.8955 94.3318 12.8955C94.5635 12.8955 94.7859 12.8034 94.95 12.6396C95.0316 12.5585 95.0969 12.4617 95.1414 12.3555C95.1857 12.2491 95.2084 12.1348 95.2087 12.0195C95.2089 11.9046 95.1861 11.7908 95.1423 11.6846C95.0984 11.5781 95.0343 11.4809 94.9529 11.3994L91.7625 8.20898L91.7498 8.19824C91.7292 8.1797 91.7076 8.16181 91.6853 8.14551C91.6695 8.13289 91.6532 8.1204 91.6365 8.10938C91.6292 8.10422 91.6218 8.10035 91.614 8.0957C91.4324 7.9768 91.2128 7.9303 90.9988 7.96582C90.7847 8.00132 90.5922 8.11608 90.4587 8.28711L85.5046 13.2412V8.82812C85.5046 8.59613 85.4129 8.37302 85.2488 8.20898C85.0848 8.0451 84.8624 7.95319 84.6306 7.95312ZM118.621 13.4834C118.317 13.5379 118.073 13.5873 117.887 13.6318C117.721 13.6704 117.557 13.7191 117.396 13.7773C117.259 13.8297 117.128 13.9002 117.008 13.9863C116.918 14.0509 116.843 14.1344 116.79 14.2314C116.742 14.323 116.718 14.4252 116.719 14.5283C116.715 14.665 116.755 14.7998 116.831 14.9131C116.911 15.0239 117.021 15.1095 117.149 15.1582C117.306 15.2181 117.472 15.2463 117.638 15.2422C117.903 15.2508 118.167 15.1959 118.406 15.082C118.592 14.9913 118.76 14.8671 118.902 14.7158C119 14.6126 119.085 14.4967 119.153 14.3711C119.242 14.1764 119.293 13.966 119.302 13.752C119.311 13.604 119.316 13.4786 119.319 13.3623C119.049 13.4079 118.813 13.4489 118.621 13.4834ZM140.01 13.4834C139.706 13.5379 139.461 13.5873 139.276 13.6318C139.11 13.6704 138.946 13.719 138.786 13.7773C138.647 13.8297 138.517 13.9002 138.396 13.9863C138.306 14.0507 138.232 14.1345 138.179 14.2314C138.132 14.323 138.107 14.4252 138.108 14.5283C138.104 14.665 138.143 14.7998 138.22 14.9131C138.3 15.024 138.41 15.1095 138.538 15.1582C138.694 15.2181 138.86 15.2462 139.027 15.2422C139.292 15.2508 139.556 15.1959 139.795 15.082C139.981 14.9913 140.149 14.8671 140.291 14.7158C140.389 14.6126 140.474 14.4967 140.542 14.3711C140.631 14.1762 140.682 13.9659 140.691 13.752C140.699 13.604 140.705 13.4786 140.708 13.3623C140.438 13.4079 140.202 13.4489 140.01 13.4834Z"
  />
  <path
    d="M67.1025 14.0566L68.8906 9.40137H70.6143L66.749 19.2871H65.1514L66.2773 16.1904L63.5166 9.40137H65.3037L67.1025 14.0566ZM11.1992 9.21289C11.8877 9.21289 12.4921 9.36653 13.0117 9.6748C13.5356 9.9832 13.9438 10.4101 14.2354 10.9551C14.5268 11.4957 14.6718 12.1189 14.6719 12.8242C14.6719 13.5338 14.5242 14.1611 14.2285 14.7061C13.937 15.2468 13.5297 15.6721 13.0059 15.9805C12.4862 16.2846 11.8836 16.4365 11.1992 16.4365C10.5107 16.4365 9.90629 16.282 9.38672 15.9736C8.86726 15.6653 8.46136 15.2408 8.16992 14.7002C7.88269 14.1553 7.73926 13.5297 7.73926 12.8242C7.73929 12.1104 7.88697 11.483 8.18262 10.9424C8.47835 10.3974 8.88661 9.97312 9.40625 9.66895C9.92582 9.36482 10.5234 9.21294 11.1992 9.21289ZM28.9756 9.21289C29.6937 9.21291 30.3039 9.38179 30.8066 9.71973C31.3094 10.0577 31.6811 10.5329 31.9219 11.1455C32.1626 11.7579 32.2475 12.4779 32.1758 13.3057H27.3711C27.4249 13.7165 27.5508 14.0508 27.752 14.3076C28.0308 14.654 28.439 14.8271 28.9756 14.8271C29.3135 14.8271 29.603 14.7533 29.8438 14.6055C30.0846 14.4576 30.2688 14.2437 30.3955 13.9648L32.1191 14.459C31.8614 15.0842 31.4532 15.5706 30.8955 15.917C30.3422 16.2633 29.736 16.4365 29.0771 16.4365C28.3758 16.4365 27.7563 16.2863 27.2197 15.9863C26.6876 15.6822 26.269 15.2662 25.9648 14.7383C25.6649 14.206 25.5156 13.5974 25.5156 12.9131C25.5156 12.1654 25.6633 11.5143 25.959 10.9609C26.2547 10.4078 26.6622 9.9789 27.1816 9.6748C27.7013 9.36641 28.2996 9.21289 28.9756 9.21289ZM41.7842 9.21289C42.5024 9.21289 43.1135 9.38176 43.6162 9.71973C44.1188 10.0577 44.4907 10.533 44.7314 11.1455C44.9721 11.7579 45.0571 12.4779 44.9854 13.3057H40.1807C40.2345 13.7165 40.3604 14.0508 40.5615 14.3076C40.8403 14.6538 41.248 14.827 41.7842 14.8271C42.1222 14.8271 42.4125 14.7533 42.6533 14.6055C42.894 14.4576 43.0774 14.2436 43.2041 13.9648L44.9277 14.459C44.67 15.0842 44.2627 15.5706 43.7051 15.917C43.1516 16.2634 42.5448 16.4365 41.8857 16.4365C41.1846 16.4365 40.5658 16.2862 40.0293 15.9863C39.497 15.6822 39.0786 15.2663 38.7744 14.7383C38.4745 14.206 38.3242 13.5975 38.3242 12.9131C38.3242 12.1654 38.4728 11.5143 38.7686 10.9609C39.0643 10.4078 39.4717 9.97888 39.9912 9.6748C40.5107 9.36651 41.1084 9.21296 41.7842 9.21289ZM52.5635 16.2422H51.043V15.8467C50.9953 15.8845 50.9469 15.922 50.8965 15.957C50.4403 16.2738 49.8724 16.4326 49.1924 16.4326C48.5629 16.4326 48.0113 16.2739 47.5381 15.957C47.065 15.6402 46.6948 15.2099 46.4287 14.665C46.1668 14.1201 46.0361 13.5047 46.0361 12.8203C46.0362 12.1233 46.1694 11.5046 46.4355 10.9639C46.7058 10.4191 47.0837 9.99033 47.5693 9.67773C48.0552 9.36511 48.6264 9.20898 49.2812 9.20898C49.8864 9.20905 50.4011 9.34692 50.8271 9.62109V7.11719H52.5635V16.2422ZM58.5996 9.62109C59.0256 9.34694 59.5404 9.20903 60.1455 9.20898C60.8003 9.20898 61.3706 9.36519 61.8564 9.67773C62.3423 9.99035 62.7192 10.4189 62.9854 10.9639C63.2556 11.5045 63.3906 12.1234 63.3906 12.8203C63.3906 13.5047 63.2574 14.1201 62.9912 14.665C62.7293 15.2098 62.3616 15.6403 61.8887 15.957C61.4155 16.2739 60.8639 16.4326 60.2344 16.4326C59.5543 16.4326 58.9865 16.2738 58.5303 15.957C58.4799 15.922 58.4315 15.8845 58.3838 15.8467V16.2422H56.8633V7.11719H58.5996V9.62109ZM16.8721 9.39941L18.1143 13.4795L19.375 9.39941H20.8076L22.0684 13.4795L23.3105 9.39941H24.9961L22.9053 16.2432H21.5869L20.0908 11.7812L18.5957 16.2432H17.2773L15.1865 9.38672L16.8721 9.39941ZM37.0029 9.38672C37.2099 9.36982 37.417 9.37407 37.624 9.39941V11.0088C37.434 10.9497 37.2123 10.9301 36.959 10.9512C36.7097 10.9681 36.4831 11.0259 36.2803 11.123C36.0778 11.2159 35.9068 11.3401 35.7676 11.4961C35.6282 11.6482 35.522 11.8308 35.4502 12.042C35.3785 12.2489 35.3428 12.4834 35.3428 12.7451V16.2432H33.6064V9.39941H35.127V10.501C35.1838 10.3993 35.2473 10.3021 35.3174 10.21C35.4652 10.0157 35.6469 9.85521 35.8623 9.72852C36.0271 9.62715 36.2071 9.54905 36.4014 9.49414C36.5956 9.43507 36.7961 9.39938 37.0029 9.38672ZM4.20898 7.12988C4.36094 7.13412 4.49605 7.14686 4.61426 7.16797C5.15924 7.25246 5.60475 7.43244 5.95117 7.70703C6.30178 7.98162 6.55986 8.32789 6.72461 8.74609C6.88931 9.16004 6.97168 9.62272 6.97168 10.1338C6.97166 10.6448 6.88669 11.1092 6.71777 11.5273C6.55304 11.9413 6.29586 12.286 5.94531 12.5605C5.59888 12.8351 5.15503 13.0151 4.61426 13.0996C4.49605 13.1165 4.36094 13.1292 4.20898 13.1377C4.05689 13.1461 3.93801 13.1504 3.85352 13.1504H1.72461V16.2422H0.000976562V7.11719H3.85352C3.94224 7.11719 4.06112 7.12143 4.20898 7.12988ZM49.5342 10.7422C49.1498 10.7422 48.8332 10.8373 48.584 11.0273C48.339 11.2132 48.1574 11.4645 48.0391 11.7812C47.9208 12.0938 47.8614 12.4402 47.8613 12.8203C47.8613 13.2046 47.9183 13.5553 48.0322 13.8721C48.1463 14.1847 48.322 14.4342 48.5586 14.6201C48.7951 14.8059 49.0991 14.8994 49.4707 14.8994C49.855 14.8994 50.1615 14.8127 50.3896 14.6396C50.622 14.4664 50.7892 14.2228 50.8906 13.9102C50.9919 13.5976 51.043 13.2342 51.043 12.8203C51.0429 12.4064 50.992 12.043 50.8906 11.7305C50.7892 11.4179 50.6262 11.1752 50.4023 11.002C50.1827 10.8288 49.8933 10.7422 49.5342 10.7422ZM59.8926 10.7422C59.5335 10.7422 59.2415 10.8287 59.0176 11.002C58.798 11.1751 58.6375 11.418 58.5361 11.7305C58.4348 12.043 58.3838 12.4064 58.3838 12.8203C58.3838 13.2342 58.4348 13.5976 58.5361 13.9102C58.6375 14.2228 58.8021 14.4664 59.0303 14.6396C59.2626 14.8128 59.5716 14.8994 59.9561 14.8994C60.3277 14.8994 60.6316 14.8059 60.8682 14.6201C61.1048 14.4342 61.2805 14.1847 61.3945 13.8721C61.5085 13.5553 61.5654 13.2046 61.5654 12.8203C61.5654 12.4402 61.506 12.0938 61.3877 11.7812C61.2694 11.4646 61.086 11.2132 60.8369 11.0273C60.5919 10.8373 60.2769 10.7422 59.8926 10.7422ZM11.1992 10.8223C10.8235 10.8223 10.5151 10.9064 10.2744 11.0752C10.0336 11.2442 9.85365 11.4794 9.73535 11.7793C9.62143 12.0791 9.56448 12.4274 9.56445 12.8242C9.56445 13.4367 9.70199 13.9248 9.97656 14.2881C10.2553 14.6471 10.6628 14.8271 11.1992 14.8271C11.7526 14.8271 12.1652 14.6413 12.4355 14.2695C12.7102 13.8935 12.8477 13.4114 12.8477 12.8242C12.8476 12.216 12.7075 11.7305 12.4287 11.3672C12.1541 11.0039 11.7442 10.8223 11.1992 10.8223ZM29.0518 10.708C28.4646 10.708 28.0308 10.8871 27.752 11.2461C27.5944 11.4496 27.4842 11.7103 27.417 12.0264H30.4307C30.3803 11.6561 30.2821 11.3711 30.1348 11.1709C29.9151 10.8625 29.5544 10.7081 29.0518 10.708ZM41.8604 10.708C41.2734 10.7081 40.8403 10.8873 40.5615 11.2461C40.404 11.4496 40.2937 11.7103 40.2266 12.0264H43.2402C43.1899 11.6562 43.0916 11.3711 42.9443 11.1709C42.7246 10.8625 42.3631 10.708 41.8604 10.708ZM1.72461 11.54H3.77734C3.86606 11.54 3.96372 11.5358 4.06934 11.5273C4.17481 11.5189 4.27173 11.5019 4.36035 11.4766C4.59272 11.4132 4.77267 11.308 4.89941 11.1602C5.02615 11.0081 5.11271 10.8408 5.15918 10.6592C5.20979 10.4735 5.23533 10.2984 5.23535 10.1338C5.23535 9.9691 5.20983 9.79583 5.15918 9.61426C5.11271 9.42838 5.02616 9.26114 4.89941 9.11328C4.77267 8.96122 4.59269 8.8534 4.36035 8.79004C4.27176 8.76476 4.17476 8.7477 4.06934 8.73926C3.96372 8.73081 3.86606 8.72656 3.77734 8.72656H1.72461V11.54Z"
  />
</svg>